<?xml version="1.0" encoding="utf-8" standalone="no"?>
<!DOCTYPE svg PUBLIC "-//W3C//DTD SVG 1.1//EN"
  "http://www.w3.org/Graphics/SVG/1.1/DTD/svg11.dtd">
<svg xmlns:xlink="http://www.w3.org/1999/xlink" width="1080pt" height="720pt" viewBox="0 0 1080 720" xmlns="http://www.w3.org/2000/svg" version="1.1">
 <metadata>
  <rdf:RDF xmlns:dc="http://purl.org/dc/elements/1.1/" xmlns:cc="http://creativecommons.org/ns#" xmlns:rdf="http://www.w3.org/1999/02/22-rdf-syntax-ns#">
   <cc:Work>
    <dc:type rdf:resource="http://purl.org/dc/dcmitype/StillImage"/>
    <dc:date>2024-04-13T11:30:34.397762</dc:date>
    <dc:format>image/svg+xml</dc:format>
    <dc:creator>
     <cc:Agent>
      <dc:title>Matplotlib v3.8.3, https://matplotlib.org/</dc:title>
     </cc:Agent>
    </dc:creator>
   </cc:Work>
  </rdf:RDF>
 </metadata>
 <defs>
  <style type="text/css">*{stroke-linejoin: round; stroke-linecap: butt}</style>
 </defs>
 <g id="figure_1">
  <g id="patch_1">
   <path d="M 0 720 
L 1080 720 
L 1080 0 
L 0 0 
z
" style="fill: #ffffff"/>
  </g>
  <g id="axes_1">
   <g id="patch_2">
    <path d="M 54.2 323.44 
L 534.5775 323.44 
L 534.5775 26.16 
L 54.2 26.16 
z
" style="fill: #ffffff"/>
   </g>
   <g id="matplotlib.axis_1">
    <g id="xtick_1">
     <g id="line2d_1">
      <defs>
       <path id="m4598bd29ad" d="M 0 0 
L 0 3.5 
" style="stroke: #000000; stroke-width: 0.8"/>
      </defs>
      <g>
       <use xlink:href="#m4598bd29ad" x="75.889723" y="323.44" style="stroke: #000000; stroke-width: 0.8"/>
      </g>
     </g>
     <g id="text_1">
      <!-- 0 -->
      <g transform="translate(72.708473 338.038438) scale(0.1 -0.1)">
       <defs>
        <path id="DejaVuSans-30" d="M 2034 4250 
Q 1547 4250 1301 3770 
Q 1056 3291 1056 2328 
Q 1056 1369 1301 889 
Q 1547 409 2034 409 
Q 2525 409 2770 889 
Q 3016 1369 3016 2328 
Q 3016 3291 2770 3770 
Q 2525 4250 2034 4250 
z
M 2034 4750 
Q 2819 4750 3233 4129 
Q 3647 3509 3647 2328 
Q 3647 1150 3233 529 
Q 2819 -91 2034 -91 
Q 1250 -91 836 529 
Q 422 1150 422 2328 
Q 422 3509 836 4129 
Q 1250 4750 2034 4750 
z
" transform="scale(0.015625)"/>
       </defs>
       <use xlink:href="#DejaVuSans-30"/>
      </g>
     </g>
    </g>
    <g id="xtick_2">
     <g id="line2d_2">
      <g>
       <use xlink:href="#m4598bd29ad" x="148.698463" y="323.44" style="stroke: #000000; stroke-width: 0.8"/>
      </g>
     </g>
     <g id="text_2">
      <!-- 500 -->
      <g transform="translate(139.154713 338.038438) scale(0.1 -0.1)">
       <defs>
        <path id="DejaVuSans-35" d="M 691 4666 
L 3169 4666 
L 3169 4134 
L 1269 4134 
L 1269 2991 
Q 1406 3038 1543 3061 
Q 1681 3084 1819 3084 
Q 2600 3084 3056 2656 
Q 3513 2228 3513 1497 
Q 3513 744 3044 326 
Q 2575 -91 1722 -91 
Q 1428 -91 1123 -41 
Q 819 9 494 109 
L 494 744 
Q 775 591 1075 516 
Q 1375 441 1709 441 
Q 2250 441 2565 725 
Q 2881 1009 2881 1497 
Q 2881 1984 2565 2268 
Q 2250 2553 1709 2553 
Q 1456 2553 1204 2497 
Q 953 2441 691 2322 
L 691 4666 
z
" transform="scale(0.015625)"/>
       </defs>
       <use xlink:href="#DejaVuSans-35"/>
       <use xlink:href="#DejaVuSans-30" x="63.623047"/>
       <use xlink:href="#DejaVuSans-30" x="127.246094"/>
      </g>
     </g>
    </g>
    <g id="xtick_3">
     <g id="line2d_3">
      <g>
       <use xlink:href="#m4598bd29ad" x="221.507202" y="323.44" style="stroke: #000000; stroke-width: 0.8"/>
      </g>
     </g>
     <g id="text_3">
      <!-- 1000 -->
      <g transform="translate(208.782202 338.038438) scale(0.1 -0.1)">
       <defs>
        <path id="DejaVuSans-31" d="M 794 531 
L 1825 531 
L 1825 4091 
L 703 3866 
L 703 4441 
L 1819 4666 
L 2450 4666 
L 2450 531 
L 3481 531 
L 3481 0 
L 794 0 
L 794 531 
z
" transform="scale(0.015625)"/>
       </defs>
       <use xlink:href="#DejaVuSans-31"/>
       <use xlink:href="#DejaVuSans-30" x="63.623047"/>
       <use xlink:href="#DejaVuSans-30" x="127.246094"/>
       <use xlink:href="#DejaVuSans-30" x="190.869141"/>
      </g>
     </g>
    </g>
    <g id="xtick_4">
     <g id="line2d_4">
      <g>
       <use xlink:href="#m4598bd29ad" x="294.315941" y="323.44" style="stroke: #000000; stroke-width: 0.8"/>
      </g>
     </g>
     <g id="text_4">
      <!-- 1500 -->
      <g transform="translate(281.590941 338.038438) scale(0.1 -0.1)">
       <use xlink:href="#DejaVuSans-31"/>
       <use xlink:href="#DejaVuSans-35" x="63.623047"/>
       <use xlink:href="#DejaVuSans-30" x="127.246094"/>
       <use xlink:href="#DejaVuSans-30" x="190.869141"/>
      </g>
     </g>
    </g>
    <g id="xtick_5">
     <g id="line2d_5">
      <g>
       <use xlink:href="#m4598bd29ad" x="367.124681" y="323.44" style="stroke: #000000; stroke-width: 0.8"/>
      </g>
     </g>
     <g id="text_5">
      <!-- 2000 -->
      <g transform="translate(354.399681 338.038438) scale(0.1 -0.1)">
       <defs>
        <path id="DejaVuSans-32" d="M 1228 531 
L 3431 531 
L 3431 0 
L 469 0 
L 469 531 
Q 828 903 1448 1529 
Q 2069 2156 2228 2338 
Q 2531 2678 2651 2914 
Q 2772 3150 2772 3378 
Q 2772 3750 2511 3984 
Q 2250 4219 1831 4219 
Q 1534 4219 1204 4116 
Q 875 4013 500 3803 
L 500 4441 
Q 881 4594 1212 4672 
Q 1544 4750 1819 4750 
Q 2544 4750 2975 4387 
Q 3406 4025 3406 3419 
Q 3406 3131 3298 2873 
Q 3191 2616 2906 2266 
Q 2828 2175 2409 1742 
Q 1991 1309 1228 531 
z
" transform="scale(0.015625)"/>
       </defs>
       <use xlink:href="#DejaVuSans-32"/>
       <use xlink:href="#DejaVuSans-30" x="63.623047"/>
       <use xlink:href="#DejaVuSans-30" x="127.246094"/>
       <use xlink:href="#DejaVuSans-30" x="190.869141"/>
      </g>
     </g>
    </g>
    <g id="xtick_6">
     <g id="line2d_6">
      <g>
       <use xlink:href="#m4598bd29ad" x="439.93342" y="323.44" style="stroke: #000000; stroke-width: 0.8"/>
      </g>
     </g>
     <g id="text_6">
      <!-- 2500 -->
      <g transform="translate(427.20842 338.038438) scale(0.1 -0.1)">
       <use xlink:href="#DejaVuSans-32"/>
       <use xlink:href="#DejaVuSans-35" x="63.623047"/>
       <use xlink:href="#DejaVuSans-30" x="127.246094"/>
       <use xlink:href="#DejaVuSans-30" x="190.869141"/>
      </g>
     </g>
    </g>
    <g id="xtick_7">
     <g id="line2d_7">
      <g>
       <use xlink:href="#m4598bd29ad" x="512.742159" y="323.44" style="stroke: #000000; stroke-width: 0.8"/>
      </g>
     </g>
     <g id="text_7">
      <!-- 3000 -->
      <g transform="translate(500.017159 338.038438) scale(0.1 -0.1)">
       <defs>
        <path id="DejaVuSans-33" d="M 2597 2516 
Q 3050 2419 3304 2112 
Q 3559 1806 3559 1356 
Q 3559 666 3084 287 
Q 2609 -91 1734 -91 
Q 1441 -91 1130 -33 
Q 819 25 488 141 
L 488 750 
Q 750 597 1062 519 
Q 1375 441 1716 441 
Q 2309 441 2620 675 
Q 2931 909 2931 1356 
Q 2931 1769 2642 2001 
Q 2353 2234 1838 2234 
L 1294 2234 
L 1294 2753 
L 1863 2753 
Q 2328 2753 2575 2939 
Q 2822 3125 2822 3475 
Q 2822 3834 2567 4026 
Q 2313 4219 1838 4219 
Q 1578 4219 1281 4162 
Q 984 4106 628 3988 
L 628 4550 
Q 988 4650 1302 4700 
Q 1616 4750 1894 4750 
Q 2613 4750 3031 4423 
Q 3450 4097 3450 3541 
Q 3450 3153 3228 2886 
Q 3006 2619 2597 2516 
z
" transform="scale(0.015625)"/>
       </defs>
       <use xlink:href="#DejaVuSans-33"/>
       <use xlink:href="#DejaVuSans-30" x="63.623047"/>
       <use xlink:href="#DejaVuSans-30" x="127.246094"/>
       <use xlink:href="#DejaVuSans-30" x="190.869141"/>
      </g>
     </g>
    </g>
    <g id="text_8">
     <!-- Epochs -->
     <g transform="translate(276.473125 351.716563) scale(0.1 -0.1)">
      <defs>
       <path id="DejaVuSans-45" d="M 628 4666 
L 3578 4666 
L 3578 4134 
L 1259 4134 
L 1259 2753 
L 3481 2753 
L 3481 2222 
L 1259 2222 
L 1259 531 
L 3634 531 
L 3634 0 
L 628 0 
L 628 4666 
z
" transform="scale(0.015625)"/>
       <path id="DejaVuSans-70" d="M 1159 525 
L 1159 -1331 
L 581 -1331 
L 581 3500 
L 1159 3500 
L 1159 2969 
Q 1341 3281 1617 3432 
Q 1894 3584 2278 3584 
Q 2916 3584 3314 3078 
Q 3713 2572 3713 1747 
Q 3713 922 3314 415 
Q 2916 -91 2278 -91 
Q 1894 -91 1617 61 
Q 1341 213 1159 525 
z
M 3116 1747 
Q 3116 2381 2855 2742 
Q 2594 3103 2138 3103 
Q 1681 3103 1420 2742 
Q 1159 2381 1159 1747 
Q 1159 1113 1420 752 
Q 1681 391 2138 391 
Q 2594 391 2855 752 
Q 3116 1113 3116 1747 
z
" transform="scale(0.015625)"/>
       <path id="DejaVuSans-6f" d="M 1959 3097 
Q 1497 3097 1228 2736 
Q 959 2375 959 1747 
Q 959 1119 1226 758 
Q 1494 397 1959 397 
Q 2419 397 2687 759 
Q 2956 1122 2956 1747 
Q 2956 2369 2687 2733 
Q 2419 3097 1959 3097 
z
M 1959 3584 
Q 2709 3584 3137 3096 
Q 3566 2609 3566 1747 
Q 3566 888 3137 398 
Q 2709 -91 1959 -91 
Q 1206 -91 779 398 
Q 353 888 353 1747 
Q 353 2609 779 3096 
Q 1206 3584 1959 3584 
z
" transform="scale(0.015625)"/>
       <path id="DejaVuSans-63" d="M 3122 3366 
L 3122 2828 
Q 2878 2963 2633 3030 
Q 2388 3097 2138 3097 
Q 1578 3097 1268 2742 
Q 959 2388 959 1747 
Q 959 1106 1268 751 
Q 1578 397 2138 397 
Q 2388 397 2633 464 
Q 2878 531 3122 666 
L 3122 134 
Q 2881 22 2623 -34 
Q 2366 -91 2075 -91 
Q 1284 -91 818 406 
Q 353 903 353 1747 
Q 353 2603 823 3093 
Q 1294 3584 2113 3584 
Q 2378 3584 2631 3529 
Q 2884 3475 3122 3366 
z
" transform="scale(0.015625)"/>
       <path id="DejaVuSans-68" d="M 3513 2113 
L 3513 0 
L 2938 0 
L 2938 2094 
Q 2938 2591 2744 2837 
Q 2550 3084 2163 3084 
Q 1697 3084 1428 2787 
Q 1159 2491 1159 1978 
L 1159 0 
L 581 0 
L 581 4863 
L 1159 4863 
L 1159 2956 
Q 1366 3272 1645 3428 
Q 1925 3584 2291 3584 
Q 2894 3584 3203 3211 
Q 3513 2838 3513 2113 
z
" transform="scale(0.015625)"/>
       <path id="DejaVuSans-73" d="M 2834 3397 
L 2834 2853 
Q 2591 2978 2328 3040 
Q 2066 3103 1784 3103 
Q 1356 3103 1142 2972 
Q 928 2841 928 2578 
Q 928 2378 1081 2264 
Q 1234 2150 1697 2047 
L 1894 2003 
Q 2506 1872 2764 1633 
Q 3022 1394 3022 966 
Q 3022 478 2636 193 
Q 2250 -91 1575 -91 
Q 1294 -91 989 -36 
Q 684 19 347 128 
L 347 722 
Q 666 556 975 473 
Q 1284 391 1588 391 
Q 1994 391 2212 530 
Q 2431 669 2431 922 
Q 2431 1156 2273 1281 
Q 2116 1406 1581 1522 
L 1381 1569 
Q 847 1681 609 1914 
Q 372 2147 372 2553 
Q 372 3047 722 3315 
Q 1072 3584 1716 3584 
Q 2034 3584 2315 3537 
Q 2597 3491 2834 3397 
z
" transform="scale(0.015625)"/>
      </defs>
      <use xlink:href="#DejaVuSans-45"/>
      <use xlink:href="#DejaVuSans-70" x="63.183594"/>
      <use xlink:href="#DejaVuSans-6f" x="126.660156"/>
      <use xlink:href="#DejaVuSans-63" x="187.841797"/>
      <use xlink:href="#DejaVuSans-68" x="242.822266"/>
      <use xlink:href="#DejaVuSans-73" x="306.201172"/>
     </g>
    </g>
   </g>
   <g id="matplotlib.axis_2">
    <g id="ytick_1">
     <g id="line2d_8">
      <defs>
       <path id="m3f22a01d47" d="M 0 0 
L -3.5 0 
" style="stroke: #000000; stroke-width: 0.8"/>
      </defs>
      <g>
       <use xlink:href="#m3f22a01d47" x="54.2" y="290.367632" style="stroke: #000000; stroke-width: 0.8"/>
      </g>
     </g>
     <g id="text_9">
      <!-- 0.8 -->
      <g transform="translate(31.296875 294.166851) scale(0.1 -0.1)">
       <defs>
        <path id="DejaVuSans-2e" d="M 684 794 
L 1344 794 
L 1344 0 
L 684 0 
L 684 794 
z
" transform="scale(0.015625)"/>
        <path id="DejaVuSans-38" d="M 2034 2216 
Q 1584 2216 1326 1975 
Q 1069 1734 1069 1313 
Q 1069 891 1326 650 
Q 1584 409 2034 409 
Q 2484 409 2743 651 
Q 3003 894 3003 1313 
Q 3003 1734 2745 1975 
Q 2488 2216 2034 2216 
z
M 1403 2484 
Q 997 2584 770 2862 
Q 544 3141 544 3541 
Q 544 4100 942 4425 
Q 1341 4750 2034 4750 
Q 2731 4750 3128 4425 
Q 3525 4100 3525 3541 
Q 3525 3141 3298 2862 
Q 3072 2584 2669 2484 
Q 3125 2378 3379 2068 
Q 3634 1759 3634 1313 
Q 3634 634 3220 271 
Q 2806 -91 2034 -91 
Q 1263 -91 848 271 
Q 434 634 434 1313 
Q 434 1759 690 2068 
Q 947 2378 1403 2484 
z
M 1172 3481 
Q 1172 3119 1398 2916 
Q 1625 2713 2034 2713 
Q 2441 2713 2670 2916 
Q 2900 3119 2900 3481 
Q 2900 3844 2670 4047 
Q 2441 4250 2034 4250 
Q 1625 4250 1398 4047 
Q 1172 3844 1172 3481 
z
" transform="scale(0.015625)"/>
       </defs>
       <use xlink:href="#DejaVuSans-30"/>
       <use xlink:href="#DejaVuSans-2e" x="63.623047"/>
       <use xlink:href="#DejaVuSans-38" x="95.410156"/>
      </g>
     </g>
    </g>
    <g id="ytick_2">
     <g id="line2d_9">
      <g>
       <use xlink:href="#m3f22a01d47" x="54.2" y="239.420773" style="stroke: #000000; stroke-width: 0.8"/>
      </g>
     </g>
     <g id="text_10">
      <!-- 1.0 -->
      <g transform="translate(31.296875 243.219992) scale(0.1 -0.1)">
       <use xlink:href="#DejaVuSans-31"/>
       <use xlink:href="#DejaVuSans-2e" x="63.623047"/>
       <use xlink:href="#DejaVuSans-30" x="95.410156"/>
      </g>
     </g>
    </g>
    <g id="ytick_3">
     <g id="line2d_10">
      <g>
       <use xlink:href="#m3f22a01d47" x="54.2" y="188.473914" style="stroke: #000000; stroke-width: 0.8"/>
      </g>
     </g>
     <g id="text_11">
      <!-- 1.2 -->
      <g transform="translate(31.296875 192.273133) scale(0.1 -0.1)">
       <use xlink:href="#DejaVuSans-31"/>
       <use xlink:href="#DejaVuSans-2e" x="63.623047"/>
       <use xlink:href="#DejaVuSans-32" x="95.410156"/>
      </g>
     </g>
    </g>
    <g id="ytick_4">
     <g id="line2d_11">
      <g>
       <use xlink:href="#m3f22a01d47" x="54.2" y="137.527055" style="stroke: #000000; stroke-width: 0.8"/>
      </g>
     </g>
     <g id="text_12">
      <!-- 1.4 -->
      <g transform="translate(31.296875 141.326274) scale(0.1 -0.1)">
       <defs>
        <path id="DejaVuSans-34" d="M 2419 4116 
L 825 1625 
L 2419 1625 
L 2419 4116 
z
M 2253 4666 
L 3047 4666 
L 3047 1625 
L 3713 1625 
L 3713 1100 
L 3047 1100 
L 3047 0 
L 2419 0 
L 2419 1100 
L 313 1100 
L 313 1709 
L 2253 4666 
z
" transform="scale(0.015625)"/>
       </defs>
       <use xlink:href="#DejaVuSans-31"/>
       <use xlink:href="#DejaVuSans-2e" x="63.623047"/>
       <use xlink:href="#DejaVuSans-34" x="95.410156"/>
      </g>
     </g>
    </g>
    <g id="ytick_5">
     <g id="line2d_12">
      <g>
       <use xlink:href="#m3f22a01d47" x="54.2" y="86.580196" style="stroke: #000000; stroke-width: 0.8"/>
      </g>
     </g>
     <g id="text_13">
      <!-- 1.6 -->
      <g transform="translate(31.296875 90.379415) scale(0.1 -0.1)">
       <defs>
        <path id="DejaVuSans-36" d="M 2113 2584 
Q 1688 2584 1439 2293 
Q 1191 2003 1191 1497 
Q 1191 994 1439 701 
Q 1688 409 2113 409 
Q 2538 409 2786 701 
Q 3034 994 3034 1497 
Q 3034 2003 2786 2293 
Q 2538 2584 2113 2584 
z
M 3366 4563 
L 3366 3988 
Q 3128 4100 2886 4159 
Q 2644 4219 2406 4219 
Q 1781 4219 1451 3797 
Q 1122 3375 1075 2522 
Q 1259 2794 1537 2939 
Q 1816 3084 2150 3084 
Q 2853 3084 3261 2657 
Q 3669 2231 3669 1497 
Q 3669 778 3244 343 
Q 2819 -91 2113 -91 
Q 1303 -91 875 529 
Q 447 1150 447 2328 
Q 447 3434 972 4092 
Q 1497 4750 2381 4750 
Q 2619 4750 2861 4703 
Q 3103 4656 3366 4563 
z
" transform="scale(0.015625)"/>
       </defs>
       <use xlink:href="#DejaVuSans-31"/>
       <use xlink:href="#DejaVuSans-2e" x="63.623047"/>
       <use xlink:href="#DejaVuSans-36" x="95.410156"/>
      </g>
     </g>
    </g>
    <g id="ytick_6">
     <g id="line2d_13">
      <g>
       <use xlink:href="#m3f22a01d47" x="54.2" y="35.633337" style="stroke: #000000; stroke-width: 0.8"/>
      </g>
     </g>
     <g id="text_14">
      <!-- 1.8 -->
      <g transform="translate(31.296875 39.432556) scale(0.1 -0.1)">
       <use xlink:href="#DejaVuSans-31"/>
       <use xlink:href="#DejaVuSans-2e" x="63.623047"/>
       <use xlink:href="#DejaVuSans-38" x="95.410156"/>
      </g>
     </g>
    </g>
    <g id="text_15">
     <!-- Loss -->
     <g transform="translate(25.217188 185.767188) rotate(-90) scale(0.1 -0.1)">
      <defs>
       <path id="DejaVuSans-4c" d="M 628 4666 
L 1259 4666 
L 1259 531 
L 3531 531 
L 3531 0 
L 628 0 
L 628 4666 
z
" transform="scale(0.015625)"/>
      </defs>
      <use xlink:href="#DejaVuSans-4c"/>
      <use xlink:href="#DejaVuSans-6f" x="53.962891"/>
      <use xlink:href="#DejaVuSans-73" x="115.144531"/>
      <use xlink:href="#DejaVuSans-73" x="167.244141"/>
     </g>
    </g>
   </g>
   <g id="line2d_14">
    <path d="M 76.035341 39.672727 
L 76.326576 190.67983 
L 76.617811 222.238205 
L 76.909046 232.554925 
L 77.200281 236.343838 
L 77.491516 237.810519 
L 77.782751 238.394136 
L 78.219603 238.687053 
L 78.94769 238.790786 
L 86.082947 238.839008 
L 91.762029 238.860812 
L 230.098633 239.750343 
L 266.06615 240.452634 
L 292.422914 241.526704 
L 301.451198 242.137833 
L 309.168924 242.836176 
L 315.867328 243.633818 
L 322.420115 244.666924 
L 326.788639 245.545888 
L 331.302781 246.6707 
L 335.234453 247.884791 
L 338.729272 249.196496 
L 342.078474 250.717442 
L 344.553971 252.042219 
L 347.029468 253.574432 
L 349.504966 255.35064 
L 351.980463 257.41597 
L 354.310342 259.662756 
L 356.640222 262.239947 
L 358.824484 264.982333 
L 361.299981 268.480759 
L 363.775479 272.382029 
L 366.687828 277.395145 
L 373.823085 289.876448 
L 375.861729 292.917809 
L 377.754756 295.35129 
L 379.502166 297.245746 
L 381.249576 298.794053 
L 382.996986 300.036096 
L 384.890013 301.082502 
L 386.78304 301.875179 
L 388.821685 302.505987 
L 391.442799 303.080312 
L 394.937619 303.591308 
L 399.014908 303.981838 
L 406.587017 304.447405 
L 433.817486 305.753993 
L 455.660107 306.782665 
L 494.831209 308.703024 
L 512.742159 309.685523 
L 512.742159 309.685523 
" clip-path="url(#p41eb77858b)" style="fill: none; stroke: #1f77b4; stroke-width: 1.5; stroke-linecap: square"/>
   </g>
   <g id="line2d_15">
    <path d="M 76.035341 115.352481 
L 76.326576 201.22512 
L 76.617811 223.771419 
L 76.909046 231.487232 
L 77.200281 234.386158 
L 77.491516 235.5076 
L 77.782751 235.953018 
L 78.219603 236.189575 
L 79.384543 236.273387 
L 227.040666 237.215878 
L 250.193845 237.605361 
L 275.385669 238.315395 
L 288.63686 238.919844 
L 299.703788 239.649632 
L 307.858367 240.393236 
L 315.139241 241.281933 
L 321.255175 242.265556 
L 326.060552 243.25346 
L 330.429076 244.369436 
L 334.360748 245.607775 
L 337.855567 246.946703 
L 341.059152 248.420353 
L 343.971501 250.01046 
L 346.592616 251.693002 
L 349.068113 253.544854 
L 351.397993 255.562023 
L 353.582255 257.731556 
L 355.766517 260.203876 
L 357.950779 263.006767 
L 360.280659 266.380325 
L 362.610539 270.155239 
L 365.231653 274.825864 
L 369.163325 282.365186 
L 372.94938 289.479282 
L 375.279259 293.393595 
L 377.172287 296.155537 
L 378.919696 298.342424 
L 380.521489 300.018089 
L 382.268898 301.517536 
L 384.016308 302.70709 
L 385.763718 303.642141 
L 387.656745 304.413881 
L 389.986625 305.103979 
L 392.753357 305.671411 
L 396.248176 306.143552 
L 400.907936 306.529877 
L 408.334427 306.90152 
L 421.148765 307.327443 
L 512.742159 309.927273 
L 512.742159 309.927273 
" clip-path="url(#p41eb77858b)" style="fill: none; stroke: #ff7f0e; stroke-width: 1.5; stroke-linecap: square"/>
   </g>
   <g id="patch_3">
    <path d="M 54.2 323.44 
L 54.2 26.16 
" style="fill: none; stroke: #000000; stroke-width: 0.8; stroke-linejoin: miter; stroke-linecap: square"/>
   </g>
   <g id="patch_4">
    <path d="M 534.5775 323.44 
L 534.5775 26.16 
" style="fill: none; stroke: #000000; stroke-width: 0.8; stroke-linejoin: miter; stroke-linecap: square"/>
   </g>
   <g id="patch_5">
    <path d="M 54.2 323.44 
L 534.5775 323.44 
" style="fill: none; stroke: #000000; stroke-width: 0.8; stroke-linejoin: miter; stroke-linecap: square"/>
   </g>
   <g id="patch_6">
    <path d="M 54.2 26.16 
L 534.5775 26.16 
" style="fill: none; stroke: #000000; stroke-width: 0.8; stroke-linejoin: miter; stroke-linecap: square"/>
   </g>
   <g id="text_16">
    <!-- Training and Validation Loss -->
    <g transform="translate(210.919375 20.16) scale(0.12 -0.12)">
     <defs>
      <path id="DejaVuSans-54" d="M -19 4666 
L 3928 4666 
L 3928 4134 
L 2272 4134 
L 2272 0 
L 1638 0 
L 1638 4134 
L -19 4134 
L -19 4666 
z
" transform="scale(0.015625)"/>
      <path id="DejaVuSans-72" d="M 2631 2963 
Q 2534 3019 2420 3045 
Q 2306 3072 2169 3072 
Q 1681 3072 1420 2755 
Q 1159 2438 1159 1844 
L 1159 0 
L 581 0 
L 581 3500 
L 1159 3500 
L 1159 2956 
Q 1341 3275 1631 3429 
Q 1922 3584 2338 3584 
Q 2397 3584 2469 3576 
Q 2541 3569 2628 3553 
L 2631 2963 
z
" transform="scale(0.015625)"/>
      <path id="DejaVuSans-61" d="M 2194 1759 
Q 1497 1759 1228 1600 
Q 959 1441 959 1056 
Q 959 750 1161 570 
Q 1363 391 1709 391 
Q 2188 391 2477 730 
Q 2766 1069 2766 1631 
L 2766 1759 
L 2194 1759 
z
M 3341 1997 
L 3341 0 
L 2766 0 
L 2766 531 
Q 2569 213 2275 61 
Q 1981 -91 1556 -91 
Q 1019 -91 701 211 
Q 384 513 384 1019 
Q 384 1609 779 1909 
Q 1175 2209 1959 2209 
L 2766 2209 
L 2766 2266 
Q 2766 2663 2505 2880 
Q 2244 3097 1772 3097 
Q 1472 3097 1187 3025 
Q 903 2953 641 2809 
L 641 3341 
Q 956 3463 1253 3523 
Q 1550 3584 1831 3584 
Q 2591 3584 2966 3190 
Q 3341 2797 3341 1997 
z
" transform="scale(0.015625)"/>
      <path id="DejaVuSans-69" d="M 603 3500 
L 1178 3500 
L 1178 0 
L 603 0 
L 603 3500 
z
M 603 4863 
L 1178 4863 
L 1178 4134 
L 603 4134 
L 603 4863 
z
" transform="scale(0.015625)"/>
      <path id="DejaVuSans-6e" d="M 3513 2113 
L 3513 0 
L 2938 0 
L 2938 2094 
Q 2938 2591 2744 2837 
Q 2550 3084 2163 3084 
Q 1697 3084 1428 2787 
Q 1159 2491 1159 1978 
L 1159 0 
L 581 0 
L 581 3500 
L 1159 3500 
L 1159 2956 
Q 1366 3272 1645 3428 
Q 1925 3584 2291 3584 
Q 2894 3584 3203 3211 
Q 3513 2838 3513 2113 
z
" transform="scale(0.015625)"/>
      <path id="DejaVuSans-67" d="M 2906 1791 
Q 2906 2416 2648 2759 
Q 2391 3103 1925 3103 
Q 1463 3103 1205 2759 
Q 947 2416 947 1791 
Q 947 1169 1205 825 
Q 1463 481 1925 481 
Q 2391 481 2648 825 
Q 2906 1169 2906 1791 
z
M 3481 434 
Q 3481 -459 3084 -895 
Q 2688 -1331 1869 -1331 
Q 1566 -1331 1297 -1286 
Q 1028 -1241 775 -1147 
L 775 -588 
Q 1028 -725 1275 -790 
Q 1522 -856 1778 -856 
Q 2344 -856 2625 -561 
Q 2906 -266 2906 331 
L 2906 616 
Q 2728 306 2450 153 
Q 2172 0 1784 0 
Q 1141 0 747 490 
Q 353 981 353 1791 
Q 353 2603 747 3093 
Q 1141 3584 1784 3584 
Q 2172 3584 2450 3431 
Q 2728 3278 2906 2969 
L 2906 3500 
L 3481 3500 
L 3481 434 
z
" transform="scale(0.015625)"/>
      <path id="DejaVuSans-20" transform="scale(0.015625)"/>
      <path id="DejaVuSans-64" d="M 2906 2969 
L 2906 4863 
L 3481 4863 
L 3481 0 
L 2906 0 
L 2906 525 
Q 2725 213 2448 61 
Q 2172 -91 1784 -91 
Q 1150 -91 751 415 
Q 353 922 353 1747 
Q 353 2572 751 3078 
Q 1150 3584 1784 3584 
Q 2172 3584 2448 3432 
Q 2725 3281 2906 2969 
z
M 947 1747 
Q 947 1113 1208 752 
Q 1469 391 1925 391 
Q 2381 391 2643 752 
Q 2906 1113 2906 1747 
Q 2906 2381 2643 2742 
Q 2381 3103 1925 3103 
Q 1469 3103 1208 2742 
Q 947 2381 947 1747 
z
" transform="scale(0.015625)"/>
      <path id="DejaVuSans-56" d="M 1831 0 
L 50 4666 
L 709 4666 
L 2188 738 
L 3669 4666 
L 4325 4666 
L 2547 0 
L 1831 0 
z
" transform="scale(0.015625)"/>
      <path id="DejaVuSans-6c" d="M 603 4863 
L 1178 4863 
L 1178 0 
L 603 0 
L 603 4863 
z
" transform="scale(0.015625)"/>
      <path id="DejaVuSans-74" d="M 1172 4494 
L 1172 3500 
L 2356 3500 
L 2356 3053 
L 1172 3053 
L 1172 1153 
Q 1172 725 1289 603 
Q 1406 481 1766 481 
L 2356 481 
L 2356 0 
L 1766 0 
Q 1100 0 847 248 
Q 594 497 594 1153 
L 594 3053 
L 172 3053 
L 172 3500 
L 594 3500 
L 594 4494 
L 1172 4494 
z
" transform="scale(0.015625)"/>
     </defs>
     <use xlink:href="#DejaVuSans-54"/>
     <use xlink:href="#DejaVuSans-72" x="46.333984"/>
     <use xlink:href="#DejaVuSans-61" x="87.447266"/>
     <use xlink:href="#DejaVuSans-69" x="148.726562"/>
     <use xlink:href="#DejaVuSans-6e" x="176.509766"/>
     <use xlink:href="#DejaVuSans-69" x="239.888672"/>
     <use xlink:href="#DejaVuSans-6e" x="267.671875"/>
     <use xlink:href="#DejaVuSans-67" x="331.050781"/>
     <use xlink:href="#DejaVuSans-20" x="394.527344"/>
     <use xlink:href="#DejaVuSans-61" x="426.314453"/>
     <use xlink:href="#DejaVuSans-6e" x="487.59375"/>
     <use xlink:href="#DejaVuSans-64" x="550.972656"/>
     <use xlink:href="#DejaVuSans-20" x="614.449219"/>
     <use xlink:href="#DejaVuSans-56" x="646.236328"/>
     <use xlink:href="#DejaVuSans-61" x="706.894531"/>
     <use xlink:href="#DejaVuSans-6c" x="768.173828"/>
     <use xlink:href="#DejaVuSans-69" x="795.957031"/>
     <use xlink:href="#DejaVuSans-64" x="823.740234"/>
     <use xlink:href="#DejaVuSans-61" x="887.216797"/>
     <use xlink:href="#DejaVuSans-74" x="948.496094"/>
     <use xlink:href="#DejaVuSans-69" x="987.705078"/>
     <use xlink:href="#DejaVuSans-6f" x="1015.488281"/>
     <use xlink:href="#DejaVuSans-6e" x="1076.669922"/>
     <use xlink:href="#DejaVuSans-20" x="1140.048828"/>
     <use xlink:href="#DejaVuSans-4c" x="1171.835938"/>
     <use xlink:href="#DejaVuSans-6f" x="1225.798828"/>
     <use xlink:href="#DejaVuSans-73" x="1286.980469"/>
     <use xlink:href="#DejaVuSans-73" x="1339.080078"/>
    </g>
   </g>
   <g id="legend_1">
    <g id="patch_7">
     <path d="M 423.7025 63.51625 
L 527.5775 63.51625 
Q 529.5775 63.51625 529.5775 61.51625 
L 529.5775 33.16 
Q 529.5775 31.16 527.5775 31.16 
L 423.7025 31.16 
Q 421.7025 31.16 421.7025 33.16 
L 421.7025 61.51625 
Q 421.7025 63.51625 423.7025 63.51625 
z
" style="fill: #ffffff; opacity: 0.8; stroke: #cccccc; stroke-linejoin: miter"/>
    </g>
    <g id="line2d_16">
     <path d="M 425.7025 39.258438 
L 435.7025 39.258438 
L 445.7025 39.258438 
" style="fill: none; stroke: #1f77b4; stroke-width: 1.5; stroke-linecap: square"/>
    </g>
    <g id="text_17">
     <!-- Training loss -->
     <g transform="translate(453.7025 42.758438) scale(0.1 -0.1)">
      <use xlink:href="#DejaVuSans-54"/>
      <use xlink:href="#DejaVuSans-72" x="46.333984"/>
      <use xlink:href="#DejaVuSans-61" x="87.447266"/>
      <use xlink:href="#DejaVuSans-69" x="148.726562"/>
      <use xlink:href="#DejaVuSans-6e" x="176.509766"/>
      <use xlink:href="#DejaVuSans-69" x="239.888672"/>
      <use xlink:href="#DejaVuSans-6e" x="267.671875"/>
      <use xlink:href="#DejaVuSans-67" x="331.050781"/>
      <use xlink:href="#DejaVuSans-20" x="394.527344"/>
      <use xlink:href="#DejaVuSans-6c" x="426.314453"/>
      <use xlink:href="#DejaVuSans-6f" x="454.097656"/>
      <use xlink:href="#DejaVuSans-73" x="515.279297"/>
      <use xlink:href="#DejaVuSans-73" x="567.378906"/>
     </g>
    </g>
    <g id="line2d_17">
     <path d="M 425.7025 53.936563 
L 435.7025 53.936563 
L 445.7025 53.936563 
" style="fill: none; stroke: #ff7f0e; stroke-width: 1.5; stroke-linecap: square"/>
    </g>
    <g id="text_18">
     <!-- Validation loss -->
     <g transform="translate(453.7025 57.436563) scale(0.1 -0.1)">
      <use xlink:href="#DejaVuSans-56"/>
      <use xlink:href="#DejaVuSans-61" x="60.658203"/>
      <use xlink:href="#DejaVuSans-6c" x="121.9375"/>
      <use xlink:href="#DejaVuSans-69" x="149.720703"/>
      <use xlink:href="#DejaVuSans-64" x="177.503906"/>
      <use xlink:href="#DejaVuSans-61" x="240.980469"/>
      <use xlink:href="#DejaVuSans-74" x="302.259766"/>
      <use xlink:href="#DejaVuSans-69" x="341.46875"/>
      <use xlink:href="#DejaVuSans-6f" x="369.251953"/>
      <use xlink:href="#DejaVuSans-6e" x="430.433594"/>
      <use xlink:href="#DejaVuSans-20" x="493.8125"/>
      <use xlink:href="#DejaVuSans-6c" x="525.599609"/>
      <use xlink:href="#DejaVuSans-6f" x="553.382812"/>
      <use xlink:href="#DejaVuSans-73" x="614.564453"/>
      <use xlink:href="#DejaVuSans-73" x="666.664062"/>
     </g>
    </g>
   </g>
  </g>
  <g id="axes_2">
   <g id="patch_8">
    <path d="M 588.8225 323.44 
L 1069.2 323.44 
L 1069.2 26.16 
L 588.8225 26.16 
z
" style="fill: #ffffff"/>
   </g>
   <g id="matplotlib.axis_3">
    <g id="xtick_8">
     <g id="line2d_18">
      <g>
       <use xlink:href="#m4598bd29ad" x="603.105434" y="323.44" style="stroke: #000000; stroke-width: 0.8"/>
      </g>
     </g>
     <g id="text_19">
      <!-- 0 -->
      <g transform="translate(599.924184 338.038438) scale(0.1 -0.1)">
       <use xlink:href="#DejaVuSans-30"/>
      </g>
     </g>
    </g>
    <g id="xtick_9">
     <g id="line2d_19">
      <g>
       <use xlink:href="#m4598bd29ad" x="677.148638" y="323.44" style="stroke: #000000; stroke-width: 0.8"/>
      </g>
     </g>
     <g id="text_20">
      <!-- 500 -->
      <g transform="translate(667.604888 338.038438) scale(0.1 -0.1)">
       <use xlink:href="#DejaVuSans-35"/>
       <use xlink:href="#DejaVuSans-30" x="63.623047"/>
       <use xlink:href="#DejaVuSans-30" x="127.246094"/>
      </g>
     </g>
    </g>
    <g id="xtick_10">
     <g id="line2d_20">
      <g>
       <use xlink:href="#m4598bd29ad" x="751.191842" y="323.44" style="stroke: #000000; stroke-width: 0.8"/>
      </g>
     </g>
     <g id="text_21">
      <!-- 1000 -->
      <g transform="translate(738.466842 338.038438) scale(0.1 -0.1)">
       <use xlink:href="#DejaVuSans-31"/>
       <use xlink:href="#DejaVuSans-30" x="63.623047"/>
       <use xlink:href="#DejaVuSans-30" x="127.246094"/>
       <use xlink:href="#DejaVuSans-30" x="190.869141"/>
      </g>
     </g>
    </g>
    <g id="xtick_11">
     <g id="line2d_21">
      <g>
       <use xlink:href="#m4598bd29ad" x="825.235047" y="323.44" style="stroke: #000000; stroke-width: 0.8"/>
      </g>
     </g>
     <g id="text_22">
      <!-- 1500 -->
      <g transform="translate(812.510047 338.038438) scale(0.1 -0.1)">
       <use xlink:href="#DejaVuSans-31"/>
       <use xlink:href="#DejaVuSans-35" x="63.623047"/>
       <use xlink:href="#DejaVuSans-30" x="127.246094"/>
       <use xlink:href="#DejaVuSans-30" x="190.869141"/>
      </g>
     </g>
    </g>
    <g id="xtick_12">
     <g id="line2d_22">
      <g>
       <use xlink:href="#m4598bd29ad" x="899.278251" y="323.44" style="stroke: #000000; stroke-width: 0.8"/>
      </g>
     </g>
     <g id="text_23">
      <!-- 2000 -->
      <g transform="translate(886.553251 338.038438) scale(0.1 -0.1)">
       <use xlink:href="#DejaVuSans-32"/>
       <use xlink:href="#DejaVuSans-30" x="63.623047"/>
       <use xlink:href="#DejaVuSans-30" x="127.246094"/>
       <use xlink:href="#DejaVuSans-30" x="190.869141"/>
      </g>
     </g>
    </g>
    <g id="xtick_13">
     <g id="line2d_23">
      <g>
       <use xlink:href="#m4598bd29ad" x="973.321455" y="323.44" style="stroke: #000000; stroke-width: 0.8"/>
      </g>
     </g>
     <g id="text_24">
      <!-- 2500 -->
      <g transform="translate(960.596455 338.038438) scale(0.1 -0.1)">
       <use xlink:href="#DejaVuSans-32"/>
       <use xlink:href="#DejaVuSans-35" x="63.623047"/>
       <use xlink:href="#DejaVuSans-30" x="127.246094"/>
       <use xlink:href="#DejaVuSans-30" x="190.869141"/>
      </g>
     </g>
    </g>
    <g id="xtick_14">
     <g id="line2d_24">
      <g>
       <use xlink:href="#m4598bd29ad" x="1047.364659" y="323.44" style="stroke: #000000; stroke-width: 0.8"/>
      </g>
     </g>
     <g id="text_25">
      <!-- 3000 -->
      <g transform="translate(1034.639659 338.038438) scale(0.1 -0.1)">
       <use xlink:href="#DejaVuSans-33"/>
       <use xlink:href="#DejaVuSans-30" x="63.623047"/>
       <use xlink:href="#DejaVuSans-30" x="127.246094"/>
       <use xlink:href="#DejaVuSans-30" x="190.869141"/>
      </g>
     </g>
    </g>
    <g id="text_26">
     <!-- Epochs -->
     <g transform="translate(811.095625 351.716563) scale(0.1 -0.1)">
      <use xlink:href="#DejaVuSans-45"/>
      <use xlink:href="#DejaVuSans-70" x="63.183594"/>
      <use xlink:href="#DejaVuSans-6f" x="126.660156"/>
      <use xlink:href="#DejaVuSans-63" x="187.841797"/>
      <use xlink:href="#DejaVuSans-68" x="242.822266"/>
      <use xlink:href="#DejaVuSans-73" x="306.201172"/>
     </g>
    </g>
   </g>
   <g id="matplotlib.axis_4">
    <g id="ytick_7">
     <g id="line2d_25">
      <g>
       <use xlink:href="#m3f22a01d47" x="588.8225" y="284.884951" style="stroke: #000000; stroke-width: 0.8"/>
      </g>
     </g>
     <g id="text_27">
      <!-- 0.75 -->
      <g transform="translate(559.556875 288.68417) scale(0.1 -0.1)">
       <defs>
        <path id="DejaVuSans-37" d="M 525 4666 
L 3525 4666 
L 3525 4397 
L 1831 0 
L 1172 0 
L 2766 4134 
L 525 4134 
L 525 4666 
z
" transform="scale(0.015625)"/>
       </defs>
       <use xlink:href="#DejaVuSans-30"/>
       <use xlink:href="#DejaVuSans-2e" x="63.623047"/>
       <use xlink:href="#DejaVuSans-37" x="95.410156"/>
       <use xlink:href="#DejaVuSans-35" x="159.033203"/>
      </g>
     </g>
    </g>
    <g id="ytick_8">
     <g id="line2d_26">
      <g>
       <use xlink:href="#m3f22a01d47" x="588.8225" y="238.13713" style="stroke: #000000; stroke-width: 0.8"/>
      </g>
     </g>
     <g id="text_28">
      <!-- 0.80 -->
      <g transform="translate(559.556875 241.936349) scale(0.1 -0.1)">
       <use xlink:href="#DejaVuSans-30"/>
       <use xlink:href="#DejaVuSans-2e" x="63.623047"/>
       <use xlink:href="#DejaVuSans-38" x="95.410156"/>
       <use xlink:href="#DejaVuSans-30" x="159.033203"/>
      </g>
     </g>
    </g>
    <g id="ytick_9">
     <g id="line2d_27">
      <g>
       <use xlink:href="#m3f22a01d47" x="588.8225" y="191.389308" style="stroke: #000000; stroke-width: 0.8"/>
      </g>
     </g>
     <g id="text_29">
      <!-- 0.85 -->
      <g transform="translate(559.556875 195.188527) scale(0.1 -0.1)">
       <use xlink:href="#DejaVuSans-30"/>
       <use xlink:href="#DejaVuSans-2e" x="63.623047"/>
       <use xlink:href="#DejaVuSans-38" x="95.410156"/>
       <use xlink:href="#DejaVuSans-35" x="159.033203"/>
      </g>
     </g>
    </g>
    <g id="ytick_10">
     <g id="line2d_28">
      <g>
       <use xlink:href="#m3f22a01d47" x="588.8225" y="144.641487" style="stroke: #000000; stroke-width: 0.8"/>
      </g>
     </g>
     <g id="text_30">
      <!-- 0.90 -->
      <g transform="translate(559.556875 148.440706) scale(0.1 -0.1)">
       <defs>
        <path id="DejaVuSans-39" d="M 703 97 
L 703 672 
Q 941 559 1184 500 
Q 1428 441 1663 441 
Q 2288 441 2617 861 
Q 2947 1281 2994 2138 
Q 2813 1869 2534 1725 
Q 2256 1581 1919 1581 
Q 1219 1581 811 2004 
Q 403 2428 403 3163 
Q 403 3881 828 4315 
Q 1253 4750 1959 4750 
Q 2769 4750 3195 4129 
Q 3622 3509 3622 2328 
Q 3622 1225 3098 567 
Q 2575 -91 1691 -91 
Q 1453 -91 1209 -44 
Q 966 3 703 97 
z
M 1959 2075 
Q 2384 2075 2632 2365 
Q 2881 2656 2881 3163 
Q 2881 3666 2632 3958 
Q 2384 4250 1959 4250 
Q 1534 4250 1286 3958 
Q 1038 3666 1038 3163 
Q 1038 2656 1286 2365 
Q 1534 2075 1959 2075 
z
" transform="scale(0.015625)"/>
       </defs>
       <use xlink:href="#DejaVuSans-30"/>
       <use xlink:href="#DejaVuSans-2e" x="63.623047"/>
       <use xlink:href="#DejaVuSans-39" x="95.410156"/>
       <use xlink:href="#DejaVuSans-30" x="159.033203"/>
      </g>
     </g>
    </g>
    <g id="ytick_11">
     <g id="line2d_29">
      <g>
       <use xlink:href="#m3f22a01d47" x="588.8225" y="97.893666" style="stroke: #000000; stroke-width: 0.8"/>
      </g>
     </g>
     <g id="text_31">
      <!-- 0.95 -->
      <g transform="translate(559.556875 101.692884) scale(0.1 -0.1)">
       <use xlink:href="#DejaVuSans-30"/>
       <use xlink:href="#DejaVuSans-2e" x="63.623047"/>
       <use xlink:href="#DejaVuSans-39" x="95.410156"/>
       <use xlink:href="#DejaVuSans-35" x="159.033203"/>
      </g>
     </g>
    </g>
    <g id="ytick_12">
     <g id="line2d_30">
      <g>
       <use xlink:href="#m3f22a01d47" x="588.8225" y="51.145844" style="stroke: #000000; stroke-width: 0.8"/>
      </g>
     </g>
     <g id="text_32">
      <!-- 1.00 -->
      <g transform="translate(559.556875 54.945063) scale(0.1 -0.1)">
       <use xlink:href="#DejaVuSans-31"/>
       <use xlink:href="#DejaVuSans-2e" x="63.623047"/>
       <use xlink:href="#DejaVuSans-30" x="95.410156"/>
       <use xlink:href="#DejaVuSans-30" x="159.033203"/>
      </g>
     </g>
    </g>
    <g id="text_33">
     <!-- Loss -->
     <g transform="translate(553.477188 185.767188) rotate(-90) scale(0.1 -0.1)">
      <use xlink:href="#DejaVuSans-4c"/>
      <use xlink:href="#DejaVuSans-6f" x="53.962891"/>
      <use xlink:href="#DejaVuSans-73" x="115.144531"/>
      <use xlink:href="#DejaVuSans-73" x="167.244141"/>
     </g>
    </g>
   </g>
   <g id="line2d_31">
    <path d="M 610.657841 48.958419 
L 643.384937 49.442581 
L 645.75432 49.482259 
L 657.749319 49.660142 
L 660.118701 49.698149 
L 684.108699 50.118002 
L 686.329996 50.156342 
L 693.734316 50.300008 
L 697.436476 50.382374 
L 699.657772 50.42651 
L 704.840797 50.543093 
L 710.764253 50.680517 
L 747.341596 51.806608 
L 757.855731 52.259953 
L 763.483014 52.536196 
L 785.992148 53.982944 
L 799.319925 55.231022 
L 807.908937 56.272908 
L 818.274985 57.894586 
L 827.012083 59.697545 
L 836.489614 62.333635 
L 840.33986 63.681466 
L 844.04202 65.174858 
L 848.336526 67.211039 
L 850.853995 68.581328 
L 854.111896 70.592264 
L 857.66597 73.157356 
L 860.183439 75.245419 
L 863.44134 78.360879 
L 865.958809 81.141916 
L 868.032019 83.720049 
L 869.957142 86.372634 
L 872.178438 89.807302 
L 874.399734 93.688461 
L 876.472944 97.776147 
L 878.69424 102.740709 
L 880.619363 107.595543 
L 882.692573 113.483235 
L 884.765783 120.150168 
L 886.838992 127.690801 
L 888.764116 135.533088 
L 890.837325 144.964953 
L 893.058622 156.214713 
L 895.279918 168.633586 
L 897.945473 184.866576 
L 902.980411 217.408292 
L 905.794053 234.63045 
L 907.867262 245.99278 
L 909.644299 254.486859 
L 911.27325 261.20991 
L 912.754114 266.374089 
L 914.234978 270.708036 
L 915.715842 274.280519 
L 917.04862 276.937673 
L 918.529484 279.354474 
L 919.862262 281.111347 
L 921.195039 282.544275 
L 922.675903 283.843065 
L 924.45294 285.078717 
L 926.52615 286.201798 
L 928.747446 287.145324 
L 931.413001 288.022033 
L 935.263248 288.981554 
L 939.113495 289.757061 
L 949.18337 291.568101 
L 953.32979 292.280358 
L 958.364728 293.143413 
L 978.06022 296.463226 
L 987.093491 298.003374 
L 1012.564353 302.379953 
L 1041.14503 307.7822 
L 1047.364659 309.039976 
L 1047.364659 309.039976 
" clip-path="url(#p0d1031b75a)" style="fill: none; stroke: #1f77b4; stroke-width: 1.5; stroke-linecap: square"/>
   </g>
   <g id="line2d_32">
    <path d="M 610.657841 39.687328 
L 645.606233 40.192221 
L 649.160307 40.247615 
L 654.787591 40.337559 
L 665.597898 40.512321 
L 677.88907 40.732892 
L 685.441477 40.8721 
L 719.057092 41.664994 
L 727.201844 41.905515 
L 736.383202 42.208674 
L 752.820793 42.863364 
L 768.221779 43.667515 
L 785.10363 44.857191 
L 795.469679 45.826185 
L 804.206777 46.849346 
L 812.647702 48.082601 
L 819.459677 49.307274 
L 825.679306 50.67227 
L 831.750849 52.289823 
L 835.601095 53.498112 
L 839.747515 55.002706 
L 843.301588 56.491974 
L 847.003749 58.282116 
L 850.113563 60.008005 
L 853.223378 61.983888 
L 856.03702 64.026309 
L 858.702575 66.222874 
L 861.36813 68.71162 
L 863.737513 71.215523 
L 865.958809 73.85412 
L 868.328191 77.026199 
L 870.549488 80.384743 
L 872.770784 84.177184 
L 874.99208 88.460195 
L 877.06529 92.980161 
L 878.990413 97.697794 
L 880.915536 102.985744 
L 882.840659 108.919411 
L 884.765783 115.578877 
L 886.690906 123.048512 
L 888.764116 132.069831 
L 890.837325 142.18581 
L 892.910535 153.422865 
L 895.131831 166.700502 
L 897.6493 183.084347 
L 901.647633 210.840721 
L 905.053621 233.92399 
L 907.274917 247.555108 
L 909.051954 257.170039 
L 910.680904 264.885601 
L 912.161768 270.901913 
L 913.642632 275.994202 
L 915.123496 280.251524 
L 916.456274 283.426891 
L 917.789052 286.080033 
L 919.121829 288.269855 
L 920.454607 290.057322 
L 921.935471 291.668746 
L 923.416335 292.972329 
L 925.045286 294.123441 
L 926.970409 295.200659 
L 928.895532 296.039807 
L 931.413001 296.884194 
L 934.37473 297.62554 
L 938.224976 298.355016 
L 944.888865 299.345298 
L 952.145099 300.172019 
L 966.065221 301.475993 
L 1001.902132 304.796363 
L 1020.857192 306.782779 
L 1041.737376 309.21992 
L 1047.364659 309.927273 
L 1047.364659 309.927273 
" clip-path="url(#p0d1031b75a)" style="fill: none; stroke: #ff7f0e; stroke-width: 1.5; stroke-linecap: square"/>
   </g>
   <g id="patch_9">
    <path d="M 588.8225 323.44 
L 588.8225 26.16 
" style="fill: none; stroke: #000000; stroke-width: 0.8; stroke-linejoin: miter; stroke-linecap: square"/>
   </g>
   <g id="patch_10">
    <path d="M 1069.2 323.44 
L 1069.2 26.16 
" style="fill: none; stroke: #000000; stroke-width: 0.8; stroke-linejoin: miter; stroke-linecap: square"/>
   </g>
   <g id="patch_11">
    <path d="M 588.8225 323.44 
L 1069.2 323.44 
" style="fill: none; stroke: #000000; stroke-width: 0.8; stroke-linejoin: miter; stroke-linecap: square"/>
   </g>
   <g id="patch_12">
    <path d="M 588.8225 26.16 
L 1069.2 26.16 
" style="fill: none; stroke: #000000; stroke-width: 0.8; stroke-linejoin: miter; stroke-linecap: square"/>
   </g>
   <g id="text_34">
    <!-- Training and Validation Loss (Skip first 50) -->
    <g transform="translate(703.021562 20.16) scale(0.12 -0.12)">
     <defs>
      <path id="DejaVuSans-28" d="M 1984 4856 
Q 1566 4138 1362 3434 
Q 1159 2731 1159 2009 
Q 1159 1288 1364 580 
Q 1569 -128 1984 -844 
L 1484 -844 
Q 1016 -109 783 600 
Q 550 1309 550 2009 
Q 550 2706 781 3412 
Q 1013 4119 1484 4856 
L 1984 4856 
z
" transform="scale(0.015625)"/>
      <path id="DejaVuSans-53" d="M 3425 4513 
L 3425 3897 
Q 3066 4069 2747 4153 
Q 2428 4238 2131 4238 
Q 1616 4238 1336 4038 
Q 1056 3838 1056 3469 
Q 1056 3159 1242 3001 
Q 1428 2844 1947 2747 
L 2328 2669 
Q 3034 2534 3370 2195 
Q 3706 1856 3706 1288 
Q 3706 609 3251 259 
Q 2797 -91 1919 -91 
Q 1588 -91 1214 -16 
Q 841 59 441 206 
L 441 856 
Q 825 641 1194 531 
Q 1563 422 1919 422 
Q 2459 422 2753 634 
Q 3047 847 3047 1241 
Q 3047 1584 2836 1778 
Q 2625 1972 2144 2069 
L 1759 2144 
Q 1053 2284 737 2584 
Q 422 2884 422 3419 
Q 422 4038 858 4394 
Q 1294 4750 2059 4750 
Q 2388 4750 2728 4690 
Q 3069 4631 3425 4513 
z
" transform="scale(0.015625)"/>
      <path id="DejaVuSans-6b" d="M 581 4863 
L 1159 4863 
L 1159 1991 
L 2875 3500 
L 3609 3500 
L 1753 1863 
L 3688 0 
L 2938 0 
L 1159 1709 
L 1159 0 
L 581 0 
L 581 4863 
z
" transform="scale(0.015625)"/>
      <path id="DejaVuSans-66" d="M 2375 4863 
L 2375 4384 
L 1825 4384 
Q 1516 4384 1395 4259 
Q 1275 4134 1275 3809 
L 1275 3500 
L 2222 3500 
L 2222 3053 
L 1275 3053 
L 1275 0 
L 697 0 
L 697 3053 
L 147 3053 
L 147 3500 
L 697 3500 
L 697 3744 
Q 697 4328 969 4595 
Q 1241 4863 1831 4863 
L 2375 4863 
z
" transform="scale(0.015625)"/>
      <path id="DejaVuSans-29" d="M 513 4856 
L 1013 4856 
Q 1481 4119 1714 3412 
Q 1947 2706 1947 2009 
Q 1947 1309 1714 600 
Q 1481 -109 1013 -844 
L 513 -844 
Q 928 -128 1133 580 
Q 1338 1288 1338 2009 
Q 1338 2731 1133 3434 
Q 928 4138 513 4856 
z
" transform="scale(0.015625)"/>
     </defs>
     <use xlink:href="#DejaVuSans-54"/>
     <use xlink:href="#DejaVuSans-72" x="46.333984"/>
     <use xlink:href="#DejaVuSans-61" x="87.447266"/>
     <use xlink:href="#DejaVuSans-69" x="148.726562"/>
     <use xlink:href="#DejaVuSans-6e" x="176.509766"/>
     <use xlink:href="#DejaVuSans-69" x="239.888672"/>
     <use xlink:href="#DejaVuSans-6e" x="267.671875"/>
     <use xlink:href="#DejaVuSans-67" x="331.050781"/>
     <use xlink:href="#DejaVuSans-20" x="394.527344"/>
     <use xlink:href="#DejaVuSans-61" x="426.314453"/>
     <use xlink:href="#DejaVuSans-6e" x="487.59375"/>
     <use xlink:href="#DejaVuSans-64" x="550.972656"/>
     <use xlink:href="#DejaVuSans-20" x="614.449219"/>
     <use xlink:href="#DejaVuSans-56" x="646.236328"/>
     <use xlink:href="#DejaVuSans-61" x="706.894531"/>
     <use xlink:href="#DejaVuSans-6c" x="768.173828"/>
     <use xlink:href="#DejaVuSans-69" x="795.957031"/>
     <use xlink:href="#DejaVuSans-64" x="823.740234"/>
     <use xlink:href="#DejaVuSans-61" x="887.216797"/>
     <use xlink:href="#DejaVuSans-74" x="948.496094"/>
     <use xlink:href="#DejaVuSans-69" x="987.705078"/>
     <use xlink:href="#DejaVuSans-6f" x="1015.488281"/>
     <use xlink:href="#DejaVuSans-6e" x="1076.669922"/>
     <use xlink:href="#DejaVuSans-20" x="1140.048828"/>
     <use xlink:href="#DejaVuSans-4c" x="1171.835938"/>
     <use xlink:href="#DejaVuSans-6f" x="1225.798828"/>
     <use xlink:href="#DejaVuSans-73" x="1286.980469"/>
     <use xlink:href="#DejaVuSans-73" x="1339.080078"/>
     <use xlink:href="#DejaVuSans-20" x="1391.179688"/>
     <use xlink:href="#DejaVuSans-28" x="1422.966797"/>
     <use xlink:href="#DejaVuSans-53" x="1461.980469"/>
     <use xlink:href="#DejaVuSans-6b" x="1525.457031"/>
     <use xlink:href="#DejaVuSans-69" x="1583.367188"/>
     <use xlink:href="#DejaVuSans-70" x="1611.150391"/>
     <use xlink:href="#DejaVuSans-20" x="1674.626953"/>
     <use xlink:href="#DejaVuSans-66" x="1706.414062"/>
     <use xlink:href="#DejaVuSans-69" x="1741.619141"/>
     <use xlink:href="#DejaVuSans-72" x="1769.402344"/>
     <use xlink:href="#DejaVuSans-73" x="1810.515625"/>
     <use xlink:href="#DejaVuSans-74" x="1862.615234"/>
     <use xlink:href="#DejaVuSans-20" x="1901.824219"/>
     <use xlink:href="#DejaVuSans-35" x="1933.611328"/>
     <use xlink:href="#DejaVuSans-30" x="1997.234375"/>
     <use xlink:href="#DejaVuSans-29" x="2060.857422"/>
    </g>
   </g>
   <g id="legend_2">
    <g id="patch_13">
     <path d="M 958.325 63.51625 
L 1062.2 63.51625 
Q 1064.2 63.51625 1064.2 61.51625 
L 1064.2 33.16 
Q 1064.2 31.16 1062.2 31.16 
L 958.325 31.16 
Q 956.325 31.16 956.325 33.16 
L 956.325 61.51625 
Q 956.325 63.51625 958.325 63.51625 
z
" style="fill: #ffffff; opacity: 0.8; stroke: #cccccc; stroke-linejoin: miter"/>
    </g>
    <g id="line2d_33">
     <path d="M 960.325 39.258438 
L 970.325 39.258438 
L 980.325 39.258438 
" style="fill: none; stroke: #1f77b4; stroke-width: 1.5; stroke-linecap: square"/>
    </g>
    <g id="text_35">
     <!-- Training loss -->
     <g transform="translate(988.325 42.758438) scale(0.1 -0.1)">
      <use xlink:href="#DejaVuSans-54"/>
      <use xlink:href="#DejaVuSans-72" x="46.333984"/>
      <use xlink:href="#DejaVuSans-61" x="87.447266"/>
      <use xlink:href="#DejaVuSans-69" x="148.726562"/>
      <use xlink:href="#DejaVuSans-6e" x="176.509766"/>
      <use xlink:href="#DejaVuSans-69" x="239.888672"/>
      <use xlink:href="#DejaVuSans-6e" x="267.671875"/>
      <use xlink:href="#DejaVuSans-67" x="331.050781"/>
      <use xlink:href="#DejaVuSans-20" x="394.527344"/>
      <use xlink:href="#DejaVuSans-6c" x="426.314453"/>
      <use xlink:href="#DejaVuSans-6f" x="454.097656"/>
      <use xlink:href="#DejaVuSans-73" x="515.279297"/>
      <use xlink:href="#DejaVuSans-73" x="567.378906"/>
     </g>
    </g>
    <g id="line2d_34">
     <path d="M 960.325 53.936563 
L 970.325 53.936563 
L 980.325 53.936563 
" style="fill: none; stroke: #ff7f0e; stroke-width: 1.5; stroke-linecap: square"/>
    </g>
    <g id="text_36">
     <!-- Validation loss -->
     <g transform="translate(988.325 57.436563) scale(0.1 -0.1)">
      <use xlink:href="#DejaVuSans-56"/>
      <use xlink:href="#DejaVuSans-61" x="60.658203"/>
      <use xlink:href="#DejaVuSans-6c" x="121.9375"/>
      <use xlink:href="#DejaVuSans-69" x="149.720703"/>
      <use xlink:href="#DejaVuSans-64" x="177.503906"/>
      <use xlink:href="#DejaVuSans-61" x="240.980469"/>
      <use xlink:href="#DejaVuSans-74" x="302.259766"/>
      <use xlink:href="#DejaVuSans-69" x="341.46875"/>
      <use xlink:href="#DejaVuSans-6f" x="369.251953"/>
      <use xlink:href="#DejaVuSans-6e" x="430.433594"/>
      <use xlink:href="#DejaVuSans-20" x="493.8125"/>
      <use xlink:href="#DejaVuSans-6c" x="525.599609"/>
      <use xlink:href="#DejaVuSans-6f" x="553.382812"/>
      <use xlink:href="#DejaVuSans-73" x="614.564453"/>
      <use xlink:href="#DejaVuSans-73" x="666.664062"/>
     </g>
    </g>
   </g>
  </g>
  <g id="axes_3">
   <g id="patch_14">
    <path d="M 54.2 678.04 
L 534.5775 678.04 
L 534.5775 380.76 
L 54.2 380.76 
z
" style="fill: #ffffff"/>
   </g>
   <g id="matplotlib.axis_5">
    <g id="xtick_15">
     <g id="line2d_35">
      <g>
       <use xlink:href="#m4598bd29ad" x="68.482934" y="678.04" style="stroke: #000000; stroke-width: 0.8"/>
      </g>
     </g>
     <g id="text_37">
      <!-- 0 -->
      <g transform="translate(65.301684 692.638438) scale(0.1 -0.1)">
       <use xlink:href="#DejaVuSans-30"/>
      </g>
     </g>
    </g>
    <g id="xtick_16">
     <g id="line2d_36">
      <g>
       <use xlink:href="#m4598bd29ad" x="142.526138" y="678.04" style="stroke: #000000; stroke-width: 0.8"/>
      </g>
     </g>
     <g id="text_38">
      <!-- 500 -->
      <g transform="translate(132.982388 692.638438) scale(0.1 -0.1)">
       <use xlink:href="#DejaVuSans-35"/>
       <use xlink:href="#DejaVuSans-30" x="63.623047"/>
       <use xlink:href="#DejaVuSans-30" x="127.246094"/>
      </g>
     </g>
    </g>
    <g id="xtick_17">
     <g id="line2d_37">
      <g>
       <use xlink:href="#m4598bd29ad" x="216.569342" y="678.04" style="stroke: #000000; stroke-width: 0.8"/>
      </g>
     </g>
     <g id="text_39">
      <!-- 1000 -->
      <g transform="translate(203.844342 692.638438) scale(0.1 -0.1)">
       <use xlink:href="#DejaVuSans-31"/>
       <use xlink:href="#DejaVuSans-30" x="63.623047"/>
       <use xlink:href="#DejaVuSans-30" x="127.246094"/>
       <use xlink:href="#DejaVuSans-30" x="190.869141"/>
      </g>
     </g>
    </g>
    <g id="xtick_18">
     <g id="line2d_38">
      <g>
       <use xlink:href="#m4598bd29ad" x="290.612547" y="678.04" style="stroke: #000000; stroke-width: 0.8"/>
      </g>
     </g>
     <g id="text_40">
      <!-- 1500 -->
      <g transform="translate(277.887547 692.638438) scale(0.1 -0.1)">
       <use xlink:href="#DejaVuSans-31"/>
       <use xlink:href="#DejaVuSans-35" x="63.623047"/>
       <use xlink:href="#DejaVuSans-30" x="127.246094"/>
       <use xlink:href="#DejaVuSans-30" x="190.869141"/>
      </g>
     </g>
    </g>
    <g id="xtick_19">
     <g id="line2d_39">
      <g>
       <use xlink:href="#m4598bd29ad" x="364.655751" y="678.04" style="stroke: #000000; stroke-width: 0.8"/>
      </g>
     </g>
     <g id="text_41">
      <!-- 2000 -->
      <g transform="translate(351.930751 692.638438) scale(0.1 -0.1)">
       <use xlink:href="#DejaVuSans-32"/>
       <use xlink:href="#DejaVuSans-30" x="63.623047"/>
       <use xlink:href="#DejaVuSans-30" x="127.246094"/>
       <use xlink:href="#DejaVuSans-30" x="190.869141"/>
      </g>
     </g>
    </g>
    <g id="xtick_20">
     <g id="line2d_40">
      <g>
       <use xlink:href="#m4598bd29ad" x="438.698955" y="678.04" style="stroke: #000000; stroke-width: 0.8"/>
      </g>
     </g>
     <g id="text_42">
      <!-- 2500 -->
      <g transform="translate(425.973955 692.638438) scale(0.1 -0.1)">
       <use xlink:href="#DejaVuSans-32"/>
       <use xlink:href="#DejaVuSans-35" x="63.623047"/>
       <use xlink:href="#DejaVuSans-30" x="127.246094"/>
       <use xlink:href="#DejaVuSans-30" x="190.869141"/>
      </g>
     </g>
    </g>
    <g id="xtick_21">
     <g id="line2d_41">
      <g>
       <use xlink:href="#m4598bd29ad" x="512.742159" y="678.04" style="stroke: #000000; stroke-width: 0.8"/>
      </g>
     </g>
     <g id="text_43">
      <!-- 3000 -->
      <g transform="translate(500.017159 692.638438) scale(0.1 -0.1)">
       <use xlink:href="#DejaVuSans-33"/>
       <use xlink:href="#DejaVuSans-30" x="63.623047"/>
       <use xlink:href="#DejaVuSans-30" x="127.246094"/>
       <use xlink:href="#DejaVuSans-30" x="190.869141"/>
      </g>
     </g>
    </g>
    <g id="text_44">
     <!-- Epochs -->
     <g transform="translate(276.473125 706.316563) scale(0.1 -0.1)">
      <use xlink:href="#DejaVuSans-45"/>
      <use xlink:href="#DejaVuSans-70" x="63.183594"/>
      <use xlink:href="#DejaVuSans-6f" x="126.660156"/>
      <use xlink:href="#DejaVuSans-63" x="187.841797"/>
      <use xlink:href="#DejaVuSans-68" x="242.822266"/>
      <use xlink:href="#DejaVuSans-73" x="306.201172"/>
     </g>
    </g>
   </g>
   <g id="matplotlib.axis_6">
    <g id="ytick_13">
     <g id="line2d_42">
      <g>
       <use xlink:href="#m3f22a01d47" x="54.2" y="674.572648" style="stroke: #000000; stroke-width: 0.8"/>
      </g>
     </g>
     <g id="text_45">
      <!-- 0.68 -->
      <g transform="translate(24.934375 678.371866) scale(0.1 -0.1)">
       <use xlink:href="#DejaVuSans-30"/>
       <use xlink:href="#DejaVuSans-2e" x="63.623047"/>
       <use xlink:href="#DejaVuSans-36" x="95.410156"/>
       <use xlink:href="#DejaVuSans-38" x="159.033203"/>
      </g>
     </g>
    </g>
    <g id="ytick_14">
     <g id="line2d_43">
      <g>
       <use xlink:href="#m3f22a01d47" x="54.2" y="637.489595" style="stroke: #000000; stroke-width: 0.8"/>
      </g>
     </g>
     <g id="text_46">
      <!-- 0.70 -->
      <g transform="translate(24.934375 641.288814) scale(0.1 -0.1)">
       <use xlink:href="#DejaVuSans-30"/>
       <use xlink:href="#DejaVuSans-2e" x="63.623047"/>
       <use xlink:href="#DejaVuSans-37" x="95.410156"/>
       <use xlink:href="#DejaVuSans-30" x="159.033203"/>
      </g>
     </g>
    </g>
    <g id="ytick_15">
     <g id="line2d_44">
      <g>
       <use xlink:href="#m3f22a01d47" x="54.2" y="600.406542" style="stroke: #000000; stroke-width: 0.8"/>
      </g>
     </g>
     <g id="text_47">
      <!-- 0.72 -->
      <g transform="translate(24.934375 604.205761) scale(0.1 -0.1)">
       <use xlink:href="#DejaVuSans-30"/>
       <use xlink:href="#DejaVuSans-2e" x="63.623047"/>
       <use xlink:href="#DejaVuSans-37" x="95.410156"/>
       <use xlink:href="#DejaVuSans-32" x="159.033203"/>
      </g>
     </g>
    </g>
    <g id="ytick_16">
     <g id="line2d_45">
      <g>
       <use xlink:href="#m3f22a01d47" x="54.2" y="563.32349" style="stroke: #000000; stroke-width: 0.8"/>
      </g>
     </g>
     <g id="text_48">
      <!-- 0.74 -->
      <g transform="translate(24.934375 567.122709) scale(0.1 -0.1)">
       <use xlink:href="#DejaVuSans-30"/>
       <use xlink:href="#DejaVuSans-2e" x="63.623047"/>
       <use xlink:href="#DejaVuSans-37" x="95.410156"/>
       <use xlink:href="#DejaVuSans-34" x="159.033203"/>
      </g>
     </g>
    </g>
    <g id="ytick_17">
     <g id="line2d_46">
      <g>
       <use xlink:href="#m3f22a01d47" x="54.2" y="526.240437" style="stroke: #000000; stroke-width: 0.8"/>
      </g>
     </g>
     <g id="text_49">
      <!-- 0.76 -->
      <g transform="translate(24.934375 530.039656) scale(0.1 -0.1)">
       <use xlink:href="#DejaVuSans-30"/>
       <use xlink:href="#DejaVuSans-2e" x="63.623047"/>
       <use xlink:href="#DejaVuSans-37" x="95.410156"/>
       <use xlink:href="#DejaVuSans-36" x="159.033203"/>
      </g>
     </g>
    </g>
    <g id="ytick_18">
     <g id="line2d_47">
      <g>
       <use xlink:href="#m3f22a01d47" x="54.2" y="489.157385" style="stroke: #000000; stroke-width: 0.8"/>
      </g>
     </g>
     <g id="text_50">
      <!-- 0.78 -->
      <g transform="translate(24.934375 492.956603) scale(0.1 -0.1)">
       <use xlink:href="#DejaVuSans-30"/>
       <use xlink:href="#DejaVuSans-2e" x="63.623047"/>
       <use xlink:href="#DejaVuSans-37" x="95.410156"/>
       <use xlink:href="#DejaVuSans-38" x="159.033203"/>
      </g>
     </g>
    </g>
    <g id="ytick_19">
     <g id="line2d_48">
      <g>
       <use xlink:href="#m3f22a01d47" x="54.2" y="452.074332" style="stroke: #000000; stroke-width: 0.8"/>
      </g>
     </g>
     <g id="text_51">
      <!-- 0.80 -->
      <g transform="translate(24.934375 455.873551) scale(0.1 -0.1)">
       <use xlink:href="#DejaVuSans-30"/>
       <use xlink:href="#DejaVuSans-2e" x="63.623047"/>
       <use xlink:href="#DejaVuSans-38" x="95.410156"/>
       <use xlink:href="#DejaVuSans-30" x="159.033203"/>
      </g>
     </g>
    </g>
    <g id="ytick_20">
     <g id="line2d_49">
      <g>
       <use xlink:href="#m3f22a01d47" x="54.2" y="414.991279" style="stroke: #000000; stroke-width: 0.8"/>
      </g>
     </g>
     <g id="text_52">
      <!-- 0.82 -->
      <g transform="translate(24.934375 418.790498) scale(0.1 -0.1)">
       <use xlink:href="#DejaVuSans-30"/>
       <use xlink:href="#DejaVuSans-2e" x="63.623047"/>
       <use xlink:href="#DejaVuSans-38" x="95.410156"/>
       <use xlink:href="#DejaVuSans-32" x="159.033203"/>
      </g>
     </g>
    </g>
    <g id="text_53">
     <!-- MAE -->
     <g transform="translate(18.854688 540.29375) rotate(-90) scale(0.1 -0.1)">
      <defs>
       <path id="DejaVuSans-4d" d="M 628 4666 
L 1569 4666 
L 2759 1491 
L 3956 4666 
L 4897 4666 
L 4897 0 
L 4281 0 
L 4281 4097 
L 3078 897 
L 2444 897 
L 1241 4097 
L 1241 0 
L 628 0 
L 628 4666 
z
" transform="scale(0.015625)"/>
       <path id="DejaVuSans-41" d="M 2188 4044 
L 1331 1722 
L 3047 1722 
L 2188 4044 
z
M 1831 4666 
L 2547 4666 
L 4325 0 
L 3669 0 
L 3244 1197 
L 1141 1197 
L 716 0 
L 50 0 
L 1831 4666 
z
" transform="scale(0.015625)"/>
      </defs>
      <use xlink:href="#DejaVuSans-4d"/>
      <use xlink:href="#DejaVuSans-41" x="86.279297"/>
      <use xlink:href="#DejaVuSans-45" x="154.6875"/>
     </g>
    </g>
   </g>
   <g id="line2d_50">
    <path d="M 76.035341 395.004123 
L 76.183427 394.652019 
L 76.4796 395.198852 
L 76.627687 394.568247 
L 76.775773 394.484587 
L 76.923859 394.529125 
L 77.071946 395.320752 
L 77.220032 394.726506 
L 77.368119 394.604497 
L 77.664291 394.79359 
L 77.812378 394.410651 
L 77.960464 395.343186 
L 78.108551 394.772592 
L 78.404723 394.878135 
L 78.55281 394.576757 
L 78.700896 394.895486 
L 78.848983 394.720318 
L 78.997069 394.721644 
L 79.145155 394.979699 
L 79.293242 394.773697 
L 79.441328 395.082479 
L 79.589415 394.359924 
L 79.737501 394.578525 
L 79.885588 395.362527 
L 80.033674 394.272727 
L 80.18176 395.005118 
L 80.329847 394.857579 
L 80.62602 394.832602 
L 80.774106 394.794916 
L 80.922192 395.112871 
L 81.070279 394.378933 
L 81.218365 394.928751 
L 81.366452 394.663623 
L 81.514538 394.724959 
L 81.662624 395.104803 
L 81.958797 394.842327 
L 82.106884 394.918031 
L 82.25497 394.597645 
L 82.403056 395.146026 
L 82.699229 394.501496 
L 82.847316 395.038272 
L 82.995402 394.991966 
L 83.439661 394.56891 
L 83.587748 394.931514 
L 83.735834 394.867525 
L 83.883921 394.398274 
L 84.032007 395.221619 
L 84.32818 395.033299 
L 84.476266 395.207694 
L 84.624353 394.444359 
L 84.772439 394.87935 
L 84.920525 394.776902 
L 85.068612 394.935824 
L 85.216698 394.745626 
L 85.809044 394.943892 
L 85.95713 394.625826 
L 86.549476 394.865536 
L 86.697562 394.820777 
L 86.845649 395.088226 
L 87.289908 394.907974 
L 87.437994 394.782538 
L 87.586081 394.90499 
L 87.882254 394.8578 
L 88.178426 395.027663 
L 88.326513 394.845532 
L 88.474599 394.852274 
L 88.622686 394.978594 
L 88.770772 394.7937 
L 88.918858 395.073085 
L 89.215031 394.893275 
L 89.363118 395.032083 
L 89.807377 394.685284 
L 89.955463 394.977488 
L 90.10355 394.995945 
L 90.251636 395.150336 
L 90.399723 395.125359 
L 90.547809 394.893496 
L 90.843982 394.929856 
L 91.140155 394.546586 
L 91.288241 395.292791 
L 91.436327 395.126022 
L 91.584414 394.77657 
L 91.7325 395.29467 
L 91.880587 394.97351 
L 92.176759 395.166471 
L 92.472932 394.748278 
L 92.769105 394.948202 
L 93.361451 394.80221 
L 93.509537 395.239522 
L 93.657624 394.71004 
L 93.80571 395.298427 
L 93.953796 394.87935 
L 94.101883 394.857468 
L 94.546142 395.158182 
L 94.694228 394.785964 
L 94.842315 395.070875 
L 94.990401 394.521831 
L 95.286574 395.142268 
L 95.43466 394.72717 
L 95.582747 395.181059 
L 95.730833 395.096956 
L 95.87892 395.258199 
L 96.027006 394.810941 
L 96.323179 395.443866 
L 96.471265 394.760766 
L 96.619352 395.211672 
L 96.767438 394.958148 
L 96.915524 394.436623 
L 97.063611 395.339318 
L 97.211697 394.891728 
L 97.359784 395.236317 
L 97.50787 395.210677 
L 97.655957 394.86211 
L 97.804043 395.208799 
L 98.248302 394.943781 
L 98.396389 395.059823 
L 98.544475 394.966879 
L 98.840648 395.087452 
L 98.988734 394.880234 
L 99.136821 394.891949 
L 99.284907 395.108671 
L 99.432993 395.066564 
L 99.58108 394.863104 
L 99.729166 395.275882 
L 99.877253 394.576205 
L 100.025339 395.091099 
L 100.173425 395.103919 
L 100.321512 395.264057 
L 100.469598 394.988761 
L 101.061944 394.878466 
L 101.21003 394.737116 
L 101.358117 395.232781 
L 101.506203 395.057392 
L 101.65429 395.226702 
L 101.802376 395.18117 
L 101.950462 395.306716 
L 102.542808 395.015396 
L 103.135154 395.292238 
L 103.28324 394.874377 
L 103.431326 394.854595 
L 103.579413 395.130885 
L 103.727499 394.927535 
L 104.023672 395.30119 
L 104.171758 394.78077 
L 104.319845 395.352912 
L 104.616018 394.856252 
L 104.912191 395.124806 
L 105.35645 395.224934 
L 105.652623 395.069548 
L 105.948795 395.217087 
L 106.096882 395.381756 
L 106.244968 394.925546 
L 106.393055 395.295554 
L 106.541141 395.06778 
L 106.689227 395.306163 
L 106.837314 394.968426 
L 106.9854 395.182938 
L 107.133487 395.192774 
L 107.281573 395.086457 
L 107.429659 395.270577 
L 107.577746 395.043246 
L 107.725832 395.096625 
L 107.873919 395.002355 
L 108.170092 395.163929 
L 108.318178 395.254884 
L 108.762437 394.91991 
L 109.05861 395.372694 
L 109.206696 395.168681 
L 109.650956 395.201726 
L 109.799042 395.372694 
L 109.947128 394.805525 
L 110.095215 395.396013 
L 110.243301 395.396124 
L 110.391388 395.017495 
L 110.68756 395.028878 
L 110.835647 395.279861 
L 110.983733 395.109334 
L 111.13182 395.124806 
L 111.427993 395.304616 
L 111.576079 395.362416 
L 111.724165 395.104803 
L 111.872252 395.156414 
L 112.020338 395.391261 
L 112.168425 395.181833 
L 112.316511 395.194321 
L 112.464597 395.087342 
L 112.612684 395.336334 
L 112.76077 395.200621 
L 112.908857 395.220734 
L 113.056943 394.82365 
L 113.205029 395.324841 
L 113.353116 395.388829 
L 113.501202 395.196863 
L 113.649289 395.256431 
L 113.797375 394.851721 
L 113.945461 395.405075 
L 114.093548 395.090436 
L 114.241634 395.426405 
L 114.389721 395.01628 
L 114.685893 395.330477 
L 115.426326 395.185922 
L 115.574412 395.340313 
L 116.018671 395.044793 
L 116.166758 395.445856 
L 116.314844 395.088557 
L 116.611017 395.412701 
L 116.90719 395.235212 
L 117.055276 395.304727 
L 117.203362 395.118728 
L 117.647622 395.444198 
L 117.943794 395.304064 
L 118.091881 395.375899 
L 118.239967 395.226592 
L 118.53614 395.289918 
L 118.832313 395.339871 
L 118.980399 395.05916 
L 119.276572 395.304837 
L 119.424659 395.033189 
L 119.572745 395.298317 
L 119.720831 395.310031 
L 119.868918 395.120165 
L 120.017004 395.210677 
L 120.165091 395.054408 
L 120.757436 395.417122 
L 120.905523 395.240185 
L 121.497868 395.519017 
L 121.645955 395.270577 
L 121.794041 395.329924 
L 122.090214 395.137958 
L 122.386387 395.263504 
L 122.534473 395.217419 
L 122.978732 395.627765 
L 123.126819 395.347275 
L 123.867251 395.212777 
L 124.015337 395.463317 
L 124.163424 395.413585 
L 124.459596 395.587979 
L 124.607683 395.311137 
L 124.903856 395.42331 
L 125.051942 395.051424 
L 125.348115 395.526864 
L 125.496201 395.153541 
L 125.644288 395.233665 
L 125.792374 395.730766 
L 125.940461 395.213109 
L 126.236633 395.515149 
L 126.680893 395.22825 
L 126.977065 395.557256 
L 127.273238 395.297543 
L 127.865584 395.4253 
L 128.01367 395.593063 
L 128.309843 395.254331 
L 128.606016 395.373247 
L 128.902189 395.309921 
L 129.050275 395.56886 
L 129.198362 395.397118 
L 129.346448 395.505092 
L 129.494534 395.276987 
L 129.642621 395.359543 
L 129.790707 395.200178 
L 129.938794 395.550736 
L 130.08688 395.614835 
L 130.234966 395.408833 
L 130.383053 395.62655 
L 130.827312 395.24538 
L 130.975398 395.741376 
L 131.123485 395.551509 
L 131.271571 395.752648 
L 131.567744 395.546757 
L 131.71583 395.588864 
L 132.012003 395.2519 
L 132.16009 395.360316 
L 132.308176 395.189348 
L 132.456262 395.196973 
L 132.604349 395.651637 
L 132.752435 395.327051 
L 133.196695 395.389382 
L 133.344781 395.60522 
L 133.640954 395.443314 
L 133.78904 395.762042 
L 133.937127 395.201726 
L 134.085213 395.575602 
L 134.233299 395.451492 
L 134.381386 395.60953 
L 134.529472 395.33114 
L 134.677559 395.528632 
L 134.825645 395.505645 
L 134.973731 395.14271 
L 135.121818 395.711094 
L 135.417991 395.760937 
L 135.714163 395.337882 
L 135.86225 395.408833 
L 136.010336 395.775857 
L 136.158423 395.277871 
L 136.306509 395.752648 
L 136.454596 395.480337 
L 136.602682 395.566208 
L 136.750768 395.348381 
L 136.898855 395.710321 
L 137.195028 395.517802 
L 137.343114 395.565103 
L 137.4912 395.794755 
L 137.639287 395.18769 
L 137.787373 395.533937 
L 138.083546 395.509403 
L 138.379719 395.661473 
L 138.527805 395.785914 
L 138.823978 395.423863 
L 139.268237 395.69098 
L 139.416324 395.471717 
L 139.56441 395.45326 
L 139.860583 395.722588 
L 140.156756 395.58168 
L 140.304842 395.707005 
L 140.452929 395.452155 
L 140.601015 395.469064 
L 140.749101 395.296549 
L 140.897188 395.579028 
L 141.63762 395.61815 
L 141.785706 395.383856 
L 141.933793 395.549188 
L 142.081879 395.431378 
L 142.526138 395.705458 
L 142.674225 395.571623 
L 142.822311 395.668767 
L 142.970397 395.548636 
L 143.118484 395.805586 
L 143.414657 395.450718 
L 143.71083 395.862944 
L 143.858916 395.457681 
L 144.007002 395.750328 
L 144.155089 395.589637 
L 144.303175 395.788566 
L 144.599348 395.674845 
L 144.747434 395.49592 
L 144.895521 395.764474 
L 145.043607 395.469506 
L 145.191694 395.612514 
L 145.33978 395.455913 
L 145.487866 395.809896 
L 145.635953 395.697501 
L 145.784039 395.835536 
L 145.932126 395.687444 
L 146.524471 395.81089 
L 146.672558 395.673077 
L 146.820644 395.768784 
L 146.968731 395.613177 
L 147.116817 395.723693 
L 147.264903 395.559245 
L 147.561076 395.84714 
L 147.709163 395.436241 
L 147.857249 395.858633 
L 148.005335 395.627434 
L 148.153422 395.678382 
L 148.449595 395.60091 
L 148.597681 395.740823 
L 148.745767 395.576265 
L 148.893854 395.885157 
L 149.04194 395.895325 
L 149.190027 395.728998 
L 149.634286 395.729993 
L 149.930459 395.666888 
L 150.078545 395.739166 
L 150.226631 395.515039 
L 150.522804 395.868911 
L 150.670891 395.611077 
L 150.818977 395.866149 
L 151.263236 395.566871 
L 152.003668 395.920522 
L 152.151755 395.81089 
L 152.299841 395.981638 
L 152.447928 395.654068 
L 152.596014 395.638375 
L 152.7441 395.865154 
L 152.892187 395.650532 
L 153.040273 395.724577 
L 153.336446 395.67584 
L 153.484532 395.835978 
L 153.632619 395.77862 
L 153.780705 395.86637 
L 153.928792 395.732756 
L 154.224965 395.86858 
L 154.373051 395.769226 
L 154.521137 395.964508 
L 154.81731 395.608757 
L 154.965397 395.86858 
L 155.113483 395.773204 
L 155.261569 395.980975 
L 155.557742 395.73806 
L 156.446261 395.844377 
L 156.594347 395.659815 
L 156.742433 396.03568 
L 156.89052 395.749444 
L 157.186693 395.851008 
L 157.334779 395.789892 
L 157.482865 395.861617 
L 157.927125 395.754306 
L 158.075211 395.869685 
L 158.371384 395.829899 
L 158.51947 396.031039 
L 158.667557 395.773204 
L 158.815643 395.966608 
L 158.96373 395.851118 
L 159.111816 395.934005 
L 159.407989 395.704242 
L 159.556075 395.821832 
L 159.704162 395.647327 
L 160.000334 395.922401 
L 160.59268 395.893225 
L 160.740766 395.673408 
L 161.333112 396.141334 
L 161.481199 395.760937 
L 161.629285 395.985174 
L 161.777371 395.659704 
L 161.925458 395.890131 
L 162.073544 395.841393 
L 162.221631 396.160011 
L 162.369717 395.731982 
L 162.517803 396.172499 
L 162.66589 395.942184 
L 163.258235 396.019434 
L 163.406322 395.811996 
L 163.554408 396.022308 
L 164.146754 396.025734 
L 164.442927 395.712089 
L 164.7391 396.028055 
L 164.887186 396.081434 
L 165.035272 395.931132 
L 165.479532 396.077676 
L 165.627618 395.899082 
L 165.923791 396.33319 
L 166.219964 395.871453 
L 166.664223 396.226652 
L 166.812309 395.884052 
L 167.108482 395.939421 
L 167.404655 396.128182 
L 167.552741 395.944836 
L 167.848914 396.11912 
L 167.997 395.816969 
L 168.145087 396.040101 
L 168.293173 395.995673 
L 168.589346 396.108179 
L 168.885519 396.042422 
L 169.181692 396.1683 
L 169.477865 395.821832 
L 169.625951 396.168742 
L 169.774037 395.879079 
L 169.922124 396.141223 
L 170.07021 396.088396 
L 170.218297 396.440059 
L 170.514469 395.87941 
L 170.662556 395.988932 
L 170.810642 395.946052 
L 170.958729 396.134371 
L 171.254901 395.96075 
L 171.551074 396.261907 
L 171.699161 395.865154 
L 171.847247 396.351977 
L 171.995334 395.833325 
L 172.291506 396.144318 
L 172.439593 396.178467 
L 172.587679 396.056126 
L 173.031938 396.129508 
L 173.328111 396.149512 
L 173.476198 396.26268 
L 173.77237 396.150064 
L 173.920457 396.298488 
L 174.21663 396.14476 
L 174.512802 396.307108 
L 174.660889 396.313076 
L 174.808975 396.073035 
L 174.957062 396.305561 
L 175.105148 396.271964 
L 175.253234 396.118899 
L 175.401321 396.239472 
L 175.549407 396.159679 
L 175.84558 396.289757 
L 175.993667 395.999431 
L 176.141753 396.291967 
L 176.289839 396.160121 
L 176.437926 396.197918 
L 176.586012 396.075908 
L 176.734099 396.273732 
L 177.178358 396.183219 
L 177.326444 396.037448 
L 177.91879 396.191508 
L 178.066876 396.176367 
L 178.214963 396.316281 
L 178.363049 396.133045 
L 178.511135 396.335289 
L 178.659222 396.190513 
L 178.955395 396.108289 
L 179.103481 396.372202 
L 179.251568 396.336505 
L 179.399654 396.450447 
L 179.54774 396.24113 
L 179.695827 396.271964 
L 179.843913 396.181451 
L 179.992 396.42315 
L 180.140086 396.138239 
L 180.288172 396.237372 
L 180.436259 396.122325 
L 180.584345 396.348441 
L 180.732432 396.3354 
L 180.880518 396.023966 
L 181.028604 396.248424 
L 181.62095 396.182998 
L 181.769036 396.033359 
L 182.065209 396.559858 
L 182.213296 396.188966 
L 182.361382 396.459288 
L 182.509469 396.374965 
L 182.657555 396.5004 
L 182.805641 396.210517 
L 182.953728 396.379496 
L 183.101814 396.257044 
L 183.249901 396.377728 
L 183.397987 396.243229 
L 183.69416 396.445474 
L 183.842246 396.263564 
L 184.138419 396.282131 
L 184.286505 396.442601 
L 184.434592 396.417403 
L 184.582678 396.130835 
L 184.730765 396.516204 
L 184.878851 396.337721 
L 185.026937 396.443264 
L 185.32311 396.35253 
L 185.471197 396.43597 
L 185.619283 396.314181 
L 185.767369 396.579198 
L 185.915456 396.237704 
L 186.063542 396.461278 
L 186.211629 396.364245 
L 186.359715 396.592129 
L 186.507802 396.278816 
L 186.803974 396.483934 
L 187.100147 396.478187 
L 187.39632 396.189298 
L 187.544406 396.47664 
L 188.136752 396.413977 
L 188.284838 396.525819 
L 188.432925 396.344794 
L 188.729098 396.684962 
L 189.173357 396.250192 
L 189.46953 396.572567 
L 189.617616 396.411214 
L 190.654221 396.54748 
L 190.802307 396.374854 
L 191.09848 396.514878 
L 191.246567 396.602738 
L 191.542739 396.413314 
L 191.838912 396.605059 
L 191.986999 396.496201 
L 192.135085 396.564942 
L 192.431258 396.511894 
L 192.727431 396.707066 
L 192.875517 396.477855 
L 193.17169 396.625615 
L 193.319776 396.533445 
L 193.467863 396.679989 
L 193.615949 396.550575 
L 194.504468 396.619426 
L 194.652554 396.566047 
L 194.80064 396.680321 
L 194.948727 396.463046 
L 195.096813 396.713476 
L 195.392986 396.559195 
L 195.541072 396.678552 
L 195.689159 396.594118 
L 195.837245 396.901353 
L 195.985332 396.649266 
L 196.281504 396.760445 
L 196.429591 396.701429 
L 196.577677 396.477966 
L 196.87385 396.74873 
L 197.170023 396.524825 
L 197.318109 396.667501 
L 197.466196 396.592792 
L 197.762369 396.756908 
L 198.058541 396.62031 
L 198.206628 396.764092 
L 198.354714 396.535766 
L 198.502801 396.744641 
L 198.798973 396.550243 
L 198.94706 396.971641 
L 199.095146 396.680984 
L 199.539405 396.794705 
L 199.687492 396.585498 
L 199.835578 396.968326 
L 199.983665 396.620863 
L 200.131751 396.651034 
L 200.279838 396.565715 
L 200.427924 396.981367 
L 200.872183 396.524935 
L 201.02027 396.88997 
L 201.168356 396.632909 
L 201.316442 396.87726 
L 201.464529 396.655786 
L 201.612615 397.021926 
L 201.760702 396.727622 
L 201.908788 396.826976 
L 202.056874 396.619647 
L 202.353047 396.903121 
L 202.501134 396.932408 
L 202.64922 396.723422 
L 203.389652 396.927324 
L 203.537738 396.796584 
L 203.685825 396.916604 
L 203.833911 396.867646 
L 203.981998 397.012311 
L 204.278171 396.79371 
L 204.574343 396.996065 
L 204.72243 396.81283 
L 204.870516 396.969431 
L 205.462862 396.799015 
L 205.610948 397.035188 
L 205.759035 396.926993 
L 205.907121 396.984019 
L 206.203294 396.770502 
L 206.35138 396.993523 
L 206.647553 396.769286 
L 207.239899 397.113544 
L 207.387985 396.909642 
L 207.536072 397.066575 
L 207.684158 396.86864 
L 208.128417 397.210245 
L 208.42459 396.836369 
L 208.868849 396.993855 
L 209.016936 396.83858 
L 209.165022 396.948875 
L 209.461195 396.921688 
L 209.757368 397.042482 
L 209.905454 396.912405 
L 210.201627 397.207814 
L 210.349713 397.029662 
L 210.645886 397.055412 
L 210.793972 397.000707 
L 210.942059 397.12139 
L 211.238232 396.988329 
L 211.386318 397.161839 
L 211.682491 397.161618 
L 211.830577 396.882234 
L 211.978664 397.246053 
L 212.12675 397.116638 
L 212.274837 397.254231 
L 212.422923 397.21124 
L 212.571009 397.036404 
L 212.719096 397.096082 
L 212.867182 396.803657 
L 213.015269 397.206156 
L 213.163355 397.199083 
L 213.311441 397.068232 
L 213.459528 397.223176 
L 213.903787 397.084147 
L 214.051873 397.360326 
L 214.19996 397.092656 
L 214.792306 397.314241 
L 214.940392 397.291585 
L 215.088478 397.130342 
L 215.532738 397.384308 
L 215.680824 397.179411 
L 215.82891 397.358558 
L 215.976997 397.094977 
L 216.125083 397.355574 
L 216.421256 397.167918 
L 216.717429 397.232791 
L 217.309774 397.466532 
L 217.605947 397.255004 
L 219.827243 397.41669 
L 219.97533 397.56235 
L 220.123416 397.390387 
L 220.271503 397.432604 
L 220.419589 397.234891 
L 221.011935 397.578375 
L 221.160021 397.218313 
L 221.752367 397.542788 
L 221.900453 397.535163 
L 222.04854 397.383093 
L 222.344712 397.518143 
L 222.640885 397.278434 
L 222.788972 397.601141 
L 222.937058 397.239201 
L 223.085144 397.587547 
L 224.121749 397.627775 
L 224.269836 397.381324 
L 224.566008 397.807585 
L 224.714095 397.458575 
L 224.862181 397.58589 
L 225.306441 397.424426 
L 225.454527 397.637611 
L 225.7507 397.504439 
L 226.343045 397.830793 
L 226.639218 397.586442 
L 226.787305 397.698285 
L 226.935391 397.396907 
L 227.083477 397.683696 
L 227.231564 397.492283 
L 227.527737 397.793549 
L 227.823909 397.778077 
L 227.971996 397.51317 
L 228.120082 397.791781 
L 228.712428 397.743486 
L 228.860514 397.829467 
L 229.008601 397.657615 
L 229.156687 397.829909 
L 229.304774 397.696295 
L 229.45286 397.804159 
L 229.600946 397.648442 
L 229.897119 397.872126 
L 230.193292 397.711657 
L 230.341378 397.918875 
L 230.489465 397.701379 
L 230.637551 397.815542 
L 230.785638 397.668998 
L 230.933724 397.687565 
L 231.08181 397.859417 
L 231.970329 397.774651 
L 232.118415 397.867595 
L 232.266502 397.787692 
L 232.414588 397.965844 
L 232.858847 397.957776 
L 233.006934 397.742933 
L 233.15502 398.07636 
L 233.303107 398.098574 
L 233.599279 397.987063 
L 233.747366 397.92009 
L 233.895452 398.012371 
L 234.043539 397.921417 
L 234.191625 397.971812 
L 234.339711 397.873674 
L 234.635884 398.091832 
L 234.783971 398.012482 
L 235.080143 398.08067 
L 235.22823 397.936005 
L 235.672489 398.213179 
L 235.820576 397.993915 
L 237.005267 398.020771 
L 237.449526 398.345025 
L 237.597612 398.097469 
L 237.893785 398.150295 
L 238.189958 398.161679 
L 238.486131 398.136591 
L 238.93039 398.356961 
L 239.522736 398.212627 
L 239.818909 398.24556 
L 240.115081 398.277278 
L 240.411254 398.130734 
L 240.559341 398.358839 
L 241.151686 398.329442 
L 241.447859 398.387131 
L 241.595945 398.116035 
L 241.892118 398.405035 
L 242.040205 398.490796 
L 242.188291 398.40404 
L 242.484464 398.462393 
L 243.07681 398.552022 
L 243.224896 398.262248 
L 243.372982 398.386358 
L 243.521069 398.303581 
L 244.557674 398.63955 
L 244.70576 398.435759 
L 245.001933 398.625404 
L 245.298106 398.511904 
L 245.594278 398.417523 
L 245.742365 398.607501 
L 245.890451 398.551579 
L 246.038538 398.694919 
L 246.186624 398.666958 
L 246.33471 398.764986 
L 246.630883 398.701108 
L 246.77897 398.762334 
L 247.075143 398.600649 
L 247.815575 398.762444 
L 248.556007 398.757913 
L 248.704093 398.828533 
L 248.852179 398.701108 
L 249.000266 398.791841 
L 249.148352 398.704202 
L 249.296439 398.89208 
L 249.592611 398.982261 
L 249.740698 398.777032 
L 249.888784 398.921919 
L 250.036871 398.732715 
L 250.333044 398.918714 
L 250.777303 398.947559 
L 250.925389 398.980271 
L 251.221562 398.889206 
L 251.517735 399.081173 
L 251.665821 398.920482 
L 252.11008 399.02702 
L 252.258167 398.910425 
L 252.406253 399.140299 
L 252.55434 398.985797 
L 252.850512 399.085593 
L 252.998599 398.98425 
L 253.294772 399.176548 
L 253.590945 399.041387 
L 254.035204 399.088246 
L 254.18329 399.01641 
L 254.479463 399.247057 
L 254.775636 399.118196 
L 254.923722 399.156434 
L 255.071809 399.354811 
L 255.516068 399.179421 
L 255.664154 399.327734 
L 255.812241 399.1876 
L 256.2565 399.466653 
L 256.404586 399.367299 
L 256.552673 399.43825 
L 256.848845 399.304526 
L 256.996932 399.302315 
L 257.145018 399.177543 
L 257.293105 399.420126 
L 257.441191 399.38896 
L 257.589278 399.488314 
L 257.737364 399.358679 
L 257.88545 399.550645 
L 258.033537 399.38476 
L 258.32971 399.500581 
L 258.922055 399.392276 
L 259.070142 399.269824 
L 259.218228 399.548766 
L 259.810574 399.451954 
L 259.95866 399.603693 
L 260.254833 399.632316 
L 260.402919 399.693984 
L 260.551006 399.550093 
L 260.699092 399.578827 
L 260.847179 399.824504 
L 261.143351 399.689011 
L 261.291438 399.778308 
L 261.735697 399.571422 
L 262.179956 399.847491 
L 262.476129 399.726255 
L 262.624215 399.857327 
L 262.772302 399.723382 
L 263.216561 399.95215 
L 263.364647 399.780298 
L 263.512734 399.864842 
L 263.808907 399.862743 
L 265.437857 400.092506 
L 265.585944 399.968285 
L 266.030203 400.183571 
L 266.622548 400.186997 
L 266.770635 400.318179 
L 266.918721 400.174287 
L 267.659153 400.413113 
L 267.80724 400.148648 
L 267.955326 400.257064 
L 268.103413 400.149863 
L 268.251499 400.477323 
L 268.547672 400.317074 
L 268.695758 400.378411 
L 268.843845 400.297071 
L 269.140017 400.457761 
L 269.43619 400.654369 
L 269.732363 400.475665 
L 269.880449 400.576787 
L 270.028536 400.419633 
L 270.324709 400.612042 
L 270.472795 400.423612 
L 271.213227 400.819923 
L 271.361314 400.6095 
L 271.5094 400.728636 
L 271.657486 400.520977 
L 271.805573 400.871202 
L 271.953659 400.515893 
L 272.101746 400.760796 
L 272.546005 400.818044 
L 272.694091 400.639892 
L 273.13835 400.998848 
L 273.286437 400.616241 
L 273.434523 401.013326 
L 273.58261 400.851862 
L 273.730696 400.861256 
L 274.026869 401.049465 
L 274.174955 400.888332 
L 274.323042 401.111243 
L 274.619214 400.963925 
L 274.767301 401.224743 
L 274.915387 400.992217 
L 275.21156 401.256793 
L 275.359647 400.935191 
L 276.100079 401.222312 
L 276.248165 401.089692 
L 276.692424 401.345427 
L 277.28477 401.350952 
L 277.432856 401.593756 
L 277.877115 401.398364 
L 279.209893 401.546234 
L 279.35798 401.886735 
L 279.802239 401.557286 
L 280.098412 401.817441 
L 280.246498 401.633984 
L 280.690757 401.809926 
L 280.838844 401.976142 
L 280.98693 401.72505 
L 281.135016 402.054277 
L 281.431189 401.886735 
L 281.579276 402.04212 
L 281.727362 401.899444 
L 281.875448 402.021343 
L 282.171621 401.871262 
L 282.763967 402.378642 
L 282.912053 402.138822 
L 283.06014 402.116498 
L 283.208226 402.255085 
L 283.356313 402.153189 
L 283.652485 402.518887 
L 283.800572 402.153852 
L 283.948658 402.295423 
L 284.244831 402.21331 
L 284.541004 402.478106 
L 284.837177 402.363833 
L 284.985263 402.425501 
L 285.133349 402.340403 
L 285.281436 402.462192 
L 285.577609 402.440862 
L 285.725695 402.603321 
L 285.873782 402.535354 
L 286.169954 402.65228 
L 286.614214 402.600116 
L 286.910386 402.77009 
L 287.206559 402.742792 
L 287.502732 403.003389 
L 287.798905 402.831426 
L 288.095078 403.115121 
L 288.39125 403.018309 
L 289.131683 403.188725 
L 289.279769 403.067157 
L 289.427855 403.308082 
L 289.575942 403.180215 
L 289.724028 403.324549 
L 290.020201 403.173474 
L 290.168287 403.352289 
L 290.316374 403.227406 
L 290.46446 403.467447 
L 290.612547 403.38246 
L 290.760633 403.577852 
L 291.204892 403.400584 
L 291.352979 403.773024 
L 291.501065 403.584373 
L 291.649151 403.608134 
L 291.945324 403.754346 
L 292.093411 403.639078 
L 292.241497 403.846848 
L 292.53767 403.736001 
L 292.833843 403.984993 
L 292.981929 403.788938 
L 293.426188 403.97781 
L 293.870448 404.074069 
L 294.314707 404.228792 
L 294.61088 404.252111 
L 294.758966 404.349365 
L 294.907052 404.31179 
L 295.055139 404.41899 
L 295.351312 404.388046 
L 295.795571 404.597253 
L 295.943657 404.491378 
L 296.091744 404.640686 
L 296.684089 404.66301 
L 296.832176 404.745123 
L 297.128349 404.646543 
L 297.276435 404.96715 
L 297.424521 404.792093 
L 298.461126 405.131377 
L 298.609213 405.064515 
L 298.757299 405.296599 
L 299.053472 405.237251 
L 299.349645 405.460605 
L 300.238163 405.445353 
L 300.682422 405.801436 
L 300.978595 405.831276 
L 301.422854 405.880897 
L 302.459459 406.206478 
L 302.607546 406.229134 
L 302.755632 406.104361 
L 302.903718 406.319757 
L 303.051805 406.28185 
L 303.347978 406.526753 
L 303.496064 406.411375 
L 303.792237 406.606767 
L 303.940323 406.536921 
L 304.236496 406.89223 
L 304.532669 406.758837 
L 304.828842 406.890462 
L 304.976928 406.861949 
L 305.273101 407.118457 
L 305.569274 407.06983 
L 307.198224 407.745194 
L 307.346311 407.647166 
L 307.642484 407.868198 
L 307.938656 407.820787 
L 308.234829 408.11907 
L 308.382916 408.269703 
L 308.827175 408.220413 
L 308.975261 408.380993 
L 309.123348 408.291806 
L 309.271434 408.467858 
L 309.567607 408.448297 
L 309.715693 408.674745 
L 309.86378 408.549419 
L 310.456125 408.850797 
L 310.752298 409.072824 
L 311.344644 409.103879 
L 311.640817 409.432553 
L 311.788903 409.150958 
L 312.085076 409.542406 
L 312.529335 409.773827 
L 312.677421 409.691272 
L 312.973594 409.877381 
L 313.121681 409.885006 
L 313.269767 410.105155 
L 313.417853 410.043597 
L 313.56594 410.311378 
L 313.714026 410.231474 
L 314.306372 410.486104 
L 314.454458 410.737417 
L 314.602545 410.468089 
L 314.750631 410.725702 
L 314.898718 410.686138 
L 315.046804 410.906065 
L 315.342977 411.01636 
L 315.491063 411.204458 
L 315.787236 411.173072 
L 316.231495 411.419302 
L 316.823841 411.731068 
L 316.971927 411.68454 
L 317.120014 411.971772 
L 317.416186 411.921929 
L 318.304705 412.492966 
L 318.452791 412.526452 
L 318.600878 412.727702 
L 318.897051 412.828935 
L 319.637483 413.162362 
L 319.785569 413.374 
L 320.081742 413.425169 
L 320.526001 413.812749 
L 320.822174 413.891105 
L 322.303038 414.771697 
L 322.451124 414.955928 
L 322.599211 414.892381 
L 322.747297 415.083463 
L 322.895384 415.091089 
L 323.04347 415.265594 
L 323.191556 415.221166 
L 323.339643 415.52818 
L 323.487729 415.496351 
L 323.783902 415.815853 
L 324.968593 416.5047 
L 325.264766 416.78298 
L 325.709025 417.167355 
L 326.005198 417.33965 
L 326.301371 417.512497 
L 326.597544 417.821831 
L 327.782235 418.639651 
L 327.930321 418.985566 
L 328.226494 419.064143 
L 328.670754 419.421994 
L 329.855445 420.446699 
L 330.003531 420.453551 
L 330.595877 421.186715 
L 331.336309 421.929605 
L 331.484395 421.935904 
L 332.224827 422.752508 
L 334.149951 424.706211 
L 334.446123 425.218896 
L 334.59421 425.26697 
L 334.742296 425.590782 
L 334.890383 425.604597 
L 335.778901 426.869564 
L 336.075074 427.053573 
L 336.371247 427.488565 
L 339.925321 432.430624 
L 340.221493 432.891808 
L 340.961925 434.149481 
L 341.110012 434.260992 
L 341.99853 435.790645 
L 342.146617 435.942053 
L 342.738962 437.111092 
L 343.183222 437.869564 
L 345.70069 442.620209 
L 346.885382 445.09135 
L 348.218159 447.967531 
L 349.84711 451.760002 
L 350.735628 454.042823 
L 351.772233 456.655534 
L 352.660752 459.154082 
L 357.25143 473.816255 
L 360.213159 485.611749 
L 360.953591 488.892752 
L 362.582541 496.581689 
L 365.692356 513.003609 
L 368.357911 528.747844 
L 374.133281 563.548704 
L 377.983528 584.143934 
L 380.056737 593.881508 
L 382.870379 604.921736 
L 384.351243 609.790302 
L 387.461058 617.828691 
L 389.83044 622.130309 
L 391.459391 624.560338 
L 393.828773 627.577317 
L 398.271365 631.865673 
L 400.492662 633.486171 
L 402.121612 634.469875 
L 403.750563 635.332232 
L 404.342908 635.583988 
L 404.935254 635.871661 
L 405.231427 635.953001 
L 405.823772 636.256699 
L 406.712291 636.549346 
L 407.304636 636.774357 
L 408.045068 637.046006 
L 408.7855 637.299861 
L 408.933587 637.31036 
L 409.22976 637.433365 
L 409.674019 637.624668 
L 413.524266 638.746627 
L 413.672352 638.873831 
L 413.968525 638.904665 
L 415.00513 639.134097 
L 415.301302 639.238314 
L 415.893648 639.387068 
L 420.33624 640.280812 
L 420.632413 640.331097 
L 421.076672 640.415863 
L 421.224759 640.389007 
L 421.520932 640.487477 
L 421.817104 640.521185 
L 422.261364 640.663861 
L 422.40945 640.571138 
L 422.557536 640.687622 
L 422.853709 640.695247 
L 423.149882 640.777029 
L 424.186487 640.941919 
L 425.223092 641.128913 
L 425.371178 641.033979 
L 425.667351 641.167925 
L 426.259697 641.259322 
L 426.852042 641.340219 
L 427.592474 641.442226 
L 428.036734 641.595512 
L 435.737227 642.758473 
L 436.0334 642.766209 
L 436.477659 642.836166 
L 436.773832 642.938061 
L 438.847041 643.271931 
L 439.143214 643.274251 
L 439.883646 643.460913 
L 440.179819 643.54369 
L 446.251362 644.536345 
L 446.695621 644.599008 
L 446.991794 644.651503 
L 447.287967 644.666865 
L 449.805436 645.018306 
L 449.953522 645.152694 
L 450.249695 645.112466 
L 450.397781 645.244201 
L 450.84204 645.227513 
L 451.2863 645.309295 
L 451.582472 645.304653 
L 451.730559 645.438599 
L 451.878645 645.32963 
L 452.619077 645.562377 
L 452.767164 645.423127 
L 453.211423 645.637417 
L 453.507596 645.678861 
L 453.655682 645.608573 
L 453.951855 645.754675 
L 454.248028 645.74086 
L 454.396114 645.724725 
L 454.544201 645.834247 
L 454.692287 645.781199 
L 454.98846 645.890499 
L 455.284633 645.926638 
L 455.432719 646.016156 
L 455.580805 645.931943 
L 456.025065 646.051853 
L 456.173151 646.020687 
L 456.61741 646.219064 
L 457.654015 646.244482 
L 457.950188 646.400642 
L 458.394447 646.414125 
L 458.838706 646.572936 
L 459.134879 646.558238 
L 459.431052 646.642561 
L 460.171484 646.70876 
L 460.467657 646.848453 
L 460.615743 646.799052 
L 461.060003 646.923383 
L 461.356175 646.986156 
L 462.39278 647.176133 
L 462.688953 647.158672 
L 462.985126 647.28245 
L 463.133212 647.252721 
L 463.429385 647.369315 
L 463.577472 647.323562 
L 463.725558 647.441593 
L 464.021731 647.390755 
L 464.169817 647.531221 
L 464.46599 647.519728 
L 464.910249 647.670361 
L 465.058336 647.628255 
L 465.206422 647.703405 
L 465.354508 647.643727 
L 465.946854 647.810938 
L 466.5392 647.92499 
L 466.835373 647.894598 
L 467.279632 648.052415 
L 468.16815 648.209017 
L 468.464323 648.330805 
L 468.612409 648.234104 
L 468.760496 648.379654 
L 469.204755 648.381422 
L 470.389446 648.677052 
L 470.537533 648.623784 
L 470.685619 648.74292 
L 470.981792 648.752977 
L 471.574138 648.857636 
L 472.018397 648.988708 
L 473.351174 649.237148 
L 473.94352 649.340812 
L 474.091607 649.483488 
L 474.387779 649.442266 
L 474.683952 649.559413 
L 475.276298 649.613566 
L 475.424384 649.741765 
L 475.720557 649.786413 
L 477.053335 650.041484 
L 478.08994 650.313464 
L 478.238026 650.283736 
L 478.386112 650.46675 
L 478.534199 650.368722 
L 478.830372 650.497363 
L 478.978458 650.46465 
L 479.422717 650.626004 
L 480.459322 650.784263 
L 480.755495 650.930034 
L 484.013396 651.657782 
L 484.309569 651.722545 
L 484.901914 651.836266 
L 485.346174 652.06194 
L 485.49426 651.996956 
L 485.938519 652.157094 
L 486.086606 652.143943 
L 486.382778 652.280983 
L 486.530865 652.225946 
L 487.271297 652.56744 
L 487.419383 652.473612 
L 488.307902 652.720174 
L 488.455988 652.684366 
L 488.752161 652.74515 
L 489.492593 653.093387 
L 489.640679 652.958667 
L 489.788766 653.092724 
L 489.936852 653.064542 
L 490.233025 653.236505 
L 490.677284 653.270544 
L 491.26963 653.471241 
L 491.417716 653.405484 
L 492.010062 653.633258 
L 495.416049 654.448977 
L 495.564136 654.562256 
L 495.860309 654.54369 
L 496.156481 654.614641 
L 497.193086 654.95072 
L 497.341173 654.856008 
L 497.933518 655.161475 
L 498.229691 655.189325 
L 498.377777 655.185014 
L 498.525864 655.335537 
L 498.67395 655.270886 
L 499.266296 655.490923 
L 499.562469 655.514574 
L 508.299567 657.942612 
L 508.59574 658.118112 
L 508.743826 658.023621 
L 509.484258 658.279466 
L 509.632345 658.263772 
L 510.076604 658.492762 
L 510.22469 658.397718 
L 510.965122 658.739876 
L 511.113209 658.698432 
L 511.557468 658.879457 
L 511.705554 658.980469 
L 512.001727 658.966323 
L 512.2979 659.192108 
L 512.594073 659.130882 
L 512.742159 659.328927 
L 512.742159 659.328927 
" clip-path="url(#pd546684bac)" style="fill: none; stroke: #1f77b4; stroke-width: 1.5; stroke-linecap: square"/>
   </g>
   <g id="line2d_51">
    <path d="M 76.035341 395.486194 
L 76.183427 395.519791 
L 76.4796 395.283066 
L 76.923859 395.522443 
L 77.071946 395.344402 
L 78.256637 395.401981 
L 78.700896 395.397892 
L 79.293242 395.406291 
L 79.441328 395.311358 
L 79.737501 395.471827 
L 79.885588 395.324288 
L 80.033674 395.462875 
L 80.62602 395.426405 
L 82.551143 395.450497 
L 82.699229 395.540679 
L 83.143489 395.424968 
L 83.883921 395.663351 
L 84.476266 395.420216 
L 84.772439 395.489399 
L 85.512871 395.544878 
L 85.95713 395.534711 
L 86.697562 395.658268 
L 87.289908 395.588422 
L 88.03034 395.606104 
L 88.622686 395.589416 
L 89.066945 395.575602 
L 89.65929 395.595163 
L 89.955463 395.665451 
L 91.584414 395.625997 
L 92.176759 395.478679 
L 96.175092 395.671861 
L 96.323179 395.590632 
L 96.619352 395.590079 
L 102.838981 395.72303 
L 103.28324 395.713084 
L 103.875586 395.782819 
L 104.467931 395.772099 
L 104.912191 395.834099 
L 105.652623 395.826031 
L 110.983733 395.859849 
L 111.279906 395.8793 
L 112.316511 395.830783 
L 113.205029 395.895546 
L 113.649289 395.854655 
L 113.945461 395.877974 
L 114.685893 395.89223 
L 115.870585 395.883831 
L 116.314844 395.925385 
L 121.942127 396.009156 
L 122.534473 396.077897 
L 125.348115 396.011256 
L 125.792374 396.013577 
L 126.828979 396.055573 
L 127.421325 396.079997 
L 129.494534 396.115362 
L 130.827312 396.160674 
L 131.419658 396.049937 
L 132.16009 396.067177 
L 132.752435 396.154817 
L 133.640954 396.198581 
L 133.937127 396.196039 
L 134.825645 396.188303 
L 135.121818 396.213501 
L 135.566077 396.154927 
L 136.158423 396.198249 
L 136.602682 396.169515 
L 137.046941 396.18974 
L 140.601015 396.212727 
L 141.045274 396.265001 
L 142.081879 396.330648 
L 142.970397 396.34391 
L 143.71083 396.330758 
L 144.303175 396.333632 
L 145.191694 396.363913 
L 145.635953 396.371981 
L 146.820644 396.300587 
L 152.003668 396.414308 
L 156.446261 396.476861 
L 156.89052 396.477966 
L 174.364716 396.847421 
L 175.401321 396.788848 
L 186.952061 397.138078 
L 187.988666 397.191237 
L 190.506135 397.230138 
L 194.504468 397.323414 
L 196.281504 397.317999 
L 197.910455 397.404091 
L 200.279838 397.508307 
L 200.724097 397.483331 
L 201.316442 397.532842 
L 202.353047 397.559697 
L 203.981998 397.577159 
L 209.165022 397.771004 
L 210.201627 397.820515 
L 214.644219 397.972696 
L 216.717429 398.021876 
L 245.742365 399.469858 
L 246.630883 399.500471 
L 248.111747 399.589326 
L 261.587611 400.596901 
L 262.772302 400.737809 
L 267.955326 401.240547 
L 268.991931 401.372282 
L 271.805573 401.66946 
L 272.694091 401.803848 
L 281.875448 403.027482 
L 282.912053 403.172479 
L 292.389583 404.921065 
L 295.351312 405.588582 
L 296.832176 405.953948 
L 299.349645 406.626771 
L 300.978595 407.064304 
L 302.903718 407.630257 
L 310.900385 410.528542 
L 316.083409 412.962991 
L 318.897051 414.531877 
L 321.710692 416.294278 
L 327.189889 420.392436 
L 330.44779 423.403226 
L 332.669087 425.785401 
L 335.038469 428.676945 
L 338.148284 432.983868 
L 341.258098 437.963724 
L 343.331308 441.753653 
L 345.256431 445.631884 
L 347.625814 450.87941 
L 349.402851 455.275188 
L 351.327974 460.542717 
L 353.105011 465.879319 
L 354.733961 471.246092 
L 356.807171 478.867946 
L 358.584208 486.153168 
L 360.509331 494.972132 
L 362.286368 503.926921 
L 364.507664 516.353684 
L 366.877047 531.022819 
L 369.986861 551.753541 
L 372.652417 568.790483 
L 375.762231 587.618449 
L 377.835441 599.131686 
L 379.908651 609.480083 
L 381.537601 616.560187 
L 383.166552 622.725218 
L 384.795502 628.049773 
L 386.12828 631.729297 
L 387.609144 635.033065 
L 389.238095 637.997549 
L 390.867045 640.475983 
L 392.792168 642.946129 
L 394.569205 644.892318 
L 396.346242 646.560337 
L 398.419452 648.215206 
L 400.492662 649.600967 
L 402.269698 650.557152 
L 404.046735 651.316509 
L 406.712291 652.209368 
L 411.302969 653.408358 
L 418.263031 654.640833 
L 423.594141 655.114505 
L 441.068337 656.211599 
L 446.103275 656.577628 
L 457.209756 657.284268 
L 463.133212 657.787448 
L 470.685619 658.497403 
L 494.527531 661.452936 
L 498.081605 661.982639 
L 502.524197 662.690937 
L 511.261295 664.25474 
L 512.742159 664.527273 
L 512.742159 664.527273 
" clip-path="url(#pd546684bac)" style="fill: none; stroke: #ff7f0e; stroke-width: 1.5; stroke-linecap: square"/>
   </g>
   <g id="patch_15">
    <path d="M 54.2 678.04 
L 54.2 380.76 
" style="fill: none; stroke: #000000; stroke-width: 0.8; stroke-linejoin: miter; stroke-linecap: square"/>
   </g>
   <g id="patch_16">
    <path d="M 534.5775 678.04 
L 534.5775 380.76 
" style="fill: none; stroke: #000000; stroke-width: 0.8; stroke-linejoin: miter; stroke-linecap: square"/>
   </g>
   <g id="patch_17">
    <path d="M 54.2 678.04 
L 534.5775 678.04 
" style="fill: none; stroke: #000000; stroke-width: 0.8; stroke-linejoin: miter; stroke-linecap: square"/>
   </g>
   <g id="patch_18">
    <path d="M 54.2 380.76 
L 534.5775 380.76 
" style="fill: none; stroke: #000000; stroke-width: 0.8; stroke-linejoin: miter; stroke-linecap: square"/>
   </g>
   <g id="text_54">
    <!-- Training and Validation MAE (Skip first 50) -->
    <g transform="translate(168.487187 374.76) scale(0.12 -0.12)">
     <use xlink:href="#DejaVuSans-54"/>
     <use xlink:href="#DejaVuSans-72" x="46.333984"/>
     <use xlink:href="#DejaVuSans-61" x="87.447266"/>
     <use xlink:href="#DejaVuSans-69" x="148.726562"/>
     <use xlink:href="#DejaVuSans-6e" x="176.509766"/>
     <use xlink:href="#DejaVuSans-69" x="239.888672"/>
     <use xlink:href="#DejaVuSans-6e" x="267.671875"/>
     <use xlink:href="#DejaVuSans-67" x="331.050781"/>
     <use xlink:href="#DejaVuSans-20" x="394.527344"/>
     <use xlink:href="#DejaVuSans-61" x="426.314453"/>
     <use xlink:href="#DejaVuSans-6e" x="487.59375"/>
     <use xlink:href="#DejaVuSans-64" x="550.972656"/>
     <use xlink:href="#DejaVuSans-20" x="614.449219"/>
     <use xlink:href="#DejaVuSans-56" x="646.236328"/>
     <use xlink:href="#DejaVuSans-61" x="706.894531"/>
     <use xlink:href="#DejaVuSans-6c" x="768.173828"/>
     <use xlink:href="#DejaVuSans-69" x="795.957031"/>
     <use xlink:href="#DejaVuSans-64" x="823.740234"/>
     <use xlink:href="#DejaVuSans-61" x="887.216797"/>
     <use xlink:href="#DejaVuSans-74" x="948.496094"/>
     <use xlink:href="#DejaVuSans-69" x="987.705078"/>
     <use xlink:href="#DejaVuSans-6f" x="1015.488281"/>
     <use xlink:href="#DejaVuSans-6e" x="1076.669922"/>
     <use xlink:href="#DejaVuSans-20" x="1140.048828"/>
     <use xlink:href="#DejaVuSans-4d" x="1171.835938"/>
     <use xlink:href="#DejaVuSans-41" x="1258.115234"/>
     <use xlink:href="#DejaVuSans-45" x="1326.523438"/>
     <use xlink:href="#DejaVuSans-20" x="1389.707031"/>
     <use xlink:href="#DejaVuSans-28" x="1421.494141"/>
     <use xlink:href="#DejaVuSans-53" x="1460.507812"/>
     <use xlink:href="#DejaVuSans-6b" x="1523.984375"/>
     <use xlink:href="#DejaVuSans-69" x="1581.894531"/>
     <use xlink:href="#DejaVuSans-70" x="1609.677734"/>
     <use xlink:href="#DejaVuSans-20" x="1673.154297"/>
     <use xlink:href="#DejaVuSans-66" x="1704.941406"/>
     <use xlink:href="#DejaVuSans-69" x="1740.146484"/>
     <use xlink:href="#DejaVuSans-72" x="1767.929688"/>
     <use xlink:href="#DejaVuSans-73" x="1809.042969"/>
     <use xlink:href="#DejaVuSans-74" x="1861.142578"/>
     <use xlink:href="#DejaVuSans-20" x="1900.351562"/>
     <use xlink:href="#DejaVuSans-35" x="1932.138672"/>
     <use xlink:href="#DejaVuSans-30" x="1995.761719"/>
     <use xlink:href="#DejaVuSans-29" x="2059.384766"/>
    </g>
   </g>
   <g id="legend_3">
    <g id="patch_19">
     <path d="M 421.230625 418.11625 
L 527.5775 418.11625 
Q 529.5775 418.11625 529.5775 416.11625 
L 529.5775 387.76 
Q 529.5775 385.76 527.5775 385.76 
L 421.230625 385.76 
Q 419.230625 385.76 419.230625 387.76 
L 419.230625 416.11625 
Q 419.230625 418.11625 421.230625 418.11625 
z
" style="fill: #ffffff; opacity: 0.8; stroke: #cccccc; stroke-linejoin: miter"/>
    </g>
    <g id="line2d_52">
     <path d="M 423.230625 393.858438 
L 433.230625 393.858438 
L 443.230625 393.858438 
" style="fill: none; stroke: #1f77b4; stroke-width: 1.5; stroke-linecap: square"/>
    </g>
    <g id="text_55">
     <!-- Training MAE -->
     <g transform="translate(451.230625 397.358438) scale(0.1 -0.1)">
      <use xlink:href="#DejaVuSans-54"/>
      <use xlink:href="#DejaVuSans-72" x="46.333984"/>
      <use xlink:href="#DejaVuSans-61" x="87.447266"/>
      <use xlink:href="#DejaVuSans-69" x="148.726562"/>
      <use xlink:href="#DejaVuSans-6e" x="176.509766"/>
      <use xlink:href="#DejaVuSans-69" x="239.888672"/>
      <use xlink:href="#DejaVuSans-6e" x="267.671875"/>
      <use xlink:href="#DejaVuSans-67" x="331.050781"/>
      <use xlink:href="#DejaVuSans-20" x="394.527344"/>
      <use xlink:href="#DejaVuSans-4d" x="426.314453"/>
      <use xlink:href="#DejaVuSans-41" x="512.59375"/>
      <use xlink:href="#DejaVuSans-45" x="581.001953"/>
     </g>
    </g>
    <g id="line2d_53">
     <path d="M 423.230625 408.536563 
L 433.230625 408.536563 
L 443.230625 408.536563 
" style="fill: none; stroke: #ff7f0e; stroke-width: 1.5; stroke-linecap: square"/>
    </g>
    <g id="text_56">
     <!-- Validation MAE -->
     <g transform="translate(451.230625 412.036563) scale(0.1 -0.1)">
      <use xlink:href="#DejaVuSans-56"/>
      <use xlink:href="#DejaVuSans-61" x="60.658203"/>
      <use xlink:href="#DejaVuSans-6c" x="121.9375"/>
      <use xlink:href="#DejaVuSans-69" x="149.720703"/>
      <use xlink:href="#DejaVuSans-64" x="177.503906"/>
      <use xlink:href="#DejaVuSans-61" x="240.980469"/>
      <use xlink:href="#DejaVuSans-74" x="302.259766"/>
      <use xlink:href="#DejaVuSans-69" x="341.46875"/>
      <use xlink:href="#DejaVuSans-6f" x="369.251953"/>
      <use xlink:href="#DejaVuSans-6e" x="430.433594"/>
      <use xlink:href="#DejaVuSans-20" x="493.8125"/>
      <use xlink:href="#DejaVuSans-4d" x="525.599609"/>
      <use xlink:href="#DejaVuSans-41" x="611.878906"/>
      <use xlink:href="#DejaVuSans-45" x="680.287109"/>
     </g>
    </g>
   </g>
  </g>
  <g id="axes_4"/>
 </g>
 <defs>
  <clipPath id="p41eb77858b">
   <rect x="54.2" y="26.16" width="480.3775" height="297.28"/>
  </clipPath>
  <clipPath id="p0d1031b75a">
   <rect x="588.8225" y="26.16" width="480.3775" height="297.28"/>
  </clipPath>
  <clipPath id="pd546684bac">
   <rect x="54.2" y="380.76" width="480.3775" height="297.28"/>
  </clipPath>
 </defs>
</svg>
