<?xml version="1.0" encoding="utf-8" standalone="no"?>
<!DOCTYPE svg PUBLIC "-//W3C//DTD SVG 1.1//EN"
  "http://www.w3.org/Graphics/SVG/1.1/DTD/svg11.dtd">
<svg xmlns:xlink="http://www.w3.org/1999/xlink" width="1080pt" height="720pt" viewBox="0 0 1080 720" xmlns="http://www.w3.org/2000/svg" version="1.1">
 <metadata>
  <rdf:RDF xmlns:dc="http://purl.org/dc/elements/1.1/" xmlns:cc="http://creativecommons.org/ns#" xmlns:rdf="http://www.w3.org/1999/02/22-rdf-syntax-ns#">
   <cc:Work>
    <dc:type rdf:resource="http://purl.org/dc/dcmitype/StillImage"/>
    <dc:date>2024-04-13T12:10:50.065075</dc:date>
    <dc:format>image/svg+xml</dc:format>
    <dc:creator>
     <cc:Agent>
      <dc:title>Matplotlib v3.8.3, https://matplotlib.org/</dc:title>
     </cc:Agent>
    </dc:creator>
   </cc:Work>
  </rdf:RDF>
 </metadata>
 <defs>
  <style type="text/css">*{stroke-linejoin: round; stroke-linecap: butt}</style>
 </defs>
 <g id="figure_1">
  <g id="patch_1">
   <path d="M 0 720 
L 1080 720 
L 1080 0 
L 0 0 
z
" style="fill: #ffffff"/>
  </g>
  <g id="axes_1">
   <g id="patch_2">
    <path d="M 60.635 323.44 
L 531.4275 323.44 
L 531.4275 26.16 
L 60.635 26.16 
z
" style="fill: #ffffff"/>
   </g>
   <g id="matplotlib.axis_1">
    <g id="xtick_1">
     <g id="line2d_1">
      <defs>
       <path id="mb0364fd15d" d="M 0 0 
L 0 3.5 
" style="stroke: #000000; stroke-width: 0.8"/>
      </defs>
      <g>
       <use xlink:href="#mb0364fd15d" x="80.132467" y="323.44" style="stroke: #000000; stroke-width: 0.8"/>
      </g>
     </g>
     <g id="text_1">
      <!-- 0 -->
      <g transform="translate(76.951217 338.038438) scale(0.1 -0.1)">
       <defs>
        <path id="DejaVuSans-30" d="M 2034 4250 
Q 1547 4250 1301 3770 
Q 1056 3291 1056 2328 
Q 1056 1369 1301 889 
Q 1547 409 2034 409 
Q 2525 409 2770 889 
Q 3016 1369 3016 2328 
Q 3016 3291 2770 3770 
Q 2525 4250 2034 4250 
z
M 2034 4750 
Q 2819 4750 3233 4129 
Q 3647 3509 3647 2328 
Q 3647 1150 3233 529 
Q 2819 -91 2034 -91 
Q 1250 -91 836 529 
Q 422 1150 422 2328 
Q 422 3509 836 4129 
Q 1250 4750 2034 4750 
z
" transform="scale(0.015625)"/>
       </defs>
       <use xlink:href="#DejaVuSans-30"/>
      </g>
     </g>
    </g>
    <g id="xtick_2">
     <g id="line2d_2">
      <g>
       <use xlink:href="#mb0364fd15d" x="175.242063" y="323.44" style="stroke: #000000; stroke-width: 0.8"/>
      </g>
     </g>
     <g id="text_2">
      <!-- 50 -->
      <g transform="translate(168.879563 338.038438) scale(0.1 -0.1)">
       <defs>
        <path id="DejaVuSans-35" d="M 691 4666 
L 3169 4666 
L 3169 4134 
L 1269 4134 
L 1269 2991 
Q 1406 3038 1543 3061 
Q 1681 3084 1819 3084 
Q 2600 3084 3056 2656 
Q 3513 2228 3513 1497 
Q 3513 744 3044 326 
Q 2575 -91 1722 -91 
Q 1428 -91 1123 -41 
Q 819 9 494 109 
L 494 744 
Q 775 591 1075 516 
Q 1375 441 1709 441 
Q 2250 441 2565 725 
Q 2881 1009 2881 1497 
Q 2881 1984 2565 2268 
Q 2250 2553 1709 2553 
Q 1456 2553 1204 2497 
Q 953 2441 691 2322 
L 691 4666 
z
" transform="scale(0.015625)"/>
       </defs>
       <use xlink:href="#DejaVuSans-35"/>
       <use xlink:href="#DejaVuSans-30" x="63.623047"/>
      </g>
     </g>
    </g>
    <g id="xtick_3">
     <g id="line2d_3">
      <g>
       <use xlink:href="#mb0364fd15d" x="270.351659" y="323.44" style="stroke: #000000; stroke-width: 0.8"/>
      </g>
     </g>
     <g id="text_3">
      <!-- 100 -->
      <g transform="translate(260.807909 338.038438) scale(0.1 -0.1)">
       <defs>
        <path id="DejaVuSans-31" d="M 794 531 
L 1825 531 
L 1825 4091 
L 703 3866 
L 703 4441 
L 1819 4666 
L 2450 4666 
L 2450 531 
L 3481 531 
L 3481 0 
L 794 0 
L 794 531 
z
" transform="scale(0.015625)"/>
       </defs>
       <use xlink:href="#DejaVuSans-31"/>
       <use xlink:href="#DejaVuSans-30" x="63.623047"/>
       <use xlink:href="#DejaVuSans-30" x="127.246094"/>
      </g>
     </g>
    </g>
    <g id="xtick_4">
     <g id="line2d_4">
      <g>
       <use xlink:href="#mb0364fd15d" x="365.461255" y="323.44" style="stroke: #000000; stroke-width: 0.8"/>
      </g>
     </g>
     <g id="text_4">
      <!-- 150 -->
      <g transform="translate(355.917505 338.038438) scale(0.1 -0.1)">
       <use xlink:href="#DejaVuSans-31"/>
       <use xlink:href="#DejaVuSans-35" x="63.623047"/>
       <use xlink:href="#DejaVuSans-30" x="127.246094"/>
      </g>
     </g>
    </g>
    <g id="xtick_5">
     <g id="line2d_5">
      <g>
       <use xlink:href="#mb0364fd15d" x="460.570851" y="323.44" style="stroke: #000000; stroke-width: 0.8"/>
      </g>
     </g>
     <g id="text_5">
      <!-- 200 -->
      <g transform="translate(451.027101 338.038438) scale(0.1 -0.1)">
       <defs>
        <path id="DejaVuSans-32" d="M 1228 531 
L 3431 531 
L 3431 0 
L 469 0 
L 469 531 
Q 828 903 1448 1529 
Q 2069 2156 2228 2338 
Q 2531 2678 2651 2914 
Q 2772 3150 2772 3378 
Q 2772 3750 2511 3984 
Q 2250 4219 1831 4219 
Q 1534 4219 1204 4116 
Q 875 4013 500 3803 
L 500 4441 
Q 881 4594 1212 4672 
Q 1544 4750 1819 4750 
Q 2544 4750 2975 4387 
Q 3406 4025 3406 3419 
Q 3406 3131 3298 2873 
Q 3191 2616 2906 2266 
Q 2828 2175 2409 1742 
Q 1991 1309 1228 531 
z
" transform="scale(0.015625)"/>
       </defs>
       <use xlink:href="#DejaVuSans-32"/>
       <use xlink:href="#DejaVuSans-30" x="63.623047"/>
       <use xlink:href="#DejaVuSans-30" x="127.246094"/>
      </g>
     </g>
    </g>
    <g id="text_6">
     <!-- Epochs -->
     <g transform="translate(278.115625 351.716563) scale(0.1 -0.1)">
      <defs>
       <path id="DejaVuSans-45" d="M 628 4666 
L 3578 4666 
L 3578 4134 
L 1259 4134 
L 1259 2753 
L 3481 2753 
L 3481 2222 
L 1259 2222 
L 1259 531 
L 3634 531 
L 3634 0 
L 628 0 
L 628 4666 
z
" transform="scale(0.015625)"/>
       <path id="DejaVuSans-70" d="M 1159 525 
L 1159 -1331 
L 581 -1331 
L 581 3500 
L 1159 3500 
L 1159 2969 
Q 1341 3281 1617 3432 
Q 1894 3584 2278 3584 
Q 2916 3584 3314 3078 
Q 3713 2572 3713 1747 
Q 3713 922 3314 415 
Q 2916 -91 2278 -91 
Q 1894 -91 1617 61 
Q 1341 213 1159 525 
z
M 3116 1747 
Q 3116 2381 2855 2742 
Q 2594 3103 2138 3103 
Q 1681 3103 1420 2742 
Q 1159 2381 1159 1747 
Q 1159 1113 1420 752 
Q 1681 391 2138 391 
Q 2594 391 2855 752 
Q 3116 1113 3116 1747 
z
" transform="scale(0.015625)"/>
       <path id="DejaVuSans-6f" d="M 1959 3097 
Q 1497 3097 1228 2736 
Q 959 2375 959 1747 
Q 959 1119 1226 758 
Q 1494 397 1959 397 
Q 2419 397 2687 759 
Q 2956 1122 2956 1747 
Q 2956 2369 2687 2733 
Q 2419 3097 1959 3097 
z
M 1959 3584 
Q 2709 3584 3137 3096 
Q 3566 2609 3566 1747 
Q 3566 888 3137 398 
Q 2709 -91 1959 -91 
Q 1206 -91 779 398 
Q 353 888 353 1747 
Q 353 2609 779 3096 
Q 1206 3584 1959 3584 
z
" transform="scale(0.015625)"/>
       <path id="DejaVuSans-63" d="M 3122 3366 
L 3122 2828 
Q 2878 2963 2633 3030 
Q 2388 3097 2138 3097 
Q 1578 3097 1268 2742 
Q 959 2388 959 1747 
Q 959 1106 1268 751 
Q 1578 397 2138 397 
Q 2388 397 2633 464 
Q 2878 531 3122 666 
L 3122 134 
Q 2881 22 2623 -34 
Q 2366 -91 2075 -91 
Q 1284 -91 818 406 
Q 353 903 353 1747 
Q 353 2603 823 3093 
Q 1294 3584 2113 3584 
Q 2378 3584 2631 3529 
Q 2884 3475 3122 3366 
z
" transform="scale(0.015625)"/>
       <path id="DejaVuSans-68" d="M 3513 2113 
L 3513 0 
L 2938 0 
L 2938 2094 
Q 2938 2591 2744 2837 
Q 2550 3084 2163 3084 
Q 1697 3084 1428 2787 
Q 1159 2491 1159 1978 
L 1159 0 
L 581 0 
L 581 4863 
L 1159 4863 
L 1159 2956 
Q 1366 3272 1645 3428 
Q 1925 3584 2291 3584 
Q 2894 3584 3203 3211 
Q 3513 2838 3513 2113 
z
" transform="scale(0.015625)"/>
       <path id="DejaVuSans-73" d="M 2834 3397 
L 2834 2853 
Q 2591 2978 2328 3040 
Q 2066 3103 1784 3103 
Q 1356 3103 1142 2972 
Q 928 2841 928 2578 
Q 928 2378 1081 2264 
Q 1234 2150 1697 2047 
L 1894 2003 
Q 2506 1872 2764 1633 
Q 3022 1394 3022 966 
Q 3022 478 2636 193 
Q 2250 -91 1575 -91 
Q 1294 -91 989 -36 
Q 684 19 347 128 
L 347 722 
Q 666 556 975 473 
Q 1284 391 1588 391 
Q 1994 391 2212 530 
Q 2431 669 2431 922 
Q 2431 1156 2273 1281 
Q 2116 1406 1581 1522 
L 1381 1569 
Q 847 1681 609 1914 
Q 372 2147 372 2553 
Q 372 3047 722 3315 
Q 1072 3584 1716 3584 
Q 2034 3584 2315 3537 
Q 2597 3491 2834 3397 
z
" transform="scale(0.015625)"/>
      </defs>
      <use xlink:href="#DejaVuSans-45"/>
      <use xlink:href="#DejaVuSans-70" x="63.183594"/>
      <use xlink:href="#DejaVuSans-6f" x="126.660156"/>
      <use xlink:href="#DejaVuSans-63" x="187.841797"/>
      <use xlink:href="#DejaVuSans-68" x="242.822266"/>
      <use xlink:href="#DejaVuSans-73" x="306.201172"/>
     </g>
    </g>
   </g>
   <g id="matplotlib.axis_2">
    <g id="ytick_1">
     <g id="line2d_6">
      <defs>
       <path id="m016eb9ff5c" d="M 0 0 
L -3.5 0 
" style="stroke: #000000; stroke-width: 0.8"/>
      </defs>
      <g>
       <use xlink:href="#m016eb9ff5c" x="60.635" y="311.650262" style="stroke: #000000; stroke-width: 0.8"/>
      </g>
     </g>
     <g id="text_7">
      <!-- 0.000 -->
      <g transform="translate(25.006875 315.449481) scale(0.1 -0.1)">
       <defs>
        <path id="DejaVuSans-2e" d="M 684 794 
L 1344 794 
L 1344 0 
L 684 0 
L 684 794 
z
" transform="scale(0.015625)"/>
       </defs>
       <use xlink:href="#DejaVuSans-30"/>
       <use xlink:href="#DejaVuSans-2e" x="63.623047"/>
       <use xlink:href="#DejaVuSans-30" x="95.410156"/>
       <use xlink:href="#DejaVuSans-30" x="159.033203"/>
       <use xlink:href="#DejaVuSans-30" x="222.65625"/>
      </g>
     </g>
    </g>
    <g id="ytick_2">
     <g id="line2d_7">
      <g>
       <use xlink:href="#m016eb9ff5c" x="60.635" y="277.755082" style="stroke: #000000; stroke-width: 0.8"/>
      </g>
     </g>
     <g id="text_8">
      <!-- 0.025 -->
      <g transform="translate(25.006875 281.5543) scale(0.1 -0.1)">
       <use xlink:href="#DejaVuSans-30"/>
       <use xlink:href="#DejaVuSans-2e" x="63.623047"/>
       <use xlink:href="#DejaVuSans-30" x="95.410156"/>
       <use xlink:href="#DejaVuSans-32" x="159.033203"/>
       <use xlink:href="#DejaVuSans-35" x="222.65625"/>
      </g>
     </g>
    </g>
    <g id="ytick_3">
     <g id="line2d_8">
      <g>
       <use xlink:href="#m016eb9ff5c" x="60.635" y="243.859901" style="stroke: #000000; stroke-width: 0.8"/>
      </g>
     </g>
     <g id="text_9">
      <!-- 0.050 -->
      <g transform="translate(25.006875 247.659119) scale(0.1 -0.1)">
       <use xlink:href="#DejaVuSans-30"/>
       <use xlink:href="#DejaVuSans-2e" x="63.623047"/>
       <use xlink:href="#DejaVuSans-30" x="95.410156"/>
       <use xlink:href="#DejaVuSans-35" x="159.033203"/>
       <use xlink:href="#DejaVuSans-30" x="222.65625"/>
      </g>
     </g>
    </g>
    <g id="ytick_4">
     <g id="line2d_9">
      <g>
       <use xlink:href="#m016eb9ff5c" x="60.635" y="209.96472" style="stroke: #000000; stroke-width: 0.8"/>
      </g>
     </g>
     <g id="text_10">
      <!-- 0.075 -->
      <g transform="translate(25.006875 213.763939) scale(0.1 -0.1)">
       <defs>
        <path id="DejaVuSans-37" d="M 525 4666 
L 3525 4666 
L 3525 4397 
L 1831 0 
L 1172 0 
L 2766 4134 
L 525 4134 
L 525 4666 
z
" transform="scale(0.015625)"/>
       </defs>
       <use xlink:href="#DejaVuSans-30"/>
       <use xlink:href="#DejaVuSans-2e" x="63.623047"/>
       <use xlink:href="#DejaVuSans-30" x="95.410156"/>
       <use xlink:href="#DejaVuSans-37" x="159.033203"/>
       <use xlink:href="#DejaVuSans-35" x="222.65625"/>
      </g>
     </g>
    </g>
    <g id="ytick_5">
     <g id="line2d_10">
      <g>
       <use xlink:href="#m016eb9ff5c" x="60.635" y="176.069539" style="stroke: #000000; stroke-width: 0.8"/>
      </g>
     </g>
     <g id="text_11">
      <!-- 0.100 -->
      <g transform="translate(25.006875 179.868758) scale(0.1 -0.1)">
       <use xlink:href="#DejaVuSans-30"/>
       <use xlink:href="#DejaVuSans-2e" x="63.623047"/>
       <use xlink:href="#DejaVuSans-31" x="95.410156"/>
       <use xlink:href="#DejaVuSans-30" x="159.033203"/>
       <use xlink:href="#DejaVuSans-30" x="222.65625"/>
      </g>
     </g>
    </g>
    <g id="ytick_6">
     <g id="line2d_11">
      <g>
       <use xlink:href="#m016eb9ff5c" x="60.635" y="142.174358" style="stroke: #000000; stroke-width: 0.8"/>
      </g>
     </g>
     <g id="text_12">
      <!-- 0.125 -->
      <g transform="translate(25.006875 145.973577) scale(0.1 -0.1)">
       <use xlink:href="#DejaVuSans-30"/>
       <use xlink:href="#DejaVuSans-2e" x="63.623047"/>
       <use xlink:href="#DejaVuSans-31" x="95.410156"/>
       <use xlink:href="#DejaVuSans-32" x="159.033203"/>
       <use xlink:href="#DejaVuSans-35" x="222.65625"/>
      </g>
     </g>
    </g>
    <g id="ytick_7">
     <g id="line2d_12">
      <g>
       <use xlink:href="#m016eb9ff5c" x="60.635" y="108.279177" style="stroke: #000000; stroke-width: 0.8"/>
      </g>
     </g>
     <g id="text_13">
      <!-- 0.150 -->
      <g transform="translate(25.006875 112.078396) scale(0.1 -0.1)">
       <use xlink:href="#DejaVuSans-30"/>
       <use xlink:href="#DejaVuSans-2e" x="63.623047"/>
       <use xlink:href="#DejaVuSans-31" x="95.410156"/>
       <use xlink:href="#DejaVuSans-35" x="159.033203"/>
       <use xlink:href="#DejaVuSans-30" x="222.65625"/>
      </g>
     </g>
    </g>
    <g id="ytick_8">
     <g id="line2d_13">
      <g>
       <use xlink:href="#m016eb9ff5c" x="60.635" y="74.383996" style="stroke: #000000; stroke-width: 0.8"/>
      </g>
     </g>
     <g id="text_14">
      <!-- 0.175 -->
      <g transform="translate(25.006875 78.183215) scale(0.1 -0.1)">
       <use xlink:href="#DejaVuSans-30"/>
       <use xlink:href="#DejaVuSans-2e" x="63.623047"/>
       <use xlink:href="#DejaVuSans-31" x="95.410156"/>
       <use xlink:href="#DejaVuSans-37" x="159.033203"/>
       <use xlink:href="#DejaVuSans-35" x="222.65625"/>
      </g>
     </g>
    </g>
    <g id="ytick_9">
     <g id="line2d_14">
      <g>
       <use xlink:href="#m016eb9ff5c" x="60.635" y="40.488815" style="stroke: #000000; stroke-width: 0.8"/>
      </g>
     </g>
     <g id="text_15">
      <!-- 0.200 -->
      <g transform="translate(25.006875 44.288034) scale(0.1 -0.1)">
       <use xlink:href="#DejaVuSans-30"/>
       <use xlink:href="#DejaVuSans-2e" x="63.623047"/>
       <use xlink:href="#DejaVuSans-32" x="95.410156"/>
       <use xlink:href="#DejaVuSans-30" x="159.033203"/>
       <use xlink:href="#DejaVuSans-30" x="222.65625"/>
      </g>
     </g>
    </g>
    <g id="text_16">
     <!-- Loss -->
     <g transform="translate(18.927187 185.767188) rotate(-90) scale(0.1 -0.1)">
      <defs>
       <path id="DejaVuSans-4c" d="M 628 4666 
L 1259 4666 
L 1259 531 
L 3531 531 
L 3531 0 
L 628 0 
L 628 4666 
z
" transform="scale(0.015625)"/>
      </defs>
      <use xlink:href="#DejaVuSans-4c"/>
      <use xlink:href="#DejaVuSans-6f" x="53.962891"/>
      <use xlink:href="#DejaVuSans-73" x="115.144531"/>
      <use xlink:href="#DejaVuSans-73" x="167.244141"/>
     </g>
    </g>
   </g>
   <g id="line2d_15">
    <path d="M 82.034659 39.672727 
L 83.936851 195.248776 
L 85.839043 207.046671 
L 87.741235 216.411677 
L 89.643427 222.15351 
L 91.545619 226.2399 
L 93.447811 232.405195 
L 99.154386 245.46692 
L 101.056578 248.728948 
L 102.95877 253.756485 
L 104.860962 254.7218 
L 106.763154 261.375661 
L 108.665346 261.147512 
L 110.567538 265.684897 
L 112.46973 266.426608 
L 114.371922 269.132496 
L 116.274114 272.260562 
L 118.176306 272.71441 
L 120.078497 274.415377 
L 121.980689 276.407549 
L 123.882881 280.053755 
L 125.785073 278.967047 
L 127.687265 282.346216 
L 129.589457 283.120808 
L 131.491649 284.550399 
L 133.393841 285.243235 
L 135.296033 287.660268 
L 137.198225 287.124873 
L 139.100417 288.89512 
L 141.002609 287.818241 
L 142.904801 290.890027 
L 144.806992 290.296243 
L 146.709184 291.169466 
L 148.611376 292.848162 
L 150.513568 292.975133 
L 152.41576 292.643068 
L 154.317952 293.79605 
L 158.122336 294.671583 
L 160.024528 293.4526 
L 161.92672 294.204571 
L 163.828912 295.895959 
L 165.731104 295.623052 
L 167.633295 296.190505 
L 169.535487 296.382772 
L 171.437679 296.98264 
L 173.339871 297.318054 
L 175.242063 298.33622 
L 177.144255 296.997072 
L 179.046447 298.114755 
L 180.948639 298.782086 
L 182.850831 298.368364 
L 184.753023 299.99033 
L 186.655215 298.873271 
L 188.557407 299.568354 
L 190.459598 299.986866 
L 192.36179 299.489628 
L 194.263982 299.903948 
L 198.068366 301.911252 
L 199.970558 301.073414 
L 201.87275 300.048221 
L 203.774942 301.430021 
L 205.677134 300.998972 
L 207.579326 301.884718 
L 209.481518 301.816307 
L 211.38371 302.383712 
L 213.285902 302.289431 
L 215.188093 300.932883 
L 217.090285 302.921816 
L 218.992477 302.827136 
L 220.894669 302.853558 
L 222.796861 303.033926 
L 224.699053 302.274595 
L 226.601245 302.959628 
L 228.503437 303.505068 
L 230.405629 303.296456 
L 232.307821 302.395176 
L 234.210013 303.70843 
L 236.112205 303.57686 
L 238.014396 303.318912 
L 239.916588 304.098827 
L 241.81878 303.287764 
L 243.720972 304.112198 
L 245.623164 304.676258 
L 247.525356 303.265546 
L 249.427548 304.673497 
L 251.32974 304.368753 
L 253.231932 304.578143 
L 255.134124 304.124825 
L 257.036316 304.042965 
L 258.938508 305.026908 
L 260.840699 304.42927 
L 262.742891 304.779913 
L 264.645083 304.534127 
L 266.547275 305.149661 
L 268.449467 304.881428 
L 270.351659 304.953101 
L 272.253851 303.923313 
L 274.156043 305.498418 
L 276.058235 304.523278 
L 277.960427 305.729776 
L 281.764811 305.163233 
L 283.667003 305.259329 
L 285.569194 305.971184 
L 287.471386 305.317543 
L 289.373578 305.704597 
L 291.27577 304.432979 
L 293.177962 305.898574 
L 296.982346 305.840749 
L 298.884538 306.26168 
L 300.78673 306.234784 
L 302.688922 305.499259 
L 304.591114 306.141611 
L 306.493306 306.335103 
L 308.395497 306.710481 
L 310.297689 306.22066 
L 312.199881 304.618681 
L 314.102073 306.180293 
L 316.004265 305.557602 
L 317.906457 306.630146 
L 319.808649 305.932418 
L 321.710841 306.346543 
L 323.613033 306.208527 
L 325.515225 306.742338 
L 327.417417 306.240865 
L 329.319609 306.834708 
L 331.221801 306.709949 
L 333.123992 306.180074 
L 338.830568 307.135801 
L 340.73276 306.842214 
L 342.634952 306.934341 
L 344.537144 306.468971 
L 346.439336 306.729202 
L 348.341528 306.759492 
L 350.24372 305.753673 
L 352.145912 307.408255 
L 354.048104 307.563116 
L 355.950295 306.730922 
L 357.852487 306.494594 
L 359.754679 307.668073 
L 361.656871 306.866069 
L 363.559063 307.293026 
L 365.461255 307.360023 
L 367.363447 307.313691 
L 369.265639 306.929243 
L 373.070023 307.54687 
L 374.972215 307.14318 
L 376.874407 307.514107 
L 378.776598 306.975364 
L 380.67879 307.995477 
L 382.580982 307.593399 
L 388.287558 307.267595 
L 390.18975 307.667574 
L 392.091942 307.356751 
L 393.994134 307.617768 
L 395.896326 308.274635 
L 397.798518 306.968074 
L 399.70071 307.593627 
L 401.602902 307.463836 
L 403.505093 307.865515 
L 407.309477 307.732824 
L 409.211669 307.4587 
L 411.113861 307.971625 
L 413.016053 308.182476 
L 414.918245 307.003988 
L 416.820437 307.938298 
L 418.722629 307.659451 
L 420.624821 308.0093 
L 422.527013 306.728287 
L 424.429205 308.159257 
L 426.331396 307.91182 
L 430.13578 308.32434 
L 432.037972 307.65219 
L 433.940164 307.598764 
L 435.842356 307.96257 
L 437.744548 308.150136 
L 439.64674 308.456915 
L 441.548932 308.405748 
L 443.451124 307.61849 
L 445.353316 307.743999 
L 447.255508 308.106854 
L 449.157699 308.324131 
L 451.059891 308.426136 
L 452.962083 308.078476 
L 454.864275 308.177902 
L 456.766467 307.495809 
L 458.668659 308.273386 
L 460.570851 308.329238 
L 462.473043 308.80002 
L 464.375235 308.531072 
L 466.277427 308.541146 
L 468.179619 307.452224 
L 470.081811 308.551104 
L 471.984003 308.827465 
L 473.886194 307.846661 
L 475.788386 307.301656 
L 477.690578 308.003186 
L 479.59277 308.138436 
L 481.494962 308.477996 
L 483.397154 308.646542 
L 485.299346 308.370218 
L 492.908114 308.536997 
L 494.810306 308.986786 
L 496.712497 308.543711 
L 498.614689 308.265765 
L 500.516881 309.061923 
L 502.419073 308.252791 
L 504.321265 307.070265 
L 506.223457 308.919967 
L 508.125649 308.74876 
L 510.027841 307.776074 
L 510.027841 307.776074 
" clip-path="url(#pf94a2cf2ff)" style="fill: none; stroke: #1f77b4; stroke-width: 1.5; stroke-linecap: square"/>
   </g>
   <g id="line2d_16">
    <path d="M 82.034659 176.249769 
L 83.936851 209.013958 
L 85.839043 193.507845 
L 87.741235 213.252801 
L 89.643427 206.023646 
L 91.545619 232.222994 
L 93.447811 220.887149 
L 95.350003 228.058356 
L 97.252194 229.577852 
L 99.154386 239.601338 
L 101.056578 251.932377 
L 102.95877 215.906196 
L 104.860962 257.053349 
L 106.763154 236.457569 
L 108.665346 263.775032 
L 110.567538 267.225843 
L 112.46973 274.970088 
L 114.371922 275.257998 
L 116.274114 274.425524 
L 118.176306 271.535357 
L 120.078497 262.943912 
L 121.980689 277.464876 
L 123.882881 270.62872 
L 125.785073 280.240558 
L 127.687265 270.357718 
L 129.589457 280.998727 
L 131.491649 287.325316 
L 133.393841 288.382259 
L 135.296033 285.028433 
L 137.198225 291.739258 
L 139.100417 281.365853 
L 141.002609 285.952965 
L 142.904801 282.242208 
L 144.806992 293.723728 
L 146.709184 289.426716 
L 148.611376 288.709554 
L 150.513568 284.335878 
L 152.41576 294.469027 
L 154.317952 295.468852 
L 156.220144 281.70255 
L 158.122336 296.466637 
L 160.024528 285.568201 
L 161.92672 299.7719 
L 163.828912 301.272668 
L 165.731104 297.57826 
L 167.633295 298.259547 
L 169.535487 299.623817 
L 171.437679 297.022454 
L 173.339871 298.072994 
L 175.242063 279.95757 
L 177.144255 301.879932 
L 179.046447 291.36287 
L 180.948639 288.036278 
L 182.850831 302.526716 
L 184.753023 302.522085 
L 186.655215 293.123317 
L 188.557407 303.739425 
L 190.459598 301.096555 
L 192.36179 296.693908 
L 194.263982 301.094683 
L 196.166174 300.018485 
L 198.068366 303.17984 
L 199.970558 301.210158 
L 201.87275 296.970446 
L 203.774942 301.306452 
L 205.677134 305.148248 
L 207.579326 304.177117 
L 209.481518 300.497906 
L 211.38371 286.170479 
L 213.285902 304.011173 
L 215.188093 304.445935 
L 217.090285 306.332945 
L 218.992477 304.236281 
L 220.894669 303.327122 
L 222.796861 299.139322 
L 224.699053 305.71408 
L 226.601245 305.226172 
L 228.503437 303.370133 
L 230.405629 297.722258 
L 232.307821 302.545238 
L 234.210013 305.587863 
L 236.112205 303.388876 
L 238.014396 303.832312 
L 239.916588 305.763399 
L 241.81878 304.808927 
L 243.720972 306.615371 
L 245.623164 297.708967 
L 247.525356 306.919422 
L 249.427548 306.11364 
L 251.32974 304.920701 
L 253.231932 306.167405 
L 255.134124 306.548329 
L 257.036316 306.244763 
L 258.938508 303.123517 
L 260.840699 305.605601 
L 262.742891 303.741028 
L 264.645083 305.656333 
L 266.547275 297.592902 
L 268.449467 304.307668 
L 270.351659 306.722259 
L 272.253851 298.192241 
L 274.156043 300.568004 
L 276.058235 305.072235 
L 277.960427 306.038114 
L 279.862619 305.630307 
L 281.764811 304.959566 
L 283.667003 307.624992 
L 285.569194 305.074228 
L 287.471386 299.873162 
L 289.373578 307.583069 
L 291.27577 308.336182 
L 293.177962 301.867305 
L 295.080154 300.292513 
L 296.982346 307.779539 
L 298.884538 296.897086 
L 300.78673 307.359301 
L 302.688922 307.094111 
L 304.591114 300.172915 
L 306.493306 306.817741 
L 308.395497 292.44159 
L 310.297689 306.402063 
L 312.199881 303.098058 
L 314.102073 307.638186 
L 317.906457 308.517235 
L 319.808649 308.487316 
L 321.710841 303.714226 
L 323.613033 308.466655 
L 325.515225 308.032623 
L 327.417417 303.769566 
L 329.319609 305.72639 
L 331.221801 307.345067 
L 333.123992 300.541793 
L 335.026184 305.950615 
L 336.928376 307.291115 
L 338.830568 306.211488 
L 340.73276 308.507939 
L 342.634952 309.697451 
L 344.537144 306.664636 
L 346.439336 305.063624 
L 350.24372 308.817779 
L 352.145912 306.521589 
L 354.048104 309.481556 
L 357.852487 307.667168 
L 359.754679 306.225036 
L 361.656871 308.672651 
L 363.559063 308.935486 
L 365.461255 303.178662 
L 367.363447 308.444559 
L 369.265639 304.253491 
L 371.167831 306.852176 
L 373.070023 302.808648 
L 374.972215 306.359449 
L 376.874407 309.37089 
L 378.776598 306.842226 
L 380.67879 307.706476 
L 382.580982 305.184813 
L 384.483174 308.554264 
L 386.385366 307.743819 
L 388.287558 307.287196 
L 390.18975 309.790859 
L 392.091942 287.233508 
L 393.994134 309.066654 
L 395.896326 309.557694 
L 397.798518 305.02606 
L 399.70071 305.955738 
L 401.602902 307.917044 
L 403.505093 306.952415 
L 405.407285 308.773013 
L 407.309477 307.922712 
L 409.211669 309.17944 
L 411.113861 308.730206 
L 413.016053 309.63106 
L 414.918245 309.927273 
L 416.820437 309.033189 
L 418.722629 305.257055 
L 420.624821 306.307548 
L 422.527013 308.541912 
L 426.331396 306.688762 
L 428.233588 307.505242 
L 430.13578 307.796388 
L 432.037972 309.398876 
L 433.940164 303.83381 
L 435.842356 308.213581 
L 437.744548 308.721626 
L 441.548932 309.158961 
L 443.451124 308.980828 
L 445.353316 308.95482 
L 447.255508 309.545546 
L 449.157699 309.661483 
L 451.059891 309.191938 
L 452.962083 308.295382 
L 454.864275 309.617841 
L 456.766467 305.360465 
L 458.668659 309.131757 
L 460.570851 308.419226 
L 462.473043 306.130235 
L 464.375235 309.282353 
L 466.277427 307.131536 
L 468.179619 309.344731 
L 470.081811 306.617101 
L 471.984003 306.504207 
L 473.886194 305.720797 
L 475.788386 306.33231 
L 477.690578 307.906184 
L 479.59277 307.922937 
L 481.494962 308.491543 
L 483.397154 307.44352 
L 485.299346 309.638385 
L 487.201538 308.860436 
L 489.10373 309.654091 
L 491.005922 309.077281 
L 492.908114 309.222548 
L 494.810306 304.645678 
L 496.712497 309.034418 
L 498.614689 307.876845 
L 500.516881 309.613415 
L 502.419073 309.728696 
L 504.321265 308.544978 
L 506.223457 306.659904 
L 508.125649 308.715904 
L 510.027841 299.735122 
L 510.027841 299.735122 
" clip-path="url(#pf94a2cf2ff)" style="fill: none; stroke: #ff7f0e; stroke-width: 1.5; stroke-linecap: square"/>
   </g>
   <g id="patch_3">
    <path d="M 60.635 323.44 
L 60.635 26.16 
" style="fill: none; stroke: #000000; stroke-width: 0.8; stroke-linejoin: miter; stroke-linecap: square"/>
   </g>
   <g id="patch_4">
    <path d="M 531.4275 323.44 
L 531.4275 26.16 
" style="fill: none; stroke: #000000; stroke-width: 0.8; stroke-linejoin: miter; stroke-linecap: square"/>
   </g>
   <g id="patch_5">
    <path d="M 60.635 323.44 
L 531.4275 323.44 
" style="fill: none; stroke: #000000; stroke-width: 0.8; stroke-linejoin: miter; stroke-linecap: square"/>
   </g>
   <g id="patch_6">
    <path d="M 60.635 26.16 
L 531.4275 26.16 
" style="fill: none; stroke: #000000; stroke-width: 0.8; stroke-linejoin: miter; stroke-linecap: square"/>
   </g>
   <g id="text_17">
    <!-- Training and Validation Loss -->
    <g transform="translate(212.561875 20.16) scale(0.12 -0.12)">
     <defs>
      <path id="DejaVuSans-54" d="M -19 4666 
L 3928 4666 
L 3928 4134 
L 2272 4134 
L 2272 0 
L 1638 0 
L 1638 4134 
L -19 4134 
L -19 4666 
z
" transform="scale(0.015625)"/>
      <path id="DejaVuSans-72" d="M 2631 2963 
Q 2534 3019 2420 3045 
Q 2306 3072 2169 3072 
Q 1681 3072 1420 2755 
Q 1159 2438 1159 1844 
L 1159 0 
L 581 0 
L 581 3500 
L 1159 3500 
L 1159 2956 
Q 1341 3275 1631 3429 
Q 1922 3584 2338 3584 
Q 2397 3584 2469 3576 
Q 2541 3569 2628 3553 
L 2631 2963 
z
" transform="scale(0.015625)"/>
      <path id="DejaVuSans-61" d="M 2194 1759 
Q 1497 1759 1228 1600 
Q 959 1441 959 1056 
Q 959 750 1161 570 
Q 1363 391 1709 391 
Q 2188 391 2477 730 
Q 2766 1069 2766 1631 
L 2766 1759 
L 2194 1759 
z
M 3341 1997 
L 3341 0 
L 2766 0 
L 2766 531 
Q 2569 213 2275 61 
Q 1981 -91 1556 -91 
Q 1019 -91 701 211 
Q 384 513 384 1019 
Q 384 1609 779 1909 
Q 1175 2209 1959 2209 
L 2766 2209 
L 2766 2266 
Q 2766 2663 2505 2880 
Q 2244 3097 1772 3097 
Q 1472 3097 1187 3025 
Q 903 2953 641 2809 
L 641 3341 
Q 956 3463 1253 3523 
Q 1550 3584 1831 3584 
Q 2591 3584 2966 3190 
Q 3341 2797 3341 1997 
z
" transform="scale(0.015625)"/>
      <path id="DejaVuSans-69" d="M 603 3500 
L 1178 3500 
L 1178 0 
L 603 0 
L 603 3500 
z
M 603 4863 
L 1178 4863 
L 1178 4134 
L 603 4134 
L 603 4863 
z
" transform="scale(0.015625)"/>
      <path id="DejaVuSans-6e" d="M 3513 2113 
L 3513 0 
L 2938 0 
L 2938 2094 
Q 2938 2591 2744 2837 
Q 2550 3084 2163 3084 
Q 1697 3084 1428 2787 
Q 1159 2491 1159 1978 
L 1159 0 
L 581 0 
L 581 3500 
L 1159 3500 
L 1159 2956 
Q 1366 3272 1645 3428 
Q 1925 3584 2291 3584 
Q 2894 3584 3203 3211 
Q 3513 2838 3513 2113 
z
" transform="scale(0.015625)"/>
      <path id="DejaVuSans-67" d="M 2906 1791 
Q 2906 2416 2648 2759 
Q 2391 3103 1925 3103 
Q 1463 3103 1205 2759 
Q 947 2416 947 1791 
Q 947 1169 1205 825 
Q 1463 481 1925 481 
Q 2391 481 2648 825 
Q 2906 1169 2906 1791 
z
M 3481 434 
Q 3481 -459 3084 -895 
Q 2688 -1331 1869 -1331 
Q 1566 -1331 1297 -1286 
Q 1028 -1241 775 -1147 
L 775 -588 
Q 1028 -725 1275 -790 
Q 1522 -856 1778 -856 
Q 2344 -856 2625 -561 
Q 2906 -266 2906 331 
L 2906 616 
Q 2728 306 2450 153 
Q 2172 0 1784 0 
Q 1141 0 747 490 
Q 353 981 353 1791 
Q 353 2603 747 3093 
Q 1141 3584 1784 3584 
Q 2172 3584 2450 3431 
Q 2728 3278 2906 2969 
L 2906 3500 
L 3481 3500 
L 3481 434 
z
" transform="scale(0.015625)"/>
      <path id="DejaVuSans-20" transform="scale(0.015625)"/>
      <path id="DejaVuSans-64" d="M 2906 2969 
L 2906 4863 
L 3481 4863 
L 3481 0 
L 2906 0 
L 2906 525 
Q 2725 213 2448 61 
Q 2172 -91 1784 -91 
Q 1150 -91 751 415 
Q 353 922 353 1747 
Q 353 2572 751 3078 
Q 1150 3584 1784 3584 
Q 2172 3584 2448 3432 
Q 2725 3281 2906 2969 
z
M 947 1747 
Q 947 1113 1208 752 
Q 1469 391 1925 391 
Q 2381 391 2643 752 
Q 2906 1113 2906 1747 
Q 2906 2381 2643 2742 
Q 2381 3103 1925 3103 
Q 1469 3103 1208 2742 
Q 947 2381 947 1747 
z
" transform="scale(0.015625)"/>
      <path id="DejaVuSans-56" d="M 1831 0 
L 50 4666 
L 709 4666 
L 2188 738 
L 3669 4666 
L 4325 4666 
L 2547 0 
L 1831 0 
z
" transform="scale(0.015625)"/>
      <path id="DejaVuSans-6c" d="M 603 4863 
L 1178 4863 
L 1178 0 
L 603 0 
L 603 4863 
z
" transform="scale(0.015625)"/>
      <path id="DejaVuSans-74" d="M 1172 4494 
L 1172 3500 
L 2356 3500 
L 2356 3053 
L 1172 3053 
L 1172 1153 
Q 1172 725 1289 603 
Q 1406 481 1766 481 
L 2356 481 
L 2356 0 
L 1766 0 
Q 1100 0 847 248 
Q 594 497 594 1153 
L 594 3053 
L 172 3053 
L 172 3500 
L 594 3500 
L 594 4494 
L 1172 4494 
z
" transform="scale(0.015625)"/>
     </defs>
     <use xlink:href="#DejaVuSans-54"/>
     <use xlink:href="#DejaVuSans-72" x="46.333984"/>
     <use xlink:href="#DejaVuSans-61" x="87.447266"/>
     <use xlink:href="#DejaVuSans-69" x="148.726562"/>
     <use xlink:href="#DejaVuSans-6e" x="176.509766"/>
     <use xlink:href="#DejaVuSans-69" x="239.888672"/>
     <use xlink:href="#DejaVuSans-6e" x="267.671875"/>
     <use xlink:href="#DejaVuSans-67" x="331.050781"/>
     <use xlink:href="#DejaVuSans-20" x="394.527344"/>
     <use xlink:href="#DejaVuSans-61" x="426.314453"/>
     <use xlink:href="#DejaVuSans-6e" x="487.59375"/>
     <use xlink:href="#DejaVuSans-64" x="550.972656"/>
     <use xlink:href="#DejaVuSans-20" x="614.449219"/>
     <use xlink:href="#DejaVuSans-56" x="646.236328"/>
     <use xlink:href="#DejaVuSans-61" x="706.894531"/>
     <use xlink:href="#DejaVuSans-6c" x="768.173828"/>
     <use xlink:href="#DejaVuSans-69" x="795.957031"/>
     <use xlink:href="#DejaVuSans-64" x="823.740234"/>
     <use xlink:href="#DejaVuSans-61" x="887.216797"/>
     <use xlink:href="#DejaVuSans-74" x="948.496094"/>
     <use xlink:href="#DejaVuSans-69" x="987.705078"/>
     <use xlink:href="#DejaVuSans-6f" x="1015.488281"/>
     <use xlink:href="#DejaVuSans-6e" x="1076.669922"/>
     <use xlink:href="#DejaVuSans-20" x="1140.048828"/>
     <use xlink:href="#DejaVuSans-4c" x="1171.835938"/>
     <use xlink:href="#DejaVuSans-6f" x="1225.798828"/>
     <use xlink:href="#DejaVuSans-73" x="1286.980469"/>
     <use xlink:href="#DejaVuSans-73" x="1339.080078"/>
    </g>
   </g>
   <g id="legend_1">
    <g id="patch_7">
     <path d="M 420.5525 63.51625 
L 524.4275 63.51625 
Q 526.4275 63.51625 526.4275 61.51625 
L 526.4275 33.16 
Q 526.4275 31.16 524.4275 31.16 
L 420.5525 31.16 
Q 418.5525 31.16 418.5525 33.16 
L 418.5525 61.51625 
Q 418.5525 63.51625 420.5525 63.51625 
z
" style="fill: #ffffff; opacity: 0.8; stroke: #cccccc; stroke-linejoin: miter"/>
    </g>
    <g id="line2d_17">
     <path d="M 422.5525 39.258438 
L 432.5525 39.258438 
L 442.5525 39.258438 
" style="fill: none; stroke: #1f77b4; stroke-width: 1.5; stroke-linecap: square"/>
    </g>
    <g id="text_18">
     <!-- Training loss -->
     <g transform="translate(450.5525 42.758438) scale(0.1 -0.1)">
      <use xlink:href="#DejaVuSans-54"/>
      <use xlink:href="#DejaVuSans-72" x="46.333984"/>
      <use xlink:href="#DejaVuSans-61" x="87.447266"/>
      <use xlink:href="#DejaVuSans-69" x="148.726562"/>
      <use xlink:href="#DejaVuSans-6e" x="176.509766"/>
      <use xlink:href="#DejaVuSans-69" x="239.888672"/>
      <use xlink:href="#DejaVuSans-6e" x="267.671875"/>
      <use xlink:href="#DejaVuSans-67" x="331.050781"/>
      <use xlink:href="#DejaVuSans-20" x="394.527344"/>
      <use xlink:href="#DejaVuSans-6c" x="426.314453"/>
      <use xlink:href="#DejaVuSans-6f" x="454.097656"/>
      <use xlink:href="#DejaVuSans-73" x="515.279297"/>
      <use xlink:href="#DejaVuSans-73" x="567.378906"/>
     </g>
    </g>
    <g id="line2d_18">
     <path d="M 422.5525 53.936563 
L 432.5525 53.936563 
L 442.5525 53.936563 
" style="fill: none; stroke: #ff7f0e; stroke-width: 1.5; stroke-linecap: square"/>
    </g>
    <g id="text_19">
     <!-- Validation loss -->
     <g transform="translate(450.5525 57.436563) scale(0.1 -0.1)">
      <use xlink:href="#DejaVuSans-56"/>
      <use xlink:href="#DejaVuSans-61" x="60.658203"/>
      <use xlink:href="#DejaVuSans-6c" x="121.9375"/>
      <use xlink:href="#DejaVuSans-69" x="149.720703"/>
      <use xlink:href="#DejaVuSans-64" x="177.503906"/>
      <use xlink:href="#DejaVuSans-61" x="240.980469"/>
      <use xlink:href="#DejaVuSans-74" x="302.259766"/>
      <use xlink:href="#DejaVuSans-69" x="341.46875"/>
      <use xlink:href="#DejaVuSans-6f" x="369.251953"/>
      <use xlink:href="#DejaVuSans-6e" x="430.433594"/>
      <use xlink:href="#DejaVuSans-20" x="493.8125"/>
      <use xlink:href="#DejaVuSans-6c" x="525.599609"/>
      <use xlink:href="#DejaVuSans-6f" x="553.382812"/>
      <use xlink:href="#DejaVuSans-73" x="614.564453"/>
      <use xlink:href="#DejaVuSans-73" x="666.664062"/>
     </g>
    </g>
   </g>
  </g>
  <g id="axes_2">
   <g id="patch_8">
    <path d="M 598.4075 323.44 
L 1069.2 323.44 
L 1069.2 26.16 
L 598.4075 26.16 
z
" style="fill: #ffffff"/>
   </g>
   <g id="matplotlib.axis_3">
    <g id="xtick_6">
     <g id="line2d_19">
      <g>
       <use xlink:href="#mb0364fd15d" x="617.361484" y="323.44" style="stroke: #000000; stroke-width: 0.8"/>
      </g>
     </g>
     <g id="text_20">
      <!-- 50 -->
      <g transform="translate(610.998984 338.038438) scale(0.1 -0.1)">
       <use xlink:href="#DejaVuSans-35"/>
       <use xlink:href="#DejaVuSans-30" x="63.623047"/>
      </g>
     </g>
    </g>
    <g id="xtick_7">
     <g id="line2d_20">
      <g>
       <use xlink:href="#mb0364fd15d" x="678.503367" y="323.44" style="stroke: #000000; stroke-width: 0.8"/>
      </g>
     </g>
     <g id="text_21">
      <!-- 75 -->
      <g transform="translate(672.140867 338.038438) scale(0.1 -0.1)">
       <use xlink:href="#DejaVuSans-37"/>
       <use xlink:href="#DejaVuSans-35" x="63.623047"/>
      </g>
     </g>
    </g>
    <g id="xtick_8">
     <g id="line2d_21">
      <g>
       <use xlink:href="#mb0364fd15d" x="739.64525" y="323.44" style="stroke: #000000; stroke-width: 0.8"/>
      </g>
     </g>
     <g id="text_22">
      <!-- 100 -->
      <g transform="translate(730.1015 338.038438) scale(0.1 -0.1)">
       <use xlink:href="#DejaVuSans-31"/>
       <use xlink:href="#DejaVuSans-30" x="63.623047"/>
       <use xlink:href="#DejaVuSans-30" x="127.246094"/>
      </g>
     </g>
    </g>
    <g id="xtick_9">
     <g id="line2d_22">
      <g>
       <use xlink:href="#mb0364fd15d" x="800.787133" y="323.44" style="stroke: #000000; stroke-width: 0.8"/>
      </g>
     </g>
     <g id="text_23">
      <!-- 125 -->
      <g transform="translate(791.243383 338.038438) scale(0.1 -0.1)">
       <use xlink:href="#DejaVuSans-31"/>
       <use xlink:href="#DejaVuSans-32" x="63.623047"/>
       <use xlink:href="#DejaVuSans-35" x="127.246094"/>
      </g>
     </g>
    </g>
    <g id="xtick_10">
     <g id="line2d_23">
      <g>
       <use xlink:href="#mb0364fd15d" x="861.929016" y="323.44" style="stroke: #000000; stroke-width: 0.8"/>
      </g>
     </g>
     <g id="text_24">
      <!-- 150 -->
      <g transform="translate(852.385266 338.038438) scale(0.1 -0.1)">
       <use xlink:href="#DejaVuSans-31"/>
       <use xlink:href="#DejaVuSans-35" x="63.623047"/>
       <use xlink:href="#DejaVuSans-30" x="127.246094"/>
      </g>
     </g>
    </g>
    <g id="xtick_11">
     <g id="line2d_24">
      <g>
       <use xlink:href="#mb0364fd15d" x="923.070899" y="323.44" style="stroke: #000000; stroke-width: 0.8"/>
      </g>
     </g>
     <g id="text_25">
      <!-- 175 -->
      <g transform="translate(913.527149 338.038438) scale(0.1 -0.1)">
       <use xlink:href="#DejaVuSans-31"/>
       <use xlink:href="#DejaVuSans-37" x="63.623047"/>
       <use xlink:href="#DejaVuSans-35" x="127.246094"/>
      </g>
     </g>
    </g>
    <g id="xtick_12">
     <g id="line2d_25">
      <g>
       <use xlink:href="#mb0364fd15d" x="984.212782" y="323.44" style="stroke: #000000; stroke-width: 0.8"/>
      </g>
     </g>
     <g id="text_26">
      <!-- 200 -->
      <g transform="translate(974.669032 338.038438) scale(0.1 -0.1)">
       <use xlink:href="#DejaVuSans-32"/>
       <use xlink:href="#DejaVuSans-30" x="63.623047"/>
       <use xlink:href="#DejaVuSans-30" x="127.246094"/>
      </g>
     </g>
    </g>
    <g id="xtick_13">
     <g id="line2d_26">
      <g>
       <use xlink:href="#mb0364fd15d" x="1045.354666" y="323.44" style="stroke: #000000; stroke-width: 0.8"/>
      </g>
     </g>
     <g id="text_27">
      <!-- 225 -->
      <g transform="translate(1035.810916 338.038438) scale(0.1 -0.1)">
       <use xlink:href="#DejaVuSans-32"/>
       <use xlink:href="#DejaVuSans-32" x="63.623047"/>
       <use xlink:href="#DejaVuSans-35" x="127.246094"/>
      </g>
     </g>
    </g>
    <g id="text_28">
     <!-- Epochs -->
     <g transform="translate(815.888125 351.716563) scale(0.1 -0.1)">
      <use xlink:href="#DejaVuSans-45"/>
      <use xlink:href="#DejaVuSans-70" x="63.183594"/>
      <use xlink:href="#DejaVuSans-6f" x="126.660156"/>
      <use xlink:href="#DejaVuSans-63" x="187.841797"/>
      <use xlink:href="#DejaVuSans-68" x="242.822266"/>
      <use xlink:href="#DejaVuSans-73" x="306.201172"/>
     </g>
    </g>
   </g>
   <g id="matplotlib.axis_4">
    <g id="ytick_10">
     <g id="line2d_27">
      <g>
       <use xlink:href="#m016eb9ff5c" x="598.4075" y="290.969038" style="stroke: #000000; stroke-width: 0.8"/>
      </g>
     </g>
     <g id="text_29">
      <!-- 0.0025 -->
      <g transform="translate(556.416875 294.768257) scale(0.1 -0.1)">
       <use xlink:href="#DejaVuSans-30"/>
       <use xlink:href="#DejaVuSans-2e" x="63.623047"/>
       <use xlink:href="#DejaVuSans-30" x="95.410156"/>
       <use xlink:href="#DejaVuSans-30" x="159.033203"/>
       <use xlink:href="#DejaVuSans-32" x="222.65625"/>
       <use xlink:href="#DejaVuSans-35" x="286.279297"/>
      </g>
     </g>
    </g>
    <g id="ytick_11">
     <g id="line2d_28">
      <g>
       <use xlink:href="#m016eb9ff5c" x="598.4075" y="252.410272" style="stroke: #000000; stroke-width: 0.8"/>
      </g>
     </g>
     <g id="text_30">
      <!-- 0.0050 -->
      <g transform="translate(556.416875 256.209491) scale(0.1 -0.1)">
       <use xlink:href="#DejaVuSans-30"/>
       <use xlink:href="#DejaVuSans-2e" x="63.623047"/>
       <use xlink:href="#DejaVuSans-30" x="95.410156"/>
       <use xlink:href="#DejaVuSans-30" x="159.033203"/>
       <use xlink:href="#DejaVuSans-35" x="222.65625"/>
       <use xlink:href="#DejaVuSans-30" x="286.279297"/>
      </g>
     </g>
    </g>
    <g id="ytick_12">
     <g id="line2d_29">
      <g>
       <use xlink:href="#m016eb9ff5c" x="598.4075" y="213.851505" style="stroke: #000000; stroke-width: 0.8"/>
      </g>
     </g>
     <g id="text_31">
      <!-- 0.0075 -->
      <g transform="translate(556.416875 217.650724) scale(0.1 -0.1)">
       <use xlink:href="#DejaVuSans-30"/>
       <use xlink:href="#DejaVuSans-2e" x="63.623047"/>
       <use xlink:href="#DejaVuSans-30" x="95.410156"/>
       <use xlink:href="#DejaVuSans-30" x="159.033203"/>
       <use xlink:href="#DejaVuSans-37" x="222.65625"/>
       <use xlink:href="#DejaVuSans-35" x="286.279297"/>
      </g>
     </g>
    </g>
    <g id="ytick_13">
     <g id="line2d_30">
      <g>
       <use xlink:href="#m016eb9ff5c" x="598.4075" y="175.292739" style="stroke: #000000; stroke-width: 0.8"/>
      </g>
     </g>
     <g id="text_32">
      <!-- 0.0100 -->
      <g transform="translate(556.416875 179.091958) scale(0.1 -0.1)">
       <use xlink:href="#DejaVuSans-30"/>
       <use xlink:href="#DejaVuSans-2e" x="63.623047"/>
       <use xlink:href="#DejaVuSans-30" x="95.410156"/>
       <use xlink:href="#DejaVuSans-31" x="159.033203"/>
       <use xlink:href="#DejaVuSans-30" x="222.65625"/>
       <use xlink:href="#DejaVuSans-30" x="286.279297"/>
      </g>
     </g>
    </g>
    <g id="ytick_14">
     <g id="line2d_31">
      <g>
       <use xlink:href="#m016eb9ff5c" x="598.4075" y="136.733973" style="stroke: #000000; stroke-width: 0.8"/>
      </g>
     </g>
     <g id="text_33">
      <!-- 0.0125 -->
      <g transform="translate(556.416875 140.533192) scale(0.1 -0.1)">
       <use xlink:href="#DejaVuSans-30"/>
       <use xlink:href="#DejaVuSans-2e" x="63.623047"/>
       <use xlink:href="#DejaVuSans-30" x="95.410156"/>
       <use xlink:href="#DejaVuSans-31" x="159.033203"/>
       <use xlink:href="#DejaVuSans-32" x="222.65625"/>
       <use xlink:href="#DejaVuSans-35" x="286.279297"/>
      </g>
     </g>
    </g>
    <g id="ytick_15">
     <g id="line2d_32">
      <g>
       <use xlink:href="#m016eb9ff5c" x="598.4075" y="98.175207" style="stroke: #000000; stroke-width: 0.8"/>
      </g>
     </g>
     <g id="text_34">
      <!-- 0.0150 -->
      <g transform="translate(556.416875 101.974425) scale(0.1 -0.1)">
       <use xlink:href="#DejaVuSans-30"/>
       <use xlink:href="#DejaVuSans-2e" x="63.623047"/>
       <use xlink:href="#DejaVuSans-30" x="95.410156"/>
       <use xlink:href="#DejaVuSans-31" x="159.033203"/>
       <use xlink:href="#DejaVuSans-35" x="222.65625"/>
       <use xlink:href="#DejaVuSans-30" x="286.279297"/>
      </g>
     </g>
    </g>
    <g id="ytick_16">
     <g id="line2d_33">
      <g>
       <use xlink:href="#m016eb9ff5c" x="598.4075" y="59.61644" style="stroke: #000000; stroke-width: 0.8"/>
      </g>
     </g>
     <g id="text_35">
      <!-- 0.0175 -->
      <g transform="translate(556.416875 63.415659) scale(0.1 -0.1)">
       <use xlink:href="#DejaVuSans-30"/>
       <use xlink:href="#DejaVuSans-2e" x="63.623047"/>
       <use xlink:href="#DejaVuSans-30" x="95.410156"/>
       <use xlink:href="#DejaVuSans-31" x="159.033203"/>
       <use xlink:href="#DejaVuSans-37" x="222.65625"/>
       <use xlink:href="#DejaVuSans-35" x="286.279297"/>
      </g>
     </g>
    </g>
    <g id="text_36">
     <!-- Loss -->
     <g transform="translate(550.337188 185.767188) rotate(-90) scale(0.1 -0.1)">
      <use xlink:href="#DejaVuSans-4c"/>
      <use xlink:href="#DejaVuSans-6f" x="53.962891"/>
      <use xlink:href="#DejaVuSans-73" x="115.144531"/>
      <use xlink:href="#DejaVuSans-73" x="167.244141"/>
     </g>
    </g>
   </g>
   <g id="line2d_34">
    <path d="M 619.807159 162.834807 
L 622.252834 175.549432 
L 624.69851 183.140914 
L 627.144185 178.434465 
L 629.58986 196.885759 
L 632.035536 184.17823 
L 634.481211 192.08541 
L 636.926886 196.846358 
L 639.372562 191.189827 
L 641.818237 195.903085 
L 646.709588 218.737942 
L 649.155263 209.206803 
L 651.600938 197.544317 
L 654.046614 213.263514 
L 656.492289 208.359958 
L 658.937964 218.436099 
L 661.38364 217.657865 
L 663.829315 224.112603 
L 666.27499 223.040066 
L 668.720666 207.608133 
L 671.166341 230.234004 
L 673.612016 229.156943 
L 676.057692 229.457515 
L 678.503367 231.509356 
L 680.949042 222.871294 
L 683.394718 230.664156 
L 685.840393 236.869013 
L 688.286068 234.495865 
L 690.731744 224.243016 
L 693.177419 239.182435 
L 695.623094 237.685708 
L 698.068769 234.751327 
L 700.514445 243.623548 
L 702.96012 234.396989 
L 705.405795 243.775658 
L 707.851471 250.192331 
L 710.297146 234.144235 
L 712.742821 250.160931 
L 715.188497 246.694196 
L 717.634172 249.076185 
L 720.079847 243.919294 
L 722.525523 242.988066 
L 724.971198 254.181286 
L 727.416873 247.382632 
L 729.862549 251.371508 
L 732.308224 248.575469 
L 734.753899 255.577715 
L 737.199575 252.526322 
L 739.64525 253.341674 
L 742.090925 241.626916 
L 744.536601 259.545138 
L 746.982276 248.452051 
L 749.427951 262.177029 
L 751.873627 258.347776 
L 754.319302 255.732102 
L 756.764977 256.825287 
L 759.210653 264.92326 
L 761.656328 257.487522 
L 764.102003 261.890606 
L 766.547679 247.42482 
L 768.993354 264.097265 
L 771.439029 264.080301 
L 773.884705 263.439447 
L 776.33038 268.227909 
L 778.776055 267.921943 
L 781.221731 259.554697 
L 783.667406 266.862019 
L 786.113081 269.063169 
L 788.558756 273.333416 
L 791.004432 267.761279 
L 793.450107 249.537343 
L 795.895782 267.302061 
L 798.341458 260.218405 
L 800.787133 272.41954 
L 803.232808 264.48227 
L 805.678484 269.193309 
L 808.124159 267.623246 
L 810.569834 273.695823 
L 813.01551 267.991121 
L 815.461185 274.746618 
L 817.90686 273.327369 
L 820.352536 267.299569 
L 822.798211 270.739073 
L 825.243886 273.688016 
L 827.689562 278.171812 
L 830.135237 274.832003 
L 832.580912 275.880023 
L 835.026588 270.586036 
L 837.472263 273.546388 
L 839.917938 273.890968 
L 842.363614 262.448887 
L 844.809289 281.271221 
L 847.254964 283.032897 
L 849.70064 273.565955 
L 852.146315 270.877512 
L 854.59199 284.226883 
L 857.037666 275.103373 
L 859.483341 279.960385 
L 861.929016 280.722538 
L 864.374692 280.195463 
L 866.820367 275.822038 
L 871.711718 282.84809 
L 874.157393 278.255757 
L 876.603068 282.475377 
L 879.048744 276.346704 
L 881.494419 287.951392 
L 883.940094 283.377398 
L 886.385769 282.391881 
L 888.831445 281.143138 
L 891.27712 279.671082 
L 893.722795 284.221205 
L 896.168471 280.685317 
L 898.614146 283.654618 
L 901.059821 291.12706 
L 903.505497 276.263775 
L 905.951172 283.379984 
L 908.396847 281.903503 
L 910.842523 286.47295 
L 913.288198 286.21327 
L 915.733873 284.963482 
L 918.179549 281.845077 
L 920.625224 287.680051 
L 923.070899 290.078667 
L 925.516575 276.672323 
L 927.96225 287.300921 
L 930.407925 284.128793 
L 932.853601 288.108634 
L 935.299276 273.535977 
L 937.744951 289.814533 
L 940.190627 286.999716 
L 945.081977 291.692498 
L 947.527653 284.046191 
L 949.973328 283.438425 
L 952.419003 287.577045 
L 954.864679 289.710766 
L 957.310354 293.200652 
L 959.756029 292.618584 
L 962.201705 283.662827 
L 964.64738 285.090602 
L 967.093055 289.218398 
L 969.538731 291.690114 
L 971.984406 292.850513 
L 974.430081 288.895576 
L 976.875756 290.026636 
L 979.321432 282.267228 
L 981.767107 291.112847 
L 984.212782 291.748214 
L 986.658458 297.103774 
L 989.104133 294.044255 
L 991.549808 294.158856 
L 993.995484 281.771399 
L 996.441159 294.27214 
L 998.886834 297.415992 
L 1001.33251 286.25847 
L 1003.778185 280.058558 
L 1006.22386 288.039082 
L 1008.669536 289.577674 
L 1011.115211 293.440467 
L 1013.560886 295.357823 
L 1016.006562 292.214399 
L 1018.452237 292.486422 
L 1020.897912 291.977428 
L 1023.343588 292.801351 
L 1025.789263 294.111652 
L 1028.234938 299.228406 
L 1030.680614 294.188037 
L 1033.126289 291.026155 
L 1035.571964 300.083156 
L 1038.01764 290.878558 
L 1040.463315 277.426286 
L 1042.90899 298.468274 
L 1045.354666 296.520653 
L 1047.800341 285.455483 
L 1047.800341 285.455483 
" clip-path="url(#p8c4a3c4919)" style="fill: none; stroke: #1f77b4; stroke-width: 1.5; stroke-linecap: square"/>
   </g>
   <g id="line2d_35">
    <path d="M 619.807159 218.381658 
L 622.252834 98.740776 
L 624.69851 60.897846 
L 627.144185 225.739398 
L 629.58986 225.686717 
L 632.035536 118.767412 
L 634.481211 239.535034 
L 636.926886 209.47005 
L 639.372562 159.386049 
L 641.818237 209.448747 
L 644.263912 197.206053 
L 646.709588 233.169261 
L 649.155263 210.762388 
L 651.600938 162.531908 
L 654.046614 211.857806 
L 656.492289 255.561641 
L 658.937964 244.514161 
L 661.38364 202.659889 
L 663.829315 39.672727 
L 666.27499 242.62641 
L 668.720666 247.572204 
L 671.166341 269.038614 
L 673.612016 245.187205 
L 676.057692 234.844723 
L 678.503367 187.204793 
L 680.949042 261.998482 
L 683.394718 256.448096 
L 685.840393 235.334013 
L 688.286068 171.084431 
L 690.731744 225.9501 
L 693.177419 260.562652 
L 695.623094 235.547221 
L 698.068769 240.591698 
L 700.514445 262.559521 
L 702.96012 251.701562 
L 705.405795 272.25146 
L 707.851471 170.933233 
L 710.297146 275.710309 
L 712.742821 266.543829 
L 715.188497 252.973094 
L 717.634172 267.155452 
L 720.079847 271.488794 
L 722.525523 268.035471 
L 724.971198 232.528536 
L 727.416873 260.764434 
L 729.862549 239.55327 
L 732.308224 261.341554 
L 734.753899 169.612899 
L 737.199575 245.999303 
L 739.64525 273.467406 
L 742.090925 176.430909 
L 744.536601 203.457307 
L 746.982276 254.696927 
L 749.427951 265.684652 
L 751.873627 261.045492 
L 754.319302 253.415219 
L 756.764977 283.736796 
L 759.210653 254.719594 
L 761.656328 195.55287 
L 764.102003 283.259881 
L 766.547679 291.827214 
L 768.993354 218.238008 
L 771.439029 200.323356 
L 773.884705 285.494902 
L 776.33038 161.697373 
L 778.776055 280.714326 
L 781.221731 277.697551 
L 783.667406 198.962831 
L 786.113081 274.553599 
L 788.558756 111.012163 
L 791.004432 269.824899 
L 793.450107 232.23891 
L 795.895782 283.886888 
L 798.341458 289.249299 
L 800.787133 293.886847 
L 803.232808 293.546486 
L 805.678484 239.248367 
L 808.124159 293.311451 
L 810.569834 288.373952 
L 813.01551 239.877916 
L 815.461185 262.138512 
L 817.90686 280.552401 
L 820.352536 203.159134 
L 822.798211 264.689274 
L 825.243886 279.938645 
L 827.689562 267.656937 
L 830.135237 293.781101 
L 832.580912 307.31285 
L 835.026588 272.811896 
L 837.472263 254.59897 
L 839.917938 276.689076 
L 842.363614 297.305803 
L 844.809289 271.184612 
L 847.254964 304.856847 
L 852.146315 284.216587 
L 854.59199 267.811058 
L 857.037666 295.654836 
L 859.483341 298.644818 
L 861.929016 233.155859 
L 864.374692 293.060087 
L 866.820367 245.382983 
L 869.266042 274.945323 
L 871.711718 228.946621 
L 874.157393 269.340119 
L 876.603068 303.597929 
L 879.048744 274.832133 
L 881.494419 284.663747 
L 883.940094 255.977594 
L 886.385769 294.308087 
L 888.831445 285.088559 
L 891.27712 279.894069 
L 893.722795 308.375444 
L 896.168471 51.765624 
L 898.614146 300.136977 
L 901.059821 305.722985 
L 903.505497 254.171648 
L 905.951172 264.747557 
L 908.396847 287.059145 
L 910.842523 276.08564 
L 913.288198 296.796547 
L 915.733873 287.123622 
L 918.179549 301.420013 
L 920.625224 296.309577 
L 923.070899 306.557592 
L 925.516575 309.927273 
L 927.96225 299.75628 
L 930.407925 256.799417 
L 932.853601 268.749705 
L 935.299276 294.167565 
L 937.744951 282.915835 
L 940.190627 273.086347 
L 942.636302 282.374536 
L 945.081977 285.686579 
L 947.527653 303.916295 
L 949.973328 240.608748 
L 952.419003 290.432509 
L 954.864679 296.211979 
L 957.310354 298.192516 
L 959.756029 301.187043 
L 962.201705 299.160632 
L 964.64738 298.864764 
L 967.093055 305.584795 
L 969.538731 306.903679 
L 971.984406 301.562189 
L 974.430081 291.363076 
L 976.875756 306.407209 
L 979.321432 257.975799 
L 981.767107 300.877577 
L 984.212782 292.771904 
L 986.658458 266.732611 
L 989.104133 302.590738 
L 991.549808 278.123297 
L 993.995484 303.300345 
L 996.441159 272.271143 
L 998.886834 270.986878 
L 1001.33251 262.074892 
L 1003.778185 269.031396 
L 1006.22386 286.935598 
L 1008.669536 287.126186 
L 1011.115211 293.594578 
L 1013.560886 281.672386 
L 1016.006562 306.640922 
L 1018.452237 297.791057 
L 1020.897912 306.819587 
L 1023.343588 300.257865 
L 1025.789263 301.910403 
L 1028.234938 249.844465 
L 1030.680614 299.770263 
L 1033.126289 286.601848 
L 1035.571964 306.356869 
L 1038.01764 307.668286 
L 1040.463315 294.202448 
L 1042.90899 272.758066 
L 1045.354666 296.146884 
L 1047.800341 193.982541 
L 1047.800341 193.982541 
" clip-path="url(#p8c4a3c4919)" style="fill: none; stroke: #ff7f0e; stroke-width: 1.5; stroke-linecap: square"/>
   </g>
   <g id="patch_9">
    <path d="M 598.4075 323.44 
L 598.4075 26.16 
" style="fill: none; stroke: #000000; stroke-width: 0.8; stroke-linejoin: miter; stroke-linecap: square"/>
   </g>
   <g id="patch_10">
    <path d="M 1069.2 323.44 
L 1069.2 26.16 
" style="fill: none; stroke: #000000; stroke-width: 0.8; stroke-linejoin: miter; stroke-linecap: square"/>
   </g>
   <g id="patch_11">
    <path d="M 598.4075 323.44 
L 1069.2 323.44 
" style="fill: none; stroke: #000000; stroke-width: 0.8; stroke-linejoin: miter; stroke-linecap: square"/>
   </g>
   <g id="patch_12">
    <path d="M 598.4075 26.16 
L 1069.2 26.16 
" style="fill: none; stroke: #000000; stroke-width: 0.8; stroke-linejoin: miter; stroke-linecap: square"/>
   </g>
   <g id="text_37">
    <!-- Training and Validation Loss (Skip first 50) -->
    <g transform="translate(707.814063 20.16) scale(0.12 -0.12)">
     <defs>
      <path id="DejaVuSans-28" d="M 1984 4856 
Q 1566 4138 1362 3434 
Q 1159 2731 1159 2009 
Q 1159 1288 1364 580 
Q 1569 -128 1984 -844 
L 1484 -844 
Q 1016 -109 783 600 
Q 550 1309 550 2009 
Q 550 2706 781 3412 
Q 1013 4119 1484 4856 
L 1984 4856 
z
" transform="scale(0.015625)"/>
      <path id="DejaVuSans-53" d="M 3425 4513 
L 3425 3897 
Q 3066 4069 2747 4153 
Q 2428 4238 2131 4238 
Q 1616 4238 1336 4038 
Q 1056 3838 1056 3469 
Q 1056 3159 1242 3001 
Q 1428 2844 1947 2747 
L 2328 2669 
Q 3034 2534 3370 2195 
Q 3706 1856 3706 1288 
Q 3706 609 3251 259 
Q 2797 -91 1919 -91 
Q 1588 -91 1214 -16 
Q 841 59 441 206 
L 441 856 
Q 825 641 1194 531 
Q 1563 422 1919 422 
Q 2459 422 2753 634 
Q 3047 847 3047 1241 
Q 3047 1584 2836 1778 
Q 2625 1972 2144 2069 
L 1759 2144 
Q 1053 2284 737 2584 
Q 422 2884 422 3419 
Q 422 4038 858 4394 
Q 1294 4750 2059 4750 
Q 2388 4750 2728 4690 
Q 3069 4631 3425 4513 
z
" transform="scale(0.015625)"/>
      <path id="DejaVuSans-6b" d="M 581 4863 
L 1159 4863 
L 1159 1991 
L 2875 3500 
L 3609 3500 
L 1753 1863 
L 3688 0 
L 2938 0 
L 1159 1709 
L 1159 0 
L 581 0 
L 581 4863 
z
" transform="scale(0.015625)"/>
      <path id="DejaVuSans-66" d="M 2375 4863 
L 2375 4384 
L 1825 4384 
Q 1516 4384 1395 4259 
Q 1275 4134 1275 3809 
L 1275 3500 
L 2222 3500 
L 2222 3053 
L 1275 3053 
L 1275 0 
L 697 0 
L 697 3053 
L 147 3053 
L 147 3500 
L 697 3500 
L 697 3744 
Q 697 4328 969 4595 
Q 1241 4863 1831 4863 
L 2375 4863 
z
" transform="scale(0.015625)"/>
      <path id="DejaVuSans-29" d="M 513 4856 
L 1013 4856 
Q 1481 4119 1714 3412 
Q 1947 2706 1947 2009 
Q 1947 1309 1714 600 
Q 1481 -109 1013 -844 
L 513 -844 
Q 928 -128 1133 580 
Q 1338 1288 1338 2009 
Q 1338 2731 1133 3434 
Q 928 4138 513 4856 
z
" transform="scale(0.015625)"/>
     </defs>
     <use xlink:href="#DejaVuSans-54"/>
     <use xlink:href="#DejaVuSans-72" x="46.333984"/>
     <use xlink:href="#DejaVuSans-61" x="87.447266"/>
     <use xlink:href="#DejaVuSans-69" x="148.726562"/>
     <use xlink:href="#DejaVuSans-6e" x="176.509766"/>
     <use xlink:href="#DejaVuSans-69" x="239.888672"/>
     <use xlink:href="#DejaVuSans-6e" x="267.671875"/>
     <use xlink:href="#DejaVuSans-67" x="331.050781"/>
     <use xlink:href="#DejaVuSans-20" x="394.527344"/>
     <use xlink:href="#DejaVuSans-61" x="426.314453"/>
     <use xlink:href="#DejaVuSans-6e" x="487.59375"/>
     <use xlink:href="#DejaVuSans-64" x="550.972656"/>
     <use xlink:href="#DejaVuSans-20" x="614.449219"/>
     <use xlink:href="#DejaVuSans-56" x="646.236328"/>
     <use xlink:href="#DejaVuSans-61" x="706.894531"/>
     <use xlink:href="#DejaVuSans-6c" x="768.173828"/>
     <use xlink:href="#DejaVuSans-69" x="795.957031"/>
     <use xlink:href="#DejaVuSans-64" x="823.740234"/>
     <use xlink:href="#DejaVuSans-61" x="887.216797"/>
     <use xlink:href="#DejaVuSans-74" x="948.496094"/>
     <use xlink:href="#DejaVuSans-69" x="987.705078"/>
     <use xlink:href="#DejaVuSans-6f" x="1015.488281"/>
     <use xlink:href="#DejaVuSans-6e" x="1076.669922"/>
     <use xlink:href="#DejaVuSans-20" x="1140.048828"/>
     <use xlink:href="#DejaVuSans-4c" x="1171.835938"/>
     <use xlink:href="#DejaVuSans-6f" x="1225.798828"/>
     <use xlink:href="#DejaVuSans-73" x="1286.980469"/>
     <use xlink:href="#DejaVuSans-73" x="1339.080078"/>
     <use xlink:href="#DejaVuSans-20" x="1391.179688"/>
     <use xlink:href="#DejaVuSans-28" x="1422.966797"/>
     <use xlink:href="#DejaVuSans-53" x="1461.980469"/>
     <use xlink:href="#DejaVuSans-6b" x="1525.457031"/>
     <use xlink:href="#DejaVuSans-69" x="1583.367188"/>
     <use xlink:href="#DejaVuSans-70" x="1611.150391"/>
     <use xlink:href="#DejaVuSans-20" x="1674.626953"/>
     <use xlink:href="#DejaVuSans-66" x="1706.414062"/>
     <use xlink:href="#DejaVuSans-69" x="1741.619141"/>
     <use xlink:href="#DejaVuSans-72" x="1769.402344"/>
     <use xlink:href="#DejaVuSans-73" x="1810.515625"/>
     <use xlink:href="#DejaVuSans-74" x="1862.615234"/>
     <use xlink:href="#DejaVuSans-20" x="1901.824219"/>
     <use xlink:href="#DejaVuSans-35" x="1933.611328"/>
     <use xlink:href="#DejaVuSans-30" x="1997.234375"/>
     <use xlink:href="#DejaVuSans-29" x="2060.857422"/>
    </g>
   </g>
   <g id="legend_2">
    <g id="patch_13">
     <path d="M 958.325 63.51625 
L 1062.2 63.51625 
Q 1064.2 63.51625 1064.2 61.51625 
L 1064.2 33.16 
Q 1064.2 31.16 1062.2 31.16 
L 958.325 31.16 
Q 956.325 31.16 956.325 33.16 
L 956.325 61.51625 
Q 956.325 63.51625 958.325 63.51625 
z
" style="fill: #ffffff; opacity: 0.8; stroke: #cccccc; stroke-linejoin: miter"/>
    </g>
    <g id="line2d_36">
     <path d="M 960.325 39.258438 
L 970.325 39.258438 
L 980.325 39.258438 
" style="fill: none; stroke: #1f77b4; stroke-width: 1.5; stroke-linecap: square"/>
    </g>
    <g id="text_38">
     <!-- Training loss -->
     <g transform="translate(988.325 42.758438) scale(0.1 -0.1)">
      <use xlink:href="#DejaVuSans-54"/>
      <use xlink:href="#DejaVuSans-72" x="46.333984"/>
      <use xlink:href="#DejaVuSans-61" x="87.447266"/>
      <use xlink:href="#DejaVuSans-69" x="148.726562"/>
      <use xlink:href="#DejaVuSans-6e" x="176.509766"/>
      <use xlink:href="#DejaVuSans-69" x="239.888672"/>
      <use xlink:href="#DejaVuSans-6e" x="267.671875"/>
      <use xlink:href="#DejaVuSans-67" x="331.050781"/>
      <use xlink:href="#DejaVuSans-20" x="394.527344"/>
      <use xlink:href="#DejaVuSans-6c" x="426.314453"/>
      <use xlink:href="#DejaVuSans-6f" x="454.097656"/>
      <use xlink:href="#DejaVuSans-73" x="515.279297"/>
      <use xlink:href="#DejaVuSans-73" x="567.378906"/>
     </g>
    </g>
    <g id="line2d_37">
     <path d="M 960.325 53.936563 
L 970.325 53.936563 
L 980.325 53.936563 
" style="fill: none; stroke: #ff7f0e; stroke-width: 1.5; stroke-linecap: square"/>
    </g>
    <g id="text_39">
     <!-- Validation loss -->
     <g transform="translate(988.325 57.436563) scale(0.1 -0.1)">
      <use xlink:href="#DejaVuSans-56"/>
      <use xlink:href="#DejaVuSans-61" x="60.658203"/>
      <use xlink:href="#DejaVuSans-6c" x="121.9375"/>
      <use xlink:href="#DejaVuSans-69" x="149.720703"/>
      <use xlink:href="#DejaVuSans-64" x="177.503906"/>
      <use xlink:href="#DejaVuSans-61" x="240.980469"/>
      <use xlink:href="#DejaVuSans-74" x="302.259766"/>
      <use xlink:href="#DejaVuSans-69" x="341.46875"/>
      <use xlink:href="#DejaVuSans-6f" x="369.251953"/>
      <use xlink:href="#DejaVuSans-6e" x="430.433594"/>
      <use xlink:href="#DejaVuSans-20" x="493.8125"/>
      <use xlink:href="#DejaVuSans-6c" x="525.599609"/>
      <use xlink:href="#DejaVuSans-6f" x="553.382812"/>
      <use xlink:href="#DejaVuSans-73" x="614.564453"/>
      <use xlink:href="#DejaVuSans-73" x="666.664062"/>
     </g>
    </g>
   </g>
  </g>
  <g id="axes_3">
   <g id="patch_14">
    <path d="M 60.635 678.04 
L 531.4275 678.04 
L 531.4275 380.76 
L 60.635 380.76 
z
" style="fill: #ffffff"/>
   </g>
   <g id="matplotlib.axis_5">
    <g id="xtick_14">
     <g id="line2d_38">
      <g>
       <use xlink:href="#mb0364fd15d" x="79.588984" y="678.04" style="stroke: #000000; stroke-width: 0.8"/>
      </g>
     </g>
     <g id="text_40">
      <!-- 50 -->
      <g transform="translate(73.226484 692.638438) scale(0.1 -0.1)">
       <use xlink:href="#DejaVuSans-35"/>
       <use xlink:href="#DejaVuSans-30" x="63.623047"/>
      </g>
     </g>
    </g>
    <g id="xtick_15">
     <g id="line2d_39">
      <g>
       <use xlink:href="#mb0364fd15d" x="140.730867" y="678.04" style="stroke: #000000; stroke-width: 0.8"/>
      </g>
     </g>
     <g id="text_41">
      <!-- 75 -->
      <g transform="translate(134.368367 692.638438) scale(0.1 -0.1)">
       <use xlink:href="#DejaVuSans-37"/>
       <use xlink:href="#DejaVuSans-35" x="63.623047"/>
      </g>
     </g>
    </g>
    <g id="xtick_16">
     <g id="line2d_40">
      <g>
       <use xlink:href="#mb0364fd15d" x="201.87275" y="678.04" style="stroke: #000000; stroke-width: 0.8"/>
      </g>
     </g>
     <g id="text_42">
      <!-- 100 -->
      <g transform="translate(192.329 692.638438) scale(0.1 -0.1)">
       <use xlink:href="#DejaVuSans-31"/>
       <use xlink:href="#DejaVuSans-30" x="63.623047"/>
       <use xlink:href="#DejaVuSans-30" x="127.246094"/>
      </g>
     </g>
    </g>
    <g id="xtick_17">
     <g id="line2d_41">
      <g>
       <use xlink:href="#mb0364fd15d" x="263.014633" y="678.04" style="stroke: #000000; stroke-width: 0.8"/>
      </g>
     </g>
     <g id="text_43">
      <!-- 125 -->
      <g transform="translate(253.470883 692.638438) scale(0.1 -0.1)">
       <use xlink:href="#DejaVuSans-31"/>
       <use xlink:href="#DejaVuSans-32" x="63.623047"/>
       <use xlink:href="#DejaVuSans-35" x="127.246094"/>
      </g>
     </g>
    </g>
    <g id="xtick_18">
     <g id="line2d_42">
      <g>
       <use xlink:href="#mb0364fd15d" x="324.156516" y="678.04" style="stroke: #000000; stroke-width: 0.8"/>
      </g>
     </g>
     <g id="text_44">
      <!-- 150 -->
      <g transform="translate(314.612766 692.638438) scale(0.1 -0.1)">
       <use xlink:href="#DejaVuSans-31"/>
       <use xlink:href="#DejaVuSans-35" x="63.623047"/>
       <use xlink:href="#DejaVuSans-30" x="127.246094"/>
      </g>
     </g>
    </g>
    <g id="xtick_19">
     <g id="line2d_43">
      <g>
       <use xlink:href="#mb0364fd15d" x="385.298399" y="678.04" style="stroke: #000000; stroke-width: 0.8"/>
      </g>
     </g>
     <g id="text_45">
      <!-- 175 -->
      <g transform="translate(375.754649 692.638438) scale(0.1 -0.1)">
       <use xlink:href="#DejaVuSans-31"/>
       <use xlink:href="#DejaVuSans-37" x="63.623047"/>
       <use xlink:href="#DejaVuSans-35" x="127.246094"/>
      </g>
     </g>
    </g>
    <g id="xtick_20">
     <g id="line2d_44">
      <g>
       <use xlink:href="#mb0364fd15d" x="446.440282" y="678.04" style="stroke: #000000; stroke-width: 0.8"/>
      </g>
     </g>
     <g id="text_46">
      <!-- 200 -->
      <g transform="translate(436.896532 692.638438) scale(0.1 -0.1)">
       <use xlink:href="#DejaVuSans-32"/>
       <use xlink:href="#DejaVuSans-30" x="63.623047"/>
       <use xlink:href="#DejaVuSans-30" x="127.246094"/>
      </g>
     </g>
    </g>
    <g id="xtick_21">
     <g id="line2d_45">
      <g>
       <use xlink:href="#mb0364fd15d" x="507.582166" y="678.04" style="stroke: #000000; stroke-width: 0.8"/>
      </g>
     </g>
     <g id="text_47">
      <!-- 225 -->
      <g transform="translate(498.038416 692.638438) scale(0.1 -0.1)">
       <use xlink:href="#DejaVuSans-32"/>
       <use xlink:href="#DejaVuSans-32" x="63.623047"/>
       <use xlink:href="#DejaVuSans-35" x="127.246094"/>
      </g>
     </g>
    </g>
    <g id="text_48">
     <!-- Epochs -->
     <g transform="translate(278.115625 706.316563) scale(0.1 -0.1)">
      <use xlink:href="#DejaVuSans-45"/>
      <use xlink:href="#DejaVuSans-70" x="63.183594"/>
      <use xlink:href="#DejaVuSans-6f" x="126.660156"/>
      <use xlink:href="#DejaVuSans-63" x="187.841797"/>
      <use xlink:href="#DejaVuSans-68" x="242.822266"/>
      <use xlink:href="#DejaVuSans-73" x="306.201172"/>
     </g>
    </g>
   </g>
   <g id="matplotlib.axis_6">
    <g id="ytick_17">
     <g id="line2d_46">
      <g>
       <use xlink:href="#m016eb9ff5c" x="60.635" y="652.94413" style="stroke: #000000; stroke-width: 0.8"/>
      </g>
     </g>
     <g id="text_49">
      <!-- 0.02 -->
      <g transform="translate(31.369375 656.743349) scale(0.1 -0.1)">
       <use xlink:href="#DejaVuSans-30"/>
       <use xlink:href="#DejaVuSans-2e" x="63.623047"/>
       <use xlink:href="#DejaVuSans-30" x="95.410156"/>
       <use xlink:href="#DejaVuSans-32" x="159.033203"/>
      </g>
     </g>
    </g>
    <g id="ytick_18">
     <g id="line2d_47">
      <g>
       <use xlink:href="#m016eb9ff5c" x="60.635" y="613.317092" style="stroke: #000000; stroke-width: 0.8"/>
      </g>
     </g>
     <g id="text_50">
      <!-- 0.03 -->
      <g transform="translate(31.369375 617.116311) scale(0.1 -0.1)">
       <defs>
        <path id="DejaVuSans-33" d="M 2597 2516 
Q 3050 2419 3304 2112 
Q 3559 1806 3559 1356 
Q 3559 666 3084 287 
Q 2609 -91 1734 -91 
Q 1441 -91 1130 -33 
Q 819 25 488 141 
L 488 750 
Q 750 597 1062 519 
Q 1375 441 1716 441 
Q 2309 441 2620 675 
Q 2931 909 2931 1356 
Q 2931 1769 2642 2001 
Q 2353 2234 1838 2234 
L 1294 2234 
L 1294 2753 
L 1863 2753 
Q 2328 2753 2575 2939 
Q 2822 3125 2822 3475 
Q 2822 3834 2567 4026 
Q 2313 4219 1838 4219 
Q 1578 4219 1281 4162 
Q 984 4106 628 3988 
L 628 4550 
Q 988 4650 1302 4700 
Q 1616 4750 1894 4750 
Q 2613 4750 3031 4423 
Q 3450 4097 3450 3541 
Q 3450 3153 3228 2886 
Q 3006 2619 2597 2516 
z
" transform="scale(0.015625)"/>
       </defs>
       <use xlink:href="#DejaVuSans-30"/>
       <use xlink:href="#DejaVuSans-2e" x="63.623047"/>
       <use xlink:href="#DejaVuSans-30" x="95.410156"/>
       <use xlink:href="#DejaVuSans-33" x="159.033203"/>
      </g>
     </g>
    </g>
    <g id="ytick_19">
     <g id="line2d_48">
      <g>
       <use xlink:href="#m016eb9ff5c" x="60.635" y="573.690054" style="stroke: #000000; stroke-width: 0.8"/>
      </g>
     </g>
     <g id="text_51">
      <!-- 0.04 -->
      <g transform="translate(31.369375 577.489273) scale(0.1 -0.1)">
       <defs>
        <path id="DejaVuSans-34" d="M 2419 4116 
L 825 1625 
L 2419 1625 
L 2419 4116 
z
M 2253 4666 
L 3047 4666 
L 3047 1625 
L 3713 1625 
L 3713 1100 
L 3047 1100 
L 3047 0 
L 2419 0 
L 2419 1100 
L 313 1100 
L 313 1709 
L 2253 4666 
z
" transform="scale(0.015625)"/>
       </defs>
       <use xlink:href="#DejaVuSans-30"/>
       <use xlink:href="#DejaVuSans-2e" x="63.623047"/>
       <use xlink:href="#DejaVuSans-30" x="95.410156"/>
       <use xlink:href="#DejaVuSans-34" x="159.033203"/>
      </g>
     </g>
    </g>
    <g id="ytick_20">
     <g id="line2d_49">
      <g>
       <use xlink:href="#m016eb9ff5c" x="60.635" y="534.063016" style="stroke: #000000; stroke-width: 0.8"/>
      </g>
     </g>
     <g id="text_52">
      <!-- 0.05 -->
      <g transform="translate(31.369375 537.862235) scale(0.1 -0.1)">
       <use xlink:href="#DejaVuSans-30"/>
       <use xlink:href="#DejaVuSans-2e" x="63.623047"/>
       <use xlink:href="#DejaVuSans-30" x="95.410156"/>
       <use xlink:href="#DejaVuSans-35" x="159.033203"/>
      </g>
     </g>
    </g>
    <g id="ytick_21">
     <g id="line2d_50">
      <g>
       <use xlink:href="#m016eb9ff5c" x="60.635" y="494.435978" style="stroke: #000000; stroke-width: 0.8"/>
      </g>
     </g>
     <g id="text_53">
      <!-- 0.06 -->
      <g transform="translate(31.369375 498.235197) scale(0.1 -0.1)">
       <defs>
        <path id="DejaVuSans-36" d="M 2113 2584 
Q 1688 2584 1439 2293 
Q 1191 2003 1191 1497 
Q 1191 994 1439 701 
Q 1688 409 2113 409 
Q 2538 409 2786 701 
Q 3034 994 3034 1497 
Q 3034 2003 2786 2293 
Q 2538 2584 2113 2584 
z
M 3366 4563 
L 3366 3988 
Q 3128 4100 2886 4159 
Q 2644 4219 2406 4219 
Q 1781 4219 1451 3797 
Q 1122 3375 1075 2522 
Q 1259 2794 1537 2939 
Q 1816 3084 2150 3084 
Q 2853 3084 3261 2657 
Q 3669 2231 3669 1497 
Q 3669 778 3244 343 
Q 2819 -91 2113 -91 
Q 1303 -91 875 529 
Q 447 1150 447 2328 
Q 447 3434 972 4092 
Q 1497 4750 2381 4750 
Q 2619 4750 2861 4703 
Q 3103 4656 3366 4563 
z
" transform="scale(0.015625)"/>
       </defs>
       <use xlink:href="#DejaVuSans-30"/>
       <use xlink:href="#DejaVuSans-2e" x="63.623047"/>
       <use xlink:href="#DejaVuSans-30" x="95.410156"/>
       <use xlink:href="#DejaVuSans-36" x="159.033203"/>
      </g>
     </g>
    </g>
    <g id="ytick_22">
     <g id="line2d_51">
      <g>
       <use xlink:href="#m016eb9ff5c" x="60.635" y="454.80894" style="stroke: #000000; stroke-width: 0.8"/>
      </g>
     </g>
     <g id="text_54">
      <!-- 0.07 -->
      <g transform="translate(31.369375 458.608159) scale(0.1 -0.1)">
       <use xlink:href="#DejaVuSans-30"/>
       <use xlink:href="#DejaVuSans-2e" x="63.623047"/>
       <use xlink:href="#DejaVuSans-30" x="95.410156"/>
       <use xlink:href="#DejaVuSans-37" x="159.033203"/>
      </g>
     </g>
    </g>
    <g id="ytick_23">
     <g id="line2d_52">
      <g>
       <use xlink:href="#m016eb9ff5c" x="60.635" y="415.181902" style="stroke: #000000; stroke-width: 0.8"/>
      </g>
     </g>
     <g id="text_55">
      <!-- 0.08 -->
      <g transform="translate(31.369375 418.981121) scale(0.1 -0.1)">
       <defs>
        <path id="DejaVuSans-38" d="M 2034 2216 
Q 1584 2216 1326 1975 
Q 1069 1734 1069 1313 
Q 1069 891 1326 650 
Q 1584 409 2034 409 
Q 2484 409 2743 651 
Q 3003 894 3003 1313 
Q 3003 1734 2745 1975 
Q 2488 2216 2034 2216 
z
M 1403 2484 
Q 997 2584 770 2862 
Q 544 3141 544 3541 
Q 544 4100 942 4425 
Q 1341 4750 2034 4750 
Q 2731 4750 3128 4425 
Q 3525 4100 3525 3541 
Q 3525 3141 3298 2862 
Q 3072 2584 2669 2484 
Q 3125 2378 3379 2068 
Q 3634 1759 3634 1313 
Q 3634 634 3220 271 
Q 2806 -91 2034 -91 
Q 1263 -91 848 271 
Q 434 634 434 1313 
Q 434 1759 690 2068 
Q 947 2378 1403 2484 
z
M 1172 3481 
Q 1172 3119 1398 2916 
Q 1625 2713 2034 2713 
Q 2441 2713 2670 2916 
Q 2900 3119 2900 3481 
Q 2900 3844 2670 4047 
Q 2441 4250 2034 4250 
Q 1625 4250 1398 4047 
Q 1172 3844 1172 3481 
z
" transform="scale(0.015625)"/>
       </defs>
       <use xlink:href="#DejaVuSans-30"/>
       <use xlink:href="#DejaVuSans-2e" x="63.623047"/>
       <use xlink:href="#DejaVuSans-30" x="95.410156"/>
       <use xlink:href="#DejaVuSans-38" x="159.033203"/>
      </g>
     </g>
    </g>
    <g id="text_56">
     <!-- MAE -->
     <g transform="translate(25.289687 540.29375) rotate(-90) scale(0.1 -0.1)">
      <defs>
       <path id="DejaVuSans-4d" d="M 628 4666 
L 1569 4666 
L 2759 1491 
L 3956 4666 
L 4897 4666 
L 4897 0 
L 4281 0 
L 4281 4097 
L 3078 897 
L 2444 897 
L 1241 4097 
L 1241 0 
L 628 0 
L 628 4666 
z
" transform="scale(0.015625)"/>
       <path id="DejaVuSans-41" d="M 2188 4044 
L 1331 1722 
L 3047 1722 
L 2188 4044 
z
M 1831 4666 
L 2547 4666 
L 4325 0 
L 3669 0 
L 3244 1197 
L 1141 1197 
L 716 0 
L 50 0 
L 1831 4666 
z
" transform="scale(0.015625)"/>
      </defs>
      <use xlink:href="#DejaVuSans-4d"/>
      <use xlink:href="#DejaVuSans-41" x="86.279297"/>
      <use xlink:href="#DejaVuSans-45" x="154.6875"/>
     </g>
    </g>
   </g>
   <g id="line2d_53">
    <path d="M 82.034659 492.08132 
L 84.480334 494.076715 
L 86.92601 504.431203 
L 89.371685 497.047376 
L 91.81736 508.686606 
L 94.263036 506.230512 
L 96.708711 509.055794 
L 99.154386 514.006615 
L 101.600062 519.616998 
L 104.045737 523.910605 
L 106.491412 520.751209 
L 108.937088 526.839504 
L 111.382763 520.443535 
L 113.828438 527.924748 
L 116.274114 523.909454 
L 118.719789 529.460049 
L 121.165464 532.656882 
L 123.61114 530.013204 
L 126.056815 531.045777 
L 128.50249 537.568037 
L 130.948166 532.194795 
L 133.393841 538.114446 
L 135.839516 539.571005 
L 138.285192 540.379989 
L 140.730867 547.749675 
L 143.176542 548.174649 
L 145.622218 541.621197 
L 148.067893 548.374043 
L 150.513568 547.804324 
L 152.959244 549.439757 
L 155.404919 551.395574 
L 157.850594 550.62168 
L 160.296269 550.380775 
L 162.741945 555.381419 
L 165.18762 551.55542 
L 167.633295 561.511254 
L 170.078971 559.559482 
L 172.524646 557.983393 
L 174.970321 559.966565 
L 177.415997 561.799413 
L 179.861672 563.457077 
L 182.307347 566.912485 
L 184.753023 559.985519 
L 187.198698 568.941435 
L 189.644373 562.696218 
L 192.090049 569.468092 
L 194.535724 566.262593 
L 196.981399 570.960154 
L 199.427075 571.254232 
L 201.87275 569.56849 
L 204.318425 572.352999 
L 206.764101 573.410727 
L 209.209776 570.070125 
L 211.655451 578.614573 
L 214.101127 572.597594 
L 216.546802 578.875613 
L 218.992477 575.728219 
L 221.438153 582.641013 
L 223.883828 575.251133 
L 226.329503 580.708786 
L 228.775179 577.01144 
L 231.220854 584.975201 
L 233.666529 584.553429 
L 236.112205 585.528076 
L 238.55788 584.656484 
L 241.003555 585.64049 
L 243.449231 583.358029 
L 245.894906 586.537221 
L 248.340581 586.964543 
L 250.786256 592.372934 
L 253.231932 588.696388 
L 255.677607 596.111172 
L 258.123282 588.985063 
L 260.568958 590.741694 
L 263.014633 592.147544 
L 265.460308 595.629274 
L 267.905984 590.965238 
L 270.351659 593.641968 
L 272.797334 593.451624 
L 275.24301 590.941264 
L 277.688685 593.919705 
L 280.13436 593.931411 
L 282.580036 599.613361 
L 285.025711 593.828873 
L 287.471386 600.562646 
L 289.917062 599.944168 
L 292.362737 598.372537 
L 294.808412 601.631121 
L 297.254088 600.348564 
L 299.699763 603.460913 
L 302.145438 599.200757 
L 304.591114 601.814202 
L 307.036789 601.561561 
L 309.482464 605.092522 
L 311.92814 599.311311 
L 316.81949 606.905397 
L 321.710841 603.466404 
L 324.156516 608.344964 
L 326.602192 605.51388 
L 329.047867 608.236506 
L 331.493542 606.636621 
L 333.939218 608.726819 
L 336.384893 605.146463 
L 338.830568 607.311269 
L 341.276244 605.898628 
L 343.721919 609.282506 
L 346.167594 608.738917 
L 348.613269 610.18591 
L 351.058945 609.786385 
L 353.50462 613.476682 
L 355.950295 614.470792 
L 358.395971 611.573485 
L 360.841646 611.681913 
L 363.287321 613.819483 
L 365.732997 609.252347 
L 368.178672 614.026767 
L 370.624347 610.735994 
L 373.070023 612.178145 
L 375.515698 610.153588 
L 377.961373 616.00331 
L 380.407049 617.24998 
L 382.852724 614.642078 
L 385.298399 613.498663 
L 387.744075 614.241616 
L 390.18975 620.088283 
L 392.635425 613.213855 
L 395.081101 616.387785 
L 397.526776 618.830423 
L 399.972451 617.915963 
L 402.418127 614.473567 
L 404.863802 618.888217 
L 407.309477 617.347248 
L 409.755153 618.7465 
L 412.200828 617.561182 
L 414.646503 621.629318 
L 417.092179 620.649933 
L 419.537854 621.149125 
L 421.983529 619.078155 
L 424.429205 620.585533 
L 426.87488 619.603358 
L 429.320555 620.322854 
L 434.211906 624.160656 
L 436.657581 620.164397 
L 439.103256 622.574049 
L 441.548932 619.157451 
L 443.994607 624.444939 
L 448.885958 625.234807 
L 451.331633 624.076681 
L 453.777308 623.226967 
L 456.222984 621.641645 
L 458.668659 624.802392 
L 461.114334 627.078239 
L 463.56001 622.943016 
L 466.005685 624.40142 
L 468.45136 626.678035 
L 470.897036 626.746525 
L 473.342711 624.269084 
L 475.788386 627.145392 
L 478.234062 626.504085 
L 480.679737 627.549434 
L 483.125412 624.786906 
L 485.571088 626.92934 
L 488.016763 626.155032 
L 490.462438 629.128254 
L 492.908114 626.993319 
L 495.353789 626.0018 
L 497.799464 632.867008 
L 500.24514 630.911995 
L 502.690815 625.185301 
L 505.13649 629.032536 
L 507.582166 627.72385 
L 510.027841 629.250005 
L 510.027841 629.250005 
" clip-path="url(#pea8600512c)" style="fill: none; stroke: #1f77b4; stroke-width: 1.5; stroke-linecap: square"/>
   </g>
   <g id="line2d_54">
    <path d="M 82.034659 538.661445 
L 84.480334 485.10651 
L 86.92601 481.877953 
L 89.371685 535.988775 
L 91.81736 542.616023 
L 94.263036 435.608957 
L 96.708711 567.777005 
L 99.154386 513.617247 
L 101.600062 473.659794 
L 104.045737 532.736347 
L 106.491412 489.947397 
L 108.937088 546.150911 
L 111.382763 531.89648 
L 113.828438 461.850046 
L 116.274114 522.839975 
L 118.719789 569.446997 
L 121.165464 580.136026 
L 123.61114 521.518106 
L 126.056815 394.272727 
L 128.50249 546.693615 
L 130.948166 564.284175 
L 133.393841 590.73787 
L 135.839516 561.290086 
L 138.285192 559.898393 
L 140.730867 515.81388 
L 143.176542 562.06407 
L 145.622218 583.977127 
L 148.067893 532.243082 
L 150.513568 456.825931 
L 152.959244 586.636172 
L 155.404919 584.107094 
L 157.850594 532.70142 
L 160.296269 560.265426 
L 162.741945 570.010559 
L 165.18762 583.024462 
L 167.633295 617.488264 
L 170.078971 515.578098 
L 172.524646 611.366341 
L 174.970321 578.460883 
L 177.415997 542.884341 
L 179.861672 594.717057 
L 182.307347 584.021207 
L 184.753023 586.655791 
L 187.198698 547.850914 
L 189.644373 595.755756 
L 192.090049 547.166065 
L 194.535724 571.274028 
L 196.981399 513.828554 
L 199.427075 551.640406 
L 201.87275 585.456848 
L 204.318425 502.230259 
L 206.764101 507.576841 
L 209.209776 564.802019 
L 211.655451 582.967893 
L 214.101127 582.976721 
L 216.546802 574.715693 
L 218.992477 602.093946 
L 221.438153 587.954793 
L 223.883828 525.093458 
L 226.329503 617.312645 
L 228.775179 624.825111 
L 231.220854 505.272783 
L 233.666529 513.380874 
L 236.112205 619.72311 
L 238.55788 522.461265 
L 241.003555 607.397584 
L 243.449231 584.784119 
L 245.894906 531.625859 
L 248.340581 573.888905 
L 250.786256 518.200858 
L 253.231932 593.752626 
L 255.677607 533.32257 
L 258.123282 610.009412 
L 260.568958 616.564673 
L 263.014633 621.853158 
L 265.460308 605.302485 
L 267.905984 553.617318 
L 270.351659 630.275072 
L 275.24301 561.033991 
L 277.688685 555.439449 
L 280.13436 581.192529 
L 282.580036 555.698954 
L 285.025711 599.701861 
L 287.471386 592.211258 
L 289.917062 568.802655 
L 292.362737 619.005009 
L 294.808412 640.224817 
L 297.254088 629.932123 
L 299.699763 578.615636 
L 302.145438 616.984858 
L 304.591114 627.035089 
L 307.036789 602.396719 
L 309.482464 646.709374 
L 311.92814 620.975418 
L 314.373815 643.332228 
L 316.81949 597.704502 
L 319.265166 617.092799 
L 321.710841 627.17037 
L 324.156516 596.875678 
L 326.602192 630.909523 
L 329.047867 527.558512 
L 331.493542 596.246039 
L 333.939218 577.076142 
L 336.384893 583.921473 
L 338.830568 640.895952 
L 341.276244 588.049153 
L 343.721919 589.538942 
L 346.167594 589.233334 
L 348.613269 615.926797 
L 351.058945 616.785509 
L 353.50462 587.30403 
L 355.950295 651.695086 
L 358.395971 548.769508 
L 360.841646 628.55424 
L 363.287321 647.0379 
L 365.732997 570.878666 
L 368.178672 586.012882 
L 370.624347 610.461077 
L 373.070023 617.9326 
L 375.515698 622.524367 
L 377.961373 625.014931 
L 380.407049 630.818573 
L 382.852724 631.467778 
L 385.298399 657.587102 
L 387.744075 664.527273 
L 390.18975 629.112244 
L 392.635425 538.487177 
L 395.081101 604.680848 
L 397.526776 641.268447 
L 399.972451 610.426608 
L 402.418127 600.592761 
L 404.863802 612.017355 
L 407.309477 614.344671 
L 409.755153 635.53201 
L 412.200828 591.702552 
L 414.646503 623.491536 
L 417.092179 613.043344 
L 419.537854 634.609777 
L 421.983529 638.529177 
L 424.429205 639.702042 
L 426.87488 627.152272 
L 429.320555 639.306016 
L 431.766231 634.376977 
L 434.211906 625.947903 
L 436.657581 633.619498 
L 439.103256 632.582496 
L 441.548932 637.106896 
L 443.994607 637.829248 
L 446.440282 620.070996 
L 451.331633 625.524552 
L 453.777308 574.79287 
L 456.222984 635.215419 
L 458.668659 611.698122 
L 461.114334 638.389305 
L 463.56001 622.085722 
L 466.005685 635.508929 
L 468.45136 606.381013 
L 470.897036 617.403079 
L 473.342711 621.426958 
L 475.788386 598.383904 
L 478.234062 646.131189 
L 480.679737 624.297612 
L 483.125412 645.80087 
L 485.571088 627.493183 
L 488.016763 636.60557 
L 490.462438 588.293394 
L 492.908114 647.716187 
L 495.353789 629.379773 
L 497.799464 650.182622 
L 500.24514 645.207104 
L 502.690815 637.685737 
L 505.13649 617.519922 
L 507.582166 632.023384 
L 510.027841 608.355091 
L 510.027841 608.355091 
" clip-path="url(#pea8600512c)" style="fill: none; stroke: #ff7f0e; stroke-width: 1.5; stroke-linecap: square"/>
   </g>
   <g id="patch_15">
    <path d="M 60.635 678.04 
L 60.635 380.76 
" style="fill: none; stroke: #000000; stroke-width: 0.8; stroke-linejoin: miter; stroke-linecap: square"/>
   </g>
   <g id="patch_16">
    <path d="M 531.4275 678.04 
L 531.4275 380.76 
" style="fill: none; stroke: #000000; stroke-width: 0.8; stroke-linejoin: miter; stroke-linecap: square"/>
   </g>
   <g id="patch_17">
    <path d="M 60.635 678.04 
L 531.4275 678.04 
" style="fill: none; stroke: #000000; stroke-width: 0.8; stroke-linejoin: miter; stroke-linecap: square"/>
   </g>
   <g id="patch_18">
    <path d="M 60.635 380.76 
L 531.4275 380.76 
" style="fill: none; stroke: #000000; stroke-width: 0.8; stroke-linejoin: miter; stroke-linecap: square"/>
   </g>
   <g id="text_57">
    <!-- Training and Validation MAE (Skip first 50) -->
    <g transform="translate(170.129687 374.76) scale(0.12 -0.12)">
     <use xlink:href="#DejaVuSans-54"/>
     <use xlink:href="#DejaVuSans-72" x="46.333984"/>
     <use xlink:href="#DejaVuSans-61" x="87.447266"/>
     <use xlink:href="#DejaVuSans-69" x="148.726562"/>
     <use xlink:href="#DejaVuSans-6e" x="176.509766"/>
     <use xlink:href="#DejaVuSans-69" x="239.888672"/>
     <use xlink:href="#DejaVuSans-6e" x="267.671875"/>
     <use xlink:href="#DejaVuSans-67" x="331.050781"/>
     <use xlink:href="#DejaVuSans-20" x="394.527344"/>
     <use xlink:href="#DejaVuSans-61" x="426.314453"/>
     <use xlink:href="#DejaVuSans-6e" x="487.59375"/>
     <use xlink:href="#DejaVuSans-64" x="550.972656"/>
     <use xlink:href="#DejaVuSans-20" x="614.449219"/>
     <use xlink:href="#DejaVuSans-56" x="646.236328"/>
     <use xlink:href="#DejaVuSans-61" x="706.894531"/>
     <use xlink:href="#DejaVuSans-6c" x="768.173828"/>
     <use xlink:href="#DejaVuSans-69" x="795.957031"/>
     <use xlink:href="#DejaVuSans-64" x="823.740234"/>
     <use xlink:href="#DejaVuSans-61" x="887.216797"/>
     <use xlink:href="#DejaVuSans-74" x="948.496094"/>
     <use xlink:href="#DejaVuSans-69" x="987.705078"/>
     <use xlink:href="#DejaVuSans-6f" x="1015.488281"/>
     <use xlink:href="#DejaVuSans-6e" x="1076.669922"/>
     <use xlink:href="#DejaVuSans-20" x="1140.048828"/>
     <use xlink:href="#DejaVuSans-4d" x="1171.835938"/>
     <use xlink:href="#DejaVuSans-41" x="1258.115234"/>
     <use xlink:href="#DejaVuSans-45" x="1326.523438"/>
     <use xlink:href="#DejaVuSans-20" x="1389.707031"/>
     <use xlink:href="#DejaVuSans-28" x="1421.494141"/>
     <use xlink:href="#DejaVuSans-53" x="1460.507812"/>
     <use xlink:href="#DejaVuSans-6b" x="1523.984375"/>
     <use xlink:href="#DejaVuSans-69" x="1581.894531"/>
     <use xlink:href="#DejaVuSans-70" x="1609.677734"/>
     <use xlink:href="#DejaVuSans-20" x="1673.154297"/>
     <use xlink:href="#DejaVuSans-66" x="1704.941406"/>
     <use xlink:href="#DejaVuSans-69" x="1740.146484"/>
     <use xlink:href="#DejaVuSans-72" x="1767.929688"/>
     <use xlink:href="#DejaVuSans-73" x="1809.042969"/>
     <use xlink:href="#DejaVuSans-74" x="1861.142578"/>
     <use xlink:href="#DejaVuSans-20" x="1900.351562"/>
     <use xlink:href="#DejaVuSans-35" x="1932.138672"/>
     <use xlink:href="#DejaVuSans-30" x="1995.761719"/>
     <use xlink:href="#DejaVuSans-29" x="2059.384766"/>
    </g>
   </g>
   <g id="legend_3">
    <g id="patch_19">
     <path d="M 418.080625 418.11625 
L 524.4275 418.11625 
Q 526.4275 418.11625 526.4275 416.11625 
L 526.4275 387.76 
Q 526.4275 385.76 524.4275 385.76 
L 418.080625 385.76 
Q 416.080625 385.76 416.080625 387.76 
L 416.080625 416.11625 
Q 416.080625 418.11625 418.080625 418.11625 
z
" style="fill: #ffffff; opacity: 0.8; stroke: #cccccc; stroke-linejoin: miter"/>
    </g>
    <g id="line2d_55">
     <path d="M 420.080625 393.858438 
L 430.080625 393.858438 
L 440.080625 393.858438 
" style="fill: none; stroke: #1f77b4; stroke-width: 1.5; stroke-linecap: square"/>
    </g>
    <g id="text_58">
     <!-- Training MAE -->
     <g transform="translate(448.080625 397.358438) scale(0.1 -0.1)">
      <use xlink:href="#DejaVuSans-54"/>
      <use xlink:href="#DejaVuSans-72" x="46.333984"/>
      <use xlink:href="#DejaVuSans-61" x="87.447266"/>
      <use xlink:href="#DejaVuSans-69" x="148.726562"/>
      <use xlink:href="#DejaVuSans-6e" x="176.509766"/>
      <use xlink:href="#DejaVuSans-69" x="239.888672"/>
      <use xlink:href="#DejaVuSans-6e" x="267.671875"/>
      <use xlink:href="#DejaVuSans-67" x="331.050781"/>
      <use xlink:href="#DejaVuSans-20" x="394.527344"/>
      <use xlink:href="#DejaVuSans-4d" x="426.314453"/>
      <use xlink:href="#DejaVuSans-41" x="512.59375"/>
      <use xlink:href="#DejaVuSans-45" x="581.001953"/>
     </g>
    </g>
    <g id="line2d_56">
     <path d="M 420.080625 408.536563 
L 430.080625 408.536563 
L 440.080625 408.536563 
" style="fill: none; stroke: #ff7f0e; stroke-width: 1.5; stroke-linecap: square"/>
    </g>
    <g id="text_59">
     <!-- Validation MAE -->
     <g transform="translate(448.080625 412.036563) scale(0.1 -0.1)">
      <use xlink:href="#DejaVuSans-56"/>
      <use xlink:href="#DejaVuSans-61" x="60.658203"/>
      <use xlink:href="#DejaVuSans-6c" x="121.9375"/>
      <use xlink:href="#DejaVuSans-69" x="149.720703"/>
      <use xlink:href="#DejaVuSans-64" x="177.503906"/>
      <use xlink:href="#DejaVuSans-61" x="240.980469"/>
      <use xlink:href="#DejaVuSans-74" x="302.259766"/>
      <use xlink:href="#DejaVuSans-69" x="341.46875"/>
      <use xlink:href="#DejaVuSans-6f" x="369.251953"/>
      <use xlink:href="#DejaVuSans-6e" x="430.433594"/>
      <use xlink:href="#DejaVuSans-20" x="493.8125"/>
      <use xlink:href="#DejaVuSans-4d" x="525.599609"/>
      <use xlink:href="#DejaVuSans-41" x="611.878906"/>
      <use xlink:href="#DejaVuSans-45" x="680.287109"/>
     </g>
    </g>
   </g>
  </g>
  <g id="axes_4"/>
 </g>
 <defs>
  <clipPath id="pf94a2cf2ff">
   <rect x="60.635" y="26.16" width="470.7925" height="297.28"/>
  </clipPath>
  <clipPath id="p8c4a3c4919">
   <rect x="598.4075" y="26.16" width="470.7925" height="297.28"/>
  </clipPath>
  <clipPath id="pea8600512c">
   <rect x="60.635" y="380.76" width="470.7925" height="297.28"/>
  </clipPath>
 </defs>
</svg>
