<?xml version="1.0" encoding="utf-8" standalone="no"?>
<!DOCTYPE svg PUBLIC "-//W3C//DTD SVG 1.1//EN"
  "http://www.w3.org/Graphics/SVG/1.1/DTD/svg11.dtd">
<svg xmlns:xlink="http://www.w3.org/1999/xlink" width="1080pt" height="720pt" viewBox="0 0 1080 720" xmlns="http://www.w3.org/2000/svg" version="1.1">
 <metadata>
  <rdf:RDF xmlns:dc="http://purl.org/dc/elements/1.1/" xmlns:cc="http://creativecommons.org/ns#" xmlns:rdf="http://www.w3.org/1999/02/22-rdf-syntax-ns#">
   <cc:Work>
    <dc:type rdf:resource="http://purl.org/dc/dcmitype/StillImage"/>
    <dc:date>2024-04-13T12:11:23.399039</dc:date>
    <dc:format>image/svg+xml</dc:format>
    <dc:creator>
     <cc:Agent>
      <dc:title>Matplotlib v3.8.3, https://matplotlib.org/</dc:title>
     </cc:Agent>
    </dc:creator>
   </cc:Work>
  </rdf:RDF>
 </metadata>
 <defs>
  <style type="text/css">*{stroke-linejoin: round; stroke-linecap: butt}</style>
 </defs>
 <g id="figure_1">
  <g id="patch_1">
   <path d="M 0 720 
L 1080 720 
L 1080 0 
L 0 0 
z
" style="fill: #ffffff"/>
  </g>
  <g id="axes_1">
   <g id="patch_2">
    <path d="M 54.245 323.44 
L 534.6 323.44 
L 534.6 26.16 
L 54.245 26.16 
z
" style="fill: #ffffff"/>
   </g>
   <g id="matplotlib.axis_1">
    <g id="xtick_1">
     <g id="line2d_1">
      <defs>
       <path id="m12623c1a7e" d="M 0 0 
L 0 3.5 
" style="stroke: #000000; stroke-width: 0.8"/>
      </defs>
      <g>
       <use xlink:href="#m12623c1a7e" x="74.508504" y="323.44" style="stroke: #000000; stroke-width: 0.8"/>
      </g>
     </g>
     <g id="text_1">
      <!-- 0 -->
      <g transform="translate(71.327254 338.038438) scale(0.1 -0.1)">
       <defs>
        <path id="DejaVuSans-30" d="M 2034 4250 
Q 1547 4250 1301 3770 
Q 1056 3291 1056 2328 
Q 1056 1369 1301 889 
Q 1547 409 2034 409 
Q 2525 409 2770 889 
Q 3016 1369 3016 2328 
Q 3016 3291 2770 3770 
Q 2525 4250 2034 4250 
z
M 2034 4750 
Q 2819 4750 3233 4129 
Q 3647 3509 3647 2328 
Q 3647 1150 3233 529 
Q 2819 -91 2034 -91 
Q 1250 -91 836 529 
Q 422 1150 422 2328 
Q 422 3509 836 4129 
Q 1250 4750 2034 4750 
z
" transform="scale(0.015625)"/>
       </defs>
       <use xlink:href="#DejaVuSans-30"/>
      </g>
     </g>
    </g>
    <g id="xtick_2">
     <g id="line2d_2">
      <g>
       <use xlink:href="#m12623c1a7e" x="153.049217" y="323.44" style="stroke: #000000; stroke-width: 0.8"/>
      </g>
     </g>
     <g id="text_2">
      <!-- 50 -->
      <g transform="translate(146.686717 338.038438) scale(0.1 -0.1)">
       <defs>
        <path id="DejaVuSans-35" d="M 691 4666 
L 3169 4666 
L 3169 4134 
L 1269 4134 
L 1269 2991 
Q 1406 3038 1543 3061 
Q 1681 3084 1819 3084 
Q 2600 3084 3056 2656 
Q 3513 2228 3513 1497 
Q 3513 744 3044 326 
Q 2575 -91 1722 -91 
Q 1428 -91 1123 -41 
Q 819 9 494 109 
L 494 744 
Q 775 591 1075 516 
Q 1375 441 1709 441 
Q 2250 441 2565 725 
Q 2881 1009 2881 1497 
Q 2881 1984 2565 2268 
Q 2250 2553 1709 2553 
Q 1456 2553 1204 2497 
Q 953 2441 691 2322 
L 691 4666 
z
" transform="scale(0.015625)"/>
       </defs>
       <use xlink:href="#DejaVuSans-35"/>
       <use xlink:href="#DejaVuSans-30" x="63.623047"/>
      </g>
     </g>
    </g>
    <g id="xtick_3">
     <g id="line2d_3">
      <g>
       <use xlink:href="#m12623c1a7e" x="231.58993" y="323.44" style="stroke: #000000; stroke-width: 0.8"/>
      </g>
     </g>
     <g id="text_3">
      <!-- 100 -->
      <g transform="translate(222.04618 338.038438) scale(0.1 -0.1)">
       <defs>
        <path id="DejaVuSans-31" d="M 794 531 
L 1825 531 
L 1825 4091 
L 703 3866 
L 703 4441 
L 1819 4666 
L 2450 4666 
L 2450 531 
L 3481 531 
L 3481 0 
L 794 0 
L 794 531 
z
" transform="scale(0.015625)"/>
       </defs>
       <use xlink:href="#DejaVuSans-31"/>
       <use xlink:href="#DejaVuSans-30" x="63.623047"/>
       <use xlink:href="#DejaVuSans-30" x="127.246094"/>
      </g>
     </g>
    </g>
    <g id="xtick_4">
     <g id="line2d_4">
      <g>
       <use xlink:href="#m12623c1a7e" x="310.130643" y="323.44" style="stroke: #000000; stroke-width: 0.8"/>
      </g>
     </g>
     <g id="text_4">
      <!-- 150 -->
      <g transform="translate(300.586893 338.038438) scale(0.1 -0.1)">
       <use xlink:href="#DejaVuSans-31"/>
       <use xlink:href="#DejaVuSans-35" x="63.623047"/>
       <use xlink:href="#DejaVuSans-30" x="127.246094"/>
      </g>
     </g>
    </g>
    <g id="xtick_5">
     <g id="line2d_5">
      <g>
       <use xlink:href="#m12623c1a7e" x="388.671355" y="323.44" style="stroke: #000000; stroke-width: 0.8"/>
      </g>
     </g>
     <g id="text_5">
      <!-- 200 -->
      <g transform="translate(379.127605 338.038438) scale(0.1 -0.1)">
       <defs>
        <path id="DejaVuSans-32" d="M 1228 531 
L 3431 531 
L 3431 0 
L 469 0 
L 469 531 
Q 828 903 1448 1529 
Q 2069 2156 2228 2338 
Q 2531 2678 2651 2914 
Q 2772 3150 2772 3378 
Q 2772 3750 2511 3984 
Q 2250 4219 1831 4219 
Q 1534 4219 1204 4116 
Q 875 4013 500 3803 
L 500 4441 
Q 881 4594 1212 4672 
Q 1544 4750 1819 4750 
Q 2544 4750 2975 4387 
Q 3406 4025 3406 3419 
Q 3406 3131 3298 2873 
Q 3191 2616 2906 2266 
Q 2828 2175 2409 1742 
Q 1991 1309 1228 531 
z
" transform="scale(0.015625)"/>
       </defs>
       <use xlink:href="#DejaVuSans-32"/>
       <use xlink:href="#DejaVuSans-30" x="63.623047"/>
       <use xlink:href="#DejaVuSans-30" x="127.246094"/>
      </g>
     </g>
    </g>
    <g id="xtick_6">
     <g id="line2d_6">
      <g>
       <use xlink:href="#m12623c1a7e" x="467.212068" y="323.44" style="stroke: #000000; stroke-width: 0.8"/>
      </g>
     </g>
     <g id="text_6">
      <!-- 250 -->
      <g transform="translate(457.668318 338.038438) scale(0.1 -0.1)">
       <use xlink:href="#DejaVuSans-32"/>
       <use xlink:href="#DejaVuSans-35" x="63.623047"/>
       <use xlink:href="#DejaVuSans-30" x="127.246094"/>
      </g>
     </g>
    </g>
    <g id="text_7">
     <!-- Epochs -->
     <g transform="translate(276.506875 351.716563) scale(0.1 -0.1)">
      <defs>
       <path id="DejaVuSans-45" d="M 628 4666 
L 3578 4666 
L 3578 4134 
L 1259 4134 
L 1259 2753 
L 3481 2753 
L 3481 2222 
L 1259 2222 
L 1259 531 
L 3634 531 
L 3634 0 
L 628 0 
L 628 4666 
z
" transform="scale(0.015625)"/>
       <path id="DejaVuSans-70" d="M 1159 525 
L 1159 -1331 
L 581 -1331 
L 581 3500 
L 1159 3500 
L 1159 2969 
Q 1341 3281 1617 3432 
Q 1894 3584 2278 3584 
Q 2916 3584 3314 3078 
Q 3713 2572 3713 1747 
Q 3713 922 3314 415 
Q 2916 -91 2278 -91 
Q 1894 -91 1617 61 
Q 1341 213 1159 525 
z
M 3116 1747 
Q 3116 2381 2855 2742 
Q 2594 3103 2138 3103 
Q 1681 3103 1420 2742 
Q 1159 2381 1159 1747 
Q 1159 1113 1420 752 
Q 1681 391 2138 391 
Q 2594 391 2855 752 
Q 3116 1113 3116 1747 
z
" transform="scale(0.015625)"/>
       <path id="DejaVuSans-6f" d="M 1959 3097 
Q 1497 3097 1228 2736 
Q 959 2375 959 1747 
Q 959 1119 1226 758 
Q 1494 397 1959 397 
Q 2419 397 2687 759 
Q 2956 1122 2956 1747 
Q 2956 2369 2687 2733 
Q 2419 3097 1959 3097 
z
M 1959 3584 
Q 2709 3584 3137 3096 
Q 3566 2609 3566 1747 
Q 3566 888 3137 398 
Q 2709 -91 1959 -91 
Q 1206 -91 779 398 
Q 353 888 353 1747 
Q 353 2609 779 3096 
Q 1206 3584 1959 3584 
z
" transform="scale(0.015625)"/>
       <path id="DejaVuSans-63" d="M 3122 3366 
L 3122 2828 
Q 2878 2963 2633 3030 
Q 2388 3097 2138 3097 
Q 1578 3097 1268 2742 
Q 959 2388 959 1747 
Q 959 1106 1268 751 
Q 1578 397 2138 397 
Q 2388 397 2633 464 
Q 2878 531 3122 666 
L 3122 134 
Q 2881 22 2623 -34 
Q 2366 -91 2075 -91 
Q 1284 -91 818 406 
Q 353 903 353 1747 
Q 353 2603 823 3093 
Q 1294 3584 2113 3584 
Q 2378 3584 2631 3529 
Q 2884 3475 3122 3366 
z
" transform="scale(0.015625)"/>
       <path id="DejaVuSans-68" d="M 3513 2113 
L 3513 0 
L 2938 0 
L 2938 2094 
Q 2938 2591 2744 2837 
Q 2550 3084 2163 3084 
Q 1697 3084 1428 2787 
Q 1159 2491 1159 1978 
L 1159 0 
L 581 0 
L 581 4863 
L 1159 4863 
L 1159 2956 
Q 1366 3272 1645 3428 
Q 1925 3584 2291 3584 
Q 2894 3584 3203 3211 
Q 3513 2838 3513 2113 
z
" transform="scale(0.015625)"/>
       <path id="DejaVuSans-73" d="M 2834 3397 
L 2834 2853 
Q 2591 2978 2328 3040 
Q 2066 3103 1784 3103 
Q 1356 3103 1142 2972 
Q 928 2841 928 2578 
Q 928 2378 1081 2264 
Q 1234 2150 1697 2047 
L 1894 2003 
Q 2506 1872 2764 1633 
Q 3022 1394 3022 966 
Q 3022 478 2636 193 
Q 2250 -91 1575 -91 
Q 1294 -91 989 -36 
Q 684 19 347 128 
L 347 722 
Q 666 556 975 473 
Q 1284 391 1588 391 
Q 1994 391 2212 530 
Q 2431 669 2431 922 
Q 2431 1156 2273 1281 
Q 2116 1406 1581 1522 
L 1381 1569 
Q 847 1681 609 1914 
Q 372 2147 372 2553 
Q 372 3047 722 3315 
Q 1072 3584 1716 3584 
Q 2034 3584 2315 3537 
Q 2597 3491 2834 3397 
z
" transform="scale(0.015625)"/>
      </defs>
      <use xlink:href="#DejaVuSans-45"/>
      <use xlink:href="#DejaVuSans-70" x="63.183594"/>
      <use xlink:href="#DejaVuSans-6f" x="126.660156"/>
      <use xlink:href="#DejaVuSans-63" x="187.841797"/>
      <use xlink:href="#DejaVuSans-68" x="242.822266"/>
      <use xlink:href="#DejaVuSans-73" x="306.201172"/>
     </g>
    </g>
   </g>
   <g id="matplotlib.axis_2">
    <g id="ytick_1">
     <g id="line2d_7">
      <defs>
       <path id="ma46100e6be" d="M 0 0 
L -3.5 0 
" style="stroke: #000000; stroke-width: 0.8"/>
      </defs>
      <g>
       <use xlink:href="#ma46100e6be" x="54.245" y="312.128798" style="stroke: #000000; stroke-width: 0.8"/>
      </g>
     </g>
     <g id="text_8">
      <!-- 0.00 -->
      <g transform="translate(24.979375 315.928016) scale(0.1 -0.1)">
       <defs>
        <path id="DejaVuSans-2e" d="M 684 794 
L 1344 794 
L 1344 0 
L 684 0 
L 684 794 
z
" transform="scale(0.015625)"/>
       </defs>
       <use xlink:href="#DejaVuSans-30"/>
       <use xlink:href="#DejaVuSans-2e" x="63.623047"/>
       <use xlink:href="#DejaVuSans-30" x="95.410156"/>
       <use xlink:href="#DejaVuSans-30" x="159.033203"/>
      </g>
     </g>
    </g>
    <g id="ytick_2">
     <g id="line2d_8">
      <g>
       <use xlink:href="#ma46100e6be" x="54.245" y="267.707394" style="stroke: #000000; stroke-width: 0.8"/>
      </g>
     </g>
     <g id="text_9">
      <!-- 0.05 -->
      <g transform="translate(24.979375 271.506613) scale(0.1 -0.1)">
       <use xlink:href="#DejaVuSans-30"/>
       <use xlink:href="#DejaVuSans-2e" x="63.623047"/>
       <use xlink:href="#DejaVuSans-30" x="95.410156"/>
       <use xlink:href="#DejaVuSans-35" x="159.033203"/>
      </g>
     </g>
    </g>
    <g id="ytick_3">
     <g id="line2d_9">
      <g>
       <use xlink:href="#ma46100e6be" x="54.245" y="223.285991" style="stroke: #000000; stroke-width: 0.8"/>
      </g>
     </g>
     <g id="text_10">
      <!-- 0.10 -->
      <g transform="translate(24.979375 227.08521) scale(0.1 -0.1)">
       <use xlink:href="#DejaVuSans-30"/>
       <use xlink:href="#DejaVuSans-2e" x="63.623047"/>
       <use xlink:href="#DejaVuSans-31" x="95.410156"/>
       <use xlink:href="#DejaVuSans-30" x="159.033203"/>
      </g>
     </g>
    </g>
    <g id="ytick_4">
     <g id="line2d_10">
      <g>
       <use xlink:href="#ma46100e6be" x="54.245" y="178.864588" style="stroke: #000000; stroke-width: 0.8"/>
      </g>
     </g>
     <g id="text_11">
      <!-- 0.15 -->
      <g transform="translate(24.979375 182.663807) scale(0.1 -0.1)">
       <use xlink:href="#DejaVuSans-30"/>
       <use xlink:href="#DejaVuSans-2e" x="63.623047"/>
       <use xlink:href="#DejaVuSans-31" x="95.410156"/>
       <use xlink:href="#DejaVuSans-35" x="159.033203"/>
      </g>
     </g>
    </g>
    <g id="ytick_5">
     <g id="line2d_11">
      <g>
       <use xlink:href="#ma46100e6be" x="54.245" y="134.443185" style="stroke: #000000; stroke-width: 0.8"/>
      </g>
     </g>
     <g id="text_12">
      <!-- 0.20 -->
      <g transform="translate(24.979375 138.242404) scale(0.1 -0.1)">
       <use xlink:href="#DejaVuSans-30"/>
       <use xlink:href="#DejaVuSans-2e" x="63.623047"/>
       <use xlink:href="#DejaVuSans-32" x="95.410156"/>
       <use xlink:href="#DejaVuSans-30" x="159.033203"/>
      </g>
     </g>
    </g>
    <g id="ytick_6">
     <g id="line2d_12">
      <g>
       <use xlink:href="#ma46100e6be" x="54.245" y="90.021782" style="stroke: #000000; stroke-width: 0.8"/>
      </g>
     </g>
     <g id="text_13">
      <!-- 0.25 -->
      <g transform="translate(24.979375 93.821) scale(0.1 -0.1)">
       <use xlink:href="#DejaVuSans-30"/>
       <use xlink:href="#DejaVuSans-2e" x="63.623047"/>
       <use xlink:href="#DejaVuSans-32" x="95.410156"/>
       <use xlink:href="#DejaVuSans-35" x="159.033203"/>
      </g>
     </g>
    </g>
    <g id="ytick_7">
     <g id="line2d_13">
      <g>
       <use xlink:href="#ma46100e6be" x="54.245" y="45.600378" style="stroke: #000000; stroke-width: 0.8"/>
      </g>
     </g>
     <g id="text_14">
      <!-- 0.30 -->
      <g transform="translate(24.979375 49.399597) scale(0.1 -0.1)">
       <defs>
        <path id="DejaVuSans-33" d="M 2597 2516 
Q 3050 2419 3304 2112 
Q 3559 1806 3559 1356 
Q 3559 666 3084 287 
Q 2609 -91 1734 -91 
Q 1441 -91 1130 -33 
Q 819 25 488 141 
L 488 750 
Q 750 597 1062 519 
Q 1375 441 1716 441 
Q 2309 441 2620 675 
Q 2931 909 2931 1356 
Q 2931 1769 2642 2001 
Q 2353 2234 1838 2234 
L 1294 2234 
L 1294 2753 
L 1863 2753 
Q 2328 2753 2575 2939 
Q 2822 3125 2822 3475 
Q 2822 3834 2567 4026 
Q 2313 4219 1838 4219 
Q 1578 4219 1281 4162 
Q 984 4106 628 3988 
L 628 4550 
Q 988 4650 1302 4700 
Q 1616 4750 1894 4750 
Q 2613 4750 3031 4423 
Q 3450 4097 3450 3541 
Q 3450 3153 3228 2886 
Q 3006 2619 2597 2516 
z
" transform="scale(0.015625)"/>
       </defs>
       <use xlink:href="#DejaVuSans-30"/>
       <use xlink:href="#DejaVuSans-2e" x="63.623047"/>
       <use xlink:href="#DejaVuSans-33" x="95.410156"/>
       <use xlink:href="#DejaVuSans-30" x="159.033203"/>
      </g>
     </g>
    </g>
    <g id="text_15">
     <!-- Loss -->
     <g transform="translate(18.899687 185.767188) rotate(-90) scale(0.1 -0.1)">
      <defs>
       <path id="DejaVuSans-4c" d="M 628 4666 
L 1259 4666 
L 1259 531 
L 3531 531 
L 3531 0 
L 628 0 
L 628 4666 
z
" transform="scale(0.015625)"/>
      </defs>
      <use xlink:href="#DejaVuSans-4c"/>
      <use xlink:href="#DejaVuSans-6f" x="53.962891"/>
      <use xlink:href="#DejaVuSans-73" x="115.144531"/>
      <use xlink:href="#DejaVuSans-73" x="167.244141"/>
     </g>
    </g>
   </g>
   <g id="line2d_14">
    <path d="M 76.079318 64.939329 
L 77.650132 191.952895 
L 79.220947 216.288822 
L 80.791761 224.204246 
L 82.362575 233.035253 
L 83.933389 235.633363 
L 85.504204 239.199487 
L 87.075018 243.137802 
L 88.645832 246.266284 
L 90.216647 249.114001 
L 91.787461 249.364899 
L 93.358275 252.570794 
L 94.929089 254.669048 
L 96.499904 254.652082 
L 98.070718 258.187741 
L 99.641532 258.593644 
L 101.212346 261.648317 
L 102.783161 262.395451 
L 104.353975 262.55679 
L 105.924789 263.457549 
L 107.495603 264.656391 
L 109.066418 266.030009 
L 110.637232 267.833551 
L 112.208046 267.804108 
L 113.77886 268.957003 
L 115.349675 269.798912 
L 116.920489 271.142687 
L 118.491303 272.674252 
L 120.062117 272.331892 
L 121.632932 273.098993 
L 123.203746 274.265411 
L 124.77456 275.922967 
L 126.345374 275.621958 
L 127.916189 276.619695 
L 129.487003 277.760539 
L 131.057817 278.220687 
L 132.628631 279.040898 
L 134.199446 279.162611 
L 135.77026 279.699946 
L 137.341074 279.766066 
L 138.911888 281.230359 
L 140.482703 280.694192 
L 142.053517 282.553816 
L 143.624331 283.129252 
L 146.76596 283.380349 
L 148.336774 283.703646 
L 149.907588 284.632778 
L 151.478403 283.970996 
L 154.620031 286.737998 
L 156.190845 286.266624 
L 157.76166 286.899219 
L 159.332474 287.094059 
L 160.903288 287.638581 
L 162.474102 288.305722 
L 164.044917 288.792308 
L 165.615731 289.062436 
L 167.186545 289.071776 
L 168.757359 289.284646 
L 170.328174 289.748817 
L 173.469802 290.050604 
L 175.040616 291.368978 
L 176.611431 290.906696 
L 178.182245 290.074263 
L 179.753059 291.742191 
L 181.323873 292.148148 
L 182.894688 292.099011 
L 184.465502 292.436973 
L 187.60713 292.291203 
L 189.177945 293.519373 
L 190.748759 294.254674 
L 192.319573 292.843344 
L 193.890388 293.806386 
L 195.461202 293.639436 
L 197.032016 294.046745 
L 198.60283 295.312473 
L 200.173645 294.368903 
L 201.744459 295.414121 
L 203.315273 294.932027 
L 204.886087 294.921777 
L 206.456902 295.978088 
L 208.027716 294.677316 
L 209.59853 296.215262 
L 211.169344 295.433281 
L 212.740159 297.191102 
L 214.310973 296.864884 
L 215.881787 296.308942 
L 217.452601 296.686093 
L 219.023416 297.35181 
L 220.59423 296.504797 
L 222.165044 297.608548 
L 223.735858 296.507054 
L 225.306673 298.097745 
L 226.877487 297.048869 
L 228.448301 297.915161 
L 230.019115 298.385736 
L 231.58993 297.84006 
L 233.160744 299.016617 
L 234.731558 297.700432 
L 236.302372 298.56646 
L 237.873187 298.882707 
L 239.444001 298.620368 
L 241.014815 298.548333 
L 242.585629 298.715459 
L 244.156444 299.229239 
L 245.727258 298.556961 
L 247.298072 299.930064 
L 248.868887 300.38307 
L 250.439701 299.847377 
L 252.010515 299.636865 
L 253.581329 300.352782 
L 255.152144 299.839969 
L 256.722958 300.418494 
L 258.293772 300.245724 
L 259.864586 300.828467 
L 261.435401 300.631102 
L 263.006215 301.490577 
L 264.577029 300.283451 
L 266.147843 300.654707 
L 267.718658 300.183072 
L 269.289472 300.87849 
L 270.860286 301.7607 
L 272.4311 300.791792 
L 274.001915 301.687643 
L 275.572729 301.063455 
L 277.143543 301.371411 
L 278.714357 302.366222 
L 280.285172 301.269648 
L 281.855986 302.397951 
L 283.4268 301.227645 
L 286.568429 302.773603 
L 288.139243 302.768514 
L 289.710057 302.036051 
L 291.280871 302.466792 
L 292.851686 301.934917 
L 294.4225 302.678836 
L 295.993314 302.617526 
L 297.564129 302.970029 
L 300.705757 302.082403 
L 302.276571 303.092829 
L 303.847386 302.305307 
L 305.4182 303.371256 
L 306.989014 303.169549 
L 308.559828 303.166765 
L 310.130643 303.466339 
L 311.701457 303.634701 
L 313.272271 303.376308 
L 316.4139 303.082811 
L 317.984714 303.762182 
L 319.555528 303.855096 
L 321.126342 303.661255 
L 322.697157 303.954183 
L 324.267971 304.03575 
L 325.838785 303.892627 
L 327.409599 303.987853 
L 328.980414 304.513082 
L 330.551228 304.083087 
L 332.122042 304.432481 
L 333.692856 304.44112 
L 335.263671 304.783451 
L 336.834485 304.189415 
L 338.405299 304.986827 
L 339.976113 304.572119 
L 341.546928 304.824331 
L 343.117742 304.730014 
L 344.688556 304.50657 
L 346.259371 304.763472 
L 347.830185 304.536769 
L 349.400999 305.207484 
L 350.971813 305.402031 
L 352.542628 304.637873 
L 354.113442 305.184656 
L 355.684256 305.139631 
L 357.25507 304.225454 
L 358.825885 305.849733 
L 360.396699 305.134103 
L 361.967513 305.040989 
L 363.538327 304.832048 
L 365.109142 304.848628 
L 366.679956 305.348744 
L 368.25077 305.686284 
L 369.821584 305.078131 
L 371.392399 306.031437 
L 372.963213 305.799866 
L 374.534027 305.771328 
L 376.104841 305.501435 
L 377.675656 305.788308 
L 379.24647 305.735548 
L 380.817284 306.00671 
L 382.388098 305.981166 
L 383.958913 305.771822 
L 385.529727 305.991986 
L 388.671355 306.122223 
L 390.24217 305.776748 
L 391.812984 306.358436 
L 393.383798 306.325098 
L 396.525427 305.857077 
L 398.096241 305.893856 
L 399.667055 305.49834 
L 401.23787 306.363351 
L 402.808684 306.040329 
L 405.950312 306.672992 
L 409.091941 306.53935 
L 410.662755 306.10964 
L 412.233569 306.614086 
L 415.375198 306.454783 
L 416.946012 306.828927 
L 418.516826 306.722525 
L 420.087641 306.83229 
L 421.658455 306.551191 
L 423.229269 306.938365 
L 424.800083 305.916199 
L 426.370898 306.653452 
L 427.941712 306.87939 
L 429.512526 306.789552 
L 431.08334 306.872542 
L 432.654155 306.81544 
L 434.224969 307.357012 
L 435.795783 306.907171 
L 440.508226 306.654064 
L 442.07904 307.284924 
L 443.649854 306.751853 
L 445.220669 307.426875 
L 449.933112 307.019743 
L 451.503926 307.211322 
L 453.07474 307.121634 
L 454.645554 307.357373 
L 456.216369 307.220397 
L 457.787183 307.371308 
L 459.357997 307.343638 
L 462.499626 307.427816 
L 465.641254 307.546546 
L 467.212068 307.184547 
L 468.782883 307.083836 
L 470.353697 307.148563 
L 471.924511 307.812849 
L 473.495325 307.178941 
L 475.06614 307.427378 
L 476.636954 307.369182 
L 478.207768 307.492576 
L 479.778582 307.415433 
L 481.349397 307.599549 
L 487.632654 307.723312 
L 489.203468 307.551113 
L 490.774282 306.981286 
L 492.345096 307.829973 
L 493.915911 307.879624 
L 495.486725 307.807634 
L 497.057539 307.16535 
L 498.628353 307.754719 
L 500.199168 307.994393 
L 501.769982 307.747147 
L 503.340796 307.898714 
L 504.911611 307.288327 
L 506.482425 308.047223 
L 508.053239 307.645142 
L 509.624053 307.985227 
L 512.765682 307.580169 
L 512.765682 307.580169 
" clip-path="url(#pd4238d0452)" style="fill: none; stroke: #1f77b4; stroke-width: 1.5; stroke-linecap: square"/>
   </g>
   <g id="line2d_15">
    <path d="M 76.079318 39.672727 
L 77.650132 192.154505 
L 79.220947 215.579424 
L 80.791761 228.5405 
L 82.362575 208.50861 
L 83.933389 248.923868 
L 85.504204 235.46518 
L 87.075018 215.813827 
L 88.645832 235.294832 
L 90.216647 244.05073 
L 91.787461 242.991144 
L 93.358275 244.028336 
L 94.929089 246.377402 
L 96.499904 258.106254 
L 98.070718 248.821653 
L 99.641532 258.081713 
L 101.212346 248.748695 
L 102.783161 259.368122 
L 104.353975 263.414947 
L 105.924789 258.844916 
L 107.495603 244.48906 
L 109.066418 262.984123 
L 110.637232 262.302625 
L 112.208046 267.810705 
L 113.77886 264.365889 
L 115.349675 268.395758 
L 116.920489 279.058178 
L 118.491303 253.304445 
L 120.062117 277.961154 
L 121.632932 271.271529 
L 123.203746 280.785356 
L 124.77456 269.908399 
L 126.345374 271.050758 
L 127.916189 265.572403 
L 129.487003 280.841488 
L 131.057817 276.728239 
L 132.628631 267.765928 
L 134.199446 279.330877 
L 135.77026 283.282969 
L 137.341074 277.535662 
L 138.911888 279.305687 
L 140.482703 284.757714 
L 142.053517 280.072792 
L 143.624331 287.657328 
L 145.195146 280.964925 
L 146.76596 288.883005 
L 148.336774 284.671242 
L 149.907588 281.980753 
L 151.478403 291.234925 
L 153.049217 281.229767 
L 154.620031 273.813226 
L 156.190845 289.228746 
L 157.76166 283.657787 
L 159.332474 285.397471 
L 160.903288 282.649869 
L 162.474102 284.378403 
L 164.044917 284.258343 
L 165.615731 284.395128 
L 167.186545 290.418095 
L 168.757359 287.829455 
L 170.328174 263.332675 
L 171.898988 291.110352 
L 173.469802 279.058932 
L 175.040616 290.786527 
L 176.611431 284.388707 
L 178.182245 287.9024 
L 179.753059 289.269195 
L 181.323873 291.270231 
L 182.894688 294.361701 
L 184.465502 286.441503 
L 186.036316 291.954492 
L 187.60713 283.668841 
L 189.177945 291.779261 
L 190.748759 288.12903 
L 192.319573 293.315643 
L 193.890388 294.940808 
L 195.461202 298.163254 
L 197.032016 298.024901 
L 198.60283 289.606917 
L 200.173645 299.43916 
L 201.744459 292.538303 
L 203.315273 294.908567 
L 204.886087 296.769227 
L 206.456902 288.919938 
L 208.027716 293.79146 
L 209.59853 294.82359 
L 211.169344 300.448971 
L 212.740159 287.026345 
L 214.310973 291.991404 
L 215.881787 294.513219 
L 217.452601 293.893616 
L 219.023416 294.850605 
L 220.59423 298.481066 
L 222.165044 286.771513 
L 223.735858 295.588267 
L 225.306673 299.68986 
L 226.877487 295.87894 
L 228.448301 299.623263 
L 230.019115 284.235216 
L 231.58993 297.008737 
L 233.160744 299.000621 
L 234.731558 297.67556 
L 236.302372 300.228872 
L 237.873187 299.345988 
L 241.014815 304.058614 
L 242.585629 300.491569 
L 244.156444 293.306319 
L 245.727258 298.688937 
L 247.298072 301.497204 
L 248.868887 294.135371 
L 250.439701 296.157444 
L 252.010515 304.123833 
L 253.581329 289.497528 
L 255.152144 298.714034 
L 256.722958 295.244103 
L 258.293772 298.637893 
L 259.864586 304.530785 
L 261.435401 301.42187 
L 263.006215 300.23507 
L 266.147843 300.961299 
L 267.718658 303.013149 
L 269.289472 297.329371 
L 270.860286 300.266391 
L 272.4311 302.082779 
L 274.001915 295.424671 
L 275.572729 298.522965 
L 277.143543 302.41908 
L 278.714357 305.857582 
L 280.285172 304.122103 
L 281.855986 305.395508 
L 283.4268 301.688834 
L 284.997614 302.680361 
L 286.568429 300.501147 
L 288.139243 302.989023 
L 289.710057 298.399122 
L 291.280871 289.223165 
L 292.851686 303.925923 
L 294.4225 305.969722 
L 295.993314 303.36986 
L 297.564129 298.41593 
L 299.134943 304.630889 
L 300.705757 304.13883 
L 302.276571 303.046647 
L 303.847386 293.901188 
L 305.4182 306.251439 
L 306.989014 306.171312 
L 308.559828 301.025014 
L 310.130643 305.254724 
L 311.701457 298.460885 
L 313.272271 303.45784 
L 314.843085 300.156249 
L 316.4139 304.243772 
L 317.984714 305.346363 
L 319.555528 304.900921 
L 321.126342 304.01433 
L 322.697157 301.668474 
L 324.267971 306.278627 
L 325.838785 304.596398 
L 327.409599 305.476841 
L 328.980414 305.133744 
L 330.551228 297.610084 
L 332.122042 292.306576 
L 333.692856 304.82997 
L 335.263671 306.994597 
L 336.834485 305.589178 
L 338.405299 303.699174 
L 339.976113 307.116708 
L 341.546928 303.935293 
L 343.117742 304.648985 
L 344.688556 301.305403 
L 346.259371 302.45307 
L 347.830185 306.084802 
L 350.971813 305.024213 
L 352.542628 307.067994 
L 354.113442 305.285894 
L 355.684256 307.878911 
L 357.25507 296.046271 
L 358.825885 305.739044 
L 360.396699 307.359083 
L 361.967513 306.400577 
L 363.538327 302.158514 
L 365.109142 306.077578 
L 366.679956 307.763249 
L 368.25077 304.139253 
L 369.821584 308.646749 
L 371.392399 307.973291 
L 372.963213 305.829584 
L 374.534027 308.070597 
L 376.104841 303.832913 
L 377.675656 305.589338 
L 379.24647 305.570076 
L 380.817284 304.251488 
L 382.388098 304.911814 
L 383.958913 305.255942 
L 385.529727 302.786609 
L 387.100541 305.790505 
L 388.671355 302.262715 
L 390.24217 304.030642 
L 391.812984 303.85236 
L 393.383798 306.738087 
L 394.954612 307.739954 
L 396.525427 307.876452 
L 398.096241 307.455917 
L 399.667055 308.656845 
L 401.23787 308.023659 
L 402.808684 308.458689 
L 404.379498 300.901566 
L 405.950312 308.282134 
L 407.521127 303.52958 
L 409.091941 304.782122 
L 410.662755 304.531294 
L 412.233569 307.911664 
L 413.804384 307.727962 
L 415.375198 303.322613 
L 418.516826 308.604381 
L 420.087641 305.700964 
L 421.658455 307.650913 
L 423.229269 308.62485 
L 424.800083 305.788832 
L 426.370898 307.821678 
L 427.941712 306.349267 
L 429.512526 309.160098 
L 431.08334 306.866066 
L 432.654155 308.048241 
L 434.224969 309.927273 
L 435.795783 306.887079 
L 437.366597 301.867114 
L 438.937412 309.032262 
L 440.508226 306.156684 
L 442.07904 307.633175 
L 443.649854 308.74231 
L 445.220669 308.983262 
L 446.791483 308.14236 
L 448.362297 305.418783 
L 449.933112 307.87338 
L 451.503926 305.84728 
L 453.07474 305.531105 
L 454.645554 307.90204 
L 456.216369 304.380949 
L 457.787183 307.073047 
L 459.357997 304.295536 
L 460.928811 306.143898 
L 462.499626 306.527764 
L 464.07044 306.294779 
L 465.641254 306.609951 
L 467.212068 307.616105 
L 468.782883 309.159387 
L 470.353697 304.734737 
L 471.924511 306.492704 
L 473.495325 307.520938 
L 475.06614 309.103022 
L 476.636954 309.134962 
L 478.207768 309.030356 
L 479.778582 308.270184 
L 481.349397 308.940883 
L 482.920211 306.984398 
L 484.491025 309.432859 
L 486.061839 307.650885 
L 487.632654 307.958295 
L 489.203468 307.853193 
L 490.774282 308.818024 
L 492.345096 300.151084 
L 493.915911 304.634602 
L 495.486725 307.627179 
L 497.057539 309.467051 
L 498.628353 307.148935 
L 500.199168 306.436783 
L 501.769982 308.121679 
L 503.340796 308.072818 
L 504.911611 308.919863 
L 506.482425 306.389242 
L 508.053239 309.838103 
L 509.624053 309.081598 
L 511.194868 308.734165 
L 512.765682 307.87182 
L 512.765682 307.87182 
" clip-path="url(#pd4238d0452)" style="fill: none; stroke: #ff7f0e; stroke-width: 1.5; stroke-linecap: square"/>
   </g>
   <g id="patch_3">
    <path d="M 54.245 323.44 
L 54.245 26.16 
" style="fill: none; stroke: #000000; stroke-width: 0.8; stroke-linejoin: miter; stroke-linecap: square"/>
   </g>
   <g id="patch_4">
    <path d="M 534.6 323.44 
L 534.6 26.16 
" style="fill: none; stroke: #000000; stroke-width: 0.8; stroke-linejoin: miter; stroke-linecap: square"/>
   </g>
   <g id="patch_5">
    <path d="M 54.245 323.44 
L 534.6 323.44 
" style="fill: none; stroke: #000000; stroke-width: 0.8; stroke-linejoin: miter; stroke-linecap: square"/>
   </g>
   <g id="patch_6">
    <path d="M 54.245 26.16 
L 534.6 26.16 
" style="fill: none; stroke: #000000; stroke-width: 0.8; stroke-linejoin: miter; stroke-linecap: square"/>
   </g>
   <g id="text_16">
    <!-- Training and Validation Loss -->
    <g transform="translate(210.953125 20.16) scale(0.12 -0.12)">
     <defs>
      <path id="DejaVuSans-54" d="M -19 4666 
L 3928 4666 
L 3928 4134 
L 2272 4134 
L 2272 0 
L 1638 0 
L 1638 4134 
L -19 4134 
L -19 4666 
z
" transform="scale(0.015625)"/>
      <path id="DejaVuSans-72" d="M 2631 2963 
Q 2534 3019 2420 3045 
Q 2306 3072 2169 3072 
Q 1681 3072 1420 2755 
Q 1159 2438 1159 1844 
L 1159 0 
L 581 0 
L 581 3500 
L 1159 3500 
L 1159 2956 
Q 1341 3275 1631 3429 
Q 1922 3584 2338 3584 
Q 2397 3584 2469 3576 
Q 2541 3569 2628 3553 
L 2631 2963 
z
" transform="scale(0.015625)"/>
      <path id="DejaVuSans-61" d="M 2194 1759 
Q 1497 1759 1228 1600 
Q 959 1441 959 1056 
Q 959 750 1161 570 
Q 1363 391 1709 391 
Q 2188 391 2477 730 
Q 2766 1069 2766 1631 
L 2766 1759 
L 2194 1759 
z
M 3341 1997 
L 3341 0 
L 2766 0 
L 2766 531 
Q 2569 213 2275 61 
Q 1981 -91 1556 -91 
Q 1019 -91 701 211 
Q 384 513 384 1019 
Q 384 1609 779 1909 
Q 1175 2209 1959 2209 
L 2766 2209 
L 2766 2266 
Q 2766 2663 2505 2880 
Q 2244 3097 1772 3097 
Q 1472 3097 1187 3025 
Q 903 2953 641 2809 
L 641 3341 
Q 956 3463 1253 3523 
Q 1550 3584 1831 3584 
Q 2591 3584 2966 3190 
Q 3341 2797 3341 1997 
z
" transform="scale(0.015625)"/>
      <path id="DejaVuSans-69" d="M 603 3500 
L 1178 3500 
L 1178 0 
L 603 0 
L 603 3500 
z
M 603 4863 
L 1178 4863 
L 1178 4134 
L 603 4134 
L 603 4863 
z
" transform="scale(0.015625)"/>
      <path id="DejaVuSans-6e" d="M 3513 2113 
L 3513 0 
L 2938 0 
L 2938 2094 
Q 2938 2591 2744 2837 
Q 2550 3084 2163 3084 
Q 1697 3084 1428 2787 
Q 1159 2491 1159 1978 
L 1159 0 
L 581 0 
L 581 3500 
L 1159 3500 
L 1159 2956 
Q 1366 3272 1645 3428 
Q 1925 3584 2291 3584 
Q 2894 3584 3203 3211 
Q 3513 2838 3513 2113 
z
" transform="scale(0.015625)"/>
      <path id="DejaVuSans-67" d="M 2906 1791 
Q 2906 2416 2648 2759 
Q 2391 3103 1925 3103 
Q 1463 3103 1205 2759 
Q 947 2416 947 1791 
Q 947 1169 1205 825 
Q 1463 481 1925 481 
Q 2391 481 2648 825 
Q 2906 1169 2906 1791 
z
M 3481 434 
Q 3481 -459 3084 -895 
Q 2688 -1331 1869 -1331 
Q 1566 -1331 1297 -1286 
Q 1028 -1241 775 -1147 
L 775 -588 
Q 1028 -725 1275 -790 
Q 1522 -856 1778 -856 
Q 2344 -856 2625 -561 
Q 2906 -266 2906 331 
L 2906 616 
Q 2728 306 2450 153 
Q 2172 0 1784 0 
Q 1141 0 747 490 
Q 353 981 353 1791 
Q 353 2603 747 3093 
Q 1141 3584 1784 3584 
Q 2172 3584 2450 3431 
Q 2728 3278 2906 2969 
L 2906 3500 
L 3481 3500 
L 3481 434 
z
" transform="scale(0.015625)"/>
      <path id="DejaVuSans-20" transform="scale(0.015625)"/>
      <path id="DejaVuSans-64" d="M 2906 2969 
L 2906 4863 
L 3481 4863 
L 3481 0 
L 2906 0 
L 2906 525 
Q 2725 213 2448 61 
Q 2172 -91 1784 -91 
Q 1150 -91 751 415 
Q 353 922 353 1747 
Q 353 2572 751 3078 
Q 1150 3584 1784 3584 
Q 2172 3584 2448 3432 
Q 2725 3281 2906 2969 
z
M 947 1747 
Q 947 1113 1208 752 
Q 1469 391 1925 391 
Q 2381 391 2643 752 
Q 2906 1113 2906 1747 
Q 2906 2381 2643 2742 
Q 2381 3103 1925 3103 
Q 1469 3103 1208 2742 
Q 947 2381 947 1747 
z
" transform="scale(0.015625)"/>
      <path id="DejaVuSans-56" d="M 1831 0 
L 50 4666 
L 709 4666 
L 2188 738 
L 3669 4666 
L 4325 4666 
L 2547 0 
L 1831 0 
z
" transform="scale(0.015625)"/>
      <path id="DejaVuSans-6c" d="M 603 4863 
L 1178 4863 
L 1178 0 
L 603 0 
L 603 4863 
z
" transform="scale(0.015625)"/>
      <path id="DejaVuSans-74" d="M 1172 4494 
L 1172 3500 
L 2356 3500 
L 2356 3053 
L 1172 3053 
L 1172 1153 
Q 1172 725 1289 603 
Q 1406 481 1766 481 
L 2356 481 
L 2356 0 
L 1766 0 
Q 1100 0 847 248 
Q 594 497 594 1153 
L 594 3053 
L 172 3053 
L 172 3500 
L 594 3500 
L 594 4494 
L 1172 4494 
z
" transform="scale(0.015625)"/>
     </defs>
     <use xlink:href="#DejaVuSans-54"/>
     <use xlink:href="#DejaVuSans-72" x="46.333984"/>
     <use xlink:href="#DejaVuSans-61" x="87.447266"/>
     <use xlink:href="#DejaVuSans-69" x="148.726562"/>
     <use xlink:href="#DejaVuSans-6e" x="176.509766"/>
     <use xlink:href="#DejaVuSans-69" x="239.888672"/>
     <use xlink:href="#DejaVuSans-6e" x="267.671875"/>
     <use xlink:href="#DejaVuSans-67" x="331.050781"/>
     <use xlink:href="#DejaVuSans-20" x="394.527344"/>
     <use xlink:href="#DejaVuSans-61" x="426.314453"/>
     <use xlink:href="#DejaVuSans-6e" x="487.59375"/>
     <use xlink:href="#DejaVuSans-64" x="550.972656"/>
     <use xlink:href="#DejaVuSans-20" x="614.449219"/>
     <use xlink:href="#DejaVuSans-56" x="646.236328"/>
     <use xlink:href="#DejaVuSans-61" x="706.894531"/>
     <use xlink:href="#DejaVuSans-6c" x="768.173828"/>
     <use xlink:href="#DejaVuSans-69" x="795.957031"/>
     <use xlink:href="#DejaVuSans-64" x="823.740234"/>
     <use xlink:href="#DejaVuSans-61" x="887.216797"/>
     <use xlink:href="#DejaVuSans-74" x="948.496094"/>
     <use xlink:href="#DejaVuSans-69" x="987.705078"/>
     <use xlink:href="#DejaVuSans-6f" x="1015.488281"/>
     <use xlink:href="#DejaVuSans-6e" x="1076.669922"/>
     <use xlink:href="#DejaVuSans-20" x="1140.048828"/>
     <use xlink:href="#DejaVuSans-4c" x="1171.835938"/>
     <use xlink:href="#DejaVuSans-6f" x="1225.798828"/>
     <use xlink:href="#DejaVuSans-73" x="1286.980469"/>
     <use xlink:href="#DejaVuSans-73" x="1339.080078"/>
    </g>
   </g>
   <g id="legend_1">
    <g id="patch_7">
     <path d="M 423.725 63.51625 
L 527.6 63.51625 
Q 529.6 63.51625 529.6 61.51625 
L 529.6 33.16 
Q 529.6 31.16 527.6 31.16 
L 423.725 31.16 
Q 421.725 31.16 421.725 33.16 
L 421.725 61.51625 
Q 421.725 63.51625 423.725 63.51625 
z
" style="fill: #ffffff; opacity: 0.8; stroke: #cccccc; stroke-linejoin: miter"/>
    </g>
    <g id="line2d_16">
     <path d="M 425.725 39.258438 
L 435.725 39.258438 
L 445.725 39.258438 
" style="fill: none; stroke: #1f77b4; stroke-width: 1.5; stroke-linecap: square"/>
    </g>
    <g id="text_17">
     <!-- Training loss -->
     <g transform="translate(453.725 42.758438) scale(0.1 -0.1)">
      <use xlink:href="#DejaVuSans-54"/>
      <use xlink:href="#DejaVuSans-72" x="46.333984"/>
      <use xlink:href="#DejaVuSans-61" x="87.447266"/>
      <use xlink:href="#DejaVuSans-69" x="148.726562"/>
      <use xlink:href="#DejaVuSans-6e" x="176.509766"/>
      <use xlink:href="#DejaVuSans-69" x="239.888672"/>
      <use xlink:href="#DejaVuSans-6e" x="267.671875"/>
      <use xlink:href="#DejaVuSans-67" x="331.050781"/>
      <use xlink:href="#DejaVuSans-20" x="394.527344"/>
      <use xlink:href="#DejaVuSans-6c" x="426.314453"/>
      <use xlink:href="#DejaVuSans-6f" x="454.097656"/>
      <use xlink:href="#DejaVuSans-73" x="515.279297"/>
      <use xlink:href="#DejaVuSans-73" x="567.378906"/>
     </g>
    </g>
    <g id="line2d_17">
     <path d="M 425.725 53.936563 
L 435.725 53.936563 
L 445.725 53.936563 
" style="fill: none; stroke: #ff7f0e; stroke-width: 1.5; stroke-linecap: square"/>
    </g>
    <g id="text_18">
     <!-- Validation loss -->
     <g transform="translate(453.725 57.436563) scale(0.1 -0.1)">
      <use xlink:href="#DejaVuSans-56"/>
      <use xlink:href="#DejaVuSans-61" x="60.658203"/>
      <use xlink:href="#DejaVuSans-6c" x="121.9375"/>
      <use xlink:href="#DejaVuSans-69" x="149.720703"/>
      <use xlink:href="#DejaVuSans-64" x="177.503906"/>
      <use xlink:href="#DejaVuSans-61" x="240.980469"/>
      <use xlink:href="#DejaVuSans-74" x="302.259766"/>
      <use xlink:href="#DejaVuSans-69" x="341.46875"/>
      <use xlink:href="#DejaVuSans-6f" x="369.251953"/>
      <use xlink:href="#DejaVuSans-6e" x="430.433594"/>
      <use xlink:href="#DejaVuSans-20" x="493.8125"/>
      <use xlink:href="#DejaVuSans-6c" x="525.599609"/>
      <use xlink:href="#DejaVuSans-6f" x="553.382812"/>
      <use xlink:href="#DejaVuSans-73" x="614.564453"/>
      <use xlink:href="#DejaVuSans-73" x="666.664062"/>
     </g>
    </g>
   </g>
  </g>
  <g id="axes_2">
   <g id="patch_8">
    <path d="M 588.845 323.44 
L 1069.2 323.44 
L 1069.2 26.16 
L 588.845 26.16 
z
" style="fill: #ffffff"/>
   </g>
   <g id="matplotlib.axis_3">
    <g id="xtick_7">
     <g id="line2d_18">
      <g>
       <use xlink:href="#m12623c1a7e" x="608.764027" y="323.44" style="stroke: #000000; stroke-width: 0.8"/>
      </g>
     </g>
     <g id="text_19">
      <!-- 50 -->
      <g transform="translate(602.401527 338.038438) scale(0.1 -0.1)">
       <use xlink:href="#DejaVuSans-35"/>
       <use xlink:href="#DejaVuSans-30" x="63.623047"/>
      </g>
     </g>
    </g>
    <g id="xtick_8">
     <g id="line2d_19">
      <g>
       <use xlink:href="#m12623c1a7e" x="704.528581" y="323.44" style="stroke: #000000; stroke-width: 0.8"/>
      </g>
     </g>
     <g id="text_20">
      <!-- 100 -->
      <g transform="translate(694.984831 338.038438) scale(0.1 -0.1)">
       <use xlink:href="#DejaVuSans-31"/>
       <use xlink:href="#DejaVuSans-30" x="63.623047"/>
       <use xlink:href="#DejaVuSans-30" x="127.246094"/>
      </g>
     </g>
    </g>
    <g id="xtick_9">
     <g id="line2d_20">
      <g>
       <use xlink:href="#m12623c1a7e" x="800.293134" y="323.44" style="stroke: #000000; stroke-width: 0.8"/>
      </g>
     </g>
     <g id="text_21">
      <!-- 150 -->
      <g transform="translate(790.749384 338.038438) scale(0.1 -0.1)">
       <use xlink:href="#DejaVuSans-31"/>
       <use xlink:href="#DejaVuSans-35" x="63.623047"/>
       <use xlink:href="#DejaVuSans-30" x="127.246094"/>
      </g>
     </g>
    </g>
    <g id="xtick_10">
     <g id="line2d_21">
      <g>
       <use xlink:href="#m12623c1a7e" x="896.057687" y="323.44" style="stroke: #000000; stroke-width: 0.8"/>
      </g>
     </g>
     <g id="text_22">
      <!-- 200 -->
      <g transform="translate(886.513937 338.038438) scale(0.1 -0.1)">
       <use xlink:href="#DejaVuSans-32"/>
       <use xlink:href="#DejaVuSans-30" x="63.623047"/>
       <use xlink:href="#DejaVuSans-30" x="127.246094"/>
      </g>
     </g>
    </g>
    <g id="xtick_11">
     <g id="line2d_22">
      <g>
       <use xlink:href="#m12623c1a7e" x="991.822241" y="323.44" style="stroke: #000000; stroke-width: 0.8"/>
      </g>
     </g>
     <g id="text_23">
      <!-- 250 -->
      <g transform="translate(982.278491 338.038438) scale(0.1 -0.1)">
       <use xlink:href="#DejaVuSans-32"/>
       <use xlink:href="#DejaVuSans-35" x="63.623047"/>
       <use xlink:href="#DejaVuSans-30" x="127.246094"/>
      </g>
     </g>
    </g>
    <g id="text_24">
     <!-- Epochs -->
     <g transform="translate(811.106875 351.716563) scale(0.1 -0.1)">
      <use xlink:href="#DejaVuSans-45"/>
      <use xlink:href="#DejaVuSans-70" x="63.183594"/>
      <use xlink:href="#DejaVuSans-6f" x="126.660156"/>
      <use xlink:href="#DejaVuSans-63" x="187.841797"/>
      <use xlink:href="#DejaVuSans-68" x="242.822266"/>
      <use xlink:href="#DejaVuSans-73" x="306.201172"/>
     </g>
    </g>
   </g>
   <g id="matplotlib.axis_4">
    <g id="ytick_8">
     <g id="line2d_23">
      <g>
       <use xlink:href="#ma46100e6be" x="588.845" y="322.696395" style="stroke: #000000; stroke-width: 0.8"/>
      </g>
     </g>
     <g id="text_25">
      <!-- 0.00 -->
      <g transform="translate(559.579375 326.495614) scale(0.1 -0.1)">
       <use xlink:href="#DejaVuSans-30"/>
       <use xlink:href="#DejaVuSans-2e" x="63.623047"/>
       <use xlink:href="#DejaVuSans-30" x="95.410156"/>
       <use xlink:href="#DejaVuSans-30" x="159.033203"/>
      </g>
     </g>
    </g>
    <g id="ytick_9">
     <g id="line2d_24">
      <g>
       <use xlink:href="#ma46100e6be" x="588.845" y="271.166446" style="stroke: #000000; stroke-width: 0.8"/>
      </g>
     </g>
     <g id="text_26">
      <!-- 0.01 -->
      <g transform="translate(559.579375 274.965665) scale(0.1 -0.1)">
       <use xlink:href="#DejaVuSans-30"/>
       <use xlink:href="#DejaVuSans-2e" x="63.623047"/>
       <use xlink:href="#DejaVuSans-30" x="95.410156"/>
       <use xlink:href="#DejaVuSans-31" x="159.033203"/>
      </g>
     </g>
    </g>
    <g id="ytick_10">
     <g id="line2d_25">
      <g>
       <use xlink:href="#ma46100e6be" x="588.845" y="219.636497" style="stroke: #000000; stroke-width: 0.8"/>
      </g>
     </g>
     <g id="text_27">
      <!-- 0.02 -->
      <g transform="translate(559.579375 223.435716) scale(0.1 -0.1)">
       <use xlink:href="#DejaVuSans-30"/>
       <use xlink:href="#DejaVuSans-2e" x="63.623047"/>
       <use xlink:href="#DejaVuSans-30" x="95.410156"/>
       <use xlink:href="#DejaVuSans-32" x="159.033203"/>
      </g>
     </g>
    </g>
    <g id="ytick_11">
     <g id="line2d_26">
      <g>
       <use xlink:href="#ma46100e6be" x="588.845" y="168.106548" style="stroke: #000000; stroke-width: 0.8"/>
      </g>
     </g>
     <g id="text_28">
      <!-- 0.03 -->
      <g transform="translate(559.579375 171.905767) scale(0.1 -0.1)">
       <use xlink:href="#DejaVuSans-30"/>
       <use xlink:href="#DejaVuSans-2e" x="63.623047"/>
       <use xlink:href="#DejaVuSans-30" x="95.410156"/>
       <use xlink:href="#DejaVuSans-33" x="159.033203"/>
      </g>
     </g>
    </g>
    <g id="ytick_12">
     <g id="line2d_27">
      <g>
       <use xlink:href="#ma46100e6be" x="588.845" y="116.576599" style="stroke: #000000; stroke-width: 0.8"/>
      </g>
     </g>
     <g id="text_29">
      <!-- 0.04 -->
      <g transform="translate(559.579375 120.375818) scale(0.1 -0.1)">
       <defs>
        <path id="DejaVuSans-34" d="M 2419 4116 
L 825 1625 
L 2419 1625 
L 2419 4116 
z
M 2253 4666 
L 3047 4666 
L 3047 1625 
L 3713 1625 
L 3713 1100 
L 3047 1100 
L 3047 0 
L 2419 0 
L 2419 1100 
L 313 1100 
L 313 1709 
L 2253 4666 
z
" transform="scale(0.015625)"/>
       </defs>
       <use xlink:href="#DejaVuSans-30"/>
       <use xlink:href="#DejaVuSans-2e" x="63.623047"/>
       <use xlink:href="#DejaVuSans-30" x="95.410156"/>
       <use xlink:href="#DejaVuSans-34" x="159.033203"/>
      </g>
     </g>
    </g>
    <g id="ytick_13">
     <g id="line2d_28">
      <g>
       <use xlink:href="#ma46100e6be" x="588.845" y="65.04665" style="stroke: #000000; stroke-width: 0.8"/>
      </g>
     </g>
     <g id="text_30">
      <!-- 0.05 -->
      <g transform="translate(559.579375 68.845869) scale(0.1 -0.1)">
       <use xlink:href="#DejaVuSans-30"/>
       <use xlink:href="#DejaVuSans-2e" x="63.623047"/>
       <use xlink:href="#DejaVuSans-30" x="95.410156"/>
       <use xlink:href="#DejaVuSans-35" x="159.033203"/>
      </g>
     </g>
    </g>
    <g id="text_31">
     <!-- Loss -->
     <g transform="translate(553.499687 185.767188) rotate(-90) scale(0.1 -0.1)">
      <use xlink:href="#DejaVuSans-4c"/>
      <use xlink:href="#DejaVuSans-6f" x="53.962891"/>
      <use xlink:href="#DejaVuSans-73" x="115.144531"/>
      <use xlink:href="#DejaVuSans-73" x="167.244141"/>
     </g>
    </g>
   </g>
   <g id="line2d_29">
    <path d="M 610.679318 175.426553 
L 612.594609 172.692524 
L 614.5099 176.361657 
L 616.425191 177.491749 
L 618.340482 180.650047 
L 620.255774 184.519552 
L 622.171065 187.341807 
L 624.086356 188.908589 
L 626.001647 188.962761 
L 627.916938 190.197435 
L 629.832229 192.889683 
L 631.74752 193.531351 
L 633.662811 194.640087 
L 635.578102 202.28682 
L 637.493393 199.605525 
L 639.408684 194.777313 
L 641.323975 204.451503 
L 643.239266 206.806105 
L 645.154557 206.521105 
L 647.069848 208.481327 
L 648.98514 207.764379 
L 650.900431 207.63584 
L 652.815722 214.759385 
L 654.731013 219.024221 
L 656.646304 210.838328 
L 658.561595 216.424097 
L 660.476886 215.455763 
L 662.392177 217.818207 
L 664.307468 225.159592 
L 666.222759 219.686765 
L 668.13805 225.749162 
L 670.053341 222.952956 
L 671.968632 222.893505 
L 673.883923 229.020238 
L 675.799215 221.475601 
L 677.714506 230.395881 
L 679.629797 225.86029 
L 681.545088 236.055873 
L 683.460379 234.16377 
L 685.37567 230.939236 
L 687.290961 233.126761 
L 689.206252 236.988003 
L 691.121543 232.075221 
L 693.036834 238.477115 
L 694.952125 232.088313 
L 696.867416 241.314516 
L 698.782707 235.230908 
L 700.697998 240.255509 
L 702.613289 242.984906 
L 704.528581 239.819913 
L 706.443872 246.64409 
L 708.359163 239.010056 
L 710.274454 244.033125 
L 712.189745 245.867399 
L 714.105036 244.345796 
L 716.020327 243.927987 
L 717.935618 244.897338 
L 719.850909 247.877325 
L 721.7662 243.978032 
L 723.681491 251.942201 
L 725.596782 254.56969 
L 727.512073 251.462603 
L 729.427364 250.241606 
L 731.342656 254.394018 
L 733.257947 251.419637 
L 735.173238 254.775153 
L 737.088529 253.773068 
L 739.00382 257.15305 
L 740.919111 256.008311 
L 742.834402 260.993372 
L 744.749693 253.991887 
L 746.664984 256.14522 
L 748.580275 253.40968 
L 750.495566 257.443189 
L 752.410857 262.56012 
L 754.326148 256.94033 
L 756.241439 262.136378 
L 758.15673 258.516009 
L 760.072022 260.302196 
L 761.987313 266.072222 
L 763.902604 259.711959 
L 765.817895 266.256257 
L 767.733186 259.468333 
L 769.648477 264.312046 
L 771.563768 268.435087 
L 773.479059 268.405568 
L 775.39435 264.157193 
L 777.309641 266.655543 
L 779.224932 263.570599 
L 781.140223 267.885422 
L 783.055514 267.529819 
L 784.970805 269.574379 
L 786.886096 266.715032 
L 788.801388 264.426039 
L 790.716679 270.286638 
L 792.63197 265.718907 
L 794.547261 271.90155 
L 796.462552 270.73162 
L 798.377843 270.715476 
L 800.293134 272.453043 
L 802.208425 273.429564 
L 804.123716 271.930853 
L 807.954298 270.22853 
L 809.869589 274.168966 
L 811.78488 274.707881 
L 813.700171 273.583577 
L 815.615463 275.282598 
L 817.530754 275.755698 
L 819.446045 274.925568 
L 821.361336 275.477887 
L 823.276627 278.524284 
L 825.191918 276.030259 
L 827.107209 278.05679 
L 829.0225 278.106892 
L 830.937791 280.092458 
L 832.853082 276.646972 
L 834.768373 281.272062 
L 836.683664 278.866705 
L 838.598955 280.329567 
L 840.514246 279.782517 
L 842.429537 278.486511 
L 844.344829 279.976579 
L 846.26012 278.661668 
L 848.175411 282.551901 
L 850.090702 283.680301 
L 852.005993 279.24809 
L 853.921284 282.419498 
L 855.836575 282.158346 
L 857.751866 276.856007 
L 859.667157 286.27703 
L 861.582448 282.126283 
L 863.497739 281.586211 
L 865.41303 280.374328 
L 867.328321 280.470492 
L 869.243612 283.371227 
L 871.158904 285.329001 
L 873.074195 281.801638 
L 874.989486 287.330936 
L 876.904777 285.987793 
L 878.820068 285.822267 
L 880.735359 284.256858 
L 882.65065 285.920754 
L 884.565941 285.614742 
L 886.481232 287.187513 
L 888.396523 287.039357 
L 890.311814 285.825132 
L 892.227105 287.102113 
L 894.142396 287.558512 
L 896.057687 287.857505 
L 897.972978 285.853708 
L 899.88827 289.227572 
L 901.803561 289.034206 
L 905.634143 286.319624 
L 907.549434 286.532944 
L 909.464725 284.238902 
L 911.380016 289.256076 
L 913.295307 287.382507 
L 915.210598 288.897492 
L 917.125889 291.052031 
L 919.04118 290.782759 
L 920.956471 290.276893 
L 922.871762 287.784523 
L 924.787053 290.710369 
L 926.702344 290.455765 
L 928.617636 289.786396 
L 930.532927 291.956475 
L 932.448218 291.339332 
L 934.363509 291.975983 
L 936.2788 290.345575 
L 938.194091 292.59123 
L 940.109382 286.662541 
L 942.024673 290.938698 
L 943.939964 292.249167 
L 945.855255 291.728098 
L 947.770546 292.209447 
L 949.685837 291.878252 
L 951.601128 295.019436 
L 953.516419 292.410302 
L 955.431711 291.980235 
L 957.347002 291.061586 
L 959.262293 290.942247 
L 961.177584 294.601319 
L 963.092875 291.509438 
L 965.008166 295.424653 
L 968.838748 294.158484 
L 970.754039 293.063231 
L 972.66933 294.174417 
L 974.584621 293.654216 
L 976.499912 295.021528 
L 978.415203 294.227052 
L 980.330494 295.102355 
L 982.245785 294.941863 
L 984.161077 295.497354 
L 986.076368 295.430109 
L 987.991659 295.495706 
L 989.90695 296.118759 
L 991.822241 294.019118 
L 993.737532 293.434979 
L 995.652823 293.810403 
L 997.568114 297.663349 
L 999.483405 293.986605 
L 1001.398696 295.42757 
L 1003.313987 295.090026 
L 1005.229278 295.805725 
L 1007.144569 295.358283 
L 1009.05986 296.426179 
L 1012.890443 297.015408 
L 1014.805734 297.577546 
L 1016.721025 297.144024 
L 1018.636316 296.145247 
L 1020.551607 292.840179 
L 1022.466898 297.762671 
L 1024.382189 298.050651 
L 1026.29748 297.6331 
L 1028.212771 293.90777 
L 1030.128062 297.326186 
L 1032.043353 298.716327 
L 1033.958644 297.282267 
L 1035.873935 298.161373 
L 1037.789226 294.621053 
L 1039.704518 299.022747 
L 1041.619809 296.690624 
L 1043.5351 298.663165 
L 1045.450391 297.223521 
L 1047.365682 296.313777 
L 1047.365682 296.313777 
" clip-path="url(#p516ffb4684)" style="fill: none; stroke: #1f77b4; stroke-width: 1.5; stroke-linecap: square"/>
   </g>
   <g id="line2d_30">
    <path d="M 610.679318 100.461244 
L 612.594609 189.873208 
L 614.5099 157.560941 
L 616.425191 167.651328 
L 618.340482 151.714888 
L 620.255774 161.740603 
L 622.171065 161.044244 
L 624.086356 161.837612 
L 626.001647 196.771579 
L 627.916938 181.757142 
L 629.832229 39.672727 
L 631.74752 200.786756 
L 633.662811 130.887003 
L 635.578102 198.908532 
L 637.493393 161.800371 
L 639.408684 182.180231 
L 641.323975 190.107817 
L 643.239266 201.714077 
L 645.154557 219.644994 
L 647.069848 173.706843 
L 648.98514 205.682875 
L 650.900431 157.625057 
L 652.815722 204.666512 
L 654.731013 183.494714 
L 656.646304 213.577722 
L 658.561595 223.003884 
L 660.476886 241.69448 
L 662.392177 240.892013 
L 664.307468 192.066646 
L 666.222759 249.094895 
L 668.13805 209.069053 
L 670.053341 222.816883 
L 671.968632 233.608946 
L 673.883923 188.082078 
L 675.799215 216.337521 
L 677.714506 222.324006 
L 679.629797 254.951928 
L 681.545088 177.099001 
L 683.460379 205.896973 
L 685.37567 220.523815 
L 687.290961 216.930037 
L 689.206252 222.480696 
L 691.121543 243.537829 
L 693.036834 175.620945 
L 694.952125 226.759229 
L 696.867416 250.548989 
L 698.782707 228.445172 
L 700.697998 250.162714 
L 702.613289 160.910099 
L 704.528581 234.998132 
L 706.443872 246.551314 
L 708.359163 238.865795 
L 710.274454 253.675324 
L 712.189745 248.554487 
L 716.020327 275.888311 
L 717.935618 255.199 
L 719.850909 213.523645 
L 721.7662 244.743507 
L 723.681491 261.031813 
L 725.596782 218.332248 
L 727.512073 230.06053 
L 729.427364 276.266591 
L 731.342656 191.432177 
L 733.257947 244.889074 
L 735.173238 224.763033 
L 737.088529 244.447446 
L 739.00382 278.626961 
L 740.919111 260.594864 
L 742.834402 253.711274 
L 744.749693 255.507016 
L 746.664984 257.923493 
L 748.580275 269.824485 
L 750.495566 236.857851 
L 752.410857 253.89294 
L 754.326148 264.428218 
L 756.241439 225.81035 
L 758.15673 243.780851 
L 760.072022 266.378807 
L 761.987313 286.322554 
L 763.902604 276.256556 
L 765.817895 283.642463 
L 767.733186 262.143289 
L 769.648477 267.894272 
L 771.563768 255.254555 
L 773.479059 269.684548 
L 775.39435 243.062541 
L 777.309641 189.840833 
L 779.224932 275.118684 
L 781.140223 286.972981 
L 783.055514 271.893454 
L 784.970805 243.160034 
L 786.886096 279.20758 
L 788.801388 276.353574 
L 790.716679 270.018776 
L 792.63197 216.973959 
L 794.547261 288.606974 
L 796.462552 288.142229 
L 798.377843 258.293048 
L 800.293134 282.825903 
L 802.208425 243.420774 
L 804.123716 272.403747 
L 806.039007 253.254103 
L 807.954298 276.962254 
L 809.869589 283.357415 
L 811.78488 280.773796 
L 813.700171 275.631459 
L 815.615463 262.025198 
L 817.530754 288.764667 
L 819.446045 279.007525 
L 821.361336 284.114209 
L 823.276627 282.1242 
L 825.191918 238.486023 
L 827.107209 207.725007 
L 829.0225 280.362273 
L 830.937791 292.917382 
L 832.853082 284.765778 
L 834.768373 273.803515 
L 836.683664 293.62564 
L 838.598955 275.173034 
L 840.514246 279.312537 
L 842.429537 259.919343 
L 844.344829 266.575954 
L 846.26012 287.640459 
L 850.090702 281.488905 
L 852.005993 293.343096 
L 853.921284 283.00669 
L 855.836575 298.046514 
L 857.751866 229.415713 
L 859.667157 285.635018 
L 861.582448 295.03145 
L 863.497739 289.471992 
L 865.41303 264.867489 
L 867.328321 287.59856 
L 869.243612 297.375662 
L 871.158904 276.356027 
L 873.074195 302.500072 
L 874.989486 298.593931 
L 876.904777 286.16016 
L 878.820068 299.158319 
L 880.735359 274.579217 
L 882.65065 284.766702 
L 884.565941 284.654984 
L 886.481232 277.007006 
L 888.396523 280.83698 
L 890.311814 282.832962 
L 892.227105 268.510525 
L 894.142396 285.933496 
L 896.057687 265.471873 
L 897.972978 275.726068 
L 899.88827 274.692011 
L 901.803561 291.429591 
L 903.718852 297.240551 
L 905.634143 298.032251 
L 907.549434 295.593099 
L 909.464725 302.558633 
L 911.380016 298.886073 
L 913.295307 301.409304 
L 915.210598 257.577036 
L 917.125889 300.385262 
L 919.04118 272.819848 
L 920.956471 280.08475 
L 922.871762 278.629913 
L 924.787053 298.236489 
L 926.702344 297.170993 
L 928.617636 271.619415 
L 930.532927 286.378706 
L 932.448218 302.254332 
L 934.363509 285.414147 
L 936.2788 296.7241 
L 938.194091 302.373057 
L 940.109382 285.923792 
L 942.024673 297.714555 
L 943.939964 289.174391 
L 945.855255 305.477565 
L 947.770546 292.171887 
L 949.685837 299.02865 
L 951.601128 309.927273 
L 953.516419 292.293767 
L 955.431711 263.177337 
L 957.347002 304.736097 
L 959.262293 288.057381 
L 961.177584 296.621215 
L 963.092875 303.054339 
L 965.008166 304.45189 
L 966.923457 299.574555 
L 968.838748 283.777461 
L 970.754039 298.014434 
L 972.66933 286.262798 
L 974.584621 284.428946 
L 976.499912 298.180666 
L 978.415203 277.757897 
L 980.330494 293.372406 
L 982.245785 277.26249 
L 984.161077 287.98322 
L 986.076368 290.209696 
L 987.991659 288.858353 
L 989.90695 290.686388 
L 991.822241 296.522209 
L 993.737532 305.47344 
L 995.652823 279.809911 
L 997.568114 290.006339 
L 999.483405 295.970226 
L 1001.398696 305.146512 
L 1003.313987 305.331769 
L 1005.229278 304.725041 
L 1007.144569 300.315949 
L 1009.05986 304.206087 
L 1010.975152 292.85823 
L 1012.890443 307.05961 
L 1014.805734 296.723935 
L 1016.721025 298.506954 
L 1018.636316 297.897351 
L 1020.551607 303.493489 
L 1022.466898 253.224147 
L 1024.382189 279.229114 
L 1026.29748 296.586438 
L 1028.212771 307.25793 
L 1030.128062 293.81256 
L 1032.043353 289.681991 
L 1033.958644 299.454604 
L 1035.873935 299.1712 
L 1037.789226 304.084169 
L 1039.704518 289.406249 
L 1041.619809 309.410076 
L 1043.5351 305.022255 
L 1045.450391 303.007098 
L 1047.365682 298.005386 
L 1047.365682 298.005386 
" clip-path="url(#p516ffb4684)" style="fill: none; stroke: #ff7f0e; stroke-width: 1.5; stroke-linecap: square"/>
   </g>
   <g id="patch_9">
    <path d="M 588.845 323.44 
L 588.845 26.16 
" style="fill: none; stroke: #000000; stroke-width: 0.8; stroke-linejoin: miter; stroke-linecap: square"/>
   </g>
   <g id="patch_10">
    <path d="M 1069.2 323.44 
L 1069.2 26.16 
" style="fill: none; stroke: #000000; stroke-width: 0.8; stroke-linejoin: miter; stroke-linecap: square"/>
   </g>
   <g id="patch_11">
    <path d="M 588.845 323.44 
L 1069.2 323.44 
" style="fill: none; stroke: #000000; stroke-width: 0.8; stroke-linejoin: miter; stroke-linecap: square"/>
   </g>
   <g id="patch_12">
    <path d="M 588.845 26.16 
L 1069.2 26.16 
" style="fill: none; stroke: #000000; stroke-width: 0.8; stroke-linejoin: miter; stroke-linecap: square"/>
   </g>
   <g id="text_32">
    <!-- Training and Validation Loss (Skip first 50) -->
    <g transform="translate(703.032812 20.16) scale(0.12 -0.12)">
     <defs>
      <path id="DejaVuSans-28" d="M 1984 4856 
Q 1566 4138 1362 3434 
Q 1159 2731 1159 2009 
Q 1159 1288 1364 580 
Q 1569 -128 1984 -844 
L 1484 -844 
Q 1016 -109 783 600 
Q 550 1309 550 2009 
Q 550 2706 781 3412 
Q 1013 4119 1484 4856 
L 1984 4856 
z
" transform="scale(0.015625)"/>
      <path id="DejaVuSans-53" d="M 3425 4513 
L 3425 3897 
Q 3066 4069 2747 4153 
Q 2428 4238 2131 4238 
Q 1616 4238 1336 4038 
Q 1056 3838 1056 3469 
Q 1056 3159 1242 3001 
Q 1428 2844 1947 2747 
L 2328 2669 
Q 3034 2534 3370 2195 
Q 3706 1856 3706 1288 
Q 3706 609 3251 259 
Q 2797 -91 1919 -91 
Q 1588 -91 1214 -16 
Q 841 59 441 206 
L 441 856 
Q 825 641 1194 531 
Q 1563 422 1919 422 
Q 2459 422 2753 634 
Q 3047 847 3047 1241 
Q 3047 1584 2836 1778 
Q 2625 1972 2144 2069 
L 1759 2144 
Q 1053 2284 737 2584 
Q 422 2884 422 3419 
Q 422 4038 858 4394 
Q 1294 4750 2059 4750 
Q 2388 4750 2728 4690 
Q 3069 4631 3425 4513 
z
" transform="scale(0.015625)"/>
      <path id="DejaVuSans-6b" d="M 581 4863 
L 1159 4863 
L 1159 1991 
L 2875 3500 
L 3609 3500 
L 1753 1863 
L 3688 0 
L 2938 0 
L 1159 1709 
L 1159 0 
L 581 0 
L 581 4863 
z
" transform="scale(0.015625)"/>
      <path id="DejaVuSans-66" d="M 2375 4863 
L 2375 4384 
L 1825 4384 
Q 1516 4384 1395 4259 
Q 1275 4134 1275 3809 
L 1275 3500 
L 2222 3500 
L 2222 3053 
L 1275 3053 
L 1275 0 
L 697 0 
L 697 3053 
L 147 3053 
L 147 3500 
L 697 3500 
L 697 3744 
Q 697 4328 969 4595 
Q 1241 4863 1831 4863 
L 2375 4863 
z
" transform="scale(0.015625)"/>
      <path id="DejaVuSans-29" d="M 513 4856 
L 1013 4856 
Q 1481 4119 1714 3412 
Q 1947 2706 1947 2009 
Q 1947 1309 1714 600 
Q 1481 -109 1013 -844 
L 513 -844 
Q 928 -128 1133 580 
Q 1338 1288 1338 2009 
Q 1338 2731 1133 3434 
Q 928 4138 513 4856 
z
" transform="scale(0.015625)"/>
     </defs>
     <use xlink:href="#DejaVuSans-54"/>
     <use xlink:href="#DejaVuSans-72" x="46.333984"/>
     <use xlink:href="#DejaVuSans-61" x="87.447266"/>
     <use xlink:href="#DejaVuSans-69" x="148.726562"/>
     <use xlink:href="#DejaVuSans-6e" x="176.509766"/>
     <use xlink:href="#DejaVuSans-69" x="239.888672"/>
     <use xlink:href="#DejaVuSans-6e" x="267.671875"/>
     <use xlink:href="#DejaVuSans-67" x="331.050781"/>
     <use xlink:href="#DejaVuSans-20" x="394.527344"/>
     <use xlink:href="#DejaVuSans-61" x="426.314453"/>
     <use xlink:href="#DejaVuSans-6e" x="487.59375"/>
     <use xlink:href="#DejaVuSans-64" x="550.972656"/>
     <use xlink:href="#DejaVuSans-20" x="614.449219"/>
     <use xlink:href="#DejaVuSans-56" x="646.236328"/>
     <use xlink:href="#DejaVuSans-61" x="706.894531"/>
     <use xlink:href="#DejaVuSans-6c" x="768.173828"/>
     <use xlink:href="#DejaVuSans-69" x="795.957031"/>
     <use xlink:href="#DejaVuSans-64" x="823.740234"/>
     <use xlink:href="#DejaVuSans-61" x="887.216797"/>
     <use xlink:href="#DejaVuSans-74" x="948.496094"/>
     <use xlink:href="#DejaVuSans-69" x="987.705078"/>
     <use xlink:href="#DejaVuSans-6f" x="1015.488281"/>
     <use xlink:href="#DejaVuSans-6e" x="1076.669922"/>
     <use xlink:href="#DejaVuSans-20" x="1140.048828"/>
     <use xlink:href="#DejaVuSans-4c" x="1171.835938"/>
     <use xlink:href="#DejaVuSans-6f" x="1225.798828"/>
     <use xlink:href="#DejaVuSans-73" x="1286.980469"/>
     <use xlink:href="#DejaVuSans-73" x="1339.080078"/>
     <use xlink:href="#DejaVuSans-20" x="1391.179688"/>
     <use xlink:href="#DejaVuSans-28" x="1422.966797"/>
     <use xlink:href="#DejaVuSans-53" x="1461.980469"/>
     <use xlink:href="#DejaVuSans-6b" x="1525.457031"/>
     <use xlink:href="#DejaVuSans-69" x="1583.367188"/>
     <use xlink:href="#DejaVuSans-70" x="1611.150391"/>
     <use xlink:href="#DejaVuSans-20" x="1674.626953"/>
     <use xlink:href="#DejaVuSans-66" x="1706.414062"/>
     <use xlink:href="#DejaVuSans-69" x="1741.619141"/>
     <use xlink:href="#DejaVuSans-72" x="1769.402344"/>
     <use xlink:href="#DejaVuSans-73" x="1810.515625"/>
     <use xlink:href="#DejaVuSans-74" x="1862.615234"/>
     <use xlink:href="#DejaVuSans-20" x="1901.824219"/>
     <use xlink:href="#DejaVuSans-35" x="1933.611328"/>
     <use xlink:href="#DejaVuSans-30" x="1997.234375"/>
     <use xlink:href="#DejaVuSans-29" x="2060.857422"/>
    </g>
   </g>
   <g id="legend_2">
    <g id="patch_13">
     <path d="M 958.325 63.51625 
L 1062.2 63.51625 
Q 1064.2 63.51625 1064.2 61.51625 
L 1064.2 33.16 
Q 1064.2 31.16 1062.2 31.16 
L 958.325 31.16 
Q 956.325 31.16 956.325 33.16 
L 956.325 61.51625 
Q 956.325 63.51625 958.325 63.51625 
z
" style="fill: #ffffff; opacity: 0.8; stroke: #cccccc; stroke-linejoin: miter"/>
    </g>
    <g id="line2d_31">
     <path d="M 960.325 39.258438 
L 970.325 39.258438 
L 980.325 39.258438 
" style="fill: none; stroke: #1f77b4; stroke-width: 1.5; stroke-linecap: square"/>
    </g>
    <g id="text_33">
     <!-- Training loss -->
     <g transform="translate(988.325 42.758438) scale(0.1 -0.1)">
      <use xlink:href="#DejaVuSans-54"/>
      <use xlink:href="#DejaVuSans-72" x="46.333984"/>
      <use xlink:href="#DejaVuSans-61" x="87.447266"/>
      <use xlink:href="#DejaVuSans-69" x="148.726562"/>
      <use xlink:href="#DejaVuSans-6e" x="176.509766"/>
      <use xlink:href="#DejaVuSans-69" x="239.888672"/>
      <use xlink:href="#DejaVuSans-6e" x="267.671875"/>
      <use xlink:href="#DejaVuSans-67" x="331.050781"/>
      <use xlink:href="#DejaVuSans-20" x="394.527344"/>
      <use xlink:href="#DejaVuSans-6c" x="426.314453"/>
      <use xlink:href="#DejaVuSans-6f" x="454.097656"/>
      <use xlink:href="#DejaVuSans-73" x="515.279297"/>
      <use xlink:href="#DejaVuSans-73" x="567.378906"/>
     </g>
    </g>
    <g id="line2d_32">
     <path d="M 960.325 53.936563 
L 970.325 53.936563 
L 980.325 53.936563 
" style="fill: none; stroke: #ff7f0e; stroke-width: 1.5; stroke-linecap: square"/>
    </g>
    <g id="text_34">
     <!-- Validation loss -->
     <g transform="translate(988.325 57.436563) scale(0.1 -0.1)">
      <use xlink:href="#DejaVuSans-56"/>
      <use xlink:href="#DejaVuSans-61" x="60.658203"/>
      <use xlink:href="#DejaVuSans-6c" x="121.9375"/>
      <use xlink:href="#DejaVuSans-69" x="149.720703"/>
      <use xlink:href="#DejaVuSans-64" x="177.503906"/>
      <use xlink:href="#DejaVuSans-61" x="240.980469"/>
      <use xlink:href="#DejaVuSans-74" x="302.259766"/>
      <use xlink:href="#DejaVuSans-69" x="341.46875"/>
      <use xlink:href="#DejaVuSans-6f" x="369.251953"/>
      <use xlink:href="#DejaVuSans-6e" x="430.433594"/>
      <use xlink:href="#DejaVuSans-20" x="493.8125"/>
      <use xlink:href="#DejaVuSans-6c" x="525.599609"/>
      <use xlink:href="#DejaVuSans-6f" x="553.382812"/>
      <use xlink:href="#DejaVuSans-73" x="614.564453"/>
      <use xlink:href="#DejaVuSans-73" x="666.664062"/>
     </g>
    </g>
   </g>
  </g>
  <g id="axes_3">
   <g id="patch_14">
    <path d="M 54.245 678.04 
L 534.6 678.04 
L 534.6 380.76 
L 54.245 380.76 
z
" style="fill: #ffffff"/>
   </g>
   <g id="matplotlib.axis_5">
    <g id="xtick_12">
     <g id="line2d_33">
      <g>
       <use xlink:href="#m12623c1a7e" x="74.164027" y="678.04" style="stroke: #000000; stroke-width: 0.8"/>
      </g>
     </g>
     <g id="text_35">
      <!-- 50 -->
      <g transform="translate(67.801527 692.638438) scale(0.1 -0.1)">
       <use xlink:href="#DejaVuSans-35"/>
       <use xlink:href="#DejaVuSans-30" x="63.623047"/>
      </g>
     </g>
    </g>
    <g id="xtick_13">
     <g id="line2d_34">
      <g>
       <use xlink:href="#m12623c1a7e" x="169.928581" y="678.04" style="stroke: #000000; stroke-width: 0.8"/>
      </g>
     </g>
     <g id="text_36">
      <!-- 100 -->
      <g transform="translate(160.384831 692.638438) scale(0.1 -0.1)">
       <use xlink:href="#DejaVuSans-31"/>
       <use xlink:href="#DejaVuSans-30" x="63.623047"/>
       <use xlink:href="#DejaVuSans-30" x="127.246094"/>
      </g>
     </g>
    </g>
    <g id="xtick_14">
     <g id="line2d_35">
      <g>
       <use xlink:href="#m12623c1a7e" x="265.693134" y="678.04" style="stroke: #000000; stroke-width: 0.8"/>
      </g>
     </g>
     <g id="text_37">
      <!-- 150 -->
      <g transform="translate(256.149384 692.638438) scale(0.1 -0.1)">
       <use xlink:href="#DejaVuSans-31"/>
       <use xlink:href="#DejaVuSans-35" x="63.623047"/>
       <use xlink:href="#DejaVuSans-30" x="127.246094"/>
      </g>
     </g>
    </g>
    <g id="xtick_15">
     <g id="line2d_36">
      <g>
       <use xlink:href="#m12623c1a7e" x="361.457687" y="678.04" style="stroke: #000000; stroke-width: 0.8"/>
      </g>
     </g>
     <g id="text_38">
      <!-- 200 -->
      <g transform="translate(351.913937 692.638438) scale(0.1 -0.1)">
       <use xlink:href="#DejaVuSans-32"/>
       <use xlink:href="#DejaVuSans-30" x="63.623047"/>
       <use xlink:href="#DejaVuSans-30" x="127.246094"/>
      </g>
     </g>
    </g>
    <g id="xtick_16">
     <g id="line2d_37">
      <g>
       <use xlink:href="#m12623c1a7e" x="457.222241" y="678.04" style="stroke: #000000; stroke-width: 0.8"/>
      </g>
     </g>
     <g id="text_39">
      <!-- 250 -->
      <g transform="translate(447.678491 692.638438) scale(0.1 -0.1)">
       <use xlink:href="#DejaVuSans-32"/>
       <use xlink:href="#DejaVuSans-35" x="63.623047"/>
       <use xlink:href="#DejaVuSans-30" x="127.246094"/>
      </g>
     </g>
    </g>
    <g id="text_40">
     <!-- Epochs -->
     <g transform="translate(276.506875 706.316563) scale(0.1 -0.1)">
      <use xlink:href="#DejaVuSans-45"/>
      <use xlink:href="#DejaVuSans-70" x="63.183594"/>
      <use xlink:href="#DejaVuSans-6f" x="126.660156"/>
      <use xlink:href="#DejaVuSans-63" x="187.841797"/>
      <use xlink:href="#DejaVuSans-68" x="242.822266"/>
      <use xlink:href="#DejaVuSans-73" x="306.201172"/>
     </g>
    </g>
   </g>
   <g id="matplotlib.axis_6">
    <g id="ytick_14">
     <g id="line2d_38">
      <g>
       <use xlink:href="#ma46100e6be" x="54.245" y="653.921055" style="stroke: #000000; stroke-width: 0.8"/>
      </g>
     </g>
     <g id="text_41">
      <!-- 0.04 -->
      <g transform="translate(24.979375 657.720274) scale(0.1 -0.1)">
       <use xlink:href="#DejaVuSans-30"/>
       <use xlink:href="#DejaVuSans-2e" x="63.623047"/>
       <use xlink:href="#DejaVuSans-30" x="95.410156"/>
       <use xlink:href="#DejaVuSans-34" x="159.033203"/>
      </g>
     </g>
    </g>
    <g id="ytick_15">
     <g id="line2d_39">
      <g>
       <use xlink:href="#ma46100e6be" x="54.245" y="613.69905" style="stroke: #000000; stroke-width: 0.8"/>
      </g>
     </g>
     <g id="text_42">
      <!-- 0.06 -->
      <g transform="translate(24.979375 617.498269) scale(0.1 -0.1)">
       <defs>
        <path id="DejaVuSans-36" d="M 2113 2584 
Q 1688 2584 1439 2293 
Q 1191 2003 1191 1497 
Q 1191 994 1439 701 
Q 1688 409 2113 409 
Q 2538 409 2786 701 
Q 3034 994 3034 1497 
Q 3034 2003 2786 2293 
Q 2538 2584 2113 2584 
z
M 3366 4563 
L 3366 3988 
Q 3128 4100 2886 4159 
Q 2644 4219 2406 4219 
Q 1781 4219 1451 3797 
Q 1122 3375 1075 2522 
Q 1259 2794 1537 2939 
Q 1816 3084 2150 3084 
Q 2853 3084 3261 2657 
Q 3669 2231 3669 1497 
Q 3669 778 3244 343 
Q 2819 -91 2113 -91 
Q 1303 -91 875 529 
Q 447 1150 447 2328 
Q 447 3434 972 4092 
Q 1497 4750 2381 4750 
Q 2619 4750 2861 4703 
Q 3103 4656 3366 4563 
z
" transform="scale(0.015625)"/>
       </defs>
       <use xlink:href="#DejaVuSans-30"/>
       <use xlink:href="#DejaVuSans-2e" x="63.623047"/>
       <use xlink:href="#DejaVuSans-30" x="95.410156"/>
       <use xlink:href="#DejaVuSans-36" x="159.033203"/>
      </g>
     </g>
    </g>
    <g id="ytick_16">
     <g id="line2d_40">
      <g>
       <use xlink:href="#ma46100e6be" x="54.245" y="573.477045" style="stroke: #000000; stroke-width: 0.8"/>
      </g>
     </g>
     <g id="text_43">
      <!-- 0.08 -->
      <g transform="translate(24.979375 577.276264) scale(0.1 -0.1)">
       <defs>
        <path id="DejaVuSans-38" d="M 2034 2216 
Q 1584 2216 1326 1975 
Q 1069 1734 1069 1313 
Q 1069 891 1326 650 
Q 1584 409 2034 409 
Q 2484 409 2743 651 
Q 3003 894 3003 1313 
Q 3003 1734 2745 1975 
Q 2488 2216 2034 2216 
z
M 1403 2484 
Q 997 2584 770 2862 
Q 544 3141 544 3541 
Q 544 4100 942 4425 
Q 1341 4750 2034 4750 
Q 2731 4750 3128 4425 
Q 3525 4100 3525 3541 
Q 3525 3141 3298 2862 
Q 3072 2584 2669 2484 
Q 3125 2378 3379 2068 
Q 3634 1759 3634 1313 
Q 3634 634 3220 271 
Q 2806 -91 2034 -91 
Q 1263 -91 848 271 
Q 434 634 434 1313 
Q 434 1759 690 2068 
Q 947 2378 1403 2484 
z
M 1172 3481 
Q 1172 3119 1398 2916 
Q 1625 2713 2034 2713 
Q 2441 2713 2670 2916 
Q 2900 3119 2900 3481 
Q 2900 3844 2670 4047 
Q 2441 4250 2034 4250 
Q 1625 4250 1398 4047 
Q 1172 3844 1172 3481 
z
" transform="scale(0.015625)"/>
       </defs>
       <use xlink:href="#DejaVuSans-30"/>
       <use xlink:href="#DejaVuSans-2e" x="63.623047"/>
       <use xlink:href="#DejaVuSans-30" x="95.410156"/>
       <use xlink:href="#DejaVuSans-38" x="159.033203"/>
      </g>
     </g>
    </g>
    <g id="ytick_17">
     <g id="line2d_41">
      <g>
       <use xlink:href="#ma46100e6be" x="54.245" y="533.25504" style="stroke: #000000; stroke-width: 0.8"/>
      </g>
     </g>
     <g id="text_44">
      <!-- 0.10 -->
      <g transform="translate(24.979375 537.054259) scale(0.1 -0.1)">
       <use xlink:href="#DejaVuSans-30"/>
       <use xlink:href="#DejaVuSans-2e" x="63.623047"/>
       <use xlink:href="#DejaVuSans-31" x="95.410156"/>
       <use xlink:href="#DejaVuSans-30" x="159.033203"/>
      </g>
     </g>
    </g>
    <g id="ytick_18">
     <g id="line2d_42">
      <g>
       <use xlink:href="#ma46100e6be" x="54.245" y="493.033036" style="stroke: #000000; stroke-width: 0.8"/>
      </g>
     </g>
     <g id="text_45">
      <!-- 0.12 -->
      <g transform="translate(24.979375 496.832254) scale(0.1 -0.1)">
       <use xlink:href="#DejaVuSans-30"/>
       <use xlink:href="#DejaVuSans-2e" x="63.623047"/>
       <use xlink:href="#DejaVuSans-31" x="95.410156"/>
       <use xlink:href="#DejaVuSans-32" x="159.033203"/>
      </g>
     </g>
    </g>
    <g id="ytick_19">
     <g id="line2d_43">
      <g>
       <use xlink:href="#ma46100e6be" x="54.245" y="452.811031" style="stroke: #000000; stroke-width: 0.8"/>
      </g>
     </g>
     <g id="text_46">
      <!-- 0.14 -->
      <g transform="translate(24.979375 456.61025) scale(0.1 -0.1)">
       <use xlink:href="#DejaVuSans-30"/>
       <use xlink:href="#DejaVuSans-2e" x="63.623047"/>
       <use xlink:href="#DejaVuSans-31" x="95.410156"/>
       <use xlink:href="#DejaVuSans-34" x="159.033203"/>
      </g>
     </g>
    </g>
    <g id="ytick_20">
     <g id="line2d_44">
      <g>
       <use xlink:href="#ma46100e6be" x="54.245" y="412.589026" style="stroke: #000000; stroke-width: 0.8"/>
      </g>
     </g>
     <g id="text_47">
      <!-- 0.16 -->
      <g transform="translate(24.979375 416.388245) scale(0.1 -0.1)">
       <use xlink:href="#DejaVuSans-30"/>
       <use xlink:href="#DejaVuSans-2e" x="63.623047"/>
       <use xlink:href="#DejaVuSans-31" x="95.410156"/>
       <use xlink:href="#DejaVuSans-36" x="159.033203"/>
      </g>
     </g>
    </g>
    <g id="text_48">
     <!-- MAE -->
     <g transform="translate(18.899687 540.29375) rotate(-90) scale(0.1 -0.1)">
      <defs>
       <path id="DejaVuSans-4d" d="M 628 4666 
L 1569 4666 
L 2759 1491 
L 3956 4666 
L 4897 4666 
L 4897 0 
L 4281 0 
L 4281 4097 
L 3078 897 
L 2444 897 
L 1241 4097 
L 1241 0 
L 628 0 
L 628 4666 
z
" transform="scale(0.015625)"/>
       <path id="DejaVuSans-41" d="M 2188 4044 
L 1331 1722 
L 3047 1722 
L 2188 4044 
z
M 1831 4666 
L 2547 4666 
L 4325 0 
L 3669 0 
L 3244 1197 
L 1141 1197 
L 716 0 
L 50 0 
L 1831 4666 
z
" transform="scale(0.015625)"/>
      </defs>
      <use xlink:href="#DejaVuSans-4d"/>
      <use xlink:href="#DejaVuSans-41" x="86.279297"/>
      <use xlink:href="#DejaVuSans-45" x="154.6875"/>
     </g>
    </g>
   </g>
   <g id="line2d_45">
    <path d="M 76.079318 501.5821 
L 77.994609 500.219827 
L 79.9099 504.449937 
L 81.825191 502.667156 
L 85.655774 512.013117 
L 87.571065 513.296994 
L 89.486356 512.97634 
L 91.401647 516.933099 
L 93.316938 519.107542 
L 95.232229 518.075484 
L 97.14752 519.218648 
L 99.062811 523.454796 
L 100.978102 526.978461 
L 102.893393 525.924077 
L 104.808684 524.572502 
L 106.723975 528.388788 
L 108.639266 529.60753 
L 110.554557 531.98051 
L 112.469848 532.53334 
L 114.38514 531.991643 
L 116.300431 536.2286 
L 118.215722 537.585644 
L 120.131013 541.868287 
L 122.046304 540.662281 
L 123.961595 540.484512 
L 125.876886 539.829717 
L 127.792177 544.744979 
L 129.707468 543.137765 
L 131.622759 548.176449 
L 135.453341 549.094855 
L 137.368632 546.684041 
L 139.283923 553.083455 
L 141.199215 549.597384 
L 143.114506 555.48886 
L 145.029797 550.569657 
L 146.945088 554.993583 
L 148.860379 556.776528 
L 150.77567 555.706126 
L 152.690961 557.42951 
L 154.606252 562.184325 
L 156.521543 558.453807 
L 158.436834 561.516569 
L 160.352125 559.927889 
L 162.267416 565.038691 
L 164.182707 564.93229 
L 166.097998 566.194831 
L 168.013289 568.864401 
L 169.928581 565.589378 
L 171.843872 568.64213 
L 173.759163 567.359542 
L 175.674454 567.278599 
L 177.589745 573.491778 
L 181.420327 568.929266 
L 183.335618 573.085745 
L 185.250909 571.519901 
L 187.1662 574.710056 
L 189.081491 575.007606 
L 190.996782 576.889144 
L 192.912073 577.327408 
L 194.827364 577.92387 
L 196.742656 580.18038 
L 198.657947 578.353787 
L 200.573238 579.043839 
L 202.488529 579.169389 
L 204.40382 581.640648 
L 206.319111 583.787776 
L 208.234402 582.639862 
L 210.149693 581.351279 
L 212.064984 584.544161 
L 215.895566 584.857713 
L 217.810857 587.777005 
L 219.726148 586.970453 
L 221.641439 587.024036 
L 223.55673 589.176677 
L 225.472022 591.051249 
L 227.387313 591.039262 
L 229.302604 590.676188 
L 231.217895 593.788621 
L 233.133186 590.643403 
L 235.048477 595.987308 
L 236.963768 592.455372 
L 238.879059 595.863002 
L 240.79435 593.916418 
L 242.709641 594.798668 
L 244.624932 595.401559 
L 246.540223 597.686074 
L 248.455514 596.873529 
L 250.370805 596.521168 
L 252.286096 598.615583 
L 254.201388 600.498126 
L 256.116679 597.577381 
L 258.03197 598.37695 
L 259.947261 602.125928 
L 261.862552 602.443631 
L 263.777843 602.480716 
L 265.693134 600.333903 
L 267.608425 598.801098 
L 269.523716 603.208287 
L 271.439007 601.797721 
L 273.354298 603.316681 
L 275.269589 605.830703 
L 277.18488 603.96716 
L 279.100171 606.694613 
L 281.015463 607.42202 
L 282.930754 604.282436 
L 284.846045 605.941824 
L 286.761336 605.780717 
L 288.676627 608.752632 
L 290.591918 606.863586 
L 292.507209 608.431483 
L 294.4225 609.664108 
L 296.337791 612.09987 
L 298.253082 609.865828 
L 300.168373 609.556659 
L 302.083664 612.634696 
L 303.998955 608.809278 
L 305.914246 617.132051 
L 307.829537 615.895103 
L 309.744829 611.387477 
L 311.66012 615.471644 
L 313.575411 612.334255 
L 315.490702 615.766212 
L 317.405993 610.549834 
L 319.321284 616.535431 
L 321.236575 615.660186 
L 323.151866 613.914146 
L 325.067157 619.630131 
L 326.982448 617.459051 
L 328.897739 617.998628 
L 330.81303 617.965731 
L 332.728321 618.631239 
L 334.643612 620.243271 
L 338.474195 619.344014 
L 340.389486 620.096623 
L 342.304777 620.542371 
L 344.220068 621.49058 
L 346.135359 617.571618 
L 348.05065 622.126682 
L 349.965941 622.727153 
L 351.881232 621.487433 
L 353.796523 622.874624 
L 355.711814 620.554013 
L 357.627105 622.388473 
L 359.542396 622.30057 
L 361.457687 620.582872 
L 363.372978 626.372578 
L 365.28827 626.224425 
L 367.203561 623.101001 
L 369.118852 627.512453 
L 371.034143 622.851302 
L 372.949434 626.928816 
L 374.864725 627.39405 
L 376.780016 625.353068 
L 378.695307 629.378243 
L 380.610598 625.16078 
L 382.525889 626.538928 
L 384.44118 629.052779 
L 386.356471 626.732655 
L 388.271762 625.224671 
L 390.187053 629.131452 
L 392.102344 627.80287 
L 394.017636 627.123749 
L 395.932927 630.940296 
L 397.848218 630.319687 
L 399.763509 630.456812 
L 401.6788 631.335788 
L 403.594091 629.780365 
L 405.509382 631.680806 
L 407.424673 634.161018 
L 409.339964 632.122373 
L 411.255255 631.239914 
L 413.170546 629.287748 
L 415.085837 630.199959 
L 417.001128 632.041221 
L 418.916419 630.450481 
L 420.831711 632.460657 
L 422.747002 631.784794 
L 424.662293 635.634883 
L 426.577584 635.726465 
L 428.492875 633.353612 
L 430.408166 633.355118 
L 432.323457 632.952892 
L 434.238748 636.786498 
L 436.154039 632.642711 
L 438.06933 635.200943 
L 439.984621 636.553267 
L 441.899912 637.345554 
L 443.815203 637.080189 
L 445.730494 633.140482 
L 447.645785 635.194575 
L 449.561077 637.689681 
L 451.476368 635.968162 
L 453.391659 636.500254 
L 455.30695 635.854742 
L 457.222241 636.713272 
L 459.137532 638.467178 
L 461.052823 638.473906 
L 462.968114 639.218492 
L 464.883405 641.795567 
L 466.798696 635.871621 
L 468.713987 636.572963 
L 470.629278 641.364533 
L 472.544569 641.505292 
L 474.45986 639.251981 
L 476.375152 638.157709 
L 478.290443 638.30073 
L 480.205734 638.938623 
L 482.121025 638.147363 
L 484.036316 640.113231 
L 485.951607 639.835355 
L 487.866898 643.796879 
L 489.782189 641.703071 
L 491.69748 640.208798 
L 493.612771 644.789995 
L 495.528062 640.935186 
L 497.443353 640.694365 
L 499.358644 642.085759 
L 501.273935 641.102068 
L 503.189226 641.986663 
L 505.104518 644.140924 
L 507.019809 638.837999 
L 508.9351 643.841261 
L 510.850391 643.342815 
L 512.765682 641.341735 
L 512.765682 641.341735 
" clip-path="url(#p1975478567)" style="fill: none; stroke: #1f77b4; stroke-width: 1.5; stroke-linecap: square"/>
   </g>
   <g id="line2d_46">
    <path d="M 76.079318 467.779431 
L 77.994609 539.925344 
L 79.9099 495.622747 
L 81.825191 507.026202 
L 83.740482 495.54615 
L 85.655774 494.883878 
L 87.571065 480.429858 
L 89.486356 493.211004 
L 91.401647 526.056774 
L 93.316938 512.27012 
L 95.232229 394.272727 
L 97.14752 538.929831 
L 99.062811 467.625996 
L 100.978102 515.21451 
L 102.893393 490.44789 
L 104.808684 498.958051 
L 106.723975 521.141152 
L 108.639266 538.570189 
L 110.554557 543.894375 
L 112.469848 499.101416 
L 114.38514 526.344224 
L 116.300431 483.905006 
L 118.215722 535.201696 
L 120.131013 529.986547 
L 122.046304 522.60599 
L 123.961595 558.704232 
L 125.876886 567.157244 
L 127.792177 573.278483 
L 129.707468 545.17181 
L 131.622759 579.587154 
L 133.53805 527.111998 
L 135.453341 552.364559 
L 137.368632 553.613209 
L 139.283923 506.073618 
L 141.199215 542.93782 
L 143.114506 540.014364 
L 145.029797 593.601428 
L 146.945088 524.295496 
L 148.860379 525.746878 
L 150.77567 542.323362 
L 152.690961 544.872672 
L 154.606252 543.99255 
L 156.521543 582.769472 
L 158.436834 528.655336 
L 160.352125 557.105933 
L 162.267416 574.900021 
L 164.182707 561.92413 
L 166.097998 583.637442 
L 168.013289 503.388689 
L 169.928581 554.34135 
L 171.843872 565.814975 
L 173.759163 564.239332 
L 175.674454 586.296554 
L 177.589745 566.600099 
L 179.505036 592.959414 
L 181.420327 602.150681 
L 183.335618 581.084537 
L 185.250909 531.115476 
L 187.1662 567.304026 
L 189.081491 595.207263 
L 190.996782 531.389052 
L 192.912073 569.718077 
L 194.827364 611.647702 
L 196.742656 515.345978 
L 198.657947 568.100688 
L 200.573238 559.960689 
L 202.488529 556.547155 
L 204.40382 620.679533 
L 206.319111 578.170639 
L 208.234402 579.655975 
L 210.149693 576.185307 
L 212.064984 591.948573 
L 213.980275 591.490546 
L 215.895566 563.184797 
L 217.810857 565.679371 
L 219.726148 575.652991 
L 221.641439 556.451213 
L 223.55673 574.851848 
L 225.472022 608.654787 
L 227.387313 618.812102 
L 229.302604 602.123306 
L 231.217895 611.14088 
L 233.133186 598.234753 
L 235.048477 589.180963 
L 236.963768 575.340592 
L 238.879059 585.612421 
L 240.79435 564.261313 
L 242.709641 570.004328 
L 244.624932 592.412068 
L 246.540223 612.592592 
L 248.455514 597.202455 
L 250.370805 561.739229 
L 252.286096 612.029139 
L 254.201388 617.785879 
L 256.116679 593.021927 
L 258.03197 579.467823 
L 259.947261 627.049961 
L 261.862552 627.672098 
L 263.777843 576.740654 
L 265.693134 603.14997 
L 267.608425 570.563361 
L 269.523716 609.319629 
L 271.439007 580.634346 
L 273.354298 615.367086 
L 275.269589 616.007167 
L 277.18488 613.038976 
L 279.100171 601.09291 
L 281.015463 600.064238 
L 282.930754 624.45483 
L 284.846045 607.202147 
L 286.761336 608.446107 
L 288.676627 617.659281 
L 290.591918 593.257068 
L 292.507209 556.842412 
L 294.4225 619.037729 
L 296.337791 632.051155 
L 300.168373 594.860492 
L 302.083664 629.969364 
L 303.998955 597.495015 
L 305.914246 611.353763 
L 307.829537 580.408315 
L 309.744829 610.671765 
L 311.66012 625.350056 
L 313.575411 617.735489 
L 315.490702 608.551249 
L 317.405993 639.516596 
L 319.321284 617.702689 
L 321.236575 637.233257 
L 323.151866 563.286358 
L 325.067157 613.999846 
L 326.982448 631.840677 
L 328.897739 617.365754 
L 330.81303 589.472744 
L 332.728321 614.79238 
L 334.643612 644.458222 
L 336.558904 596.791687 
L 338.474195 642.863242 
L 340.389486 637.448613 
L 342.304777 626.373154 
L 344.220068 637.312747 
L 346.135359 616.525234 
L 348.05065 611.87431 
L 349.965941 609.540731 
L 351.881232 606.590805 
L 353.796523 615.033568 
L 355.711814 621.542821 
L 357.627105 602.480206 
L 359.542396 615.065589 
L 361.457687 595.214426 
L 363.372978 614.859456 
L 365.28827 600.433141 
L 367.203561 624.866527 
L 369.118852 632.008893 
L 371.034143 633.638561 
L 372.949434 627.041675 
L 374.864725 646.919614 
L 376.780016 638.573976 
L 378.695307 645.063031 
L 380.610598 595.04776 
L 382.525889 636.441682 
L 384.44118 605.131961 
L 386.356471 606.515361 
L 388.271762 612.947934 
L 390.187053 634.243954 
L 392.102344 640.131601 
L 394.017636 616.778454 
L 395.932927 615.695982 
L 397.848218 647.659435 
L 399.763509 615.51255 
L 401.6788 631.589682 
L 403.594091 642.752788 
L 405.509382 623.682479 
L 407.424673 636.809199 
L 409.339964 625.896608 
L 411.255255 654.181619 
L 413.170546 630.123541 
L 415.085837 647.577982 
L 417.001128 660.819658 
L 418.916419 630.267326 
L 420.831711 585.04179 
L 422.747002 645.465887 
L 424.662293 636.912168 
L 426.577584 633.294554 
L 428.492875 642.365673 
L 430.408166 644.393641 
L 432.323457 635.815941 
L 434.238748 609.592672 
L 436.154039 634.523245 
L 438.06933 625.780041 
L 439.984621 621.946344 
L 441.899912 637.909651 
L 443.815203 598.858127 
L 445.730494 628.414699 
L 447.645785 602.276081 
L 449.561077 625.124879 
L 451.476368 618.280369 
L 453.391659 625.477584 
L 455.30695 617.822058 
L 457.222241 632.042846 
L 459.137532 662.778221 
L 461.052823 601.67331 
L 462.968114 620.487275 
L 464.883405 628.667806 
L 466.798696 649.438401 
L 468.713987 646.166143 
L 470.629278 657.059 
L 472.544569 640.799709 
L 474.45986 651.339674 
L 476.375152 619.945324 
L 478.290443 653.712601 
L 480.205734 636.366501 
L 482.121025 643.243083 
L 484.036316 638.554205 
L 485.951607 654.213639 
L 487.866898 575.589954 
L 489.782189 630.887298 
L 491.69748 632.49494 
L 493.612771 655.196588 
L 495.528062 624.351052 
L 497.443353 621.59068 
L 499.358644 637.916694 
L 501.273935 642.599016 
L 503.189226 648.522857 
L 505.104518 620.32255 
L 507.019809 664.527273 
L 508.9351 660.496988 
L 510.850391 646.730495 
L 512.765682 656.230662 
L 512.765682 656.230662 
" clip-path="url(#p1975478567)" style="fill: none; stroke: #ff7f0e; stroke-width: 1.5; stroke-linecap: square"/>
   </g>
   <g id="patch_15">
    <path d="M 54.245 678.04 
L 54.245 380.76 
" style="fill: none; stroke: #000000; stroke-width: 0.8; stroke-linejoin: miter; stroke-linecap: square"/>
   </g>
   <g id="patch_16">
    <path d="M 534.6 678.04 
L 534.6 380.76 
" style="fill: none; stroke: #000000; stroke-width: 0.8; stroke-linejoin: miter; stroke-linecap: square"/>
   </g>
   <g id="patch_17">
    <path d="M 54.245 678.04 
L 534.6 678.04 
" style="fill: none; stroke: #000000; stroke-width: 0.8; stroke-linejoin: miter; stroke-linecap: square"/>
   </g>
   <g id="patch_18">
    <path d="M 54.245 380.76 
L 534.6 380.76 
" style="fill: none; stroke: #000000; stroke-width: 0.8; stroke-linejoin: miter; stroke-linecap: square"/>
   </g>
   <g id="text_49">
    <!-- Training and Validation MAE (Skip first 50) -->
    <g transform="translate(168.520937 374.76) scale(0.12 -0.12)">
     <use xlink:href="#DejaVuSans-54"/>
     <use xlink:href="#DejaVuSans-72" x="46.333984"/>
     <use xlink:href="#DejaVuSans-61" x="87.447266"/>
     <use xlink:href="#DejaVuSans-69" x="148.726562"/>
     <use xlink:href="#DejaVuSans-6e" x="176.509766"/>
     <use xlink:href="#DejaVuSans-69" x="239.888672"/>
     <use xlink:href="#DejaVuSans-6e" x="267.671875"/>
     <use xlink:href="#DejaVuSans-67" x="331.050781"/>
     <use xlink:href="#DejaVuSans-20" x="394.527344"/>
     <use xlink:href="#DejaVuSans-61" x="426.314453"/>
     <use xlink:href="#DejaVuSans-6e" x="487.59375"/>
     <use xlink:href="#DejaVuSans-64" x="550.972656"/>
     <use xlink:href="#DejaVuSans-20" x="614.449219"/>
     <use xlink:href="#DejaVuSans-56" x="646.236328"/>
     <use xlink:href="#DejaVuSans-61" x="706.894531"/>
     <use xlink:href="#DejaVuSans-6c" x="768.173828"/>
     <use xlink:href="#DejaVuSans-69" x="795.957031"/>
     <use xlink:href="#DejaVuSans-64" x="823.740234"/>
     <use xlink:href="#DejaVuSans-61" x="887.216797"/>
     <use xlink:href="#DejaVuSans-74" x="948.496094"/>
     <use xlink:href="#DejaVuSans-69" x="987.705078"/>
     <use xlink:href="#DejaVuSans-6f" x="1015.488281"/>
     <use xlink:href="#DejaVuSans-6e" x="1076.669922"/>
     <use xlink:href="#DejaVuSans-20" x="1140.048828"/>
     <use xlink:href="#DejaVuSans-4d" x="1171.835938"/>
     <use xlink:href="#DejaVuSans-41" x="1258.115234"/>
     <use xlink:href="#DejaVuSans-45" x="1326.523438"/>
     <use xlink:href="#DejaVuSans-20" x="1389.707031"/>
     <use xlink:href="#DejaVuSans-28" x="1421.494141"/>
     <use xlink:href="#DejaVuSans-53" x="1460.507812"/>
     <use xlink:href="#DejaVuSans-6b" x="1523.984375"/>
     <use xlink:href="#DejaVuSans-69" x="1581.894531"/>
     <use xlink:href="#DejaVuSans-70" x="1609.677734"/>
     <use xlink:href="#DejaVuSans-20" x="1673.154297"/>
     <use xlink:href="#DejaVuSans-66" x="1704.941406"/>
     <use xlink:href="#DejaVuSans-69" x="1740.146484"/>
     <use xlink:href="#DejaVuSans-72" x="1767.929688"/>
     <use xlink:href="#DejaVuSans-73" x="1809.042969"/>
     <use xlink:href="#DejaVuSans-74" x="1861.142578"/>
     <use xlink:href="#DejaVuSans-20" x="1900.351562"/>
     <use xlink:href="#DejaVuSans-35" x="1932.138672"/>
     <use xlink:href="#DejaVuSans-30" x="1995.761719"/>
     <use xlink:href="#DejaVuSans-29" x="2059.384766"/>
    </g>
   </g>
   <g id="legend_3">
    <g id="patch_19">
     <path d="M 421.253125 418.11625 
L 527.6 418.11625 
Q 529.6 418.11625 529.6 416.11625 
L 529.6 387.76 
Q 529.6 385.76 527.6 385.76 
L 421.253125 385.76 
Q 419.253125 385.76 419.253125 387.76 
L 419.253125 416.11625 
Q 419.253125 418.11625 421.253125 418.11625 
z
" style="fill: #ffffff; opacity: 0.8; stroke: #cccccc; stroke-linejoin: miter"/>
    </g>
    <g id="line2d_47">
     <path d="M 423.253125 393.858438 
L 433.253125 393.858438 
L 443.253125 393.858438 
" style="fill: none; stroke: #1f77b4; stroke-width: 1.5; stroke-linecap: square"/>
    </g>
    <g id="text_50">
     <!-- Training MAE -->
     <g transform="translate(451.253125 397.358438) scale(0.1 -0.1)">
      <use xlink:href="#DejaVuSans-54"/>
      <use xlink:href="#DejaVuSans-72" x="46.333984"/>
      <use xlink:href="#DejaVuSans-61" x="87.447266"/>
      <use xlink:href="#DejaVuSans-69" x="148.726562"/>
      <use xlink:href="#DejaVuSans-6e" x="176.509766"/>
      <use xlink:href="#DejaVuSans-69" x="239.888672"/>
      <use xlink:href="#DejaVuSans-6e" x="267.671875"/>
      <use xlink:href="#DejaVuSans-67" x="331.050781"/>
      <use xlink:href="#DejaVuSans-20" x="394.527344"/>
      <use xlink:href="#DejaVuSans-4d" x="426.314453"/>
      <use xlink:href="#DejaVuSans-41" x="512.59375"/>
      <use xlink:href="#DejaVuSans-45" x="581.001953"/>
     </g>
    </g>
    <g id="line2d_48">
     <path d="M 423.253125 408.536563 
L 433.253125 408.536563 
L 443.253125 408.536563 
" style="fill: none; stroke: #ff7f0e; stroke-width: 1.5; stroke-linecap: square"/>
    </g>
    <g id="text_51">
     <!-- Validation MAE -->
     <g transform="translate(451.253125 412.036563) scale(0.1 -0.1)">
      <use xlink:href="#DejaVuSans-56"/>
      <use xlink:href="#DejaVuSans-61" x="60.658203"/>
      <use xlink:href="#DejaVuSans-6c" x="121.9375"/>
      <use xlink:href="#DejaVuSans-69" x="149.720703"/>
      <use xlink:href="#DejaVuSans-64" x="177.503906"/>
      <use xlink:href="#DejaVuSans-61" x="240.980469"/>
      <use xlink:href="#DejaVuSans-74" x="302.259766"/>
      <use xlink:href="#DejaVuSans-69" x="341.46875"/>
      <use xlink:href="#DejaVuSans-6f" x="369.251953"/>
      <use xlink:href="#DejaVuSans-6e" x="430.433594"/>
      <use xlink:href="#DejaVuSans-20" x="493.8125"/>
      <use xlink:href="#DejaVuSans-4d" x="525.599609"/>
      <use xlink:href="#DejaVuSans-41" x="611.878906"/>
      <use xlink:href="#DejaVuSans-45" x="680.287109"/>
     </g>
    </g>
   </g>
  </g>
  <g id="axes_4"/>
 </g>
 <defs>
  <clipPath id="pd4238d0452">
   <rect x="54.245" y="26.16" width="480.355" height="297.28"/>
  </clipPath>
  <clipPath id="p516ffb4684">
   <rect x="588.845" y="26.16" width="480.355" height="297.28"/>
  </clipPath>
  <clipPath id="p1975478567">
   <rect x="54.245" y="380.76" width="480.355" height="297.28"/>
  </clipPath>
 </defs>
</svg>
