<?xml version="1.0" encoding="utf-8" standalone="no"?>
<!DOCTYPE svg PUBLIC "-//W3C//DTD SVG 1.1//EN"
  "http://www.w3.org/Graphics/SVG/1.1/DTD/svg11.dtd">
<svg xmlns:xlink="http://www.w3.org/1999/xlink" width="1080pt" height="720pt" viewBox="0 0 1080 720" xmlns="http://www.w3.org/2000/svg" version="1.1">
 <metadata>
  <rdf:RDF xmlns:dc="http://purl.org/dc/elements/1.1/" xmlns:cc="http://creativecommons.org/ns#" xmlns:rdf="http://www.w3.org/1999/02/22-rdf-syntax-ns#">
   <cc:Work>
    <dc:type rdf:resource="http://purl.org/dc/dcmitype/StillImage"/>
    <dc:date>2024-04-13T12:11:54.355183</dc:date>
    <dc:format>image/svg+xml</dc:format>
    <dc:creator>
     <cc:Agent>
      <dc:title>Matplotlib v3.8.3, https://matplotlib.org/</dc:title>
     </cc:Agent>
    </dc:creator>
   </cc:Work>
  </rdf:RDF>
 </metadata>
 <defs>
  <style type="text/css">*{stroke-linejoin: round; stroke-linecap: butt}</style>
 </defs>
 <g id="figure_1">
  <g id="patch_1">
   <path d="M 0 720 
L 1080 720 
L 1080 0 
L 0 0 
z
" style="fill: #ffffff"/>
  </g>
  <g id="axes_1">
   <g id="patch_2">
    <path d="M 54.245 323.44 
L 531.405 323.44 
L 531.405 26.16 
L 54.245 26.16 
z
" style="fill: #ffffff"/>
   </g>
   <g id="matplotlib.axis_1">
    <g id="xtick_1">
     <g id="line2d_1">
      <defs>
       <path id="ma334c58ac7" d="M 0 0 
L 0 3.5 
" style="stroke: #000000; stroke-width: 0.8"/>
      </defs>
      <g>
       <use xlink:href="#ma334c58ac7" x="74.525708" y="323.44" style="stroke: #000000; stroke-width: 0.8"/>
      </g>
     </g>
     <g id="text_1">
      <!-- 0 -->
      <g transform="translate(71.344458 338.038438) scale(0.1 -0.1)">
       <defs>
        <path id="DejaVuSans-30" d="M 2034 4250 
Q 1547 4250 1301 3770 
Q 1056 3291 1056 2328 
Q 1056 1369 1301 889 
Q 1547 409 2034 409 
Q 2525 409 2770 889 
Q 3016 1369 3016 2328 
Q 3016 3291 2770 3770 
Q 2525 4250 2034 4250 
z
M 2034 4750 
Q 2819 4750 3233 4129 
Q 3647 3509 3647 2328 
Q 3647 1150 3233 529 
Q 2819 -91 2034 -91 
Q 1250 -91 836 529 
Q 422 1150 422 2328 
Q 422 3509 836 4129 
Q 1250 4750 2034 4750 
z
" transform="scale(0.015625)"/>
       </defs>
       <use xlink:href="#DejaVuSans-30"/>
      </g>
     </g>
    </g>
    <g id="xtick_2">
     <g id="line2d_2">
      <g>
       <use xlink:href="#ma334c58ac7" x="144.944835" y="323.44" style="stroke: #000000; stroke-width: 0.8"/>
      </g>
     </g>
     <g id="text_2">
      <!-- 50 -->
      <g transform="translate(138.582335 338.038438) scale(0.1 -0.1)">
       <defs>
        <path id="DejaVuSans-35" d="M 691 4666 
L 3169 4666 
L 3169 4134 
L 1269 4134 
L 1269 2991 
Q 1406 3038 1543 3061 
Q 1681 3084 1819 3084 
Q 2600 3084 3056 2656 
Q 3513 2228 3513 1497 
Q 3513 744 3044 326 
Q 2575 -91 1722 -91 
Q 1428 -91 1123 -41 
Q 819 9 494 109 
L 494 744 
Q 775 591 1075 516 
Q 1375 441 1709 441 
Q 2250 441 2565 725 
Q 2881 1009 2881 1497 
Q 2881 1984 2565 2268 
Q 2250 2553 1709 2553 
Q 1456 2553 1204 2497 
Q 953 2441 691 2322 
L 691 4666 
z
" transform="scale(0.015625)"/>
       </defs>
       <use xlink:href="#DejaVuSans-35"/>
       <use xlink:href="#DejaVuSans-30" x="63.623047"/>
      </g>
     </g>
    </g>
    <g id="xtick_3">
     <g id="line2d_3">
      <g>
       <use xlink:href="#ma334c58ac7" x="215.363961" y="323.44" style="stroke: #000000; stroke-width: 0.8"/>
      </g>
     </g>
     <g id="text_3">
      <!-- 100 -->
      <g transform="translate(205.820211 338.038438) scale(0.1 -0.1)">
       <defs>
        <path id="DejaVuSans-31" d="M 794 531 
L 1825 531 
L 1825 4091 
L 703 3866 
L 703 4441 
L 1819 4666 
L 2450 4666 
L 2450 531 
L 3481 531 
L 3481 0 
L 794 0 
L 794 531 
z
" transform="scale(0.015625)"/>
       </defs>
       <use xlink:href="#DejaVuSans-31"/>
       <use xlink:href="#DejaVuSans-30" x="63.623047"/>
       <use xlink:href="#DejaVuSans-30" x="127.246094"/>
      </g>
     </g>
    </g>
    <g id="xtick_4">
     <g id="line2d_4">
      <g>
       <use xlink:href="#ma334c58ac7" x="285.783087" y="323.44" style="stroke: #000000; stroke-width: 0.8"/>
      </g>
     </g>
     <g id="text_4">
      <!-- 150 -->
      <g transform="translate(276.239337 338.038438) scale(0.1 -0.1)">
       <use xlink:href="#DejaVuSans-31"/>
       <use xlink:href="#DejaVuSans-35" x="63.623047"/>
       <use xlink:href="#DejaVuSans-30" x="127.246094"/>
      </g>
     </g>
    </g>
    <g id="xtick_5">
     <g id="line2d_5">
      <g>
       <use xlink:href="#ma334c58ac7" x="356.202214" y="323.44" style="stroke: #000000; stroke-width: 0.8"/>
      </g>
     </g>
     <g id="text_5">
      <!-- 200 -->
      <g transform="translate(346.658464 338.038438) scale(0.1 -0.1)">
       <defs>
        <path id="DejaVuSans-32" d="M 1228 531 
L 3431 531 
L 3431 0 
L 469 0 
L 469 531 
Q 828 903 1448 1529 
Q 2069 2156 2228 2338 
Q 2531 2678 2651 2914 
Q 2772 3150 2772 3378 
Q 2772 3750 2511 3984 
Q 2250 4219 1831 4219 
Q 1534 4219 1204 4116 
Q 875 4013 500 3803 
L 500 4441 
Q 881 4594 1212 4672 
Q 1544 4750 1819 4750 
Q 2544 4750 2975 4387 
Q 3406 4025 3406 3419 
Q 3406 3131 3298 2873 
Q 3191 2616 2906 2266 
Q 2828 2175 2409 1742 
Q 1991 1309 1228 531 
z
" transform="scale(0.015625)"/>
       </defs>
       <use xlink:href="#DejaVuSans-32"/>
       <use xlink:href="#DejaVuSans-30" x="63.623047"/>
       <use xlink:href="#DejaVuSans-30" x="127.246094"/>
      </g>
     </g>
    </g>
    <g id="xtick_6">
     <g id="line2d_6">
      <g>
       <use xlink:href="#ma334c58ac7" x="426.62134" y="323.44" style="stroke: #000000; stroke-width: 0.8"/>
      </g>
     </g>
     <g id="text_6">
      <!-- 250 -->
      <g transform="translate(417.07759 338.038438) scale(0.1 -0.1)">
       <use xlink:href="#DejaVuSans-32"/>
       <use xlink:href="#DejaVuSans-35" x="63.623047"/>
       <use xlink:href="#DejaVuSans-30" x="127.246094"/>
      </g>
     </g>
    </g>
    <g id="xtick_7">
     <g id="line2d_7">
      <g>
       <use xlink:href="#ma334c58ac7" x="497.040466" y="323.44" style="stroke: #000000; stroke-width: 0.8"/>
      </g>
     </g>
     <g id="text_7">
      <!-- 300 -->
      <g transform="translate(487.496716 338.038438) scale(0.1 -0.1)">
       <defs>
        <path id="DejaVuSans-33" d="M 2597 2516 
Q 3050 2419 3304 2112 
Q 3559 1806 3559 1356 
Q 3559 666 3084 287 
Q 2609 -91 1734 -91 
Q 1441 -91 1130 -33 
Q 819 25 488 141 
L 488 750 
Q 750 597 1062 519 
Q 1375 441 1716 441 
Q 2309 441 2620 675 
Q 2931 909 2931 1356 
Q 2931 1769 2642 2001 
Q 2353 2234 1838 2234 
L 1294 2234 
L 1294 2753 
L 1863 2753 
Q 2328 2753 2575 2939 
Q 2822 3125 2822 3475 
Q 2822 3834 2567 4026 
Q 2313 4219 1838 4219 
Q 1578 4219 1281 4162 
Q 984 4106 628 3988 
L 628 4550 
Q 988 4650 1302 4700 
Q 1616 4750 1894 4750 
Q 2613 4750 3031 4423 
Q 3450 4097 3450 3541 
Q 3450 3153 3228 2886 
Q 3006 2619 2597 2516 
z
" transform="scale(0.015625)"/>
       </defs>
       <use xlink:href="#DejaVuSans-33"/>
       <use xlink:href="#DejaVuSans-30" x="63.623047"/>
       <use xlink:href="#DejaVuSans-30" x="127.246094"/>
      </g>
     </g>
    </g>
    <g id="text_8">
     <!-- Epochs -->
     <g transform="translate(274.909375 351.716563) scale(0.1 -0.1)">
      <defs>
       <path id="DejaVuSans-45" d="M 628 4666 
L 3578 4666 
L 3578 4134 
L 1259 4134 
L 1259 2753 
L 3481 2753 
L 3481 2222 
L 1259 2222 
L 1259 531 
L 3634 531 
L 3634 0 
L 628 0 
L 628 4666 
z
" transform="scale(0.015625)"/>
       <path id="DejaVuSans-70" d="M 1159 525 
L 1159 -1331 
L 581 -1331 
L 581 3500 
L 1159 3500 
L 1159 2969 
Q 1341 3281 1617 3432 
Q 1894 3584 2278 3584 
Q 2916 3584 3314 3078 
Q 3713 2572 3713 1747 
Q 3713 922 3314 415 
Q 2916 -91 2278 -91 
Q 1894 -91 1617 61 
Q 1341 213 1159 525 
z
M 3116 1747 
Q 3116 2381 2855 2742 
Q 2594 3103 2138 3103 
Q 1681 3103 1420 2742 
Q 1159 2381 1159 1747 
Q 1159 1113 1420 752 
Q 1681 391 2138 391 
Q 2594 391 2855 752 
Q 3116 1113 3116 1747 
z
" transform="scale(0.015625)"/>
       <path id="DejaVuSans-6f" d="M 1959 3097 
Q 1497 3097 1228 2736 
Q 959 2375 959 1747 
Q 959 1119 1226 758 
Q 1494 397 1959 397 
Q 2419 397 2687 759 
Q 2956 1122 2956 1747 
Q 2956 2369 2687 2733 
Q 2419 3097 1959 3097 
z
M 1959 3584 
Q 2709 3584 3137 3096 
Q 3566 2609 3566 1747 
Q 3566 888 3137 398 
Q 2709 -91 1959 -91 
Q 1206 -91 779 398 
Q 353 888 353 1747 
Q 353 2609 779 3096 
Q 1206 3584 1959 3584 
z
" transform="scale(0.015625)"/>
       <path id="DejaVuSans-63" d="M 3122 3366 
L 3122 2828 
Q 2878 2963 2633 3030 
Q 2388 3097 2138 3097 
Q 1578 3097 1268 2742 
Q 959 2388 959 1747 
Q 959 1106 1268 751 
Q 1578 397 2138 397 
Q 2388 397 2633 464 
Q 2878 531 3122 666 
L 3122 134 
Q 2881 22 2623 -34 
Q 2366 -91 2075 -91 
Q 1284 -91 818 406 
Q 353 903 353 1747 
Q 353 2603 823 3093 
Q 1294 3584 2113 3584 
Q 2378 3584 2631 3529 
Q 2884 3475 3122 3366 
z
" transform="scale(0.015625)"/>
       <path id="DejaVuSans-68" d="M 3513 2113 
L 3513 0 
L 2938 0 
L 2938 2094 
Q 2938 2591 2744 2837 
Q 2550 3084 2163 3084 
Q 1697 3084 1428 2787 
Q 1159 2491 1159 1978 
L 1159 0 
L 581 0 
L 581 4863 
L 1159 4863 
L 1159 2956 
Q 1366 3272 1645 3428 
Q 1925 3584 2291 3584 
Q 2894 3584 3203 3211 
Q 3513 2838 3513 2113 
z
" transform="scale(0.015625)"/>
       <path id="DejaVuSans-73" d="M 2834 3397 
L 2834 2853 
Q 2591 2978 2328 3040 
Q 2066 3103 1784 3103 
Q 1356 3103 1142 2972 
Q 928 2841 928 2578 
Q 928 2378 1081 2264 
Q 1234 2150 1697 2047 
L 1894 2003 
Q 2506 1872 2764 1633 
Q 3022 1394 3022 966 
Q 3022 478 2636 193 
Q 2250 -91 1575 -91 
Q 1294 -91 989 -36 
Q 684 19 347 128 
L 347 722 
Q 666 556 975 473 
Q 1284 391 1588 391 
Q 1994 391 2212 530 
Q 2431 669 2431 922 
Q 2431 1156 2273 1281 
Q 2116 1406 1581 1522 
L 1381 1569 
Q 847 1681 609 1914 
Q 372 2147 372 2553 
Q 372 3047 722 3315 
Q 1072 3584 1716 3584 
Q 2034 3584 2315 3537 
Q 2597 3491 2834 3397 
z
" transform="scale(0.015625)"/>
      </defs>
      <use xlink:href="#DejaVuSans-45"/>
      <use xlink:href="#DejaVuSans-70" x="63.183594"/>
      <use xlink:href="#DejaVuSans-6f" x="126.660156"/>
      <use xlink:href="#DejaVuSans-63" x="187.841797"/>
      <use xlink:href="#DejaVuSans-68" x="242.822266"/>
      <use xlink:href="#DejaVuSans-73" x="306.201172"/>
     </g>
    </g>
   </g>
   <g id="matplotlib.axis_2">
    <g id="ytick_1">
     <g id="line2d_8">
      <defs>
       <path id="m41bbd5ff8a" d="M 0 0 
L -3.5 0 
" style="stroke: #000000; stroke-width: 0.8"/>
      </defs>
      <g>
       <use xlink:href="#m41bbd5ff8a" x="54.245" y="311.184496" style="stroke: #000000; stroke-width: 0.8"/>
      </g>
     </g>
     <g id="text_9">
      <!-- 0.00 -->
      <g transform="translate(24.979375 314.983715) scale(0.1 -0.1)">
       <defs>
        <path id="DejaVuSans-2e" d="M 684 794 
L 1344 794 
L 1344 0 
L 684 0 
L 684 794 
z
" transform="scale(0.015625)"/>
       </defs>
       <use xlink:href="#DejaVuSans-30"/>
       <use xlink:href="#DejaVuSans-2e" x="63.623047"/>
       <use xlink:href="#DejaVuSans-30" x="95.410156"/>
       <use xlink:href="#DejaVuSans-30" x="159.033203"/>
      </g>
     </g>
    </g>
    <g id="ytick_2">
     <g id="line2d_9">
      <g>
       <use xlink:href="#m41bbd5ff8a" x="54.245" y="277.979839" style="stroke: #000000; stroke-width: 0.8"/>
      </g>
     </g>
     <g id="text_10">
      <!-- 0.02 -->
      <g transform="translate(24.979375 281.779058) scale(0.1 -0.1)">
       <use xlink:href="#DejaVuSans-30"/>
       <use xlink:href="#DejaVuSans-2e" x="63.623047"/>
       <use xlink:href="#DejaVuSans-30" x="95.410156"/>
       <use xlink:href="#DejaVuSans-32" x="159.033203"/>
      </g>
     </g>
    </g>
    <g id="ytick_3">
     <g id="line2d_10">
      <g>
       <use xlink:href="#m41bbd5ff8a" x="54.245" y="244.775182" style="stroke: #000000; stroke-width: 0.8"/>
      </g>
     </g>
     <g id="text_11">
      <!-- 0.04 -->
      <g transform="translate(24.979375 248.574401) scale(0.1 -0.1)">
       <defs>
        <path id="DejaVuSans-34" d="M 2419 4116 
L 825 1625 
L 2419 1625 
L 2419 4116 
z
M 2253 4666 
L 3047 4666 
L 3047 1625 
L 3713 1625 
L 3713 1100 
L 3047 1100 
L 3047 0 
L 2419 0 
L 2419 1100 
L 313 1100 
L 313 1709 
L 2253 4666 
z
" transform="scale(0.015625)"/>
       </defs>
       <use xlink:href="#DejaVuSans-30"/>
       <use xlink:href="#DejaVuSans-2e" x="63.623047"/>
       <use xlink:href="#DejaVuSans-30" x="95.410156"/>
       <use xlink:href="#DejaVuSans-34" x="159.033203"/>
      </g>
     </g>
    </g>
    <g id="ytick_4">
     <g id="line2d_11">
      <g>
       <use xlink:href="#m41bbd5ff8a" x="54.245" y="211.570525" style="stroke: #000000; stroke-width: 0.8"/>
      </g>
     </g>
     <g id="text_12">
      <!-- 0.06 -->
      <g transform="translate(24.979375 215.369744) scale(0.1 -0.1)">
       <defs>
        <path id="DejaVuSans-36" d="M 2113 2584 
Q 1688 2584 1439 2293 
Q 1191 2003 1191 1497 
Q 1191 994 1439 701 
Q 1688 409 2113 409 
Q 2538 409 2786 701 
Q 3034 994 3034 1497 
Q 3034 2003 2786 2293 
Q 2538 2584 2113 2584 
z
M 3366 4563 
L 3366 3988 
Q 3128 4100 2886 4159 
Q 2644 4219 2406 4219 
Q 1781 4219 1451 3797 
Q 1122 3375 1075 2522 
Q 1259 2794 1537 2939 
Q 1816 3084 2150 3084 
Q 2853 3084 3261 2657 
Q 3669 2231 3669 1497 
Q 3669 778 3244 343 
Q 2819 -91 2113 -91 
Q 1303 -91 875 529 
Q 447 1150 447 2328 
Q 447 3434 972 4092 
Q 1497 4750 2381 4750 
Q 2619 4750 2861 4703 
Q 3103 4656 3366 4563 
z
" transform="scale(0.015625)"/>
       </defs>
       <use xlink:href="#DejaVuSans-30"/>
       <use xlink:href="#DejaVuSans-2e" x="63.623047"/>
       <use xlink:href="#DejaVuSans-30" x="95.410156"/>
       <use xlink:href="#DejaVuSans-36" x="159.033203"/>
      </g>
     </g>
    </g>
    <g id="ytick_5">
     <g id="line2d_12">
      <g>
       <use xlink:href="#m41bbd5ff8a" x="54.245" y="178.365868" style="stroke: #000000; stroke-width: 0.8"/>
      </g>
     </g>
     <g id="text_13">
      <!-- 0.08 -->
      <g transform="translate(24.979375 182.165087) scale(0.1 -0.1)">
       <defs>
        <path id="DejaVuSans-38" d="M 2034 2216 
Q 1584 2216 1326 1975 
Q 1069 1734 1069 1313 
Q 1069 891 1326 650 
Q 1584 409 2034 409 
Q 2484 409 2743 651 
Q 3003 894 3003 1313 
Q 3003 1734 2745 1975 
Q 2488 2216 2034 2216 
z
M 1403 2484 
Q 997 2584 770 2862 
Q 544 3141 544 3541 
Q 544 4100 942 4425 
Q 1341 4750 2034 4750 
Q 2731 4750 3128 4425 
Q 3525 4100 3525 3541 
Q 3525 3141 3298 2862 
Q 3072 2584 2669 2484 
Q 3125 2378 3379 2068 
Q 3634 1759 3634 1313 
Q 3634 634 3220 271 
Q 2806 -91 2034 -91 
Q 1263 -91 848 271 
Q 434 634 434 1313 
Q 434 1759 690 2068 
Q 947 2378 1403 2484 
z
M 1172 3481 
Q 1172 3119 1398 2916 
Q 1625 2713 2034 2713 
Q 2441 2713 2670 2916 
Q 2900 3119 2900 3481 
Q 2900 3844 2670 4047 
Q 2441 4250 2034 4250 
Q 1625 4250 1398 4047 
Q 1172 3844 1172 3481 
z
" transform="scale(0.015625)"/>
       </defs>
       <use xlink:href="#DejaVuSans-30"/>
       <use xlink:href="#DejaVuSans-2e" x="63.623047"/>
       <use xlink:href="#DejaVuSans-30" x="95.410156"/>
       <use xlink:href="#DejaVuSans-38" x="159.033203"/>
      </g>
     </g>
    </g>
    <g id="ytick_6">
     <g id="line2d_13">
      <g>
       <use xlink:href="#m41bbd5ff8a" x="54.245" y="145.161211" style="stroke: #000000; stroke-width: 0.8"/>
      </g>
     </g>
     <g id="text_14">
      <!-- 0.10 -->
      <g transform="translate(24.979375 148.96043) scale(0.1 -0.1)">
       <use xlink:href="#DejaVuSans-30"/>
       <use xlink:href="#DejaVuSans-2e" x="63.623047"/>
       <use xlink:href="#DejaVuSans-31" x="95.410156"/>
       <use xlink:href="#DejaVuSans-30" x="159.033203"/>
      </g>
     </g>
    </g>
    <g id="ytick_7">
     <g id="line2d_14">
      <g>
       <use xlink:href="#m41bbd5ff8a" x="54.245" y="111.956554" style="stroke: #000000; stroke-width: 0.8"/>
      </g>
     </g>
     <g id="text_15">
      <!-- 0.12 -->
      <g transform="translate(24.979375 115.755772) scale(0.1 -0.1)">
       <use xlink:href="#DejaVuSans-30"/>
       <use xlink:href="#DejaVuSans-2e" x="63.623047"/>
       <use xlink:href="#DejaVuSans-31" x="95.410156"/>
       <use xlink:href="#DejaVuSans-32" x="159.033203"/>
      </g>
     </g>
    </g>
    <g id="ytick_8">
     <g id="line2d_15">
      <g>
       <use xlink:href="#m41bbd5ff8a" x="54.245" y="78.751897" style="stroke: #000000; stroke-width: 0.8"/>
      </g>
     </g>
     <g id="text_16">
      <!-- 0.14 -->
      <g transform="translate(24.979375 82.551115) scale(0.1 -0.1)">
       <use xlink:href="#DejaVuSans-30"/>
       <use xlink:href="#DejaVuSans-2e" x="63.623047"/>
       <use xlink:href="#DejaVuSans-31" x="95.410156"/>
       <use xlink:href="#DejaVuSans-34" x="159.033203"/>
      </g>
     </g>
    </g>
    <g id="ytick_9">
     <g id="line2d_16">
      <g>
       <use xlink:href="#m41bbd5ff8a" x="54.245" y="45.54724" style="stroke: #000000; stroke-width: 0.8"/>
      </g>
     </g>
     <g id="text_17">
      <!-- 0.16 -->
      <g transform="translate(24.979375 49.346458) scale(0.1 -0.1)">
       <use xlink:href="#DejaVuSans-30"/>
       <use xlink:href="#DejaVuSans-2e" x="63.623047"/>
       <use xlink:href="#DejaVuSans-31" x="95.410156"/>
       <use xlink:href="#DejaVuSans-36" x="159.033203"/>
      </g>
     </g>
    </g>
    <g id="text_18">
     <!-- Loss -->
     <g transform="translate(18.899687 185.767188) rotate(-90) scale(0.1 -0.1)">
      <defs>
       <path id="DejaVuSans-4c" d="M 628 4666 
L 1259 4666 
L 1259 531 
L 3531 531 
L 3531 0 
L 628 0 
L 628 4666 
z
" transform="scale(0.015625)"/>
      </defs>
      <use xlink:href="#DejaVuSans-4c"/>
      <use xlink:href="#DejaVuSans-6f" x="53.962891"/>
      <use xlink:href="#DejaVuSans-73" x="115.144531"/>
      <use xlink:href="#DejaVuSans-73" x="167.244141"/>
     </g>
    </g>
   </g>
   <g id="line2d_17">
    <path d="M 75.934091 39.672727 
L 77.342473 145.634015 
L 78.750856 163.516852 
L 80.159238 171.442637 
L 82.976004 185.758634 
L 84.384386 189.767022 
L 85.792769 196.571692 
L 88.609534 207.959379 
L 90.017916 212.583104 
L 91.426299 219.221569 
L 92.834681 221.266806 
L 94.243064 228.187844 
L 95.651446 232.531717 
L 97.059829 235.611098 
L 98.468211 239.866306 
L 101.284976 246.725842 
L 102.693359 249.929785 
L 104.101741 254.733848 
L 105.510124 257.10528 
L 106.918506 258.728296 
L 108.326889 263.669815 
L 109.735272 264.847626 
L 111.143654 268.814437 
L 112.552037 269.907885 
L 113.960419 271.43707 
L 115.368802 274.281977 
L 116.777184 275.344435 
L 118.185567 276.636079 
L 119.593949 278.823512 
L 121.002332 281.660771 
L 122.410714 282.738225 
L 123.819097 283.669085 
L 125.227479 283.821334 
L 126.635862 286.117 
L 128.044244 287.867404 
L 129.452627 287.144406 
L 130.861009 288.506138 
L 132.269392 288.783904 
L 133.677774 289.328234 
L 135.086157 290.749089 
L 136.49454 291.312815 
L 137.902922 291.059222 
L 139.311305 291.066118 
L 140.719687 293.081699 
L 142.12807 292.932297 
L 143.536452 293.970809 
L 144.944835 294.723017 
L 146.353217 294.945862 
L 147.7616 293.483318 
L 149.169982 296.691574 
L 150.578365 296.036172 
L 151.986747 296.236133 
L 153.39513 297.003926 
L 154.803512 296.483769 
L 156.211895 297.184604 
L 157.620277 298.918399 
L 159.02866 297.998983 
L 160.437043 299.413968 
L 161.845425 299.201261 
L 163.253808 299.129621 
L 164.66219 299.430292 
L 166.070573 298.942603 
L 167.478955 300.425005 
L 168.887338 300.859375 
L 170.29572 298.941394 
L 171.704103 300.899063 
L 173.112485 300.371266 
L 174.520868 301.943447 
L 175.92925 300.963177 
L 177.337633 301.418068 
L 178.746015 302.014776 
L 180.154398 301.216577 
L 181.56278 301.242937 
L 182.971163 302.526358 
L 184.379545 301.827484 
L 185.787928 302.793698 
L 187.196311 303.290314 
L 188.604693 302.735628 
L 190.013076 303.313834 
L 191.421458 302.956361 
L 192.829841 303.883281 
L 194.238223 303.569767 
L 195.646606 303.790509 
L 197.054988 303.687659 
L 198.463371 304.240797 
L 199.871753 302.156164 
L 201.280136 304.495411 
L 202.688518 304.637109 
L 204.096901 304.602206 
L 205.505283 304.407736 
L 206.913666 304.849078 
L 208.322048 304.263763 
L 209.730431 304.762936 
L 211.138813 305.691271 
L 212.547196 305.297332 
L 213.955579 304.256904 
L 215.363961 304.369264 
L 216.772344 305.913511 
L 218.180726 305.546186 
L 219.589109 304.932314 
L 220.997491 305.206683 
L 222.405874 305.782761 
L 223.814256 305.726249 
L 225.222639 306.036247 
L 226.631021 305.863545 
L 228.039404 305.984739 
L 229.447786 305.180147 
L 230.856169 305.724961 
L 232.264551 305.42436 
L 233.672934 306.24367 
L 235.081316 306.880885 
L 236.489699 305.92906 
L 237.898081 306.580873 
L 239.306464 306.000214 
L 240.714847 306.792962 
L 242.123229 307.018814 
L 243.531612 306.860542 
L 244.939994 306.140568 
L 246.348377 304.767074 
L 247.756759 304.487693 
L 249.165142 305.953 
L 250.573524 306.011947 
L 251.981907 306.904809 
L 253.390289 306.847507 
L 254.798672 305.993533 
L 256.207054 306.125982 
L 257.615437 307.415343 
L 259.023819 304.283144 
L 260.432202 307.012639 
L 261.840584 307.080961 
L 263.248967 307.519629 
L 264.657349 306.325007 
L 266.065732 307.325521 
L 267.474115 306.84072 
L 268.882497 307.101325 
L 270.29088 304.373879 
L 271.699262 307.76151 
L 273.107645 306.906442 
L 274.516027 306.399551 
L 275.92441 306.558354 
L 277.332792 307.554241 
L 278.741175 307.904157 
L 280.149557 307.947927 
L 281.55794 307.362931 
L 282.966322 307.376661 
L 284.374705 307.653548 
L 285.783087 306.366186 
L 287.19147 307.999013 
L 288.599852 307.007212 
L 290.008235 307.413215 
L 292.825 307.892954 
L 295.641765 307.215655 
L 297.050148 306.396386 
L 298.45853 308.126593 
L 299.866913 308.029028 
L 301.275295 308.358672 
L 302.683678 307.808604 
L 304.09206 308.640172 
L 306.908825 308.586292 
L 308.317208 307.923461 
L 311.133973 308.721734 
L 312.542355 307.752123 
L 313.950738 307.540399 
L 315.35912 308.418242 
L 316.767503 306.757433 
L 318.175885 308.283745 
L 319.584268 307.723869 
L 320.992651 308.512674 
L 322.401033 308.330211 
L 323.809416 308.636267 
L 326.626181 307.939064 
L 328.034563 307.868536 
L 329.442946 308.102089 
L 330.851328 309.141776 
L 333.668093 308.530873 
L 335.076476 308.90222 
L 339.301623 308.633635 
L 340.710006 306.499356 
L 342.118388 308.416431 
L 343.526771 308.240046 
L 344.935153 307.648674 
L 346.343536 308.594927 
L 347.751919 309.186426 
L 349.160301 306.869699 
L 350.568684 307.333515 
L 351.977066 308.802418 
L 353.385449 309.357126 
L 354.793831 308.497954 
L 356.202214 308.973967 
L 357.610596 307.94421 
L 359.018979 308.950602 
L 360.427361 308.68589 
L 361.835744 308.659057 
L 363.244126 309.094646 
L 364.652509 307.515295 
L 366.060891 307.990281 
L 367.469274 308.829297 
L 368.877656 308.11685 
L 370.286039 308.247093 
L 373.102804 309.003228 
L 374.511187 309.106482 
L 375.919569 307.999565 
L 377.327952 309.520025 
L 378.736334 307.247427 
L 380.144717 308.800717 
L 381.553099 309.215124 
L 382.961482 307.819852 
L 384.369864 307.982132 
L 385.778247 309.30019 
L 387.186629 308.759387 
L 388.595012 308.360616 
L 390.003394 308.408297 
L 391.411777 307.745968 
L 394.228542 308.631782 
L 395.636924 308.785394 
L 397.045307 308.582774 
L 398.453689 307.325847 
L 399.862072 308.934324 
L 402.678837 308.341266 
L 404.08722 309.241998 
L 405.495602 308.04145 
L 406.903985 309.594212 
L 408.312367 309.154151 
L 409.72075 307.979592 
L 411.129132 308.734159 
L 412.537515 308.63356 
L 413.945897 308.016372 
L 416.762662 308.654552 
L 418.171045 309.354727 
L 419.579427 308.195815 
L 420.98781 308.039561 
L 422.396192 309.320505 
L 423.804575 308.84041 
L 425.212957 309.219618 
L 426.62134 308.315471 
L 428.029723 309.207461 
L 429.438105 308.533685 
L 430.846488 309.355324 
L 432.25487 308.641975 
L 433.663253 308.13576 
L 435.071635 308.68055 
L 436.480018 307.443093 
L 437.8884 309.053771 
L 439.296783 309.185126 
L 440.705165 308.968541 
L 442.113548 309.670309 
L 443.52193 308.692786 
L 446.338695 309.026281 
L 447.747078 308.671067 
L 449.15546 309.114448 
L 450.563843 309.093904 
L 451.972226 307.776923 
L 453.380608 309.08318 
L 454.788991 308.253491 
L 456.197373 307.659516 
L 457.605756 308.972482 
L 460.422521 308.668563 
L 467.464433 308.902488 
L 468.872816 308.553753 
L 470.281198 308.717126 
L 471.689581 309.200708 
L 473.097963 308.913428 
L 474.506346 308.911713 
L 475.914728 307.269031 
L 477.323111 309.300526 
L 478.731494 309.169398 
L 480.139876 308.569599 
L 481.548259 309.105775 
L 482.956641 308.420873 
L 484.365024 308.709731 
L 485.773406 308.638344 
L 487.181789 309.448918 
L 488.590171 309.646874 
L 489.998554 309.704356 
L 491.406936 308.989219 
L 492.815319 309.468926 
L 494.223701 309.63517 
L 495.632084 309.267149 
L 497.040466 309.321857 
L 498.448849 309.708522 
L 501.265614 309.221124 
L 502.673996 309.270437 
L 505.490762 309.927273 
L 506.899144 309.550921 
L 508.307527 307.93343 
L 509.715909 309.227266 
L 509.715909 309.227266 
" clip-path="url(#p61e881166d)" style="fill: none; stroke: #1f77b4; stroke-width: 1.5; stroke-linecap: square"/>
   </g>
   <g id="line2d_18">
    <path d="M 75.934091 124.118421 
L 77.342473 149.676915 
L 78.750856 139.522271 
L 80.159238 175.882567 
L 81.567621 182.852088 
L 82.976004 196.382411 
L 84.384386 194.242948 
L 85.792769 202.245302 
L 87.201151 211.923713 
L 88.609534 204.348831 
L 90.017916 222.69187 
L 91.426299 205.421049 
L 92.834681 214.430154 
L 94.243064 208.424511 
L 95.651446 238.585213 
L 97.059829 240.358125 
L 98.468211 242.893616 
L 99.876594 248.718309 
L 101.284976 253.27817 
L 102.693359 249.661876 
L 104.101741 227.386108 
L 105.510124 244.941117 
L 106.918506 259.184243 
L 108.326889 253.574424 
L 109.735272 261.631533 
L 111.143654 268.455994 
L 112.552037 271.376332 
L 113.960419 273.086554 
L 115.368802 267.728458 
L 116.777184 267.714125 
L 118.185567 264.560445 
L 119.593949 281.228491 
L 121.002332 279.058508 
L 122.410714 280.915098 
L 123.819097 279.12271 
L 125.227479 272.803251 
L 126.635862 267.200399 
L 128.044244 267.02764 
L 129.452627 282.681414 
L 130.861009 287.573705 
L 132.269392 293.132731 
L 133.677774 293.560861 
L 135.086157 284.83615 
L 136.49454 283.203795 
L 137.902922 281.246566 
L 139.311305 292.845244 
L 140.719687 288.98833 
L 142.12807 286.300042 
L 143.536452 289.880397 
L 144.944835 295.84452 
L 146.353217 282.306565 
L 147.7616 297.703068 
L 149.169982 298.04731 
L 150.578365 274.783324 
L 151.986747 290.574696 
L 153.39513 292.487941 
L 154.803512 299.110652 
L 156.211895 301.251244 
L 157.620277 295.967897 
L 159.02866 296.510936 
L 160.437043 302.161867 
L 161.845425 299.209748 
L 163.253808 293.019876 
L 164.66219 298.306685 
L 166.070573 293.744932 
L 167.478955 299.506611 
L 168.887338 293.718205 
L 170.29572 300.764829 
L 171.704103 302.299572 
L 173.112485 298.40488 
L 174.520868 297.714947 
L 175.92925 304.945416 
L 177.337633 292.385322 
L 178.746015 295.770899 
L 180.154398 303.05196 
L 181.56278 302.353675 
L 182.971163 299.205231 
L 184.379545 304.006326 
L 185.787928 302.482425 
L 187.196311 280.998358 
L 188.604693 300.151184 
L 190.013076 298.70364 
L 191.421458 304.790548 
L 192.829841 297.979612 
L 194.238223 302.533018 
L 197.054988 306.138416 
L 198.463371 305.947712 
L 199.871753 298.871398 
L 201.280136 296.547735 
L 202.688518 306.221916 
L 204.096901 303.991445 
L 205.505283 298.537324 
L 206.913666 307.206277 
L 208.322048 307.365339 
L 209.730431 306.001358 
L 211.138813 303.076823 
L 212.547196 305.795168 
L 213.955579 297.546382 
L 215.363961 301.671422 
L 216.772344 304.418802 
L 218.180726 305.866108 
L 219.589109 305.70115 
L 220.997491 303.093759 
L 222.405874 307.053356 
L 223.814256 306.748574 
L 225.222639 295.989223 
L 226.631021 302.561018 
L 228.039404 306.894152 
L 230.856169 304.589029 
L 232.264551 304.678216 
L 233.672934 307.711641 
L 235.081316 301.07552 
L 236.489699 303.878322 
L 237.898081 307.921275 
L 239.306464 308.042489 
L 240.714847 305.164268 
L 242.123229 307.847651 
L 243.531612 297.615192 
L 244.939994 288.549897 
L 246.348377 306.381749 
L 247.756759 307.280875 
L 249.165142 307.712051 
L 250.573524 307.388032 
L 251.981907 305.213025 
L 253.390289 306.320204 
L 254.798672 307.929263 
L 256.207054 303.22261 
L 257.615437 300.438766 
L 259.023819 306.378837 
L 260.432202 305.842121 
L 261.840584 307.327425 
L 263.248967 280.213755 
L 264.657349 301.690334 
L 266.065732 307.053867 
L 267.474115 302.145665 
L 268.882497 307.517859 
L 270.29088 306.608947 
L 271.699262 299.984323 
L 273.107645 301.634843 
L 274.516027 308.560922 
L 275.92441 308.284318 
L 277.332792 304.033236 
L 278.741175 306.996789 
L 280.149557 308.129465 
L 281.55794 306.816598 
L 282.966322 307.743537 
L 284.374705 306.440556 
L 285.783087 307.849939 
L 287.19147 307.293378 
L 288.599852 300.641661 
L 290.008235 303.969715 
L 291.416617 305.477533 
L 292.825 307.517385 
L 294.233383 299.355505 
L 295.641765 306.777075 
L 297.050148 307.213594 
L 298.45853 304.269003 
L 299.866913 307.085516 
L 301.275295 304.45609 
L 302.683678 306.010899 
L 304.09206 308.128966 
L 305.500443 299.089033 
L 306.908825 307.980917 
L 308.317208 306.752916 
L 309.72559 304.217086 
L 311.133973 308.34789 
L 312.542355 307.998615 
L 313.950738 304.56796 
L 315.35912 308.345134 
L 316.767503 306.860502 
L 318.175885 308.402062 
L 319.584268 308.239118 
L 320.992651 307.744113 
L 322.401033 308.688276 
L 325.217798 308.51029 
L 326.626181 295.783765 
L 328.034563 308.460322 
L 329.442946 308.038904 
L 330.851328 305.94683 
L 332.259711 308.305954 
L 333.668093 308.473052 
L 335.076476 307.850711 
L 336.484858 308.406857 
L 337.893241 308.530885 
L 339.301623 308.308336 
L 340.710006 308.371238 
L 342.118388 307.955274 
L 344.935153 308.622082 
L 346.343536 308.196196 
L 347.751919 308.721028 
L 349.160301 308.348825 
L 350.568684 304.819421 
L 351.977066 308.703967 
L 353.385449 306.519372 
L 354.793831 307.915899 
L 356.202214 308.568786 
L 357.610596 308.035309 
L 359.018979 308.775333 
L 360.427361 308.246017 
L 361.835744 308.594303 
L 363.244126 308.339117 
L 364.652509 307.272935 
L 366.060891 308.527506 
L 367.469274 307.722268 
L 368.877656 308.719009 
L 370.286039 308.930183 
L 371.694421 305.697728 
L 373.102804 308.787162 
L 374.511187 304.099686 
L 375.919569 308.512506 
L 378.736334 308.91058 
L 380.144717 304.836443 
L 381.553099 308.168968 
L 382.961482 308.980101 
L 384.369864 304.496202 
L 385.778247 309.008778 
L 387.186629 308.632716 
L 388.595012 302.936197 
L 390.003394 306.972879 
L 391.411777 308.812846 
L 392.820159 308.709471 
L 394.228542 307.497119 
L 395.636924 308.590657 
L 397.045307 301.80545 
L 398.453689 308.420125 
L 399.862072 308.888815 
L 402.678837 308.881428 
L 404.08722 308.246461 
L 405.495602 308.981454 
L 406.903985 308.674208 
L 408.312367 302.862351 
L 409.72075 305.583074 
L 411.129132 308.6107 
L 412.537515 308.920647 
L 413.945897 306.142337 
L 415.35428 308.766841 
L 416.762662 306.247493 
L 418.171045 307.457781 
L 419.579427 306.388881 
L 420.98781 308.873736 
L 422.396192 305.97129 
L 423.804575 308.779753 
L 425.212957 308.741532 
L 426.62134 308.963696 
L 428.029723 309.000546 
L 429.438105 307.825338 
L 430.846488 309.032529 
L 433.663253 309.065796 
L 435.071635 304.526857 
L 436.480018 304.979301 
L 437.8884 308.837229 
L 439.296783 309.162554 
L 440.705165 308.80147 
L 442.113548 299.034914 
L 443.52193 309.063726 
L 444.930313 308.97943 
L 446.338695 308.748757 
L 447.747078 309.046343 
L 449.15546 308.985116 
L 450.563843 305.962039 
L 451.972226 305.268751 
L 453.380608 308.936453 
L 454.788991 306.922219 
L 456.197373 308.541687 
L 457.605756 307.662665 
L 459.014138 306.5137 
L 460.422521 307.871447 
L 461.830903 305.229319 
L 463.239286 309.002848 
L 466.056051 308.609076 
L 467.464433 308.875947 
L 468.872816 307.890724 
L 471.689581 309.022989 
L 473.097963 308.93025 
L 474.506346 307.775051 
L 475.914728 308.983911 
L 477.323111 304.097279 
L 478.731494 307.877704 
L 480.139876 308.43507 
L 481.548259 308.646679 
L 482.956641 309.016364 
L 487.181789 308.832562 
L 488.590171 308.998748 
L 489.998554 307.010556 
L 491.406936 308.895876 
L 494.223701 308.669701 
L 495.632084 309.054085 
L 497.040466 308.732279 
L 498.448849 308.579368 
L 499.857231 307.905459 
L 501.265614 308.035945 
L 502.673996 309.040264 
L 504.082379 308.80752 
L 505.490762 309.162128 
L 509.715909 308.673254 
L 509.715909 308.673254 
" clip-path="url(#p61e881166d)" style="fill: none; stroke: #ff7f0e; stroke-width: 1.5; stroke-linecap: square"/>
   </g>
   <g id="patch_3">
    <path d="M 54.245 323.44 
L 54.245 26.16 
" style="fill: none; stroke: #000000; stroke-width: 0.8; stroke-linejoin: miter; stroke-linecap: square"/>
   </g>
   <g id="patch_4">
    <path d="M 531.405 323.44 
L 531.405 26.16 
" style="fill: none; stroke: #000000; stroke-width: 0.8; stroke-linejoin: miter; stroke-linecap: square"/>
   </g>
   <g id="patch_5">
    <path d="M 54.245 323.44 
L 531.405 323.44 
" style="fill: none; stroke: #000000; stroke-width: 0.8; stroke-linejoin: miter; stroke-linecap: square"/>
   </g>
   <g id="patch_6">
    <path d="M 54.245 26.16 
L 531.405 26.16 
" style="fill: none; stroke: #000000; stroke-width: 0.8; stroke-linejoin: miter; stroke-linecap: square"/>
   </g>
   <g id="text_19">
    <!-- Training and Validation Loss -->
    <g transform="translate(209.355625 20.16) scale(0.12 -0.12)">
     <defs>
      <path id="DejaVuSans-54" d="M -19 4666 
L 3928 4666 
L 3928 4134 
L 2272 4134 
L 2272 0 
L 1638 0 
L 1638 4134 
L -19 4134 
L -19 4666 
z
" transform="scale(0.015625)"/>
      <path id="DejaVuSans-72" d="M 2631 2963 
Q 2534 3019 2420 3045 
Q 2306 3072 2169 3072 
Q 1681 3072 1420 2755 
Q 1159 2438 1159 1844 
L 1159 0 
L 581 0 
L 581 3500 
L 1159 3500 
L 1159 2956 
Q 1341 3275 1631 3429 
Q 1922 3584 2338 3584 
Q 2397 3584 2469 3576 
Q 2541 3569 2628 3553 
L 2631 2963 
z
" transform="scale(0.015625)"/>
      <path id="DejaVuSans-61" d="M 2194 1759 
Q 1497 1759 1228 1600 
Q 959 1441 959 1056 
Q 959 750 1161 570 
Q 1363 391 1709 391 
Q 2188 391 2477 730 
Q 2766 1069 2766 1631 
L 2766 1759 
L 2194 1759 
z
M 3341 1997 
L 3341 0 
L 2766 0 
L 2766 531 
Q 2569 213 2275 61 
Q 1981 -91 1556 -91 
Q 1019 -91 701 211 
Q 384 513 384 1019 
Q 384 1609 779 1909 
Q 1175 2209 1959 2209 
L 2766 2209 
L 2766 2266 
Q 2766 2663 2505 2880 
Q 2244 3097 1772 3097 
Q 1472 3097 1187 3025 
Q 903 2953 641 2809 
L 641 3341 
Q 956 3463 1253 3523 
Q 1550 3584 1831 3584 
Q 2591 3584 2966 3190 
Q 3341 2797 3341 1997 
z
" transform="scale(0.015625)"/>
      <path id="DejaVuSans-69" d="M 603 3500 
L 1178 3500 
L 1178 0 
L 603 0 
L 603 3500 
z
M 603 4863 
L 1178 4863 
L 1178 4134 
L 603 4134 
L 603 4863 
z
" transform="scale(0.015625)"/>
      <path id="DejaVuSans-6e" d="M 3513 2113 
L 3513 0 
L 2938 0 
L 2938 2094 
Q 2938 2591 2744 2837 
Q 2550 3084 2163 3084 
Q 1697 3084 1428 2787 
Q 1159 2491 1159 1978 
L 1159 0 
L 581 0 
L 581 3500 
L 1159 3500 
L 1159 2956 
Q 1366 3272 1645 3428 
Q 1925 3584 2291 3584 
Q 2894 3584 3203 3211 
Q 3513 2838 3513 2113 
z
" transform="scale(0.015625)"/>
      <path id="DejaVuSans-67" d="M 2906 1791 
Q 2906 2416 2648 2759 
Q 2391 3103 1925 3103 
Q 1463 3103 1205 2759 
Q 947 2416 947 1791 
Q 947 1169 1205 825 
Q 1463 481 1925 481 
Q 2391 481 2648 825 
Q 2906 1169 2906 1791 
z
M 3481 434 
Q 3481 -459 3084 -895 
Q 2688 -1331 1869 -1331 
Q 1566 -1331 1297 -1286 
Q 1028 -1241 775 -1147 
L 775 -588 
Q 1028 -725 1275 -790 
Q 1522 -856 1778 -856 
Q 2344 -856 2625 -561 
Q 2906 -266 2906 331 
L 2906 616 
Q 2728 306 2450 153 
Q 2172 0 1784 0 
Q 1141 0 747 490 
Q 353 981 353 1791 
Q 353 2603 747 3093 
Q 1141 3584 1784 3584 
Q 2172 3584 2450 3431 
Q 2728 3278 2906 2969 
L 2906 3500 
L 3481 3500 
L 3481 434 
z
" transform="scale(0.015625)"/>
      <path id="DejaVuSans-20" transform="scale(0.015625)"/>
      <path id="DejaVuSans-64" d="M 2906 2969 
L 2906 4863 
L 3481 4863 
L 3481 0 
L 2906 0 
L 2906 525 
Q 2725 213 2448 61 
Q 2172 -91 1784 -91 
Q 1150 -91 751 415 
Q 353 922 353 1747 
Q 353 2572 751 3078 
Q 1150 3584 1784 3584 
Q 2172 3584 2448 3432 
Q 2725 3281 2906 2969 
z
M 947 1747 
Q 947 1113 1208 752 
Q 1469 391 1925 391 
Q 2381 391 2643 752 
Q 2906 1113 2906 1747 
Q 2906 2381 2643 2742 
Q 2381 3103 1925 3103 
Q 1469 3103 1208 2742 
Q 947 2381 947 1747 
z
" transform="scale(0.015625)"/>
      <path id="DejaVuSans-56" d="M 1831 0 
L 50 4666 
L 709 4666 
L 2188 738 
L 3669 4666 
L 4325 4666 
L 2547 0 
L 1831 0 
z
" transform="scale(0.015625)"/>
      <path id="DejaVuSans-6c" d="M 603 4863 
L 1178 4863 
L 1178 0 
L 603 0 
L 603 4863 
z
" transform="scale(0.015625)"/>
      <path id="DejaVuSans-74" d="M 1172 4494 
L 1172 3500 
L 2356 3500 
L 2356 3053 
L 1172 3053 
L 1172 1153 
Q 1172 725 1289 603 
Q 1406 481 1766 481 
L 2356 481 
L 2356 0 
L 1766 0 
Q 1100 0 847 248 
Q 594 497 594 1153 
L 594 3053 
L 172 3053 
L 172 3500 
L 594 3500 
L 594 4494 
L 1172 4494 
z
" transform="scale(0.015625)"/>
     </defs>
     <use xlink:href="#DejaVuSans-54"/>
     <use xlink:href="#DejaVuSans-72" x="46.333984"/>
     <use xlink:href="#DejaVuSans-61" x="87.447266"/>
     <use xlink:href="#DejaVuSans-69" x="148.726562"/>
     <use xlink:href="#DejaVuSans-6e" x="176.509766"/>
     <use xlink:href="#DejaVuSans-69" x="239.888672"/>
     <use xlink:href="#DejaVuSans-6e" x="267.671875"/>
     <use xlink:href="#DejaVuSans-67" x="331.050781"/>
     <use xlink:href="#DejaVuSans-20" x="394.527344"/>
     <use xlink:href="#DejaVuSans-61" x="426.314453"/>
     <use xlink:href="#DejaVuSans-6e" x="487.59375"/>
     <use xlink:href="#DejaVuSans-64" x="550.972656"/>
     <use xlink:href="#DejaVuSans-20" x="614.449219"/>
     <use xlink:href="#DejaVuSans-56" x="646.236328"/>
     <use xlink:href="#DejaVuSans-61" x="706.894531"/>
     <use xlink:href="#DejaVuSans-6c" x="768.173828"/>
     <use xlink:href="#DejaVuSans-69" x="795.957031"/>
     <use xlink:href="#DejaVuSans-64" x="823.740234"/>
     <use xlink:href="#DejaVuSans-61" x="887.216797"/>
     <use xlink:href="#DejaVuSans-74" x="948.496094"/>
     <use xlink:href="#DejaVuSans-69" x="987.705078"/>
     <use xlink:href="#DejaVuSans-6f" x="1015.488281"/>
     <use xlink:href="#DejaVuSans-6e" x="1076.669922"/>
     <use xlink:href="#DejaVuSans-20" x="1140.048828"/>
     <use xlink:href="#DejaVuSans-4c" x="1171.835938"/>
     <use xlink:href="#DejaVuSans-6f" x="1225.798828"/>
     <use xlink:href="#DejaVuSans-73" x="1286.980469"/>
     <use xlink:href="#DejaVuSans-73" x="1339.080078"/>
    </g>
   </g>
   <g id="legend_1">
    <g id="patch_7">
     <path d="M 420.53 63.51625 
L 524.405 63.51625 
Q 526.405 63.51625 526.405 61.51625 
L 526.405 33.16 
Q 526.405 31.16 524.405 31.16 
L 420.53 31.16 
Q 418.53 31.16 418.53 33.16 
L 418.53 61.51625 
Q 418.53 63.51625 420.53 63.51625 
z
" style="fill: #ffffff; opacity: 0.8; stroke: #cccccc; stroke-linejoin: miter"/>
    </g>
    <g id="line2d_19">
     <path d="M 422.53 39.258438 
L 432.53 39.258438 
L 442.53 39.258438 
" style="fill: none; stroke: #1f77b4; stroke-width: 1.5; stroke-linecap: square"/>
    </g>
    <g id="text_20">
     <!-- Training loss -->
     <g transform="translate(450.53 42.758438) scale(0.1 -0.1)">
      <use xlink:href="#DejaVuSans-54"/>
      <use xlink:href="#DejaVuSans-72" x="46.333984"/>
      <use xlink:href="#DejaVuSans-61" x="87.447266"/>
      <use xlink:href="#DejaVuSans-69" x="148.726562"/>
      <use xlink:href="#DejaVuSans-6e" x="176.509766"/>
      <use xlink:href="#DejaVuSans-69" x="239.888672"/>
      <use xlink:href="#DejaVuSans-6e" x="267.671875"/>
      <use xlink:href="#DejaVuSans-67" x="331.050781"/>
      <use xlink:href="#DejaVuSans-20" x="394.527344"/>
      <use xlink:href="#DejaVuSans-6c" x="426.314453"/>
      <use xlink:href="#DejaVuSans-6f" x="454.097656"/>
      <use xlink:href="#DejaVuSans-73" x="515.279297"/>
      <use xlink:href="#DejaVuSans-73" x="567.378906"/>
     </g>
    </g>
    <g id="line2d_20">
     <path d="M 422.53 53.936563 
L 432.53 53.936563 
L 442.53 53.936563 
" style="fill: none; stroke: #ff7f0e; stroke-width: 1.5; stroke-linecap: square"/>
    </g>
    <g id="text_21">
     <!-- Validation loss -->
     <g transform="translate(450.53 57.436563) scale(0.1 -0.1)">
      <use xlink:href="#DejaVuSans-56"/>
      <use xlink:href="#DejaVuSans-61" x="60.658203"/>
      <use xlink:href="#DejaVuSans-6c" x="121.9375"/>
      <use xlink:href="#DejaVuSans-69" x="149.720703"/>
      <use xlink:href="#DejaVuSans-64" x="177.503906"/>
      <use xlink:href="#DejaVuSans-61" x="240.980469"/>
      <use xlink:href="#DejaVuSans-74" x="302.259766"/>
      <use xlink:href="#DejaVuSans-69" x="341.46875"/>
      <use xlink:href="#DejaVuSans-6f" x="369.251953"/>
      <use xlink:href="#DejaVuSans-6e" x="430.433594"/>
      <use xlink:href="#DejaVuSans-20" x="493.8125"/>
      <use xlink:href="#DejaVuSans-6c" x="525.599609"/>
      <use xlink:href="#DejaVuSans-6f" x="553.382812"/>
      <use xlink:href="#DejaVuSans-73" x="614.564453"/>
      <use xlink:href="#DejaVuSans-73" x="666.664062"/>
     </g>
    </g>
   </g>
  </g>
  <g id="axes_2">
   <g id="patch_8">
    <path d="M 592.04 323.44 
L 1069.2 323.44 
L 1069.2 26.16 
L 592.04 26.16 
z
" style="fill: #ffffff"/>
   </g>
   <g id="matplotlib.axis_3">
    <g id="xtick_8">
     <g id="line2d_21">
      <g>
       <use xlink:href="#ma334c58ac7" x="612.047766" y="323.44" style="stroke: #000000; stroke-width: 0.8"/>
      </g>
     </g>
     <g id="text_22">
      <!-- 50 -->
      <g transform="translate(605.685266 338.038438) scale(0.1 -0.1)">
       <use xlink:href="#DejaVuSans-35"/>
       <use xlink:href="#DejaVuSans-30" x="63.623047"/>
      </g>
     </g>
    </g>
    <g id="xtick_9">
     <g id="line2d_22">
      <g>
       <use xlink:href="#ma334c58ac7" x="696.11401" y="323.44" style="stroke: #000000; stroke-width: 0.8"/>
      </g>
     </g>
     <g id="text_23">
      <!-- 100 -->
      <g transform="translate(686.57026 338.038438) scale(0.1 -0.1)">
       <use xlink:href="#DejaVuSans-31"/>
       <use xlink:href="#DejaVuSans-30" x="63.623047"/>
       <use xlink:href="#DejaVuSans-30" x="127.246094"/>
      </g>
     </g>
    </g>
    <g id="xtick_10">
     <g id="line2d_23">
      <g>
       <use xlink:href="#ma334c58ac7" x="780.180254" y="323.44" style="stroke: #000000; stroke-width: 0.8"/>
      </g>
     </g>
     <g id="text_24">
      <!-- 150 -->
      <g transform="translate(770.636504 338.038438) scale(0.1 -0.1)">
       <use xlink:href="#DejaVuSans-31"/>
       <use xlink:href="#DejaVuSans-35" x="63.623047"/>
       <use xlink:href="#DejaVuSans-30" x="127.246094"/>
      </g>
     </g>
    </g>
    <g id="xtick_11">
     <g id="line2d_24">
      <g>
       <use xlink:href="#ma334c58ac7" x="864.246498" y="323.44" style="stroke: #000000; stroke-width: 0.8"/>
      </g>
     </g>
     <g id="text_25">
      <!-- 200 -->
      <g transform="translate(854.702748 338.038438) scale(0.1 -0.1)">
       <use xlink:href="#DejaVuSans-32"/>
       <use xlink:href="#DejaVuSans-30" x="63.623047"/>
       <use xlink:href="#DejaVuSans-30" x="127.246094"/>
      </g>
     </g>
    </g>
    <g id="xtick_12">
     <g id="line2d_25">
      <g>
       <use xlink:href="#ma334c58ac7" x="948.312741" y="323.44" style="stroke: #000000; stroke-width: 0.8"/>
      </g>
     </g>
     <g id="text_26">
      <!-- 250 -->
      <g transform="translate(938.768991 338.038438) scale(0.1 -0.1)">
       <use xlink:href="#DejaVuSans-32"/>
       <use xlink:href="#DejaVuSans-35" x="63.623047"/>
       <use xlink:href="#DejaVuSans-30" x="127.246094"/>
      </g>
     </g>
    </g>
    <g id="xtick_13">
     <g id="line2d_26">
      <g>
       <use xlink:href="#ma334c58ac7" x="1032.378985" y="323.44" style="stroke: #000000; stroke-width: 0.8"/>
      </g>
     </g>
     <g id="text_27">
      <!-- 300 -->
      <g transform="translate(1022.835235 338.038438) scale(0.1 -0.1)">
       <use xlink:href="#DejaVuSans-33"/>
       <use xlink:href="#DejaVuSans-30" x="63.623047"/>
       <use xlink:href="#DejaVuSans-30" x="127.246094"/>
      </g>
     </g>
    </g>
    <g id="text_28">
     <!-- Epochs -->
     <g transform="translate(812.704375 351.716563) scale(0.1 -0.1)">
      <use xlink:href="#DejaVuSans-45"/>
      <use xlink:href="#DejaVuSans-70" x="63.183594"/>
      <use xlink:href="#DejaVuSans-6f" x="126.660156"/>
      <use xlink:href="#DejaVuSans-63" x="187.841797"/>
      <use xlink:href="#DejaVuSans-68" x="242.822266"/>
      <use xlink:href="#DejaVuSans-73" x="306.201172"/>
     </g>
    </g>
   </g>
   <g id="matplotlib.axis_4">
    <g id="ytick_10">
     <g id="line2d_27">
      <g>
       <use xlink:href="#m41bbd5ff8a" x="592.04" y="319.595233" style="stroke: #000000; stroke-width: 0.8"/>
      </g>
     </g>
     <g id="text_29">
      <!-- 0.000 -->
      <g transform="translate(556.411875 323.394451) scale(0.1 -0.1)">
       <use xlink:href="#DejaVuSans-30"/>
       <use xlink:href="#DejaVuSans-2e" x="63.623047"/>
       <use xlink:href="#DejaVuSans-30" x="95.410156"/>
       <use xlink:href="#DejaVuSans-30" x="159.033203"/>
       <use xlink:href="#DejaVuSans-30" x="222.65625"/>
      </g>
     </g>
    </g>
    <g id="ytick_11">
     <g id="line2d_28">
      <g>
       <use xlink:href="#m41bbd5ff8a" x="592.04" y="255.759851" style="stroke: #000000; stroke-width: 0.8"/>
      </g>
     </g>
     <g id="text_30">
      <!-- 0.005 -->
      <g transform="translate(556.411875 259.55907) scale(0.1 -0.1)">
       <use xlink:href="#DejaVuSans-30"/>
       <use xlink:href="#DejaVuSans-2e" x="63.623047"/>
       <use xlink:href="#DejaVuSans-30" x="95.410156"/>
       <use xlink:href="#DejaVuSans-30" x="159.033203"/>
       <use xlink:href="#DejaVuSans-35" x="222.65625"/>
      </g>
     </g>
    </g>
    <g id="ytick_12">
     <g id="line2d_29">
      <g>
       <use xlink:href="#m41bbd5ff8a" x="592.04" y="191.92447" style="stroke: #000000; stroke-width: 0.8"/>
      </g>
     </g>
     <g id="text_31">
      <!-- 0.010 -->
      <g transform="translate(556.411875 195.723689) scale(0.1 -0.1)">
       <use xlink:href="#DejaVuSans-30"/>
       <use xlink:href="#DejaVuSans-2e" x="63.623047"/>
       <use xlink:href="#DejaVuSans-30" x="95.410156"/>
       <use xlink:href="#DejaVuSans-31" x="159.033203"/>
       <use xlink:href="#DejaVuSans-30" x="222.65625"/>
      </g>
     </g>
    </g>
    <g id="ytick_13">
     <g id="line2d_30">
      <g>
       <use xlink:href="#m41bbd5ff8a" x="592.04" y="128.089088" style="stroke: #000000; stroke-width: 0.8"/>
      </g>
     </g>
     <g id="text_32">
      <!-- 0.015 -->
      <g transform="translate(556.411875 131.888307) scale(0.1 -0.1)">
       <use xlink:href="#DejaVuSans-30"/>
       <use xlink:href="#DejaVuSans-2e" x="63.623047"/>
       <use xlink:href="#DejaVuSans-30" x="95.410156"/>
       <use xlink:href="#DejaVuSans-31" x="159.033203"/>
       <use xlink:href="#DejaVuSans-35" x="222.65625"/>
      </g>
     </g>
    </g>
    <g id="ytick_14">
     <g id="line2d_31">
      <g>
       <use xlink:href="#m41bbd5ff8a" x="592.04" y="64.253707" style="stroke: #000000; stroke-width: 0.8"/>
      </g>
     </g>
     <g id="text_33">
      <!-- 0.020 -->
      <g transform="translate(556.411875 68.052926) scale(0.1 -0.1)">
       <use xlink:href="#DejaVuSans-30"/>
       <use xlink:href="#DejaVuSans-2e" x="63.623047"/>
       <use xlink:href="#DejaVuSans-30" x="95.410156"/>
       <use xlink:href="#DejaVuSans-32" x="159.033203"/>
       <use xlink:href="#DejaVuSans-30" x="222.65625"/>
      </g>
     </g>
    </g>
    <g id="text_34">
     <!-- Loss -->
     <g transform="translate(550.332188 185.767188) rotate(-90) scale(0.1 -0.1)">
      <use xlink:href="#DejaVuSans-4c"/>
      <use xlink:href="#DejaVuSans-6f" x="53.962891"/>
      <use xlink:href="#DejaVuSans-73" x="115.144531"/>
      <use xlink:href="#DejaVuSans-73" x="167.244141"/>
     </g>
    </g>
   </g>
   <g id="line2d_32">
    <path d="M 613.729091 194.721254 
L 615.410416 183.474393 
L 617.091741 208.145662 
L 618.773066 203.105663 
L 620.45439 204.643348 
L 622.135715 210.547626 
L 623.81704 206.547657 
L 625.498365 211.937028 
L 627.17969 225.269791 
L 628.861015 218.199548 
L 630.54234 229.080681 
L 632.223665 227.444985 
L 633.904989 226.894073 
L 635.586314 229.206213 
L 637.267639 225.455922 
L 638.948964 236.855488 
L 640.630289 240.195768 
L 642.311614 225.446623 
L 643.992939 240.500961 
L 645.674264 236.442242 
L 647.355588 248.5322 
L 649.036913 240.993997 
L 650.718238 244.492077 
L 652.399563 249.080721 
L 654.080888 242.942621 
L 655.762213 243.145326 
L 657.443538 253.014747 
L 659.124863 247.640454 
L 660.806187 255.070574 
L 662.487512 258.889519 
L 664.168837 254.624017 
L 665.850162 259.070388 
L 667.531487 256.321442 
L 669.212812 263.449395 
L 670.894137 261.038489 
L 672.575462 262.735985 
L 674.256786 261.945074 
L 675.938111 266.198668 
L 677.619436 250.167979 
L 679.300761 268.156627 
L 680.982086 269.246274 
L 682.663411 268.977875 
L 684.344736 267.482413 
L 686.026061 270.876305 
L 687.707385 266.375274 
L 689.38871 270.213877 
L 691.070035 277.35271 
L 692.75136 274.323344 
L 694.432685 266.322529 
L 696.11401 267.186565 
L 697.795335 279.061725 
L 699.47666 276.237017 
L 701.157984 271.516385 
L 702.839309 273.626265 
L 704.520634 278.05626 
L 706.201959 277.621689 
L 707.883284 280.005556 
L 709.564609 278.677485 
L 711.245934 279.609459 
L 712.927259 273.422204 
L 714.608584 277.611787 
L 716.289908 275.300183 
L 717.971233 281.600624 
L 719.652558 286.50076 
L 721.333883 279.181293 
L 723.015208 284.193686 
L 724.696533 279.728463 
L 726.377858 285.824638 
L 728.059183 287.561422 
L 729.740507 286.344326 
L 731.421832 280.807778 
L 733.103157 270.245699 
L 734.784482 268.097282 
L 736.465807 279.36539 
L 738.147132 279.818689 
L 739.828457 286.684732 
L 741.509782 286.244085 
L 743.191106 279.677085 
L 744.872431 280.695608 
L 746.553756 290.610705 
L 748.235081 266.524313 
L 749.916406 287.513942 
L 751.597731 288.039331 
L 753.279056 291.412662 
L 754.960381 282.226096 
L 756.641705 289.919979 
L 758.32303 286.191896 
L 760.004355 288.195929 
L 761.68568 267.222058 
L 763.367005 293.272707 
L 765.04833 286.697291 
L 766.729655 282.799335 
L 768.41098 284.020516 
L 770.092304 291.678825 
L 771.773629 294.369652 
L 773.454954 294.706237 
L 775.136279 290.207661 
L 776.817604 290.313246 
L 778.498929 292.442484 
L 780.180254 282.542761 
L 781.861579 295.099086 
L 783.542903 287.47221 
L 785.224228 290.594341 
L 786.905553 292.321622 
L 788.586878 294.283504 
L 790.268203 291.559869 
L 791.949528 289.075116 
L 793.630853 282.774999 
L 795.312178 296.080172 
L 796.993502 295.329901 
L 798.674827 297.864841 
L 800.356152 293.634857 
L 802.037477 300.02956 
L 803.718802 299.43887 
L 805.400127 299.615226 
L 807.081452 294.518099 
L 810.444101 300.656763 
L 812.125426 293.200521 
L 813.806751 291.572378 
L 815.488076 298.322928 
L 817.169401 285.55142 
L 818.850726 297.288658 
L 820.532051 292.983247 
L 822.213376 299.049108 
L 823.8947 297.645979 
L 825.576025 299.999531 
L 827.25735 296.874542 
L 828.938675 294.638087 
L 830.62 294.095727 
L 832.301325 295.891736 
L 833.98265 303.886853 
L 837.3453 299.189055 
L 839.026624 302.04469 
L 840.707949 301.628327 
L 842.389274 300.6134 
L 844.070599 299.979291 
L 845.751924 283.566828 
L 847.433249 298.309003 
L 849.114574 296.952616 
L 850.795899 292.405009 
L 852.477223 299.681623 
L 854.158548 304.230216 
L 855.839873 286.414743 
L 857.521198 289.981454 
L 859.202523 301.277221 
L 860.883848 305.54288 
L 862.565173 298.935913 
L 864.246498 302.59642 
L 865.927822 294.677656 
L 867.609147 302.416745 
L 869.290472 300.381124 
L 870.971797 300.174783 
L 872.653122 303.524429 
L 874.334447 291.379333 
L 876.015772 295.031938 
L 877.697097 301.483914 
L 879.378421 296.005243 
L 881.059746 297.006803 
L 882.741071 299.729059 
L 884.422396 302.821429 
L 886.103721 303.615446 
L 887.785046 295.103335 
L 889.466371 306.795566 
L 891.147696 289.319443 
L 892.82902 301.264135 
L 894.510345 304.450895 
L 896.19167 293.721353 
L 897.872995 294.969277 
L 899.55432 305.105051 
L 901.235645 300.946312 
L 902.91697 297.879793 
L 904.598295 298.246457 
L 906.279619 293.153189 
L 907.960944 296.80268 
L 909.642269 299.965035 
L 911.323594 301.146304 
L 913.004919 299.588173 
L 914.686244 289.92249 
L 916.367569 302.291563 
L 919.730218 297.730993 
L 921.411543 304.657553 
L 923.092868 295.425428 
L 924.774193 307.366062 
L 926.455518 303.982021 
L 928.136843 294.949744 
L 929.818168 300.75231 
L 931.499493 299.978713 
L 933.180817 295.232576 
L 934.862142 297.547036 
L 936.543467 300.140138 
L 938.224792 305.524436 
L 939.906117 296.612485 
L 941.587442 295.410902 
L 943.268767 305.261274 
L 944.950092 301.569373 
L 946.631416 304.485457 
L 948.312741 297.532628 
L 949.994066 304.391968 
L 951.675391 299.210676 
L 953.356716 305.529024 
L 955.038041 300.043423 
L 956.719366 296.150664 
L 958.400691 300.340064 
L 960.082016 290.824105 
L 961.76334 303.210108 
L 963.444665 304.220218 
L 965.12599 302.554693 
L 966.807315 307.951236 
L 968.48864 300.434156 
L 970.169965 302.1037 
L 971.85129 302.998711 
L 973.532615 300.267134 
L 975.213939 303.676706 
L 976.895264 303.518726 
L 978.576589 293.391232 
L 980.257914 303.436258 
L 981.939239 297.056008 
L 983.620564 292.488377 
L 985.301889 302.585 
L 988.664538 300.247885 
L 992.027188 301.169583 
L 993.708513 301.949195 
L 995.389838 301.376583 
L 997.071163 302.04675 
L 998.752488 299.365001 
L 1000.433813 300.621331 
L 1002.115137 304.340037 
L 1003.796462 302.130878 
L 1005.477787 302.11769 
L 1007.159112 289.485574 
L 1008.840437 305.107637 
L 1010.521762 304.099265 
L 1012.203087 299.486856 
L 1013.884412 303.610015 
L 1015.565736 298.343164 
L 1017.247061 300.564459 
L 1018.928386 300.015503 
L 1020.609711 306.248761 
L 1022.291036 307.771028 
L 1023.972361 308.213055 
L 1025.653686 302.713707 
L 1027.335011 306.40262 
L 1029.016335 307.681021 
L 1030.69766 304.850965 
L 1032.378985 305.271671 
L 1034.06031 308.245094 
L 1035.741635 305.96751 
L 1037.42296 304.497038 
L 1039.104285 304.87625 
L 1042.466934 309.927273 
L 1044.148259 307.033153 
L 1045.829584 294.594756 
L 1047.510909 304.544269 
L 1047.510909 304.544269 
" clip-path="url(#p73a9a857fb)" style="fill: none; stroke: #1f77b4; stroke-width: 1.5; stroke-linecap: square"/>
   </g>
   <g id="line2d_33">
    <path d="M 613.729091 97.525936 
L 615.410416 215.923977 
L 617.091741 218.571178 
L 618.773066 39.672727 
L 620.45439 161.107292 
L 622.135715 175.820011 
L 623.81704 226.748203 
L 625.498365 243.209213 
L 627.17969 202.580636 
L 628.861015 206.756569 
L 630.54234 250.211837 
L 632.223665 227.510244 
L 633.904989 179.910559 
L 635.586314 220.565752 
L 637.267639 185.486191 
L 638.948964 229.793098 
L 640.630289 185.280656 
L 642.311614 239.468713 
L 643.992939 251.270778 
L 645.674264 221.320867 
L 647.355588 216.015329 
L 649.036913 271.617134 
L 650.718238 175.030877 
L 652.399563 201.065733 
L 654.080888 257.056593 
L 655.762213 251.68683 
L 657.443538 227.475513 
L 659.124863 264.395599 
L 660.806187 252.676909 
L 662.487512 87.465914 
L 664.168837 234.749823 
L 665.850162 223.618311 
L 667.531487 270.426214 
L 669.212812 218.050586 
L 670.894137 253.065964 
L 672.575462 267.572238 
L 674.256786 280.791224 
L 675.938111 279.324723 
L 677.619436 224.908357 
L 679.300761 207.039546 
L 680.982086 281.433337 
L 682.663411 264.281167 
L 684.344736 222.339352 
L 686.026061 289.003001 
L 687.707385 290.22618 
L 689.38871 279.737258 
L 691.070035 257.247789 
L 692.75136 278.151671 
L 694.432685 214.719076 
L 696.11401 246.440351 
L 697.795335 267.567511 
L 699.47666 278.697196 
L 701.157984 277.42868 
L 702.839309 257.378023 
L 704.520634 287.827048 
L 706.201959 285.483295 
L 707.883284 202.744627 
L 709.564609 253.281279 
L 711.245934 286.602782 
L 714.608584 268.876547 
L 716.289908 269.562389 
L 717.971233 292.889216 
L 719.652558 241.857902 
L 721.333883 263.411257 
L 723.015208 294.501289 
L 724.696533 295.433416 
L 726.377858 273.300091 
L 728.059183 293.935122 
L 729.740507 215.248217 
L 731.421832 145.536727 
L 733.103157 282.662439 
L 734.784482 289.576659 
L 736.465807 292.89237 
L 738.147132 290.400687 
L 739.828457 273.675036 
L 741.509782 282.189159 
L 743.191106 294.562714 
L 744.872431 258.36888 
L 746.553756 236.961306 
L 748.235081 282.64005 
L 749.916406 278.512733 
L 751.597731 289.934624 
L 753.279056 81.432365 
L 754.960381 246.585781 
L 756.641705 287.830981 
L 758.32303 250.087244 
L 760.004355 291.39905 
L 761.68568 284.409577 
L 763.367005 233.466673 
L 765.04833 246.159057 
L 766.729655 299.420126 
L 768.41098 297.293063 
L 770.092304 264.602537 
L 771.773629 287.392057 
L 773.454954 296.102253 
L 775.136279 286.006401 
L 776.817604 293.134497 
L 778.498929 283.114659 
L 780.180254 293.952723 
L 781.861579 289.672801 
L 783.542903 238.521559 
L 785.224228 264.114061 
L 786.905553 275.709083 
L 788.586878 291.3954 
L 790.268203 228.63111 
L 791.949528 285.702471 
L 793.630853 289.059269 
L 795.312178 266.415571 
L 796.993502 288.074363 
L 798.674827 267.854257 
L 800.356152 279.81063 
L 802.037477 296.098421 
L 803.718802 226.581959 
L 805.400127 294.959928 
L 807.081452 285.516692 
L 808.762777 266.016331 
L 810.444101 297.781925 
L 812.125426 295.096026 
L 813.806751 268.71453 
L 815.488076 297.760737 
L 817.169401 286.34402 
L 818.850726 298.198504 
L 820.532051 296.945478 
L 822.213376 293.138926 
L 823.8947 300.399471 
L 825.576025 300.073435 
L 827.25735 299.03077 
L 828.938675 201.164672 
L 830.62 298.64652 
L 832.301325 295.405846 
L 833.98265 279.317939 
L 835.663975 297.45944 
L 837.3453 298.744413 
L 839.026624 293.958653 
L 840.707949 298.235383 
L 842.389274 299.18915 
L 844.070599 297.477759 
L 845.751924 297.96147 
L 847.433249 294.762741 
L 849.114574 296.994449 
L 850.795899 299.890444 
L 852.477223 296.61541 
L 854.158548 300.651336 
L 855.839873 297.789122 
L 857.521198 270.648244 
L 859.202523 300.520135 
L 860.883848 283.72075 
L 862.565173 294.459944 
L 864.246498 299.480603 
L 865.927822 295.378201 
L 867.609147 301.068936 
L 869.290472 296.998534 
L 870.971797 299.676828 
L 872.653122 297.714464 
L 874.334447 289.5156 
L 876.015772 299.16316 
L 877.697097 292.970941 
L 879.378421 300.635811 
L 881.059746 302.259722 
L 882.741071 277.402367 
L 884.422396 301.159899 
L 886.103721 265.113533 
L 887.785046 299.047812 
L 889.466371 300.718533 
L 891.147696 302.108974 
L 892.82902 270.779141 
L 894.510345 296.406027 
L 896.19167 302.643586 
L 897.872995 268.162714 
L 899.55432 302.864113 
L 901.235645 299.972222 
L 902.91697 256.166381 
L 904.598295 287.208192 
L 906.279619 301.357404 
L 907.960944 300.562463 
L 909.642269 291.239557 
L 911.323594 299.648789 
L 913.004919 247.471017 
L 914.686244 298.337413 
L 916.367569 301.941606 
L 918.048894 301.669515 
L 919.730218 301.884801 
L 921.411543 297.001945 
L 923.092868 302.65399 
L 924.774193 300.291292 
L 926.455518 255.598514 
L 928.136843 276.520683 
L 929.818168 299.802917 
L 931.499493 302.186391 
L 933.180817 280.821377 
L 934.862142 301.00363 
L 936.543467 281.630016 
L 938.224792 290.937051 
L 939.906117 282.717283 
L 941.587442 301.825647 
L 943.268767 279.50604 
L 944.950092 301.102924 
L 946.631416 300.809009 
L 948.312741 302.51743 
L 949.994066 302.800808 
L 951.675391 293.763537 
L 953.356716 303.046757 
L 955.038041 303.33715 
L 956.719366 303.302576 
L 958.400691 268.398451 
L 960.082016 271.877709 
L 961.76334 301.544912 
L 963.444665 304.046642 
L 965.12599 301.269927 
L 966.807315 226.165782 
L 968.48864 303.286659 
L 970.169965 302.638426 
L 971.85129 300.864567 
L 973.532615 303.15298 
L 975.213939 302.682151 
L 976.895264 279.434901 
L 978.576589 274.103561 
L 980.257914 302.307936 
L 981.939239 286.818614 
L 983.620564 299.272213 
L 985.301889 292.512598 
L 986.983214 283.677134 
L 988.664538 294.118114 
L 990.345863 273.800333 
L 992.027188 302.818508 
L 993.708513 301.646901 
L 995.389838 299.790428 
L 997.071163 301.84265 
L 998.752488 294.266352 
L 1000.433813 298.919732 
L 1002.115137 302.973394 
L 1003.796462 302.260238 
L 1005.477787 293.376839 
L 1007.159112 302.67289 
L 1008.840437 265.09502 
L 1010.521762 294.166228 
L 1012.203087 298.45234 
L 1013.884412 300.079599 
L 1015.565736 302.922447 
L 1017.247061 302.513779 
L 1018.928386 302.42058 
L 1020.609711 301.509024 
L 1022.291036 302.786978 
L 1023.972361 287.497919 
L 1025.653686 301.995901 
L 1027.335011 300.892679 
L 1029.016335 300.256634 
L 1030.69766 303.212516 
L 1032.378985 300.737851 
L 1034.06031 299.561975 
L 1035.741635 294.379661 
L 1037.42296 295.383089 
L 1039.104285 303.106239 
L 1040.78561 301.316454 
L 1042.466934 304.043359 
L 1044.148259 302.779583 
L 1045.829584 301.16182 
L 1047.510909 300.283958 
L 1047.510909 300.283958 
" clip-path="url(#p73a9a857fb)" style="fill: none; stroke: #ff7f0e; stroke-width: 1.5; stroke-linecap: square"/>
   </g>
   <g id="patch_9">
    <path d="M 592.04 323.44 
L 592.04 26.16 
" style="fill: none; stroke: #000000; stroke-width: 0.8; stroke-linejoin: miter; stroke-linecap: square"/>
   </g>
   <g id="patch_10">
    <path d="M 1069.2 323.44 
L 1069.2 26.16 
" style="fill: none; stroke: #000000; stroke-width: 0.8; stroke-linejoin: miter; stroke-linecap: square"/>
   </g>
   <g id="patch_11">
    <path d="M 592.04 323.44 
L 1069.2 323.44 
" style="fill: none; stroke: #000000; stroke-width: 0.8; stroke-linejoin: miter; stroke-linecap: square"/>
   </g>
   <g id="patch_12">
    <path d="M 592.04 26.16 
L 1069.2 26.16 
" style="fill: none; stroke: #000000; stroke-width: 0.8; stroke-linejoin: miter; stroke-linecap: square"/>
   </g>
   <g id="text_35">
    <!-- Training and Validation Loss (Skip first 50) -->
    <g transform="translate(704.630313 20.16) scale(0.12 -0.12)">
     <defs>
      <path id="DejaVuSans-28" d="M 1984 4856 
Q 1566 4138 1362 3434 
Q 1159 2731 1159 2009 
Q 1159 1288 1364 580 
Q 1569 -128 1984 -844 
L 1484 -844 
Q 1016 -109 783 600 
Q 550 1309 550 2009 
Q 550 2706 781 3412 
Q 1013 4119 1484 4856 
L 1984 4856 
z
" transform="scale(0.015625)"/>
      <path id="DejaVuSans-53" d="M 3425 4513 
L 3425 3897 
Q 3066 4069 2747 4153 
Q 2428 4238 2131 4238 
Q 1616 4238 1336 4038 
Q 1056 3838 1056 3469 
Q 1056 3159 1242 3001 
Q 1428 2844 1947 2747 
L 2328 2669 
Q 3034 2534 3370 2195 
Q 3706 1856 3706 1288 
Q 3706 609 3251 259 
Q 2797 -91 1919 -91 
Q 1588 -91 1214 -16 
Q 841 59 441 206 
L 441 856 
Q 825 641 1194 531 
Q 1563 422 1919 422 
Q 2459 422 2753 634 
Q 3047 847 3047 1241 
Q 3047 1584 2836 1778 
Q 2625 1972 2144 2069 
L 1759 2144 
Q 1053 2284 737 2584 
Q 422 2884 422 3419 
Q 422 4038 858 4394 
Q 1294 4750 2059 4750 
Q 2388 4750 2728 4690 
Q 3069 4631 3425 4513 
z
" transform="scale(0.015625)"/>
      <path id="DejaVuSans-6b" d="M 581 4863 
L 1159 4863 
L 1159 1991 
L 2875 3500 
L 3609 3500 
L 1753 1863 
L 3688 0 
L 2938 0 
L 1159 1709 
L 1159 0 
L 581 0 
L 581 4863 
z
" transform="scale(0.015625)"/>
      <path id="DejaVuSans-66" d="M 2375 4863 
L 2375 4384 
L 1825 4384 
Q 1516 4384 1395 4259 
Q 1275 4134 1275 3809 
L 1275 3500 
L 2222 3500 
L 2222 3053 
L 1275 3053 
L 1275 0 
L 697 0 
L 697 3053 
L 147 3053 
L 147 3500 
L 697 3500 
L 697 3744 
Q 697 4328 969 4595 
Q 1241 4863 1831 4863 
L 2375 4863 
z
" transform="scale(0.015625)"/>
      <path id="DejaVuSans-29" d="M 513 4856 
L 1013 4856 
Q 1481 4119 1714 3412 
Q 1947 2706 1947 2009 
Q 1947 1309 1714 600 
Q 1481 -109 1013 -844 
L 513 -844 
Q 928 -128 1133 580 
Q 1338 1288 1338 2009 
Q 1338 2731 1133 3434 
Q 928 4138 513 4856 
z
" transform="scale(0.015625)"/>
     </defs>
     <use xlink:href="#DejaVuSans-54"/>
     <use xlink:href="#DejaVuSans-72" x="46.333984"/>
     <use xlink:href="#DejaVuSans-61" x="87.447266"/>
     <use xlink:href="#DejaVuSans-69" x="148.726562"/>
     <use xlink:href="#DejaVuSans-6e" x="176.509766"/>
     <use xlink:href="#DejaVuSans-69" x="239.888672"/>
     <use xlink:href="#DejaVuSans-6e" x="267.671875"/>
     <use xlink:href="#DejaVuSans-67" x="331.050781"/>
     <use xlink:href="#DejaVuSans-20" x="394.527344"/>
     <use xlink:href="#DejaVuSans-61" x="426.314453"/>
     <use xlink:href="#DejaVuSans-6e" x="487.59375"/>
     <use xlink:href="#DejaVuSans-64" x="550.972656"/>
     <use xlink:href="#DejaVuSans-20" x="614.449219"/>
     <use xlink:href="#DejaVuSans-56" x="646.236328"/>
     <use xlink:href="#DejaVuSans-61" x="706.894531"/>
     <use xlink:href="#DejaVuSans-6c" x="768.173828"/>
     <use xlink:href="#DejaVuSans-69" x="795.957031"/>
     <use xlink:href="#DejaVuSans-64" x="823.740234"/>
     <use xlink:href="#DejaVuSans-61" x="887.216797"/>
     <use xlink:href="#DejaVuSans-74" x="948.496094"/>
     <use xlink:href="#DejaVuSans-69" x="987.705078"/>
     <use xlink:href="#DejaVuSans-6f" x="1015.488281"/>
     <use xlink:href="#DejaVuSans-6e" x="1076.669922"/>
     <use xlink:href="#DejaVuSans-20" x="1140.048828"/>
     <use xlink:href="#DejaVuSans-4c" x="1171.835938"/>
     <use xlink:href="#DejaVuSans-6f" x="1225.798828"/>
     <use xlink:href="#DejaVuSans-73" x="1286.980469"/>
     <use xlink:href="#DejaVuSans-73" x="1339.080078"/>
     <use xlink:href="#DejaVuSans-20" x="1391.179688"/>
     <use xlink:href="#DejaVuSans-28" x="1422.966797"/>
     <use xlink:href="#DejaVuSans-53" x="1461.980469"/>
     <use xlink:href="#DejaVuSans-6b" x="1525.457031"/>
     <use xlink:href="#DejaVuSans-69" x="1583.367188"/>
     <use xlink:href="#DejaVuSans-70" x="1611.150391"/>
     <use xlink:href="#DejaVuSans-20" x="1674.626953"/>
     <use xlink:href="#DejaVuSans-66" x="1706.414062"/>
     <use xlink:href="#DejaVuSans-69" x="1741.619141"/>
     <use xlink:href="#DejaVuSans-72" x="1769.402344"/>
     <use xlink:href="#DejaVuSans-73" x="1810.515625"/>
     <use xlink:href="#DejaVuSans-74" x="1862.615234"/>
     <use xlink:href="#DejaVuSans-20" x="1901.824219"/>
     <use xlink:href="#DejaVuSans-35" x="1933.611328"/>
     <use xlink:href="#DejaVuSans-30" x="1997.234375"/>
     <use xlink:href="#DejaVuSans-29" x="2060.857422"/>
    </g>
   </g>
   <g id="legend_2">
    <g id="patch_13">
     <path d="M 958.325 63.51625 
L 1062.2 63.51625 
Q 1064.2 63.51625 1064.2 61.51625 
L 1064.2 33.16 
Q 1064.2 31.16 1062.2 31.16 
L 958.325 31.16 
Q 956.325 31.16 956.325 33.16 
L 956.325 61.51625 
Q 956.325 63.51625 958.325 63.51625 
z
" style="fill: #ffffff; opacity: 0.8; stroke: #cccccc; stroke-linejoin: miter"/>
    </g>
    <g id="line2d_34">
     <path d="M 960.325 39.258438 
L 970.325 39.258438 
L 980.325 39.258438 
" style="fill: none; stroke: #1f77b4; stroke-width: 1.5; stroke-linecap: square"/>
    </g>
    <g id="text_36">
     <!-- Training loss -->
     <g transform="translate(988.325 42.758438) scale(0.1 -0.1)">
      <use xlink:href="#DejaVuSans-54"/>
      <use xlink:href="#DejaVuSans-72" x="46.333984"/>
      <use xlink:href="#DejaVuSans-61" x="87.447266"/>
      <use xlink:href="#DejaVuSans-69" x="148.726562"/>
      <use xlink:href="#DejaVuSans-6e" x="176.509766"/>
      <use xlink:href="#DejaVuSans-69" x="239.888672"/>
      <use xlink:href="#DejaVuSans-6e" x="267.671875"/>
      <use xlink:href="#DejaVuSans-67" x="331.050781"/>
      <use xlink:href="#DejaVuSans-20" x="394.527344"/>
      <use xlink:href="#DejaVuSans-6c" x="426.314453"/>
      <use xlink:href="#DejaVuSans-6f" x="454.097656"/>
      <use xlink:href="#DejaVuSans-73" x="515.279297"/>
      <use xlink:href="#DejaVuSans-73" x="567.378906"/>
     </g>
    </g>
    <g id="line2d_35">
     <path d="M 960.325 53.936563 
L 970.325 53.936563 
L 980.325 53.936563 
" style="fill: none; stroke: #ff7f0e; stroke-width: 1.5; stroke-linecap: square"/>
    </g>
    <g id="text_37">
     <!-- Validation loss -->
     <g transform="translate(988.325 57.436563) scale(0.1 -0.1)">
      <use xlink:href="#DejaVuSans-56"/>
      <use xlink:href="#DejaVuSans-61" x="60.658203"/>
      <use xlink:href="#DejaVuSans-6c" x="121.9375"/>
      <use xlink:href="#DejaVuSans-69" x="149.720703"/>
      <use xlink:href="#DejaVuSans-64" x="177.503906"/>
      <use xlink:href="#DejaVuSans-61" x="240.980469"/>
      <use xlink:href="#DejaVuSans-74" x="302.259766"/>
      <use xlink:href="#DejaVuSans-69" x="341.46875"/>
      <use xlink:href="#DejaVuSans-6f" x="369.251953"/>
      <use xlink:href="#DejaVuSans-6e" x="430.433594"/>
      <use xlink:href="#DejaVuSans-20" x="493.8125"/>
      <use xlink:href="#DejaVuSans-6c" x="525.599609"/>
      <use xlink:href="#DejaVuSans-6f" x="553.382812"/>
      <use xlink:href="#DejaVuSans-73" x="614.564453"/>
      <use xlink:href="#DejaVuSans-73" x="666.664062"/>
     </g>
    </g>
   </g>
  </g>
  <g id="axes_3">
   <g id="patch_14">
    <path d="M 54.245 678.04 
L 531.405 678.04 
L 531.405 380.76 
L 54.245 380.76 
z
" style="fill: #ffffff"/>
   </g>
   <g id="matplotlib.axis_5">
    <g id="xtick_14">
     <g id="line2d_36">
      <g>
       <use xlink:href="#ma334c58ac7" x="74.252766" y="678.04" style="stroke: #000000; stroke-width: 0.8"/>
      </g>
     </g>
     <g id="text_38">
      <!-- 50 -->
      <g transform="translate(67.890266 692.638438) scale(0.1 -0.1)">
       <use xlink:href="#DejaVuSans-35"/>
       <use xlink:href="#DejaVuSans-30" x="63.623047"/>
      </g>
     </g>
    </g>
    <g id="xtick_15">
     <g id="line2d_37">
      <g>
       <use xlink:href="#ma334c58ac7" x="158.31901" y="678.04" style="stroke: #000000; stroke-width: 0.8"/>
      </g>
     </g>
     <g id="text_39">
      <!-- 100 -->
      <g transform="translate(148.77526 692.638438) scale(0.1 -0.1)">
       <use xlink:href="#DejaVuSans-31"/>
       <use xlink:href="#DejaVuSans-30" x="63.623047"/>
       <use xlink:href="#DejaVuSans-30" x="127.246094"/>
      </g>
     </g>
    </g>
    <g id="xtick_16">
     <g id="line2d_38">
      <g>
       <use xlink:href="#ma334c58ac7" x="242.385254" y="678.04" style="stroke: #000000; stroke-width: 0.8"/>
      </g>
     </g>
     <g id="text_40">
      <!-- 150 -->
      <g transform="translate(232.841504 692.638438) scale(0.1 -0.1)">
       <use xlink:href="#DejaVuSans-31"/>
       <use xlink:href="#DejaVuSans-35" x="63.623047"/>
       <use xlink:href="#DejaVuSans-30" x="127.246094"/>
      </g>
     </g>
    </g>
    <g id="xtick_17">
     <g id="line2d_39">
      <g>
       <use xlink:href="#ma334c58ac7" x="326.451498" y="678.04" style="stroke: #000000; stroke-width: 0.8"/>
      </g>
     </g>
     <g id="text_41">
      <!-- 200 -->
      <g transform="translate(316.907748 692.638438) scale(0.1 -0.1)">
       <use xlink:href="#DejaVuSans-32"/>
       <use xlink:href="#DejaVuSans-30" x="63.623047"/>
       <use xlink:href="#DejaVuSans-30" x="127.246094"/>
      </g>
     </g>
    </g>
    <g id="xtick_18">
     <g id="line2d_40">
      <g>
       <use xlink:href="#ma334c58ac7" x="410.517741" y="678.04" style="stroke: #000000; stroke-width: 0.8"/>
      </g>
     </g>
     <g id="text_42">
      <!-- 250 -->
      <g transform="translate(400.973991 692.638438) scale(0.1 -0.1)">
       <use xlink:href="#DejaVuSans-32"/>
       <use xlink:href="#DejaVuSans-35" x="63.623047"/>
       <use xlink:href="#DejaVuSans-30" x="127.246094"/>
      </g>
     </g>
    </g>
    <g id="xtick_19">
     <g id="line2d_41">
      <g>
       <use xlink:href="#ma334c58ac7" x="494.583985" y="678.04" style="stroke: #000000; stroke-width: 0.8"/>
      </g>
     </g>
     <g id="text_43">
      <!-- 300 -->
      <g transform="translate(485.040235 692.638438) scale(0.1 -0.1)">
       <use xlink:href="#DejaVuSans-33"/>
       <use xlink:href="#DejaVuSans-30" x="63.623047"/>
       <use xlink:href="#DejaVuSans-30" x="127.246094"/>
      </g>
     </g>
    </g>
    <g id="text_44">
     <!-- Epochs -->
     <g transform="translate(274.909375 706.316563) scale(0.1 -0.1)">
      <use xlink:href="#DejaVuSans-45"/>
      <use xlink:href="#DejaVuSans-70" x="63.183594"/>
      <use xlink:href="#DejaVuSans-6f" x="126.660156"/>
      <use xlink:href="#DejaVuSans-63" x="187.841797"/>
      <use xlink:href="#DejaVuSans-68" x="242.822266"/>
      <use xlink:href="#DejaVuSans-73" x="306.201172"/>
     </g>
    </g>
   </g>
   <g id="matplotlib.axis_6">
    <g id="ytick_15">
     <g id="line2d_42">
      <g>
       <use xlink:href="#m41bbd5ff8a" x="54.245" y="660.192571" style="stroke: #000000; stroke-width: 0.8"/>
      </g>
     </g>
     <g id="text_45">
      <!-- 0.01 -->
      <g transform="translate(24.979375 663.99179) scale(0.1 -0.1)">
       <use xlink:href="#DejaVuSans-30"/>
       <use xlink:href="#DejaVuSans-2e" x="63.623047"/>
       <use xlink:href="#DejaVuSans-30" x="95.410156"/>
       <use xlink:href="#DejaVuSans-31" x="159.033203"/>
      </g>
     </g>
    </g>
    <g id="ytick_16">
     <g id="line2d_43">
      <g>
       <use xlink:href="#m41bbd5ff8a" x="54.245" y="620.439332" style="stroke: #000000; stroke-width: 0.8"/>
      </g>
     </g>
     <g id="text_46">
      <!-- 0.02 -->
      <g transform="translate(24.979375 624.23855) scale(0.1 -0.1)">
       <use xlink:href="#DejaVuSans-30"/>
       <use xlink:href="#DejaVuSans-2e" x="63.623047"/>
       <use xlink:href="#DejaVuSans-30" x="95.410156"/>
       <use xlink:href="#DejaVuSans-32" x="159.033203"/>
      </g>
     </g>
    </g>
    <g id="ytick_17">
     <g id="line2d_44">
      <g>
       <use xlink:href="#m41bbd5ff8a" x="54.245" y="580.686092" style="stroke: #000000; stroke-width: 0.8"/>
      </g>
     </g>
     <g id="text_47">
      <!-- 0.03 -->
      <g transform="translate(24.979375 584.48531) scale(0.1 -0.1)">
       <use xlink:href="#DejaVuSans-30"/>
       <use xlink:href="#DejaVuSans-2e" x="63.623047"/>
       <use xlink:href="#DejaVuSans-30" x="95.410156"/>
       <use xlink:href="#DejaVuSans-33" x="159.033203"/>
      </g>
     </g>
    </g>
    <g id="ytick_18">
     <g id="line2d_45">
      <g>
       <use xlink:href="#m41bbd5ff8a" x="54.245" y="540.932852" style="stroke: #000000; stroke-width: 0.8"/>
      </g>
     </g>
     <g id="text_48">
      <!-- 0.04 -->
      <g transform="translate(24.979375 544.732071) scale(0.1 -0.1)">
       <use xlink:href="#DejaVuSans-30"/>
       <use xlink:href="#DejaVuSans-2e" x="63.623047"/>
       <use xlink:href="#DejaVuSans-30" x="95.410156"/>
       <use xlink:href="#DejaVuSans-34" x="159.033203"/>
      </g>
     </g>
    </g>
    <g id="ytick_19">
     <g id="line2d_46">
      <g>
       <use xlink:href="#m41bbd5ff8a" x="54.245" y="501.179612" style="stroke: #000000; stroke-width: 0.8"/>
      </g>
     </g>
     <g id="text_49">
      <!-- 0.05 -->
      <g transform="translate(24.979375 504.978831) scale(0.1 -0.1)">
       <use xlink:href="#DejaVuSans-30"/>
       <use xlink:href="#DejaVuSans-2e" x="63.623047"/>
       <use xlink:href="#DejaVuSans-30" x="95.410156"/>
       <use xlink:href="#DejaVuSans-35" x="159.033203"/>
      </g>
     </g>
    </g>
    <g id="ytick_20">
     <g id="line2d_47">
      <g>
       <use xlink:href="#m41bbd5ff8a" x="54.245" y="461.426372" style="stroke: #000000; stroke-width: 0.8"/>
      </g>
     </g>
     <g id="text_50">
      <!-- 0.06 -->
      <g transform="translate(24.979375 465.225591) scale(0.1 -0.1)">
       <use xlink:href="#DejaVuSans-30"/>
       <use xlink:href="#DejaVuSans-2e" x="63.623047"/>
       <use xlink:href="#DejaVuSans-30" x="95.410156"/>
       <use xlink:href="#DejaVuSans-36" x="159.033203"/>
      </g>
     </g>
    </g>
    <g id="ytick_21">
     <g id="line2d_48">
      <g>
       <use xlink:href="#m41bbd5ff8a" x="54.245" y="421.673132" style="stroke: #000000; stroke-width: 0.8"/>
      </g>
     </g>
     <g id="text_51">
      <!-- 0.07 -->
      <g transform="translate(24.979375 425.472351) scale(0.1 -0.1)">
       <defs>
        <path id="DejaVuSans-37" d="M 525 4666 
L 3525 4666 
L 3525 4397 
L 1831 0 
L 1172 0 
L 2766 4134 
L 525 4134 
L 525 4666 
z
" transform="scale(0.015625)"/>
       </defs>
       <use xlink:href="#DejaVuSans-30"/>
       <use xlink:href="#DejaVuSans-2e" x="63.623047"/>
       <use xlink:href="#DejaVuSans-30" x="95.410156"/>
       <use xlink:href="#DejaVuSans-37" x="159.033203"/>
      </g>
     </g>
    </g>
    <g id="ytick_22">
     <g id="line2d_49">
      <g>
       <use xlink:href="#m41bbd5ff8a" x="54.245" y="381.919892" style="stroke: #000000; stroke-width: 0.8"/>
      </g>
     </g>
     <g id="text_52">
      <!-- 0.08 -->
      <g transform="translate(24.979375 385.719111) scale(0.1 -0.1)">
       <use xlink:href="#DejaVuSans-30"/>
       <use xlink:href="#DejaVuSans-2e" x="63.623047"/>
       <use xlink:href="#DejaVuSans-30" x="95.410156"/>
       <use xlink:href="#DejaVuSans-38" x="159.033203"/>
      </g>
     </g>
    </g>
    <g id="text_53">
     <!-- MAE -->
     <g transform="translate(18.899687 540.29375) rotate(-90) scale(0.1 -0.1)">
      <defs>
       <path id="DejaVuSans-4d" d="M 628 4666 
L 1569 4666 
L 2759 1491 
L 3956 4666 
L 4897 4666 
L 4897 0 
L 4281 0 
L 4281 4097 
L 3078 897 
L 2444 897 
L 1241 4097 
L 1241 0 
L 628 0 
L 628 4666 
z
" transform="scale(0.015625)"/>
       <path id="DejaVuSans-41" d="M 2188 4044 
L 1331 1722 
L 3047 1722 
L 2188 4044 
z
M 1831 4666 
L 2547 4666 
L 4325 0 
L 3669 0 
L 3244 1197 
L 1141 1197 
L 716 0 
L 50 0 
L 1831 4666 
z
" transform="scale(0.015625)"/>
      </defs>
      <use xlink:href="#DejaVuSans-4d"/>
      <use xlink:href="#DejaVuSans-41" x="86.279297"/>
      <use xlink:href="#DejaVuSans-45" x="154.6875"/>
     </g>
    </g>
   </g>
   <g id="line2d_50">
    <path d="M 75.934091 475.202062 
L 77.615416 469.523016 
L 79.296741 486.718272 
L 80.978066 485.541071 
L 82.65939 490.514101 
L 84.340715 487.179179 
L 86.02204 489.093184 
L 87.703365 500.131071 
L 89.38469 502.12349 
L 91.066015 503.841569 
L 92.74734 508.46097 
L 94.428665 505.41973 
L 96.109989 509.119862 
L 97.791314 511.95318 
L 99.472639 516.550293 
L 101.153964 518.797387 
L 102.835289 522.985587 
L 104.516614 523.978694 
L 106.197939 526.633235 
L 107.879264 528.865609 
L 109.560588 531.944923 
L 111.241913 532.802822 
L 112.923238 532.750604 
L 114.604563 537.808817 
L 116.285888 535.71023 
L 117.967213 544.779125 
L 121.329863 541.026613 
L 123.011187 549.980454 
L 124.692512 545.444 
L 126.373837 548.275852 
L 128.055162 550.833881 
L 129.736487 550.8417 
L 131.417812 553.151615 
L 133.099137 556.3764 
L 134.780462 557.578022 
L 136.461786 556.698398 
L 138.143111 560.845087 
L 139.824436 557.256262 
L 141.505761 563.784869 
L 143.187086 564.326472 
L 144.868411 568.942422 
L 146.549736 567.67096 
L 148.231061 569.299236 
L 149.912385 571.909838 
L 151.59371 567.953846 
L 153.275035 573.606472 
L 154.95636 575.495998 
L 156.637685 570.608372 
L 158.31901 571.541043 
L 160.000335 573.891906 
L 161.68166 576.814953 
L 163.362984 576.339776 
L 165.044309 580.463897 
L 166.725634 579.991948 
L 168.406959 577.885498 
L 170.088284 586.356447 
L 171.769609 582.727362 
L 173.450934 588.71986 
L 175.132259 581.395849 
L 178.494908 586.562999 
L 180.176233 588.219708 
L 181.857558 591.316053 
L 183.538883 586.556809 
L 185.220208 589.040888 
L 186.901533 589.837965 
L 188.582858 593.509612 
L 190.264183 592.352107 
L 191.945507 593.626923 
L 193.626832 595.504667 
L 195.308157 590.734561 
L 196.989482 597.089552 
L 198.670807 597.808081 
L 200.352132 596.651265 
L 202.033457 595.104122 
L 203.714782 598.689875 
L 205.396106 596.127825 
L 207.077431 598.036262 
L 208.758756 601.902776 
L 210.440081 598.825742 
L 212.121406 601.14943 
L 213.802731 602.411932 
L 215.484056 602.10624 
L 217.165381 602.784577 
L 218.846705 607.849772 
L 220.52803 598.453223 
L 222.209355 601.746997 
L 223.89068 603.089928 
L 225.572005 610.196311 
L 227.25333 604.709407 
L 228.934655 606.843596 
L 230.61598 606.531077 
L 232.297304 607.846129 
L 233.978629 612.210567 
L 235.659954 610.861867 
L 237.341279 608.288614 
L 239.022604 606.559577 
L 240.703929 611.254127 
L 242.385254 612.765232 
L 244.066579 613.993488 
L 245.747903 613.965698 
L 247.429228 613.062357 
L 249.110553 611.986355 
L 250.791878 611.197193 
L 252.473203 611.909695 
L 254.154528 609.662763 
L 255.835853 613.690083 
L 257.517178 614.766182 
L 259.198502 615.049593 
L 260.879827 615.987381 
L 262.561152 621.844996 
L 264.242477 620.293381 
L 265.923802 616.471287 
L 267.605127 616.690146 
L 269.286452 618.931827 
L 270.967777 615.908485 
L 272.649101 623.960037 
L 274.330426 621.311427 
L 276.011751 618.167212 
L 277.693076 623.16267 
L 279.374401 617.885444 
L 281.055726 621.74436 
L 282.737051 621.495439 
L 284.418376 622.211843 
L 286.0997 624.631895 
L 287.781025 623.056296 
L 289.46235 623.207372 
L 291.143675 620.306383 
L 292.825 623.281981 
L 294.506325 622.197397 
L 296.18765 625.443685 
L 297.868975 628.205963 
L 299.5503 623.672501 
L 301.231624 626.692933 
L 302.912949 629.446999 
L 304.594274 625.517813 
L 306.275599 629.297826 
L 307.956924 625.457658 
L 309.638249 625.943793 
L 311.319574 628.967032 
L 313.000899 625.30801 
L 314.682223 625.837255 
L 316.363548 633.643752 
L 318.044873 629.041478 
L 319.726198 626.465656 
L 323.088848 633.753155 
L 324.770173 627.111746 
L 326.451498 632.182065 
L 328.132822 628.096886 
L 329.814147 631.728451 
L 331.495472 632.218229 
L 333.176797 632.453474 
L 334.858122 634.656874 
L 336.539447 627.774496 
L 338.220772 636.756468 
L 339.902097 633.232055 
L 341.583421 631.742786 
L 343.264746 634.117144 
L 344.946071 635.940353 
L 346.627396 633.619598 
L 348.308721 635.656534 
L 349.990046 630.43539 
L 351.671371 637.9191 
L 353.352696 628.815881 
L 355.03402 632.532674 
L 356.715345 636.56471 
L 358.39667 631.364455 
L 360.077995 633.352469 
L 361.75932 636.207304 
L 363.440645 636.784872 
L 365.12197 635.530278 
L 366.803295 633.320399 
L 368.484619 634.048584 
L 370.165944 638.284211 
L 371.847269 635.398624 
L 373.528594 638.082546 
L 375.209919 637.816817 
L 376.891244 639.328277 
L 378.572569 637.461202 
L 380.253894 638.426446 
L 381.935218 635.022018 
L 383.616543 639.499945 
L 385.297868 636.627976 
L 386.979193 640.66795 
L 388.660518 638.720247 
L 390.341843 637.918138 
L 392.023168 636.967255 
L 393.704493 638.644112 
L 395.385817 635.529308 
L 397.067142 639.966529 
L 398.748467 635.833423 
L 400.429792 641.804596 
L 402.111117 639.187459 
L 403.792442 638.068196 
L 405.473767 639.631211 
L 407.155092 641.987475 
L 408.836416 642.368502 
L 410.517741 637.312399 
L 412.199066 640.565137 
L 413.880391 638.548548 
L 415.561716 640.827978 
L 417.243041 642.097926 
L 418.924366 642.930642 
L 420.605691 640.861303 
L 422.287016 641.27431 
L 423.96834 642.99056 
L 425.649665 643.543778 
L 427.33099 640.077139 
L 429.012315 646.113176 
L 430.69364 642.979357 
L 432.374965 645.587974 
L 434.05629 642.110484 
L 435.737615 641.25635 
L 437.418939 641.022624 
L 439.100264 644.305043 
L 440.781589 641.836565 
L 442.462914 645.334088 
L 444.144239 639.021407 
L 445.825564 642.394829 
L 447.506889 642.885011 
L 449.188214 646.931827 
L 450.869538 641.213493 
L 452.550863 644.537525 
L 454.232188 642.858673 
L 455.913513 644.374298 
L 457.594838 640.982879 
L 459.276163 643.636102 
L 460.957488 643.855556 
L 462.638813 643.898481 
L 464.320137 643.272176 
L 466.001462 641.749213 
L 467.682787 643.432601 
L 469.364112 640.664614 
L 471.045437 644.039124 
L 472.726762 644.029406 
L 474.408087 645.053305 
L 476.089412 644.288719 
L 477.770736 641.878635 
L 479.452061 644.041009 
L 481.133386 642.698463 
L 482.814711 649.289591 
L 484.496036 646.158467 
L 487.858686 647.307286 
L 489.540011 648.125844 
L 491.221335 646.635243 
L 492.90266 647.845131 
L 494.583985 648.218061 
L 496.26531 648.244381 
L 501.309285 646.416821 
L 502.99061 649.020718 
L 504.671934 650.758389 
L 506.353259 648.465461 
L 508.034584 646.60414 
L 509.715909 647.308319 
L 509.715909 647.308319 
" clip-path="url(#pec26bf26f8)" style="fill: none; stroke: #1f77b4; stroke-width: 1.5; stroke-linecap: square"/>
   </g>
   <g id="line2d_51">
    <path d="M 75.934091 451.690415 
L 77.615416 504.150386 
L 79.296741 510.607198 
L 80.978066 394.272727 
L 82.65939 463.509844 
L 84.340715 455.144448 
L 86.02204 517.514181 
L 87.703365 539.337664 
L 89.38469 470.626112 
L 91.066015 491.019747 
L 92.74734 549.107257 
L 94.428665 510.375626 
L 96.109989 458.080497 
L 97.791314 495.661806 
L 99.472639 475.142158 
L 101.153964 518.499055 
L 102.835289 500.089086 
L 104.516614 551.335233 
L 106.197939 537.085164 
L 107.879264 536.486841 
L 109.560588 489.758578 
L 111.241913 568.230824 
L 112.923238 538.881139 
L 114.604563 494.545323 
L 116.285888 554.498441 
L 117.967213 517.431783 
L 119.648538 509.657793 
L 121.329863 560.13614 
L 123.011187 523.545924 
L 124.692512 450.899484 
L 126.373837 523.048171 
L 128.055162 532.88599 
L 129.736487 580.961909 
L 131.417812 486.88221 
L 133.099137 549.274054 
L 134.780462 546.837401 
L 136.461786 586.547323 
L 138.143111 582.396317 
L 139.824436 573.126194 
L 141.505761 497.593656 
L 143.187086 577.123066 
L 144.868411 570.761381 
L 146.549736 570.870451 
L 148.231061 608.119412 
L 149.912385 600.879843 
L 151.59371 580.502978 
L 153.275035 575.571806 
L 154.95636 573.865708 
L 156.637685 551.497335 
L 158.31901 539.804984 
L 160.000335 584.26131 
L 161.68166 570.950525 
L 163.362984 578.174966 
L 165.044309 549.162807 
L 166.725634 596.769509 
L 168.406959 606.750527 
L 170.088284 556.956774 
L 171.769609 575.211127 
L 173.450934 592.074463 
L 175.132259 594.276123 
L 176.813584 585.177084 
L 178.494908 571.754474 
L 180.176233 613.00754 
L 181.857558 549.449351 
L 183.538883 594.263757 
L 185.220208 618.315222 
L 186.901533 615.881147 
L 188.582858 581.696995 
L 190.264183 617.108781 
L 191.945507 531.216012 
L 193.626832 512.745755 
L 195.308157 619.860944 
L 196.989482 608.924464 
L 198.670807 609.001531 
L 200.352132 614.034494 
L 202.033457 590.453378 
L 203.714782 581.905894 
L 205.396106 608.924797 
L 207.077431 588.138709 
L 208.758756 579.743612 
L 210.440081 597.452623 
L 212.121406 605.148827 
L 213.802731 606.567418 
L 215.484056 495.399757 
L 217.165381 543.592653 
L 218.846705 585.085711 
L 220.52803 576.74566 
L 222.209355 614.064572 
L 223.89068 616.088928 
L 225.572005 568.955188 
L 227.25333 567.249712 
L 228.934655 627.159831 
L 230.61598 621.732476 
L 232.297304 551.696178 
L 233.978629 594.032977 
L 235.659954 620.509648 
L 237.341279 599.24471 
L 239.022604 610.209943 
L 240.703929 600.002803 
L 242.385254 613.119284 
L 244.066579 603.090462 
L 245.747903 506.884082 
L 247.429228 613.921285 
L 249.110553 590.412652 
L 250.791878 600.929646 
L 252.473203 534.222598 
L 254.154528 619.68618 
L 255.835853 617.326802 
L 257.517178 605.61052 
L 259.198502 605.729408 
L 260.879827 587.142233 
L 262.561152 603.412555 
L 264.242477 618.522048 
L 265.923802 572.370123 
L 267.605127 624.83196 
L 269.286452 610.433969 
L 270.967777 621.234715 
L 272.649101 623.288053 
L 274.330426 608.28509 
L 276.011751 584.834532 
L 277.693076 626.880425 
L 279.374401 623.860126 
L 281.055726 633.519287 
L 282.737051 625.908503 
L 284.418376 608.289059 
L 286.0997 638.347439 
L 287.781025 637.180708 
L 289.46235 635.371264 
L 291.143675 546.128824 
L 292.825 629.641171 
L 294.506325 626.229004 
L 296.18765 609.016562 
L 297.868975 628.079618 
L 299.5503 627.356935 
L 301.231624 635.544324 
L 302.912949 626.810548 
L 304.594274 635.278884 
L 306.275599 629.429206 
L 307.956924 625.826045 
L 309.638249 628.644376 
L 311.319574 621.749632 
L 313.000899 633.419207 
L 314.682223 620.171412 
L 316.363548 643.339784 
L 318.044873 624.726363 
L 319.726198 611.565432 
L 321.407523 638.025397 
L 323.088848 578.044364 
L 324.770173 604.571489 
L 326.451498 637.914265 
L 328.132822 612.707202 
L 329.814147 644.728683 
L 331.495472 635.528182 
L 333.176797 638.997002 
L 334.858122 619.59437 
L 336.539447 610.82055 
L 338.220772 628.540022 
L 339.902097 628.19496 
L 341.583421 631.751842 
L 343.264746 637.34127 
L 344.946071 578.873429 
L 346.627396 643.721688 
L 348.308721 605.469669 
L 349.990046 647.530676 
L 351.671371 636.417373 
L 353.352696 646.728996 
L 355.03402 623.10929 
L 356.715345 618.289388 
L 358.39667 653.110355 
L 360.077995 587.343957 
L 361.75932 645.37715 
L 363.440645 638.792627 
L 365.12197 581.969618 
L 366.803295 647.153992 
L 368.484619 640.399932 
L 371.847269 638.37899 
L 373.528594 641.919253 
L 375.209919 627.838576 
L 376.891244 629.86128 
L 378.572569 644.420166 
L 380.253894 646.53568 
L 381.935218 645.7842 
L 383.616543 622.521727 
L 385.297868 659.773778 
L 386.979193 629.881724 
L 388.660518 634.089635 
L 390.341843 616.505941 
L 392.023168 636.270421 
L 393.704493 642.725941 
L 395.385817 615.206497 
L 397.067142 637.160612 
L 398.748467 629.563644 
L 400.429792 637.206987 
L 402.111117 598.007066 
L 403.792442 647.702407 
L 405.473767 620.159742 
L 407.155092 647.668824 
L 408.836416 634.880404 
L 410.517741 652.054123 
L 412.199066 651.766891 
L 413.880391 609.33953 
L 415.561716 656.651717 
L 417.243041 653.189699 
L 418.924366 657.067372 
L 420.605691 639.255608 
L 422.287016 599.804862 
L 423.96834 652.010321 
L 425.649665 664.527273 
L 427.33099 648.962647 
L 429.012315 610.427453 
L 430.69364 644.921607 
L 432.374965 646.860017 
L 434.05629 637.303217 
L 435.737615 649.601266 
L 437.418939 653.735342 
L 439.100264 620.874288 
L 440.781589 640.123747 
L 442.462914 649.705375 
L 444.144239 643.627143 
L 445.825564 645.690125 
L 447.506889 616.087936 
L 449.188214 629.971372 
L 450.869538 622.587546 
L 452.550863 604.353652 
L 454.232188 649.884811 
L 455.913513 642.491937 
L 457.594838 636.284971 
L 459.276163 647.649094 
L 460.957488 615.771825 
L 462.638813 621.91015 
L 464.320137 645.196573 
L 466.001462 653.249336 
L 467.682787 625.333734 
L 469.364112 650.338821 
L 471.045437 624.769487 
L 472.726762 638.081291 
L 474.408087 624.397161 
L 476.089412 641.861049 
L 477.770736 652.910993 
L 479.452061 649.27751 
L 481.133386 651.259549 
L 482.814711 645.036034 
L 484.496036 652.910168 
L 486.177361 624.005146 
L 487.858686 644.419792 
L 489.540011 645.469297 
L 491.221335 641.80634 
L 492.90266 660.954633 
L 494.583985 647.091289 
L 496.26531 641.416361 
L 497.946635 641.525616 
L 499.62796 636.425652 
L 501.309285 659.493721 
L 502.99061 661.200778 
L 504.671934 659.456005 
L 506.353259 653.252502 
L 508.034584 650.212695 
L 509.715909 638.738825 
L 509.715909 638.738825 
" clip-path="url(#pec26bf26f8)" style="fill: none; stroke: #ff7f0e; stroke-width: 1.5; stroke-linecap: square"/>
   </g>
   <g id="patch_15">
    <path d="M 54.245 678.04 
L 54.245 380.76 
" style="fill: none; stroke: #000000; stroke-width: 0.8; stroke-linejoin: miter; stroke-linecap: square"/>
   </g>
   <g id="patch_16">
    <path d="M 531.405 678.04 
L 531.405 380.76 
" style="fill: none; stroke: #000000; stroke-width: 0.8; stroke-linejoin: miter; stroke-linecap: square"/>
   </g>
   <g id="patch_17">
    <path d="M 54.245 678.04 
L 531.405 678.04 
" style="fill: none; stroke: #000000; stroke-width: 0.8; stroke-linejoin: miter; stroke-linecap: square"/>
   </g>
   <g id="patch_18">
    <path d="M 54.245 380.76 
L 531.405 380.76 
" style="fill: none; stroke: #000000; stroke-width: 0.8; stroke-linejoin: miter; stroke-linecap: square"/>
   </g>
   <g id="text_54">
    <!-- Training and Validation MAE (Skip first 50) -->
    <g transform="translate(166.923437 374.76) scale(0.12 -0.12)">
     <use xlink:href="#DejaVuSans-54"/>
     <use xlink:href="#DejaVuSans-72" x="46.333984"/>
     <use xlink:href="#DejaVuSans-61" x="87.447266"/>
     <use xlink:href="#DejaVuSans-69" x="148.726562"/>
     <use xlink:href="#DejaVuSans-6e" x="176.509766"/>
     <use xlink:href="#DejaVuSans-69" x="239.888672"/>
     <use xlink:href="#DejaVuSans-6e" x="267.671875"/>
     <use xlink:href="#DejaVuSans-67" x="331.050781"/>
     <use xlink:href="#DejaVuSans-20" x="394.527344"/>
     <use xlink:href="#DejaVuSans-61" x="426.314453"/>
     <use xlink:href="#DejaVuSans-6e" x="487.59375"/>
     <use xlink:href="#DejaVuSans-64" x="550.972656"/>
     <use xlink:href="#DejaVuSans-20" x="614.449219"/>
     <use xlink:href="#DejaVuSans-56" x="646.236328"/>
     <use xlink:href="#DejaVuSans-61" x="706.894531"/>
     <use xlink:href="#DejaVuSans-6c" x="768.173828"/>
     <use xlink:href="#DejaVuSans-69" x="795.957031"/>
     <use xlink:href="#DejaVuSans-64" x="823.740234"/>
     <use xlink:href="#DejaVuSans-61" x="887.216797"/>
     <use xlink:href="#DejaVuSans-74" x="948.496094"/>
     <use xlink:href="#DejaVuSans-69" x="987.705078"/>
     <use xlink:href="#DejaVuSans-6f" x="1015.488281"/>
     <use xlink:href="#DejaVuSans-6e" x="1076.669922"/>
     <use xlink:href="#DejaVuSans-20" x="1140.048828"/>
     <use xlink:href="#DejaVuSans-4d" x="1171.835938"/>
     <use xlink:href="#DejaVuSans-41" x="1258.115234"/>
     <use xlink:href="#DejaVuSans-45" x="1326.523438"/>
     <use xlink:href="#DejaVuSans-20" x="1389.707031"/>
     <use xlink:href="#DejaVuSans-28" x="1421.494141"/>
     <use xlink:href="#DejaVuSans-53" x="1460.507812"/>
     <use xlink:href="#DejaVuSans-6b" x="1523.984375"/>
     <use xlink:href="#DejaVuSans-69" x="1581.894531"/>
     <use xlink:href="#DejaVuSans-70" x="1609.677734"/>
     <use xlink:href="#DejaVuSans-20" x="1673.154297"/>
     <use xlink:href="#DejaVuSans-66" x="1704.941406"/>
     <use xlink:href="#DejaVuSans-69" x="1740.146484"/>
     <use xlink:href="#DejaVuSans-72" x="1767.929688"/>
     <use xlink:href="#DejaVuSans-73" x="1809.042969"/>
     <use xlink:href="#DejaVuSans-74" x="1861.142578"/>
     <use xlink:href="#DejaVuSans-20" x="1900.351562"/>
     <use xlink:href="#DejaVuSans-35" x="1932.138672"/>
     <use xlink:href="#DejaVuSans-30" x="1995.761719"/>
     <use xlink:href="#DejaVuSans-29" x="2059.384766"/>
    </g>
   </g>
   <g id="legend_3">
    <g id="patch_19">
     <path d="M 418.058125 418.11625 
L 524.405 418.11625 
Q 526.405 418.11625 526.405 416.11625 
L 526.405 387.76 
Q 526.405 385.76 524.405 385.76 
L 418.058125 385.76 
Q 416.058125 385.76 416.058125 387.76 
L 416.058125 416.11625 
Q 416.058125 418.11625 418.058125 418.11625 
z
" style="fill: #ffffff; opacity: 0.8; stroke: #cccccc; stroke-linejoin: miter"/>
    </g>
    <g id="line2d_52">
     <path d="M 420.058125 393.858438 
L 430.058125 393.858438 
L 440.058125 393.858438 
" style="fill: none; stroke: #1f77b4; stroke-width: 1.5; stroke-linecap: square"/>
    </g>
    <g id="text_55">
     <!-- Training MAE -->
     <g transform="translate(448.058125 397.358438) scale(0.1 -0.1)">
      <use xlink:href="#DejaVuSans-54"/>
      <use xlink:href="#DejaVuSans-72" x="46.333984"/>
      <use xlink:href="#DejaVuSans-61" x="87.447266"/>
      <use xlink:href="#DejaVuSans-69" x="148.726562"/>
      <use xlink:href="#DejaVuSans-6e" x="176.509766"/>
      <use xlink:href="#DejaVuSans-69" x="239.888672"/>
      <use xlink:href="#DejaVuSans-6e" x="267.671875"/>
      <use xlink:href="#DejaVuSans-67" x="331.050781"/>
      <use xlink:href="#DejaVuSans-20" x="394.527344"/>
      <use xlink:href="#DejaVuSans-4d" x="426.314453"/>
      <use xlink:href="#DejaVuSans-41" x="512.59375"/>
      <use xlink:href="#DejaVuSans-45" x="581.001953"/>
     </g>
    </g>
    <g id="line2d_53">
     <path d="M 420.058125 408.536563 
L 430.058125 408.536563 
L 440.058125 408.536563 
" style="fill: none; stroke: #ff7f0e; stroke-width: 1.5; stroke-linecap: square"/>
    </g>
    <g id="text_56">
     <!-- Validation MAE -->
     <g transform="translate(448.058125 412.036563) scale(0.1 -0.1)">
      <use xlink:href="#DejaVuSans-56"/>
      <use xlink:href="#DejaVuSans-61" x="60.658203"/>
      <use xlink:href="#DejaVuSans-6c" x="121.9375"/>
      <use xlink:href="#DejaVuSans-69" x="149.720703"/>
      <use xlink:href="#DejaVuSans-64" x="177.503906"/>
      <use xlink:href="#DejaVuSans-61" x="240.980469"/>
      <use xlink:href="#DejaVuSans-74" x="302.259766"/>
      <use xlink:href="#DejaVuSans-69" x="341.46875"/>
      <use xlink:href="#DejaVuSans-6f" x="369.251953"/>
      <use xlink:href="#DejaVuSans-6e" x="430.433594"/>
      <use xlink:href="#DejaVuSans-20" x="493.8125"/>
      <use xlink:href="#DejaVuSans-4d" x="525.599609"/>
      <use xlink:href="#DejaVuSans-41" x="611.878906"/>
      <use xlink:href="#DejaVuSans-45" x="680.287109"/>
     </g>
    </g>
   </g>
  </g>
  <g id="axes_4"/>
 </g>
 <defs>
  <clipPath id="p61e881166d">
   <rect x="54.245" y="26.16" width="477.16" height="297.28"/>
  </clipPath>
  <clipPath id="p73a9a857fb">
   <rect x="592.04" y="26.16" width="477.16" height="297.28"/>
  </clipPath>
  <clipPath id="pec26bf26f8">
   <rect x="54.245" y="380.76" width="477.16" height="297.28"/>
  </clipPath>
 </defs>
</svg>
