<?xml version="1.0" encoding="utf-8" standalone="no"?>
<!DOCTYPE svg PUBLIC "-//W3C//DTD SVG 1.1//EN"
  "http://www.w3.org/Graphics/SVG/1.1/DTD/svg11.dtd">
<svg xmlns:xlink="http://www.w3.org/1999/xlink" width="1080pt" height="720pt" viewBox="0 0 1080 720" xmlns="http://www.w3.org/2000/svg" version="1.1">
 <metadata>
  <rdf:RDF xmlns:dc="http://purl.org/dc/elements/1.1/" xmlns:cc="http://creativecommons.org/ns#" xmlns:rdf="http://www.w3.org/1999/02/22-rdf-syntax-ns#">
   <cc:Work>
    <dc:type rdf:resource="http://purl.org/dc/dcmitype/StillImage"/>
    <dc:date>2024-04-13T12:13:46.779015</dc:date>
    <dc:format>image/svg+xml</dc:format>
    <dc:creator>
     <cc:Agent>
      <dc:title>Matplotlib v3.8.3, https://matplotlib.org/</dc:title>
     </cc:Agent>
    </dc:creator>
   </cc:Work>
  </rdf:RDF>
 </metadata>
 <defs>
  <style type="text/css">*{stroke-linejoin: round; stroke-linecap: butt}</style>
 </defs>
 <g id="figure_1">
  <g id="patch_1">
   <path d="M 0 720 
L 1080 720 
L 1080 0 
L 0 0 
z
" style="fill: #ffffff"/>
  </g>
  <g id="axes_1">
   <g id="patch_2">
    <path d="M 60.635 323.44 
L 531.4275 323.44 
L 531.4275 26.16 
L 60.635 26.16 
z
" style="fill: #ffffff"/>
   </g>
   <g id="matplotlib.axis_1">
    <g id="xtick_1">
     <g id="line2d_1">
      <defs>
       <path id="m560189654a" d="M 0 0 
L 0 3.5 
" style="stroke: #000000; stroke-width: 0.8"/>
      </defs>
      <g>
       <use xlink:href="#m560189654a" x="80.336273" y="323.44" style="stroke: #000000; stroke-width: 0.8"/>
      </g>
     </g>
     <g id="text_1">
      <!-- 0 -->
      <g transform="translate(77.155023 338.038438) scale(0.1 -0.1)">
       <defs>
        <path id="DejaVuSans-30" d="M 2034 4250 
Q 1547 4250 1301 3770 
Q 1056 3291 1056 2328 
Q 1056 1369 1301 889 
Q 1547 409 2034 409 
Q 2525 409 2770 889 
Q 3016 1369 3016 2328 
Q 3016 3291 2770 3770 
Q 2525 4250 2034 4250 
z
M 2034 4750 
Q 2819 4750 3233 4129 
Q 3647 3509 3647 2328 
Q 3647 1150 3233 529 
Q 2819 -91 2034 -91 
Q 1250 -91 836 529 
Q 422 1150 422 2328 
Q 422 3509 836 4129 
Q 1250 4750 2034 4750 
z
" transform="scale(0.015625)"/>
       </defs>
       <use xlink:href="#DejaVuSans-30"/>
      </g>
     </g>
    </g>
    <g id="xtick_2">
     <g id="line2d_2">
      <g>
       <use xlink:href="#m560189654a" x="165.255556" y="323.44" style="stroke: #000000; stroke-width: 0.8"/>
      </g>
     </g>
     <g id="text_2">
      <!-- 50 -->
      <g transform="translate(158.893056 338.038438) scale(0.1 -0.1)">
       <defs>
        <path id="DejaVuSans-35" d="M 691 4666 
L 3169 4666 
L 3169 4134 
L 1269 4134 
L 1269 2991 
Q 1406 3038 1543 3061 
Q 1681 3084 1819 3084 
Q 2600 3084 3056 2656 
Q 3513 2228 3513 1497 
Q 3513 744 3044 326 
Q 2575 -91 1722 -91 
Q 1428 -91 1123 -41 
Q 819 9 494 109 
L 494 744 
Q 775 591 1075 516 
Q 1375 441 1709 441 
Q 2250 441 2565 725 
Q 2881 1009 2881 1497 
Q 2881 1984 2565 2268 
Q 2250 2553 1709 2553 
Q 1456 2553 1204 2497 
Q 953 2441 691 2322 
L 691 4666 
z
" transform="scale(0.015625)"/>
       </defs>
       <use xlink:href="#DejaVuSans-35"/>
       <use xlink:href="#DejaVuSans-30" x="63.623047"/>
      </g>
     </g>
    </g>
    <g id="xtick_3">
     <g id="line2d_3">
      <g>
       <use xlink:href="#m560189654a" x="250.174838" y="323.44" style="stroke: #000000; stroke-width: 0.8"/>
      </g>
     </g>
     <g id="text_3">
      <!-- 100 -->
      <g transform="translate(240.631088 338.038438) scale(0.1 -0.1)">
       <defs>
        <path id="DejaVuSans-31" d="M 794 531 
L 1825 531 
L 1825 4091 
L 703 3866 
L 703 4441 
L 1819 4666 
L 2450 4666 
L 2450 531 
L 3481 531 
L 3481 0 
L 794 0 
L 794 531 
z
" transform="scale(0.015625)"/>
       </defs>
       <use xlink:href="#DejaVuSans-31"/>
       <use xlink:href="#DejaVuSans-30" x="63.623047"/>
       <use xlink:href="#DejaVuSans-30" x="127.246094"/>
      </g>
     </g>
    </g>
    <g id="xtick_4">
     <g id="line2d_4">
      <g>
       <use xlink:href="#m560189654a" x="335.09412" y="323.44" style="stroke: #000000; stroke-width: 0.8"/>
      </g>
     </g>
     <g id="text_4">
      <!-- 150 -->
      <g transform="translate(325.55037 338.038438) scale(0.1 -0.1)">
       <use xlink:href="#DejaVuSans-31"/>
       <use xlink:href="#DejaVuSans-35" x="63.623047"/>
       <use xlink:href="#DejaVuSans-30" x="127.246094"/>
      </g>
     </g>
    </g>
    <g id="xtick_5">
     <g id="line2d_5">
      <g>
       <use xlink:href="#m560189654a" x="420.013402" y="323.44" style="stroke: #000000; stroke-width: 0.8"/>
      </g>
     </g>
     <g id="text_5">
      <!-- 200 -->
      <g transform="translate(410.469652 338.038438) scale(0.1 -0.1)">
       <defs>
        <path id="DejaVuSans-32" d="M 1228 531 
L 3431 531 
L 3431 0 
L 469 0 
L 469 531 
Q 828 903 1448 1529 
Q 2069 2156 2228 2338 
Q 2531 2678 2651 2914 
Q 2772 3150 2772 3378 
Q 2772 3750 2511 3984 
Q 2250 4219 1831 4219 
Q 1534 4219 1204 4116 
Q 875 4013 500 3803 
L 500 4441 
Q 881 4594 1212 4672 
Q 1544 4750 1819 4750 
Q 2544 4750 2975 4387 
Q 3406 4025 3406 3419 
Q 3406 3131 3298 2873 
Q 3191 2616 2906 2266 
Q 2828 2175 2409 1742 
Q 1991 1309 1228 531 
z
" transform="scale(0.015625)"/>
       </defs>
       <use xlink:href="#DejaVuSans-32"/>
       <use xlink:href="#DejaVuSans-30" x="63.623047"/>
       <use xlink:href="#DejaVuSans-30" x="127.246094"/>
      </g>
     </g>
    </g>
    <g id="xtick_6">
     <g id="line2d_6">
      <g>
       <use xlink:href="#m560189654a" x="504.932684" y="323.44" style="stroke: #000000; stroke-width: 0.8"/>
      </g>
     </g>
     <g id="text_6">
      <!-- 250 -->
      <g transform="translate(495.388934 338.038438) scale(0.1 -0.1)">
       <use xlink:href="#DejaVuSans-32"/>
       <use xlink:href="#DejaVuSans-35" x="63.623047"/>
       <use xlink:href="#DejaVuSans-30" x="127.246094"/>
      </g>
     </g>
    </g>
    <g id="text_7">
     <!-- Epochs -->
     <g transform="translate(278.115625 351.716563) scale(0.1 -0.1)">
      <defs>
       <path id="DejaVuSans-45" d="M 628 4666 
L 3578 4666 
L 3578 4134 
L 1259 4134 
L 1259 2753 
L 3481 2753 
L 3481 2222 
L 1259 2222 
L 1259 531 
L 3634 531 
L 3634 0 
L 628 0 
L 628 4666 
z
" transform="scale(0.015625)"/>
       <path id="DejaVuSans-70" d="M 1159 525 
L 1159 -1331 
L 581 -1331 
L 581 3500 
L 1159 3500 
L 1159 2969 
Q 1341 3281 1617 3432 
Q 1894 3584 2278 3584 
Q 2916 3584 3314 3078 
Q 3713 2572 3713 1747 
Q 3713 922 3314 415 
Q 2916 -91 2278 -91 
Q 1894 -91 1617 61 
Q 1341 213 1159 525 
z
M 3116 1747 
Q 3116 2381 2855 2742 
Q 2594 3103 2138 3103 
Q 1681 3103 1420 2742 
Q 1159 2381 1159 1747 
Q 1159 1113 1420 752 
Q 1681 391 2138 391 
Q 2594 391 2855 752 
Q 3116 1113 3116 1747 
z
" transform="scale(0.015625)"/>
       <path id="DejaVuSans-6f" d="M 1959 3097 
Q 1497 3097 1228 2736 
Q 959 2375 959 1747 
Q 959 1119 1226 758 
Q 1494 397 1959 397 
Q 2419 397 2687 759 
Q 2956 1122 2956 1747 
Q 2956 2369 2687 2733 
Q 2419 3097 1959 3097 
z
M 1959 3584 
Q 2709 3584 3137 3096 
Q 3566 2609 3566 1747 
Q 3566 888 3137 398 
Q 2709 -91 1959 -91 
Q 1206 -91 779 398 
Q 353 888 353 1747 
Q 353 2609 779 3096 
Q 1206 3584 1959 3584 
z
" transform="scale(0.015625)"/>
       <path id="DejaVuSans-63" d="M 3122 3366 
L 3122 2828 
Q 2878 2963 2633 3030 
Q 2388 3097 2138 3097 
Q 1578 3097 1268 2742 
Q 959 2388 959 1747 
Q 959 1106 1268 751 
Q 1578 397 2138 397 
Q 2388 397 2633 464 
Q 2878 531 3122 666 
L 3122 134 
Q 2881 22 2623 -34 
Q 2366 -91 2075 -91 
Q 1284 -91 818 406 
Q 353 903 353 1747 
Q 353 2603 823 3093 
Q 1294 3584 2113 3584 
Q 2378 3584 2631 3529 
Q 2884 3475 3122 3366 
z
" transform="scale(0.015625)"/>
       <path id="DejaVuSans-68" d="M 3513 2113 
L 3513 0 
L 2938 0 
L 2938 2094 
Q 2938 2591 2744 2837 
Q 2550 3084 2163 3084 
Q 1697 3084 1428 2787 
Q 1159 2491 1159 1978 
L 1159 0 
L 581 0 
L 581 4863 
L 1159 4863 
L 1159 2956 
Q 1366 3272 1645 3428 
Q 1925 3584 2291 3584 
Q 2894 3584 3203 3211 
Q 3513 2838 3513 2113 
z
" transform="scale(0.015625)"/>
       <path id="DejaVuSans-73" d="M 2834 3397 
L 2834 2853 
Q 2591 2978 2328 3040 
Q 2066 3103 1784 3103 
Q 1356 3103 1142 2972 
Q 928 2841 928 2578 
Q 928 2378 1081 2264 
Q 1234 2150 1697 2047 
L 1894 2003 
Q 2506 1872 2764 1633 
Q 3022 1394 3022 966 
Q 3022 478 2636 193 
Q 2250 -91 1575 -91 
Q 1294 -91 989 -36 
Q 684 19 347 128 
L 347 722 
Q 666 556 975 473 
Q 1284 391 1588 391 
Q 1994 391 2212 530 
Q 2431 669 2431 922 
Q 2431 1156 2273 1281 
Q 2116 1406 1581 1522 
L 1381 1569 
Q 847 1681 609 1914 
Q 372 2147 372 2553 
Q 372 3047 722 3315 
Q 1072 3584 1716 3584 
Q 2034 3584 2315 3537 
Q 2597 3491 2834 3397 
z
" transform="scale(0.015625)"/>
      </defs>
      <use xlink:href="#DejaVuSans-45"/>
      <use xlink:href="#DejaVuSans-70" x="63.183594"/>
      <use xlink:href="#DejaVuSans-6f" x="126.660156"/>
      <use xlink:href="#DejaVuSans-63" x="187.841797"/>
      <use xlink:href="#DejaVuSans-68" x="242.822266"/>
      <use xlink:href="#DejaVuSans-73" x="306.201172"/>
     </g>
    </g>
   </g>
   <g id="matplotlib.axis_2">
    <g id="ytick_1">
     <g id="line2d_7">
      <defs>
       <path id="m7ddfc537c7" d="M 0 0 
L -3.5 0 
" style="stroke: #000000; stroke-width: 0.8"/>
      </defs>
      <g>
       <use xlink:href="#m7ddfc537c7" x="60.635" y="311.816747" style="stroke: #000000; stroke-width: 0.8"/>
      </g>
     </g>
     <g id="text_8">
      <!-- 0.000 -->
      <g transform="translate(25.006875 315.615966) scale(0.1 -0.1)">
       <defs>
        <path id="DejaVuSans-2e" d="M 684 794 
L 1344 794 
L 1344 0 
L 684 0 
L 684 794 
z
" transform="scale(0.015625)"/>
       </defs>
       <use xlink:href="#DejaVuSans-30"/>
       <use xlink:href="#DejaVuSans-2e" x="63.623047"/>
       <use xlink:href="#DejaVuSans-30" x="95.410156"/>
       <use xlink:href="#DejaVuSans-30" x="159.033203"/>
       <use xlink:href="#DejaVuSans-30" x="222.65625"/>
      </g>
     </g>
    </g>
    <g id="ytick_2">
     <g id="line2d_8">
      <g>
       <use xlink:href="#m7ddfc537c7" x="60.635" y="275.574045" style="stroke: #000000; stroke-width: 0.8"/>
      </g>
     </g>
     <g id="text_9">
      <!-- 0.025 -->
      <g transform="translate(25.006875 279.373264) scale(0.1 -0.1)">
       <use xlink:href="#DejaVuSans-30"/>
       <use xlink:href="#DejaVuSans-2e" x="63.623047"/>
       <use xlink:href="#DejaVuSans-30" x="95.410156"/>
       <use xlink:href="#DejaVuSans-32" x="159.033203"/>
       <use xlink:href="#DejaVuSans-35" x="222.65625"/>
      </g>
     </g>
    </g>
    <g id="ytick_3">
     <g id="line2d_9">
      <g>
       <use xlink:href="#m7ddfc537c7" x="60.635" y="239.331343" style="stroke: #000000; stroke-width: 0.8"/>
      </g>
     </g>
     <g id="text_10">
      <!-- 0.050 -->
      <g transform="translate(25.006875 243.130562) scale(0.1 -0.1)">
       <use xlink:href="#DejaVuSans-30"/>
       <use xlink:href="#DejaVuSans-2e" x="63.623047"/>
       <use xlink:href="#DejaVuSans-30" x="95.410156"/>
       <use xlink:href="#DejaVuSans-35" x="159.033203"/>
       <use xlink:href="#DejaVuSans-30" x="222.65625"/>
      </g>
     </g>
    </g>
    <g id="ytick_4">
     <g id="line2d_10">
      <g>
       <use xlink:href="#m7ddfc537c7" x="60.635" y="203.088641" style="stroke: #000000; stroke-width: 0.8"/>
      </g>
     </g>
     <g id="text_11">
      <!-- 0.075 -->
      <g transform="translate(25.006875 206.88786) scale(0.1 -0.1)">
       <defs>
        <path id="DejaVuSans-37" d="M 525 4666 
L 3525 4666 
L 3525 4397 
L 1831 0 
L 1172 0 
L 2766 4134 
L 525 4134 
L 525 4666 
z
" transform="scale(0.015625)"/>
       </defs>
       <use xlink:href="#DejaVuSans-30"/>
       <use xlink:href="#DejaVuSans-2e" x="63.623047"/>
       <use xlink:href="#DejaVuSans-30" x="95.410156"/>
       <use xlink:href="#DejaVuSans-37" x="159.033203"/>
       <use xlink:href="#DejaVuSans-35" x="222.65625"/>
      </g>
     </g>
    </g>
    <g id="ytick_5">
     <g id="line2d_11">
      <g>
       <use xlink:href="#m7ddfc537c7" x="60.635" y="166.845939" style="stroke: #000000; stroke-width: 0.8"/>
      </g>
     </g>
     <g id="text_12">
      <!-- 0.100 -->
      <g transform="translate(25.006875 170.645158) scale(0.1 -0.1)">
       <use xlink:href="#DejaVuSans-30"/>
       <use xlink:href="#DejaVuSans-2e" x="63.623047"/>
       <use xlink:href="#DejaVuSans-31" x="95.410156"/>
       <use xlink:href="#DejaVuSans-30" x="159.033203"/>
       <use xlink:href="#DejaVuSans-30" x="222.65625"/>
      </g>
     </g>
    </g>
    <g id="ytick_6">
     <g id="line2d_12">
      <g>
       <use xlink:href="#m7ddfc537c7" x="60.635" y="130.603237" style="stroke: #000000; stroke-width: 0.8"/>
      </g>
     </g>
     <g id="text_13">
      <!-- 0.125 -->
      <g transform="translate(25.006875 134.402456) scale(0.1 -0.1)">
       <use xlink:href="#DejaVuSans-30"/>
       <use xlink:href="#DejaVuSans-2e" x="63.623047"/>
       <use xlink:href="#DejaVuSans-31" x="95.410156"/>
       <use xlink:href="#DejaVuSans-32" x="159.033203"/>
       <use xlink:href="#DejaVuSans-35" x="222.65625"/>
      </g>
     </g>
    </g>
    <g id="ytick_7">
     <g id="line2d_13">
      <g>
       <use xlink:href="#m7ddfc537c7" x="60.635" y="94.360535" style="stroke: #000000; stroke-width: 0.8"/>
      </g>
     </g>
     <g id="text_14">
      <!-- 0.150 -->
      <g transform="translate(25.006875 98.159753) scale(0.1 -0.1)">
       <use xlink:href="#DejaVuSans-30"/>
       <use xlink:href="#DejaVuSans-2e" x="63.623047"/>
       <use xlink:href="#DejaVuSans-31" x="95.410156"/>
       <use xlink:href="#DejaVuSans-35" x="159.033203"/>
       <use xlink:href="#DejaVuSans-30" x="222.65625"/>
      </g>
     </g>
    </g>
    <g id="ytick_8">
     <g id="line2d_14">
      <g>
       <use xlink:href="#m7ddfc537c7" x="60.635" y="58.117833" style="stroke: #000000; stroke-width: 0.8"/>
      </g>
     </g>
     <g id="text_15">
      <!-- 0.175 -->
      <g transform="translate(25.006875 61.917051) scale(0.1 -0.1)">
       <use xlink:href="#DejaVuSans-30"/>
       <use xlink:href="#DejaVuSans-2e" x="63.623047"/>
       <use xlink:href="#DejaVuSans-31" x="95.410156"/>
       <use xlink:href="#DejaVuSans-37" x="159.033203"/>
       <use xlink:href="#DejaVuSans-35" x="222.65625"/>
      </g>
     </g>
    </g>
    <g id="text_16">
     <!-- Loss -->
     <g transform="translate(18.927187 185.767188) rotate(-90) scale(0.1 -0.1)">
      <defs>
       <path id="DejaVuSans-4c" d="M 628 4666 
L 1259 4666 
L 1259 531 
L 3531 531 
L 3531 0 
L 628 0 
L 628 4666 
z
" transform="scale(0.015625)"/>
      </defs>
      <use xlink:href="#DejaVuSans-4c"/>
      <use xlink:href="#DejaVuSans-6f" x="53.962891"/>
      <use xlink:href="#DejaVuSans-73" x="115.144531"/>
      <use xlink:href="#DejaVuSans-73" x="167.244141"/>
     </g>
    </g>
   </g>
   <g id="line2d_15">
    <path d="M 82.034659 39.672727 
L 83.733045 185.224576 
L 85.43143 195.319336 
L 87.129816 199.438004 
L 88.828202 202.512902 
L 90.526587 204.203414 
L 92.224973 205.488159 
L 93.923359 207.094962 
L 95.621744 209.694933 
L 97.32013 211.620511 
L 99.018516 213.162615 
L 100.716901 213.424122 
L 104.113672 215.659164 
L 105.812058 217.124948 
L 107.510444 218.097927 
L 109.208829 218.884587 
L 110.907215 219.371331 
L 112.605601 220.542556 
L 114.303986 221.199256 
L 116.002372 222.61119 
L 117.700758 222.98403 
L 119.399143 224.694859 
L 121.097529 225.15642 
L 122.795915 227.209673 
L 124.4943 228.278497 
L 127.891071 232.19277 
L 129.589457 234.552474 
L 131.287843 237.64946 
L 132.986228 241.064184 
L 134.684614 242.682582 
L 136.383 246.813796 
L 138.081385 249.375941 
L 139.779771 251.222698 
L 141.478157 253.926116 
L 143.176542 257.00197 
L 144.874928 259.271808 
L 148.271699 262.526848 
L 149.970085 266.144537 
L 151.66847 267.581829 
L 153.366856 270.451564 
L 155.065242 271.022784 
L 156.763627 274.426915 
L 160.160399 276.45306 
L 161.858784 278.960332 
L 163.55717 279.229208 
L 165.255556 281.300389 
L 166.953941 281.525517 
L 168.652327 283.865288 
L 170.350712 285.027285 
L 172.049098 285.301376 
L 175.445869 287.168382 
L 177.144255 288.449497 
L 178.842641 288.621865 
L 180.541026 290.043338 
L 183.937798 290.782234 
L 185.636183 291.342603 
L 187.334569 292.696396 
L 189.032955 292.760648 
L 190.73134 293.150458 
L 192.429726 293.793041 
L 194.128111 293.851751 
L 197.524883 294.524446 
L 199.223268 295.232021 
L 200.921654 295.453008 
L 202.62004 295.935643 
L 204.318425 296.294425 
L 206.016811 295.960518 
L 207.715197 297.184953 
L 209.413582 297.52364 
L 214.508739 297.705857 
L 217.90551 298.160989 
L 219.603896 298.784802 
L 221.302282 298.97096 
L 224.699053 299.622049 
L 226.397439 298.883453 
L 228.095824 299.78804 
L 231.492596 299.863865 
L 233.190981 300.434611 
L 234.889367 300.121461 
L 236.587753 300.039474 
L 238.286138 300.462065 
L 239.984524 300.492863 
L 241.682909 300.868872 
L 243.381295 301.051815 
L 246.778066 301.214572 
L 248.476452 300.900063 
L 250.174838 301.812688 
L 251.873223 301.377116 
L 253.571609 301.83075 
L 256.96838 302.024285 
L 258.666766 302.285667 
L 260.365152 302.373299 
L 262.063537 302.675845 
L 263.761923 302.427479 
L 265.460308 302.817141 
L 267.158694 302.801202 
L 268.85708 302.442242 
L 270.555465 302.966795 
L 272.253851 303.248567 
L 275.650622 303.130828 
L 277.349008 303.104152 
L 279.047394 303.461523 
L 280.745779 303.343316 
L 282.444165 303.658689 
L 284.142551 303.118589 
L 285.840936 304.126194 
L 287.539322 303.846571 
L 289.237707 303.913095 
L 290.936093 303.701149 
L 292.634479 304.269487 
L 294.332864 303.770325 
L 296.03125 304.163642 
L 297.729636 304.093457 
L 299.428021 304.422133 
L 301.126407 304.226935 
L 302.824793 304.597858 
L 307.919949 304.434709 
L 309.618335 305.09653 
L 311.316721 304.73309 
L 313.015106 305.010741 
L 314.713492 305.174072 
L 316.411878 305.032915 
L 319.808649 305.3637 
L 323.20542 305.11834 
L 324.903806 305.534658 
L 326.602192 305.160885 
L 328.300577 305.626688 
L 331.697348 305.563321 
L 333.395734 305.702468 
L 335.09412 305.610357 
L 336.792505 305.783373 
L 338.490891 305.811766 
L 340.189277 306.173747 
L 341.887662 305.656358 
L 343.586048 305.771825 
L 345.284434 305.124422 
L 346.982819 305.950004 
L 348.681205 305.813624 
L 350.379591 306.082806 
L 353.776362 306.216613 
L 355.474747 306.022445 
L 358.871519 306.529056 
L 360.569904 306.499064 
L 362.26829 306.298486 
L 363.966676 306.352743 
L 365.665061 306.163041 
L 367.363447 306.618415 
L 369.061833 306.46112 
L 372.458604 306.768149 
L 375.855375 306.674182 
L 377.553761 306.876048 
L 379.252146 306.811378 
L 380.950532 307.118981 
L 382.648918 306.606608 
L 387.744075 307.028747 
L 389.44246 307.441526 
L 391.140846 307.113696 
L 392.839232 306.954343 
L 394.537617 306.999986 
L 396.236003 307.157646 
L 399.632774 307.130953 
L 401.33116 307.320694 
L 403.029545 307.191742 
L 404.727931 306.896983 
L 406.426317 307.299529 
L 408.124702 307.524343 
L 409.823088 307.24697 
L 413.219859 307.539003 
L 414.918245 307.217315 
L 416.616631 307.310205 
L 418.315016 307.285504 
L 420.013402 306.833584 
L 421.711788 307.431554 
L 423.410173 307.710072 
L 426.806944 307.512665 
L 428.50533 307.161792 
L 431.902101 307.644862 
L 433.600487 307.695559 
L 436.997258 307.438175 
L 438.695644 307.756241 
L 440.39403 307.732416 
L 442.092415 307.428677 
L 445.489187 307.945489 
L 447.187572 307.831281 
L 448.885958 308.041604 
L 452.282729 307.731613 
L 453.981115 307.826185 
L 455.6795 307.768699 
L 457.377886 308.223706 
L 459.076272 307.570053 
L 460.774657 307.666935 
L 464.171429 308.070231 
L 467.5682 307.705566 
L 469.266585 308.295142 
L 470.964971 307.80844 
L 472.663357 308.234474 
L 474.361742 307.890284 
L 481.155285 308.128471 
L 482.853671 308.05743 
L 484.552056 308.309355 
L 486.250442 308.064397 
L 487.948828 308.285105 
L 491.345599 308.161756 
L 494.74237 308.001562 
L 496.440756 308.338482 
L 498.139141 308.389694 
L 501.535913 308.099816 
L 503.234298 308.276542 
L 504.932684 308.318296 
L 506.63107 308.475897 
L 508.329455 308.239331 
L 510.027841 308.425604 
L 510.027841 308.425604 
" clip-path="url(#p78658f2a4f)" style="fill: none; stroke: #1f77b4; stroke-width: 1.5; stroke-linecap: square"/>
   </g>
   <g id="line2d_16">
    <path d="M 82.034659 170.375618 
L 83.733045 199.306392 
L 85.43143 200.209845 
L 87.129816 207.903592 
L 88.828202 205.209586 
L 90.526587 200.227375 
L 92.224973 208.179518 
L 93.923359 209.612153 
L 95.621744 213.839243 
L 97.32013 200.538092 
L 99.018516 211.389906 
L 100.716901 216.221624 
L 102.415287 211.5113 
L 104.113672 212.919103 
L 105.812058 215.791273 
L 107.510444 216.869997 
L 109.208829 221.966349 
L 110.907215 220.247662 
L 112.605601 220.60409 
L 114.303986 215.50689 
L 116.002372 210.010543 
L 117.700758 221.972182 
L 119.399143 216.661232 
L 121.097529 222.721945 
L 122.795915 227.538261 
L 124.4943 216.387681 
L 126.192686 226.720531 
L 127.891071 226.165675 
L 129.589457 233.886571 
L 131.287843 239.262927 
L 132.986228 246.334624 
L 134.684614 238.383637 
L 136.383 246.974604 
L 138.081385 250.37627 
L 139.779771 257.751577 
L 141.478157 257.876568 
L 143.176542 260.966555 
L 144.874928 257.263596 
L 146.573313 267.688858 
L 148.271699 269.005229 
L 149.970085 259.556246 
L 151.66847 266.53158 
L 153.366856 267.908492 
L 155.065242 275.796033 
L 156.763627 269.917768 
L 160.160399 274.658014 
L 161.858784 281.555402 
L 163.55717 264.608908 
L 165.255556 278.95515 
L 166.953941 284.731909 
L 168.652327 283.473783 
L 170.350712 283.043195 
L 172.049098 280.348204 
L 173.747484 288.649289 
L 175.445869 282.629812 
L 178.842641 290.398943 
L 180.541026 283.034505 
L 182.239412 290.255261 
L 185.636183 291.94577 
L 187.334569 291.954469 
L 189.032955 295.335405 
L 190.73134 295.388413 
L 192.429726 290.542492 
L 194.128111 291.016635 
L 195.826497 291.182779 
L 197.524883 296.362883 
L 199.223268 295.958419 
L 200.921654 297.301441 
L 202.62004 295.671664 
L 204.318425 292.443184 
L 206.016811 297.285788 
L 207.715197 293.080946 
L 209.413582 292.443414 
L 211.111968 292.337734 
L 212.810354 298.435761 
L 214.508739 296.735337 
L 216.207125 296.253272 
L 217.90551 294.032861 
L 219.603896 298.811114 
L 221.302282 299.973223 
L 223.000667 296.06178 
L 224.699053 299.998844 
L 226.397439 300.434258 
L 228.095824 301.589093 
L 231.492596 301.578038 
L 233.190981 300.893378 
L 234.889367 303.093436 
L 236.587753 301.029887 
L 238.286138 303.636437 
L 239.984524 301.544173 
L 241.682909 300.236607 
L 243.381295 302.531181 
L 245.079681 298.261079 
L 246.778066 303.33694 
L 248.476452 300.394066 
L 250.174838 302.74076 
L 251.873223 300.139256 
L 253.571609 303.066736 
L 255.269995 302.498094 
L 256.96838 301.412735 
L 258.666766 301.360601 
L 260.365152 300.566791 
L 262.063537 301.531096 
L 263.761923 300.784006 
L 265.460308 300.748069 
L 267.158694 291.932083 
L 268.85708 305.506812 
L 270.555465 305.34402 
L 272.253851 303.116208 
L 273.952237 302.185455 
L 275.650622 305.605202 
L 277.349008 305.019243 
L 279.047394 299.879205 
L 280.745779 301.180009 
L 282.444165 304.608168 
L 284.142551 305.794 
L 285.840936 304.804258 
L 287.539322 304.736539 
L 289.237707 305.742321 
L 290.936093 301.932872 
L 292.634479 306.467489 
L 294.332864 304.24753 
L 296.03125 303.193189 
L 297.729636 304.099654 
L 299.428021 305.801381 
L 301.126407 306.586913 
L 302.824793 302.349554 
L 304.523178 306.915251 
L 306.221564 304.664493 
L 307.919949 303.479526 
L 309.618335 304.580915 
L 311.316721 305.47727 
L 313.015106 306.688744 
L 316.411878 304.452163 
L 318.110263 307.145492 
L 319.808649 306.299118 
L 321.507035 306.397378 
L 323.20542 306.863907 
L 324.903806 304.365347 
L 326.602192 302.447069 
L 328.300577 307.120448 
L 329.998963 305.741773 
L 331.697348 306.340772 
L 333.395734 305.574546 
L 335.09412 306.743928 
L 336.792505 307.437698 
L 338.490891 306.580302 
L 340.189277 303.897621 
L 341.887662 300.317505 
L 343.586048 305.078084 
L 345.284434 308.57542 
L 346.982819 308.375458 
L 348.681205 306.210317 
L 350.379591 304.691918 
L 352.077976 306.035325 
L 353.776362 307.017095 
L 355.474747 306.181433 
L 357.173133 304.985077 
L 358.871519 304.025365 
L 360.569904 305.476931 
L 362.26829 308.111629 
L 363.966676 306.95708 
L 365.665061 305.468888 
L 367.363447 307.08076 
L 370.760218 307.681808 
L 372.458604 306.563335 
L 374.15699 307.27295 
L 375.855375 298.121221 
L 377.553761 304.273749 
L 379.252146 306.440654 
L 380.950532 306.933866 
L 382.648918 307.83258 
L 384.347303 307.023613 
L 386.045689 307.50548 
L 387.744075 307.407231 
L 389.44246 306.68244 
L 391.140846 308.657692 
L 392.839232 307.660601 
L 394.537617 308.586819 
L 396.236003 307.994788 
L 397.934389 308.605288 
L 399.632774 308.144318 
L 401.33116 306.75382 
L 403.029545 308.744969 
L 404.727931 307.363649 
L 406.426317 306.980477 
L 408.124702 307.759553 
L 409.823088 308.900724 
L 411.521474 308.564507 
L 413.219859 307.516755 
L 414.918245 308.005361 
L 416.616631 307.628205 
L 420.013402 309.542481 
L 421.711788 307.552089 
L 423.410173 309.412379 
L 425.108559 309.927273 
L 426.806944 309.016926 
L 428.50533 308.668819 
L 430.203716 309.613581 
L 431.902101 306.203899 
L 433.600487 308.091737 
L 435.298873 308.885419 
L 436.997258 309.242958 
L 438.695644 308.17093 
L 440.39403 308.514612 
L 442.092415 305.501988 
L 443.790801 309.356645 
L 445.489187 308.775035 
L 447.187572 308.716452 
L 448.885958 308.101313 
L 450.584343 309.404689 
L 453.981115 309.401841 
L 455.6795 308.148263 
L 457.377886 309.094811 
L 459.076272 308.820531 
L 460.774657 307.646582 
L 462.473043 306.933073 
L 464.171429 309.088877 
L 465.869814 309.778028 
L 467.5682 308.835687 
L 469.266585 308.406652 
L 470.964971 309.496298 
L 472.663357 304.360998 
L 474.361742 309.422732 
L 476.060128 308.817031 
L 477.758514 309.549028 
L 481.155285 309.046404 
L 482.853671 308.146579 
L 484.552056 309.22153 
L 486.250442 309.279897 
L 487.948828 305.084186 
L 489.647213 301.816123 
L 491.345599 308.38005 
L 493.043984 308.173642 
L 494.74237 308.158144 
L 496.440756 309.299647 
L 498.139141 308.061411 
L 499.837527 305.796409 
L 501.535913 308.677227 
L 503.234298 309.392537 
L 504.932684 309.443189 
L 506.63107 309.140948 
L 508.329455 308.207016 
L 510.027841 308.367884 
L 510.027841 308.367884 
" clip-path="url(#p78658f2a4f)" style="fill: none; stroke: #ff7f0e; stroke-width: 1.5; stroke-linecap: square"/>
   </g>
   <g id="patch_3">
    <path d="M 60.635 323.44 
L 60.635 26.16 
" style="fill: none; stroke: #000000; stroke-width: 0.8; stroke-linejoin: miter; stroke-linecap: square"/>
   </g>
   <g id="patch_4">
    <path d="M 531.4275 323.44 
L 531.4275 26.16 
" style="fill: none; stroke: #000000; stroke-width: 0.8; stroke-linejoin: miter; stroke-linecap: square"/>
   </g>
   <g id="patch_5">
    <path d="M 60.635 323.44 
L 531.4275 323.44 
" style="fill: none; stroke: #000000; stroke-width: 0.8; stroke-linejoin: miter; stroke-linecap: square"/>
   </g>
   <g id="patch_6">
    <path d="M 60.635 26.16 
L 531.4275 26.16 
" style="fill: none; stroke: #000000; stroke-width: 0.8; stroke-linejoin: miter; stroke-linecap: square"/>
   </g>
   <g id="text_17">
    <!-- Training and Validation Loss -->
    <g transform="translate(212.561875 20.16) scale(0.12 -0.12)">
     <defs>
      <path id="DejaVuSans-54" d="M -19 4666 
L 3928 4666 
L 3928 4134 
L 2272 4134 
L 2272 0 
L 1638 0 
L 1638 4134 
L -19 4134 
L -19 4666 
z
" transform="scale(0.015625)"/>
      <path id="DejaVuSans-72" d="M 2631 2963 
Q 2534 3019 2420 3045 
Q 2306 3072 2169 3072 
Q 1681 3072 1420 2755 
Q 1159 2438 1159 1844 
L 1159 0 
L 581 0 
L 581 3500 
L 1159 3500 
L 1159 2956 
Q 1341 3275 1631 3429 
Q 1922 3584 2338 3584 
Q 2397 3584 2469 3576 
Q 2541 3569 2628 3553 
L 2631 2963 
z
" transform="scale(0.015625)"/>
      <path id="DejaVuSans-61" d="M 2194 1759 
Q 1497 1759 1228 1600 
Q 959 1441 959 1056 
Q 959 750 1161 570 
Q 1363 391 1709 391 
Q 2188 391 2477 730 
Q 2766 1069 2766 1631 
L 2766 1759 
L 2194 1759 
z
M 3341 1997 
L 3341 0 
L 2766 0 
L 2766 531 
Q 2569 213 2275 61 
Q 1981 -91 1556 -91 
Q 1019 -91 701 211 
Q 384 513 384 1019 
Q 384 1609 779 1909 
Q 1175 2209 1959 2209 
L 2766 2209 
L 2766 2266 
Q 2766 2663 2505 2880 
Q 2244 3097 1772 3097 
Q 1472 3097 1187 3025 
Q 903 2953 641 2809 
L 641 3341 
Q 956 3463 1253 3523 
Q 1550 3584 1831 3584 
Q 2591 3584 2966 3190 
Q 3341 2797 3341 1997 
z
" transform="scale(0.015625)"/>
      <path id="DejaVuSans-69" d="M 603 3500 
L 1178 3500 
L 1178 0 
L 603 0 
L 603 3500 
z
M 603 4863 
L 1178 4863 
L 1178 4134 
L 603 4134 
L 603 4863 
z
" transform="scale(0.015625)"/>
      <path id="DejaVuSans-6e" d="M 3513 2113 
L 3513 0 
L 2938 0 
L 2938 2094 
Q 2938 2591 2744 2837 
Q 2550 3084 2163 3084 
Q 1697 3084 1428 2787 
Q 1159 2491 1159 1978 
L 1159 0 
L 581 0 
L 581 3500 
L 1159 3500 
L 1159 2956 
Q 1366 3272 1645 3428 
Q 1925 3584 2291 3584 
Q 2894 3584 3203 3211 
Q 3513 2838 3513 2113 
z
" transform="scale(0.015625)"/>
      <path id="DejaVuSans-67" d="M 2906 1791 
Q 2906 2416 2648 2759 
Q 2391 3103 1925 3103 
Q 1463 3103 1205 2759 
Q 947 2416 947 1791 
Q 947 1169 1205 825 
Q 1463 481 1925 481 
Q 2391 481 2648 825 
Q 2906 1169 2906 1791 
z
M 3481 434 
Q 3481 -459 3084 -895 
Q 2688 -1331 1869 -1331 
Q 1566 -1331 1297 -1286 
Q 1028 -1241 775 -1147 
L 775 -588 
Q 1028 -725 1275 -790 
Q 1522 -856 1778 -856 
Q 2344 -856 2625 -561 
Q 2906 -266 2906 331 
L 2906 616 
Q 2728 306 2450 153 
Q 2172 0 1784 0 
Q 1141 0 747 490 
Q 353 981 353 1791 
Q 353 2603 747 3093 
Q 1141 3584 1784 3584 
Q 2172 3584 2450 3431 
Q 2728 3278 2906 2969 
L 2906 3500 
L 3481 3500 
L 3481 434 
z
" transform="scale(0.015625)"/>
      <path id="DejaVuSans-20" transform="scale(0.015625)"/>
      <path id="DejaVuSans-64" d="M 2906 2969 
L 2906 4863 
L 3481 4863 
L 3481 0 
L 2906 0 
L 2906 525 
Q 2725 213 2448 61 
Q 2172 -91 1784 -91 
Q 1150 -91 751 415 
Q 353 922 353 1747 
Q 353 2572 751 3078 
Q 1150 3584 1784 3584 
Q 2172 3584 2448 3432 
Q 2725 3281 2906 2969 
z
M 947 1747 
Q 947 1113 1208 752 
Q 1469 391 1925 391 
Q 2381 391 2643 752 
Q 2906 1113 2906 1747 
Q 2906 2381 2643 2742 
Q 2381 3103 1925 3103 
Q 1469 3103 1208 2742 
Q 947 2381 947 1747 
z
" transform="scale(0.015625)"/>
      <path id="DejaVuSans-56" d="M 1831 0 
L 50 4666 
L 709 4666 
L 2188 738 
L 3669 4666 
L 4325 4666 
L 2547 0 
L 1831 0 
z
" transform="scale(0.015625)"/>
      <path id="DejaVuSans-6c" d="M 603 4863 
L 1178 4863 
L 1178 0 
L 603 0 
L 603 4863 
z
" transform="scale(0.015625)"/>
      <path id="DejaVuSans-74" d="M 1172 4494 
L 1172 3500 
L 2356 3500 
L 2356 3053 
L 1172 3053 
L 1172 1153 
Q 1172 725 1289 603 
Q 1406 481 1766 481 
L 2356 481 
L 2356 0 
L 1766 0 
Q 1100 0 847 248 
Q 594 497 594 1153 
L 594 3053 
L 172 3053 
L 172 3500 
L 594 3500 
L 594 4494 
L 1172 4494 
z
" transform="scale(0.015625)"/>
     </defs>
     <use xlink:href="#DejaVuSans-54"/>
     <use xlink:href="#DejaVuSans-72" x="46.333984"/>
     <use xlink:href="#DejaVuSans-61" x="87.447266"/>
     <use xlink:href="#DejaVuSans-69" x="148.726562"/>
     <use xlink:href="#DejaVuSans-6e" x="176.509766"/>
     <use xlink:href="#DejaVuSans-69" x="239.888672"/>
     <use xlink:href="#DejaVuSans-6e" x="267.671875"/>
     <use xlink:href="#DejaVuSans-67" x="331.050781"/>
     <use xlink:href="#DejaVuSans-20" x="394.527344"/>
     <use xlink:href="#DejaVuSans-61" x="426.314453"/>
     <use xlink:href="#DejaVuSans-6e" x="487.59375"/>
     <use xlink:href="#DejaVuSans-64" x="550.972656"/>
     <use xlink:href="#DejaVuSans-20" x="614.449219"/>
     <use xlink:href="#DejaVuSans-56" x="646.236328"/>
     <use xlink:href="#DejaVuSans-61" x="706.894531"/>
     <use xlink:href="#DejaVuSans-6c" x="768.173828"/>
     <use xlink:href="#DejaVuSans-69" x="795.957031"/>
     <use xlink:href="#DejaVuSans-64" x="823.740234"/>
     <use xlink:href="#DejaVuSans-61" x="887.216797"/>
     <use xlink:href="#DejaVuSans-74" x="948.496094"/>
     <use xlink:href="#DejaVuSans-69" x="987.705078"/>
     <use xlink:href="#DejaVuSans-6f" x="1015.488281"/>
     <use xlink:href="#DejaVuSans-6e" x="1076.669922"/>
     <use xlink:href="#DejaVuSans-20" x="1140.048828"/>
     <use xlink:href="#DejaVuSans-4c" x="1171.835938"/>
     <use xlink:href="#DejaVuSans-6f" x="1225.798828"/>
     <use xlink:href="#DejaVuSans-73" x="1286.980469"/>
     <use xlink:href="#DejaVuSans-73" x="1339.080078"/>
    </g>
   </g>
   <g id="legend_1">
    <g id="patch_7">
     <path d="M 420.5525 63.51625 
L 524.4275 63.51625 
Q 526.4275 63.51625 526.4275 61.51625 
L 526.4275 33.16 
Q 526.4275 31.16 524.4275 31.16 
L 420.5525 31.16 
Q 418.5525 31.16 418.5525 33.16 
L 418.5525 61.51625 
Q 418.5525 63.51625 420.5525 63.51625 
z
" style="fill: #ffffff; opacity: 0.8; stroke: #cccccc; stroke-linejoin: miter"/>
    </g>
    <g id="line2d_17">
     <path d="M 422.5525 39.258438 
L 432.5525 39.258438 
L 442.5525 39.258438 
" style="fill: none; stroke: #1f77b4; stroke-width: 1.5; stroke-linecap: square"/>
    </g>
    <g id="text_18">
     <!-- Training loss -->
     <g transform="translate(450.5525 42.758438) scale(0.1 -0.1)">
      <use xlink:href="#DejaVuSans-54"/>
      <use xlink:href="#DejaVuSans-72" x="46.333984"/>
      <use xlink:href="#DejaVuSans-61" x="87.447266"/>
      <use xlink:href="#DejaVuSans-69" x="148.726562"/>
      <use xlink:href="#DejaVuSans-6e" x="176.509766"/>
      <use xlink:href="#DejaVuSans-69" x="239.888672"/>
      <use xlink:href="#DejaVuSans-6e" x="267.671875"/>
      <use xlink:href="#DejaVuSans-67" x="331.050781"/>
      <use xlink:href="#DejaVuSans-20" x="394.527344"/>
      <use xlink:href="#DejaVuSans-6c" x="426.314453"/>
      <use xlink:href="#DejaVuSans-6f" x="454.097656"/>
      <use xlink:href="#DejaVuSans-73" x="515.279297"/>
      <use xlink:href="#DejaVuSans-73" x="567.378906"/>
     </g>
    </g>
    <g id="line2d_18">
     <path d="M 422.5525 53.936563 
L 432.5525 53.936563 
L 442.5525 53.936563 
" style="fill: none; stroke: #ff7f0e; stroke-width: 1.5; stroke-linecap: square"/>
    </g>
    <g id="text_19">
     <!-- Validation loss -->
     <g transform="translate(450.5525 57.436563) scale(0.1 -0.1)">
      <use xlink:href="#DejaVuSans-56"/>
      <use xlink:href="#DejaVuSans-61" x="60.658203"/>
      <use xlink:href="#DejaVuSans-6c" x="121.9375"/>
      <use xlink:href="#DejaVuSans-69" x="149.720703"/>
      <use xlink:href="#DejaVuSans-64" x="177.503906"/>
      <use xlink:href="#DejaVuSans-61" x="240.980469"/>
      <use xlink:href="#DejaVuSans-74" x="302.259766"/>
      <use xlink:href="#DejaVuSans-69" x="341.46875"/>
      <use xlink:href="#DejaVuSans-6f" x="369.251953"/>
      <use xlink:href="#DejaVuSans-6e" x="430.433594"/>
      <use xlink:href="#DejaVuSans-20" x="493.8125"/>
      <use xlink:href="#DejaVuSans-6c" x="525.599609"/>
      <use xlink:href="#DejaVuSans-6f" x="553.382812"/>
      <use xlink:href="#DejaVuSans-73" x="614.564453"/>
      <use xlink:href="#DejaVuSans-73" x="666.664062"/>
     </g>
    </g>
   </g>
  </g>
  <g id="axes_2">
   <g id="patch_8">
    <path d="M 598.4075 323.44 
L 1069.2 323.44 
L 1069.2 26.16 
L 598.4075 26.16 
z
" style="fill: #ffffff"/>
   </g>
   <g id="matplotlib.axis_3">
    <g id="xtick_7">
     <g id="line2d_19">
      <g>
       <use xlink:href="#m560189654a" x="617.688381" y="323.44" style="stroke: #000000; stroke-width: 0.8"/>
      </g>
     </g>
     <g id="text_20">
      <!-- 50 -->
      <g transform="translate(611.325881 338.038438) scale(0.1 -0.1)">
       <use xlink:href="#DejaVuSans-35"/>
       <use xlink:href="#DejaVuSans-30" x="63.623047"/>
      </g>
     </g>
    </g>
    <g id="xtick_8">
     <g id="line2d_20">
      <g>
       <use xlink:href="#m560189654a" x="670.657834" y="323.44" style="stroke: #000000; stroke-width: 0.8"/>
      </g>
     </g>
     <g id="text_21">
      <!-- 75 -->
      <g transform="translate(664.295334 338.038438) scale(0.1 -0.1)">
       <use xlink:href="#DejaVuSans-37"/>
       <use xlink:href="#DejaVuSans-35" x="63.623047"/>
      </g>
     </g>
    </g>
    <g id="xtick_9">
     <g id="line2d_21">
      <g>
       <use xlink:href="#m560189654a" x="723.627287" y="323.44" style="stroke: #000000; stroke-width: 0.8"/>
      </g>
     </g>
     <g id="text_22">
      <!-- 100 -->
      <g transform="translate(714.083537 338.038438) scale(0.1 -0.1)">
       <use xlink:href="#DejaVuSans-31"/>
       <use xlink:href="#DejaVuSans-30" x="63.623047"/>
       <use xlink:href="#DejaVuSans-30" x="127.246094"/>
      </g>
     </g>
    </g>
    <g id="xtick_10">
     <g id="line2d_22">
      <g>
       <use xlink:href="#m560189654a" x="776.596741" y="323.44" style="stroke: #000000; stroke-width: 0.8"/>
      </g>
     </g>
     <g id="text_23">
      <!-- 125 -->
      <g transform="translate(767.052991 338.038438) scale(0.1 -0.1)">
       <use xlink:href="#DejaVuSans-31"/>
       <use xlink:href="#DejaVuSans-32" x="63.623047"/>
       <use xlink:href="#DejaVuSans-35" x="127.246094"/>
      </g>
     </g>
    </g>
    <g id="xtick_11">
     <g id="line2d_23">
      <g>
       <use xlink:href="#m560189654a" x="829.566194" y="323.44" style="stroke: #000000; stroke-width: 0.8"/>
      </g>
     </g>
     <g id="text_24">
      <!-- 150 -->
      <g transform="translate(820.022444 338.038438) scale(0.1 -0.1)">
       <use xlink:href="#DejaVuSans-31"/>
       <use xlink:href="#DejaVuSans-35" x="63.623047"/>
       <use xlink:href="#DejaVuSans-30" x="127.246094"/>
      </g>
     </g>
    </g>
    <g id="xtick_12">
     <g id="line2d_24">
      <g>
       <use xlink:href="#m560189654a" x="882.535647" y="323.44" style="stroke: #000000; stroke-width: 0.8"/>
      </g>
     </g>
     <g id="text_25">
      <!-- 175 -->
      <g transform="translate(872.991897 338.038438) scale(0.1 -0.1)">
       <use xlink:href="#DejaVuSans-31"/>
       <use xlink:href="#DejaVuSans-37" x="63.623047"/>
       <use xlink:href="#DejaVuSans-35" x="127.246094"/>
      </g>
     </g>
    </g>
    <g id="xtick_13">
     <g id="line2d_25">
      <g>
       <use xlink:href="#m560189654a" x="935.5051" y="323.44" style="stroke: #000000; stroke-width: 0.8"/>
      </g>
     </g>
     <g id="text_26">
      <!-- 200 -->
      <g transform="translate(925.96135 338.038438) scale(0.1 -0.1)">
       <use xlink:href="#DejaVuSans-32"/>
       <use xlink:href="#DejaVuSans-30" x="63.623047"/>
       <use xlink:href="#DejaVuSans-30" x="127.246094"/>
      </g>
     </g>
    </g>
    <g id="xtick_14">
     <g id="line2d_26">
      <g>
       <use xlink:href="#m560189654a" x="988.474553" y="323.44" style="stroke: #000000; stroke-width: 0.8"/>
      </g>
     </g>
     <g id="text_27">
      <!-- 225 -->
      <g transform="translate(978.930803 338.038438) scale(0.1 -0.1)">
       <use xlink:href="#DejaVuSans-32"/>
       <use xlink:href="#DejaVuSans-32" x="63.623047"/>
       <use xlink:href="#DejaVuSans-35" x="127.246094"/>
      </g>
     </g>
    </g>
    <g id="xtick_15">
     <g id="line2d_27">
      <g>
       <use xlink:href="#m560189654a" x="1041.444007" y="323.44" style="stroke: #000000; stroke-width: 0.8"/>
      </g>
     </g>
     <g id="text_28">
      <!-- 250 -->
      <g transform="translate(1031.900257 338.038438) scale(0.1 -0.1)">
       <use xlink:href="#DejaVuSans-32"/>
       <use xlink:href="#DejaVuSans-35" x="63.623047"/>
       <use xlink:href="#DejaVuSans-30" x="127.246094"/>
      </g>
     </g>
    </g>
    <g id="text_29">
     <!-- Epochs -->
     <g transform="translate(815.888125 351.716563) scale(0.1 -0.1)">
      <use xlink:href="#DejaVuSans-45"/>
      <use xlink:href="#DejaVuSans-70" x="63.183594"/>
      <use xlink:href="#DejaVuSans-6f" x="126.660156"/>
      <use xlink:href="#DejaVuSans-63" x="187.841797"/>
      <use xlink:href="#DejaVuSans-68" x="242.822266"/>
      <use xlink:href="#DejaVuSans-73" x="306.201172"/>
     </g>
    </g>
   </g>
   <g id="matplotlib.axis_4">
    <g id="ytick_9">
     <g id="line2d_28">
      <g>
       <use xlink:href="#m7ddfc537c7" x="598.4075" y="294.076997" style="stroke: #000000; stroke-width: 0.8"/>
      </g>
     </g>
     <g id="text_30">
      <!-- 0.0025 -->
      <g transform="translate(556.416875 297.876216) scale(0.1 -0.1)">
       <use xlink:href="#DejaVuSans-30"/>
       <use xlink:href="#DejaVuSans-2e" x="63.623047"/>
       <use xlink:href="#DejaVuSans-30" x="95.410156"/>
       <use xlink:href="#DejaVuSans-30" x="159.033203"/>
       <use xlink:href="#DejaVuSans-32" x="222.65625"/>
       <use xlink:href="#DejaVuSans-35" x="286.279297"/>
      </g>
     </g>
    </g>
    <g id="ytick_10">
     <g id="line2d_29">
      <g>
       <use xlink:href="#m7ddfc537c7" x="598.4075" y="260.963193" style="stroke: #000000; stroke-width: 0.8"/>
      </g>
     </g>
     <g id="text_31">
      <!-- 0.0050 -->
      <g transform="translate(556.416875 264.762412) scale(0.1 -0.1)">
       <use xlink:href="#DejaVuSans-30"/>
       <use xlink:href="#DejaVuSans-2e" x="63.623047"/>
       <use xlink:href="#DejaVuSans-30" x="95.410156"/>
       <use xlink:href="#DejaVuSans-30" x="159.033203"/>
       <use xlink:href="#DejaVuSans-35" x="222.65625"/>
       <use xlink:href="#DejaVuSans-30" x="286.279297"/>
      </g>
     </g>
    </g>
    <g id="ytick_11">
     <g id="line2d_30">
      <g>
       <use xlink:href="#m7ddfc537c7" x="598.4075" y="227.849389" style="stroke: #000000; stroke-width: 0.8"/>
      </g>
     </g>
     <g id="text_32">
      <!-- 0.0075 -->
      <g transform="translate(556.416875 231.648608) scale(0.1 -0.1)">
       <use xlink:href="#DejaVuSans-30"/>
       <use xlink:href="#DejaVuSans-2e" x="63.623047"/>
       <use xlink:href="#DejaVuSans-30" x="95.410156"/>
       <use xlink:href="#DejaVuSans-30" x="159.033203"/>
       <use xlink:href="#DejaVuSans-37" x="222.65625"/>
       <use xlink:href="#DejaVuSans-35" x="286.279297"/>
      </g>
     </g>
    </g>
    <g id="ytick_12">
     <g id="line2d_31">
      <g>
       <use xlink:href="#m7ddfc537c7" x="598.4075" y="194.735585" style="stroke: #000000; stroke-width: 0.8"/>
      </g>
     </g>
     <g id="text_33">
      <!-- 0.0100 -->
      <g transform="translate(556.416875 198.534804) scale(0.1 -0.1)">
       <use xlink:href="#DejaVuSans-30"/>
       <use xlink:href="#DejaVuSans-2e" x="63.623047"/>
       <use xlink:href="#DejaVuSans-30" x="95.410156"/>
       <use xlink:href="#DejaVuSans-31" x="159.033203"/>
       <use xlink:href="#DejaVuSans-30" x="222.65625"/>
       <use xlink:href="#DejaVuSans-30" x="286.279297"/>
      </g>
     </g>
    </g>
    <g id="ytick_13">
     <g id="line2d_32">
      <g>
       <use xlink:href="#m7ddfc537c7" x="598.4075" y="161.621781" style="stroke: #000000; stroke-width: 0.8"/>
      </g>
     </g>
     <g id="text_34">
      <!-- 0.0125 -->
      <g transform="translate(556.416875 165.420999) scale(0.1 -0.1)">
       <use xlink:href="#DejaVuSans-30"/>
       <use xlink:href="#DejaVuSans-2e" x="63.623047"/>
       <use xlink:href="#DejaVuSans-30" x="95.410156"/>
       <use xlink:href="#DejaVuSans-31" x="159.033203"/>
       <use xlink:href="#DejaVuSans-32" x="222.65625"/>
       <use xlink:href="#DejaVuSans-35" x="286.279297"/>
      </g>
     </g>
    </g>
    <g id="ytick_14">
     <g id="line2d_33">
      <g>
       <use xlink:href="#m7ddfc537c7" x="598.4075" y="128.507977" style="stroke: #000000; stroke-width: 0.8"/>
      </g>
     </g>
     <g id="text_35">
      <!-- 0.0150 -->
      <g transform="translate(556.416875 132.307195) scale(0.1 -0.1)">
       <use xlink:href="#DejaVuSans-30"/>
       <use xlink:href="#DejaVuSans-2e" x="63.623047"/>
       <use xlink:href="#DejaVuSans-30" x="95.410156"/>
       <use xlink:href="#DejaVuSans-31" x="159.033203"/>
       <use xlink:href="#DejaVuSans-35" x="222.65625"/>
       <use xlink:href="#DejaVuSans-30" x="286.279297"/>
      </g>
     </g>
    </g>
    <g id="ytick_15">
     <g id="line2d_34">
      <g>
       <use xlink:href="#m7ddfc537c7" x="598.4075" y="95.394172" style="stroke: #000000; stroke-width: 0.8"/>
      </g>
     </g>
     <g id="text_36">
      <!-- 0.0175 -->
      <g transform="translate(556.416875 99.193391) scale(0.1 -0.1)">
       <use xlink:href="#DejaVuSans-30"/>
       <use xlink:href="#DejaVuSans-2e" x="63.623047"/>
       <use xlink:href="#DejaVuSans-30" x="95.410156"/>
       <use xlink:href="#DejaVuSans-31" x="159.033203"/>
       <use xlink:href="#DejaVuSans-37" x="222.65625"/>
       <use xlink:href="#DejaVuSans-35" x="286.279297"/>
      </g>
     </g>
    </g>
    <g id="ytick_16">
     <g id="line2d_35">
      <g>
       <use xlink:href="#m7ddfc537c7" x="598.4075" y="62.280368" style="stroke: #000000; stroke-width: 0.8"/>
      </g>
     </g>
     <g id="text_37">
      <!-- 0.0200 -->
      <g transform="translate(556.416875 66.079587) scale(0.1 -0.1)">
       <use xlink:href="#DejaVuSans-30"/>
       <use xlink:href="#DejaVuSans-2e" x="63.623047"/>
       <use xlink:href="#DejaVuSans-30" x="95.410156"/>
       <use xlink:href="#DejaVuSans-32" x="159.033203"/>
       <use xlink:href="#DejaVuSans-30" x="222.65625"/>
       <use xlink:href="#DejaVuSans-30" x="286.279297"/>
      </g>
     </g>
    </g>
    <g id="ytick_17">
     <g id="line2d_36">
      <g>
       <use xlink:href="#m7ddfc537c7" x="598.4075" y="29.166564" style="stroke: #000000; stroke-width: 0.8"/>
      </g>
     </g>
     <g id="text_38">
      <!-- 0.0225 -->
      <g transform="translate(556.416875 32.965783) scale(0.1 -0.1)">
       <use xlink:href="#DejaVuSans-30"/>
       <use xlink:href="#DejaVuSans-2e" x="63.623047"/>
       <use xlink:href="#DejaVuSans-30" x="95.410156"/>
       <use xlink:href="#DejaVuSans-32" x="159.033203"/>
       <use xlink:href="#DejaVuSans-32" x="222.65625"/>
       <use xlink:href="#DejaVuSans-35" x="286.279297"/>
      </g>
     </g>
    </g>
    <g id="text_39">
     <!-- Loss -->
     <g transform="translate(550.337188 185.767188) rotate(-90) scale(0.1 -0.1)">
      <use xlink:href="#DejaVuSans-4c"/>
      <use xlink:href="#DejaVuSans-6f" x="53.962891"/>
      <use xlink:href="#DejaVuSans-73" x="115.144531"/>
      <use xlink:href="#DejaVuSans-73" x="167.244141"/>
     </g>
    </g>
   </g>
   <g id="line2d_37">
    <path d="M 619.807159 50.429468 
L 621.925937 71.807206 
L 624.044715 82.424009 
L 626.163493 84.928286 
L 630.40105 101.986526 
L 632.519828 113.691671 
L 634.638606 115.26654 
L 636.757384 128.254085 
L 638.876162 131.285164 
L 640.99494 135.005139 
L 643.113718 140.125061 
L 645.232497 152.494234 
L 647.351275 153.081285 
L 649.470053 156.642855 
L 651.588831 162.513932 
L 653.707609 163.050344 
L 655.826387 166.610841 
L 657.945165 169.196547 
L 660.063944 175.661435 
L 662.182722 177.680518 
L 664.3015 182.090203 
L 666.420278 185.368284 
L 668.539056 182.317479 
L 670.657834 193.504753 
L 672.776612 196.599227 
L 674.89539 197.141474 
L 677.014169 197.413295 
L 679.132947 198.264086 
L 681.251725 200.846881 
L 683.370503 202.422477 
L 685.489281 208.122061 
L 687.608059 209.822929 
L 689.726837 213.054367 
L 691.845615 215.771721 
L 693.964394 209.023405 
L 696.083172 217.288328 
L 698.20195 217.169139 
L 700.320728 217.981122 
L 702.439506 223.195845 
L 704.558284 220.334692 
L 706.677062 219.585597 
L 708.79584 223.446682 
L 710.914619 223.728075 
L 713.033397 227.163549 
L 715.152175 228.835038 
L 717.270953 229.295418 
L 719.389731 230.322095 
L 721.508509 227.448525 
L 723.627287 235.78689 
L 725.746065 231.807214 
L 727.864844 235.951919 
L 732.1024 237.720183 
L 734.221178 240.108349 
L 736.339956 240.909014 
L 738.458734 243.673287 
L 740.577512 241.404045 
L 742.696291 244.964259 
L 744.815069 244.818628 
L 746.933847 241.538926 
L 749.052625 246.331602 
L 751.171403 248.906064 
L 753.290181 247.864955 
L 755.408959 247.830316 
L 757.527737 247.58659 
L 759.646516 250.851773 
L 761.765294 249.771751 
L 763.884072 252.653215 
L 766.00285 247.718497 
L 768.121628 256.924664 
L 770.240406 254.369835 
L 772.359184 254.977641 
L 774.477962 253.041159 
L 776.596741 258.233881 
L 778.715519 253.673199 
L 780.834297 257.266812 
L 782.953075 256.625557 
L 785.071853 259.628566 
L 787.190631 257.845104 
L 789.309409 261.234108 
L 791.428187 260.909268 
L 793.546966 261.519542 
L 795.665744 259.743469 
L 797.784522 265.790313 
L 799.9033 262.46968 
L 802.022078 265.006486 
L 804.140856 266.498785 
L 806.259634 265.209084 
L 808.378412 266.82497 
L 810.497191 268.231362 
L 812.615969 267.447844 
L 814.734747 265.989586 
L 816.853525 269.793346 
L 818.972303 266.378301 
L 821.091081 270.634195 
L 823.209859 270.05655 
L 825.328637 270.055237 
L 827.447416 271.326576 
L 829.566194 270.484987 
L 831.684972 272.065783 
L 833.80375 272.325194 
L 835.922528 275.632498 
L 838.041306 270.905282 
L 840.160084 271.960269 
L 842.278863 266.045153 
L 844.397641 273.588231 
L 846.516419 272.342174 
L 848.635197 274.801604 
L 850.753975 275.84968 
L 852.872753 276.024158 
L 854.991531 274.250105 
L 857.110309 276.439417 
L 859.229088 278.878844 
L 861.347866 278.604816 
L 863.466644 276.772204 
L 865.585422 277.267933 
L 867.7042 275.534684 
L 869.822978 279.695296 
L 871.941756 278.258141 
L 874.060534 279.81368 
L 876.179313 281.063367 
L 878.298091 280.726882 
L 880.416869 280.204816 
L 882.535647 282.049205 
L 884.654425 281.45833 
L 886.773203 284.268807 
L 888.891981 279.587413 
L 891.010759 280.88631 
L 893.129538 281.550611 
L 895.248316 283.444365 
L 897.367094 287.215793 
L 899.485872 284.220516 
L 901.60465 282.764558 
L 903.723428 283.181587 
L 905.842206 284.622075 
L 910.079763 284.378189 
L 912.198541 286.11179 
L 914.317319 284.933599 
L 916.436097 282.240478 
L 918.554875 285.918413 
L 920.673653 287.972471 
L 922.792431 285.4382 
L 924.911209 286.496672 
L 927.029988 288.106408 
L 929.148766 285.167249 
L 931.267544 286.015959 
L 933.386322 285.790268 
L 935.5051 281.661224 
L 937.623878 287.124687 
L 939.742656 289.669416 
L 941.861435 288.382592 
L 943.980213 287.865769 
L 946.098991 284.659959 
L 950.336547 289.073613 
L 952.455325 289.536818 
L 954.574103 288.710985 
L 956.692881 287.185182 
L 958.81166 290.09125 
L 960.930438 289.873562 
L 963.049216 287.098399 
L 965.167994 288.975901 
L 967.286772 291.820345 
L 969.40555 290.776867 
L 971.524328 292.698516 
L 973.643106 290.880689 
L 975.761885 289.866228 
L 977.880663 290.7303 
L 979.999441 290.205067 
L 982.118219 294.362326 
L 984.236997 288.390108 
L 986.355775 289.275289 
L 988.474553 291.619496 
L 990.593331 292.96007 
L 992.71211 290.890968 
L 994.830888 289.628242 
L 996.949666 295.015016 
L 999.068444 290.568169 
L 1001.187222 294.460708 
L 1003.306 291.31595 
L 1005.424778 291.95702 
L 1007.543556 293.199925 
L 1009.662335 292.246246 
L 1011.781113 293.492189 
L 1013.899891 292.843114 
L 1016.018669 295.14487 
L 1018.137447 292.906767 
L 1020.256225 294.923308 
L 1022.375003 293.896309 
L 1024.493782 293.796311 
L 1026.61256 293.356883 
L 1028.731338 292.332665 
L 1030.850116 295.410994 
L 1032.968894 295.878905 
L 1035.087672 294.445535 
L 1037.20645 293.230385 
L 1039.325228 294.845071 
L 1041.444007 295.226561 
L 1043.562785 296.666516 
L 1045.681563 294.505089 
L 1047.800341 296.207002 
L 1047.800341 296.207002 
" clip-path="url(#p3c93a01770)" style="fill: none; stroke: #1f77b4; stroke-width: 1.5; stroke-linecap: square"/>
   </g>
   <g id="line2d_38">
    <path d="M 619.807159 79.725245 
L 621.925937 68.230154 
L 624.044715 64.296003 
L 626.163493 39.672727 
L 628.282272 115.517106 
L 630.40105 60.519061 
L 634.638606 131.503139 
L 636.757384 64.21661 
L 638.876162 130.190357 
L 640.99494 137.668314 
L 643.113718 145.636005 
L 645.232497 145.715485 
L 647.351275 176.606016 
L 649.470053 177.090334 
L 651.588831 132.814699 
L 653.707609 137.146791 
L 655.826387 138.664792 
L 657.945165 185.993761 
L 660.063944 182.298297 
L 662.182722 194.569066 
L 664.3015 179.67831 
L 666.420278 150.180718 
L 668.539056 194.426044 
L 670.657834 156.007744 
L 672.776612 150.182816 
L 674.89539 149.217251 
L 677.014169 204.932984 
L 679.132947 189.396754 
L 681.251725 184.992274 
L 683.370503 164.705088 
L 685.489281 208.362462 
L 687.608059 218.980289 
L 689.726837 183.24268 
L 691.845615 219.214374 
L 693.964394 223.192613 
L 696.083172 233.74398 
L 698.20195 233.859314 
L 700.320728 233.642968 
L 702.439506 227.387451 
L 704.558284 247.48868 
L 706.677062 228.634685 
L 708.79584 252.449908 
L 710.914619 233.333554 
L 713.033397 221.386743 
L 715.152175 242.351531 
L 717.270953 203.336971 
L 719.389731 249.713495 
L 721.508509 222.825399 
L 723.627287 244.266389 
L 725.746065 220.497278 
L 727.864844 247.244727 
L 729.983622 242.049229 
L 732.1024 232.132652 
L 734.221178 231.656322 
L 736.339956 224.403531 
L 738.458734 233.214075 
L 740.577512 226.388154 
L 742.696291 226.05981 
L 744.815069 145.510944 
L 746.933847 269.538932 
L 749.052625 268.051549 
L 751.171403 247.696737 
L 753.290181 239.192751 
L 755.408959 270.437889 
L 757.527737 265.084165 
L 759.646516 218.121269 
L 761.765294 230.006303 
L 763.884072 261.328305 
L 766.00285 272.162879 
L 768.121628 263.119921 
L 770.240406 262.501192 
L 772.359184 271.690699 
L 774.477962 236.884972 
L 776.596741 278.316332 
L 778.715519 258.033269 
L 780.834297 248.40009 
L 782.953075 256.682172 
L 785.071853 272.230313 
L 787.190631 279.407466 
L 789.309409 240.692063 
L 791.428187 282.407389 
L 793.546966 261.842926 
L 795.665744 251.016266 
L 797.784522 261.079306 
L 799.9033 269.269011 
L 802.022078 280.337864 
L 806.259634 259.90294 
L 808.378412 284.511025 
L 810.497191 276.777978 
L 812.615969 277.675744 
L 814.734747 281.938278 
L 816.853525 259.109726 
L 818.972303 241.583032 
L 821.091081 284.28221 
L 823.209859 271.685691 
L 825.328637 277.158554 
L 827.447416 270.157797 
L 829.566194 280.842068 
L 831.684972 287.180821 
L 833.80375 279.34707 
L 835.922528 254.836266 
L 838.041306 222.125882 
L 840.160084 265.621774 
L 842.278863 297.575825 
L 844.397641 295.748839 
L 846.516419 275.96663 
L 848.635197 262.093504 
L 850.753975 274.367783 
L 852.872753 283.337907 
L 854.991531 275.702729 
L 857.110309 264.772007 
L 859.229088 256.003417 
L 861.347866 269.265915 
L 863.466644 293.338315 
L 865.585422 282.789563 
L 867.7042 269.19243 
L 869.822978 283.919595 
L 871.941756 287.059538 
L 874.060534 289.411171 
L 876.179313 279.192045 
L 878.298091 285.675573 
L 880.416869 202.059137 
L 882.535647 258.272825 
L 884.654425 278.071148 
L 886.773203 282.577463 
L 888.891981 290.788728 
L 891.010759 283.397461 
L 893.129538 287.800121 
L 895.248316 286.902453 
L 897.367094 280.280265 
L 899.485872 298.327517 
L 901.60465 289.217415 
L 903.723428 297.679977 
L 905.842206 292.270773 
L 907.960984 297.848722 
L 910.079763 293.636978 
L 912.198541 280.932443 
L 914.317319 299.124937 
L 916.436097 286.504255 
L 918.554875 283.003334 
L 920.673653 290.121507 
L 922.792431 300.54802 
L 924.911209 297.476112 
L 927.029988 287.903135 
L 929.148766 292.367375 
L 931.267544 288.921422 
L 933.386322 297.397452 
L 935.5051 306.411551 
L 937.623878 288.225973 
L 939.742656 305.22285 
L 941.861435 309.927273 
L 943.980213 301.609726 
L 946.098991 298.429183 
L 948.217769 307.06117 
L 950.336547 275.907995 
L 952.455325 293.156571 
L 954.574103 300.408187 
L 956.692881 303.674909 
L 958.81166 293.880124 
L 960.930438 297.020237 
L 963.049216 269.49485 
L 965.167994 304.713628 
L 967.286772 299.399644 
L 969.40555 298.864385 
L 971.524328 293.24406 
L 973.643106 305.152593 
L 975.761885 305.310917 
L 977.880663 305.126573 
L 979.999441 293.67303 
L 982.118219 302.321334 
L 984.236997 299.815325 
L 986.355775 289.089326 
L 988.474553 282.570225 
L 990.593331 302.267121 
L 992.71211 308.563675 
L 994.830888 299.953799 
L 996.949666 296.033847 
L 999.068444 305.989594 
L 1001.187222 259.069987 
L 1003.306 305.317448 
L 1005.424778 299.783345 
L 1007.543556 306.471366 
L 1009.662335 303.7895 
L 1011.781113 301.879055 
L 1013.899891 293.657644 
L 1016.018669 303.479125 
L 1018.137447 304.012405 
L 1020.256225 265.677526 
L 1022.375003 235.818278 
L 1024.493782 295.79079 
L 1026.61256 293.904904 
L 1028.731338 293.76331 
L 1030.850116 304.192859 
L 1032.968894 292.879489 
L 1035.087672 272.184886 
L 1037.20645 298.505998 
L 1039.325228 305.041567 
L 1041.444007 305.504353 
L 1043.562785 302.742875 
L 1045.681563 294.209834 
L 1047.800341 295.679638 
L 1047.800341 295.679638 
" clip-path="url(#p3c93a01770)" style="fill: none; stroke: #ff7f0e; stroke-width: 1.5; stroke-linecap: square"/>
   </g>
   <g id="patch_9">
    <path d="M 598.4075 323.44 
L 598.4075 26.16 
" style="fill: none; stroke: #000000; stroke-width: 0.8; stroke-linejoin: miter; stroke-linecap: square"/>
   </g>
   <g id="patch_10">
    <path d="M 1069.2 323.44 
L 1069.2 26.16 
" style="fill: none; stroke: #000000; stroke-width: 0.8; stroke-linejoin: miter; stroke-linecap: square"/>
   </g>
   <g id="patch_11">
    <path d="M 598.4075 323.44 
L 1069.2 323.44 
" style="fill: none; stroke: #000000; stroke-width: 0.8; stroke-linejoin: miter; stroke-linecap: square"/>
   </g>
   <g id="patch_12">
    <path d="M 598.4075 26.16 
L 1069.2 26.16 
" style="fill: none; stroke: #000000; stroke-width: 0.8; stroke-linejoin: miter; stroke-linecap: square"/>
   </g>
   <g id="text_40">
    <!-- Training and Validation Loss (Skip first 50) -->
    <g transform="translate(707.814063 20.16) scale(0.12 -0.12)">
     <defs>
      <path id="DejaVuSans-28" d="M 1984 4856 
Q 1566 4138 1362 3434 
Q 1159 2731 1159 2009 
Q 1159 1288 1364 580 
Q 1569 -128 1984 -844 
L 1484 -844 
Q 1016 -109 783 600 
Q 550 1309 550 2009 
Q 550 2706 781 3412 
Q 1013 4119 1484 4856 
L 1984 4856 
z
" transform="scale(0.015625)"/>
      <path id="DejaVuSans-53" d="M 3425 4513 
L 3425 3897 
Q 3066 4069 2747 4153 
Q 2428 4238 2131 4238 
Q 1616 4238 1336 4038 
Q 1056 3838 1056 3469 
Q 1056 3159 1242 3001 
Q 1428 2844 1947 2747 
L 2328 2669 
Q 3034 2534 3370 2195 
Q 3706 1856 3706 1288 
Q 3706 609 3251 259 
Q 2797 -91 1919 -91 
Q 1588 -91 1214 -16 
Q 841 59 441 206 
L 441 856 
Q 825 641 1194 531 
Q 1563 422 1919 422 
Q 2459 422 2753 634 
Q 3047 847 3047 1241 
Q 3047 1584 2836 1778 
Q 2625 1972 2144 2069 
L 1759 2144 
Q 1053 2284 737 2584 
Q 422 2884 422 3419 
Q 422 4038 858 4394 
Q 1294 4750 2059 4750 
Q 2388 4750 2728 4690 
Q 3069 4631 3425 4513 
z
" transform="scale(0.015625)"/>
      <path id="DejaVuSans-6b" d="M 581 4863 
L 1159 4863 
L 1159 1991 
L 2875 3500 
L 3609 3500 
L 1753 1863 
L 3688 0 
L 2938 0 
L 1159 1709 
L 1159 0 
L 581 0 
L 581 4863 
z
" transform="scale(0.015625)"/>
      <path id="DejaVuSans-66" d="M 2375 4863 
L 2375 4384 
L 1825 4384 
Q 1516 4384 1395 4259 
Q 1275 4134 1275 3809 
L 1275 3500 
L 2222 3500 
L 2222 3053 
L 1275 3053 
L 1275 0 
L 697 0 
L 697 3053 
L 147 3053 
L 147 3500 
L 697 3500 
L 697 3744 
Q 697 4328 969 4595 
Q 1241 4863 1831 4863 
L 2375 4863 
z
" transform="scale(0.015625)"/>
      <path id="DejaVuSans-29" d="M 513 4856 
L 1013 4856 
Q 1481 4119 1714 3412 
Q 1947 2706 1947 2009 
Q 1947 1309 1714 600 
Q 1481 -109 1013 -844 
L 513 -844 
Q 928 -128 1133 580 
Q 1338 1288 1338 2009 
Q 1338 2731 1133 3434 
Q 928 4138 513 4856 
z
" transform="scale(0.015625)"/>
     </defs>
     <use xlink:href="#DejaVuSans-54"/>
     <use xlink:href="#DejaVuSans-72" x="46.333984"/>
     <use xlink:href="#DejaVuSans-61" x="87.447266"/>
     <use xlink:href="#DejaVuSans-69" x="148.726562"/>
     <use xlink:href="#DejaVuSans-6e" x="176.509766"/>
     <use xlink:href="#DejaVuSans-69" x="239.888672"/>
     <use xlink:href="#DejaVuSans-6e" x="267.671875"/>
     <use xlink:href="#DejaVuSans-67" x="331.050781"/>
     <use xlink:href="#DejaVuSans-20" x="394.527344"/>
     <use xlink:href="#DejaVuSans-61" x="426.314453"/>
     <use xlink:href="#DejaVuSans-6e" x="487.59375"/>
     <use xlink:href="#DejaVuSans-64" x="550.972656"/>
     <use xlink:href="#DejaVuSans-20" x="614.449219"/>
     <use xlink:href="#DejaVuSans-56" x="646.236328"/>
     <use xlink:href="#DejaVuSans-61" x="706.894531"/>
     <use xlink:href="#DejaVuSans-6c" x="768.173828"/>
     <use xlink:href="#DejaVuSans-69" x="795.957031"/>
     <use xlink:href="#DejaVuSans-64" x="823.740234"/>
     <use xlink:href="#DejaVuSans-61" x="887.216797"/>
     <use xlink:href="#DejaVuSans-74" x="948.496094"/>
     <use xlink:href="#DejaVuSans-69" x="987.705078"/>
     <use xlink:href="#DejaVuSans-6f" x="1015.488281"/>
     <use xlink:href="#DejaVuSans-6e" x="1076.669922"/>
     <use xlink:href="#DejaVuSans-20" x="1140.048828"/>
     <use xlink:href="#DejaVuSans-4c" x="1171.835938"/>
     <use xlink:href="#DejaVuSans-6f" x="1225.798828"/>
     <use xlink:href="#DejaVuSans-73" x="1286.980469"/>
     <use xlink:href="#DejaVuSans-73" x="1339.080078"/>
     <use xlink:href="#DejaVuSans-20" x="1391.179688"/>
     <use xlink:href="#DejaVuSans-28" x="1422.966797"/>
     <use xlink:href="#DejaVuSans-53" x="1461.980469"/>
     <use xlink:href="#DejaVuSans-6b" x="1525.457031"/>
     <use xlink:href="#DejaVuSans-69" x="1583.367188"/>
     <use xlink:href="#DejaVuSans-70" x="1611.150391"/>
     <use xlink:href="#DejaVuSans-20" x="1674.626953"/>
     <use xlink:href="#DejaVuSans-66" x="1706.414062"/>
     <use xlink:href="#DejaVuSans-69" x="1741.619141"/>
     <use xlink:href="#DejaVuSans-72" x="1769.402344"/>
     <use xlink:href="#DejaVuSans-73" x="1810.515625"/>
     <use xlink:href="#DejaVuSans-74" x="1862.615234"/>
     <use xlink:href="#DejaVuSans-20" x="1901.824219"/>
     <use xlink:href="#DejaVuSans-35" x="1933.611328"/>
     <use xlink:href="#DejaVuSans-30" x="1997.234375"/>
     <use xlink:href="#DejaVuSans-29" x="2060.857422"/>
    </g>
   </g>
   <g id="legend_2">
    <g id="patch_13">
     <path d="M 958.325 63.51625 
L 1062.2 63.51625 
Q 1064.2 63.51625 1064.2 61.51625 
L 1064.2 33.16 
Q 1064.2 31.16 1062.2 31.16 
L 958.325 31.16 
Q 956.325 31.16 956.325 33.16 
L 956.325 61.51625 
Q 956.325 63.51625 958.325 63.51625 
z
" style="fill: #ffffff; opacity: 0.8; stroke: #cccccc; stroke-linejoin: miter"/>
    </g>
    <g id="line2d_39">
     <path d="M 960.325 39.258438 
L 970.325 39.258438 
L 980.325 39.258438 
" style="fill: none; stroke: #1f77b4; stroke-width: 1.5; stroke-linecap: square"/>
    </g>
    <g id="text_41">
     <!-- Training loss -->
     <g transform="translate(988.325 42.758438) scale(0.1 -0.1)">
      <use xlink:href="#DejaVuSans-54"/>
      <use xlink:href="#DejaVuSans-72" x="46.333984"/>
      <use xlink:href="#DejaVuSans-61" x="87.447266"/>
      <use xlink:href="#DejaVuSans-69" x="148.726562"/>
      <use xlink:href="#DejaVuSans-6e" x="176.509766"/>
      <use xlink:href="#DejaVuSans-69" x="239.888672"/>
      <use xlink:href="#DejaVuSans-6e" x="267.671875"/>
      <use xlink:href="#DejaVuSans-67" x="331.050781"/>
      <use xlink:href="#DejaVuSans-20" x="394.527344"/>
      <use xlink:href="#DejaVuSans-6c" x="426.314453"/>
      <use xlink:href="#DejaVuSans-6f" x="454.097656"/>
      <use xlink:href="#DejaVuSans-73" x="515.279297"/>
      <use xlink:href="#DejaVuSans-73" x="567.378906"/>
     </g>
    </g>
    <g id="line2d_40">
     <path d="M 960.325 53.936563 
L 970.325 53.936563 
L 980.325 53.936563 
" style="fill: none; stroke: #ff7f0e; stroke-width: 1.5; stroke-linecap: square"/>
    </g>
    <g id="text_42">
     <!-- Validation loss -->
     <g transform="translate(988.325 57.436563) scale(0.1 -0.1)">
      <use xlink:href="#DejaVuSans-56"/>
      <use xlink:href="#DejaVuSans-61" x="60.658203"/>
      <use xlink:href="#DejaVuSans-6c" x="121.9375"/>
      <use xlink:href="#DejaVuSans-69" x="149.720703"/>
      <use xlink:href="#DejaVuSans-64" x="177.503906"/>
      <use xlink:href="#DejaVuSans-61" x="240.980469"/>
      <use xlink:href="#DejaVuSans-74" x="302.259766"/>
      <use xlink:href="#DejaVuSans-69" x="341.46875"/>
      <use xlink:href="#DejaVuSans-6f" x="369.251953"/>
      <use xlink:href="#DejaVuSans-6e" x="430.433594"/>
      <use xlink:href="#DejaVuSans-20" x="493.8125"/>
      <use xlink:href="#DejaVuSans-6c" x="525.599609"/>
      <use xlink:href="#DejaVuSans-6f" x="553.382812"/>
      <use xlink:href="#DejaVuSans-73" x="614.564453"/>
      <use xlink:href="#DejaVuSans-73" x="666.664062"/>
     </g>
    </g>
   </g>
  </g>
  <g id="axes_3">
   <g id="patch_14">
    <path d="M 60.635 678.04 
L 531.4275 678.04 
L 531.4275 380.76 
L 60.635 380.76 
z
" style="fill: #ffffff"/>
   </g>
   <g id="matplotlib.axis_5">
    <g id="xtick_16">
     <g id="line2d_41">
      <g>
       <use xlink:href="#m560189654a" x="79.915881" y="678.04" style="stroke: #000000; stroke-width: 0.8"/>
      </g>
     </g>
     <g id="text_43">
      <!-- 50 -->
      <g transform="translate(73.553381 692.638438) scale(0.1 -0.1)">
       <use xlink:href="#DejaVuSans-35"/>
       <use xlink:href="#DejaVuSans-30" x="63.623047"/>
      </g>
     </g>
    </g>
    <g id="xtick_17">
     <g id="line2d_42">
      <g>
       <use xlink:href="#m560189654a" x="132.885334" y="678.04" style="stroke: #000000; stroke-width: 0.8"/>
      </g>
     </g>
     <g id="text_44">
      <!-- 75 -->
      <g transform="translate(126.522834 692.638438) scale(0.1 -0.1)">
       <use xlink:href="#DejaVuSans-37"/>
       <use xlink:href="#DejaVuSans-35" x="63.623047"/>
      </g>
     </g>
    </g>
    <g id="xtick_18">
     <g id="line2d_43">
      <g>
       <use xlink:href="#m560189654a" x="185.854787" y="678.04" style="stroke: #000000; stroke-width: 0.8"/>
      </g>
     </g>
     <g id="text_45">
      <!-- 100 -->
      <g transform="translate(176.311037 692.638438) scale(0.1 -0.1)">
       <use xlink:href="#DejaVuSans-31"/>
       <use xlink:href="#DejaVuSans-30" x="63.623047"/>
       <use xlink:href="#DejaVuSans-30" x="127.246094"/>
      </g>
     </g>
    </g>
    <g id="xtick_19">
     <g id="line2d_44">
      <g>
       <use xlink:href="#m560189654a" x="238.824241" y="678.04" style="stroke: #000000; stroke-width: 0.8"/>
      </g>
     </g>
     <g id="text_46">
      <!-- 125 -->
      <g transform="translate(229.280491 692.638438) scale(0.1 -0.1)">
       <use xlink:href="#DejaVuSans-31"/>
       <use xlink:href="#DejaVuSans-32" x="63.623047"/>
       <use xlink:href="#DejaVuSans-35" x="127.246094"/>
      </g>
     </g>
    </g>
    <g id="xtick_20">
     <g id="line2d_45">
      <g>
       <use xlink:href="#m560189654a" x="291.793694" y="678.04" style="stroke: #000000; stroke-width: 0.8"/>
      </g>
     </g>
     <g id="text_47">
      <!-- 150 -->
      <g transform="translate(282.249944 692.638438) scale(0.1 -0.1)">
       <use xlink:href="#DejaVuSans-31"/>
       <use xlink:href="#DejaVuSans-35" x="63.623047"/>
       <use xlink:href="#DejaVuSans-30" x="127.246094"/>
      </g>
     </g>
    </g>
    <g id="xtick_21">
     <g id="line2d_46">
      <g>
       <use xlink:href="#m560189654a" x="344.763147" y="678.04" style="stroke: #000000; stroke-width: 0.8"/>
      </g>
     </g>
     <g id="text_48">
      <!-- 175 -->
      <g transform="translate(335.219397 692.638438) scale(0.1 -0.1)">
       <use xlink:href="#DejaVuSans-31"/>
       <use xlink:href="#DejaVuSans-37" x="63.623047"/>
       <use xlink:href="#DejaVuSans-35" x="127.246094"/>
      </g>
     </g>
    </g>
    <g id="xtick_22">
     <g id="line2d_47">
      <g>
       <use xlink:href="#m560189654a" x="397.7326" y="678.04" style="stroke: #000000; stroke-width: 0.8"/>
      </g>
     </g>
     <g id="text_49">
      <!-- 200 -->
      <g transform="translate(388.18885 692.638438) scale(0.1 -0.1)">
       <use xlink:href="#DejaVuSans-32"/>
       <use xlink:href="#DejaVuSans-30" x="63.623047"/>
       <use xlink:href="#DejaVuSans-30" x="127.246094"/>
      </g>
     </g>
    </g>
    <g id="xtick_23">
     <g id="line2d_48">
      <g>
       <use xlink:href="#m560189654a" x="450.702053" y="678.04" style="stroke: #000000; stroke-width: 0.8"/>
      </g>
     </g>
     <g id="text_50">
      <!-- 225 -->
      <g transform="translate(441.158303 692.638438) scale(0.1 -0.1)">
       <use xlink:href="#DejaVuSans-32"/>
       <use xlink:href="#DejaVuSans-32" x="63.623047"/>
       <use xlink:href="#DejaVuSans-35" x="127.246094"/>
      </g>
     </g>
    </g>
    <g id="xtick_24">
     <g id="line2d_49">
      <g>
       <use xlink:href="#m560189654a" x="503.671507" y="678.04" style="stroke: #000000; stroke-width: 0.8"/>
      </g>
     </g>
     <g id="text_51">
      <!-- 250 -->
      <g transform="translate(494.127757 692.638438) scale(0.1 -0.1)">
       <use xlink:href="#DejaVuSans-32"/>
       <use xlink:href="#DejaVuSans-35" x="63.623047"/>
       <use xlink:href="#DejaVuSans-30" x="127.246094"/>
      </g>
     </g>
    </g>
    <g id="text_52">
     <!-- Epochs -->
     <g transform="translate(278.115625 706.316563) scale(0.1 -0.1)">
      <use xlink:href="#DejaVuSans-45"/>
      <use xlink:href="#DejaVuSans-70" x="63.183594"/>
      <use xlink:href="#DejaVuSans-6f" x="126.660156"/>
      <use xlink:href="#DejaVuSans-63" x="187.841797"/>
      <use xlink:href="#DejaVuSans-68" x="242.822266"/>
      <use xlink:href="#DejaVuSans-73" x="306.201172"/>
     </g>
    </g>
   </g>
   <g id="matplotlib.axis_6">
    <g id="ytick_18">
     <g id="line2d_50">
      <g>
       <use xlink:href="#m7ddfc537c7" x="60.635" y="673.113533" style="stroke: #000000; stroke-width: 0.8"/>
      </g>
     </g>
     <g id="text_53">
      <!-- 0.02 -->
      <g transform="translate(31.369375 676.912751) scale(0.1 -0.1)">
       <use xlink:href="#DejaVuSans-30"/>
       <use xlink:href="#DejaVuSans-2e" x="63.623047"/>
       <use xlink:href="#DejaVuSans-30" x="95.410156"/>
       <use xlink:href="#DejaVuSans-32" x="159.033203"/>
      </g>
     </g>
    </g>
    <g id="ytick_19">
     <g id="line2d_51">
      <g>
       <use xlink:href="#m7ddfc537c7" x="60.635" y="635.291913" style="stroke: #000000; stroke-width: 0.8"/>
      </g>
     </g>
     <g id="text_54">
      <!-- 0.03 -->
      <g transform="translate(31.369375 639.091132) scale(0.1 -0.1)">
       <defs>
        <path id="DejaVuSans-33" d="M 2597 2516 
Q 3050 2419 3304 2112 
Q 3559 1806 3559 1356 
Q 3559 666 3084 287 
Q 2609 -91 1734 -91 
Q 1441 -91 1130 -33 
Q 819 25 488 141 
L 488 750 
Q 750 597 1062 519 
Q 1375 441 1716 441 
Q 2309 441 2620 675 
Q 2931 909 2931 1356 
Q 2931 1769 2642 2001 
Q 2353 2234 1838 2234 
L 1294 2234 
L 1294 2753 
L 1863 2753 
Q 2328 2753 2575 2939 
Q 2822 3125 2822 3475 
Q 2822 3834 2567 4026 
Q 2313 4219 1838 4219 
Q 1578 4219 1281 4162 
Q 984 4106 628 3988 
L 628 4550 
Q 988 4650 1302 4700 
Q 1616 4750 1894 4750 
Q 2613 4750 3031 4423 
Q 3450 4097 3450 3541 
Q 3450 3153 3228 2886 
Q 3006 2619 2597 2516 
z
" transform="scale(0.015625)"/>
       </defs>
       <use xlink:href="#DejaVuSans-30"/>
       <use xlink:href="#DejaVuSans-2e" x="63.623047"/>
       <use xlink:href="#DejaVuSans-30" x="95.410156"/>
       <use xlink:href="#DejaVuSans-33" x="159.033203"/>
      </g>
     </g>
    </g>
    <g id="ytick_20">
     <g id="line2d_52">
      <g>
       <use xlink:href="#m7ddfc537c7" x="60.635" y="597.470293" style="stroke: #000000; stroke-width: 0.8"/>
      </g>
     </g>
     <g id="text_55">
      <!-- 0.04 -->
      <g transform="translate(31.369375 601.269512) scale(0.1 -0.1)">
       <defs>
        <path id="DejaVuSans-34" d="M 2419 4116 
L 825 1625 
L 2419 1625 
L 2419 4116 
z
M 2253 4666 
L 3047 4666 
L 3047 1625 
L 3713 1625 
L 3713 1100 
L 3047 1100 
L 3047 0 
L 2419 0 
L 2419 1100 
L 313 1100 
L 313 1709 
L 2253 4666 
z
" transform="scale(0.015625)"/>
       </defs>
       <use xlink:href="#DejaVuSans-30"/>
       <use xlink:href="#DejaVuSans-2e" x="63.623047"/>
       <use xlink:href="#DejaVuSans-30" x="95.410156"/>
       <use xlink:href="#DejaVuSans-34" x="159.033203"/>
      </g>
     </g>
    </g>
    <g id="ytick_21">
     <g id="line2d_53">
      <g>
       <use xlink:href="#m7ddfc537c7" x="60.635" y="559.648674" style="stroke: #000000; stroke-width: 0.8"/>
      </g>
     </g>
     <g id="text_56">
      <!-- 0.05 -->
      <g transform="translate(31.369375 563.447892) scale(0.1 -0.1)">
       <use xlink:href="#DejaVuSans-30"/>
       <use xlink:href="#DejaVuSans-2e" x="63.623047"/>
       <use xlink:href="#DejaVuSans-30" x="95.410156"/>
       <use xlink:href="#DejaVuSans-35" x="159.033203"/>
      </g>
     </g>
    </g>
    <g id="ytick_22">
     <g id="line2d_54">
      <g>
       <use xlink:href="#m7ddfc537c7" x="60.635" y="521.827054" style="stroke: #000000; stroke-width: 0.8"/>
      </g>
     </g>
     <g id="text_57">
      <!-- 0.06 -->
      <g transform="translate(31.369375 525.626273) scale(0.1 -0.1)">
       <defs>
        <path id="DejaVuSans-36" d="M 2113 2584 
Q 1688 2584 1439 2293 
Q 1191 2003 1191 1497 
Q 1191 994 1439 701 
Q 1688 409 2113 409 
Q 2538 409 2786 701 
Q 3034 994 3034 1497 
Q 3034 2003 2786 2293 
Q 2538 2584 2113 2584 
z
M 3366 4563 
L 3366 3988 
Q 3128 4100 2886 4159 
Q 2644 4219 2406 4219 
Q 1781 4219 1451 3797 
Q 1122 3375 1075 2522 
Q 1259 2794 1537 2939 
Q 1816 3084 2150 3084 
Q 2853 3084 3261 2657 
Q 3669 2231 3669 1497 
Q 3669 778 3244 343 
Q 2819 -91 2113 -91 
Q 1303 -91 875 529 
Q 447 1150 447 2328 
Q 447 3434 972 4092 
Q 1497 4750 2381 4750 
Q 2619 4750 2861 4703 
Q 3103 4656 3366 4563 
z
" transform="scale(0.015625)"/>
       </defs>
       <use xlink:href="#DejaVuSans-30"/>
       <use xlink:href="#DejaVuSans-2e" x="63.623047"/>
       <use xlink:href="#DejaVuSans-30" x="95.410156"/>
       <use xlink:href="#DejaVuSans-36" x="159.033203"/>
      </g>
     </g>
    </g>
    <g id="ytick_23">
     <g id="line2d_55">
      <g>
       <use xlink:href="#m7ddfc537c7" x="60.635" y="484.005434" style="stroke: #000000; stroke-width: 0.8"/>
      </g>
     </g>
     <g id="text_58">
      <!-- 0.07 -->
      <g transform="translate(31.369375 487.804653) scale(0.1 -0.1)">
       <use xlink:href="#DejaVuSans-30"/>
       <use xlink:href="#DejaVuSans-2e" x="63.623047"/>
       <use xlink:href="#DejaVuSans-30" x="95.410156"/>
       <use xlink:href="#DejaVuSans-37" x="159.033203"/>
      </g>
     </g>
    </g>
    <g id="ytick_24">
     <g id="line2d_56">
      <g>
       <use xlink:href="#m7ddfc537c7" x="60.635" y="446.183815" style="stroke: #000000; stroke-width: 0.8"/>
      </g>
     </g>
     <g id="text_59">
      <!-- 0.08 -->
      <g transform="translate(31.369375 449.983033) scale(0.1 -0.1)">
       <defs>
        <path id="DejaVuSans-38" d="M 2034 2216 
Q 1584 2216 1326 1975 
Q 1069 1734 1069 1313 
Q 1069 891 1326 650 
Q 1584 409 2034 409 
Q 2484 409 2743 651 
Q 3003 894 3003 1313 
Q 3003 1734 2745 1975 
Q 2488 2216 2034 2216 
z
M 1403 2484 
Q 997 2584 770 2862 
Q 544 3141 544 3541 
Q 544 4100 942 4425 
Q 1341 4750 2034 4750 
Q 2731 4750 3128 4425 
Q 3525 4100 3525 3541 
Q 3525 3141 3298 2862 
Q 3072 2584 2669 2484 
Q 3125 2378 3379 2068 
Q 3634 1759 3634 1313 
Q 3634 634 3220 271 
Q 2806 -91 2034 -91 
Q 1263 -91 848 271 
Q 434 634 434 1313 
Q 434 1759 690 2068 
Q 947 2378 1403 2484 
z
M 1172 3481 
Q 1172 3119 1398 2916 
Q 1625 2713 2034 2713 
Q 2441 2713 2670 2916 
Q 2900 3119 2900 3481 
Q 2900 3844 2670 4047 
Q 2441 4250 2034 4250 
Q 1625 4250 1398 4047 
Q 1172 3844 1172 3481 
z
" transform="scale(0.015625)"/>
       </defs>
       <use xlink:href="#DejaVuSans-30"/>
       <use xlink:href="#DejaVuSans-2e" x="63.623047"/>
       <use xlink:href="#DejaVuSans-30" x="95.410156"/>
       <use xlink:href="#DejaVuSans-38" x="159.033203"/>
      </g>
     </g>
    </g>
    <g id="ytick_25">
     <g id="line2d_57">
      <g>
       <use xlink:href="#m7ddfc537c7" x="60.635" y="408.362195" style="stroke: #000000; stroke-width: 0.8"/>
      </g>
     </g>
     <g id="text_60">
      <!-- 0.09 -->
      <g transform="translate(31.369375 412.161414) scale(0.1 -0.1)">
       <defs>
        <path id="DejaVuSans-39" d="M 703 97 
L 703 672 
Q 941 559 1184 500 
Q 1428 441 1663 441 
Q 2288 441 2617 861 
Q 2947 1281 2994 2138 
Q 2813 1869 2534 1725 
Q 2256 1581 1919 1581 
Q 1219 1581 811 2004 
Q 403 2428 403 3163 
Q 403 3881 828 4315 
Q 1253 4750 1959 4750 
Q 2769 4750 3195 4129 
Q 3622 3509 3622 2328 
Q 3622 1225 3098 567 
Q 2575 -91 1691 -91 
Q 1453 -91 1209 -44 
Q 966 3 703 97 
z
M 1959 2075 
Q 2384 2075 2632 2365 
Q 2881 2656 2881 3163 
Q 2881 3666 2632 3958 
Q 2384 4250 1959 4250 
Q 1534 4250 1286 3958 
Q 1038 3666 1038 3163 
Q 1038 2656 1286 2365 
Q 1534 2075 1959 2075 
z
" transform="scale(0.015625)"/>
       </defs>
       <use xlink:href="#DejaVuSans-30"/>
       <use xlink:href="#DejaVuSans-2e" x="63.623047"/>
       <use xlink:href="#DejaVuSans-30" x="95.410156"/>
       <use xlink:href="#DejaVuSans-39" x="159.033203"/>
      </g>
     </g>
    </g>
    <g id="text_61">
     <!-- MAE -->
     <g transform="translate(25.289687 540.29375) rotate(-90) scale(0.1 -0.1)">
      <defs>
       <path id="DejaVuSans-4d" d="M 628 4666 
L 1569 4666 
L 2759 1491 
L 3956 4666 
L 4897 4666 
L 4897 0 
L 4281 0 
L 4281 4097 
L 3078 897 
L 2444 897 
L 1241 4097 
L 1241 0 
L 628 0 
L 628 4666 
z
" transform="scale(0.015625)"/>
       <path id="DejaVuSans-41" d="M 2188 4044 
L 1331 1722 
L 3047 1722 
L 2188 4044 
z
M 1831 4666 
L 2547 4666 
L 4325 0 
L 3669 0 
L 3244 1197 
L 1141 1197 
L 716 0 
L 50 0 
L 1831 4666 
z
" transform="scale(0.015625)"/>
      </defs>
      <use xlink:href="#DejaVuSans-4d"/>
      <use xlink:href="#DejaVuSans-41" x="86.279297"/>
      <use xlink:href="#DejaVuSans-45" x="154.6875"/>
     </g>
    </g>
   </g>
   <g id="line2d_58">
    <path d="M 82.034659 406.660151 
L 84.153437 424.367997 
L 86.272215 426.786176 
L 88.390993 428.845716 
L 90.509772 440.211979 
L 92.62855 443.050987 
L 94.747328 453.987572 
L 96.866106 457.628366 
L 98.984884 465.874813 
L 101.103662 469.599582 
L 103.22244 474.333282 
L 105.341218 476.222789 
L 107.459997 487.501076 
L 109.578775 486.349838 
L 111.697553 495.387645 
L 113.816331 494.246243 
L 115.935109 498.593097 
L 118.053887 502.207741 
L 120.172665 503.82853 
L 122.291444 509.532669 
L 124.410222 510.268938 
L 126.529 518.204102 
L 128.647778 515.629345 
L 130.766556 518.132809 
L 132.885334 525.31939 
L 135.004112 528.356739 
L 137.12289 528.269073 
L 139.241669 530.680601 
L 141.360447 533.548944 
L 143.479225 531.435638 
L 145.598003 536.091577 
L 149.835559 542.184196 
L 151.954337 544.338574 
L 154.073115 542.868995 
L 156.191894 547.907722 
L 158.310672 550.175931 
L 160.42945 550.349543 
L 162.548228 551.511348 
L 164.667006 556.64115 
L 166.785784 556.663609 
L 168.904562 553.420904 
L 171.02334 554.634319 
L 173.142119 557.79884 
L 175.260897 563.1617 
L 177.379675 562.458556 
L 179.498453 563.56782 
L 181.617231 563.22268 
L 183.736009 565.903462 
L 185.854787 566.553037 
L 187.973565 566.400347 
L 190.092344 567.026745 
L 192.211122 573.473803 
L 194.3299 571.886928 
L 196.448678 576.502176 
L 198.567456 572.816972 
L 200.686234 574.702618 
L 202.805012 576.089321 
L 204.923791 578.295479 
L 207.042569 578.908238 
L 209.161347 577.92888 
L 211.280125 579.823065 
L 213.398903 583.336207 
L 215.517681 582.847366 
L 217.636459 582.534167 
L 219.755237 584.141895 
L 221.874016 586.050987 
L 223.992794 584.623 
L 228.23035 585.987611 
L 230.349128 589.455948 
L 232.467906 587.558199 
L 234.586684 588.442367 
L 236.705462 589.651991 
L 238.824241 591.844059 
L 240.943019 591.554503 
L 243.061797 593.576819 
L 245.180575 594.987686 
L 247.299353 594.61717 
L 249.418131 597.067037 
L 251.536909 596.496505 
L 253.655687 596.134922 
L 255.774466 598.345194 
L 260.012022 599.76071 
L 262.1308 597.977087 
L 264.249578 601.319561 
L 266.368356 603.438278 
L 268.487134 600.313321 
L 270.605912 605.37917 
L 272.724691 602.316982 
L 274.843469 607.548596 
L 276.962247 603.780685 
L 279.081025 606.31802 
L 281.199803 608.389213 
L 283.318581 607.87835 
L 285.437359 609.38731 
L 287.556137 611.308321 
L 289.674916 610.333655 
L 291.793694 610.642754 
L 293.912472 611.391661 
L 296.03125 611.967759 
L 298.150028 615.242898 
L 300.268806 610.397932 
L 302.387584 614.807937 
L 304.506363 615.862392 
L 306.625141 617.952803 
L 308.743919 616.008276 
L 310.862697 616.556124 
L 312.981475 617.36301 
L 315.100253 616.823405 
L 317.219031 617.829012 
L 319.337809 618.968625 
L 321.456588 622.61366 
L 323.575366 622.511609 
L 325.694144 619.906826 
L 327.812922 618.875689 
L 329.9317 626.830833 
L 332.050478 623.388605 
L 334.169256 622.299813 
L 336.288034 625.205141 
L 338.406813 626.716876 
L 340.525591 622.214613 
L 342.644369 624.117956 
L 344.763147 624.219838 
L 346.881925 623.318551 
L 349.000703 627.376962 
L 351.119481 624.612925 
L 353.238259 628.772514 
L 355.357038 626.316716 
L 357.475816 628.279531 
L 359.594594 632.03679 
L 361.713372 628.843766 
L 363.83215 628.996948 
L 365.950928 630.976861 
L 368.069706 629.468571 
L 372.307263 631.781507 
L 374.426041 632.004131 
L 376.544819 631.891568 
L 378.663597 630.334014 
L 380.782375 633.045764 
L 382.901153 631.787862 
L 385.019931 633.573175 
L 391.376266 633.787571 
L 393.495044 637.613869 
L 395.613822 633.772748 
L 397.7326 635.063896 
L 399.851378 634.348501 
L 401.970156 636.559639 
L 404.088935 639.170733 
L 406.207713 638.231665 
L 408.326491 638.758033 
L 410.445269 636.866519 
L 412.564047 634.682468 
L 414.682825 638.569591 
L 416.801603 637.485526 
L 418.920381 637.748721 
L 421.03916 639.609217 
L 423.157938 639.082144 
L 425.276716 640.961887 
L 427.395494 638.878521 
L 429.514272 640.161532 
L 431.63305 640.053478 
L 433.751828 640.168104 
L 435.870606 639.418718 
L 437.989385 639.69353 
L 440.108163 642.690166 
L 442.226941 640.492709 
L 444.345719 642.210322 
L 446.464497 641.577894 
L 448.583275 645.097918 
L 450.702053 640.107413 
L 452.820831 644.948293 
L 454.93961 644.345404 
L 457.058388 642.256536 
L 459.177166 644.706311 
L 461.295944 642.603853 
L 463.414722 643.380686 
L 465.5335 643.979017 
L 467.652278 646.087773 
L 469.771056 643.185847 
L 471.889835 645.369123 
L 474.008613 645.204133 
L 476.127391 643.307018 
L 478.246169 647.050681 
L 480.364947 647.170584 
L 482.483725 646.897526 
L 484.602503 646.983466 
L 486.721282 646.008145 
L 488.84006 646.4492 
L 490.958838 646.062214 
L 493.077616 648.084939 
L 495.196394 649.035476 
L 497.315172 648.538174 
L 499.43395 645.067478 
L 501.552728 647.076401 
L 503.671507 648.124925 
L 505.790285 648.309654 
L 507.909063 648.144742 
L 510.027841 649.127678 
L 510.027841 649.127678 
" clip-path="url(#pc90fb337c7)" style="fill: none; stroke: #1f77b4; stroke-width: 1.5; stroke-linecap: square"/>
   </g>
   <g id="line2d_59">
    <path d="M 82.034659 417.628466 
L 84.153437 430.950485 
L 86.272215 414.125215 
L 88.390993 416.467169 
L 90.509772 452.106829 
L 92.62855 394.272727 
L 94.747328 418.693644 
L 96.866106 473.554462 
L 98.984884 418.471703 
L 101.103662 478.775439 
L 103.22244 477.64621 
L 105.341218 461.843821 
L 109.578775 493.313113 
L 111.697553 512.217705 
L 113.816331 459.120009 
L 115.935109 484.435449 
L 118.053887 464.095347 
L 120.172665 510.597226 
L 122.291444 518.349987 
L 124.410222 516.407559 
L 126.529 515.436557 
L 128.647778 482.987794 
L 130.766556 533.430267 
L 132.885334 502.612677 
L 135.004112 493.392973 
L 137.12289 501.269342 
L 139.241669 537.093351 
L 141.360447 525.951945 
L 143.479225 540.877564 
L 145.598003 508.093157 
L 147.716781 534.420502 
L 149.835559 542.044046 
L 151.954337 520.205537 
L 154.073115 541.736497 
L 156.191894 560.932266 
L 158.310672 560.61577 
L 160.42945 559.23969 
L 162.548228 573.22791 
L 164.667006 534.733659 
L 166.785784 573.497389 
L 168.904562 537.325901 
L 171.02334 586.28541 
L 173.142119 557.996645 
L 175.260897 523.432871 
L 177.379675 584.311436 
L 179.498453 538.701403 
L 181.617231 585.491162 
L 183.736009 542.522108 
L 185.854787 568.98949 
L 187.973565 542.743639 
L 190.092344 570.571039 
L 192.211122 568.616043 
L 194.3299 562.031203 
L 196.448678 560.648472 
L 198.567456 560.010578 
L 200.686234 565.086825 
L 202.805012 571.785975 
L 204.923791 564.213591 
L 207.042569 528.718336 
L 209.161347 607.391116 
L 211.280125 606.691889 
L 213.398903 585.250638 
L 215.517681 557.501774 
L 217.636459 597.608868 
L 219.755237 604.37834 
L 221.874016 544.441259 
L 223.992794 570.39551 
L 226.111572 602.21083 
L 228.23035 611.35538 
L 230.349128 593.048626 
L 232.467906 593.513063 
L 234.586684 602.423626 
L 236.705462 570.898835 
L 238.824241 612.144894 
L 240.943019 574.286649 
L 243.061797 565.259874 
L 245.180575 591.058068 
L 247.299353 595.742271 
L 249.418131 615.873185 
L 251.536909 585.488359 
L 253.655687 616.616541 
L 255.774466 578.303285 
L 257.893244 581.064095 
L 260.012022 596.854593 
L 262.1308 596.994475 
L 264.249578 612.214934 
L 266.368356 589.229696 
L 268.487134 597.326667 
L 270.605912 621.885507 
L 272.724691 606.78381 
L 274.843469 602.93022 
L 276.962247 613.087153 
L 279.081025 595.201736 
L 281.199803 590.672195 
L 283.318581 622.810633 
L 285.437359 603.257551 
L 287.556137 619.177955 
L 289.674916 608.057247 
L 291.793694 622.099289 
L 293.912472 631.206135 
L 298.150028 585.184727 
L 300.268806 579.750475 
L 302.387584 598.09251 
L 304.506363 636.939764 
L 306.625141 634.171795 
L 308.743919 590.327717 
L 310.862697 598.99584 
L 312.981475 611.713441 
L 315.100253 619.308524 
L 317.219031 599.452978 
L 319.337809 611.376543 
L 321.456588 589.673055 
L 323.575366 582.362837 
L 325.694144 621.856919 
L 327.812922 619.127796 
L 329.9317 601.077783 
L 332.050478 623.229561 
L 334.169256 628.328493 
L 336.288034 616.447113 
L 338.406813 610.502393 
L 340.525591 611.122915 
L 342.644369 571.563373 
L 344.763147 587.716271 
L 346.881925 620.112141 
L 349.000703 616.867562 
L 351.119481 617.996143 
L 353.238259 623.188419 
L 355.357038 614.124448 
L 357.475816 619.552387 
L 359.594594 618.928948 
L 361.713372 634.794861 
L 363.83215 636.767567 
L 365.950928 633.5704 
L 370.188484 635.710526 
L 372.307263 620.211459 
L 374.426041 626.696883 
L 376.544819 634.266316 
L 378.663597 621.877123 
L 380.782375 622.944443 
L 382.901153 631.086267 
L 385.019931 645.663012 
L 387.138709 643.804841 
L 389.257488 634.450425 
L 391.376266 624.517623 
L 393.495044 624.619026 
L 395.613822 646.571238 
L 397.7326 658.69458 
L 399.851378 627.770655 
L 401.970156 643.944624 
L 404.088935 664.527273 
L 406.207713 650.968569 
L 408.326491 628.775163 
L 410.445269 658.833306 
L 412.564047 628.308091 
L 414.682825 634.774269 
L 416.801603 646.676579 
L 418.920381 646.538127 
L 421.03916 639.065026 
L 423.157938 649.248462 
L 425.276716 600.04194 
L 427.395494 649.66808 
L 429.514272 646.925318 
L 431.63305 635.020323 
L 433.751828 645.959416 
L 435.870606 648.485895 
L 437.989385 648.171322 
L 440.108163 660.43375 
L 442.226941 646.678312 
L 444.345719 647.343358 
L 446.464497 642.966027 
L 448.583275 629.179141 
L 450.702053 609.870402 
L 452.820831 643.643021 
L 454.93961 653.924176 
L 457.058388 651.30205 
L 459.177166 641.868493 
L 461.295944 647.491926 
L 463.414722 613.188486 
L 465.5335 651.881839 
L 467.652278 651.026463 
L 469.771056 654.848739 
L 471.889835 656.722022 
L 474.008613 639.423452 
L 476.127391 632.715348 
L 478.246169 643.586317 
L 480.364947 648.8361 
L 482.483725 612.149558 
L 486.721282 633.844119 
L 488.84006 633.399161 
L 490.958838 637.245481 
L 493.077616 655.758085 
L 495.196394 621.411164 
L 497.315172 615.876848 
L 499.43395 656.783903 
L 503.671507 649.329759 
L 505.790285 641.749132 
L 507.909063 646.751677 
L 510.027841 638.921057 
L 510.027841 638.921057 
" clip-path="url(#pc90fb337c7)" style="fill: none; stroke: #ff7f0e; stroke-width: 1.5; stroke-linecap: square"/>
   </g>
   <g id="patch_15">
    <path d="M 60.635 678.04 
L 60.635 380.76 
" style="fill: none; stroke: #000000; stroke-width: 0.8; stroke-linejoin: miter; stroke-linecap: square"/>
   </g>
   <g id="patch_16">
    <path d="M 531.4275 678.04 
L 531.4275 380.76 
" style="fill: none; stroke: #000000; stroke-width: 0.8; stroke-linejoin: miter; stroke-linecap: square"/>
   </g>
   <g id="patch_17">
    <path d="M 60.635 678.04 
L 531.4275 678.04 
" style="fill: none; stroke: #000000; stroke-width: 0.8; stroke-linejoin: miter; stroke-linecap: square"/>
   </g>
   <g id="patch_18">
    <path d="M 60.635 380.76 
L 531.4275 380.76 
" style="fill: none; stroke: #000000; stroke-width: 0.8; stroke-linejoin: miter; stroke-linecap: square"/>
   </g>
   <g id="text_62">
    <!-- Training and Validation MAE (Skip first 50) -->
    <g transform="translate(170.129687 374.76) scale(0.12 -0.12)">
     <use xlink:href="#DejaVuSans-54"/>
     <use xlink:href="#DejaVuSans-72" x="46.333984"/>
     <use xlink:href="#DejaVuSans-61" x="87.447266"/>
     <use xlink:href="#DejaVuSans-69" x="148.726562"/>
     <use xlink:href="#DejaVuSans-6e" x="176.509766"/>
     <use xlink:href="#DejaVuSans-69" x="239.888672"/>
     <use xlink:href="#DejaVuSans-6e" x="267.671875"/>
     <use xlink:href="#DejaVuSans-67" x="331.050781"/>
     <use xlink:href="#DejaVuSans-20" x="394.527344"/>
     <use xlink:href="#DejaVuSans-61" x="426.314453"/>
     <use xlink:href="#DejaVuSans-6e" x="487.59375"/>
     <use xlink:href="#DejaVuSans-64" x="550.972656"/>
     <use xlink:href="#DejaVuSans-20" x="614.449219"/>
     <use xlink:href="#DejaVuSans-56" x="646.236328"/>
     <use xlink:href="#DejaVuSans-61" x="706.894531"/>
     <use xlink:href="#DejaVuSans-6c" x="768.173828"/>
     <use xlink:href="#DejaVuSans-69" x="795.957031"/>
     <use xlink:href="#DejaVuSans-64" x="823.740234"/>
     <use xlink:href="#DejaVuSans-61" x="887.216797"/>
     <use xlink:href="#DejaVuSans-74" x="948.496094"/>
     <use xlink:href="#DejaVuSans-69" x="987.705078"/>
     <use xlink:href="#DejaVuSans-6f" x="1015.488281"/>
     <use xlink:href="#DejaVuSans-6e" x="1076.669922"/>
     <use xlink:href="#DejaVuSans-20" x="1140.048828"/>
     <use xlink:href="#DejaVuSans-4d" x="1171.835938"/>
     <use xlink:href="#DejaVuSans-41" x="1258.115234"/>
     <use xlink:href="#DejaVuSans-45" x="1326.523438"/>
     <use xlink:href="#DejaVuSans-20" x="1389.707031"/>
     <use xlink:href="#DejaVuSans-28" x="1421.494141"/>
     <use xlink:href="#DejaVuSans-53" x="1460.507812"/>
     <use xlink:href="#DejaVuSans-6b" x="1523.984375"/>
     <use xlink:href="#DejaVuSans-69" x="1581.894531"/>
     <use xlink:href="#DejaVuSans-70" x="1609.677734"/>
     <use xlink:href="#DejaVuSans-20" x="1673.154297"/>
     <use xlink:href="#DejaVuSans-66" x="1704.941406"/>
     <use xlink:href="#DejaVuSans-69" x="1740.146484"/>
     <use xlink:href="#DejaVuSans-72" x="1767.929688"/>
     <use xlink:href="#DejaVuSans-73" x="1809.042969"/>
     <use xlink:href="#DejaVuSans-74" x="1861.142578"/>
     <use xlink:href="#DejaVuSans-20" x="1900.351562"/>
     <use xlink:href="#DejaVuSans-35" x="1932.138672"/>
     <use xlink:href="#DejaVuSans-30" x="1995.761719"/>
     <use xlink:href="#DejaVuSans-29" x="2059.384766"/>
    </g>
   </g>
   <g id="legend_3">
    <g id="patch_19">
     <path d="M 418.080625 418.11625 
L 524.4275 418.11625 
Q 526.4275 418.11625 526.4275 416.11625 
L 526.4275 387.76 
Q 526.4275 385.76 524.4275 385.76 
L 418.080625 385.76 
Q 416.080625 385.76 416.080625 387.76 
L 416.080625 416.11625 
Q 416.080625 418.11625 418.080625 418.11625 
z
" style="fill: #ffffff; opacity: 0.8; stroke: #cccccc; stroke-linejoin: miter"/>
    </g>
    <g id="line2d_60">
     <path d="M 420.080625 393.858438 
L 430.080625 393.858438 
L 440.080625 393.858438 
" style="fill: none; stroke: #1f77b4; stroke-width: 1.5; stroke-linecap: square"/>
    </g>
    <g id="text_63">
     <!-- Training MAE -->
     <g transform="translate(448.080625 397.358438) scale(0.1 -0.1)">
      <use xlink:href="#DejaVuSans-54"/>
      <use xlink:href="#DejaVuSans-72" x="46.333984"/>
      <use xlink:href="#DejaVuSans-61" x="87.447266"/>
      <use xlink:href="#DejaVuSans-69" x="148.726562"/>
      <use xlink:href="#DejaVuSans-6e" x="176.509766"/>
      <use xlink:href="#DejaVuSans-69" x="239.888672"/>
      <use xlink:href="#DejaVuSans-6e" x="267.671875"/>
      <use xlink:href="#DejaVuSans-67" x="331.050781"/>
      <use xlink:href="#DejaVuSans-20" x="394.527344"/>
      <use xlink:href="#DejaVuSans-4d" x="426.314453"/>
      <use xlink:href="#DejaVuSans-41" x="512.59375"/>
      <use xlink:href="#DejaVuSans-45" x="581.001953"/>
     </g>
    </g>
    <g id="line2d_61">
     <path d="M 420.080625 408.536563 
L 430.080625 408.536563 
L 440.080625 408.536563 
" style="fill: none; stroke: #ff7f0e; stroke-width: 1.5; stroke-linecap: square"/>
    </g>
    <g id="text_64">
     <!-- Validation MAE -->
     <g transform="translate(448.080625 412.036563) scale(0.1 -0.1)">
      <use xlink:href="#DejaVuSans-56"/>
      <use xlink:href="#DejaVuSans-61" x="60.658203"/>
      <use xlink:href="#DejaVuSans-6c" x="121.9375"/>
      <use xlink:href="#DejaVuSans-69" x="149.720703"/>
      <use xlink:href="#DejaVuSans-64" x="177.503906"/>
      <use xlink:href="#DejaVuSans-61" x="240.980469"/>
      <use xlink:href="#DejaVuSans-74" x="302.259766"/>
      <use xlink:href="#DejaVuSans-69" x="341.46875"/>
      <use xlink:href="#DejaVuSans-6f" x="369.251953"/>
      <use xlink:href="#DejaVuSans-6e" x="430.433594"/>
      <use xlink:href="#DejaVuSans-20" x="493.8125"/>
      <use xlink:href="#DejaVuSans-4d" x="525.599609"/>
      <use xlink:href="#DejaVuSans-41" x="611.878906"/>
      <use xlink:href="#DejaVuSans-45" x="680.287109"/>
     </g>
    </g>
   </g>
  </g>
  <g id="axes_4"/>
 </g>
 <defs>
  <clipPath id="p78658f2a4f">
   <rect x="60.635" y="26.16" width="470.7925" height="297.28"/>
  </clipPath>
  <clipPath id="p3c93a01770">
   <rect x="598.4075" y="26.16" width="470.7925" height="297.28"/>
  </clipPath>
  <clipPath id="pc90fb337c7">
   <rect x="60.635" y="380.76" width="470.7925" height="297.28"/>
  </clipPath>
 </defs>
</svg>
