<?xml version="1.0" encoding="utf-8" standalone="no"?>
<!DOCTYPE svg PUBLIC "-//W3C//DTD SVG 1.1//EN"
  "http://www.w3.org/Graphics/SVG/1.1/DTD/svg11.dtd">
<svg xmlns:xlink="http://www.w3.org/1999/xlink" width="1080pt" height="720pt" viewBox="0 0 1080 720" xmlns="http://www.w3.org/2000/svg" version="1.1">
 <metadata>
  <rdf:RDF xmlns:dc="http://purl.org/dc/elements/1.1/" xmlns:cc="http://creativecommons.org/ns#" xmlns:rdf="http://www.w3.org/1999/02/22-rdf-syntax-ns#">
   <cc:Work>
    <dc:type rdf:resource="http://purl.org/dc/dcmitype/StillImage"/>
    <dc:date>2024-04-13T12:15:25.782025</dc:date>
    <dc:format>image/svg+xml</dc:format>
    <dc:creator>
     <cc:Agent>
      <dc:title>Matplotlib v3.8.3, https://matplotlib.org/</dc:title>
     </cc:Agent>
    </dc:creator>
   </cc:Work>
  </rdf:RDF>
 </metadata>
 <defs>
  <style type="text/css">*{stroke-linejoin: round; stroke-linecap: butt}</style>
 </defs>
 <g id="figure_1">
  <g id="patch_1">
   <path d="M 0 720 
L 1080 720 
L 1080 0 
L 0 0 
z
" style="fill: #ffffff"/>
  </g>
  <g id="axes_1">
   <g id="patch_2">
    <path d="M 54.245 323.44 
L 528.2325 323.44 
L 528.2325 26.16 
L 54.245 26.16 
z
" style="fill: #ffffff"/>
   </g>
   <g id="matplotlib.axis_1">
    <g id="xtick_1">
     <g id="line2d_1">
      <defs>
       <path id="m6981da2436" d="M 0 0 
L 0 3.5 
" style="stroke: #000000; stroke-width: 0.8"/>
      </defs>
      <g>
       <use xlink:href="#m6981da2436" x="73.591429" y="323.44" style="stroke: #000000; stroke-width: 0.8"/>
      </g>
     </g>
     <g id="text_1">
      <!-- 0 -->
      <g transform="translate(70.410179 338.038438) scale(0.1 -0.1)">
       <defs>
        <path id="DejaVuSans-30" d="M 2034 4250 
Q 1547 4250 1301 3770 
Q 1056 3291 1056 2328 
Q 1056 1369 1301 889 
Q 1547 409 2034 409 
Q 2525 409 2770 889 
Q 3016 1369 3016 2328 
Q 3016 3291 2770 3770 
Q 2525 4250 2034 4250 
z
M 2034 4750 
Q 2819 4750 3233 4129 
Q 3647 3509 3647 2328 
Q 3647 1150 3233 529 
Q 2819 -91 2034 -91 
Q 1250 -91 836 529 
Q 422 1150 422 2328 
Q 422 3509 836 4129 
Q 1250 4750 2034 4750 
z
" transform="scale(0.015625)"/>
       </defs>
       <use xlink:href="#DejaVuSans-30"/>
      </g>
     </g>
    </g>
    <g id="xtick_2">
     <g id="line2d_2">
      <g>
       <use xlink:href="#m6981da2436" x="128.552873" y="323.44" style="stroke: #000000; stroke-width: 0.8"/>
      </g>
     </g>
     <g id="text_2">
      <!-- 25 -->
      <g transform="translate(122.190373 338.038438) scale(0.1 -0.1)">
       <defs>
        <path id="DejaVuSans-32" d="M 1228 531 
L 3431 531 
L 3431 0 
L 469 0 
L 469 531 
Q 828 903 1448 1529 
Q 2069 2156 2228 2338 
Q 2531 2678 2651 2914 
Q 2772 3150 2772 3378 
Q 2772 3750 2511 3984 
Q 2250 4219 1831 4219 
Q 1534 4219 1204 4116 
Q 875 4013 500 3803 
L 500 4441 
Q 881 4594 1212 4672 
Q 1544 4750 1819 4750 
Q 2544 4750 2975 4387 
Q 3406 4025 3406 3419 
Q 3406 3131 3298 2873 
Q 3191 2616 2906 2266 
Q 2828 2175 2409 1742 
Q 1991 1309 1228 531 
z
" transform="scale(0.015625)"/>
        <path id="DejaVuSans-35" d="M 691 4666 
L 3169 4666 
L 3169 4134 
L 1269 4134 
L 1269 2991 
Q 1406 3038 1543 3061 
Q 1681 3084 1819 3084 
Q 2600 3084 3056 2656 
Q 3513 2228 3513 1497 
Q 3513 744 3044 326 
Q 2575 -91 1722 -91 
Q 1428 -91 1123 -41 
Q 819 9 494 109 
L 494 744 
Q 775 591 1075 516 
Q 1375 441 1709 441 
Q 2250 441 2565 725 
Q 2881 1009 2881 1497 
Q 2881 1984 2565 2268 
Q 2250 2553 1709 2553 
Q 1456 2553 1204 2497 
Q 953 2441 691 2322 
L 691 4666 
z
" transform="scale(0.015625)"/>
       </defs>
       <use xlink:href="#DejaVuSans-32"/>
       <use xlink:href="#DejaVuSans-35" x="63.623047"/>
      </g>
     </g>
    </g>
    <g id="xtick_3">
     <g id="line2d_3">
      <g>
       <use xlink:href="#m6981da2436" x="183.514318" y="323.44" style="stroke: #000000; stroke-width: 0.8"/>
      </g>
     </g>
     <g id="text_3">
      <!-- 50 -->
      <g transform="translate(177.151818 338.038438) scale(0.1 -0.1)">
       <use xlink:href="#DejaVuSans-35"/>
       <use xlink:href="#DejaVuSans-30" x="63.623047"/>
      </g>
     </g>
    </g>
    <g id="xtick_4">
     <g id="line2d_4">
      <g>
       <use xlink:href="#m6981da2436" x="238.475763" y="323.44" style="stroke: #000000; stroke-width: 0.8"/>
      </g>
     </g>
     <g id="text_4">
      <!-- 75 -->
      <g transform="translate(232.113263 338.038438) scale(0.1 -0.1)">
       <defs>
        <path id="DejaVuSans-37" d="M 525 4666 
L 3525 4666 
L 3525 4397 
L 1831 0 
L 1172 0 
L 2766 4134 
L 525 4134 
L 525 4666 
z
" transform="scale(0.015625)"/>
       </defs>
       <use xlink:href="#DejaVuSans-37"/>
       <use xlink:href="#DejaVuSans-35" x="63.623047"/>
      </g>
     </g>
    </g>
    <g id="xtick_5">
     <g id="line2d_5">
      <g>
       <use xlink:href="#m6981da2436" x="293.437208" y="323.44" style="stroke: #000000; stroke-width: 0.8"/>
      </g>
     </g>
     <g id="text_5">
      <!-- 100 -->
      <g transform="translate(283.893458 338.038438) scale(0.1 -0.1)">
       <defs>
        <path id="DejaVuSans-31" d="M 794 531 
L 1825 531 
L 1825 4091 
L 703 3866 
L 703 4441 
L 1819 4666 
L 2450 4666 
L 2450 531 
L 3481 531 
L 3481 0 
L 794 0 
L 794 531 
z
" transform="scale(0.015625)"/>
       </defs>
       <use xlink:href="#DejaVuSans-31"/>
       <use xlink:href="#DejaVuSans-30" x="63.623047"/>
       <use xlink:href="#DejaVuSans-30" x="127.246094"/>
      </g>
     </g>
    </g>
    <g id="xtick_6">
     <g id="line2d_6">
      <g>
       <use xlink:href="#m6981da2436" x="348.398653" y="323.44" style="stroke: #000000; stroke-width: 0.8"/>
      </g>
     </g>
     <g id="text_6">
      <!-- 125 -->
      <g transform="translate(338.854903 338.038438) scale(0.1 -0.1)">
       <use xlink:href="#DejaVuSans-31"/>
       <use xlink:href="#DejaVuSans-32" x="63.623047"/>
       <use xlink:href="#DejaVuSans-35" x="127.246094"/>
      </g>
     </g>
    </g>
    <g id="xtick_7">
     <g id="line2d_7">
      <g>
       <use xlink:href="#m6981da2436" x="403.360097" y="323.44" style="stroke: #000000; stroke-width: 0.8"/>
      </g>
     </g>
     <g id="text_7">
      <!-- 150 -->
      <g transform="translate(393.816347 338.038438) scale(0.1 -0.1)">
       <use xlink:href="#DejaVuSans-31"/>
       <use xlink:href="#DejaVuSans-35" x="63.623047"/>
       <use xlink:href="#DejaVuSans-30" x="127.246094"/>
      </g>
     </g>
    </g>
    <g id="xtick_8">
     <g id="line2d_8">
      <g>
       <use xlink:href="#m6981da2436" x="458.321542" y="323.44" style="stroke: #000000; stroke-width: 0.8"/>
      </g>
     </g>
     <g id="text_8">
      <!-- 175 -->
      <g transform="translate(448.777792 338.038438) scale(0.1 -0.1)">
       <use xlink:href="#DejaVuSans-31"/>
       <use xlink:href="#DejaVuSans-37" x="63.623047"/>
       <use xlink:href="#DejaVuSans-35" x="127.246094"/>
      </g>
     </g>
    </g>
    <g id="xtick_9">
     <g id="line2d_9">
      <g>
       <use xlink:href="#m6981da2436" x="513.282987" y="323.44" style="stroke: #000000; stroke-width: 0.8"/>
      </g>
     </g>
     <g id="text_9">
      <!-- 200 -->
      <g transform="translate(503.739237 338.038438) scale(0.1 -0.1)">
       <use xlink:href="#DejaVuSans-32"/>
       <use xlink:href="#DejaVuSans-30" x="63.623047"/>
       <use xlink:href="#DejaVuSans-30" x="127.246094"/>
      </g>
     </g>
    </g>
    <g id="text_10">
     <!-- Epochs -->
     <g transform="translate(273.323125 351.716563) scale(0.1 -0.1)">
      <defs>
       <path id="DejaVuSans-45" d="M 628 4666 
L 3578 4666 
L 3578 4134 
L 1259 4134 
L 1259 2753 
L 3481 2753 
L 3481 2222 
L 1259 2222 
L 1259 531 
L 3634 531 
L 3634 0 
L 628 0 
L 628 4666 
z
" transform="scale(0.015625)"/>
       <path id="DejaVuSans-70" d="M 1159 525 
L 1159 -1331 
L 581 -1331 
L 581 3500 
L 1159 3500 
L 1159 2969 
Q 1341 3281 1617 3432 
Q 1894 3584 2278 3584 
Q 2916 3584 3314 3078 
Q 3713 2572 3713 1747 
Q 3713 922 3314 415 
Q 2916 -91 2278 -91 
Q 1894 -91 1617 61 
Q 1341 213 1159 525 
z
M 3116 1747 
Q 3116 2381 2855 2742 
Q 2594 3103 2138 3103 
Q 1681 3103 1420 2742 
Q 1159 2381 1159 1747 
Q 1159 1113 1420 752 
Q 1681 391 2138 391 
Q 2594 391 2855 752 
Q 3116 1113 3116 1747 
z
" transform="scale(0.015625)"/>
       <path id="DejaVuSans-6f" d="M 1959 3097 
Q 1497 3097 1228 2736 
Q 959 2375 959 1747 
Q 959 1119 1226 758 
Q 1494 397 1959 397 
Q 2419 397 2687 759 
Q 2956 1122 2956 1747 
Q 2956 2369 2687 2733 
Q 2419 3097 1959 3097 
z
M 1959 3584 
Q 2709 3584 3137 3096 
Q 3566 2609 3566 1747 
Q 3566 888 3137 398 
Q 2709 -91 1959 -91 
Q 1206 -91 779 398 
Q 353 888 353 1747 
Q 353 2609 779 3096 
Q 1206 3584 1959 3584 
z
" transform="scale(0.015625)"/>
       <path id="DejaVuSans-63" d="M 3122 3366 
L 3122 2828 
Q 2878 2963 2633 3030 
Q 2388 3097 2138 3097 
Q 1578 3097 1268 2742 
Q 959 2388 959 1747 
Q 959 1106 1268 751 
Q 1578 397 2138 397 
Q 2388 397 2633 464 
Q 2878 531 3122 666 
L 3122 134 
Q 2881 22 2623 -34 
Q 2366 -91 2075 -91 
Q 1284 -91 818 406 
Q 353 903 353 1747 
Q 353 2603 823 3093 
Q 1294 3584 2113 3584 
Q 2378 3584 2631 3529 
Q 2884 3475 3122 3366 
z
" transform="scale(0.015625)"/>
       <path id="DejaVuSans-68" d="M 3513 2113 
L 3513 0 
L 2938 0 
L 2938 2094 
Q 2938 2591 2744 2837 
Q 2550 3084 2163 3084 
Q 1697 3084 1428 2787 
Q 1159 2491 1159 1978 
L 1159 0 
L 581 0 
L 581 4863 
L 1159 4863 
L 1159 2956 
Q 1366 3272 1645 3428 
Q 1925 3584 2291 3584 
Q 2894 3584 3203 3211 
Q 3513 2838 3513 2113 
z
" transform="scale(0.015625)"/>
       <path id="DejaVuSans-73" d="M 2834 3397 
L 2834 2853 
Q 2591 2978 2328 3040 
Q 2066 3103 1784 3103 
Q 1356 3103 1142 2972 
Q 928 2841 928 2578 
Q 928 2378 1081 2264 
Q 1234 2150 1697 2047 
L 1894 2003 
Q 2506 1872 2764 1633 
Q 3022 1394 3022 966 
Q 3022 478 2636 193 
Q 2250 -91 1575 -91 
Q 1294 -91 989 -36 
Q 684 19 347 128 
L 347 722 
Q 666 556 975 473 
Q 1284 391 1588 391 
Q 1994 391 2212 530 
Q 2431 669 2431 922 
Q 2431 1156 2273 1281 
Q 2116 1406 1581 1522 
L 1381 1569 
Q 847 1681 609 1914 
Q 372 2147 372 2553 
Q 372 3047 722 3315 
Q 1072 3584 1716 3584 
Q 2034 3584 2315 3537 
Q 2597 3491 2834 3397 
z
" transform="scale(0.015625)"/>
      </defs>
      <use xlink:href="#DejaVuSans-45"/>
      <use xlink:href="#DejaVuSans-70" x="63.183594"/>
      <use xlink:href="#DejaVuSans-6f" x="126.660156"/>
      <use xlink:href="#DejaVuSans-63" x="187.841797"/>
      <use xlink:href="#DejaVuSans-68" x="242.822266"/>
      <use xlink:href="#DejaVuSans-73" x="306.201172"/>
     </g>
    </g>
   </g>
   <g id="matplotlib.axis_2">
    <g id="ytick_1">
     <g id="line2d_10">
      <defs>
       <path id="mffedd75a21" d="M 0 0 
L -3.5 0 
" style="stroke: #000000; stroke-width: 0.8"/>
      </defs>
      <g>
       <use xlink:href="#mffedd75a21" x="54.245" y="311.223188" style="stroke: #000000; stroke-width: 0.8"/>
      </g>
     </g>
     <g id="text_11">
      <!-- 0.00 -->
      <g transform="translate(24.979375 315.022407) scale(0.1 -0.1)">
       <defs>
        <path id="DejaVuSans-2e" d="M 684 794 
L 1344 794 
L 1344 0 
L 684 0 
L 684 794 
z
" transform="scale(0.015625)"/>
       </defs>
       <use xlink:href="#DejaVuSans-30"/>
       <use xlink:href="#DejaVuSans-2e" x="63.623047"/>
       <use xlink:href="#DejaVuSans-30" x="95.410156"/>
       <use xlink:href="#DejaVuSans-30" x="159.033203"/>
      </g>
     </g>
    </g>
    <g id="ytick_2">
     <g id="line2d_11">
      <g>
       <use xlink:href="#mffedd75a21" x="54.245" y="256.584005" style="stroke: #000000; stroke-width: 0.8"/>
      </g>
     </g>
     <g id="text_12">
      <!-- 0.05 -->
      <g transform="translate(24.979375 260.383224) scale(0.1 -0.1)">
       <use xlink:href="#DejaVuSans-30"/>
       <use xlink:href="#DejaVuSans-2e" x="63.623047"/>
       <use xlink:href="#DejaVuSans-30" x="95.410156"/>
       <use xlink:href="#DejaVuSans-35" x="159.033203"/>
      </g>
     </g>
    </g>
    <g id="ytick_3">
     <g id="line2d_12">
      <g>
       <use xlink:href="#mffedd75a21" x="54.245" y="201.944821" style="stroke: #000000; stroke-width: 0.8"/>
      </g>
     </g>
     <g id="text_13">
      <!-- 0.10 -->
      <g transform="translate(24.979375 205.74404) scale(0.1 -0.1)">
       <use xlink:href="#DejaVuSans-30"/>
       <use xlink:href="#DejaVuSans-2e" x="63.623047"/>
       <use xlink:href="#DejaVuSans-31" x="95.410156"/>
       <use xlink:href="#DejaVuSans-30" x="159.033203"/>
      </g>
     </g>
    </g>
    <g id="ytick_4">
     <g id="line2d_13">
      <g>
       <use xlink:href="#mffedd75a21" x="54.245" y="147.305638" style="stroke: #000000; stroke-width: 0.8"/>
      </g>
     </g>
     <g id="text_14">
      <!-- 0.15 -->
      <g transform="translate(24.979375 151.104857) scale(0.1 -0.1)">
       <use xlink:href="#DejaVuSans-30"/>
       <use xlink:href="#DejaVuSans-2e" x="63.623047"/>
       <use xlink:href="#DejaVuSans-31" x="95.410156"/>
       <use xlink:href="#DejaVuSans-35" x="159.033203"/>
      </g>
     </g>
    </g>
    <g id="ytick_5">
     <g id="line2d_14">
      <g>
       <use xlink:href="#mffedd75a21" x="54.245" y="92.666455" style="stroke: #000000; stroke-width: 0.8"/>
      </g>
     </g>
     <g id="text_15">
      <!-- 0.20 -->
      <g transform="translate(24.979375 96.465673) scale(0.1 -0.1)">
       <use xlink:href="#DejaVuSans-30"/>
       <use xlink:href="#DejaVuSans-2e" x="63.623047"/>
       <use xlink:href="#DejaVuSans-32" x="95.410156"/>
       <use xlink:href="#DejaVuSans-30" x="159.033203"/>
      </g>
     </g>
    </g>
    <g id="ytick_6">
     <g id="line2d_15">
      <g>
       <use xlink:href="#mffedd75a21" x="54.245" y="38.027271" style="stroke: #000000; stroke-width: 0.8"/>
      </g>
     </g>
     <g id="text_16">
      <!-- 0.25 -->
      <g transform="translate(24.979375 41.82649) scale(0.1 -0.1)">
       <use xlink:href="#DejaVuSans-30"/>
       <use xlink:href="#DejaVuSans-2e" x="63.623047"/>
       <use xlink:href="#DejaVuSans-32" x="95.410156"/>
       <use xlink:href="#DejaVuSans-35" x="159.033203"/>
      </g>
     </g>
    </g>
    <g id="text_17">
     <!-- Loss -->
     <g transform="translate(18.899687 185.767188) rotate(-90) scale(0.1 -0.1)">
      <defs>
       <path id="DejaVuSans-4c" d="M 628 4666 
L 1259 4666 
L 1259 531 
L 3531 531 
L 3531 0 
L 628 0 
L 628 4666 
z
" transform="scale(0.015625)"/>
      </defs>
      <use xlink:href="#DejaVuSans-4c"/>
      <use xlink:href="#DejaVuSans-6f" x="53.962891"/>
      <use xlink:href="#DejaVuSans-73" x="115.144531"/>
      <use xlink:href="#DejaVuSans-73" x="167.244141"/>
     </g>
    </g>
   </g>
   <g id="line2d_16">
    <path d="M 75.789886 39.672727 
L 77.988344 222.208052 
L 80.186802 233.735772 
L 82.38526 238.44486 
L 84.583718 244.138728 
L 86.782175 249.416278 
L 88.980633 251.421882 
L 91.179091 257.098424 
L 93.377549 260.250741 
L 95.576006 266.94457 
L 97.774464 267.797577 
L 99.972922 273.705951 
L 102.17138 277.361728 
L 104.369838 279.798643 
L 106.568295 281.678528 
L 108.766753 283.975857 
L 110.965211 282.166247 
L 113.163669 285.9365 
L 115.362127 286.881771 
L 117.560584 289.124248 
L 119.759042 291.935427 
L 121.9575 287.960545 
L 124.155958 291.791369 
L 126.354416 291.321998 
L 128.552873 294.593483 
L 130.751331 292.524879 
L 132.949789 294.468657 
L 135.148247 296.113416 
L 137.346705 297.470349 
L 139.545162 295.307955 
L 141.74362 297.70264 
L 143.942078 295.919367 
L 146.140536 297.736862 
L 148.338994 298.395185 
L 150.537451 298.377758 
L 152.735909 299.244381 
L 154.934367 296.620409 
L 157.132825 297.694061 
L 159.331282 300.125227 
L 163.728198 299.150889 
L 168.125114 300.70238 
L 170.323571 299.781702 
L 172.522029 301.440584 
L 174.720487 301.954453 
L 176.918945 300.340157 
L 179.117403 299.899373 
L 181.31586 301.590324 
L 183.514318 302.068371 
L 185.712776 302.176866 
L 187.911234 301.03807 
L 190.109692 301.291935 
L 192.308149 303.127348 
L 196.705065 301.526563 
L 198.903523 301.844139 
L 201.101981 303.623079 
L 203.300438 300.108516 
L 205.498896 300.895772 
L 207.697354 303.618288 
L 209.895812 304.836378 
L 212.094269 303.026458 
L 214.292727 303.36529 
L 216.491185 301.577393 
L 218.689643 304.357315 
L 220.888101 304.266169 
L 223.086558 303.883888 
L 225.285016 304.643509 
L 227.483474 303.590373 
L 229.681932 304.959486 
L 231.88039 302.946454 
L 234.078847 305.621403 
L 236.277305 305.145334 
L 238.475763 306.089269 
L 240.674221 303.761287 
L 242.872679 305.288581 
L 245.071136 300.767163 
L 247.269594 303.761493 
L 249.468052 305.964531 
L 251.66651 305.462939 
L 253.864968 305.621829 
L 256.063425 305.427112 
L 258.261883 303.363249 
L 260.460341 306.4704 
L 262.658799 304.756658 
L 264.857256 307.497777 
L 267.055714 306.006024 
L 269.254172 304.309826 
L 271.45263 305.962328 
L 273.651088 304.998063 
L 275.849545 305.969545 
L 278.048003 304.79458 
L 280.246461 305.49336 
L 282.444919 306.892756 
L 284.643377 307.008811 
L 286.841834 305.78476 
L 289.040292 306.929578 
L 291.23875 306.865393 
L 293.437208 305.663259 
L 295.635666 305.944098 
L 297.834123 305.491202 
L 300.032581 305.839773 
L 302.231039 306.53523 
L 306.627955 305.499583 
L 308.826412 305.819536 
L 311.02487 306.450348 
L 313.223328 303.83588 
L 317.620244 306.610375 
L 319.818701 305.45073 
L 322.017159 307.875915 
L 324.215617 307.015577 
L 328.612532 307.790608 
L 330.81099 307.62647 
L 333.009448 308.120788 
L 335.207906 308.396067 
L 337.406364 307.227282 
L 339.604821 305.848025 
L 344.001737 305.317563 
L 346.200195 307.97228 
L 348.398653 306.791014 
L 350.59711 308.664181 
L 352.795568 308.691377 
L 354.994026 308.388896 
L 357.192484 307.355063 
L 359.390942 307.498577 
L 361.589399 308.444831 
L 363.787857 307.840903 
L 365.986315 308.077248 
L 368.184773 306.602609 
L 370.383231 308.402632 
L 372.581688 309.006251 
L 374.780146 307.461359 
L 376.978604 308.875053 
L 379.177062 308.500783 
L 381.375519 307.311879 
L 383.573977 305.960624 
L 385.772435 307.46359 
L 387.970893 306.198198 
L 390.169351 308.608793 
L 392.367808 309.421359 
L 394.566266 309.645328 
L 396.764724 309.565428 
L 398.963182 308.851416 
L 401.16164 309.112542 
L 403.360097 304.687662 
L 405.558555 304.519297 
L 407.757013 307.686642 
L 409.955471 307.098285 
L 412.153929 308.903876 
L 414.352386 308.589371 
L 416.550844 307.095478 
L 418.749302 308.888204 
L 420.94776 308.534768 
L 423.146218 309.675498 
L 425.344675 307.348823 
L 427.543133 308.368444 
L 429.741591 308.934885 
L 431.940049 308.486368 
L 434.138506 309.081402 
L 436.336964 308.322916 
L 438.535422 308.744906 
L 440.73388 308.260176 
L 445.130795 303.862725 
L 447.329253 307.313235 
L 449.527711 308.47842 
L 451.726169 307.034451 
L 453.924627 308.734204 
L 456.123084 308.724269 
L 458.321542 309.850033 
L 460.52 308.622521 
L 462.718458 306.843812 
L 464.916916 306.336934 
L 467.115373 306.250527 
L 469.313831 306.370996 
L 471.512289 305.453327 
L 473.710747 307.40291 
L 475.909205 308.829614 
L 478.107662 307.071361 
L 482.504578 308.352415 
L 484.703036 307.466478 
L 486.901494 308.156711 
L 489.099951 309.462469 
L 491.298409 309.697017 
L 493.496867 308.591793 
L 495.695325 308.929131 
L 497.893782 309.656815 
L 500.09224 308.197717 
L 502.290698 309.927273 
L 504.489156 309.793058 
L 506.687614 309.44409 
L 506.687614 309.44409 
" clip-path="url(#p92f96d3751)" style="fill: none; stroke: #1f77b4; stroke-width: 1.5; stroke-linecap: square"/>
   </g>
   <g id="line2d_17">
    <path d="M 75.789886 216.259372 
L 77.988344 220.416971 
L 80.186802 234.118896 
L 82.38526 240.647513 
L 84.583718 243.772551 
L 86.782175 250.866724 
L 88.980633 248.150607 
L 91.179091 258.190522 
L 93.377549 262.313126 
L 95.576006 266.946365 
L 97.774464 268.421542 
L 99.972922 270.875999 
L 102.17138 266.866811 
L 104.369838 272.720459 
L 106.568295 275.739026 
L 108.766753 272.973443 
L 110.965211 281.359145 
L 113.163669 269.084881 
L 115.362127 283.969488 
L 117.560584 286.785691 
L 119.759042 290.238466 
L 121.9575 282.533297 
L 124.155958 288.07207 
L 126.354416 286.45164 
L 128.552873 290.144057 
L 130.751331 293.499473 
L 132.949789 294.409787 
L 135.148247 290.293452 
L 137.346705 291.671961 
L 139.545162 295.594339 
L 141.74362 295.570633 
L 143.942078 293.636621 
L 146.140536 297.672172 
L 148.338994 296.599945 
L 150.537451 294.635274 
L 152.735909 293.181488 
L 154.934367 297.540265 
L 157.132825 297.84996 
L 159.331282 297.487189 
L 161.52974 299.077766 
L 163.728198 297.421724 
L 165.926656 295.506067 
L 168.125114 295.278457 
L 170.323571 298.371275 
L 174.720487 300.677501 
L 176.918945 299.542068 
L 179.117403 296.736949 
L 181.31586 298.957652 
L 185.712776 298.324605 
L 187.911234 298.977565 
L 190.109692 297.409884 
L 192.308149 300.470508 
L 194.506607 296.670589 
L 196.705065 297.844197 
L 198.903523 300.40077 
L 201.101981 301.021658 
L 203.300438 288.520496 
L 205.498896 299.156826 
L 207.697354 303.411851 
L 209.895812 300.717796 
L 212.094269 302.360607 
L 214.292727 300.103067 
L 216.491185 297.665563 
L 218.689643 304.720042 
L 220.888101 300.375951 
L 223.086558 302.115973 
L 225.285016 301.679703 
L 227.483474 301.974007 
L 231.88039 305.039857 
L 234.078847 304.859907 
L 236.277305 304.30896 
L 238.475763 303.121388 
L 240.674221 299.16289 
L 242.872679 303.122618 
L 245.071136 301.873091 
L 247.269594 302.621747 
L 249.468052 305.11179 
L 251.66651 304.271319 
L 258.261883 303.731353 
L 260.460341 305.131678 
L 262.658799 305.079555 
L 264.857256 302.565364 
L 267.055714 302.37895 
L 271.45263 303.892118 
L 273.651088 305.502648 
L 275.849545 304.894207 
L 278.048003 301.239781 
L 280.246461 300.761911 
L 282.444919 305.727045 
L 284.643377 297.788322 
L 286.841834 303.712711 
L 289.040292 304.726951 
L 291.23875 302.398122 
L 293.437208 304.29073 
L 295.635666 303.411072 
L 297.834123 303.181327 
L 300.032581 304.865254 
L 302.231039 307.022175 
L 304.429497 299.372407 
L 308.826412 305.483069 
L 311.02487 305.454106 
L 313.223328 292.966496 
L 315.421786 304.630056 
L 317.620244 300.156067 
L 319.818701 304.427577 
L 322.017159 306.216792 
L 324.215617 307.292006 
L 326.414075 306.052718 
L 328.612532 302.555247 
L 330.81099 305.425132 
L 333.009448 307.571084 
L 335.207906 306.034585 
L 337.406364 300.817489 
L 339.604821 304.392325 
L 341.803279 300.900901 
L 344.001737 305.194097 
L 346.200195 307.498924 
L 348.398653 306.073653 
L 350.59711 307.635415 
L 352.795568 305.658162 
L 354.994026 307.613284 
L 357.192484 305.869949 
L 359.390942 308.417764 
L 361.589399 306.752392 
L 363.787857 306.424041 
L 365.986315 296.730272 
L 368.184773 307.888444 
L 370.383231 307.980848 
L 372.581688 308.202341 
L 374.780146 306.417539 
L 376.978604 308.026429 
L 379.177062 305.783369 
L 381.375519 307.541969 
L 383.573977 303.904665 
L 385.772435 303.424564 
L 387.970893 306.378769 
L 390.169351 308.273311 
L 392.367808 307.154414 
L 394.566266 308.605448 
L 396.764724 308.771938 
L 398.963182 307.313102 
L 401.16164 306.741004 
L 403.360097 303.522502 
L 405.558555 301.266887 
L 407.757013 307.740531 
L 409.955471 307.585037 
L 412.153929 308.410504 
L 414.352386 306.552193 
L 416.550844 307.482955 
L 418.749302 306.453803 
L 423.146218 308.582724 
L 425.344675 306.854567 
L 427.543133 308.46545 
L 429.741591 305.451897 
L 431.940049 305.140183 
L 434.138506 308.559592 
L 436.336964 306.711525 
L 438.535422 307.444543 
L 440.73388 306.624484 
L 442.932338 297.489317 
L 445.130795 303.706259 
L 447.329253 307.621985 
L 449.527711 306.957966 
L 451.726169 308.146037 
L 453.924627 305.820382 
L 456.123084 308.727909 
L 458.321542 307.685121 
L 460.52 308.315561 
L 462.718458 304.121459 
L 464.916916 307.33044 
L 467.115373 300.077032 
L 469.313831 307.31207 
L 471.512289 301.906152 
L 473.710747 305.272236 
L 475.909205 301.607011 
L 478.107662 306.579021 
L 480.30612 307.157686 
L 482.504578 302.06058 
L 484.703036 303.144112 
L 486.901494 307.720045 
L 489.099951 308.292796 
L 491.298409 303.084058 
L 493.496867 306.845002 
L 495.695325 308.678671 
L 497.893782 307.764675 
L 500.09224 308.477782 
L 502.290698 308.675172 
L 504.489156 308.721737 
L 506.687614 308.158243 
L 506.687614 308.158243 
" clip-path="url(#p92f96d3751)" style="fill: none; stroke: #ff7f0e; stroke-width: 1.5; stroke-linecap: square"/>
   </g>
   <g id="patch_3">
    <path d="M 54.245 323.44 
L 54.245 26.16 
" style="fill: none; stroke: #000000; stroke-width: 0.8; stroke-linejoin: miter; stroke-linecap: square"/>
   </g>
   <g id="patch_4">
    <path d="M 528.2325 323.44 
L 528.2325 26.16 
" style="fill: none; stroke: #000000; stroke-width: 0.8; stroke-linejoin: miter; stroke-linecap: square"/>
   </g>
   <g id="patch_5">
    <path d="M 54.245 323.44 
L 528.2325 323.44 
" style="fill: none; stroke: #000000; stroke-width: 0.8; stroke-linejoin: miter; stroke-linecap: square"/>
   </g>
   <g id="patch_6">
    <path d="M 54.245 26.16 
L 528.2325 26.16 
" style="fill: none; stroke: #000000; stroke-width: 0.8; stroke-linejoin: miter; stroke-linecap: square"/>
   </g>
   <g id="text_18">
    <!-- Training and Validation Loss -->
    <g transform="translate(207.769375 20.16) scale(0.12 -0.12)">
     <defs>
      <path id="DejaVuSans-54" d="M -19 4666 
L 3928 4666 
L 3928 4134 
L 2272 4134 
L 2272 0 
L 1638 0 
L 1638 4134 
L -19 4134 
L -19 4666 
z
" transform="scale(0.015625)"/>
      <path id="DejaVuSans-72" d="M 2631 2963 
Q 2534 3019 2420 3045 
Q 2306 3072 2169 3072 
Q 1681 3072 1420 2755 
Q 1159 2438 1159 1844 
L 1159 0 
L 581 0 
L 581 3500 
L 1159 3500 
L 1159 2956 
Q 1341 3275 1631 3429 
Q 1922 3584 2338 3584 
Q 2397 3584 2469 3576 
Q 2541 3569 2628 3553 
L 2631 2963 
z
" transform="scale(0.015625)"/>
      <path id="DejaVuSans-61" d="M 2194 1759 
Q 1497 1759 1228 1600 
Q 959 1441 959 1056 
Q 959 750 1161 570 
Q 1363 391 1709 391 
Q 2188 391 2477 730 
Q 2766 1069 2766 1631 
L 2766 1759 
L 2194 1759 
z
M 3341 1997 
L 3341 0 
L 2766 0 
L 2766 531 
Q 2569 213 2275 61 
Q 1981 -91 1556 -91 
Q 1019 -91 701 211 
Q 384 513 384 1019 
Q 384 1609 779 1909 
Q 1175 2209 1959 2209 
L 2766 2209 
L 2766 2266 
Q 2766 2663 2505 2880 
Q 2244 3097 1772 3097 
Q 1472 3097 1187 3025 
Q 903 2953 641 2809 
L 641 3341 
Q 956 3463 1253 3523 
Q 1550 3584 1831 3584 
Q 2591 3584 2966 3190 
Q 3341 2797 3341 1997 
z
" transform="scale(0.015625)"/>
      <path id="DejaVuSans-69" d="M 603 3500 
L 1178 3500 
L 1178 0 
L 603 0 
L 603 3500 
z
M 603 4863 
L 1178 4863 
L 1178 4134 
L 603 4134 
L 603 4863 
z
" transform="scale(0.015625)"/>
      <path id="DejaVuSans-6e" d="M 3513 2113 
L 3513 0 
L 2938 0 
L 2938 2094 
Q 2938 2591 2744 2837 
Q 2550 3084 2163 3084 
Q 1697 3084 1428 2787 
Q 1159 2491 1159 1978 
L 1159 0 
L 581 0 
L 581 3500 
L 1159 3500 
L 1159 2956 
Q 1366 3272 1645 3428 
Q 1925 3584 2291 3584 
Q 2894 3584 3203 3211 
Q 3513 2838 3513 2113 
z
" transform="scale(0.015625)"/>
      <path id="DejaVuSans-67" d="M 2906 1791 
Q 2906 2416 2648 2759 
Q 2391 3103 1925 3103 
Q 1463 3103 1205 2759 
Q 947 2416 947 1791 
Q 947 1169 1205 825 
Q 1463 481 1925 481 
Q 2391 481 2648 825 
Q 2906 1169 2906 1791 
z
M 3481 434 
Q 3481 -459 3084 -895 
Q 2688 -1331 1869 -1331 
Q 1566 -1331 1297 -1286 
Q 1028 -1241 775 -1147 
L 775 -588 
Q 1028 -725 1275 -790 
Q 1522 -856 1778 -856 
Q 2344 -856 2625 -561 
Q 2906 -266 2906 331 
L 2906 616 
Q 2728 306 2450 153 
Q 2172 0 1784 0 
Q 1141 0 747 490 
Q 353 981 353 1791 
Q 353 2603 747 3093 
Q 1141 3584 1784 3584 
Q 2172 3584 2450 3431 
Q 2728 3278 2906 2969 
L 2906 3500 
L 3481 3500 
L 3481 434 
z
" transform="scale(0.015625)"/>
      <path id="DejaVuSans-20" transform="scale(0.015625)"/>
      <path id="DejaVuSans-64" d="M 2906 2969 
L 2906 4863 
L 3481 4863 
L 3481 0 
L 2906 0 
L 2906 525 
Q 2725 213 2448 61 
Q 2172 -91 1784 -91 
Q 1150 -91 751 415 
Q 353 922 353 1747 
Q 353 2572 751 3078 
Q 1150 3584 1784 3584 
Q 2172 3584 2448 3432 
Q 2725 3281 2906 2969 
z
M 947 1747 
Q 947 1113 1208 752 
Q 1469 391 1925 391 
Q 2381 391 2643 752 
Q 2906 1113 2906 1747 
Q 2906 2381 2643 2742 
Q 2381 3103 1925 3103 
Q 1469 3103 1208 2742 
Q 947 2381 947 1747 
z
" transform="scale(0.015625)"/>
      <path id="DejaVuSans-56" d="M 1831 0 
L 50 4666 
L 709 4666 
L 2188 738 
L 3669 4666 
L 4325 4666 
L 2547 0 
L 1831 0 
z
" transform="scale(0.015625)"/>
      <path id="DejaVuSans-6c" d="M 603 4863 
L 1178 4863 
L 1178 0 
L 603 0 
L 603 4863 
z
" transform="scale(0.015625)"/>
      <path id="DejaVuSans-74" d="M 1172 4494 
L 1172 3500 
L 2356 3500 
L 2356 3053 
L 1172 3053 
L 1172 1153 
Q 1172 725 1289 603 
Q 1406 481 1766 481 
L 2356 481 
L 2356 0 
L 1766 0 
Q 1100 0 847 248 
Q 594 497 594 1153 
L 594 3053 
L 172 3053 
L 172 3500 
L 594 3500 
L 594 4494 
L 1172 4494 
z
" transform="scale(0.015625)"/>
     </defs>
     <use xlink:href="#DejaVuSans-54"/>
     <use xlink:href="#DejaVuSans-72" x="46.333984"/>
     <use xlink:href="#DejaVuSans-61" x="87.447266"/>
     <use xlink:href="#DejaVuSans-69" x="148.726562"/>
     <use xlink:href="#DejaVuSans-6e" x="176.509766"/>
     <use xlink:href="#DejaVuSans-69" x="239.888672"/>
     <use xlink:href="#DejaVuSans-6e" x="267.671875"/>
     <use xlink:href="#DejaVuSans-67" x="331.050781"/>
     <use xlink:href="#DejaVuSans-20" x="394.527344"/>
     <use xlink:href="#DejaVuSans-61" x="426.314453"/>
     <use xlink:href="#DejaVuSans-6e" x="487.59375"/>
     <use xlink:href="#DejaVuSans-64" x="550.972656"/>
     <use xlink:href="#DejaVuSans-20" x="614.449219"/>
     <use xlink:href="#DejaVuSans-56" x="646.236328"/>
     <use xlink:href="#DejaVuSans-61" x="706.894531"/>
     <use xlink:href="#DejaVuSans-6c" x="768.173828"/>
     <use xlink:href="#DejaVuSans-69" x="795.957031"/>
     <use xlink:href="#DejaVuSans-64" x="823.740234"/>
     <use xlink:href="#DejaVuSans-61" x="887.216797"/>
     <use xlink:href="#DejaVuSans-74" x="948.496094"/>
     <use xlink:href="#DejaVuSans-69" x="987.705078"/>
     <use xlink:href="#DejaVuSans-6f" x="1015.488281"/>
     <use xlink:href="#DejaVuSans-6e" x="1076.669922"/>
     <use xlink:href="#DejaVuSans-20" x="1140.048828"/>
     <use xlink:href="#DejaVuSans-4c" x="1171.835938"/>
     <use xlink:href="#DejaVuSans-6f" x="1225.798828"/>
     <use xlink:href="#DejaVuSans-73" x="1286.980469"/>
     <use xlink:href="#DejaVuSans-73" x="1339.080078"/>
    </g>
   </g>
   <g id="legend_1">
    <g id="patch_7">
     <path d="M 417.3575 63.51625 
L 521.2325 63.51625 
Q 523.2325 63.51625 523.2325 61.51625 
L 523.2325 33.16 
Q 523.2325 31.16 521.2325 31.16 
L 417.3575 31.16 
Q 415.3575 31.16 415.3575 33.16 
L 415.3575 61.51625 
Q 415.3575 63.51625 417.3575 63.51625 
z
" style="fill: #ffffff; opacity: 0.8; stroke: #cccccc; stroke-linejoin: miter"/>
    </g>
    <g id="line2d_18">
     <path d="M 419.3575 39.258438 
L 429.3575 39.258438 
L 439.3575 39.258438 
" style="fill: none; stroke: #1f77b4; stroke-width: 1.5; stroke-linecap: square"/>
    </g>
    <g id="text_19">
     <!-- Training loss -->
     <g transform="translate(447.3575 42.758438) scale(0.1 -0.1)">
      <use xlink:href="#DejaVuSans-54"/>
      <use xlink:href="#DejaVuSans-72" x="46.333984"/>
      <use xlink:href="#DejaVuSans-61" x="87.447266"/>
      <use xlink:href="#DejaVuSans-69" x="148.726562"/>
      <use xlink:href="#DejaVuSans-6e" x="176.509766"/>
      <use xlink:href="#DejaVuSans-69" x="239.888672"/>
      <use xlink:href="#DejaVuSans-6e" x="267.671875"/>
      <use xlink:href="#DejaVuSans-67" x="331.050781"/>
      <use xlink:href="#DejaVuSans-20" x="394.527344"/>
      <use xlink:href="#DejaVuSans-6c" x="426.314453"/>
      <use xlink:href="#DejaVuSans-6f" x="454.097656"/>
      <use xlink:href="#DejaVuSans-73" x="515.279297"/>
      <use xlink:href="#DejaVuSans-73" x="567.378906"/>
     </g>
    </g>
    <g id="line2d_19">
     <path d="M 419.3575 53.936563 
L 429.3575 53.936563 
L 439.3575 53.936563 
" style="fill: none; stroke: #ff7f0e; stroke-width: 1.5; stroke-linecap: square"/>
    </g>
    <g id="text_20">
     <!-- Validation loss -->
     <g transform="translate(447.3575 57.436563) scale(0.1 -0.1)">
      <use xlink:href="#DejaVuSans-56"/>
      <use xlink:href="#DejaVuSans-61" x="60.658203"/>
      <use xlink:href="#DejaVuSans-6c" x="121.9375"/>
      <use xlink:href="#DejaVuSans-69" x="149.720703"/>
      <use xlink:href="#DejaVuSans-64" x="177.503906"/>
      <use xlink:href="#DejaVuSans-61" x="240.980469"/>
      <use xlink:href="#DejaVuSans-74" x="302.259766"/>
      <use xlink:href="#DejaVuSans-69" x="341.46875"/>
      <use xlink:href="#DejaVuSans-6f" x="369.251953"/>
      <use xlink:href="#DejaVuSans-6e" x="430.433594"/>
      <use xlink:href="#DejaVuSans-20" x="493.8125"/>
      <use xlink:href="#DejaVuSans-6c" x="525.599609"/>
      <use xlink:href="#DejaVuSans-6f" x="553.382812"/>
      <use xlink:href="#DejaVuSans-73" x="614.564453"/>
      <use xlink:href="#DejaVuSans-73" x="666.664062"/>
     </g>
    </g>
   </g>
  </g>
  <g id="axes_2">
   <g id="patch_8">
    <path d="M 595.2125 323.44 
L 1069.2 323.44 
L 1069.2 26.16 
L 595.2125 26.16 
z
" style="fill: #ffffff"/>
   </g>
   <g id="matplotlib.axis_3">
    <g id="xtick_10">
     <g id="line2d_20">
      <g>
       <use xlink:href="#m6981da2436" x="643.319575" y="323.44" style="stroke: #000000; stroke-width: 0.8"/>
      </g>
     </g>
     <g id="text_21">
      <!-- 60 -->
      <g transform="translate(636.957075 338.038438) scale(0.1 -0.1)">
       <defs>
        <path id="DejaVuSans-36" d="M 2113 2584 
Q 1688 2584 1439 2293 
Q 1191 2003 1191 1497 
Q 1191 994 1439 701 
Q 1688 409 2113 409 
Q 2538 409 2786 701 
Q 3034 994 3034 1497 
Q 3034 2003 2786 2293 
Q 2538 2584 2113 2584 
z
M 3366 4563 
L 3366 3988 
Q 3128 4100 2886 4159 
Q 2644 4219 2406 4219 
Q 1781 4219 1451 3797 
Q 1122 3375 1075 2522 
Q 1259 2794 1537 2939 
Q 1816 3084 2150 3084 
Q 2853 3084 3261 2657 
Q 3669 2231 3669 1497 
Q 3669 778 3244 343 
Q 2819 -91 2113 -91 
Q 1303 -91 875 529 
Q 447 1150 447 2328 
Q 447 3434 972 4092 
Q 1497 4750 2381 4750 
Q 2619 4750 2861 4703 
Q 3103 4656 3366 4563 
z
" transform="scale(0.015625)"/>
       </defs>
       <use xlink:href="#DejaVuSans-36"/>
       <use xlink:href="#DejaVuSans-30" x="63.623047"/>
      </g>
     </g>
    </g>
    <g id="xtick_11">
     <g id="line2d_21">
      <g>
       <use xlink:href="#m6981da2436" x="702.346661" y="323.44" style="stroke: #000000; stroke-width: 0.8"/>
      </g>
     </g>
     <g id="text_22">
      <!-- 80 -->
      <g transform="translate(695.984161 338.038438) scale(0.1 -0.1)">
       <defs>
        <path id="DejaVuSans-38" d="M 2034 2216 
Q 1584 2216 1326 1975 
Q 1069 1734 1069 1313 
Q 1069 891 1326 650 
Q 1584 409 2034 409 
Q 2484 409 2743 651 
Q 3003 894 3003 1313 
Q 3003 1734 2745 1975 
Q 2488 2216 2034 2216 
z
M 1403 2484 
Q 997 2584 770 2862 
Q 544 3141 544 3541 
Q 544 4100 942 4425 
Q 1341 4750 2034 4750 
Q 2731 4750 3128 4425 
Q 3525 4100 3525 3541 
Q 3525 3141 3298 2862 
Q 3072 2584 2669 2484 
Q 3125 2378 3379 2068 
Q 3634 1759 3634 1313 
Q 3634 634 3220 271 
Q 2806 -91 2034 -91 
Q 1263 -91 848 271 
Q 434 634 434 1313 
Q 434 1759 690 2068 
Q 947 2378 1403 2484 
z
M 1172 3481 
Q 1172 3119 1398 2916 
Q 1625 2713 2034 2713 
Q 2441 2713 2670 2916 
Q 2900 3119 2900 3481 
Q 2900 3844 2670 4047 
Q 2441 4250 2034 4250 
Q 1625 4250 1398 4047 
Q 1172 3844 1172 3481 
z
" transform="scale(0.015625)"/>
       </defs>
       <use xlink:href="#DejaVuSans-38"/>
       <use xlink:href="#DejaVuSans-30" x="63.623047"/>
      </g>
     </g>
    </g>
    <g id="xtick_12">
     <g id="line2d_22">
      <g>
       <use xlink:href="#m6981da2436" x="761.373747" y="323.44" style="stroke: #000000; stroke-width: 0.8"/>
      </g>
     </g>
     <g id="text_23">
      <!-- 100 -->
      <g transform="translate(751.829997 338.038438) scale(0.1 -0.1)">
       <use xlink:href="#DejaVuSans-31"/>
       <use xlink:href="#DejaVuSans-30" x="63.623047"/>
       <use xlink:href="#DejaVuSans-30" x="127.246094"/>
      </g>
     </g>
    </g>
    <g id="xtick_13">
     <g id="line2d_23">
      <g>
       <use xlink:href="#m6981da2436" x="820.400833" y="323.44" style="stroke: #000000; stroke-width: 0.8"/>
      </g>
     </g>
     <g id="text_24">
      <!-- 120 -->
      <g transform="translate(810.857083 338.038438) scale(0.1 -0.1)">
       <use xlink:href="#DejaVuSans-31"/>
       <use xlink:href="#DejaVuSans-32" x="63.623047"/>
       <use xlink:href="#DejaVuSans-30" x="127.246094"/>
      </g>
     </g>
    </g>
    <g id="xtick_14">
     <g id="line2d_24">
      <g>
       <use xlink:href="#m6981da2436" x="879.427919" y="323.44" style="stroke: #000000; stroke-width: 0.8"/>
      </g>
     </g>
     <g id="text_25">
      <!-- 140 -->
      <g transform="translate(869.884169 338.038438) scale(0.1 -0.1)">
       <defs>
        <path id="DejaVuSans-34" d="M 2419 4116 
L 825 1625 
L 2419 1625 
L 2419 4116 
z
M 2253 4666 
L 3047 4666 
L 3047 1625 
L 3713 1625 
L 3713 1100 
L 3047 1100 
L 3047 0 
L 2419 0 
L 2419 1100 
L 313 1100 
L 313 1709 
L 2253 4666 
z
" transform="scale(0.015625)"/>
       </defs>
       <use xlink:href="#DejaVuSans-31"/>
       <use xlink:href="#DejaVuSans-34" x="63.623047"/>
       <use xlink:href="#DejaVuSans-30" x="127.246094"/>
      </g>
     </g>
    </g>
    <g id="xtick_15">
     <g id="line2d_25">
      <g>
       <use xlink:href="#m6981da2436" x="938.455005" y="323.44" style="stroke: #000000; stroke-width: 0.8"/>
      </g>
     </g>
     <g id="text_26">
      <!-- 160 -->
      <g transform="translate(928.911255 338.038438) scale(0.1 -0.1)">
       <use xlink:href="#DejaVuSans-31"/>
       <use xlink:href="#DejaVuSans-36" x="63.623047"/>
       <use xlink:href="#DejaVuSans-30" x="127.246094"/>
      </g>
     </g>
    </g>
    <g id="xtick_16">
     <g id="line2d_26">
      <g>
       <use xlink:href="#m6981da2436" x="997.482091" y="323.44" style="stroke: #000000; stroke-width: 0.8"/>
      </g>
     </g>
     <g id="text_27">
      <!-- 180 -->
      <g transform="translate(987.938341 338.038438) scale(0.1 -0.1)">
       <use xlink:href="#DejaVuSans-31"/>
       <use xlink:href="#DejaVuSans-38" x="63.623047"/>
       <use xlink:href="#DejaVuSans-30" x="127.246094"/>
      </g>
     </g>
    </g>
    <g id="xtick_17">
     <g id="line2d_27">
      <g>
       <use xlink:href="#m6981da2436" x="1056.509177" y="323.44" style="stroke: #000000; stroke-width: 0.8"/>
      </g>
     </g>
     <g id="text_28">
      <!-- 200 -->
      <g transform="translate(1046.965427 338.038438) scale(0.1 -0.1)">
       <use xlink:href="#DejaVuSans-32"/>
       <use xlink:href="#DejaVuSans-30" x="63.623047"/>
       <use xlink:href="#DejaVuSans-30" x="127.246094"/>
      </g>
     </g>
    </g>
    <g id="text_29">
     <!-- Epochs -->
     <g transform="translate(814.290625 351.716563) scale(0.1 -0.1)">
      <use xlink:href="#DejaVuSans-45"/>
      <use xlink:href="#DejaVuSans-70" x="63.183594"/>
      <use xlink:href="#DejaVuSans-6f" x="126.660156"/>
      <use xlink:href="#DejaVuSans-63" x="187.841797"/>
      <use xlink:href="#DejaVuSans-68" x="242.822266"/>
      <use xlink:href="#DejaVuSans-73" x="306.201172"/>
     </g>
    </g>
   </g>
   <g id="matplotlib.axis_4">
    <g id="ytick_7">
     <g id="line2d_28">
      <g>
       <use xlink:href="#mffedd75a21" x="595.2125" y="291.797625" style="stroke: #000000; stroke-width: 0.8"/>
      </g>
     </g>
     <g id="text_30">
      <!-- 0.0025 -->
      <g transform="translate(553.221875 295.596844) scale(0.1 -0.1)">
       <use xlink:href="#DejaVuSans-30"/>
       <use xlink:href="#DejaVuSans-2e" x="63.623047"/>
       <use xlink:href="#DejaVuSans-30" x="95.410156"/>
       <use xlink:href="#DejaVuSans-30" x="159.033203"/>
       <use xlink:href="#DejaVuSans-32" x="222.65625"/>
       <use xlink:href="#DejaVuSans-35" x="286.279297"/>
      </g>
     </g>
    </g>
    <g id="ytick_8">
     <g id="line2d_29">
      <g>
       <use xlink:href="#mffedd75a21" x="595.2125" y="257.307408" style="stroke: #000000; stroke-width: 0.8"/>
      </g>
     </g>
     <g id="text_31">
      <!-- 0.0050 -->
      <g transform="translate(553.221875 261.106627) scale(0.1 -0.1)">
       <use xlink:href="#DejaVuSans-30"/>
       <use xlink:href="#DejaVuSans-2e" x="63.623047"/>
       <use xlink:href="#DejaVuSans-30" x="95.410156"/>
       <use xlink:href="#DejaVuSans-30" x="159.033203"/>
       <use xlink:href="#DejaVuSans-35" x="222.65625"/>
       <use xlink:href="#DejaVuSans-30" x="286.279297"/>
      </g>
     </g>
    </g>
    <g id="ytick_9">
     <g id="line2d_30">
      <g>
       <use xlink:href="#mffedd75a21" x="595.2125" y="222.81719" style="stroke: #000000; stroke-width: 0.8"/>
      </g>
     </g>
     <g id="text_32">
      <!-- 0.0075 -->
      <g transform="translate(553.221875 226.616409) scale(0.1 -0.1)">
       <use xlink:href="#DejaVuSans-30"/>
       <use xlink:href="#DejaVuSans-2e" x="63.623047"/>
       <use xlink:href="#DejaVuSans-30" x="95.410156"/>
       <use xlink:href="#DejaVuSans-30" x="159.033203"/>
       <use xlink:href="#DejaVuSans-37" x="222.65625"/>
       <use xlink:href="#DejaVuSans-35" x="286.279297"/>
      </g>
     </g>
    </g>
    <g id="ytick_10">
     <g id="line2d_31">
      <g>
       <use xlink:href="#mffedd75a21" x="595.2125" y="188.326973" style="stroke: #000000; stroke-width: 0.8"/>
      </g>
     </g>
     <g id="text_33">
      <!-- 0.0100 -->
      <g transform="translate(553.221875 192.126192) scale(0.1 -0.1)">
       <use xlink:href="#DejaVuSans-30"/>
       <use xlink:href="#DejaVuSans-2e" x="63.623047"/>
       <use xlink:href="#DejaVuSans-30" x="95.410156"/>
       <use xlink:href="#DejaVuSans-31" x="159.033203"/>
       <use xlink:href="#DejaVuSans-30" x="222.65625"/>
       <use xlink:href="#DejaVuSans-30" x="286.279297"/>
      </g>
     </g>
    </g>
    <g id="ytick_11">
     <g id="line2d_32">
      <g>
       <use xlink:href="#mffedd75a21" x="595.2125" y="153.836755" style="stroke: #000000; stroke-width: 0.8"/>
      </g>
     </g>
     <g id="text_34">
      <!-- 0.0125 -->
      <g transform="translate(553.221875 157.635974) scale(0.1 -0.1)">
       <use xlink:href="#DejaVuSans-30"/>
       <use xlink:href="#DejaVuSans-2e" x="63.623047"/>
       <use xlink:href="#DejaVuSans-30" x="95.410156"/>
       <use xlink:href="#DejaVuSans-31" x="159.033203"/>
       <use xlink:href="#DejaVuSans-32" x="222.65625"/>
       <use xlink:href="#DejaVuSans-35" x="286.279297"/>
      </g>
     </g>
    </g>
    <g id="ytick_12">
     <g id="line2d_33">
      <g>
       <use xlink:href="#mffedd75a21" x="595.2125" y="119.346538" style="stroke: #000000; stroke-width: 0.8"/>
      </g>
     </g>
     <g id="text_35">
      <!-- 0.0150 -->
      <g transform="translate(553.221875 123.145757) scale(0.1 -0.1)">
       <use xlink:href="#DejaVuSans-30"/>
       <use xlink:href="#DejaVuSans-2e" x="63.623047"/>
       <use xlink:href="#DejaVuSans-30" x="95.410156"/>
       <use xlink:href="#DejaVuSans-31" x="159.033203"/>
       <use xlink:href="#DejaVuSans-35" x="222.65625"/>
       <use xlink:href="#DejaVuSans-30" x="286.279297"/>
      </g>
     </g>
    </g>
    <g id="ytick_13">
     <g id="line2d_34">
      <g>
       <use xlink:href="#mffedd75a21" x="595.2125" y="84.85632" style="stroke: #000000; stroke-width: 0.8"/>
      </g>
     </g>
     <g id="text_36">
      <!-- 0.0175 -->
      <g transform="translate(553.221875 88.655539) scale(0.1 -0.1)">
       <use xlink:href="#DejaVuSans-30"/>
       <use xlink:href="#DejaVuSans-2e" x="63.623047"/>
       <use xlink:href="#DejaVuSans-30" x="95.410156"/>
       <use xlink:href="#DejaVuSans-31" x="159.033203"/>
       <use xlink:href="#DejaVuSans-37" x="222.65625"/>
       <use xlink:href="#DejaVuSans-35" x="286.279297"/>
      </g>
     </g>
    </g>
    <g id="ytick_14">
     <g id="line2d_35">
      <g>
       <use xlink:href="#mffedd75a21" x="595.2125" y="50.366103" style="stroke: #000000; stroke-width: 0.8"/>
      </g>
     </g>
     <g id="text_37">
      <!-- 0.0200 -->
      <g transform="translate(553.221875 54.165322) scale(0.1 -0.1)">
       <use xlink:href="#DejaVuSans-30"/>
       <use xlink:href="#DejaVuSans-2e" x="63.623047"/>
       <use xlink:href="#DejaVuSans-30" x="95.410156"/>
       <use xlink:href="#DejaVuSans-32" x="159.033203"/>
       <use xlink:href="#DejaVuSans-30" x="222.65625"/>
       <use xlink:href="#DejaVuSans-30" x="286.279297"/>
      </g>
     </g>
    </g>
    <g id="text_38">
     <!-- Loss -->
     <g transform="translate(547.142187 185.767188) rotate(-90) scale(0.1 -0.1)">
      <use xlink:href="#DejaVuSans-4c"/>
      <use xlink:href="#DejaVuSans-6f" x="53.962891"/>
      <use xlink:href="#DejaVuSans-73" x="115.144531"/>
      <use xlink:href="#DejaVuSans-73" x="167.244141"/>
     </g>
    </g>
   </g>
   <g id="line2d_36">
    <path d="M 616.757386 212.080569 
L 619.708741 197.703581 
L 622.660095 200.908563 
L 625.611449 224.080127 
L 628.562804 214.457947 
L 631.514158 203.870669 
L 634.465512 207.879974 
L 637.416866 230.3386 
L 640.368221 185.968229 
L 643.319575 195.907115 
L 646.270929 230.278109 
L 649.222284 245.656151 
L 652.173638 222.806426 
L 655.124992 227.084087 
L 658.076347 204.512379 
L 661.027701 239.608125 
L 663.979055 238.457423 
L 666.930409 233.631242 
L 669.881764 243.221237 
L 672.833118 229.925697 
L 675.784472 247.210357 
L 678.735827 221.796397 
L 681.687181 255.566873 
L 684.638535 249.556635 
L 687.589889 261.473551 
L 690.541244 232.083435 
L 693.492598 251.365096 
L 696.443952 194.283462 
L 699.395307 232.086037 
L 702.346661 259.898774 
L 705.298015 253.566313 
L 708.24937 255.57225 
L 711.200724 253.114003 
L 714.152078 227.058319 
L 717.103432 266.285226 
L 720.054787 244.64972 
L 723.006141 279.255577 
L 725.957495 260.422606 
L 728.90885 239.008584 
L 731.860204 259.870957 
L 734.811558 247.69739 
L 737.762913 259.962073 
L 740.714267 245.128472 
L 743.665621 253.950364 
L 746.616975 271.617347 
L 749.56833 273.082512 
L 752.519684 257.629209 
L 755.471038 272.082222 
L 758.422393 271.271899 
L 761.373747 256.095297 
L 764.325101 259.640813 
L 767.276455 253.923125 
L 770.22781 258.323734 
L 773.179164 267.103689 
L 776.130518 260.884205 
L 779.081873 254.028933 
L 782.033227 258.068253 
L 784.984581 266.03207 
L 787.935936 233.025148 
L 793.838644 268.052372 
L 796.789998 253.412174 
L 799.741353 284.029451 
L 802.692707 273.167936 
L 805.644061 278.759065 
L 808.595416 282.952481 
L 811.54677 280.88029 
L 814.498124 287.120913 
L 817.449479 290.59623 
L 820.400833 275.840652 
L 823.352187 258.427911 
L 826.303541 254.523193 
L 829.254896 251.730979 
L 832.20625 285.246041 
L 835.157604 270.332884 
L 838.108959 293.981093 
L 841.060313 294.32444 
L 844.011667 290.505702 
L 846.963021 277.453849 
L 849.914376 279.26567 
L 852.86573 291.211858 
L 855.817084 283.587437 
L 858.768439 286.571227 
L 861.719793 267.954324 
L 864.671147 290.679107 
L 867.622502 298.299628 
L 870.573856 278.795809 
L 873.52521 296.643289 
L 876.476564 291.918239 
L 879.427919 276.90866 
L 882.379273 259.849449 
L 885.330627 278.82397 
L 888.281982 262.848757 
L 891.233336 293.281836 
L 894.18469 303.540257 
L 897.136045 306.367801 
L 900.087399 305.359085 
L 903.038753 296.344883 
L 905.990107 299.641532 
L 908.941462 243.778655 
L 911.892816 241.653097 
L 914.84417 281.639938 
L 917.795525 274.212091 
L 920.746879 297.007171 
L 923.698233 293.036643 
L 926.649587 274.176664 
L 929.600942 296.809319 
L 932.552296 292.347293 
L 935.50365 306.748683 
L 938.455005 277.375071 
L 941.406359 290.247503 
L 944.357713 297.398658 
L 947.309068 291.736258 
L 950.260422 299.248399 
L 953.211776 289.672717 
L 956.16313 295.000222 
L 959.114485 288.880649 
L 962.065839 260.19737 
L 965.017193 233.364062 
L 967.968548 276.925784 
L 970.919902 291.635914 
L 973.871256 273.406213 
L 976.822611 294.865112 
L 979.773965 294.739684 
L 982.725319 308.952145 
L 985.676673 293.455148 
L 988.628028 270.999451 
L 991.579382 264.60026 
L 994.530736 263.509387 
L 997.482091 265.030277 
L 1000.433445 253.444964 
L 1003.384799 278.0579 
L 1006.336153 296.069637 
L 1009.287508 273.87219 
L 1012.238862 282.256687 
L 1015.190216 290.04514 
L 1018.141571 278.860424 
L 1021.092925 287.574433 
L 1024.044279 304.059258 
L 1026.995634 307.02036 
L 1029.946988 293.067213 
L 1032.898342 297.326019 
L 1035.849696 306.512824 
L 1038.801051 288.09212 
L 1041.752405 309.927273 
L 1044.703759 308.232855 
L 1047.655114 303.827228 
L 1047.655114 303.827228 
" clip-path="url(#p409081b358)" style="fill: none; stroke: #1f77b4; stroke-width: 1.5; stroke-linecap: square"/>
   </g>
   <g id="line2d_37">
    <path d="M 616.757386 163.446856 
L 619.708741 171.690291 
L 622.660095 151.898759 
L 625.611449 190.538273 
L 628.562804 142.565364 
L 631.514158 157.381838 
L 634.465512 189.657848 
L 637.416866 197.496385 
L 640.368221 39.672727 
L 643.319575 173.953406 
L 646.270929 227.671904 
L 649.222284 193.660214 
L 652.173638 214.400244 
L 655.124992 185.899437 
L 658.076347 155.126625 
L 661.027701 244.187452 
L 663.979055 189.344521 
L 666.930409 211.311811 
L 669.881764 205.804024 
L 672.833118 209.51952 
L 675.784472 229.484264 
L 678.735827 248.225024 
L 681.687181 245.953204 
L 684.638535 238.997656 
L 687.589889 224.004886 
L 690.541244 174.029958 
L 693.492598 224.02042 
L 696.443952 208.245491 
L 699.395307 217.697068 
L 702.346661 249.133151 
L 705.298015 238.52245 
L 708.24937 235.971815 
L 711.200724 234.554196 
L 714.152078 231.705532 
L 717.103432 249.384239 
L 720.054787 248.726197 
L 723.006141 216.985242 
L 725.957495 214.631814 
L 728.90885 224.540133 
L 731.860204 233.735143 
L 734.811558 254.067627 
L 737.762913 246.386235 
L 740.714267 200.250124 
L 743.665621 194.21715 
L 746.616975 256.900578 
L 749.56833 156.676424 
L 752.519684 231.470177 
L 755.471038 244.274675 
L 758.422393 214.873856 
L 761.373747 238.767499 
L 764.325101 227.662062 
L 767.276455 224.761598 
L 770.22781 246.020711 
L 773.179164 273.251227 
L 776.130518 176.675062 
L 782.033227 253.820452 
L 784.984581 253.454799 
L 787.935936 95.802228 
L 790.88729 243.051398 
L 793.838644 186.568541 
L 796.789998 240.495155 
L 799.741353 263.083494 
L 802.692707 276.657765 
L 805.644061 261.012113 
L 808.595416 216.857514 
L 811.54677 253.089006 
L 814.498124 280.181056 
L 817.449479 260.783189 
L 820.400833 194.918813 
L 823.352187 240.050111 
L 826.303541 195.971859 
L 829.254896 250.172257 
L 832.20625 279.270051 
L 835.157604 261.276408 
L 838.108959 280.99321 
L 841.060313 256.030952 
L 844.011667 280.71381 
L 846.963021 258.704695 
L 849.914376 290.870153 
L 852.86573 269.845292 
L 855.817084 265.699953 
L 858.768439 143.318844 
L 861.719793 284.187637 
L 864.671147 285.35421 
L 867.622502 288.150494 
L 870.573856 265.617869 
L 873.52521 285.929651 
L 876.476564 257.611658 
L 879.427919 279.813483 
L 882.379273 233.893547 
L 885.330627 227.832402 
L 888.281982 265.128414 
L 891.233336 289.046466 
L 894.18469 274.920704 
L 897.136045 293.239606 
L 900.087399 295.341494 
L 903.038753 276.924104 
L 905.990107 269.701529 
L 908.941462 229.068843 
L 911.892816 200.592334 
L 914.84417 282.320275 
L 917.795525 280.357204 
L 920.746879 290.778494 
L 923.698233 267.317836 
L 926.649587 279.06845 
L 929.600942 266.075691 
L 932.552296 279.016015 
L 935.50365 292.952729 
L 938.455005 271.135222 
L 941.406359 291.472168 
L 944.357713 253.426912 
L 947.309068 249.491608 
L 950.260422 292.66069 
L 953.211776 269.329357 
L 956.16313 278.583505 
L 959.114485 268.230492 
L 962.065839 152.90158 
L 965.017193 231.388717 
L 967.968548 280.823663 
L 970.919902 272.440615 
L 973.871256 287.439677 
L 976.822611 258.07893 
L 979.773965 294.785647 
L 982.725319 281.620736 
L 985.676673 289.57986 
L 988.628028 236.630499 
L 991.579382 277.14299 
L 994.530736 185.570744 
L 997.482091 276.911072 
L 1000.433445 208.662878 
L 1003.384799 251.158747 
L 1006.336153 204.8863 
L 1009.287508 267.656539 
L 1012.238862 274.962019 
L 1015.190216 210.612487 
L 1018.141571 224.291776 
L 1021.092925 282.061649 
L 1024.044279 289.292469 
L 1026.995634 223.533612 
L 1029.946988 271.014471 
L 1032.898342 294.164031 
L 1035.849696 282.625086 
L 1038.801051 291.627864 
L 1041.752405 294.119851 
L 1044.703759 294.70772 
L 1047.655114 287.593764 
L 1047.655114 287.593764 
" clip-path="url(#p409081b358)" style="fill: none; stroke: #ff7f0e; stroke-width: 1.5; stroke-linecap: square"/>
   </g>
   <g id="patch_9">
    <path d="M 595.2125 323.44 
L 595.2125 26.16 
" style="fill: none; stroke: #000000; stroke-width: 0.8; stroke-linejoin: miter; stroke-linecap: square"/>
   </g>
   <g id="patch_10">
    <path d="M 1069.2 323.44 
L 1069.2 26.16 
" style="fill: none; stroke: #000000; stroke-width: 0.8; stroke-linejoin: miter; stroke-linecap: square"/>
   </g>
   <g id="patch_11">
    <path d="M 595.2125 323.44 
L 1069.2 323.44 
" style="fill: none; stroke: #000000; stroke-width: 0.8; stroke-linejoin: miter; stroke-linecap: square"/>
   </g>
   <g id="patch_12">
    <path d="M 595.2125 26.16 
L 1069.2 26.16 
" style="fill: none; stroke: #000000; stroke-width: 0.8; stroke-linejoin: miter; stroke-linecap: square"/>
   </g>
   <g id="text_39">
    <!-- Training and Validation Loss (Skip first 50) -->
    <g transform="translate(706.216563 20.16) scale(0.12 -0.12)">
     <defs>
      <path id="DejaVuSans-28" d="M 1984 4856 
Q 1566 4138 1362 3434 
Q 1159 2731 1159 2009 
Q 1159 1288 1364 580 
Q 1569 -128 1984 -844 
L 1484 -844 
Q 1016 -109 783 600 
Q 550 1309 550 2009 
Q 550 2706 781 3412 
Q 1013 4119 1484 4856 
L 1984 4856 
z
" transform="scale(0.015625)"/>
      <path id="DejaVuSans-53" d="M 3425 4513 
L 3425 3897 
Q 3066 4069 2747 4153 
Q 2428 4238 2131 4238 
Q 1616 4238 1336 4038 
Q 1056 3838 1056 3469 
Q 1056 3159 1242 3001 
Q 1428 2844 1947 2747 
L 2328 2669 
Q 3034 2534 3370 2195 
Q 3706 1856 3706 1288 
Q 3706 609 3251 259 
Q 2797 -91 1919 -91 
Q 1588 -91 1214 -16 
Q 841 59 441 206 
L 441 856 
Q 825 641 1194 531 
Q 1563 422 1919 422 
Q 2459 422 2753 634 
Q 3047 847 3047 1241 
Q 3047 1584 2836 1778 
Q 2625 1972 2144 2069 
L 1759 2144 
Q 1053 2284 737 2584 
Q 422 2884 422 3419 
Q 422 4038 858 4394 
Q 1294 4750 2059 4750 
Q 2388 4750 2728 4690 
Q 3069 4631 3425 4513 
z
" transform="scale(0.015625)"/>
      <path id="DejaVuSans-6b" d="M 581 4863 
L 1159 4863 
L 1159 1991 
L 2875 3500 
L 3609 3500 
L 1753 1863 
L 3688 0 
L 2938 0 
L 1159 1709 
L 1159 0 
L 581 0 
L 581 4863 
z
" transform="scale(0.015625)"/>
      <path id="DejaVuSans-66" d="M 2375 4863 
L 2375 4384 
L 1825 4384 
Q 1516 4384 1395 4259 
Q 1275 4134 1275 3809 
L 1275 3500 
L 2222 3500 
L 2222 3053 
L 1275 3053 
L 1275 0 
L 697 0 
L 697 3053 
L 147 3053 
L 147 3500 
L 697 3500 
L 697 3744 
Q 697 4328 969 4595 
Q 1241 4863 1831 4863 
L 2375 4863 
z
" transform="scale(0.015625)"/>
      <path id="DejaVuSans-29" d="M 513 4856 
L 1013 4856 
Q 1481 4119 1714 3412 
Q 1947 2706 1947 2009 
Q 1947 1309 1714 600 
Q 1481 -109 1013 -844 
L 513 -844 
Q 928 -128 1133 580 
Q 1338 1288 1338 2009 
Q 1338 2731 1133 3434 
Q 928 4138 513 4856 
z
" transform="scale(0.015625)"/>
     </defs>
     <use xlink:href="#DejaVuSans-54"/>
     <use xlink:href="#DejaVuSans-72" x="46.333984"/>
     <use xlink:href="#DejaVuSans-61" x="87.447266"/>
     <use xlink:href="#DejaVuSans-69" x="148.726562"/>
     <use xlink:href="#DejaVuSans-6e" x="176.509766"/>
     <use xlink:href="#DejaVuSans-69" x="239.888672"/>
     <use xlink:href="#DejaVuSans-6e" x="267.671875"/>
     <use xlink:href="#DejaVuSans-67" x="331.050781"/>
     <use xlink:href="#DejaVuSans-20" x="394.527344"/>
     <use xlink:href="#DejaVuSans-61" x="426.314453"/>
     <use xlink:href="#DejaVuSans-6e" x="487.59375"/>
     <use xlink:href="#DejaVuSans-64" x="550.972656"/>
     <use xlink:href="#DejaVuSans-20" x="614.449219"/>
     <use xlink:href="#DejaVuSans-56" x="646.236328"/>
     <use xlink:href="#DejaVuSans-61" x="706.894531"/>
     <use xlink:href="#DejaVuSans-6c" x="768.173828"/>
     <use xlink:href="#DejaVuSans-69" x="795.957031"/>
     <use xlink:href="#DejaVuSans-64" x="823.740234"/>
     <use xlink:href="#DejaVuSans-61" x="887.216797"/>
     <use xlink:href="#DejaVuSans-74" x="948.496094"/>
     <use xlink:href="#DejaVuSans-69" x="987.705078"/>
     <use xlink:href="#DejaVuSans-6f" x="1015.488281"/>
     <use xlink:href="#DejaVuSans-6e" x="1076.669922"/>
     <use xlink:href="#DejaVuSans-20" x="1140.048828"/>
     <use xlink:href="#DejaVuSans-4c" x="1171.835938"/>
     <use xlink:href="#DejaVuSans-6f" x="1225.798828"/>
     <use xlink:href="#DejaVuSans-73" x="1286.980469"/>
     <use xlink:href="#DejaVuSans-73" x="1339.080078"/>
     <use xlink:href="#DejaVuSans-20" x="1391.179688"/>
     <use xlink:href="#DejaVuSans-28" x="1422.966797"/>
     <use xlink:href="#DejaVuSans-53" x="1461.980469"/>
     <use xlink:href="#DejaVuSans-6b" x="1525.457031"/>
     <use xlink:href="#DejaVuSans-69" x="1583.367188"/>
     <use xlink:href="#DejaVuSans-70" x="1611.150391"/>
     <use xlink:href="#DejaVuSans-20" x="1674.626953"/>
     <use xlink:href="#DejaVuSans-66" x="1706.414062"/>
     <use xlink:href="#DejaVuSans-69" x="1741.619141"/>
     <use xlink:href="#DejaVuSans-72" x="1769.402344"/>
     <use xlink:href="#DejaVuSans-73" x="1810.515625"/>
     <use xlink:href="#DejaVuSans-74" x="1862.615234"/>
     <use xlink:href="#DejaVuSans-20" x="1901.824219"/>
     <use xlink:href="#DejaVuSans-35" x="1933.611328"/>
     <use xlink:href="#DejaVuSans-30" x="1997.234375"/>
     <use xlink:href="#DejaVuSans-29" x="2060.857422"/>
    </g>
   </g>
   <g id="legend_2">
    <g id="patch_13">
     <path d="M 958.325 63.51625 
L 1062.2 63.51625 
Q 1064.2 63.51625 1064.2 61.51625 
L 1064.2 33.16 
Q 1064.2 31.16 1062.2 31.16 
L 958.325 31.16 
Q 956.325 31.16 956.325 33.16 
L 956.325 61.51625 
Q 956.325 63.51625 958.325 63.51625 
z
" style="fill: #ffffff; opacity: 0.8; stroke: #cccccc; stroke-linejoin: miter"/>
    </g>
    <g id="line2d_38">
     <path d="M 960.325 39.258438 
L 970.325 39.258438 
L 980.325 39.258438 
" style="fill: none; stroke: #1f77b4; stroke-width: 1.5; stroke-linecap: square"/>
    </g>
    <g id="text_40">
     <!-- Training loss -->
     <g transform="translate(988.325 42.758438) scale(0.1 -0.1)">
      <use xlink:href="#DejaVuSans-54"/>
      <use xlink:href="#DejaVuSans-72" x="46.333984"/>
      <use xlink:href="#DejaVuSans-61" x="87.447266"/>
      <use xlink:href="#DejaVuSans-69" x="148.726562"/>
      <use xlink:href="#DejaVuSans-6e" x="176.509766"/>
      <use xlink:href="#DejaVuSans-69" x="239.888672"/>
      <use xlink:href="#DejaVuSans-6e" x="267.671875"/>
      <use xlink:href="#DejaVuSans-67" x="331.050781"/>
      <use xlink:href="#DejaVuSans-20" x="394.527344"/>
      <use xlink:href="#DejaVuSans-6c" x="426.314453"/>
      <use xlink:href="#DejaVuSans-6f" x="454.097656"/>
      <use xlink:href="#DejaVuSans-73" x="515.279297"/>
      <use xlink:href="#DejaVuSans-73" x="567.378906"/>
     </g>
    </g>
    <g id="line2d_39">
     <path d="M 960.325 53.936563 
L 970.325 53.936563 
L 980.325 53.936563 
" style="fill: none; stroke: #ff7f0e; stroke-width: 1.5; stroke-linecap: square"/>
    </g>
    <g id="text_41">
     <!-- Validation loss -->
     <g transform="translate(988.325 57.436563) scale(0.1 -0.1)">
      <use xlink:href="#DejaVuSans-56"/>
      <use xlink:href="#DejaVuSans-61" x="60.658203"/>
      <use xlink:href="#DejaVuSans-6c" x="121.9375"/>
      <use xlink:href="#DejaVuSans-69" x="149.720703"/>
      <use xlink:href="#DejaVuSans-64" x="177.503906"/>
      <use xlink:href="#DejaVuSans-61" x="240.980469"/>
      <use xlink:href="#DejaVuSans-74" x="302.259766"/>
      <use xlink:href="#DejaVuSans-69" x="341.46875"/>
      <use xlink:href="#DejaVuSans-6f" x="369.251953"/>
      <use xlink:href="#DejaVuSans-6e" x="430.433594"/>
      <use xlink:href="#DejaVuSans-20" x="493.8125"/>
      <use xlink:href="#DejaVuSans-6c" x="525.599609"/>
      <use xlink:href="#DejaVuSans-6f" x="553.382812"/>
      <use xlink:href="#DejaVuSans-73" x="614.564453"/>
      <use xlink:href="#DejaVuSans-73" x="666.664062"/>
     </g>
    </g>
   </g>
  </g>
  <g id="axes_3">
   <g id="patch_14">
    <path d="M 54.245 678.04 
L 528.2325 678.04 
L 528.2325 380.76 
L 54.245 380.76 
z
" style="fill: #ffffff"/>
   </g>
   <g id="matplotlib.axis_5">
    <g id="xtick_18">
     <g id="line2d_40">
      <g>
       <use xlink:href="#m6981da2436" x="102.352075" y="678.04" style="stroke: #000000; stroke-width: 0.8"/>
      </g>
     </g>
     <g id="text_42">
      <!-- 60 -->
      <g transform="translate(95.989575 692.638438) scale(0.1 -0.1)">
       <use xlink:href="#DejaVuSans-36"/>
       <use xlink:href="#DejaVuSans-30" x="63.623047"/>
      </g>
     </g>
    </g>
    <g id="xtick_19">
     <g id="line2d_41">
      <g>
       <use xlink:href="#m6981da2436" x="161.379161" y="678.04" style="stroke: #000000; stroke-width: 0.8"/>
      </g>
     </g>
     <g id="text_43">
      <!-- 80 -->
      <g transform="translate(155.016661 692.638438) scale(0.1 -0.1)">
       <use xlink:href="#DejaVuSans-38"/>
       <use xlink:href="#DejaVuSans-30" x="63.623047"/>
      </g>
     </g>
    </g>
    <g id="xtick_20">
     <g id="line2d_42">
      <g>
       <use xlink:href="#m6981da2436" x="220.406247" y="678.04" style="stroke: #000000; stroke-width: 0.8"/>
      </g>
     </g>
     <g id="text_44">
      <!-- 100 -->
      <g transform="translate(210.862497 692.638438) scale(0.1 -0.1)">
       <use xlink:href="#DejaVuSans-31"/>
       <use xlink:href="#DejaVuSans-30" x="63.623047"/>
       <use xlink:href="#DejaVuSans-30" x="127.246094"/>
      </g>
     </g>
    </g>
    <g id="xtick_21">
     <g id="line2d_43">
      <g>
       <use xlink:href="#m6981da2436" x="279.433333" y="678.04" style="stroke: #000000; stroke-width: 0.8"/>
      </g>
     </g>
     <g id="text_45">
      <!-- 120 -->
      <g transform="translate(269.889583 692.638438) scale(0.1 -0.1)">
       <use xlink:href="#DejaVuSans-31"/>
       <use xlink:href="#DejaVuSans-32" x="63.623047"/>
       <use xlink:href="#DejaVuSans-30" x="127.246094"/>
      </g>
     </g>
    </g>
    <g id="xtick_22">
     <g id="line2d_44">
      <g>
       <use xlink:href="#m6981da2436" x="338.460419" y="678.04" style="stroke: #000000; stroke-width: 0.8"/>
      </g>
     </g>
     <g id="text_46">
      <!-- 140 -->
      <g transform="translate(328.916669 692.638438) scale(0.1 -0.1)">
       <use xlink:href="#DejaVuSans-31"/>
       <use xlink:href="#DejaVuSans-34" x="63.623047"/>
       <use xlink:href="#DejaVuSans-30" x="127.246094"/>
      </g>
     </g>
    </g>
    <g id="xtick_23">
     <g id="line2d_45">
      <g>
       <use xlink:href="#m6981da2436" x="397.487505" y="678.04" style="stroke: #000000; stroke-width: 0.8"/>
      </g>
     </g>
     <g id="text_47">
      <!-- 160 -->
      <g transform="translate(387.943755 692.638438) scale(0.1 -0.1)">
       <use xlink:href="#DejaVuSans-31"/>
       <use xlink:href="#DejaVuSans-36" x="63.623047"/>
       <use xlink:href="#DejaVuSans-30" x="127.246094"/>
      </g>
     </g>
    </g>
    <g id="xtick_24">
     <g id="line2d_46">
      <g>
       <use xlink:href="#m6981da2436" x="456.514591" y="678.04" style="stroke: #000000; stroke-width: 0.8"/>
      </g>
     </g>
     <g id="text_48">
      <!-- 180 -->
      <g transform="translate(446.970841 692.638438) scale(0.1 -0.1)">
       <use xlink:href="#DejaVuSans-31"/>
       <use xlink:href="#DejaVuSans-38" x="63.623047"/>
       <use xlink:href="#DejaVuSans-30" x="127.246094"/>
      </g>
     </g>
    </g>
    <g id="xtick_25">
     <g id="line2d_47">
      <g>
       <use xlink:href="#m6981da2436" x="515.541677" y="678.04" style="stroke: #000000; stroke-width: 0.8"/>
      </g>
     </g>
     <g id="text_49">
      <!-- 200 -->
      <g transform="translate(505.997927 692.638438) scale(0.1 -0.1)">
       <use xlink:href="#DejaVuSans-32"/>
       <use xlink:href="#DejaVuSans-30" x="63.623047"/>
       <use xlink:href="#DejaVuSans-30" x="127.246094"/>
      </g>
     </g>
    </g>
    <g id="text_50">
     <!-- Epochs -->
     <g transform="translate(273.323125 706.316563) scale(0.1 -0.1)">
      <use xlink:href="#DejaVuSans-45"/>
      <use xlink:href="#DejaVuSans-70" x="63.183594"/>
      <use xlink:href="#DejaVuSans-6f" x="126.660156"/>
      <use xlink:href="#DejaVuSans-63" x="187.841797"/>
      <use xlink:href="#DejaVuSans-68" x="242.822266"/>
      <use xlink:href="#DejaVuSans-73" x="306.201172"/>
     </g>
    </g>
   </g>
   <g id="matplotlib.axis_6">
    <g id="ytick_15">
     <g id="line2d_48">
      <g>
       <use xlink:href="#mffedd75a21" x="54.245" y="657.813286" style="stroke: #000000; stroke-width: 0.8"/>
      </g>
     </g>
     <g id="text_51">
      <!-- 0.02 -->
      <g transform="translate(24.979375 661.612505) scale(0.1 -0.1)">
       <use xlink:href="#DejaVuSans-30"/>
       <use xlink:href="#DejaVuSans-2e" x="63.623047"/>
       <use xlink:href="#DejaVuSans-30" x="95.410156"/>
       <use xlink:href="#DejaVuSans-32" x="159.033203"/>
      </g>
     </g>
    </g>
    <g id="ytick_16">
     <g id="line2d_49">
      <g>
       <use xlink:href="#mffedd75a21" x="54.245" y="616.615496" style="stroke: #000000; stroke-width: 0.8"/>
      </g>
     </g>
     <g id="text_52">
      <!-- 0.03 -->
      <g transform="translate(24.979375 620.414715) scale(0.1 -0.1)">
       <defs>
        <path id="DejaVuSans-33" d="M 2597 2516 
Q 3050 2419 3304 2112 
Q 3559 1806 3559 1356 
Q 3559 666 3084 287 
Q 2609 -91 1734 -91 
Q 1441 -91 1130 -33 
Q 819 25 488 141 
L 488 750 
Q 750 597 1062 519 
Q 1375 441 1716 441 
Q 2309 441 2620 675 
Q 2931 909 2931 1356 
Q 2931 1769 2642 2001 
Q 2353 2234 1838 2234 
L 1294 2234 
L 1294 2753 
L 1863 2753 
Q 2328 2753 2575 2939 
Q 2822 3125 2822 3475 
Q 2822 3834 2567 4026 
Q 2313 4219 1838 4219 
Q 1578 4219 1281 4162 
Q 984 4106 628 3988 
L 628 4550 
Q 988 4650 1302 4700 
Q 1616 4750 1894 4750 
Q 2613 4750 3031 4423 
Q 3450 4097 3450 3541 
Q 3450 3153 3228 2886 
Q 3006 2619 2597 2516 
z
" transform="scale(0.015625)"/>
       </defs>
       <use xlink:href="#DejaVuSans-30"/>
       <use xlink:href="#DejaVuSans-2e" x="63.623047"/>
       <use xlink:href="#DejaVuSans-30" x="95.410156"/>
       <use xlink:href="#DejaVuSans-33" x="159.033203"/>
      </g>
     </g>
    </g>
    <g id="ytick_17">
     <g id="line2d_50">
      <g>
       <use xlink:href="#mffedd75a21" x="54.245" y="575.417705" style="stroke: #000000; stroke-width: 0.8"/>
      </g>
     </g>
     <g id="text_53">
      <!-- 0.04 -->
      <g transform="translate(24.979375 579.216924) scale(0.1 -0.1)">
       <use xlink:href="#DejaVuSans-30"/>
       <use xlink:href="#DejaVuSans-2e" x="63.623047"/>
       <use xlink:href="#DejaVuSans-30" x="95.410156"/>
       <use xlink:href="#DejaVuSans-34" x="159.033203"/>
      </g>
     </g>
    </g>
    <g id="ytick_18">
     <g id="line2d_51">
      <g>
       <use xlink:href="#mffedd75a21" x="54.245" y="534.219915" style="stroke: #000000; stroke-width: 0.8"/>
      </g>
     </g>
     <g id="text_54">
      <!-- 0.05 -->
      <g transform="translate(24.979375 538.019133) scale(0.1 -0.1)">
       <use xlink:href="#DejaVuSans-30"/>
       <use xlink:href="#DejaVuSans-2e" x="63.623047"/>
       <use xlink:href="#DejaVuSans-30" x="95.410156"/>
       <use xlink:href="#DejaVuSans-35" x="159.033203"/>
      </g>
     </g>
    </g>
    <g id="ytick_19">
     <g id="line2d_52">
      <g>
       <use xlink:href="#mffedd75a21" x="54.245" y="493.022124" style="stroke: #000000; stroke-width: 0.8"/>
      </g>
     </g>
     <g id="text_55">
      <!-- 0.06 -->
      <g transform="translate(24.979375 496.821343) scale(0.1 -0.1)">
       <use xlink:href="#DejaVuSans-30"/>
       <use xlink:href="#DejaVuSans-2e" x="63.623047"/>
       <use xlink:href="#DejaVuSans-30" x="95.410156"/>
       <use xlink:href="#DejaVuSans-36" x="159.033203"/>
      </g>
     </g>
    </g>
    <g id="ytick_20">
     <g id="line2d_53">
      <g>
       <use xlink:href="#mffedd75a21" x="54.245" y="451.824333" style="stroke: #000000; stroke-width: 0.8"/>
      </g>
     </g>
     <g id="text_56">
      <!-- 0.07 -->
      <g transform="translate(24.979375 455.623552) scale(0.1 -0.1)">
       <use xlink:href="#DejaVuSans-30"/>
       <use xlink:href="#DejaVuSans-2e" x="63.623047"/>
       <use xlink:href="#DejaVuSans-30" x="95.410156"/>
       <use xlink:href="#DejaVuSans-37" x="159.033203"/>
      </g>
     </g>
    </g>
    <g id="ytick_21">
     <g id="line2d_54">
      <g>
       <use xlink:href="#mffedd75a21" x="54.245" y="410.626543" style="stroke: #000000; stroke-width: 0.8"/>
      </g>
     </g>
     <g id="text_57">
      <!-- 0.08 -->
      <g transform="translate(24.979375 414.425762) scale(0.1 -0.1)">
       <use xlink:href="#DejaVuSans-30"/>
       <use xlink:href="#DejaVuSans-2e" x="63.623047"/>
       <use xlink:href="#DejaVuSans-30" x="95.410156"/>
       <use xlink:href="#DejaVuSans-38" x="159.033203"/>
      </g>
     </g>
    </g>
    <g id="text_58">
     <!-- MAE -->
     <g transform="translate(18.899687 540.29375) rotate(-90) scale(0.1 -0.1)">
      <defs>
       <path id="DejaVuSans-4d" d="M 628 4666 
L 1569 4666 
L 2759 1491 
L 3956 4666 
L 4897 4666 
L 4897 0 
L 4281 0 
L 4281 4097 
L 3078 897 
L 2444 897 
L 1241 4097 
L 1241 0 
L 628 0 
L 628 4666 
z
" transform="scale(0.015625)"/>
       <path id="DejaVuSans-41" d="M 2188 4044 
L 1331 1722 
L 3047 1722 
L 2188 4044 
z
M 1831 4666 
L 2547 4666 
L 4325 0 
L 3669 0 
L 3244 1197 
L 1141 1197 
L 716 0 
L 50 0 
L 1831 4666 
z
" transform="scale(0.015625)"/>
      </defs>
      <use xlink:href="#DejaVuSans-4d"/>
      <use xlink:href="#DejaVuSans-41" x="86.279297"/>
      <use xlink:href="#DejaVuSans-45" x="154.6875"/>
     </g>
    </g>
   </g>
   <g id="line2d_55">
    <path d="M 75.789886 518.114317 
L 78.741241 503.10741 
L 81.692595 504.129453 
L 84.643949 532.225643 
L 87.595304 516.953181 
L 90.546658 494.370642 
L 93.498012 512.591549 
L 96.449366 532.820753 
L 99.400721 489.287853 
L 102.352075 500.619325 
L 105.303429 540.546835 
L 108.254784 553.034425 
L 111.206138 529.646916 
L 114.157492 526.126474 
L 117.108847 509.224965 
L 120.060201 546.722603 
L 123.011555 543.494099 
L 125.962909 534.752604 
L 128.914264 555.747119 
L 131.865618 539.065568 
L 134.816972 569.188686 
L 137.768327 524.99103 
L 140.719681 564.695436 
L 143.671035 556.861277 
L 146.622389 574.654469 
L 149.573744 539.591461 
L 152.525098 563.213616 
L 155.476452 511.723303 
L 158.427807 540.396446 
L 161.379161 564.567208 
L 164.330515 566.829611 
L 167.28187 566.692052 
L 170.233224 561.913126 
L 173.184578 524.898961 
L 176.135932 583.069525 
L 179.087287 553.612775 
L 182.038641 603.217035 
L 184.989995 566.713078 
L 187.94135 558.376093 
L 190.892704 567.895639 
L 193.844058 558.828534 
L 196.795413 569.168044 
L 199.746767 552.905891 
L 202.698121 565.242692 
L 205.649475 595.089373 
L 208.60083 587.086363 
L 211.552184 557.823496 
L 214.503538 585.655665 
L 217.454893 586.17677 
L 220.406247 572.612455 
L 223.357601 580.373191 
L 226.308955 558.530089 
L 229.26031 570.67227 
L 232.211664 591.972429 
L 235.163018 579.269439 
L 238.114373 577.522233 
L 241.065727 576.333609 
L 244.017081 588.337081 
L 246.968436 549.587497 
L 249.91979 558.834381 
L 252.871144 586.647182 
L 255.822498 572.293367 
L 258.773853 613.387087 
L 261.725207 590.032628 
L 264.676561 594.816573 
L 267.627916 604.498019 
L 270.57927 624.850937 
L 273.530624 616.171814 
L 276.481979 625.092605 
L 279.433333 598.535395 
L 282.384687 581.816197 
L 285.336041 561.116628 
L 288.287396 565.867683 
L 291.23875 603.345891 
L 294.190104 587.963618 
L 297.141459 620.576924 
L 300.092813 625.98131 
L 303.044167 614.941369 
L 305.995521 611.829865 
L 308.946876 598.12407 
L 311.89823 621.784241 
L 314.849584 612.104645 
L 317.800939 608.832286 
L 320.752293 572.069925 
L 323.703647 622.477635 
L 326.655002 634.841072 
L 329.606356 610.760192 
L 332.55771 624.218748 
L 335.509064 620.649272 
L 338.460419 588.047799 
L 341.411773 570.240365 
L 344.363127 589.36181 
L 347.314482 574.141866 
L 350.265836 619.816216 
L 353.21719 648.536952 
L 356.168545 652.758071 
L 359.119899 652.691018 
L 362.071253 631.762304 
L 365.022607 639.633803 
L 367.973962 571.217793 
L 370.925316 553.028485 
L 373.87667 597.406212 
L 376.828025 587.819752 
L 379.779379 632.300905 
L 382.730733 629.266906 
L 385.682087 591.938266 
L 388.633442 631.362551 
L 391.584796 617.493092 
L 394.53615 654.292171 
L 397.487505 593.33813 
L 400.438859 617.056221 
L 403.390213 638.602767 
L 406.341568 625.988983 
L 409.292922 633.923514 
L 412.244276 617.416654 
L 415.19563 619.281115 
L 418.146985 613.632414 
L 421.098339 587.043482 
L 424.049693 528.86219 
L 427.001048 584.860272 
L 429.952402 622.351226 
L 432.903756 593.341123 
L 435.855111 633.429912 
L 438.806465 627.677164 
L 441.757819 662.294061 
L 444.709173 619.200595 
L 447.660528 601.546596 
L 450.611882 572.524223 
L 453.563236 606.782352 
L 456.514591 593.66595 
L 459.465945 597.511419 
L 462.417299 610.236079 
L 465.368653 641.427573 
L 468.320008 603.605016 
L 471.271362 633.507278 
L 474.222716 632.405712 
L 477.174071 611.074015 
L 480.125425 643.338858 
L 483.076779 648.685553 
L 486.028134 658.998504 
L 488.979488 646.674395 
L 491.930842 629.430317 
L 494.882196 655.780928 
L 497.833551 612.958995 
L 500.784905 661.588742 
L 503.736259 660.386482 
L 506.687614 650.358685 
L 506.687614 650.358685 
" clip-path="url(#p206ba5a465)" style="fill: none; stroke: #1f77b4; stroke-width: 1.5; stroke-linecap: square"/>
   </g>
   <g id="line2d_56">
    <path d="M 75.789886 497.363855 
L 78.741241 490.52657 
L 81.692595 481.430029 
L 84.643949 525.302305 
L 87.595304 462.416291 
L 90.546658 429.037105 
L 93.498012 497.770822 
L 96.449366 516.278357 
L 99.400721 394.272727 
L 102.352075 515.264187 
L 105.303429 544.454706 
L 108.254784 525.490479 
L 111.206138 560.071686 
L 114.157492 515.025858 
L 117.108847 491.420002 
L 120.060201 565.768263 
L 123.011555 523.60685 
L 125.962909 561.333854 
L 128.914264 489.796281 
L 131.865618 554.062622 
L 134.816972 539.629016 
L 137.768327 581.916493 
L 140.719681 544.593815 
L 143.671035 570.68177 
L 146.622389 566.262003 
L 149.573744 539.375493 
L 152.525098 556.216703 
L 155.476452 554.482695 
L 158.427807 535.342403 
L 161.379161 570.747611 
L 164.330515 558.714518 
L 167.28187 567.183828 
L 170.233224 570.322688 
L 173.184578 563.710625 
L 176.135932 581.200261 
L 179.087287 591.922796 
L 182.038641 499.33323 
L 184.989995 547.791041 
L 187.94135 572.392864 
L 190.892704 573.688398 
L 193.844058 555.552867 
L 196.795413 568.8946 
L 199.746767 519.94486 
L 202.698121 578.782252 
L 205.649475 559.383756 
L 208.60083 506.965156 
L 211.552184 551.596622 
L 214.503538 566.257276 
L 217.454893 567.498741 
L 220.406247 578.21555 
L 223.357601 512.802944 
L 226.308955 569.621037 
L 229.26031 571.308895 
L 232.211664 614.822994 
L 235.163018 575.880877 
L 238.114373 581.119381 
L 241.065727 592.123079 
L 244.017081 555.675846 
L 246.968436 489.609411 
L 249.91979 599.586261 
L 252.871144 562.884906 
L 255.822498 555.520899 
L 258.773853 597.417216 
L 261.725207 608.257204 
L 264.676561 584.805175 
L 267.627916 633.644038 
L 270.57927 591.031052 
L 273.530624 612.588662 
L 276.481979 604.67284 
L 279.433333 540.711774 
L 282.384687 560.500216 
L 285.336041 544.579895 
L 288.287396 566.053463 
L 291.23875 605.08283 
L 294.190104 566.966739 
L 297.141459 630.520525 
L 300.092813 588.156213 
L 303.044167 625.375503 
L 305.995521 569.672282 
L 308.946876 642.407971 
L 311.89823 602.194148 
L 314.849584 591.846274 
L 317.800939 508.0886 
L 320.752293 628.990776 
L 323.703647 632.862834 
L 326.655002 641.925335 
L 329.606356 584.5286 
L 332.55771 640.355928 
L 335.509064 608.021054 
L 338.460419 604.76626 
L 341.411773 558.087747 
L 344.363127 548.359953 
L 347.314482 575.192916 
L 350.265836 632.479226 
L 353.21719 635.457376 
L 356.168545 654.779703 
L 359.119899 648.927121 
L 362.071253 621.147539 
L 365.022607 617.567112 
L 367.973962 535.312384 
L 370.925316 549.905771 
L 373.87667 621.357645 
L 376.828025 606.840273 
L 379.779379 636.380283 
L 382.730733 603.67632 
L 385.682087 610.68123 
L 388.633442 615.709697 
L 391.584796 602.765223 
L 394.53615 653.230179 
L 397.487505 601.157648 
L 400.438859 637.997865 
L 403.390213 562.255357 
L 406.341568 568.158693 
L 409.292922 646.311852 
L 412.244276 611.836603 
L 415.19563 611.945078 
L 418.146985 608.400856 
L 421.098339 446.227237 
L 424.049693 531.160781 
L 427.001048 635.014528 
L 429.952402 607.50219 
L 432.903756 634.916696 
L 435.855111 594.041025 
L 438.806465 651.961642 
L 441.757819 649.879264 
L 444.709173 637.47983 
L 447.660528 538.092898 
L 450.611882 621.717779 
L 453.563236 552.240413 
L 456.514591 641.652765 
L 459.465945 558.678268 
L 462.417299 631.021379 
L 465.368653 597.396973 
L 468.320008 606.830835 
L 471.271362 636.831726 
L 474.222716 598.231855 
L 477.174071 641.770211 
L 480.125425 623.234276 
L 483.076779 646.403031 
L 486.028134 626.618732 
L 488.979488 612.679197 
L 491.930842 653.272054 
L 494.882196 613.771415 
L 497.833551 639.879284 
L 500.784905 656.941473 
L 503.736259 664.527273 
L 506.687614 632.519014 
L 506.687614 632.519014 
" clip-path="url(#p206ba5a465)" style="fill: none; stroke: #ff7f0e; stroke-width: 1.5; stroke-linecap: square"/>
   </g>
   <g id="patch_15">
    <path d="M 54.245 678.04 
L 54.245 380.76 
" style="fill: none; stroke: #000000; stroke-width: 0.8; stroke-linejoin: miter; stroke-linecap: square"/>
   </g>
   <g id="patch_16">
    <path d="M 528.2325 678.04 
L 528.2325 380.76 
" style="fill: none; stroke: #000000; stroke-width: 0.8; stroke-linejoin: miter; stroke-linecap: square"/>
   </g>
   <g id="patch_17">
    <path d="M 54.245 678.04 
L 528.2325 678.04 
" style="fill: none; stroke: #000000; stroke-width: 0.8; stroke-linejoin: miter; stroke-linecap: square"/>
   </g>
   <g id="patch_18">
    <path d="M 54.245 380.76 
L 528.2325 380.76 
" style="fill: none; stroke: #000000; stroke-width: 0.8; stroke-linejoin: miter; stroke-linecap: square"/>
   </g>
   <g id="text_59">
    <!-- Training and Validation MAE (Skip first 50) -->
    <g transform="translate(165.337187 374.76) scale(0.12 -0.12)">
     <use xlink:href="#DejaVuSans-54"/>
     <use xlink:href="#DejaVuSans-72" x="46.333984"/>
     <use xlink:href="#DejaVuSans-61" x="87.447266"/>
     <use xlink:href="#DejaVuSans-69" x="148.726562"/>
     <use xlink:href="#DejaVuSans-6e" x="176.509766"/>
     <use xlink:href="#DejaVuSans-69" x="239.888672"/>
     <use xlink:href="#DejaVuSans-6e" x="267.671875"/>
     <use xlink:href="#DejaVuSans-67" x="331.050781"/>
     <use xlink:href="#DejaVuSans-20" x="394.527344"/>
     <use xlink:href="#DejaVuSans-61" x="426.314453"/>
     <use xlink:href="#DejaVuSans-6e" x="487.59375"/>
     <use xlink:href="#DejaVuSans-64" x="550.972656"/>
     <use xlink:href="#DejaVuSans-20" x="614.449219"/>
     <use xlink:href="#DejaVuSans-56" x="646.236328"/>
     <use xlink:href="#DejaVuSans-61" x="706.894531"/>
     <use xlink:href="#DejaVuSans-6c" x="768.173828"/>
     <use xlink:href="#DejaVuSans-69" x="795.957031"/>
     <use xlink:href="#DejaVuSans-64" x="823.740234"/>
     <use xlink:href="#DejaVuSans-61" x="887.216797"/>
     <use xlink:href="#DejaVuSans-74" x="948.496094"/>
     <use xlink:href="#DejaVuSans-69" x="987.705078"/>
     <use xlink:href="#DejaVuSans-6f" x="1015.488281"/>
     <use xlink:href="#DejaVuSans-6e" x="1076.669922"/>
     <use xlink:href="#DejaVuSans-20" x="1140.048828"/>
     <use xlink:href="#DejaVuSans-4d" x="1171.835938"/>
     <use xlink:href="#DejaVuSans-41" x="1258.115234"/>
     <use xlink:href="#DejaVuSans-45" x="1326.523438"/>
     <use xlink:href="#DejaVuSans-20" x="1389.707031"/>
     <use xlink:href="#DejaVuSans-28" x="1421.494141"/>
     <use xlink:href="#DejaVuSans-53" x="1460.507812"/>
     <use xlink:href="#DejaVuSans-6b" x="1523.984375"/>
     <use xlink:href="#DejaVuSans-69" x="1581.894531"/>
     <use xlink:href="#DejaVuSans-70" x="1609.677734"/>
     <use xlink:href="#DejaVuSans-20" x="1673.154297"/>
     <use xlink:href="#DejaVuSans-66" x="1704.941406"/>
     <use xlink:href="#DejaVuSans-69" x="1740.146484"/>
     <use xlink:href="#DejaVuSans-72" x="1767.929688"/>
     <use xlink:href="#DejaVuSans-73" x="1809.042969"/>
     <use xlink:href="#DejaVuSans-74" x="1861.142578"/>
     <use xlink:href="#DejaVuSans-20" x="1900.351562"/>
     <use xlink:href="#DejaVuSans-35" x="1932.138672"/>
     <use xlink:href="#DejaVuSans-30" x="1995.761719"/>
     <use xlink:href="#DejaVuSans-29" x="2059.384766"/>
    </g>
   </g>
   <g id="legend_3">
    <g id="patch_19">
     <path d="M 414.885625 418.11625 
L 521.2325 418.11625 
Q 523.2325 418.11625 523.2325 416.11625 
L 523.2325 387.76 
Q 523.2325 385.76 521.2325 385.76 
L 414.885625 385.76 
Q 412.885625 385.76 412.885625 387.76 
L 412.885625 416.11625 
Q 412.885625 418.11625 414.885625 418.11625 
z
" style="fill: #ffffff; opacity: 0.8; stroke: #cccccc; stroke-linejoin: miter"/>
    </g>
    <g id="line2d_57">
     <path d="M 416.885625 393.858438 
L 426.885625 393.858438 
L 436.885625 393.858438 
" style="fill: none; stroke: #1f77b4; stroke-width: 1.5; stroke-linecap: square"/>
    </g>
    <g id="text_60">
     <!-- Training MAE -->
     <g transform="translate(444.885625 397.358438) scale(0.1 -0.1)">
      <use xlink:href="#DejaVuSans-54"/>
      <use xlink:href="#DejaVuSans-72" x="46.333984"/>
      <use xlink:href="#DejaVuSans-61" x="87.447266"/>
      <use xlink:href="#DejaVuSans-69" x="148.726562"/>
      <use xlink:href="#DejaVuSans-6e" x="176.509766"/>
      <use xlink:href="#DejaVuSans-69" x="239.888672"/>
      <use xlink:href="#DejaVuSans-6e" x="267.671875"/>
      <use xlink:href="#DejaVuSans-67" x="331.050781"/>
      <use xlink:href="#DejaVuSans-20" x="394.527344"/>
      <use xlink:href="#DejaVuSans-4d" x="426.314453"/>
      <use xlink:href="#DejaVuSans-41" x="512.59375"/>
      <use xlink:href="#DejaVuSans-45" x="581.001953"/>
     </g>
    </g>
    <g id="line2d_58">
     <path d="M 416.885625 408.536563 
L 426.885625 408.536563 
L 436.885625 408.536563 
" style="fill: none; stroke: #ff7f0e; stroke-width: 1.5; stroke-linecap: square"/>
    </g>
    <g id="text_61">
     <!-- Validation MAE -->
     <g transform="translate(444.885625 412.036563) scale(0.1 -0.1)">
      <use xlink:href="#DejaVuSans-56"/>
      <use xlink:href="#DejaVuSans-61" x="60.658203"/>
      <use xlink:href="#DejaVuSans-6c" x="121.9375"/>
      <use xlink:href="#DejaVuSans-69" x="149.720703"/>
      <use xlink:href="#DejaVuSans-64" x="177.503906"/>
      <use xlink:href="#DejaVuSans-61" x="240.980469"/>
      <use xlink:href="#DejaVuSans-74" x="302.259766"/>
      <use xlink:href="#DejaVuSans-69" x="341.46875"/>
      <use xlink:href="#DejaVuSans-6f" x="369.251953"/>
      <use xlink:href="#DejaVuSans-6e" x="430.433594"/>
      <use xlink:href="#DejaVuSans-20" x="493.8125"/>
      <use xlink:href="#DejaVuSans-4d" x="525.599609"/>
      <use xlink:href="#DejaVuSans-41" x="611.878906"/>
      <use xlink:href="#DejaVuSans-45" x="680.287109"/>
     </g>
    </g>
   </g>
  </g>
  <g id="axes_4"/>
 </g>
 <defs>
  <clipPath id="p92f96d3751">
   <rect x="54.245" y="26.16" width="473.9875" height="297.28"/>
  </clipPath>
  <clipPath id="p409081b358">
   <rect x="595.2125" y="26.16" width="473.9875" height="297.28"/>
  </clipPath>
  <clipPath id="p206ba5a465">
   <rect x="54.245" y="380.76" width="473.9875" height="297.28"/>
  </clipPath>
 </defs>
</svg>
