<?xml version="1.0" encoding="utf-8" standalone="no"?>
<!DOCTYPE svg PUBLIC "-//W3C//DTD SVG 1.1//EN"
  "http://www.w3.org/Graphics/SVG/1.1/DTD/svg11.dtd">
<svg xmlns:xlink="http://www.w3.org/1999/xlink" width="1080pt" height="720pt" viewBox="0 0 1080 720" xmlns="http://www.w3.org/2000/svg" version="1.1">
 <metadata>
  <rdf:RDF xmlns:dc="http://purl.org/dc/elements/1.1/" xmlns:cc="http://creativecommons.org/ns#" xmlns:rdf="http://www.w3.org/1999/02/22-rdf-syntax-ns#">
   <cc:Work>
    <dc:type rdf:resource="http://purl.org/dc/dcmitype/StillImage"/>
    <dc:date>2024-04-13T12:23:53.596291</dc:date>
    <dc:format>image/svg+xml</dc:format>
    <dc:creator>
     <cc:Agent>
      <dc:title>Matplotlib v3.8.3, https://matplotlib.org/</dc:title>
     </cc:Agent>
    </dc:creator>
   </cc:Work>
  </rdf:RDF>
 </metadata>
 <defs>
  <style type="text/css">*{stroke-linejoin: round; stroke-linecap: butt}</style>
 </defs>
 <g id="figure_1">
  <g id="patch_1">
   <path d="M 0 720 
L 1080 720 
L 1080 0 
L 0 0 
z
" style="fill: #ffffff"/>
  </g>
  <g id="axes_1">
   <g id="patch_2">
    <path d="M 54.245 323.44 
L 531.405 323.44 
L 531.405 26.16 
L 54.245 26.16 
z
" style="fill: #ffffff"/>
   </g>
   <g id="matplotlib.axis_1">
    <g id="xtick_1">
     <g id="line2d_1">
      <defs>
       <path id="ma375de94af" d="M 0 0 
L 0 3.5 
" style="stroke: #000000; stroke-width: 0.8"/>
      </defs>
      <g>
       <use xlink:href="#ma375de94af" x="74.297178" y="323.44" style="stroke: #000000; stroke-width: 0.8"/>
      </g>
     </g>
     <g id="text_1">
      <!-- 0 -->
      <g transform="translate(71.115928 338.038438) scale(0.1 -0.1)">
       <defs>
        <path id="DejaVuSans-30" d="M 2034 4250 
Q 1547 4250 1301 3770 
Q 1056 3291 1056 2328 
Q 1056 1369 1301 889 
Q 1547 409 2034 409 
Q 2525 409 2770 889 
Q 3016 1369 3016 2328 
Q 3016 3291 2770 3770 
Q 2525 4250 2034 4250 
z
M 2034 4750 
Q 2819 4750 3233 4129 
Q 3647 3509 3647 2328 
Q 3647 1150 3233 529 
Q 2819 -91 2034 -91 
Q 1250 -91 836 529 
Q 422 1150 422 2328 
Q 422 3509 836 4129 
Q 1250 4750 2034 4750 
z
" transform="scale(0.015625)"/>
       </defs>
       <use xlink:href="#DejaVuSans-30"/>
      </g>
     </g>
    </g>
    <g id="xtick_2">
     <g id="line2d_2">
      <g>
       <use xlink:href="#ma375de94af" x="156.142804" y="323.44" style="stroke: #000000; stroke-width: 0.8"/>
      </g>
     </g>
     <g id="text_2">
      <!-- 50 -->
      <g transform="translate(149.780304 338.038438) scale(0.1 -0.1)">
       <defs>
        <path id="DejaVuSans-35" d="M 691 4666 
L 3169 4666 
L 3169 4134 
L 1269 4134 
L 1269 2991 
Q 1406 3038 1543 3061 
Q 1681 3084 1819 3084 
Q 2600 3084 3056 2656 
Q 3513 2228 3513 1497 
Q 3513 744 3044 326 
Q 2575 -91 1722 -91 
Q 1428 -91 1123 -41 
Q 819 9 494 109 
L 494 744 
Q 775 591 1075 516 
Q 1375 441 1709 441 
Q 2250 441 2565 725 
Q 2881 1009 2881 1497 
Q 2881 1984 2565 2268 
Q 2250 2553 1709 2553 
Q 1456 2553 1204 2497 
Q 953 2441 691 2322 
L 691 4666 
z
" transform="scale(0.015625)"/>
       </defs>
       <use xlink:href="#DejaVuSans-35"/>
       <use xlink:href="#DejaVuSans-30" x="63.623047"/>
      </g>
     </g>
    </g>
    <g id="xtick_3">
     <g id="line2d_3">
      <g>
       <use xlink:href="#ma375de94af" x="237.988431" y="323.44" style="stroke: #000000; stroke-width: 0.8"/>
      </g>
     </g>
     <g id="text_3">
      <!-- 100 -->
      <g transform="translate(228.444681 338.038438) scale(0.1 -0.1)">
       <defs>
        <path id="DejaVuSans-31" d="M 794 531 
L 1825 531 
L 1825 4091 
L 703 3866 
L 703 4441 
L 1819 4666 
L 2450 4666 
L 2450 531 
L 3481 531 
L 3481 0 
L 794 0 
L 794 531 
z
" transform="scale(0.015625)"/>
       </defs>
       <use xlink:href="#DejaVuSans-31"/>
       <use xlink:href="#DejaVuSans-30" x="63.623047"/>
       <use xlink:href="#DejaVuSans-30" x="127.246094"/>
      </g>
     </g>
    </g>
    <g id="xtick_4">
     <g id="line2d_4">
      <g>
       <use xlink:href="#ma375de94af" x="319.834057" y="323.44" style="stroke: #000000; stroke-width: 0.8"/>
      </g>
     </g>
     <g id="text_4">
      <!-- 150 -->
      <g transform="translate(310.290307 338.038438) scale(0.1 -0.1)">
       <use xlink:href="#DejaVuSans-31"/>
       <use xlink:href="#DejaVuSans-35" x="63.623047"/>
       <use xlink:href="#DejaVuSans-30" x="127.246094"/>
      </g>
     </g>
    </g>
    <g id="xtick_5">
     <g id="line2d_5">
      <g>
       <use xlink:href="#ma375de94af" x="401.679683" y="323.44" style="stroke: #000000; stroke-width: 0.8"/>
      </g>
     </g>
     <g id="text_5">
      <!-- 200 -->
      <g transform="translate(392.135933 338.038438) scale(0.1 -0.1)">
       <defs>
        <path id="DejaVuSans-32" d="M 1228 531 
L 3431 531 
L 3431 0 
L 469 0 
L 469 531 
Q 828 903 1448 1529 
Q 2069 2156 2228 2338 
Q 2531 2678 2651 2914 
Q 2772 3150 2772 3378 
Q 2772 3750 2511 3984 
Q 2250 4219 1831 4219 
Q 1534 4219 1204 4116 
Q 875 4013 500 3803 
L 500 4441 
Q 881 4594 1212 4672 
Q 1544 4750 1819 4750 
Q 2544 4750 2975 4387 
Q 3406 4025 3406 3419 
Q 3406 3131 3298 2873 
Q 3191 2616 2906 2266 
Q 2828 2175 2409 1742 
Q 1991 1309 1228 531 
z
" transform="scale(0.015625)"/>
       </defs>
       <use xlink:href="#DejaVuSans-32"/>
       <use xlink:href="#DejaVuSans-30" x="63.623047"/>
       <use xlink:href="#DejaVuSans-30" x="127.246094"/>
      </g>
     </g>
    </g>
    <g id="xtick_6">
     <g id="line2d_6">
      <g>
       <use xlink:href="#ma375de94af" x="483.525309" y="323.44" style="stroke: #000000; stroke-width: 0.8"/>
      </g>
     </g>
     <g id="text_6">
      <!-- 250 -->
      <g transform="translate(473.981559 338.038438) scale(0.1 -0.1)">
       <use xlink:href="#DejaVuSans-32"/>
       <use xlink:href="#DejaVuSans-35" x="63.623047"/>
       <use xlink:href="#DejaVuSans-30" x="127.246094"/>
      </g>
     </g>
    </g>
    <g id="text_7">
     <!-- Epochs -->
     <g transform="translate(274.909375 351.716563) scale(0.1 -0.1)">
      <defs>
       <path id="DejaVuSans-45" d="M 628 4666 
L 3578 4666 
L 3578 4134 
L 1259 4134 
L 1259 2753 
L 3481 2753 
L 3481 2222 
L 1259 2222 
L 1259 531 
L 3634 531 
L 3634 0 
L 628 0 
L 628 4666 
z
" transform="scale(0.015625)"/>
       <path id="DejaVuSans-70" d="M 1159 525 
L 1159 -1331 
L 581 -1331 
L 581 3500 
L 1159 3500 
L 1159 2969 
Q 1341 3281 1617 3432 
Q 1894 3584 2278 3584 
Q 2916 3584 3314 3078 
Q 3713 2572 3713 1747 
Q 3713 922 3314 415 
Q 2916 -91 2278 -91 
Q 1894 -91 1617 61 
Q 1341 213 1159 525 
z
M 3116 1747 
Q 3116 2381 2855 2742 
Q 2594 3103 2138 3103 
Q 1681 3103 1420 2742 
Q 1159 2381 1159 1747 
Q 1159 1113 1420 752 
Q 1681 391 2138 391 
Q 2594 391 2855 752 
Q 3116 1113 3116 1747 
z
" transform="scale(0.015625)"/>
       <path id="DejaVuSans-6f" d="M 1959 3097 
Q 1497 3097 1228 2736 
Q 959 2375 959 1747 
Q 959 1119 1226 758 
Q 1494 397 1959 397 
Q 2419 397 2687 759 
Q 2956 1122 2956 1747 
Q 2956 2369 2687 2733 
Q 2419 3097 1959 3097 
z
M 1959 3584 
Q 2709 3584 3137 3096 
Q 3566 2609 3566 1747 
Q 3566 888 3137 398 
Q 2709 -91 1959 -91 
Q 1206 -91 779 398 
Q 353 888 353 1747 
Q 353 2609 779 3096 
Q 1206 3584 1959 3584 
z
" transform="scale(0.015625)"/>
       <path id="DejaVuSans-63" d="M 3122 3366 
L 3122 2828 
Q 2878 2963 2633 3030 
Q 2388 3097 2138 3097 
Q 1578 3097 1268 2742 
Q 959 2388 959 1747 
Q 959 1106 1268 751 
Q 1578 397 2138 397 
Q 2388 397 2633 464 
Q 2878 531 3122 666 
L 3122 134 
Q 2881 22 2623 -34 
Q 2366 -91 2075 -91 
Q 1284 -91 818 406 
Q 353 903 353 1747 
Q 353 2603 823 3093 
Q 1294 3584 2113 3584 
Q 2378 3584 2631 3529 
Q 2884 3475 3122 3366 
z
" transform="scale(0.015625)"/>
       <path id="DejaVuSans-68" d="M 3513 2113 
L 3513 0 
L 2938 0 
L 2938 2094 
Q 2938 2591 2744 2837 
Q 2550 3084 2163 3084 
Q 1697 3084 1428 2787 
Q 1159 2491 1159 1978 
L 1159 0 
L 581 0 
L 581 4863 
L 1159 4863 
L 1159 2956 
Q 1366 3272 1645 3428 
Q 1925 3584 2291 3584 
Q 2894 3584 3203 3211 
Q 3513 2838 3513 2113 
z
" transform="scale(0.015625)"/>
       <path id="DejaVuSans-73" d="M 2834 3397 
L 2834 2853 
Q 2591 2978 2328 3040 
Q 2066 3103 1784 3103 
Q 1356 3103 1142 2972 
Q 928 2841 928 2578 
Q 928 2378 1081 2264 
Q 1234 2150 1697 2047 
L 1894 2003 
Q 2506 1872 2764 1633 
Q 3022 1394 3022 966 
Q 3022 478 2636 193 
Q 2250 -91 1575 -91 
Q 1294 -91 989 -36 
Q 684 19 347 128 
L 347 722 
Q 666 556 975 473 
Q 1284 391 1588 391 
Q 1994 391 2212 530 
Q 2431 669 2431 922 
Q 2431 1156 2273 1281 
Q 2116 1406 1581 1522 
L 1381 1569 
Q 847 1681 609 1914 
Q 372 2147 372 2553 
Q 372 3047 722 3315 
Q 1072 3584 1716 3584 
Q 2034 3584 2315 3537 
Q 2597 3491 2834 3397 
z
" transform="scale(0.015625)"/>
      </defs>
      <use xlink:href="#DejaVuSans-45"/>
      <use xlink:href="#DejaVuSans-70" x="63.183594"/>
      <use xlink:href="#DejaVuSans-6f" x="126.660156"/>
      <use xlink:href="#DejaVuSans-63" x="187.841797"/>
      <use xlink:href="#DejaVuSans-68" x="242.822266"/>
      <use xlink:href="#DejaVuSans-73" x="306.201172"/>
     </g>
    </g>
   </g>
   <g id="matplotlib.axis_2">
    <g id="ytick_1">
     <g id="line2d_7">
      <defs>
       <path id="m8489c7eccc" d="M 0 0 
L -3.5 0 
" style="stroke: #000000; stroke-width: 0.8"/>
      </defs>
      <g>
       <use xlink:href="#m8489c7eccc" x="54.245" y="310.782143" style="stroke: #000000; stroke-width: 0.8"/>
      </g>
     </g>
     <g id="text_8">
      <!-- 0.00 -->
      <g transform="translate(24.979375 314.581362) scale(0.1 -0.1)">
       <defs>
        <path id="DejaVuSans-2e" d="M 684 794 
L 1344 794 
L 1344 0 
L 684 0 
L 684 794 
z
" transform="scale(0.015625)"/>
       </defs>
       <use xlink:href="#DejaVuSans-30"/>
       <use xlink:href="#DejaVuSans-2e" x="63.623047"/>
       <use xlink:href="#DejaVuSans-30" x="95.410156"/>
       <use xlink:href="#DejaVuSans-30" x="159.033203"/>
      </g>
     </g>
    </g>
    <g id="ytick_2">
     <g id="line2d_8">
      <g>
       <use xlink:href="#m8489c7eccc" x="54.245" y="254.476885" style="stroke: #000000; stroke-width: 0.8"/>
      </g>
     </g>
     <g id="text_9">
      <!-- 0.05 -->
      <g transform="translate(24.979375 258.276104) scale(0.1 -0.1)">
       <use xlink:href="#DejaVuSans-30"/>
       <use xlink:href="#DejaVuSans-2e" x="63.623047"/>
       <use xlink:href="#DejaVuSans-30" x="95.410156"/>
       <use xlink:href="#DejaVuSans-35" x="159.033203"/>
      </g>
     </g>
    </g>
    <g id="ytick_3">
     <g id="line2d_9">
      <g>
       <use xlink:href="#m8489c7eccc" x="54.245" y="198.171627" style="stroke: #000000; stroke-width: 0.8"/>
      </g>
     </g>
     <g id="text_10">
      <!-- 0.10 -->
      <g transform="translate(24.979375 201.970845) scale(0.1 -0.1)">
       <use xlink:href="#DejaVuSans-30"/>
       <use xlink:href="#DejaVuSans-2e" x="63.623047"/>
       <use xlink:href="#DejaVuSans-31" x="95.410156"/>
       <use xlink:href="#DejaVuSans-30" x="159.033203"/>
      </g>
     </g>
    </g>
    <g id="ytick_4">
     <g id="line2d_10">
      <g>
       <use xlink:href="#m8489c7eccc" x="54.245" y="141.866368" style="stroke: #000000; stroke-width: 0.8"/>
      </g>
     </g>
     <g id="text_11">
      <!-- 0.15 -->
      <g transform="translate(24.979375 145.665587) scale(0.1 -0.1)">
       <use xlink:href="#DejaVuSans-30"/>
       <use xlink:href="#DejaVuSans-2e" x="63.623047"/>
       <use xlink:href="#DejaVuSans-31" x="95.410156"/>
       <use xlink:href="#DejaVuSans-35" x="159.033203"/>
      </g>
     </g>
    </g>
    <g id="ytick_5">
     <g id="line2d_11">
      <g>
       <use xlink:href="#m8489c7eccc" x="54.245" y="85.56111" style="stroke: #000000; stroke-width: 0.8"/>
      </g>
     </g>
     <g id="text_12">
      <!-- 0.20 -->
      <g transform="translate(24.979375 89.360329) scale(0.1 -0.1)">
       <use xlink:href="#DejaVuSans-30"/>
       <use xlink:href="#DejaVuSans-2e" x="63.623047"/>
       <use xlink:href="#DejaVuSans-32" x="95.410156"/>
       <use xlink:href="#DejaVuSans-30" x="159.033203"/>
      </g>
     </g>
    </g>
    <g id="ytick_6">
     <g id="line2d_12">
      <g>
       <use xlink:href="#m8489c7eccc" x="54.245" y="29.255852" style="stroke: #000000; stroke-width: 0.8"/>
      </g>
     </g>
     <g id="text_13">
      <!-- 0.25 -->
      <g transform="translate(24.979375 33.05507) scale(0.1 -0.1)">
       <use xlink:href="#DejaVuSans-30"/>
       <use xlink:href="#DejaVuSans-2e" x="63.623047"/>
       <use xlink:href="#DejaVuSans-32" x="95.410156"/>
       <use xlink:href="#DejaVuSans-35" x="159.033203"/>
      </g>
     </g>
    </g>
    <g id="text_14">
     <!-- Loss -->
     <g transform="translate(18.899687 185.767188) rotate(-90) scale(0.1 -0.1)">
      <defs>
       <path id="DejaVuSans-4c" d="M 628 4666 
L 1259 4666 
L 1259 531 
L 3531 531 
L 3531 0 
L 628 0 
L 628 4666 
z
" transform="scale(0.015625)"/>
      </defs>
      <use xlink:href="#DejaVuSans-4c"/>
      <use xlink:href="#DejaVuSans-6f" x="53.962891"/>
      <use xlink:href="#DejaVuSans-73" x="115.144531"/>
      <use xlink:href="#DejaVuSans-73" x="167.244141"/>
     </g>
    </g>
   </g>
   <g id="line2d_13">
    <path d="M 75.934091 39.672727 
L 77.571003 228.032954 
L 79.207916 236.809264 
L 80.844828 242.167789 
L 82.481741 246.380649 
L 84.118654 250.971711 
L 85.755566 257.322454 
L 87.392479 260.899014 
L 89.029391 266.043624 
L 90.666304 268.201844 
L 92.303216 273.776549 
L 93.940129 276.861871 
L 95.577041 277.921564 
L 97.213954 280.438003 
L 98.850866 283.532055 
L 100.487779 285.647639 
L 102.124691 287.962633 
L 103.761604 288.628875 
L 105.398516 290.356037 
L 107.035429 292.564728 
L 108.672341 289.233902 
L 110.309254 293.929913 
L 111.946166 294.327331 
L 113.583079 296.605558 
L 115.219991 294.424975 
L 116.856904 298.042832 
L 118.493816 298.065551 
L 120.130729 298.283741 
L 121.767642 296.855243 
L 123.404554 299.09016 
L 125.041467 300.287184 
L 126.678379 300.672701 
L 128.315292 297.324121 
L 129.952204 300.588737 
L 131.589117 301.308988 
L 133.226029 298.926531 
L 134.862942 299.052741 
L 136.499854 301.397921 
L 138.136767 302.032798 
L 139.773679 302.032175 
L 141.410592 301.780481 
L 143.047504 302.093648 
L 144.684417 302.894997 
L 146.321329 304.209375 
L 147.958242 302.027082 
L 149.595154 304.071467 
L 151.232067 303.25551 
L 152.868979 303.324118 
L 154.505892 303.660458 
L 156.142804 304.887623 
L 157.779717 304.545939 
L 159.41663 304.655429 
L 161.053542 305.092599 
L 164.327367 304.334971 
L 165.96428 305.645855 
L 167.601192 305.474228 
L 169.238105 306.242967 
L 170.875017 306.402918 
L 172.51193 305.522242 
L 174.148842 306.601479 
L 175.785755 306.000591 
L 177.422667 304.329505 
L 179.05958 302.866419 
L 180.696492 305.390849 
L 182.333405 302.60921 
L 183.970317 306.827121 
L 185.60723 306.656787 
L 187.244142 307.03381 
L 188.881055 307.285727 
L 192.15488 307.195919 
L 193.791792 307.464301 
L 195.428705 306.949116 
L 197.065617 307.598955 
L 198.70253 307.743767 
L 201.976355 306.612694 
L 203.613268 306.650396 
L 205.25018 304.004585 
L 206.887093 305.658289 
L 208.524005 304.061569 
L 210.160918 306.125868 
L 211.79783 307.513407 
L 213.434743 308.470011 
L 215.071655 308.026416 
L 216.708568 307.783619 
L 218.34548 306.086599 
L 219.982393 308.067902 
L 221.619305 304.900335 
L 223.256218 307.203111 
L 224.89313 307.983435 
L 226.530043 307.578934 
L 228.166955 307.829246 
L 229.803868 307.823481 
L 231.44078 308.380938 
L 233.077693 308.487634 
L 236.351518 307.154841 
L 237.988431 307.185098 
L 239.625343 308.116968 
L 242.899168 308.639885 
L 244.536081 308.664217 
L 246.172993 307.622694 
L 247.809906 303.08468 
L 249.446818 304.14662 
L 251.083731 307.235775 
L 252.720643 306.740233 
L 254.357556 307.486385 
L 255.994468 306.672645 
L 257.631381 308.055797 
L 259.268293 306.902161 
L 260.905206 305.039319 
L 262.542118 306.384923 
L 264.179031 306.621425 
L 265.815943 307.42242 
L 267.452856 306.182694 
L 269.089768 308.631789 
L 270.726681 307.673213 
L 272.363593 308.482716 
L 274.000506 308.744692 
L 275.637419 308.760332 
L 277.274331 308.977252 
L 278.911244 309.021262 
L 280.548156 308.590416 
L 282.185069 308.304654 
L 283.821981 307.834145 
L 285.458894 308.066828 
L 287.095806 307.308173 
L 288.732719 307.901537 
L 290.369631 308.110139 
L 292.006544 307.429426 
L 293.643456 308.327 
L 295.280369 308.790006 
L 296.917281 308.440609 
L 298.554194 308.279355 
L 300.191106 309.115474 
L 301.828019 308.46473 
L 303.464931 308.147639 
L 305.101844 308.774281 
L 306.738756 308.796099 
L 308.375669 307.949587 
L 311.649494 308.013927 
L 313.286407 308.435505 
L 314.923319 295.513291 
L 316.560232 301.940925 
L 318.197144 306.729479 
L 321.470969 308.496742 
L 323.107882 309.111674 
L 324.744794 308.147912 
L 326.381707 308.776818 
L 328.018619 307.823004 
L 329.655532 308.817002 
L 332.929357 308.728873 
L 334.566269 307.934881 
L 337.840094 308.093438 
L 339.477007 308.684644 
L 341.113919 308.728472 
L 342.750832 308.289107 
L 344.387744 308.24528 
L 346.024657 308.768969 
L 347.661569 308.412247 
L 349.298482 308.968119 
L 350.935395 307.964665 
L 352.572307 307.570495 
L 354.20922 308.749018 
L 355.846132 308.123077 
L 357.483045 308.626145 
L 359.119957 308.798849 
L 360.75687 309.324799 
L 362.393782 309.303981 
L 364.030695 306.85883 
L 365.667607 307.829665 
L 367.30452 308.28025 
L 368.941432 308.10225 
L 370.578345 304.071555 
L 372.215257 302.228266 
L 373.85217 308.58996 
L 375.489082 308.100778 
L 377.125995 308.156728 
L 378.762907 308.436521 
L 380.39982 307.895672 
L 382.036732 308.294096 
L 383.673645 309.287266 
L 386.94747 308.240695 
L 388.584383 307.453605 
L 390.221295 308.368552 
L 391.858208 309.411266 
L 393.49512 308.30898 
L 395.132033 309.40531 
L 396.768945 309.725156 
L 398.405858 309.518887 
L 400.04277 308.656084 
L 401.679683 308.408615 
L 403.316595 303.031021 
L 404.953508 302.428344 
L 406.59042 306.545288 
L 408.227333 308.193851 
L 409.864245 309.28924 
L 411.501158 307.056879 
L 413.13807 308.356917 
L 414.774983 309.061795 
L 416.411895 308.52338 
L 419.68572 309.283178 
L 421.322633 309.04137 
L 422.959545 309.183871 
L 424.596458 308.907739 
L 426.23337 309.671402 
L 427.870283 309.627311 
L 429.507196 309.194328 
L 431.144108 308.072145 
L 432.781021 308.658102 
L 434.417933 307.860062 
L 436.054846 308.854011 
L 437.691758 308.597456 
L 439.328671 305.909254 
L 440.965583 300.940243 
L 442.602496 300.650978 
L 444.239408 304.864625 
L 445.876321 308.475751 
L 449.150146 308.625011 
L 450.787058 308.48853 
L 452.423971 309.169669 
L 454.060883 309.088523 
L 455.697796 309.384277 
L 457.334708 308.298631 
L 458.971621 308.445892 
L 460.608533 309.057844 
L 462.245446 306.574303 
L 463.882358 308.808964 
L 465.519271 308.345013 
L 467.156184 308.661634 
L 468.793096 309.629639 
L 470.430009 309.363863 
L 472.066921 308.773961 
L 473.703834 308.845872 
L 475.340746 309.377321 
L 476.977659 309.196455 
L 478.614571 307.860871 
L 480.251484 308.091822 
L 481.888396 309.683385 
L 483.525309 308.926319 
L 485.162221 308.718605 
L 486.799134 308.825265 
L 488.436046 309.252341 
L 490.072959 308.488147 
L 491.709871 308.452343 
L 493.346784 304.123384 
L 494.983696 306.022719 
L 496.620609 308.477483 
L 498.257521 309.594375 
L 499.894434 308.808781 
L 501.531346 307.898103 
L 503.168259 308.639556 
L 504.805172 309.176092 
L 506.442084 309.459254 
L 508.078997 308.989974 
L 509.715909 309.473183 
L 509.715909 309.473183 
" clip-path="url(#p4b5fe82a72)" style="fill: none; stroke: #1f77b4; stroke-width: 1.5; stroke-linecap: square"/>
   </g>
   <g id="line2d_14">
    <path d="M 75.934091 215.344742 
L 77.571003 230.231212 
L 79.207916 233.670489 
L 80.844828 243.99876 
L 82.481741 240.465841 
L 84.118654 253.376174 
L 85.755566 258.381155 
L 87.392479 253.094093 
L 89.029391 262.06031 
L 90.666304 270.288589 
L 92.303216 270.896785 
L 93.940129 275.744298 
L 95.577041 271.77832 
L 97.213954 278.072104 
L 98.850866 287.164448 
L 100.487779 287.979361 
L 102.124691 290.151465 
L 103.761604 290.78547 
L 105.398516 290.859076 
L 107.035429 292.527191 
L 108.672341 286.359746 
L 110.309254 293.281744 
L 111.946166 297.970101 
L 113.583079 291.007194 
L 115.219991 298.071453 
L 116.856904 298.373168 
L 118.493816 297.85362 
L 120.130729 294.115597 
L 121.767642 299.714593 
L 123.404554 297.356137 
L 125.041467 300.09138 
L 126.678379 294.386223 
L 128.315292 299.996076 
L 129.952204 301.548143 
L 131.589117 300.36204 
L 133.226029 296.174323 
L 134.862942 302.112367 
L 136.499854 303.068122 
L 138.136767 300.979444 
L 139.773679 303.419502 
L 141.410592 302.917707 
L 143.047504 304.275981 
L 144.684417 304.78601 
L 146.321329 305.745245 
L 147.958242 303.030239 
L 149.595154 301.58145 
L 151.232067 303.365543 
L 152.868979 305.565555 
L 154.505892 303.32693 
L 156.142804 304.654612 
L 157.779717 304.02183 
L 159.41663 303.110162 
L 161.053542 306.590485 
L 162.690455 303.129021 
L 164.327367 301.823657 
L 165.96428 306.175591 
L 167.601192 307.302256 
L 169.238105 306.806395 
L 170.875017 307.419255 
L 172.51193 306.281173 
L 174.148842 306.910236 
L 175.785755 303.242679 
L 177.422667 303.650574 
L 179.05958 303.683264 
L 180.696492 301.995448 
L 182.333405 306.313723 
L 183.970317 293.916085 
L 185.60723 307.763038 
L 187.244142 306.727183 
L 188.881055 307.237266 
L 190.517967 305.802413 
L 192.15488 305.910654 
L 193.791792 308.051127 
L 195.428705 307.498358 
L 197.065617 306.344091 
L 198.70253 307.184632 
L 200.339443 306.970936 
L 201.976355 307.520282 
L 203.613268 302.451835 
L 205.25018 306.554787 
L 206.887093 306.745814 
L 208.524005 304.086809 
L 210.160918 308.408177 
L 211.79783 308.311538 
L 213.434743 307.978332 
L 215.071655 306.693538 
L 216.708568 305.857717 
L 218.34548 306.518372 
L 219.982393 307.889983 
L 221.619305 306.443832 
L 223.256218 308.544603 
L 224.89313 307.865393 
L 226.530043 307.322454 
L 228.166955 308.234685 
L 229.803868 308.775887 
L 231.44078 308.914886 
L 233.077693 307.775526 
L 234.714605 305.897674 
L 236.351518 305.700844 
L 237.988431 308.296614 
L 239.625343 308.391212 
L 241.262256 307.803849 
L 242.899168 308.869606 
L 244.536081 306.32419 
L 246.172993 308.667648 
L 247.809906 302.069506 
L 249.446818 306.298255 
L 251.083731 307.08084 
L 252.720643 307.646458 
L 254.357556 308.068487 
L 257.631381 308.255647 
L 259.268293 306.004253 
L 260.905206 306.210782 
L 262.542118 307.26154 
L 264.179031 306.575303 
L 265.815943 307.923803 
L 267.452856 307.654003 
L 269.089768 308.488195 
L 270.726681 308.052247 
L 272.363593 308.002689 
L 274.000506 309.044709 
L 275.637419 309.389111 
L 278.911244 308.637497 
L 280.548156 308.901556 
L 282.185069 308.364984 
L 283.821981 308.766791 
L 285.458894 306.189289 
L 287.095806 308.828015 
L 288.732719 309.243548 
L 290.369631 306.934572 
L 292.006544 307.358253 
L 293.643456 307.57099 
L 295.280369 308.919197 
L 296.917281 308.173825 
L 298.554194 309.32593 
L 300.191106 308.879932 
L 301.828019 306.895224 
L 303.464931 307.66704 
L 305.101844 309.004986 
L 306.738756 308.930995 
L 308.375669 307.374952 
L 310.012581 308.66915 
L 311.649494 308.790901 
L 313.286407 308.600532 
L 314.923319 301.988036 
L 316.560232 303.806036 
L 318.197144 308.558875 
L 319.834057 308.77836 
L 321.470969 308.748636 
L 323.107882 308.23532 
L 324.744794 308.539758 
L 326.381707 307.762339 
L 328.018619 309.259363 
L 329.655532 309.329251 
L 332.929357 308.903733 
L 334.566269 308.314896 
L 336.203182 307.474422 
L 337.840094 309.547768 
L 339.477007 306.213212 
L 341.113919 308.634728 
L 342.750832 300.317 
L 344.387744 309.371986 
L 346.024657 308.958793 
L 347.661569 309.179217 
L 349.298482 307.655623 
L 350.935395 308.369244 
L 352.572307 308.338776 
L 354.20922 309.603505 
L 355.846132 308.829912 
L 357.483045 308.564989 
L 359.119957 308.970612 
L 360.75687 306.207918 
L 362.393782 306.555011 
L 364.030695 307.962894 
L 365.667607 308.594407 
L 367.30452 308.835027 
L 368.941432 308.365618 
L 370.578345 294.864843 
L 372.215257 308.411125 
L 373.85217 309.060938 
L 375.489082 304.907024 
L 377.125995 306.965233 
L 378.762907 307.64447 
L 380.39982 307.934145 
L 382.036732 309.122171 
L 383.673645 308.5213 
L 385.310557 308.390795 
L 386.94747 307.910957 
L 388.584383 308.500914 
L 390.221295 309.276834 
L 391.858208 308.910506 
L 393.49512 309.540651 
L 395.132033 309.419798 
L 396.768945 309.885083 
L 398.405858 308.328558 
L 400.04277 308.542028 
L 401.679683 308.295508 
L 403.316595 298.818213 
L 404.953508 305.670999 
L 406.59042 307.369627 
L 408.227333 309.311599 
L 409.864245 308.134852 
L 411.501158 307.800249 
L 413.13807 309.727201 
L 414.774983 309.422619 
L 416.411895 309.354597 
L 418.048808 308.2375 
L 419.68572 308.201208 
L 421.322633 309.425327 
L 424.596458 309.66644 
L 426.23337 309.57348 
L 427.870283 309.927273 
L 429.507196 308.964284 
L 431.144108 307.200119 
L 432.781021 308.520577 
L 434.417933 307.866553 
L 436.054846 309.508578 
L 437.691758 306.930999 
L 439.328671 295.450892 
L 440.965583 291.619487 
L 442.602496 302.659674 
L 444.239408 307.79967 
L 445.876321 308.083419 
L 447.513233 308.975289 
L 449.150146 307.566463 
L 450.787058 309.488303 
L 452.423971 309.560495 
L 455.697796 309.138214 
L 457.334708 307.995684 
L 458.971621 308.892333 
L 460.608533 309.462858 
L 462.245446 307.55181 
L 463.882358 308.997049 
L 465.519271 308.014056 
L 467.156184 309.467841 
L 468.793096 309.419935 
L 470.430009 309.696585 
L 472.066921 308.795792 
L 473.703834 309.599379 
L 475.340746 309.261634 
L 476.977659 306.227908 
L 478.614571 306.141449 
L 480.251484 309.56634 
L 481.888396 309.604938 
L 483.525309 309.061541 
L 485.162221 309.058088 
L 486.799134 308.441779 
L 488.436046 307.966055 
L 490.072959 309.465904 
L 491.709871 309.265631 
L 493.346784 305.617495 
L 494.983696 309.386871 
L 498.257521 309.749302 
L 499.894434 308.371809 
L 501.531346 308.648155 
L 504.805172 309.473254 
L 506.442084 309.740191 
L 509.715909 308.837942 
L 509.715909 308.837942 
" clip-path="url(#p4b5fe82a72)" style="fill: none; stroke: #ff7f0e; stroke-width: 1.5; stroke-linecap: square"/>
   </g>
   <g id="patch_3">
    <path d="M 54.245 323.44 
L 54.245 26.16 
" style="fill: none; stroke: #000000; stroke-width: 0.8; stroke-linejoin: miter; stroke-linecap: square"/>
   </g>
   <g id="patch_4">
    <path d="M 531.405 323.44 
L 531.405 26.16 
" style="fill: none; stroke: #000000; stroke-width: 0.8; stroke-linejoin: miter; stroke-linecap: square"/>
   </g>
   <g id="patch_5">
    <path d="M 54.245 323.44 
L 531.405 323.44 
" style="fill: none; stroke: #000000; stroke-width: 0.8; stroke-linejoin: miter; stroke-linecap: square"/>
   </g>
   <g id="patch_6">
    <path d="M 54.245 26.16 
L 531.405 26.16 
" style="fill: none; stroke: #000000; stroke-width: 0.8; stroke-linejoin: miter; stroke-linecap: square"/>
   </g>
   <g id="text_15">
    <!-- Training and Validation Loss -->
    <g transform="translate(209.355625 20.16) scale(0.12 -0.12)">
     <defs>
      <path id="DejaVuSans-54" d="M -19 4666 
L 3928 4666 
L 3928 4134 
L 2272 4134 
L 2272 0 
L 1638 0 
L 1638 4134 
L -19 4134 
L -19 4666 
z
" transform="scale(0.015625)"/>
      <path id="DejaVuSans-72" d="M 2631 2963 
Q 2534 3019 2420 3045 
Q 2306 3072 2169 3072 
Q 1681 3072 1420 2755 
Q 1159 2438 1159 1844 
L 1159 0 
L 581 0 
L 581 3500 
L 1159 3500 
L 1159 2956 
Q 1341 3275 1631 3429 
Q 1922 3584 2338 3584 
Q 2397 3584 2469 3576 
Q 2541 3569 2628 3553 
L 2631 2963 
z
" transform="scale(0.015625)"/>
      <path id="DejaVuSans-61" d="M 2194 1759 
Q 1497 1759 1228 1600 
Q 959 1441 959 1056 
Q 959 750 1161 570 
Q 1363 391 1709 391 
Q 2188 391 2477 730 
Q 2766 1069 2766 1631 
L 2766 1759 
L 2194 1759 
z
M 3341 1997 
L 3341 0 
L 2766 0 
L 2766 531 
Q 2569 213 2275 61 
Q 1981 -91 1556 -91 
Q 1019 -91 701 211 
Q 384 513 384 1019 
Q 384 1609 779 1909 
Q 1175 2209 1959 2209 
L 2766 2209 
L 2766 2266 
Q 2766 2663 2505 2880 
Q 2244 3097 1772 3097 
Q 1472 3097 1187 3025 
Q 903 2953 641 2809 
L 641 3341 
Q 956 3463 1253 3523 
Q 1550 3584 1831 3584 
Q 2591 3584 2966 3190 
Q 3341 2797 3341 1997 
z
" transform="scale(0.015625)"/>
      <path id="DejaVuSans-69" d="M 603 3500 
L 1178 3500 
L 1178 0 
L 603 0 
L 603 3500 
z
M 603 4863 
L 1178 4863 
L 1178 4134 
L 603 4134 
L 603 4863 
z
" transform="scale(0.015625)"/>
      <path id="DejaVuSans-6e" d="M 3513 2113 
L 3513 0 
L 2938 0 
L 2938 2094 
Q 2938 2591 2744 2837 
Q 2550 3084 2163 3084 
Q 1697 3084 1428 2787 
Q 1159 2491 1159 1978 
L 1159 0 
L 581 0 
L 581 3500 
L 1159 3500 
L 1159 2956 
Q 1366 3272 1645 3428 
Q 1925 3584 2291 3584 
Q 2894 3584 3203 3211 
Q 3513 2838 3513 2113 
z
" transform="scale(0.015625)"/>
      <path id="DejaVuSans-67" d="M 2906 1791 
Q 2906 2416 2648 2759 
Q 2391 3103 1925 3103 
Q 1463 3103 1205 2759 
Q 947 2416 947 1791 
Q 947 1169 1205 825 
Q 1463 481 1925 481 
Q 2391 481 2648 825 
Q 2906 1169 2906 1791 
z
M 3481 434 
Q 3481 -459 3084 -895 
Q 2688 -1331 1869 -1331 
Q 1566 -1331 1297 -1286 
Q 1028 -1241 775 -1147 
L 775 -588 
Q 1028 -725 1275 -790 
Q 1522 -856 1778 -856 
Q 2344 -856 2625 -561 
Q 2906 -266 2906 331 
L 2906 616 
Q 2728 306 2450 153 
Q 2172 0 1784 0 
Q 1141 0 747 490 
Q 353 981 353 1791 
Q 353 2603 747 3093 
Q 1141 3584 1784 3584 
Q 2172 3584 2450 3431 
Q 2728 3278 2906 2969 
L 2906 3500 
L 3481 3500 
L 3481 434 
z
" transform="scale(0.015625)"/>
      <path id="DejaVuSans-20" transform="scale(0.015625)"/>
      <path id="DejaVuSans-64" d="M 2906 2969 
L 2906 4863 
L 3481 4863 
L 3481 0 
L 2906 0 
L 2906 525 
Q 2725 213 2448 61 
Q 2172 -91 1784 -91 
Q 1150 -91 751 415 
Q 353 922 353 1747 
Q 353 2572 751 3078 
Q 1150 3584 1784 3584 
Q 2172 3584 2448 3432 
Q 2725 3281 2906 2969 
z
M 947 1747 
Q 947 1113 1208 752 
Q 1469 391 1925 391 
Q 2381 391 2643 752 
Q 2906 1113 2906 1747 
Q 2906 2381 2643 2742 
Q 2381 3103 1925 3103 
Q 1469 3103 1208 2742 
Q 947 2381 947 1747 
z
" transform="scale(0.015625)"/>
      <path id="DejaVuSans-56" d="M 1831 0 
L 50 4666 
L 709 4666 
L 2188 738 
L 3669 4666 
L 4325 4666 
L 2547 0 
L 1831 0 
z
" transform="scale(0.015625)"/>
      <path id="DejaVuSans-6c" d="M 603 4863 
L 1178 4863 
L 1178 0 
L 603 0 
L 603 4863 
z
" transform="scale(0.015625)"/>
      <path id="DejaVuSans-74" d="M 1172 4494 
L 1172 3500 
L 2356 3500 
L 2356 3053 
L 1172 3053 
L 1172 1153 
Q 1172 725 1289 603 
Q 1406 481 1766 481 
L 2356 481 
L 2356 0 
L 1766 0 
Q 1100 0 847 248 
Q 594 497 594 1153 
L 594 3053 
L 172 3053 
L 172 3500 
L 594 3500 
L 594 4494 
L 1172 4494 
z
" transform="scale(0.015625)"/>
     </defs>
     <use xlink:href="#DejaVuSans-54"/>
     <use xlink:href="#DejaVuSans-72" x="46.333984"/>
     <use xlink:href="#DejaVuSans-61" x="87.447266"/>
     <use xlink:href="#DejaVuSans-69" x="148.726562"/>
     <use xlink:href="#DejaVuSans-6e" x="176.509766"/>
     <use xlink:href="#DejaVuSans-69" x="239.888672"/>
     <use xlink:href="#DejaVuSans-6e" x="267.671875"/>
     <use xlink:href="#DejaVuSans-67" x="331.050781"/>
     <use xlink:href="#DejaVuSans-20" x="394.527344"/>
     <use xlink:href="#DejaVuSans-61" x="426.314453"/>
     <use xlink:href="#DejaVuSans-6e" x="487.59375"/>
     <use xlink:href="#DejaVuSans-64" x="550.972656"/>
     <use xlink:href="#DejaVuSans-20" x="614.449219"/>
     <use xlink:href="#DejaVuSans-56" x="646.236328"/>
     <use xlink:href="#DejaVuSans-61" x="706.894531"/>
     <use xlink:href="#DejaVuSans-6c" x="768.173828"/>
     <use xlink:href="#DejaVuSans-69" x="795.957031"/>
     <use xlink:href="#DejaVuSans-64" x="823.740234"/>
     <use xlink:href="#DejaVuSans-61" x="887.216797"/>
     <use xlink:href="#DejaVuSans-74" x="948.496094"/>
     <use xlink:href="#DejaVuSans-69" x="987.705078"/>
     <use xlink:href="#DejaVuSans-6f" x="1015.488281"/>
     <use xlink:href="#DejaVuSans-6e" x="1076.669922"/>
     <use xlink:href="#DejaVuSans-20" x="1140.048828"/>
     <use xlink:href="#DejaVuSans-4c" x="1171.835938"/>
     <use xlink:href="#DejaVuSans-6f" x="1225.798828"/>
     <use xlink:href="#DejaVuSans-73" x="1286.980469"/>
     <use xlink:href="#DejaVuSans-73" x="1339.080078"/>
    </g>
   </g>
   <g id="legend_1">
    <g id="patch_7">
     <path d="M 420.53 63.51625 
L 524.405 63.51625 
Q 526.405 63.51625 526.405 61.51625 
L 526.405 33.16 
Q 526.405 31.16 524.405 31.16 
L 420.53 31.16 
Q 418.53 31.16 418.53 33.16 
L 418.53 61.51625 
Q 418.53 63.51625 420.53 63.51625 
z
" style="fill: #ffffff; opacity: 0.8; stroke: #cccccc; stroke-linejoin: miter"/>
    </g>
    <g id="line2d_15">
     <path d="M 422.53 39.258438 
L 432.53 39.258438 
L 442.53 39.258438 
" style="fill: none; stroke: #1f77b4; stroke-width: 1.5; stroke-linecap: square"/>
    </g>
    <g id="text_16">
     <!-- Training loss -->
     <g transform="translate(450.53 42.758438) scale(0.1 -0.1)">
      <use xlink:href="#DejaVuSans-54"/>
      <use xlink:href="#DejaVuSans-72" x="46.333984"/>
      <use xlink:href="#DejaVuSans-61" x="87.447266"/>
      <use xlink:href="#DejaVuSans-69" x="148.726562"/>
      <use xlink:href="#DejaVuSans-6e" x="176.509766"/>
      <use xlink:href="#DejaVuSans-69" x="239.888672"/>
      <use xlink:href="#DejaVuSans-6e" x="267.671875"/>
      <use xlink:href="#DejaVuSans-67" x="331.050781"/>
      <use xlink:href="#DejaVuSans-20" x="394.527344"/>
      <use xlink:href="#DejaVuSans-6c" x="426.314453"/>
      <use xlink:href="#DejaVuSans-6f" x="454.097656"/>
      <use xlink:href="#DejaVuSans-73" x="515.279297"/>
      <use xlink:href="#DejaVuSans-73" x="567.378906"/>
     </g>
    </g>
    <g id="line2d_16">
     <path d="M 422.53 53.936563 
L 432.53 53.936563 
L 442.53 53.936563 
" style="fill: none; stroke: #ff7f0e; stroke-width: 1.5; stroke-linecap: square"/>
    </g>
    <g id="text_17">
     <!-- Validation loss -->
     <g transform="translate(450.53 57.436563) scale(0.1 -0.1)">
      <use xlink:href="#DejaVuSans-56"/>
      <use xlink:href="#DejaVuSans-61" x="60.658203"/>
      <use xlink:href="#DejaVuSans-6c" x="121.9375"/>
      <use xlink:href="#DejaVuSans-69" x="149.720703"/>
      <use xlink:href="#DejaVuSans-64" x="177.503906"/>
      <use xlink:href="#DejaVuSans-61" x="240.980469"/>
      <use xlink:href="#DejaVuSans-74" x="302.259766"/>
      <use xlink:href="#DejaVuSans-69" x="341.46875"/>
      <use xlink:href="#DejaVuSans-6f" x="369.251953"/>
      <use xlink:href="#DejaVuSans-6e" x="430.433594"/>
      <use xlink:href="#DejaVuSans-20" x="493.8125"/>
      <use xlink:href="#DejaVuSans-6c" x="525.599609"/>
      <use xlink:href="#DejaVuSans-6f" x="553.382812"/>
      <use xlink:href="#DejaVuSans-73" x="614.564453"/>
      <use xlink:href="#DejaVuSans-73" x="666.664062"/>
     </g>
    </g>
   </g>
  </g>
  <g id="axes_2">
   <g id="patch_8">
    <path d="M 592.04 323.44 
L 1069.2 323.44 
L 1069.2 26.16 
L 592.04 26.16 
z
" style="fill: #ffffff"/>
   </g>
   <g id="matplotlib.axis_3">
    <g id="xtick_7">
     <g id="line2d_17">
      <g>
       <use xlink:href="#ma375de94af" x="611.711501" y="323.44" style="stroke: #000000; stroke-width: 0.8"/>
      </g>
     </g>
     <g id="text_18">
      <!-- 50 -->
      <g transform="translate(605.349001 338.038438) scale(0.1 -0.1)">
       <use xlink:href="#DejaVuSans-35"/>
       <use xlink:href="#DejaVuSans-30" x="63.623047"/>
      </g>
     </g>
    </g>
    <g id="xtick_8">
     <g id="line2d_18">
      <g>
       <use xlink:href="#ma375de94af" x="712.590994" y="323.44" style="stroke: #000000; stroke-width: 0.8"/>
      </g>
     </g>
     <g id="text_19">
      <!-- 100 -->
      <g transform="translate(703.047244 338.038438) scale(0.1 -0.1)">
       <use xlink:href="#DejaVuSans-31"/>
       <use xlink:href="#DejaVuSans-30" x="63.623047"/>
       <use xlink:href="#DejaVuSans-30" x="127.246094"/>
      </g>
     </g>
    </g>
    <g id="xtick_9">
     <g id="line2d_19">
      <g>
       <use xlink:href="#ma375de94af" x="813.470486" y="323.44" style="stroke: #000000; stroke-width: 0.8"/>
      </g>
     </g>
     <g id="text_20">
      <!-- 150 -->
      <g transform="translate(803.926736 338.038438) scale(0.1 -0.1)">
       <use xlink:href="#DejaVuSans-31"/>
       <use xlink:href="#DejaVuSans-35" x="63.623047"/>
       <use xlink:href="#DejaVuSans-30" x="127.246094"/>
      </g>
     </g>
    </g>
    <g id="xtick_10">
     <g id="line2d_20">
      <g>
       <use xlink:href="#ma375de94af" x="914.349979" y="323.44" style="stroke: #000000; stroke-width: 0.8"/>
      </g>
     </g>
     <g id="text_21">
      <!-- 200 -->
      <g transform="translate(904.806229 338.038438) scale(0.1 -0.1)">
       <use xlink:href="#DejaVuSans-32"/>
       <use xlink:href="#DejaVuSans-30" x="63.623047"/>
       <use xlink:href="#DejaVuSans-30" x="127.246094"/>
      </g>
     </g>
    </g>
    <g id="xtick_11">
     <g id="line2d_21">
      <g>
       <use xlink:href="#ma375de94af" x="1015.229471" y="323.44" style="stroke: #000000; stroke-width: 0.8"/>
      </g>
     </g>
     <g id="text_22">
      <!-- 250 -->
      <g transform="translate(1005.685721 338.038438) scale(0.1 -0.1)">
       <use xlink:href="#DejaVuSans-32"/>
       <use xlink:href="#DejaVuSans-35" x="63.623047"/>
       <use xlink:href="#DejaVuSans-30" x="127.246094"/>
      </g>
     </g>
    </g>
    <g id="text_23">
     <!-- Epochs -->
     <g transform="translate(812.704375 351.716563) scale(0.1 -0.1)">
      <use xlink:href="#DejaVuSans-45"/>
      <use xlink:href="#DejaVuSans-70" x="63.183594"/>
      <use xlink:href="#DejaVuSans-6f" x="126.660156"/>
      <use xlink:href="#DejaVuSans-63" x="187.841797"/>
      <use xlink:href="#DejaVuSans-68" x="242.822266"/>
      <use xlink:href="#DejaVuSans-73" x="306.201172"/>
     </g>
    </g>
   </g>
   <g id="matplotlib.axis_4">
    <g id="ytick_7">
     <g id="line2d_22">
      <g>
       <use xlink:href="#m8489c7eccc" x="592.04" y="322.546637" style="stroke: #000000; stroke-width: 0.8"/>
      </g>
     </g>
     <g id="text_24">
      <!-- 0.000 -->
      <g transform="translate(556.411875 326.345856) scale(0.1 -0.1)">
       <use xlink:href="#DejaVuSans-30"/>
       <use xlink:href="#DejaVuSans-2e" x="63.623047"/>
       <use xlink:href="#DejaVuSans-30" x="95.410156"/>
       <use xlink:href="#DejaVuSans-30" x="159.033203"/>
       <use xlink:href="#DejaVuSans-30" x="222.65625"/>
      </g>
     </g>
    </g>
    <g id="ytick_8">
     <g id="line2d_23">
      <g>
       <use xlink:href="#m8489c7eccc" x="592.04" y="289.300122" style="stroke: #000000; stroke-width: 0.8"/>
      </g>
     </g>
     <g id="text_25">
      <!-- 0.002 -->
      <g transform="translate(556.411875 293.099341) scale(0.1 -0.1)">
       <use xlink:href="#DejaVuSans-30"/>
       <use xlink:href="#DejaVuSans-2e" x="63.623047"/>
       <use xlink:href="#DejaVuSans-30" x="95.410156"/>
       <use xlink:href="#DejaVuSans-30" x="159.033203"/>
       <use xlink:href="#DejaVuSans-32" x="222.65625"/>
      </g>
     </g>
    </g>
    <g id="ytick_9">
     <g id="line2d_24">
      <g>
       <use xlink:href="#m8489c7eccc" x="592.04" y="256.053607" style="stroke: #000000; stroke-width: 0.8"/>
      </g>
     </g>
     <g id="text_26">
      <!-- 0.004 -->
      <g transform="translate(556.411875 259.852825) scale(0.1 -0.1)">
       <defs>
        <path id="DejaVuSans-34" d="M 2419 4116 
L 825 1625 
L 2419 1625 
L 2419 4116 
z
M 2253 4666 
L 3047 4666 
L 3047 1625 
L 3713 1625 
L 3713 1100 
L 3047 1100 
L 3047 0 
L 2419 0 
L 2419 1100 
L 313 1100 
L 313 1709 
L 2253 4666 
z
" transform="scale(0.015625)"/>
       </defs>
       <use xlink:href="#DejaVuSans-30"/>
       <use xlink:href="#DejaVuSans-2e" x="63.623047"/>
       <use xlink:href="#DejaVuSans-30" x="95.410156"/>
       <use xlink:href="#DejaVuSans-30" x="159.033203"/>
       <use xlink:href="#DejaVuSans-34" x="222.65625"/>
      </g>
     </g>
    </g>
    <g id="ytick_10">
     <g id="line2d_25">
      <g>
       <use xlink:href="#m8489c7eccc" x="592.04" y="222.807091" style="stroke: #000000; stroke-width: 0.8"/>
      </g>
     </g>
     <g id="text_27">
      <!-- 0.006 -->
      <g transform="translate(556.411875 226.60631) scale(0.1 -0.1)">
       <defs>
        <path id="DejaVuSans-36" d="M 2113 2584 
Q 1688 2584 1439 2293 
Q 1191 2003 1191 1497 
Q 1191 994 1439 701 
Q 1688 409 2113 409 
Q 2538 409 2786 701 
Q 3034 994 3034 1497 
Q 3034 2003 2786 2293 
Q 2538 2584 2113 2584 
z
M 3366 4563 
L 3366 3988 
Q 3128 4100 2886 4159 
Q 2644 4219 2406 4219 
Q 1781 4219 1451 3797 
Q 1122 3375 1075 2522 
Q 1259 2794 1537 2939 
Q 1816 3084 2150 3084 
Q 2853 3084 3261 2657 
Q 3669 2231 3669 1497 
Q 3669 778 3244 343 
Q 2819 -91 2113 -91 
Q 1303 -91 875 529 
Q 447 1150 447 2328 
Q 447 3434 972 4092 
Q 1497 4750 2381 4750 
Q 2619 4750 2861 4703 
Q 3103 4656 3366 4563 
z
" transform="scale(0.015625)"/>
       </defs>
       <use xlink:href="#DejaVuSans-30"/>
       <use xlink:href="#DejaVuSans-2e" x="63.623047"/>
       <use xlink:href="#DejaVuSans-30" x="95.410156"/>
       <use xlink:href="#DejaVuSans-30" x="159.033203"/>
       <use xlink:href="#DejaVuSans-36" x="222.65625"/>
      </g>
     </g>
    </g>
    <g id="ytick_11">
     <g id="line2d_26">
      <g>
       <use xlink:href="#m8489c7eccc" x="592.04" y="189.560576" style="stroke: #000000; stroke-width: 0.8"/>
      </g>
     </g>
     <g id="text_28">
      <!-- 0.008 -->
      <g transform="translate(556.411875 193.359795) scale(0.1 -0.1)">
       <defs>
        <path id="DejaVuSans-38" d="M 2034 2216 
Q 1584 2216 1326 1975 
Q 1069 1734 1069 1313 
Q 1069 891 1326 650 
Q 1584 409 2034 409 
Q 2484 409 2743 651 
Q 3003 894 3003 1313 
Q 3003 1734 2745 1975 
Q 2488 2216 2034 2216 
z
M 1403 2484 
Q 997 2584 770 2862 
Q 544 3141 544 3541 
Q 544 4100 942 4425 
Q 1341 4750 2034 4750 
Q 2731 4750 3128 4425 
Q 3525 4100 3525 3541 
Q 3525 3141 3298 2862 
Q 3072 2584 2669 2484 
Q 3125 2378 3379 2068 
Q 3634 1759 3634 1313 
Q 3634 634 3220 271 
Q 2806 -91 2034 -91 
Q 1263 -91 848 271 
Q 434 634 434 1313 
Q 434 1759 690 2068 
Q 947 2378 1403 2484 
z
M 1172 3481 
Q 1172 3119 1398 2916 
Q 1625 2713 2034 2713 
Q 2441 2713 2670 2916 
Q 2900 3119 2900 3481 
Q 2900 3844 2670 4047 
Q 2441 4250 2034 4250 
Q 1625 4250 1398 4047 
Q 1172 3844 1172 3481 
z
" transform="scale(0.015625)"/>
       </defs>
       <use xlink:href="#DejaVuSans-30"/>
       <use xlink:href="#DejaVuSans-2e" x="63.623047"/>
       <use xlink:href="#DejaVuSans-30" x="95.410156"/>
       <use xlink:href="#DejaVuSans-30" x="159.033203"/>
       <use xlink:href="#DejaVuSans-38" x="222.65625"/>
      </g>
     </g>
    </g>
    <g id="ytick_12">
     <g id="line2d_27">
      <g>
       <use xlink:href="#m8489c7eccc" x="592.04" y="156.314061" style="stroke: #000000; stroke-width: 0.8"/>
      </g>
     </g>
     <g id="text_29">
      <!-- 0.010 -->
      <g transform="translate(556.411875 160.113279) scale(0.1 -0.1)">
       <use xlink:href="#DejaVuSans-30"/>
       <use xlink:href="#DejaVuSans-2e" x="63.623047"/>
       <use xlink:href="#DejaVuSans-30" x="95.410156"/>
       <use xlink:href="#DejaVuSans-31" x="159.033203"/>
       <use xlink:href="#DejaVuSans-30" x="222.65625"/>
      </g>
     </g>
    </g>
    <g id="ytick_13">
     <g id="line2d_28">
      <g>
       <use xlink:href="#m8489c7eccc" x="592.04" y="123.067545" style="stroke: #000000; stroke-width: 0.8"/>
      </g>
     </g>
     <g id="text_30">
      <!-- 0.012 -->
      <g transform="translate(556.411875 126.866764) scale(0.1 -0.1)">
       <use xlink:href="#DejaVuSans-30"/>
       <use xlink:href="#DejaVuSans-2e" x="63.623047"/>
       <use xlink:href="#DejaVuSans-30" x="95.410156"/>
       <use xlink:href="#DejaVuSans-31" x="159.033203"/>
       <use xlink:href="#DejaVuSans-32" x="222.65625"/>
      </g>
     </g>
    </g>
    <g id="ytick_14">
     <g id="line2d_29">
      <g>
       <use xlink:href="#m8489c7eccc" x="592.04" y="89.82103" style="stroke: #000000; stroke-width: 0.8"/>
      </g>
     </g>
     <g id="text_31">
      <!-- 0.014 -->
      <g transform="translate(556.411875 93.620249) scale(0.1 -0.1)">
       <use xlink:href="#DejaVuSans-30"/>
       <use xlink:href="#DejaVuSans-2e" x="63.623047"/>
       <use xlink:href="#DejaVuSans-30" x="95.410156"/>
       <use xlink:href="#DejaVuSans-31" x="159.033203"/>
       <use xlink:href="#DejaVuSans-34" x="222.65625"/>
      </g>
     </g>
    </g>
    <g id="ytick_15">
     <g id="line2d_30">
      <g>
       <use xlink:href="#m8489c7eccc" x="592.04" y="56.574515" style="stroke: #000000; stroke-width: 0.8"/>
      </g>
     </g>
     <g id="text_32">
      <!-- 0.016 -->
      <g transform="translate(556.411875 60.373733) scale(0.1 -0.1)">
       <use xlink:href="#DejaVuSans-30"/>
       <use xlink:href="#DejaVuSans-2e" x="63.623047"/>
       <use xlink:href="#DejaVuSans-30" x="95.410156"/>
       <use xlink:href="#DejaVuSans-31" x="159.033203"/>
       <use xlink:href="#DejaVuSans-36" x="222.65625"/>
      </g>
     </g>
    </g>
    <g id="text_33">
     <!-- Loss -->
     <g transform="translate(550.332188 185.767188) rotate(-90) scale(0.1 -0.1)">
      <use xlink:href="#DejaVuSans-4c"/>
      <use xlink:href="#DejaVuSans-6f" x="53.962891"/>
      <use xlink:href="#DejaVuSans-73" x="115.144531"/>
      <use xlink:href="#DejaVuSans-73" x="167.244141"/>
     </g>
    </g>
   </g>
   <g id="line2d_31">
    <path d="M 613.729091 230.489493 
L 615.746681 232.105759 
L 617.764271 238.559131 
L 619.78186 232.637212 
L 621.79945 227.375235 
L 623.81704 246.726147 
L 625.83463 244.192635 
L 627.85222 255.54055 
L 629.86981 257.90171 
L 631.8874 244.901414 
L 633.904989 260.832813 
L 635.922579 251.962664 
L 637.940169 227.294545 
L 639.957759 205.696871 
L 641.975349 242.961815 
L 643.992939 201.900021 
L 646.010529 264.163682 
L 648.028118 261.649255 
L 650.045708 267.214764 
L 652.063298 270.933498 
L 654.080888 270.848218 
L 656.098478 269.607769 
L 658.116068 273.569561 
L 660.133658 265.964535 
L 662.151247 275.55728 
L 664.168837 277.694954 
L 666.186427 270.152656 
L 668.204017 260.998365 
L 670.221607 261.554906 
L 672.239197 222.49817 
L 674.256786 246.909697 
L 676.274376 223.339356 
L 678.291966 253.811974 
L 680.309556 274.294445 
L 682.327146 288.415567 
L 684.344736 281.867339 
L 686.362326 278.283237 
L 688.379915 253.232296 
L 690.397505 282.479749 
L 692.415095 235.720994 
L 694.432685 269.713938 
L 696.450275 281.232875 
L 698.467865 275.26174 
L 700.485455 278.956772 
L 702.503044 278.871677 
L 704.520634 287.100694 
L 706.538224 288.675716 
L 710.573404 269.001385 
L 712.590994 269.448034 
L 714.608584 283.204045 
L 716.626173 286.702797 
L 718.643763 290.923211 
L 720.661353 291.282386 
L 722.678943 275.907707 
L 724.696533 208.918781 
L 726.714123 224.594853 
L 728.731712 270.196113 
L 730.749302 262.881061 
L 732.766892 273.895549 
L 734.784482 261.883349 
L 736.802072 282.301056 
L 738.819662 265.271392 
L 740.837252 237.772634 
L 742.854841 257.636076 
L 744.872431 261.127254 
L 746.890021 272.951314 
L 748.907611 254.650822 
L 750.925201 290.803699 
L 752.942791 276.653452 
L 754.960381 288.603122 
L 756.97797 292.470339 
L 758.99556 292.70121 
L 761.01315 295.903323 
L 763.03074 296.552988 
L 765.04833 290.192962 
L 767.06592 285.974619 
L 769.08351 279.029098 
L 771.101099 282.4639 
L 773.118689 271.26484 
L 775.136279 280.023908 
L 777.153869 283.103236 
L 779.171459 273.054739 
L 781.189049 286.304486 
L 783.206638 293.139257 
L 785.224228 287.981551 
L 787.241818 285.60116 
L 789.259408 297.943727 
L 791.276998 288.337617 
L 793.294588 283.656808 
L 795.312178 292.907118 
L 797.329767 293.229192 
L 799.347357 280.733218 
L 801.364947 281.654834 
L 803.382537 281.682991 
L 805.400127 287.906198 
L 807.417717 97.152001 
L 809.435307 192.034981 
L 811.452896 262.722309 
L 813.470486 276.21622 
L 815.488076 288.810162 
L 817.505666 297.887621 
L 819.523256 283.660837 
L 821.540846 292.944578 
L 823.558436 278.864625 
L 825.576025 293.537765 
L 827.593615 293.16185 
L 829.611205 292.236822 
L 831.628795 280.516127 
L 833.646385 281.940853 
L 835.663975 282.856699 
L 837.681564 291.583924 
L 839.699154 292.230902 
L 841.716744 285.745116 
L 843.734334 285.098154 
L 845.751924 292.828711 
L 847.769514 287.562882 
L 849.787104 295.768509 
L 851.804693 280.955797 
L 853.822283 275.137159 
L 855.839873 292.534197 
L 857.857463 283.294225 
L 859.875053 290.720384 
L 861.892643 293.269796 
L 863.910233 301.033722 
L 865.927822 300.726417 
L 867.945412 264.631753 
L 869.963002 278.962965 
L 871.980592 285.614373 
L 873.998182 282.986787 
L 876.015772 223.486764 
L 878.033362 196.276626 
L 880.050951 290.186224 
L 882.068541 282.965051 
L 884.086131 283.79098 
L 886.103721 287.921208 
L 888.121311 279.937331 
L 890.138901 285.818758 
L 892.15649 300.479665 
L 894.17408 292.388273 
L 896.19167 285.030465 
L 898.20926 273.41166 
L 900.22685 286.917867 
L 902.24444 302.310121 
L 904.26203 286.038469 
L 906.279619 302.222199 
L 908.297209 306.943677 
L 910.314799 303.898792 
L 912.332389 291.162324 
L 914.349979 287.509265 
L 916.367569 208.12668 
L 918.385159 199.230131 
L 920.402748 260.003331 
L 922.420338 284.338967 
L 924.437928 300.508806 
L 926.455518 267.555298 
L 928.473108 286.746114 
L 930.490698 297.151329 
L 932.508288 289.203391 
L 934.525877 294.509926 
L 936.543467 300.419328 
L 938.561057 296.849817 
L 940.578647 298.953372 
L 942.596237 294.87719 
L 944.613827 306.150177 
L 946.631416 305.499324 
L 948.649006 299.107737 
L 950.666596 282.54238 
L 952.684186 291.192123 
L 954.701776 279.411668 
L 956.719366 294.084075 
L 958.736956 290.296887 
L 960.754545 250.614378 
L 962.772135 177.263182 
L 964.789725 172.993136 
L 966.807315 235.193845 
L 968.824905 288.500305 
L 970.842495 289.500557 
L 972.860085 290.703633 
L 974.877674 288.688945 
L 976.895264 298.743733 
L 978.912854 297.545872 
L 980.930444 301.911721 
L 982.948034 285.885704 
L 984.965624 288.05954 
L 986.983214 297.09301 
L 989.000803 260.431649 
L 991.018393 293.419101 
L 993.035983 286.57039 
L 995.053573 291.244257 
L 997.071163 305.533691 
L 999.088753 301.610377 
L 1001.106342 292.902398 
L 1003.123932 293.963928 
L 1005.141522 301.809039 
L 1007.159112 299.139138 
L 1009.176702 279.42362 
L 1011.194292 282.832854 
L 1013.211882 306.327064 
L 1015.229471 295.151462 
L 1017.247061 292.085247 
L 1019.264651 293.65973 
L 1021.282241 299.964108 
L 1023.299831 288.683294 
L 1025.317421 288.154767 
L 1027.335011 224.251842 
L 1029.3526 252.289318 
L 1031.37019 288.525877 
L 1033.38778 305.013122 
L 1035.40537 293.416403 
L 1037.42296 279.973221 
L 1039.44055 290.918346 
L 1041.45814 298.838545 
L 1043.475729 303.018503 
L 1045.493319 296.091121 
L 1047.510909 303.22413 
L 1047.510909 303.22413 
" clip-path="url(#p19ad8952c7)" style="fill: none; stroke: #1f77b4; stroke-width: 1.5; stroke-linecap: square"/>
   </g>
   <g id="line2d_32">
    <path d="M 613.729091 222.752742 
L 615.746681 209.294946 
L 617.764271 260.670527 
L 619.78186 209.573328 
L 621.79945 190.303904 
L 623.81704 254.545973 
L 625.83463 271.177496 
L 627.85222 263.857731 
L 629.86981 272.904594 
L 631.8874 256.104538 
L 633.904989 265.390604 
L 635.922579 211.251117 
L 637.940169 217.272351 
L 639.957759 217.754913 
L 641.975349 192.839831 
L 643.992939 256.585041 
L 646.010529 73.574476 
L 648.028118 277.979433 
L 650.045708 262.688424 
L 652.063298 270.218132 
L 654.080888 249.037219 
L 656.098478 250.635038 
L 658.116068 282.232124 
L 660.133658 274.072299 
L 662.151247 257.033326 
L 664.168837 269.44116 
L 666.186427 266.28663 
L 668.204017 274.395935 
L 670.221607 199.576896 
L 672.239197 260.143564 
L 674.256786 262.963447 
L 676.274376 223.711937 
L 678.291966 287.50279 
L 680.309556 286.076244 
L 682.327146 281.157534 
L 684.344736 262.191762 
L 686.362326 249.853596 
L 688.379915 259.606007 
L 690.397505 279.853351 
L 692.415095 258.505663 
L 694.432685 289.516677 
L 696.450275 279.490373 
L 698.467865 271.475645 
L 700.485455 284.941755 
L 702.503044 292.930838 
L 704.520634 294.982695 
L 706.538224 278.16378 
L 708.555814 250.44343 
L 710.573404 247.537879 
L 712.590994 285.855933 
L 714.608584 287.252355 
L 716.626173 278.581869 
L 718.643763 294.31429 
L 720.661353 256.739547 
L 722.678943 291.333042 
L 724.696533 193.933058 
L 726.714123 256.356702 
L 728.731712 267.909014 
L 730.749302 276.258501 
L 732.766892 282.488384 
L 734.784482 283.158962 
L 736.802072 285.25119 
L 738.819662 252.016726 
L 740.837252 255.065451 
L 742.854841 270.576454 
L 744.872431 260.446411 
L 746.890021 280.352598 
L 748.907611 276.369887 
L 750.925201 288.683995 
L 752.942791 282.248647 
L 754.960381 281.517098 
L 756.97797 296.899101 
L 758.99556 301.983077 
L 761.01315 296.11863 
L 763.03074 290.887955 
L 765.04833 294.785916 
L 767.06592 286.865195 
L 769.08351 292.79656 
L 771.101099 254.74817 
L 773.118689 293.700326 
L 775.136279 299.834314 
L 777.153869 265.749836 
L 779.171459 272.004106 
L 781.189049 275.144471 
L 783.206638 295.046335 
L 785.224228 284.043353 
L 787.241818 301.05042 
L 789.259408 294.466716 
L 791.276998 265.168996 
L 793.294588 276.562331 
L 795.312178 296.312731 
L 797.329767 295.220487 
L 799.347357 272.250608 
L 801.364947 291.355206 
L 803.382537 293.152463 
L 805.400127 290.342283 
L 807.417717 192.73043 
L 809.435307 219.567237 
L 811.452896 289.727363 
L 813.470486 292.967338 
L 815.488076 292.52856 
L 817.505666 284.951126 
L 819.523256 289.44516 
L 821.540846 277.969115 
L 823.558436 300.067769 
L 825.576025 301.099435 
L 827.593615 298.334831 
L 829.611205 294.818054 
L 831.628795 286.125805 
L 833.646385 273.718962 
L 835.663975 304.325121 
L 837.681564 255.101314 
L 839.699154 290.847072 
L 841.716744 168.063046 
L 843.734334 301.730276 
L 845.751924 295.630845 
L 847.769514 298.884676 
L 849.787104 276.393798 
L 851.804693 286.928078 
L 853.822283 286.478313 
L 855.839873 305.147897 
L 857.857463 293.728338 
L 859.875053 289.817605 
L 861.892643 295.805303 
L 863.910233 255.02317 
L 865.927822 260.146857 
L 867.945412 280.929648 
L 869.963002 290.25187 
L 871.980592 293.803838 
L 873.998182 286.87455 
L 876.015772 87.579796 
L 878.033362 287.546316 
L 880.050951 297.138671 
L 882.068541 235.819728 
L 884.086131 266.202448 
L 886.103721 276.229167 
L 888.121311 280.505259 
L 890.138901 298.042584 
L 892.15649 289.172691 
L 894.17408 287.246209 
L 896.19167 280.162964 
L 898.20926 288.871756 
L 900.22685 300.325668 
L 902.24444 294.918038 
L 904.26203 304.220064 
L 906.279619 302.436062 
L 908.297209 309.304473 
L 910.314799 286.327476 
L 912.332389 289.478662 
L 914.349979 285.839612 
L 916.367569 145.938363 
L 918.385159 247.097326 
L 920.402748 272.172004 
L 922.420338 300.838866 
L 924.437928 283.468053 
L 926.455518 278.528721 
L 928.473108 306.973869 
L 930.490698 302.477707 
L 932.508288 301.473585 
L 934.525877 284.983312 
L 936.543467 284.447582 
L 938.561057 302.517681 
L 940.578647 304.02828 
L 942.596237 306.076937 
L 944.613827 304.704676 
L 946.631416 309.927273 
L 948.649006 295.711891 
L 950.666596 269.669773 
L 952.684186 289.162017 
L 954.701776 279.507496 
L 956.719366 303.746611 
L 958.736956 265.697094 
L 960.754545 96.230891 
L 962.772135 39.672727 
L 964.789725 202.644957 
L 966.807315 278.520179 
L 968.824905 282.708799 
L 970.842495 295.874347 
L 972.860085 275.077637 
L 974.877674 303.447315 
L 976.895264 304.513006 
L 978.912854 302.009804 
L 980.930444 298.279407 
L 982.948034 281.413689 
L 984.965624 294.649781 
L 986.983214 303.071716 
L 989.000803 274.861343 
L 991.018393 296.195556 
L 993.035983 281.684892 
L 995.053573 303.145267 
L 997.071163 302.438094 
L 999.088753 306.521917 
L 1001.106342 293.224665 
L 1003.123932 305.086994 
L 1005.141522 300.101291 
L 1007.159112 255.318258 
L 1009.176702 254.041976 
L 1011.194292 304.599277 
L 1013.211882 305.169054 
L 1015.229471 297.147573 
L 1017.247061 297.096611 
L 1019.264651 287.998821 
L 1021.282241 280.97631 
L 1023.299831 303.116666 
L 1025.317421 300.160295 
L 1027.335011 246.307509 
L 1029.3526 301.950014 
L 1031.37019 305.204666 
L 1033.38778 307.300113 
L 1035.40537 286.965934 
L 1037.42296 291.045283 
L 1039.44055 297.522681 
L 1041.45814 303.225177 
L 1043.475729 307.165619 
L 1045.493319 301.317739 
L 1047.510909 293.846867 
L 1047.510909 293.846867 
" clip-path="url(#p19ad8952c7)" style="fill: none; stroke: #ff7f0e; stroke-width: 1.5; stroke-linecap: square"/>
   </g>
   <g id="patch_9">
    <path d="M 592.04 323.44 
L 592.04 26.16 
" style="fill: none; stroke: #000000; stroke-width: 0.8; stroke-linejoin: miter; stroke-linecap: square"/>
   </g>
   <g id="patch_10">
    <path d="M 1069.2 323.44 
L 1069.2 26.16 
" style="fill: none; stroke: #000000; stroke-width: 0.8; stroke-linejoin: miter; stroke-linecap: square"/>
   </g>
   <g id="patch_11">
    <path d="M 592.04 323.44 
L 1069.2 323.44 
" style="fill: none; stroke: #000000; stroke-width: 0.8; stroke-linejoin: miter; stroke-linecap: square"/>
   </g>
   <g id="patch_12">
    <path d="M 592.04 26.16 
L 1069.2 26.16 
" style="fill: none; stroke: #000000; stroke-width: 0.8; stroke-linejoin: miter; stroke-linecap: square"/>
   </g>
   <g id="text_34">
    <!-- Training and Validation Loss (Skip first 50) -->
    <g transform="translate(704.630312 20.16) scale(0.12 -0.12)">
     <defs>
      <path id="DejaVuSans-28" d="M 1984 4856 
Q 1566 4138 1362 3434 
Q 1159 2731 1159 2009 
Q 1159 1288 1364 580 
Q 1569 -128 1984 -844 
L 1484 -844 
Q 1016 -109 783 600 
Q 550 1309 550 2009 
Q 550 2706 781 3412 
Q 1013 4119 1484 4856 
L 1984 4856 
z
" transform="scale(0.015625)"/>
      <path id="DejaVuSans-53" d="M 3425 4513 
L 3425 3897 
Q 3066 4069 2747 4153 
Q 2428 4238 2131 4238 
Q 1616 4238 1336 4038 
Q 1056 3838 1056 3469 
Q 1056 3159 1242 3001 
Q 1428 2844 1947 2747 
L 2328 2669 
Q 3034 2534 3370 2195 
Q 3706 1856 3706 1288 
Q 3706 609 3251 259 
Q 2797 -91 1919 -91 
Q 1588 -91 1214 -16 
Q 841 59 441 206 
L 441 856 
Q 825 641 1194 531 
Q 1563 422 1919 422 
Q 2459 422 2753 634 
Q 3047 847 3047 1241 
Q 3047 1584 2836 1778 
Q 2625 1972 2144 2069 
L 1759 2144 
Q 1053 2284 737 2584 
Q 422 2884 422 3419 
Q 422 4038 858 4394 
Q 1294 4750 2059 4750 
Q 2388 4750 2728 4690 
Q 3069 4631 3425 4513 
z
" transform="scale(0.015625)"/>
      <path id="DejaVuSans-6b" d="M 581 4863 
L 1159 4863 
L 1159 1991 
L 2875 3500 
L 3609 3500 
L 1753 1863 
L 3688 0 
L 2938 0 
L 1159 1709 
L 1159 0 
L 581 0 
L 581 4863 
z
" transform="scale(0.015625)"/>
      <path id="DejaVuSans-66" d="M 2375 4863 
L 2375 4384 
L 1825 4384 
Q 1516 4384 1395 4259 
Q 1275 4134 1275 3809 
L 1275 3500 
L 2222 3500 
L 2222 3053 
L 1275 3053 
L 1275 0 
L 697 0 
L 697 3053 
L 147 3053 
L 147 3500 
L 697 3500 
L 697 3744 
Q 697 4328 969 4595 
Q 1241 4863 1831 4863 
L 2375 4863 
z
" transform="scale(0.015625)"/>
      <path id="DejaVuSans-29" d="M 513 4856 
L 1013 4856 
Q 1481 4119 1714 3412 
Q 1947 2706 1947 2009 
Q 1947 1309 1714 600 
Q 1481 -109 1013 -844 
L 513 -844 
Q 928 -128 1133 580 
Q 1338 1288 1338 2009 
Q 1338 2731 1133 3434 
Q 928 4138 513 4856 
z
" transform="scale(0.015625)"/>
     </defs>
     <use xlink:href="#DejaVuSans-54"/>
     <use xlink:href="#DejaVuSans-72" x="46.333984"/>
     <use xlink:href="#DejaVuSans-61" x="87.447266"/>
     <use xlink:href="#DejaVuSans-69" x="148.726562"/>
     <use xlink:href="#DejaVuSans-6e" x="176.509766"/>
     <use xlink:href="#DejaVuSans-69" x="239.888672"/>
     <use xlink:href="#DejaVuSans-6e" x="267.671875"/>
     <use xlink:href="#DejaVuSans-67" x="331.050781"/>
     <use xlink:href="#DejaVuSans-20" x="394.527344"/>
     <use xlink:href="#DejaVuSans-61" x="426.314453"/>
     <use xlink:href="#DejaVuSans-6e" x="487.59375"/>
     <use xlink:href="#DejaVuSans-64" x="550.972656"/>
     <use xlink:href="#DejaVuSans-20" x="614.449219"/>
     <use xlink:href="#DejaVuSans-56" x="646.236328"/>
     <use xlink:href="#DejaVuSans-61" x="706.894531"/>
     <use xlink:href="#DejaVuSans-6c" x="768.173828"/>
     <use xlink:href="#DejaVuSans-69" x="795.957031"/>
     <use xlink:href="#DejaVuSans-64" x="823.740234"/>
     <use xlink:href="#DejaVuSans-61" x="887.216797"/>
     <use xlink:href="#DejaVuSans-74" x="948.496094"/>
     <use xlink:href="#DejaVuSans-69" x="987.705078"/>
     <use xlink:href="#DejaVuSans-6f" x="1015.488281"/>
     <use xlink:href="#DejaVuSans-6e" x="1076.669922"/>
     <use xlink:href="#DejaVuSans-20" x="1140.048828"/>
     <use xlink:href="#DejaVuSans-4c" x="1171.835938"/>
     <use xlink:href="#DejaVuSans-6f" x="1225.798828"/>
     <use xlink:href="#DejaVuSans-73" x="1286.980469"/>
     <use xlink:href="#DejaVuSans-73" x="1339.080078"/>
     <use xlink:href="#DejaVuSans-20" x="1391.179688"/>
     <use xlink:href="#DejaVuSans-28" x="1422.966797"/>
     <use xlink:href="#DejaVuSans-53" x="1461.980469"/>
     <use xlink:href="#DejaVuSans-6b" x="1525.457031"/>
     <use xlink:href="#DejaVuSans-69" x="1583.367188"/>
     <use xlink:href="#DejaVuSans-70" x="1611.150391"/>
     <use xlink:href="#DejaVuSans-20" x="1674.626953"/>
     <use xlink:href="#DejaVuSans-66" x="1706.414062"/>
     <use xlink:href="#DejaVuSans-69" x="1741.619141"/>
     <use xlink:href="#DejaVuSans-72" x="1769.402344"/>
     <use xlink:href="#DejaVuSans-73" x="1810.515625"/>
     <use xlink:href="#DejaVuSans-74" x="1862.615234"/>
     <use xlink:href="#DejaVuSans-20" x="1901.824219"/>
     <use xlink:href="#DejaVuSans-35" x="1933.611328"/>
     <use xlink:href="#DejaVuSans-30" x="1997.234375"/>
     <use xlink:href="#DejaVuSans-29" x="2060.857422"/>
    </g>
   </g>
   <g id="legend_2">
    <g id="patch_13">
     <path d="M 599.04 63.51625 
L 702.915 63.51625 
Q 704.915 63.51625 704.915 61.51625 
L 704.915 33.16 
Q 704.915 31.16 702.915 31.16 
L 599.04 31.16 
Q 597.04 31.16 597.04 33.16 
L 597.04 61.51625 
Q 597.04 63.51625 599.04 63.51625 
z
" style="fill: #ffffff; opacity: 0.8; stroke: #cccccc; stroke-linejoin: miter"/>
    </g>
    <g id="line2d_33">
     <path d="M 601.04 39.258438 
L 611.04 39.258438 
L 621.04 39.258438 
" style="fill: none; stroke: #1f77b4; stroke-width: 1.5; stroke-linecap: square"/>
    </g>
    <g id="text_35">
     <!-- Training loss -->
     <g transform="translate(629.04 42.758438) scale(0.1 -0.1)">
      <use xlink:href="#DejaVuSans-54"/>
      <use xlink:href="#DejaVuSans-72" x="46.333984"/>
      <use xlink:href="#DejaVuSans-61" x="87.447266"/>
      <use xlink:href="#DejaVuSans-69" x="148.726562"/>
      <use xlink:href="#DejaVuSans-6e" x="176.509766"/>
      <use xlink:href="#DejaVuSans-69" x="239.888672"/>
      <use xlink:href="#DejaVuSans-6e" x="267.671875"/>
      <use xlink:href="#DejaVuSans-67" x="331.050781"/>
      <use xlink:href="#DejaVuSans-20" x="394.527344"/>
      <use xlink:href="#DejaVuSans-6c" x="426.314453"/>
      <use xlink:href="#DejaVuSans-6f" x="454.097656"/>
      <use xlink:href="#DejaVuSans-73" x="515.279297"/>
      <use xlink:href="#DejaVuSans-73" x="567.378906"/>
     </g>
    </g>
    <g id="line2d_34">
     <path d="M 601.04 53.936563 
L 611.04 53.936563 
L 621.04 53.936563 
" style="fill: none; stroke: #ff7f0e; stroke-width: 1.5; stroke-linecap: square"/>
    </g>
    <g id="text_36">
     <!-- Validation loss -->
     <g transform="translate(629.04 57.436563) scale(0.1 -0.1)">
      <use xlink:href="#DejaVuSans-56"/>
      <use xlink:href="#DejaVuSans-61" x="60.658203"/>
      <use xlink:href="#DejaVuSans-6c" x="121.9375"/>
      <use xlink:href="#DejaVuSans-69" x="149.720703"/>
      <use xlink:href="#DejaVuSans-64" x="177.503906"/>
      <use xlink:href="#DejaVuSans-61" x="240.980469"/>
      <use xlink:href="#DejaVuSans-74" x="302.259766"/>
      <use xlink:href="#DejaVuSans-69" x="341.46875"/>
      <use xlink:href="#DejaVuSans-6f" x="369.251953"/>
      <use xlink:href="#DejaVuSans-6e" x="430.433594"/>
      <use xlink:href="#DejaVuSans-20" x="493.8125"/>
      <use xlink:href="#DejaVuSans-6c" x="525.599609"/>
      <use xlink:href="#DejaVuSans-6f" x="553.382812"/>
      <use xlink:href="#DejaVuSans-73" x="614.564453"/>
      <use xlink:href="#DejaVuSans-73" x="666.664062"/>
     </g>
    </g>
   </g>
  </g>
  <g id="axes_3">
   <g id="patch_14">
    <path d="M 54.245 678.04 
L 531.405 678.04 
L 531.405 380.76 
L 54.245 380.76 
z
" style="fill: #ffffff"/>
   </g>
   <g id="matplotlib.axis_5">
    <g id="xtick_12">
     <g id="line2d_35">
      <g>
       <use xlink:href="#ma375de94af" x="73.916501" y="678.04" style="stroke: #000000; stroke-width: 0.8"/>
      </g>
     </g>
     <g id="text_37">
      <!-- 50 -->
      <g transform="translate(67.554001 692.638438) scale(0.1 -0.1)">
       <use xlink:href="#DejaVuSans-35"/>
       <use xlink:href="#DejaVuSans-30" x="63.623047"/>
      </g>
     </g>
    </g>
    <g id="xtick_13">
     <g id="line2d_36">
      <g>
       <use xlink:href="#ma375de94af" x="174.795994" y="678.04" style="stroke: #000000; stroke-width: 0.8"/>
      </g>
     </g>
     <g id="text_38">
      <!-- 100 -->
      <g transform="translate(165.252244 692.638438) scale(0.1 -0.1)">
       <use xlink:href="#DejaVuSans-31"/>
       <use xlink:href="#DejaVuSans-30" x="63.623047"/>
       <use xlink:href="#DejaVuSans-30" x="127.246094"/>
      </g>
     </g>
    </g>
    <g id="xtick_14">
     <g id="line2d_37">
      <g>
       <use xlink:href="#ma375de94af" x="275.675486" y="678.04" style="stroke: #000000; stroke-width: 0.8"/>
      </g>
     </g>
     <g id="text_39">
      <!-- 150 -->
      <g transform="translate(266.131736 692.638438) scale(0.1 -0.1)">
       <use xlink:href="#DejaVuSans-31"/>
       <use xlink:href="#DejaVuSans-35" x="63.623047"/>
       <use xlink:href="#DejaVuSans-30" x="127.246094"/>
      </g>
     </g>
    </g>
    <g id="xtick_15">
     <g id="line2d_38">
      <g>
       <use xlink:href="#ma375de94af" x="376.554979" y="678.04" style="stroke: #000000; stroke-width: 0.8"/>
      </g>
     </g>
     <g id="text_40">
      <!-- 200 -->
      <g transform="translate(367.011229 692.638438) scale(0.1 -0.1)">
       <use xlink:href="#DejaVuSans-32"/>
       <use xlink:href="#DejaVuSans-30" x="63.623047"/>
       <use xlink:href="#DejaVuSans-30" x="127.246094"/>
      </g>
     </g>
    </g>
    <g id="xtick_16">
     <g id="line2d_39">
      <g>
       <use xlink:href="#ma375de94af" x="477.434471" y="678.04" style="stroke: #000000; stroke-width: 0.8"/>
      </g>
     </g>
     <g id="text_41">
      <!-- 250 -->
      <g transform="translate(467.890721 692.638438) scale(0.1 -0.1)">
       <use xlink:href="#DejaVuSans-32"/>
       <use xlink:href="#DejaVuSans-35" x="63.623047"/>
       <use xlink:href="#DejaVuSans-30" x="127.246094"/>
      </g>
     </g>
    </g>
    <g id="text_42">
     <!-- Epochs -->
     <g transform="translate(274.909375 706.316563) scale(0.1 -0.1)">
      <use xlink:href="#DejaVuSans-45"/>
      <use xlink:href="#DejaVuSans-70" x="63.183594"/>
      <use xlink:href="#DejaVuSans-6f" x="126.660156"/>
      <use xlink:href="#DejaVuSans-63" x="187.841797"/>
      <use xlink:href="#DejaVuSans-68" x="242.822266"/>
      <use xlink:href="#DejaVuSans-73" x="306.201172"/>
     </g>
    </g>
   </g>
   <g id="matplotlib.axis_6">
    <g id="ytick_16">
     <g id="line2d_40">
      <g>
       <use xlink:href="#m8489c7eccc" x="54.245" y="674.483403" style="stroke: #000000; stroke-width: 0.8"/>
      </g>
     </g>
     <g id="text_43">
      <!-- 0.01 -->
      <g transform="translate(24.979375 678.282622) scale(0.1 -0.1)">
       <use xlink:href="#DejaVuSans-30"/>
       <use xlink:href="#DejaVuSans-2e" x="63.623047"/>
       <use xlink:href="#DejaVuSans-30" x="95.410156"/>
       <use xlink:href="#DejaVuSans-31" x="159.033203"/>
      </g>
     </g>
    </g>
    <g id="ytick_17">
     <g id="line2d_41">
      <g>
       <use xlink:href="#m8489c7eccc" x="54.245" y="629.43447" style="stroke: #000000; stroke-width: 0.8"/>
      </g>
     </g>
     <g id="text_44">
      <!-- 0.02 -->
      <g transform="translate(24.979375 633.233689) scale(0.1 -0.1)">
       <use xlink:href="#DejaVuSans-30"/>
       <use xlink:href="#DejaVuSans-2e" x="63.623047"/>
       <use xlink:href="#DejaVuSans-30" x="95.410156"/>
       <use xlink:href="#DejaVuSans-32" x="159.033203"/>
      </g>
     </g>
    </g>
    <g id="ytick_18">
     <g id="line2d_42">
      <g>
       <use xlink:href="#m8489c7eccc" x="54.245" y="584.385537" style="stroke: #000000; stroke-width: 0.8"/>
      </g>
     </g>
     <g id="text_45">
      <!-- 0.03 -->
      <g transform="translate(24.979375 588.184755) scale(0.1 -0.1)">
       <defs>
        <path id="DejaVuSans-33" d="M 2597 2516 
Q 3050 2419 3304 2112 
Q 3559 1806 3559 1356 
Q 3559 666 3084 287 
Q 2609 -91 1734 -91 
Q 1441 -91 1130 -33 
Q 819 25 488 141 
L 488 750 
Q 750 597 1062 519 
Q 1375 441 1716 441 
Q 2309 441 2620 675 
Q 2931 909 2931 1356 
Q 2931 1769 2642 2001 
Q 2353 2234 1838 2234 
L 1294 2234 
L 1294 2753 
L 1863 2753 
Q 2328 2753 2575 2939 
Q 2822 3125 2822 3475 
Q 2822 3834 2567 4026 
Q 2313 4219 1838 4219 
Q 1578 4219 1281 4162 
Q 984 4106 628 3988 
L 628 4550 
Q 988 4650 1302 4700 
Q 1616 4750 1894 4750 
Q 2613 4750 3031 4423 
Q 3450 4097 3450 3541 
Q 3450 3153 3228 2886 
Q 3006 2619 2597 2516 
z
" transform="scale(0.015625)"/>
       </defs>
       <use xlink:href="#DejaVuSans-30"/>
       <use xlink:href="#DejaVuSans-2e" x="63.623047"/>
       <use xlink:href="#DejaVuSans-30" x="95.410156"/>
       <use xlink:href="#DejaVuSans-33" x="159.033203"/>
      </g>
     </g>
    </g>
    <g id="ytick_19">
     <g id="line2d_43">
      <g>
       <use xlink:href="#m8489c7eccc" x="54.245" y="539.336603" style="stroke: #000000; stroke-width: 0.8"/>
      </g>
     </g>
     <g id="text_46">
      <!-- 0.04 -->
      <g transform="translate(24.979375 543.135822) scale(0.1 -0.1)">
       <use xlink:href="#DejaVuSans-30"/>
       <use xlink:href="#DejaVuSans-2e" x="63.623047"/>
       <use xlink:href="#DejaVuSans-30" x="95.410156"/>
       <use xlink:href="#DejaVuSans-34" x="159.033203"/>
      </g>
     </g>
    </g>
    <g id="ytick_20">
     <g id="line2d_44">
      <g>
       <use xlink:href="#m8489c7eccc" x="54.245" y="494.28767" style="stroke: #000000; stroke-width: 0.8"/>
      </g>
     </g>
     <g id="text_47">
      <!-- 0.05 -->
      <g transform="translate(24.979375 498.086889) scale(0.1 -0.1)">
       <use xlink:href="#DejaVuSans-30"/>
       <use xlink:href="#DejaVuSans-2e" x="63.623047"/>
       <use xlink:href="#DejaVuSans-30" x="95.410156"/>
       <use xlink:href="#DejaVuSans-35" x="159.033203"/>
      </g>
     </g>
    </g>
    <g id="ytick_21">
     <g id="line2d_45">
      <g>
       <use xlink:href="#m8489c7eccc" x="54.245" y="449.238737" style="stroke: #000000; stroke-width: 0.8"/>
      </g>
     </g>
     <g id="text_48">
      <!-- 0.06 -->
      <g transform="translate(24.979375 453.037956) scale(0.1 -0.1)">
       <use xlink:href="#DejaVuSans-30"/>
       <use xlink:href="#DejaVuSans-2e" x="63.623047"/>
       <use xlink:href="#DejaVuSans-30" x="95.410156"/>
       <use xlink:href="#DejaVuSans-36" x="159.033203"/>
      </g>
     </g>
    </g>
    <g id="ytick_22">
     <g id="line2d_46">
      <g>
       <use xlink:href="#m8489c7eccc" x="54.245" y="404.189804" style="stroke: #000000; stroke-width: 0.8"/>
      </g>
     </g>
     <g id="text_49">
      <!-- 0.07 -->
      <g transform="translate(24.979375 407.989023) scale(0.1 -0.1)">
       <defs>
        <path id="DejaVuSans-37" d="M 525 4666 
L 3525 4666 
L 3525 4397 
L 1831 0 
L 1172 0 
L 2766 4134 
L 525 4134 
L 525 4666 
z
" transform="scale(0.015625)"/>
       </defs>
       <use xlink:href="#DejaVuSans-30"/>
       <use xlink:href="#DejaVuSans-2e" x="63.623047"/>
       <use xlink:href="#DejaVuSans-30" x="95.410156"/>
       <use xlink:href="#DejaVuSans-37" x="159.033203"/>
      </g>
     </g>
    </g>
    <g id="text_50">
     <!-- MAE -->
     <g transform="translate(18.899687 540.29375) rotate(-90) scale(0.1 -0.1)">
      <defs>
       <path id="DejaVuSans-4d" d="M 628 4666 
L 1569 4666 
L 2759 1491 
L 3956 4666 
L 4897 4666 
L 4897 0 
L 4281 0 
L 4281 4097 
L 3078 897 
L 2444 897 
L 1241 4097 
L 1241 0 
L 628 0 
L 628 4666 
z
" transform="scale(0.015625)"/>
       <path id="DejaVuSans-41" d="M 2188 4044 
L 1331 1722 
L 3047 1722 
L 2188 4044 
z
M 1831 4666 
L 2547 4666 
L 4325 0 
L 3669 0 
L 3244 1197 
L 1141 1197 
L 716 0 
L 50 0 
L 1831 4666 
z
" transform="scale(0.015625)"/>
      </defs>
      <use xlink:href="#DejaVuSans-4d"/>
      <use xlink:href="#DejaVuSans-41" x="86.279297"/>
      <use xlink:href="#DejaVuSans-45" x="154.6875"/>
     </g>
    </g>
   </g>
   <g id="line2d_47">
    <path d="M 75.934091 543.305643 
L 77.951681 534.093698 
L 79.969271 541.62853 
L 81.98686 538.662205 
L 84.00445 542.236191 
L 86.02204 549.781662 
L 88.03963 549.427813 
L 90.05722 564.340128 
L 92.07481 565.438177 
L 94.0924 549.809403 
L 96.109989 568.325442 
L 98.127579 555.35647 
L 100.145169 530.339053 
L 102.162759 516.536467 
L 104.180349 544.54221 
L 106.197939 524.272163 
L 108.215529 573.801118 
L 110.233118 572.699579 
L 112.250708 580.745617 
L 114.268298 582.434242 
L 116.285888 585.413238 
L 118.303478 582.724924 
L 120.321068 582.720216 
L 122.338658 580.153664 
L 124.356247 593.635302 
L 126.373837 591.092405 
L 128.391427 577.971236 
L 130.409017 566.192832 
L 132.426607 577.261389 
L 134.444197 534.757512 
L 136.461786 566.713008 
L 138.479376 545.338686 
L 140.496966 569.26621 
L 142.514556 590.428549 
L 144.532146 609.637854 
L 146.549736 597.159647 
L 148.567326 597.859668 
L 150.584915 559.306357 
L 152.602505 594.507591 
L 154.620095 538.983346 
L 156.637685 582.817678 
L 158.655275 603.472437 
L 160.672865 588.930971 
L 162.690455 596.009709 
L 164.708044 597.74696 
L 166.725634 613.710292 
L 168.743224 614.688097 
L 170.760814 600.579205 
L 172.778404 577.58488 
L 174.795994 583.924327 
L 176.813584 602.808053 
L 178.831173 611.120497 
L 180.848763 613.969222 
L 182.866353 617.629074 
L 184.883943 596.986264 
L 186.901533 545.62247 
L 188.919123 545.47264 
L 190.936712 588.160784 
L 192.954302 575.76564 
L 194.971892 596.510292 
L 196.989482 585.198621 
L 199.007072 600.658953 
L 201.024662 586.261612 
L 203.042252 549.078327 
L 205.059841 576.216439 
L 207.077431 573.271175 
L 209.095021 591.057448 
L 211.112611 574.892655 
L 213.130201 617.134356 
L 215.147791 605.277647 
L 217.165381 621.055336 
L 219.18297 623.202757 
L 221.20056 624.195674 
L 223.21815 629.1719 
L 225.23574 627.862322 
L 227.25333 622.009638 
L 229.27092 613.692151 
L 231.28851 602.373985 
L 233.306099 605.409587 
L 235.323689 593.537102 
L 237.341279 603.06606 
L 239.358869 613.436392 
L 241.376459 586.405602 
L 243.394049 605.491097 
L 245.411638 627.889232 
L 247.429228 617.388671 
L 249.446818 618.554208 
L 251.464408 637.556205 
L 253.481998 619.598647 
L 255.499588 613.024687 
L 257.517178 624.48769 
L 259.534767 623.510615 
L 261.552357 601.607315 
L 263.569947 601.806895 
L 265.587537 608.882478 
L 267.605127 612.824922 
L 269.622717 445.920834 
L 271.640307 516.971793 
L 273.657896 578.680646 
L 275.675486 597.100273 
L 277.693076 614.261431 
L 279.710666 633.980482 
L 281.728256 617.864005 
L 283.745846 621.175932 
L 285.763436 608.10672 
L 287.781025 626.09822 
L 289.798615 629.320295 
L 291.816205 627.726698 
L 293.833795 608.401043 
L 295.851385 613.985324 
L 297.868975 611.56215 
L 299.886564 624.360574 
L 301.904154 623.743692 
L 303.921744 626.377481 
L 305.939334 605.455746 
L 307.956924 628.85936 
L 309.974514 608.257901 
L 311.992104 626.190689 
L 314.009693 611.836368 
L 316.027283 592.319482 
L 318.044873 620.147663 
L 320.062463 620.280023 
L 322.080053 624.784405 
L 326.115233 639.265103 
L 328.132822 641.724225 
L 330.150412 588.757948 
L 332.168002 603.908442 
L 334.185592 610.344051 
L 336.203182 606.239526 
L 338.220772 573.546719 
L 340.238362 507.302891 
L 342.255951 613.000169 
L 344.273541 614.002694 
L 346.291131 601.712412 
L 348.308721 619.588812 
L 350.326311 612.46582 
L 352.343901 614.356317 
L 354.36149 640.581217 
L 356.37908 634.794478 
L 358.39667 611.762116 
L 360.41426 596.225853 
L 362.43185 615.581741 
L 364.44944 646.526337 
L 366.46703 624.05442 
L 368.484619 649.050632 
L 370.502209 655.003589 
L 372.519799 654.437263 
L 374.537389 630.842115 
L 376.554979 621.13359 
L 378.572569 558.797677 
L 380.590159 511.772685 
L 382.607748 575.691665 
L 384.625338 610.445616 
L 386.642928 639.245854 
L 388.660518 591.573806 
L 390.678108 615.86357 
L 392.695698 638.138961 
L 394.713288 626.151881 
L 396.730877 632.448047 
L 398.748467 635.884035 
L 400.766057 639.655562 
L 402.783647 637.492693 
L 404.801237 638.624616 
L 406.818827 656.106614 
L 408.836416 652.43663 
L 410.854006 643.527371 
L 412.871596 617.598069 
L 414.889186 618.647743 
L 416.906776 609.087605 
L 418.924366 625.486481 
L 420.941956 627.034154 
L 422.959545 564.992866 
L 424.977135 490.834226 
L 426.994725 489.423998 
L 429.012315 544.925948 
L 431.029905 609.941047 
L 433.047495 620.453381 
L 435.065085 627.316738 
L 437.082674 619.435559 
L 439.100264 636.393076 
L 441.117854 638.041844 
L 443.135444 643.559668 
L 445.153034 618.750382 
L 447.170624 617.098694 
L 449.188214 638.340732 
L 451.205803 585.345388 
L 453.223393 620.485502 
L 455.240983 619.473293 
L 457.258573 625.873861 
L 459.276163 654.435278 
L 461.293753 648.854643 
L 463.311342 639.086903 
L 465.328932 628.702397 
L 467.346522 646.886798 
L 469.364112 644.978664 
L 471.381702 611.952021 
L 473.399292 610.847176 
L 475.416882 656.109832 
L 477.434471 641.927757 
L 479.452061 634.081678 
L 481.469651 628.48648 
L 483.487241 638.627662 
L 485.504831 627.539822 
L 487.522421 622.870019 
L 489.540011 566.432244 
L 491.5576 566.770872 
L 493.57519 624.051449 
L 495.59278 650.953879 
L 497.61037 637.523388 
L 499.62796 609.06463 
L 501.64555 627.57201 
L 503.66314 641.54313 
L 505.680729 654.278677 
L 507.698319 646.629664 
L 509.715909 647.570616 
L 509.715909 647.570616 
" clip-path="url(#p6beb897571)" style="fill: none; stroke: #1f77b4; stroke-width: 1.5; stroke-linecap: square"/>
   </g>
   <g id="line2d_48">
    <path d="M 75.934091 480.315716 
L 77.951681 494.307201 
L 79.969271 565.287256 
L 81.98686 548.613784 
L 84.00445 522.215004 
L 86.02204 569.950866 
L 88.03963 579.730514 
L 90.05722 566.160241 
L 92.07481 581.970722 
L 94.0924 546.952161 
L 96.109989 581.854658 
L 98.127579 476.525561 
L 100.145169 518.222642 
L 102.162759 491.631893 
L 104.180349 513.543576 
L 106.197939 571.427232 
L 108.215529 394.272727 
L 110.233118 578.815398 
L 112.250708 568.55299 
L 114.268298 579.544468 
L 116.285888 545.453861 
L 118.303478 532.731131 
L 120.321068 598.400142 
L 122.338658 594.487561 
L 124.356247 552.535376 
L 126.373837 580.896647 
L 128.391427 572.961161 
L 130.409017 587.828676 
L 132.426607 494.381697 
L 134.444197 568.442614 
L 136.461786 565.179264 
L 138.479376 562.848944 
L 140.496966 597.488777 
L 142.514556 596.721729 
L 144.532146 586.455595 
L 146.549736 555.222029 
L 148.567326 509.111323 
L 150.584915 548.28405 
L 152.602505 598.62487 
L 154.620095 563.90591 
L 156.637685 600.37021 
L 158.655275 595.214022 
L 160.672865 578.614609 
L 164.708044 616.98414 
L 166.725634 613.276938 
L 168.743224 593.16997 
L 170.760814 570.048152 
L 172.778404 576.951912 
L 174.795994 592.507583 
L 176.813584 596.060265 
L 178.831173 607.377541 
L 180.848763 624.928898 
L 182.866353 583.858416 
L 184.883943 615.442207 
L 186.901533 526.250849 
L 188.919123 545.285084 
L 190.936712 574.643929 
L 192.954302 600.876038 
L 194.971892 605.271303 
L 196.989482 583.399897 
L 199.007072 590.748406 
L 201.024662 559.288534 
L 203.042252 534.789364 
L 205.059841 571.662265 
L 207.077431 577.412075 
L 209.095021 584.428737 
L 211.112611 598.335028 
L 213.130201 605.848706 
L 215.147791 595.038717 
L 217.165381 611.639515 
L 219.18297 619.860019 
L 221.20056 634.883657 
L 223.21815 628.125523 
L 225.23574 635.372946 
L 227.25333 626.457364 
L 229.27092 611.72465 
L 231.28851 600.570554 
L 233.306099 601.77751 
L 235.323689 616.786943 
L 237.341279 629.486891 
L 239.358869 566.874853 
L 241.376459 577.340836 
L 243.394049 610.904906 
L 245.411638 619.461705 
L 247.429228 600.589652 
L 249.446818 636.284093 
L 251.464408 614.687653 
L 253.481998 598.226968 
L 255.499588 601.413256 
L 257.517178 623.500923 
L 259.534767 615.635166 
L 261.552357 572.387601 
L 263.569947 606.767346 
L 265.587537 604.5617 
L 267.605127 609.075639 
L 269.622717 490.336387 
L 271.640307 531.616166 
L 273.657896 607.884534 
L 275.675486 603.684587 
L 277.693076 624.605911 
L 279.710666 621.566861 
L 281.728256 614.455473 
L 283.745846 596.917541 
L 285.763436 627.343497 
L 287.781025 633.790643 
L 289.798615 620.044453 
L 291.816205 614.785341 
L 293.833795 604.23111 
L 295.851385 591.252035 
L 297.868975 644.136072 
L 299.886564 611.632785 
L 301.904154 611.982699 
L 303.921744 518.009326 
L 305.939334 643.26683 
L 307.956924 618.745566 
L 309.974514 628.966085 
L 311.992104 615.483088 
L 314.009693 606.275196 
L 316.027283 602.561768 
L 318.044873 641.738783 
L 320.062463 606.100579 
L 322.080053 601.775655 
L 324.097643 613.897731 
L 326.115233 607.94646 
L 328.132822 605.348072 
L 330.150412 581.49908 
L 332.168002 605.898087 
L 334.185592 620.73959 
L 336.203182 611.98718 
L 338.220772 412.354263 
L 340.238362 597.394235 
L 342.255951 619.289178 
L 344.273541 517.153341 
L 346.291131 596.842459 
L 348.308721 604.153787 
L 350.326311 601.901797 
L 352.343901 626.70161 
L 354.36149 635.52646 
L 356.37908 615.82143 
L 358.39667 602.233713 
L 360.41426 597.832976 
L 362.43185 629.696322 
L 364.44944 633.04172 
L 366.46703 649.560143 
L 368.484619 639.557026 
L 370.502209 660.557226 
L 372.519799 642.434172 
L 374.537389 609.707986 
L 376.554979 616.659265 
L 378.572569 472.415154 
L 380.590159 553.856945 
L 382.607748 609.539688 
L 384.625338 635.325067 
L 386.642928 615.410874 
L 388.660518 585.268904 
L 390.678108 648.264595 
L 392.695698 632.748395 
L 394.713288 641.090342 
L 396.730877 619.139834 
L 398.748467 645.130986 
L 400.766057 636.45814 
L 402.783647 649.775847 
L 404.801237 649.508241 
L 406.818827 643.717712 
L 408.836416 664.527273 
L 410.854006 631.998943 
L 412.871596 556.642293 
L 414.889186 613.061499 
L 416.906776 581.858811 
L 418.924366 639.512403 
L 420.941956 563.615161 
L 422.959545 425.881322 
L 424.977135 419.343947 
L 426.994725 522.979074 
L 429.012315 578.77909 
L 431.029905 591.425637 
L 433.047495 623.912452 
L 435.065085 605.955792 
L 437.082674 643.591277 
L 439.100264 643.594104 
L 441.117854 639.419867 
L 443.135444 629.091489 
L 445.153034 611.10254 
L 447.170624 640.312923 
L 449.188214 651.956353 
L 451.205803 575.872928 
L 453.223393 629.826785 
L 455.240983 613.171203 
L 457.258573 636.62408 
L 459.276163 655.854325 
L 461.293753 648.009886 
L 463.311342 612.186701 
L 465.328932 646.865183 
L 467.346522 630.795596 
L 469.364112 599.311608 
L 471.381702 580.966259 
L 473.399292 641.63413 
L 475.416882 650.945433 
L 477.434471 630.734484 
L 479.452061 616.514805 
L 481.469651 600.05183 
L 483.487241 621.545464 
L 485.504831 639.015285 
L 487.522421 637.165872 
L 489.540011 527.416663 
L 491.5576 631.235058 
L 493.57519 644.727068 
L 495.59278 655.957984 
L 497.61037 607.46672 
L 499.62796 615.603482 
L 501.64555 612.719581 
L 503.66314 644.506359 
L 505.680729 652.847912 
L 507.698319 639.648144 
L 509.715909 644.801035 
L 509.715909 644.801035 
" clip-path="url(#p6beb897571)" style="fill: none; stroke: #ff7f0e; stroke-width: 1.5; stroke-linecap: square"/>
   </g>
   <g id="patch_15">
    <path d="M 54.245 678.04 
L 54.245 380.76 
" style="fill: none; stroke: #000000; stroke-width: 0.8; stroke-linejoin: miter; stroke-linecap: square"/>
   </g>
   <g id="patch_16">
    <path d="M 531.405 678.04 
L 531.405 380.76 
" style="fill: none; stroke: #000000; stroke-width: 0.8; stroke-linejoin: miter; stroke-linecap: square"/>
   </g>
   <g id="patch_17">
    <path d="M 54.245 678.04 
L 531.405 678.04 
" style="fill: none; stroke: #000000; stroke-width: 0.8; stroke-linejoin: miter; stroke-linecap: square"/>
   </g>
   <g id="patch_18">
    <path d="M 54.245 380.76 
L 531.405 380.76 
" style="fill: none; stroke: #000000; stroke-width: 0.8; stroke-linejoin: miter; stroke-linecap: square"/>
   </g>
   <g id="text_51">
    <!-- Training and Validation MAE (Skip first 50) -->
    <g transform="translate(166.923437 374.76) scale(0.12 -0.12)">
     <use xlink:href="#DejaVuSans-54"/>
     <use xlink:href="#DejaVuSans-72" x="46.333984"/>
     <use xlink:href="#DejaVuSans-61" x="87.447266"/>
     <use xlink:href="#DejaVuSans-69" x="148.726562"/>
     <use xlink:href="#DejaVuSans-6e" x="176.509766"/>
     <use xlink:href="#DejaVuSans-69" x="239.888672"/>
     <use xlink:href="#DejaVuSans-6e" x="267.671875"/>
     <use xlink:href="#DejaVuSans-67" x="331.050781"/>
     <use xlink:href="#DejaVuSans-20" x="394.527344"/>
     <use xlink:href="#DejaVuSans-61" x="426.314453"/>
     <use xlink:href="#DejaVuSans-6e" x="487.59375"/>
     <use xlink:href="#DejaVuSans-64" x="550.972656"/>
     <use xlink:href="#DejaVuSans-20" x="614.449219"/>
     <use xlink:href="#DejaVuSans-56" x="646.236328"/>
     <use xlink:href="#DejaVuSans-61" x="706.894531"/>
     <use xlink:href="#DejaVuSans-6c" x="768.173828"/>
     <use xlink:href="#DejaVuSans-69" x="795.957031"/>
     <use xlink:href="#DejaVuSans-64" x="823.740234"/>
     <use xlink:href="#DejaVuSans-61" x="887.216797"/>
     <use xlink:href="#DejaVuSans-74" x="948.496094"/>
     <use xlink:href="#DejaVuSans-69" x="987.705078"/>
     <use xlink:href="#DejaVuSans-6f" x="1015.488281"/>
     <use xlink:href="#DejaVuSans-6e" x="1076.669922"/>
     <use xlink:href="#DejaVuSans-20" x="1140.048828"/>
     <use xlink:href="#DejaVuSans-4d" x="1171.835938"/>
     <use xlink:href="#DejaVuSans-41" x="1258.115234"/>
     <use xlink:href="#DejaVuSans-45" x="1326.523438"/>
     <use xlink:href="#DejaVuSans-20" x="1389.707031"/>
     <use xlink:href="#DejaVuSans-28" x="1421.494141"/>
     <use xlink:href="#DejaVuSans-53" x="1460.507812"/>
     <use xlink:href="#DejaVuSans-6b" x="1523.984375"/>
     <use xlink:href="#DejaVuSans-69" x="1581.894531"/>
     <use xlink:href="#DejaVuSans-70" x="1609.677734"/>
     <use xlink:href="#DejaVuSans-20" x="1673.154297"/>
     <use xlink:href="#DejaVuSans-66" x="1704.941406"/>
     <use xlink:href="#DejaVuSans-69" x="1740.146484"/>
     <use xlink:href="#DejaVuSans-72" x="1767.929688"/>
     <use xlink:href="#DejaVuSans-73" x="1809.042969"/>
     <use xlink:href="#DejaVuSans-74" x="1861.142578"/>
     <use xlink:href="#DejaVuSans-20" x="1900.351562"/>
     <use xlink:href="#DejaVuSans-35" x="1932.138672"/>
     <use xlink:href="#DejaVuSans-30" x="1995.761719"/>
     <use xlink:href="#DejaVuSans-29" x="2059.384766"/>
    </g>
   </g>
   <g id="legend_3">
    <g id="patch_19">
     <path d="M 418.058125 418.11625 
L 524.405 418.11625 
Q 526.405 418.11625 526.405 416.11625 
L 526.405 387.76 
Q 526.405 385.76 524.405 385.76 
L 418.058125 385.76 
Q 416.058125 385.76 416.058125 387.76 
L 416.058125 416.11625 
Q 416.058125 418.11625 418.058125 418.11625 
z
" style="fill: #ffffff; opacity: 0.8; stroke: #cccccc; stroke-linejoin: miter"/>
    </g>
    <g id="line2d_49">
     <path d="M 420.058125 393.858438 
L 430.058125 393.858438 
L 440.058125 393.858438 
" style="fill: none; stroke: #1f77b4; stroke-width: 1.5; stroke-linecap: square"/>
    </g>
    <g id="text_52">
     <!-- Training MAE -->
     <g transform="translate(448.058125 397.358438) scale(0.1 -0.1)">
      <use xlink:href="#DejaVuSans-54"/>
      <use xlink:href="#DejaVuSans-72" x="46.333984"/>
      <use xlink:href="#DejaVuSans-61" x="87.447266"/>
      <use xlink:href="#DejaVuSans-69" x="148.726562"/>
      <use xlink:href="#DejaVuSans-6e" x="176.509766"/>
      <use xlink:href="#DejaVuSans-69" x="239.888672"/>
      <use xlink:href="#DejaVuSans-6e" x="267.671875"/>
      <use xlink:href="#DejaVuSans-67" x="331.050781"/>
      <use xlink:href="#DejaVuSans-20" x="394.527344"/>
      <use xlink:href="#DejaVuSans-4d" x="426.314453"/>
      <use xlink:href="#DejaVuSans-41" x="512.59375"/>
      <use xlink:href="#DejaVuSans-45" x="581.001953"/>
     </g>
    </g>
    <g id="line2d_50">
     <path d="M 420.058125 408.536563 
L 430.058125 408.536563 
L 440.058125 408.536563 
" style="fill: none; stroke: #ff7f0e; stroke-width: 1.5; stroke-linecap: square"/>
    </g>
    <g id="text_53">
     <!-- Validation MAE -->
     <g transform="translate(448.058125 412.036563) scale(0.1 -0.1)">
      <use xlink:href="#DejaVuSans-56"/>
      <use xlink:href="#DejaVuSans-61" x="60.658203"/>
      <use xlink:href="#DejaVuSans-6c" x="121.9375"/>
      <use xlink:href="#DejaVuSans-69" x="149.720703"/>
      <use xlink:href="#DejaVuSans-64" x="177.503906"/>
      <use xlink:href="#DejaVuSans-61" x="240.980469"/>
      <use xlink:href="#DejaVuSans-74" x="302.259766"/>
      <use xlink:href="#DejaVuSans-69" x="341.46875"/>
      <use xlink:href="#DejaVuSans-6f" x="369.251953"/>
      <use xlink:href="#DejaVuSans-6e" x="430.433594"/>
      <use xlink:href="#DejaVuSans-20" x="493.8125"/>
      <use xlink:href="#DejaVuSans-4d" x="525.599609"/>
      <use xlink:href="#DejaVuSans-41" x="611.878906"/>
      <use xlink:href="#DejaVuSans-45" x="680.287109"/>
     </g>
    </g>
   </g>
  </g>
  <g id="axes_4"/>
 </g>
 <defs>
  <clipPath id="p4b5fe82a72">
   <rect x="54.245" y="26.16" width="477.16" height="297.28"/>
  </clipPath>
  <clipPath id="p19ad8952c7">
   <rect x="592.04" y="26.16" width="477.16" height="297.28"/>
  </clipPath>
  <clipPath id="p6beb897571">
   <rect x="54.245" y="380.76" width="477.16" height="297.28"/>
  </clipPath>
 </defs>
</svg>
