<?xml version="1.0" encoding="utf-8" standalone="no"?>
<!DOCTYPE svg PUBLIC "-//W3C//DTD SVG 1.1//EN"
  "http://www.w3.org/Graphics/SVG/1.1/DTD/svg11.dtd">
<svg xmlns:xlink="http://www.w3.org/1999/xlink" width="1080pt" height="720pt" viewBox="0 0 1080 720" xmlns="http://www.w3.org/2000/svg" version="1.1">
 <metadata>
  <rdf:RDF xmlns:dc="http://purl.org/dc/elements/1.1/" xmlns:cc="http://creativecommons.org/ns#" xmlns:rdf="http://www.w3.org/1999/02/22-rdf-syntax-ns#">
   <cc:Work>
    <dc:type rdf:resource="http://purl.org/dc/dcmitype/StillImage"/>
    <dc:date>2024-04-13T12:54:04.589331</dc:date>
    <dc:format>image/svg+xml</dc:format>
    <dc:creator>
     <cc:Agent>
      <dc:title>Matplotlib v3.8.3, https://matplotlib.org/</dc:title>
     </cc:Agent>
    </dc:creator>
   </cc:Work>
  </rdf:RDF>
 </metadata>
 <defs>
  <style type="text/css">*{stroke-linejoin: round; stroke-linecap: butt}</style>
 </defs>
 <g id="figure_1">
  <g id="patch_1">
   <path d="M 0 720 
L 1080 720 
L 1080 0 
L 0 0 
z
" style="fill: #ffffff"/>
  </g>
  <g id="axes_1">
   <g id="patch_2">
    <path d="M 54.245 323.44 
L 531.405 323.44 
L 531.405 26.16 
L 54.245 26.16 
z
" style="fill: #ffffff"/>
   </g>
   <g id="matplotlib.axis_1">
    <g id="xtick_1">
     <g id="line2d_1">
      <defs>
       <path id="md68426fe77" d="M 0 0 
L 0 3.5 
" style="stroke: #000000; stroke-width: 0.8"/>
      </defs>
      <g>
       <use xlink:href="#md68426fe77" x="73.775972" y="323.44" style="stroke: #000000; stroke-width: 0.8"/>
      </g>
     </g>
     <g id="text_1">
      <!-- 0 -->
      <g transform="translate(70.594722 338.038438) scale(0.1 -0.1)">
       <defs>
        <path id="DejaVuSans-30" d="M 2034 4250 
Q 1547 4250 1301 3770 
Q 1056 3291 1056 2328 
Q 1056 1369 1301 889 
Q 1547 409 2034 409 
Q 2525 409 2770 889 
Q 3016 1369 3016 2328 
Q 3016 3291 2770 3770 
Q 2525 4250 2034 4250 
z
M 2034 4750 
Q 2819 4750 3233 4129 
Q 3647 3509 3647 2328 
Q 3647 1150 3233 529 
Q 2819 -91 2034 -91 
Q 1250 -91 836 529 
Q 422 1150 422 2328 
Q 422 3509 836 4129 
Q 1250 4750 2034 4750 
z
" transform="scale(0.015625)"/>
       </defs>
       <use xlink:href="#DejaVuSans-30"/>
      </g>
     </g>
    </g>
    <g id="xtick_2">
     <g id="line2d_2">
      <g>
       <use xlink:href="#md68426fe77" x="127.728935" y="323.44" style="stroke: #000000; stroke-width: 0.8"/>
      </g>
     </g>
     <g id="text_2">
      <!-- 25 -->
      <g transform="translate(121.366435 338.038438) scale(0.1 -0.1)">
       <defs>
        <path id="DejaVuSans-32" d="M 1228 531 
L 3431 531 
L 3431 0 
L 469 0 
L 469 531 
Q 828 903 1448 1529 
Q 2069 2156 2228 2338 
Q 2531 2678 2651 2914 
Q 2772 3150 2772 3378 
Q 2772 3750 2511 3984 
Q 2250 4219 1831 4219 
Q 1534 4219 1204 4116 
Q 875 4013 500 3803 
L 500 4441 
Q 881 4594 1212 4672 
Q 1544 4750 1819 4750 
Q 2544 4750 2975 4387 
Q 3406 4025 3406 3419 
Q 3406 3131 3298 2873 
Q 3191 2616 2906 2266 
Q 2828 2175 2409 1742 
Q 1991 1309 1228 531 
z
" transform="scale(0.015625)"/>
        <path id="DejaVuSans-35" d="M 691 4666 
L 3169 4666 
L 3169 4134 
L 1269 4134 
L 1269 2991 
Q 1406 3038 1543 3061 
Q 1681 3084 1819 3084 
Q 2600 3084 3056 2656 
Q 3513 2228 3513 1497 
Q 3513 744 3044 326 
Q 2575 -91 1722 -91 
Q 1428 -91 1123 -41 
Q 819 9 494 109 
L 494 744 
Q 775 591 1075 516 
Q 1375 441 1709 441 
Q 2250 441 2565 725 
Q 2881 1009 2881 1497 
Q 2881 1984 2565 2268 
Q 2250 2553 1709 2553 
Q 1456 2553 1204 2497 
Q 953 2441 691 2322 
L 691 4666 
z
" transform="scale(0.015625)"/>
       </defs>
       <use xlink:href="#DejaVuSans-32"/>
       <use xlink:href="#DejaVuSans-35" x="63.623047"/>
      </g>
     </g>
    </g>
    <g id="xtick_3">
     <g id="line2d_3">
      <g>
       <use xlink:href="#md68426fe77" x="181.681897" y="323.44" style="stroke: #000000; stroke-width: 0.8"/>
      </g>
     </g>
     <g id="text_3">
      <!-- 50 -->
      <g transform="translate(175.319397 338.038438) scale(0.1 -0.1)">
       <use xlink:href="#DejaVuSans-35"/>
       <use xlink:href="#DejaVuSans-30" x="63.623047"/>
      </g>
     </g>
    </g>
    <g id="xtick_4">
     <g id="line2d_4">
      <g>
       <use xlink:href="#md68426fe77" x="235.63486" y="323.44" style="stroke: #000000; stroke-width: 0.8"/>
      </g>
     </g>
     <g id="text_4">
      <!-- 75 -->
      <g transform="translate(229.27236 338.038438) scale(0.1 -0.1)">
       <defs>
        <path id="DejaVuSans-37" d="M 525 4666 
L 3525 4666 
L 3525 4397 
L 1831 0 
L 1172 0 
L 2766 4134 
L 525 4134 
L 525 4666 
z
" transform="scale(0.015625)"/>
       </defs>
       <use xlink:href="#DejaVuSans-37"/>
       <use xlink:href="#DejaVuSans-35" x="63.623047"/>
      </g>
     </g>
    </g>
    <g id="xtick_5">
     <g id="line2d_5">
      <g>
       <use xlink:href="#md68426fe77" x="289.587822" y="323.44" style="stroke: #000000; stroke-width: 0.8"/>
      </g>
     </g>
     <g id="text_5">
      <!-- 100 -->
      <g transform="translate(280.044072 338.038438) scale(0.1 -0.1)">
       <defs>
        <path id="DejaVuSans-31" d="M 794 531 
L 1825 531 
L 1825 4091 
L 703 3866 
L 703 4441 
L 1819 4666 
L 2450 4666 
L 2450 531 
L 3481 531 
L 3481 0 
L 794 0 
L 794 531 
z
" transform="scale(0.015625)"/>
       </defs>
       <use xlink:href="#DejaVuSans-31"/>
       <use xlink:href="#DejaVuSans-30" x="63.623047"/>
       <use xlink:href="#DejaVuSans-30" x="127.246094"/>
      </g>
     </g>
    </g>
    <g id="xtick_6">
     <g id="line2d_6">
      <g>
       <use xlink:href="#md68426fe77" x="343.540785" y="323.44" style="stroke: #000000; stroke-width: 0.8"/>
      </g>
     </g>
     <g id="text_6">
      <!-- 125 -->
      <g transform="translate(333.997035 338.038438) scale(0.1 -0.1)">
       <use xlink:href="#DejaVuSans-31"/>
       <use xlink:href="#DejaVuSans-32" x="63.623047"/>
       <use xlink:href="#DejaVuSans-35" x="127.246094"/>
      </g>
     </g>
    </g>
    <g id="xtick_7">
     <g id="line2d_7">
      <g>
       <use xlink:href="#md68426fe77" x="397.493747" y="323.44" style="stroke: #000000; stroke-width: 0.8"/>
      </g>
     </g>
     <g id="text_7">
      <!-- 150 -->
      <g transform="translate(387.949997 338.038438) scale(0.1 -0.1)">
       <use xlink:href="#DejaVuSans-31"/>
       <use xlink:href="#DejaVuSans-35" x="63.623047"/>
       <use xlink:href="#DejaVuSans-30" x="127.246094"/>
      </g>
     </g>
    </g>
    <g id="xtick_8">
     <g id="line2d_8">
      <g>
       <use xlink:href="#md68426fe77" x="451.44671" y="323.44" style="stroke: #000000; stroke-width: 0.8"/>
      </g>
     </g>
     <g id="text_8">
      <!-- 175 -->
      <g transform="translate(441.90296 338.038438) scale(0.1 -0.1)">
       <use xlink:href="#DejaVuSans-31"/>
       <use xlink:href="#DejaVuSans-37" x="63.623047"/>
       <use xlink:href="#DejaVuSans-35" x="127.246094"/>
      </g>
     </g>
    </g>
    <g id="xtick_9">
     <g id="line2d_9">
      <g>
       <use xlink:href="#md68426fe77" x="505.399672" y="323.44" style="stroke: #000000; stroke-width: 0.8"/>
      </g>
     </g>
     <g id="text_9">
      <!-- 200 -->
      <g transform="translate(495.855922 338.038438) scale(0.1 -0.1)">
       <use xlink:href="#DejaVuSans-32"/>
       <use xlink:href="#DejaVuSans-30" x="63.623047"/>
       <use xlink:href="#DejaVuSans-30" x="127.246094"/>
      </g>
     </g>
    </g>
    <g id="text_10">
     <!-- Epochs -->
     <g transform="translate(274.909375 351.716563) scale(0.1 -0.1)">
      <defs>
       <path id="DejaVuSans-45" d="M 628 4666 
L 3578 4666 
L 3578 4134 
L 1259 4134 
L 1259 2753 
L 3481 2753 
L 3481 2222 
L 1259 2222 
L 1259 531 
L 3634 531 
L 3634 0 
L 628 0 
L 628 4666 
z
" transform="scale(0.015625)"/>
       <path id="DejaVuSans-70" d="M 1159 525 
L 1159 -1331 
L 581 -1331 
L 581 3500 
L 1159 3500 
L 1159 2969 
Q 1341 3281 1617 3432 
Q 1894 3584 2278 3584 
Q 2916 3584 3314 3078 
Q 3713 2572 3713 1747 
Q 3713 922 3314 415 
Q 2916 -91 2278 -91 
Q 1894 -91 1617 61 
Q 1341 213 1159 525 
z
M 3116 1747 
Q 3116 2381 2855 2742 
Q 2594 3103 2138 3103 
Q 1681 3103 1420 2742 
Q 1159 2381 1159 1747 
Q 1159 1113 1420 752 
Q 1681 391 2138 391 
Q 2594 391 2855 752 
Q 3116 1113 3116 1747 
z
" transform="scale(0.015625)"/>
       <path id="DejaVuSans-6f" d="M 1959 3097 
Q 1497 3097 1228 2736 
Q 959 2375 959 1747 
Q 959 1119 1226 758 
Q 1494 397 1959 397 
Q 2419 397 2687 759 
Q 2956 1122 2956 1747 
Q 2956 2369 2687 2733 
Q 2419 3097 1959 3097 
z
M 1959 3584 
Q 2709 3584 3137 3096 
Q 3566 2609 3566 1747 
Q 3566 888 3137 398 
Q 2709 -91 1959 -91 
Q 1206 -91 779 398 
Q 353 888 353 1747 
Q 353 2609 779 3096 
Q 1206 3584 1959 3584 
z
" transform="scale(0.015625)"/>
       <path id="DejaVuSans-63" d="M 3122 3366 
L 3122 2828 
Q 2878 2963 2633 3030 
Q 2388 3097 2138 3097 
Q 1578 3097 1268 2742 
Q 959 2388 959 1747 
Q 959 1106 1268 751 
Q 1578 397 2138 397 
Q 2388 397 2633 464 
Q 2878 531 3122 666 
L 3122 134 
Q 2881 22 2623 -34 
Q 2366 -91 2075 -91 
Q 1284 -91 818 406 
Q 353 903 353 1747 
Q 353 2603 823 3093 
Q 1294 3584 2113 3584 
Q 2378 3584 2631 3529 
Q 2884 3475 3122 3366 
z
" transform="scale(0.015625)"/>
       <path id="DejaVuSans-68" d="M 3513 2113 
L 3513 0 
L 2938 0 
L 2938 2094 
Q 2938 2591 2744 2837 
Q 2550 3084 2163 3084 
Q 1697 3084 1428 2787 
Q 1159 2491 1159 1978 
L 1159 0 
L 581 0 
L 581 4863 
L 1159 4863 
L 1159 2956 
Q 1366 3272 1645 3428 
Q 1925 3584 2291 3584 
Q 2894 3584 3203 3211 
Q 3513 2838 3513 2113 
z
" transform="scale(0.015625)"/>
       <path id="DejaVuSans-73" d="M 2834 3397 
L 2834 2853 
Q 2591 2978 2328 3040 
Q 2066 3103 1784 3103 
Q 1356 3103 1142 2972 
Q 928 2841 928 2578 
Q 928 2378 1081 2264 
Q 1234 2150 1697 2047 
L 1894 2003 
Q 2506 1872 2764 1633 
Q 3022 1394 3022 966 
Q 3022 478 2636 193 
Q 2250 -91 1575 -91 
Q 1294 -91 989 -36 
Q 684 19 347 128 
L 347 722 
Q 666 556 975 473 
Q 1284 391 1588 391 
Q 1994 391 2212 530 
Q 2431 669 2431 922 
Q 2431 1156 2273 1281 
Q 2116 1406 1581 1522 
L 1381 1569 
Q 847 1681 609 1914 
Q 372 2147 372 2553 
Q 372 3047 722 3315 
Q 1072 3584 1716 3584 
Q 2034 3584 2315 3537 
Q 2597 3491 2834 3397 
z
" transform="scale(0.015625)"/>
      </defs>
      <use xlink:href="#DejaVuSans-45"/>
      <use xlink:href="#DejaVuSans-70" x="63.183594"/>
      <use xlink:href="#DejaVuSans-6f" x="126.660156"/>
      <use xlink:href="#DejaVuSans-63" x="187.841797"/>
      <use xlink:href="#DejaVuSans-68" x="242.822266"/>
      <use xlink:href="#DejaVuSans-73" x="306.201172"/>
     </g>
    </g>
   </g>
   <g id="matplotlib.axis_2">
    <g id="ytick_1">
     <g id="line2d_10">
      <defs>
       <path id="me20b962102" d="M 0 0 
L -3.5 0 
" style="stroke: #000000; stroke-width: 0.8"/>
      </defs>
      <g>
       <use xlink:href="#me20b962102" x="54.245" y="313.887351" style="stroke: #000000; stroke-width: 0.8"/>
      </g>
     </g>
     <g id="text_11">
      <!-- 0.00 -->
      <g transform="translate(24.979375 317.68657) scale(0.1 -0.1)">
       <defs>
        <path id="DejaVuSans-2e" d="M 684 794 
L 1344 794 
L 1344 0 
L 684 0 
L 684 794 
z
" transform="scale(0.015625)"/>
       </defs>
       <use xlink:href="#DejaVuSans-30"/>
       <use xlink:href="#DejaVuSans-2e" x="63.623047"/>
       <use xlink:href="#DejaVuSans-30" x="95.410156"/>
       <use xlink:href="#DejaVuSans-30" x="159.033203"/>
      </g>
     </g>
    </g>
    <g id="ytick_2">
     <g id="line2d_11">
      <g>
       <use xlink:href="#me20b962102" x="54.245" y="258.818251" style="stroke: #000000; stroke-width: 0.8"/>
      </g>
     </g>
     <g id="text_12">
      <!-- 0.05 -->
      <g transform="translate(24.979375 262.61747) scale(0.1 -0.1)">
       <use xlink:href="#DejaVuSans-30"/>
       <use xlink:href="#DejaVuSans-2e" x="63.623047"/>
       <use xlink:href="#DejaVuSans-30" x="95.410156"/>
       <use xlink:href="#DejaVuSans-35" x="159.033203"/>
      </g>
     </g>
    </g>
    <g id="ytick_3">
     <g id="line2d_12">
      <g>
       <use xlink:href="#me20b962102" x="54.245" y="203.749151" style="stroke: #000000; stroke-width: 0.8"/>
      </g>
     </g>
     <g id="text_13">
      <!-- 0.10 -->
      <g transform="translate(24.979375 207.54837) scale(0.1 -0.1)">
       <use xlink:href="#DejaVuSans-30"/>
       <use xlink:href="#DejaVuSans-2e" x="63.623047"/>
       <use xlink:href="#DejaVuSans-31" x="95.410156"/>
       <use xlink:href="#DejaVuSans-30" x="159.033203"/>
      </g>
     </g>
    </g>
    <g id="ytick_4">
     <g id="line2d_13">
      <g>
       <use xlink:href="#me20b962102" x="54.245" y="148.680051" style="stroke: #000000; stroke-width: 0.8"/>
      </g>
     </g>
     <g id="text_14">
      <!-- 0.15 -->
      <g transform="translate(24.979375 152.47927) scale(0.1 -0.1)">
       <use xlink:href="#DejaVuSans-30"/>
       <use xlink:href="#DejaVuSans-2e" x="63.623047"/>
       <use xlink:href="#DejaVuSans-31" x="95.410156"/>
       <use xlink:href="#DejaVuSans-35" x="159.033203"/>
      </g>
     </g>
    </g>
    <g id="ytick_5">
     <g id="line2d_14">
      <g>
       <use xlink:href="#me20b962102" x="54.245" y="93.610951" style="stroke: #000000; stroke-width: 0.8"/>
      </g>
     </g>
     <g id="text_15">
      <!-- 0.20 -->
      <g transform="translate(24.979375 97.41017) scale(0.1 -0.1)">
       <use xlink:href="#DejaVuSans-30"/>
       <use xlink:href="#DejaVuSans-2e" x="63.623047"/>
       <use xlink:href="#DejaVuSans-32" x="95.410156"/>
       <use xlink:href="#DejaVuSans-30" x="159.033203"/>
      </g>
     </g>
    </g>
    <g id="ytick_6">
     <g id="line2d_15">
      <g>
       <use xlink:href="#me20b962102" x="54.245" y="38.541851" style="stroke: #000000; stroke-width: 0.8"/>
      </g>
     </g>
     <g id="text_16">
      <!-- 0.25 -->
      <g transform="translate(24.979375 42.34107) scale(0.1 -0.1)">
       <use xlink:href="#DejaVuSans-30"/>
       <use xlink:href="#DejaVuSans-2e" x="63.623047"/>
       <use xlink:href="#DejaVuSans-32" x="95.410156"/>
       <use xlink:href="#DejaVuSans-35" x="159.033203"/>
      </g>
     </g>
    </g>
    <g id="text_17">
     <!-- Loss -->
     <g transform="translate(18.899687 185.767188) rotate(-90) scale(0.1 -0.1)">
      <defs>
       <path id="DejaVuSans-4c" d="M 628 4666 
L 1259 4666 
L 1259 531 
L 3531 531 
L 3531 0 
L 628 0 
L 628 4666 
z
" transform="scale(0.015625)"/>
      </defs>
      <use xlink:href="#DejaVuSans-4c"/>
      <use xlink:href="#DejaVuSans-6f" x="53.962891"/>
      <use xlink:href="#DejaVuSans-73" x="115.144531"/>
      <use xlink:href="#DejaVuSans-73" x="167.244141"/>
     </g>
    </g>
   </g>
   <g id="line2d_16">
    <path d="M 75.934091 39.672727 
L 78.092209 211.957161 
L 80.250328 222.76496 
L 82.408446 227.786369 
L 84.566565 233.466436 
L 86.724683 235.729682 
L 88.882802 241.287562 
L 91.04092 242.221455 
L 95.357157 248.739963 
L 97.515276 249.838672 
L 99.673394 251.896236 
L 101.831513 254.493628 
L 106.14775 260.270988 
L 108.305868 260.138729 
L 112.622105 263.994587 
L 114.780224 267.025228 
L 116.938342 268.715757 
L 119.096461 268.188489 
L 121.254579 272.090756 
L 123.412698 272.193601 
L 125.570816 273.120047 
L 127.728935 275.24069 
L 129.887053 275.851704 
L 132.045172 277.111159 
L 134.20329 278.707001 
L 136.361409 281.134527 
L 138.519527 280.731386 
L 140.677646 282.392904 
L 142.835764 283.281565 
L 144.993883 284.709441 
L 147.152001 284.996343 
L 149.31012 285.617469 
L 151.468238 287.007388 
L 155.784475 287.95081 
L 157.942594 288.307918 
L 160.100712 289.955812 
L 162.258831 289.279573 
L 164.416949 290.308687 
L 166.575068 291.745875 
L 168.733186 291.029064 
L 173.049423 293.137819 
L 175.207542 293.46239 
L 177.36566 294.037409 
L 179.523779 293.907735 
L 181.681897 295.025722 
L 183.840016 294.558804 
L 185.998134 294.694548 
L 188.156253 296.445223 
L 190.314371 295.997235 
L 192.47249 295.758347 
L 194.630608 296.885213 
L 198.946845 296.73607 
L 201.104964 297.748675 
L 203.263082 296.741584 
L 205.421201 297.238989 
L 207.579319 298.033646 
L 209.737438 298.461034 
L 211.895556 299.511023 
L 214.053675 298.668498 
L 216.211793 299.308741 
L 218.369912 299.585271 
L 224.844267 299.289595 
L 227.002386 301.054044 
L 229.160504 300.04059 
L 231.318623 300.768553 
L 233.476741 300.886035 
L 235.63486 300.657278 
L 237.792978 301.428176 
L 239.951097 301.069122 
L 242.109215 300.147503 
L 244.267334 300.854903 
L 246.425452 302.370799 
L 248.583571 301.830824 
L 250.741689 301.693804 
L 252.899808 302.668063 
L 255.057926 302.467457 
L 257.216045 302.836759 
L 259.374163 303.398716 
L 261.532282 302.33892 
L 263.6904 303.854276 
L 265.848519 302.811035 
L 268.006637 302.891832 
L 270.164756 304.202082 
L 272.322874 303.430791 
L 274.480993 303.460421 
L 276.639111 304.326416 
L 278.79723 303.854036 
L 280.955348 304.675289 
L 283.113467 303.533356 
L 285.271585 304.696259 
L 287.429704 303.453705 
L 289.587822 305.366654 
L 291.745941 304.639606 
L 293.904059 305.655944 
L 296.062178 304.583893 
L 298.220296 304.376563 
L 300.378415 305.531421 
L 302.536533 305.377702 
L 304.694652 304.578971 
L 306.85277 305.911681 
L 309.010889 305.041038 
L 311.169007 306.093157 
L 313.327126 306.081797 
L 315.485244 305.401903 
L 317.643363 305.890186 
L 319.801481 305.583122 
L 321.9596 306.041297 
L 324.117718 305.246979 
L 326.275837 304.056622 
L 328.433955 305.949119 
L 330.592074 306.008408 
L 332.750192 306.373044 
L 334.908311 306.223718 
L 337.066429 305.845497 
L 339.224548 306.543506 
L 341.382666 305.113426 
L 345.698903 307.054085 
L 347.857022 306.241893 
L 350.01514 306.773528 
L 352.173259 306.180311 
L 354.331377 305.927447 
L 356.489496 307.099706 
L 360.805733 307.222176 
L 362.963851 306.984273 
L 365.12197 306.561048 
L 367.280088 307.240301 
L 369.438207 307.218646 
L 371.596325 306.99889 
L 373.754444 307.809457 
L 375.912562 306.748438 
L 378.070681 307.947632 
L 380.228799 307.782038 
L 382.386918 306.242499 
L 384.545036 307.679143 
L 386.703155 307.844243 
L 388.861273 307.79511 
L 391.019392 307.454187 
L 393.17751 308.373236 
L 395.335629 307.167328 
L 397.493747 307.498941 
L 399.651866 308.291797 
L 401.809984 306.653076 
L 403.968103 308.221721 
L 406.126221 308.364093 
L 408.28434 307.431059 
L 410.442458 308.748072 
L 412.600577 307.977626 
L 414.758695 308.36725 
L 416.916814 308.630684 
L 419.074932 308.43215 
L 421.233051 308.102445 
L 423.391169 308.690523 
L 425.549288 308.831306 
L 427.707406 308.084748 
L 429.865525 308.077326 
L 432.023643 309.225964 
L 434.181762 308.516553 
L 436.33988 308.912844 
L 438.497999 307.544296 
L 440.656117 308.491723 
L 442.814236 308.84158 
L 447.130473 308.734471 
L 449.288591 309.330116 
L 451.44671 308.483766 
L 453.604828 308.463682 
L 457.921065 309.255289 
L 460.079184 308.921357 
L 462.237302 309.537684 
L 464.395421 308.045982 
L 466.553539 309.742911 
L 468.711658 309.271239 
L 470.869776 308.953925 
L 473.027895 309.313407 
L 479.50225 308.864004 
L 483.818487 309.226486 
L 485.976606 308.390298 
L 488.134724 309.576326 
L 490.292843 309.619889 
L 492.450961 309.026445 
L 494.60908 309.858936 
L 496.767198 308.708335 
L 498.925317 309.373207 
L 501.083435 308.94148 
L 503.241554 309.340618 
L 505.399672 309.497383 
L 507.557791 308.814654 
L 509.715909 309.327091 
L 509.715909 309.327091 
" clip-path="url(#p416f103a20)" style="fill: none; stroke: #1f77b4; stroke-width: 1.5; stroke-linecap: square"/>
   </g>
   <g id="line2d_17">
    <path d="M 75.934091 196.455878 
L 78.092209 228.796971 
L 80.250328 232.969213 
L 82.408446 236.166008 
L 84.566565 224.399755 
L 86.724683 243.987224 
L 88.882802 245.110666 
L 91.04092 236.122139 
L 93.199039 247.964576 
L 95.357157 235.145764 
L 97.515276 249.100564 
L 99.673394 252.815038 
L 101.831513 252.873723 
L 103.989631 243.079426 
L 106.14775 260.894705 
L 108.305868 250.821558 
L 112.622105 266.859267 
L 114.780224 269.455629 
L 116.938342 250.660484 
L 119.096461 273.865843 
L 121.254579 272.783427 
L 123.412698 267.301776 
L 125.570816 274.060533 
L 127.728935 260.287035 
L 129.887053 269.452314 
L 132.045172 279.710556 
L 134.20329 278.316312 
L 136.361409 277.757077 
L 138.519527 277.55444 
L 140.677646 281.006277 
L 142.835764 286.842018 
L 144.993883 280.129479 
L 147.152001 279.961005 
L 149.31012 280.977396 
L 151.468238 288.03354 
L 153.626357 272.630805 
L 155.784475 279.569654 
L 157.942594 282.401021 
L 160.100712 291.12375 
L 162.258831 288.123223 
L 164.416949 275.152169 
L 166.575068 287.769954 
L 168.733186 289.829885 
L 170.891305 290.863002 
L 173.049423 281.536961 
L 175.207542 290.468609 
L 177.36566 283.130061 
L 179.523779 288.400311 
L 181.681897 295.803236 
L 183.840016 294.995454 
L 185.998134 292.729947 
L 188.156253 296.546415 
L 190.314371 294.962497 
L 192.47249 299.949714 
L 194.630608 279.659254 
L 196.788727 296.133537 
L 198.946845 291.005396 
L 201.104964 292.20917 
L 203.263082 296.925362 
L 205.421201 298.962288 
L 207.579319 296.848275 
L 211.895556 293.989533 
L 214.053675 301.304549 
L 216.211793 292.657583 
L 218.369912 295.009088 
L 220.52803 300.041034 
L 222.686149 301.534865 
L 224.844267 299.114442 
L 227.002386 293.444996 
L 229.160504 300.024567 
L 231.318623 294.544267 
L 233.476741 297.439754 
L 235.63486 299.067473 
L 239.951097 299.949915 
L 242.109215 299.112189 
L 244.267334 298.765805 
L 246.425452 299.94438 
L 248.583571 304.207893 
L 250.741689 295.150269 
L 252.899808 292.267249 
L 255.057926 293.792804 
L 259.374163 303.653295 
L 261.532282 299.042313 
L 263.6904 301.620531 
L 265.848519 291.024774 
L 268.006637 299.174936 
L 270.164756 292.353965 
L 272.322874 298.482425 
L 274.480993 305.879214 
L 276.639111 301.030265 
L 278.79723 303.376087 
L 280.955348 288.211386 
L 283.113467 297.40246 
L 285.271585 303.324768 
L 287.429704 304.121036 
L 289.587822 295.94861 
L 291.745941 303.955496 
L 293.904059 300.868033 
L 296.062178 301.404697 
L 298.220296 305.476015 
L 300.378415 302.723991 
L 302.536533 305.258969 
L 304.694652 304.108639 
L 306.85277 302.522204 
L 309.010889 302.012193 
L 311.169007 294.467195 
L 313.327126 307.879449 
L 315.485244 300.641055 
L 317.643363 303.206332 
L 319.801481 301.54559 
L 321.9596 305.112115 
L 324.117718 303.79479 
L 326.275837 305.88683 
L 328.433955 308.364471 
L 330.592074 305.517404 
L 332.750192 304.820273 
L 334.908311 297.302126 
L 337.066429 295.04599 
L 339.224548 298.584004 
L 341.382666 297.060736 
L 343.540785 306.738639 
L 345.698903 302.775972 
L 347.857022 304.141765 
L 350.01514 305.353905 
L 352.173259 304.063467 
L 354.331377 288.441101 
L 356.489496 300.970964 
L 358.647614 307.046711 
L 360.805733 304.456246 
L 362.963851 297.597073 
L 365.12197 296.006304 
L 367.280088 307.786927 
L 369.438207 297.562846 
L 371.596325 306.07621 
L 373.754444 302.039041 
L 375.912562 308.887165 
L 378.070681 296.771615 
L 380.228799 303.594097 
L 382.386918 308.796825 
L 384.545036 308.959703 
L 386.703155 308.113531 
L 388.861273 306.233948 
L 391.019392 309.106641 
L 393.17751 306.48422 
L 395.335629 303.671085 
L 397.493747 305.011988 
L 399.651866 309.220766 
L 401.809984 309.927273 
L 403.968103 303.374158 
L 406.126221 305.55965 
L 408.28434 307.198866 
L 410.442458 307.034809 
L 412.600577 303.672182 
L 414.758695 306.957207 
L 416.916814 306.970677 
L 419.074932 307.260308 
L 421.233051 307.397536 
L 423.391169 306.8109 
L 429.865525 308.036422 
L 432.023643 302.360589 
L 434.181762 303.168696 
L 436.33988 304.564214 
L 438.497999 305.577986 
L 440.656117 305.125137 
L 444.972354 308.552087 
L 447.130473 306.883839 
L 449.288591 309.715556 
L 451.44671 308.18594 
L 453.604828 307.512509 
L 455.762947 307.243619 
L 457.921065 308.331554 
L 460.079184 308.655538 
L 462.237302 305.122053 
L 464.395421 309.447644 
L 466.553539 307.864625 
L 468.711658 308.22185 
L 470.869776 309.252423 
L 473.027895 306.653642 
L 475.186013 303.42768 
L 477.344132 304.522061 
L 479.50225 308.132459 
L 481.660369 309.247497 
L 485.976606 307.293624 
L 488.134724 309.36167 
L 490.292843 305.983771 
L 492.450961 299.813648 
L 494.60908 305.560362 
L 496.767198 302.280215 
L 498.925317 308.051883 
L 501.083435 303.447789 
L 503.241554 304.207853 
L 505.399672 302.482262 
L 507.557791 307.471083 
L 509.715909 308.813021 
L 509.715909 308.813021 
" clip-path="url(#p416f103a20)" style="fill: none; stroke: #ff7f0e; stroke-width: 1.5; stroke-linecap: square"/>
   </g>
   <g id="patch_3">
    <path d="M 54.245 323.44 
L 54.245 26.16 
" style="fill: none; stroke: #000000; stroke-width: 0.8; stroke-linejoin: miter; stroke-linecap: square"/>
   </g>
   <g id="patch_4">
    <path d="M 531.405 323.44 
L 531.405 26.16 
" style="fill: none; stroke: #000000; stroke-width: 0.8; stroke-linejoin: miter; stroke-linecap: square"/>
   </g>
   <g id="patch_5">
    <path d="M 54.245 323.44 
L 531.405 323.44 
" style="fill: none; stroke: #000000; stroke-width: 0.8; stroke-linejoin: miter; stroke-linecap: square"/>
   </g>
   <g id="patch_6">
    <path d="M 54.245 26.16 
L 531.405 26.16 
" style="fill: none; stroke: #000000; stroke-width: 0.8; stroke-linejoin: miter; stroke-linecap: square"/>
   </g>
   <g id="text_18">
    <!-- Training and Validation Loss -->
    <g transform="translate(209.355625 20.16) scale(0.12 -0.12)">
     <defs>
      <path id="DejaVuSans-54" d="M -19 4666 
L 3928 4666 
L 3928 4134 
L 2272 4134 
L 2272 0 
L 1638 0 
L 1638 4134 
L -19 4134 
L -19 4666 
z
" transform="scale(0.015625)"/>
      <path id="DejaVuSans-72" d="M 2631 2963 
Q 2534 3019 2420 3045 
Q 2306 3072 2169 3072 
Q 1681 3072 1420 2755 
Q 1159 2438 1159 1844 
L 1159 0 
L 581 0 
L 581 3500 
L 1159 3500 
L 1159 2956 
Q 1341 3275 1631 3429 
Q 1922 3584 2338 3584 
Q 2397 3584 2469 3576 
Q 2541 3569 2628 3553 
L 2631 2963 
z
" transform="scale(0.015625)"/>
      <path id="DejaVuSans-61" d="M 2194 1759 
Q 1497 1759 1228 1600 
Q 959 1441 959 1056 
Q 959 750 1161 570 
Q 1363 391 1709 391 
Q 2188 391 2477 730 
Q 2766 1069 2766 1631 
L 2766 1759 
L 2194 1759 
z
M 3341 1997 
L 3341 0 
L 2766 0 
L 2766 531 
Q 2569 213 2275 61 
Q 1981 -91 1556 -91 
Q 1019 -91 701 211 
Q 384 513 384 1019 
Q 384 1609 779 1909 
Q 1175 2209 1959 2209 
L 2766 2209 
L 2766 2266 
Q 2766 2663 2505 2880 
Q 2244 3097 1772 3097 
Q 1472 3097 1187 3025 
Q 903 2953 641 2809 
L 641 3341 
Q 956 3463 1253 3523 
Q 1550 3584 1831 3584 
Q 2591 3584 2966 3190 
Q 3341 2797 3341 1997 
z
" transform="scale(0.015625)"/>
      <path id="DejaVuSans-69" d="M 603 3500 
L 1178 3500 
L 1178 0 
L 603 0 
L 603 3500 
z
M 603 4863 
L 1178 4863 
L 1178 4134 
L 603 4134 
L 603 4863 
z
" transform="scale(0.015625)"/>
      <path id="DejaVuSans-6e" d="M 3513 2113 
L 3513 0 
L 2938 0 
L 2938 2094 
Q 2938 2591 2744 2837 
Q 2550 3084 2163 3084 
Q 1697 3084 1428 2787 
Q 1159 2491 1159 1978 
L 1159 0 
L 581 0 
L 581 3500 
L 1159 3500 
L 1159 2956 
Q 1366 3272 1645 3428 
Q 1925 3584 2291 3584 
Q 2894 3584 3203 3211 
Q 3513 2838 3513 2113 
z
" transform="scale(0.015625)"/>
      <path id="DejaVuSans-67" d="M 2906 1791 
Q 2906 2416 2648 2759 
Q 2391 3103 1925 3103 
Q 1463 3103 1205 2759 
Q 947 2416 947 1791 
Q 947 1169 1205 825 
Q 1463 481 1925 481 
Q 2391 481 2648 825 
Q 2906 1169 2906 1791 
z
M 3481 434 
Q 3481 -459 3084 -895 
Q 2688 -1331 1869 -1331 
Q 1566 -1331 1297 -1286 
Q 1028 -1241 775 -1147 
L 775 -588 
Q 1028 -725 1275 -790 
Q 1522 -856 1778 -856 
Q 2344 -856 2625 -561 
Q 2906 -266 2906 331 
L 2906 616 
Q 2728 306 2450 153 
Q 2172 0 1784 0 
Q 1141 0 747 490 
Q 353 981 353 1791 
Q 353 2603 747 3093 
Q 1141 3584 1784 3584 
Q 2172 3584 2450 3431 
Q 2728 3278 2906 2969 
L 2906 3500 
L 3481 3500 
L 3481 434 
z
" transform="scale(0.015625)"/>
      <path id="DejaVuSans-20" transform="scale(0.015625)"/>
      <path id="DejaVuSans-64" d="M 2906 2969 
L 2906 4863 
L 3481 4863 
L 3481 0 
L 2906 0 
L 2906 525 
Q 2725 213 2448 61 
Q 2172 -91 1784 -91 
Q 1150 -91 751 415 
Q 353 922 353 1747 
Q 353 2572 751 3078 
Q 1150 3584 1784 3584 
Q 2172 3584 2448 3432 
Q 2725 3281 2906 2969 
z
M 947 1747 
Q 947 1113 1208 752 
Q 1469 391 1925 391 
Q 2381 391 2643 752 
Q 2906 1113 2906 1747 
Q 2906 2381 2643 2742 
Q 2381 3103 1925 3103 
Q 1469 3103 1208 2742 
Q 947 2381 947 1747 
z
" transform="scale(0.015625)"/>
      <path id="DejaVuSans-56" d="M 1831 0 
L 50 4666 
L 709 4666 
L 2188 738 
L 3669 4666 
L 4325 4666 
L 2547 0 
L 1831 0 
z
" transform="scale(0.015625)"/>
      <path id="DejaVuSans-6c" d="M 603 4863 
L 1178 4863 
L 1178 0 
L 603 0 
L 603 4863 
z
" transform="scale(0.015625)"/>
      <path id="DejaVuSans-74" d="M 1172 4494 
L 1172 3500 
L 2356 3500 
L 2356 3053 
L 1172 3053 
L 1172 1153 
Q 1172 725 1289 603 
Q 1406 481 1766 481 
L 2356 481 
L 2356 0 
L 1766 0 
Q 1100 0 847 248 
Q 594 497 594 1153 
L 594 3053 
L 172 3053 
L 172 3500 
L 594 3500 
L 594 4494 
L 1172 4494 
z
" transform="scale(0.015625)"/>
     </defs>
     <use xlink:href="#DejaVuSans-54"/>
     <use xlink:href="#DejaVuSans-72" x="46.333984"/>
     <use xlink:href="#DejaVuSans-61" x="87.447266"/>
     <use xlink:href="#DejaVuSans-69" x="148.726562"/>
     <use xlink:href="#DejaVuSans-6e" x="176.509766"/>
     <use xlink:href="#DejaVuSans-69" x="239.888672"/>
     <use xlink:href="#DejaVuSans-6e" x="267.671875"/>
     <use xlink:href="#DejaVuSans-67" x="331.050781"/>
     <use xlink:href="#DejaVuSans-20" x="394.527344"/>
     <use xlink:href="#DejaVuSans-61" x="426.314453"/>
     <use xlink:href="#DejaVuSans-6e" x="487.59375"/>
     <use xlink:href="#DejaVuSans-64" x="550.972656"/>
     <use xlink:href="#DejaVuSans-20" x="614.449219"/>
     <use xlink:href="#DejaVuSans-56" x="646.236328"/>
     <use xlink:href="#DejaVuSans-61" x="706.894531"/>
     <use xlink:href="#DejaVuSans-6c" x="768.173828"/>
     <use xlink:href="#DejaVuSans-69" x="795.957031"/>
     <use xlink:href="#DejaVuSans-64" x="823.740234"/>
     <use xlink:href="#DejaVuSans-61" x="887.216797"/>
     <use xlink:href="#DejaVuSans-74" x="948.496094"/>
     <use xlink:href="#DejaVuSans-69" x="987.705078"/>
     <use xlink:href="#DejaVuSans-6f" x="1015.488281"/>
     <use xlink:href="#DejaVuSans-6e" x="1076.669922"/>
     <use xlink:href="#DejaVuSans-20" x="1140.048828"/>
     <use xlink:href="#DejaVuSans-4c" x="1171.835938"/>
     <use xlink:href="#DejaVuSans-6f" x="1225.798828"/>
     <use xlink:href="#DejaVuSans-73" x="1286.980469"/>
     <use xlink:href="#DejaVuSans-73" x="1339.080078"/>
    </g>
   </g>
   <g id="legend_1">
    <g id="patch_7">
     <path d="M 420.53 63.51625 
L 524.405 63.51625 
Q 526.405 63.51625 526.405 61.51625 
L 526.405 33.16 
Q 526.405 31.16 524.405 31.16 
L 420.53 31.16 
Q 418.53 31.16 418.53 33.16 
L 418.53 61.51625 
Q 418.53 63.51625 420.53 63.51625 
z
" style="fill: #ffffff; opacity: 0.8; stroke: #cccccc; stroke-linejoin: miter"/>
    </g>
    <g id="line2d_18">
     <path d="M 422.53 39.258438 
L 432.53 39.258438 
L 442.53 39.258438 
" style="fill: none; stroke: #1f77b4; stroke-width: 1.5; stroke-linecap: square"/>
    </g>
    <g id="text_19">
     <!-- Training loss -->
     <g transform="translate(450.53 42.758438) scale(0.1 -0.1)">
      <use xlink:href="#DejaVuSans-54"/>
      <use xlink:href="#DejaVuSans-72" x="46.333984"/>
      <use xlink:href="#DejaVuSans-61" x="87.447266"/>
      <use xlink:href="#DejaVuSans-69" x="148.726562"/>
      <use xlink:href="#DejaVuSans-6e" x="176.509766"/>
      <use xlink:href="#DejaVuSans-69" x="239.888672"/>
      <use xlink:href="#DejaVuSans-6e" x="267.671875"/>
      <use xlink:href="#DejaVuSans-67" x="331.050781"/>
      <use xlink:href="#DejaVuSans-20" x="394.527344"/>
      <use xlink:href="#DejaVuSans-6c" x="426.314453"/>
      <use xlink:href="#DejaVuSans-6f" x="454.097656"/>
      <use xlink:href="#DejaVuSans-73" x="515.279297"/>
      <use xlink:href="#DejaVuSans-73" x="567.378906"/>
     </g>
    </g>
    <g id="line2d_19">
     <path d="M 422.53 53.936563 
L 432.53 53.936563 
L 442.53 53.936563 
" style="fill: none; stroke: #ff7f0e; stroke-width: 1.5; stroke-linecap: square"/>
    </g>
    <g id="text_20">
     <!-- Validation loss -->
     <g transform="translate(450.53 57.436563) scale(0.1 -0.1)">
      <use xlink:href="#DejaVuSans-56"/>
      <use xlink:href="#DejaVuSans-61" x="60.658203"/>
      <use xlink:href="#DejaVuSans-6c" x="121.9375"/>
      <use xlink:href="#DejaVuSans-69" x="149.720703"/>
      <use xlink:href="#DejaVuSans-64" x="177.503906"/>
      <use xlink:href="#DejaVuSans-61" x="240.980469"/>
      <use xlink:href="#DejaVuSans-74" x="302.259766"/>
      <use xlink:href="#DejaVuSans-69" x="341.46875"/>
      <use xlink:href="#DejaVuSans-6f" x="369.251953"/>
      <use xlink:href="#DejaVuSans-6e" x="430.433594"/>
      <use xlink:href="#DejaVuSans-20" x="493.8125"/>
      <use xlink:href="#DejaVuSans-6c" x="525.599609"/>
      <use xlink:href="#DejaVuSans-6f" x="553.382812"/>
      <use xlink:href="#DejaVuSans-73" x="614.564453"/>
      <use xlink:href="#DejaVuSans-73" x="666.664062"/>
     </g>
    </g>
   </g>
  </g>
  <g id="axes_2">
   <g id="patch_8">
    <path d="M 592.04 323.44 
L 1069.2 323.44 
L 1069.2 26.16 
L 592.04 26.16 
z
" style="fill: #ffffff"/>
   </g>
   <g id="matplotlib.axis_3">
    <g id="xtick_10">
     <g id="line2d_20">
      <g>
       <use xlink:href="#md68426fe77" x="639.583636" y="323.44" style="stroke: #000000; stroke-width: 0.8"/>
      </g>
     </g>
     <g id="text_21">
      <!-- 60 -->
      <g transform="translate(633.221136 338.038438) scale(0.1 -0.1)">
       <defs>
        <path id="DejaVuSans-36" d="M 2113 2584 
Q 1688 2584 1439 2293 
Q 1191 2003 1191 1497 
Q 1191 994 1439 701 
Q 1688 409 2113 409 
Q 2538 409 2786 701 
Q 3034 994 3034 1497 
Q 3034 2003 2786 2293 
Q 2538 2584 2113 2584 
z
M 3366 4563 
L 3366 3988 
Q 3128 4100 2886 4159 
Q 2644 4219 2406 4219 
Q 1781 4219 1451 3797 
Q 1122 3375 1075 2522 
Q 1259 2794 1537 2939 
Q 1816 3084 2150 3084 
Q 2853 3084 3261 2657 
Q 3669 2231 3669 1497 
Q 3669 778 3244 343 
Q 2819 -91 2113 -91 
Q 1303 -91 875 529 
Q 447 1150 447 2328 
Q 447 3434 972 4092 
Q 1497 4750 2381 4750 
Q 2619 4750 2861 4703 
Q 3103 4656 3366 4563 
z
" transform="scale(0.015625)"/>
       </defs>
       <use xlink:href="#DejaVuSans-36"/>
       <use xlink:href="#DejaVuSans-30" x="63.623047"/>
      </g>
     </g>
    </g>
    <g id="xtick_11">
     <g id="line2d_21">
      <g>
       <use xlink:href="#md68426fe77" x="697.038182" y="323.44" style="stroke: #000000; stroke-width: 0.8"/>
      </g>
     </g>
     <g id="text_22">
      <!-- 80 -->
      <g transform="translate(690.675682 338.038438) scale(0.1 -0.1)">
       <defs>
        <path id="DejaVuSans-38" d="M 2034 2216 
Q 1584 2216 1326 1975 
Q 1069 1734 1069 1313 
Q 1069 891 1326 650 
Q 1584 409 2034 409 
Q 2484 409 2743 651 
Q 3003 894 3003 1313 
Q 3003 1734 2745 1975 
Q 2488 2216 2034 2216 
z
M 1403 2484 
Q 997 2584 770 2862 
Q 544 3141 544 3541 
Q 544 4100 942 4425 
Q 1341 4750 2034 4750 
Q 2731 4750 3128 4425 
Q 3525 4100 3525 3541 
Q 3525 3141 3298 2862 
Q 3072 2584 2669 2484 
Q 3125 2378 3379 2068 
Q 3634 1759 3634 1313 
Q 3634 634 3220 271 
Q 2806 -91 2034 -91 
Q 1263 -91 848 271 
Q 434 634 434 1313 
Q 434 1759 690 2068 
Q 947 2378 1403 2484 
z
M 1172 3481 
Q 1172 3119 1398 2916 
Q 1625 2713 2034 2713 
Q 2441 2713 2670 2916 
Q 2900 3119 2900 3481 
Q 2900 3844 2670 4047 
Q 2441 4250 2034 4250 
Q 1625 4250 1398 4047 
Q 1172 3844 1172 3481 
z
" transform="scale(0.015625)"/>
       </defs>
       <use xlink:href="#DejaVuSans-38"/>
       <use xlink:href="#DejaVuSans-30" x="63.623047"/>
      </g>
     </g>
    </g>
    <g id="xtick_12">
     <g id="line2d_22">
      <g>
       <use xlink:href="#md68426fe77" x="754.492727" y="323.44" style="stroke: #000000; stroke-width: 0.8"/>
      </g>
     </g>
     <g id="text_23">
      <!-- 100 -->
      <g transform="translate(744.948977 338.038438) scale(0.1 -0.1)">
       <use xlink:href="#DejaVuSans-31"/>
       <use xlink:href="#DejaVuSans-30" x="63.623047"/>
       <use xlink:href="#DejaVuSans-30" x="127.246094"/>
      </g>
     </g>
    </g>
    <g id="xtick_13">
     <g id="line2d_23">
      <g>
       <use xlink:href="#md68426fe77" x="811.947273" y="323.44" style="stroke: #000000; stroke-width: 0.8"/>
      </g>
     </g>
     <g id="text_24">
      <!-- 120 -->
      <g transform="translate(802.403523 338.038438) scale(0.1 -0.1)">
       <use xlink:href="#DejaVuSans-31"/>
       <use xlink:href="#DejaVuSans-32" x="63.623047"/>
       <use xlink:href="#DejaVuSans-30" x="127.246094"/>
      </g>
     </g>
    </g>
    <g id="xtick_14">
     <g id="line2d_24">
      <g>
       <use xlink:href="#md68426fe77" x="869.401818" y="323.44" style="stroke: #000000; stroke-width: 0.8"/>
      </g>
     </g>
     <g id="text_25">
      <!-- 140 -->
      <g transform="translate(859.858068 338.038438) scale(0.1 -0.1)">
       <defs>
        <path id="DejaVuSans-34" d="M 2419 4116 
L 825 1625 
L 2419 1625 
L 2419 4116 
z
M 2253 4666 
L 3047 4666 
L 3047 1625 
L 3713 1625 
L 3713 1100 
L 3047 1100 
L 3047 0 
L 2419 0 
L 2419 1100 
L 313 1100 
L 313 1709 
L 2253 4666 
z
" transform="scale(0.015625)"/>
       </defs>
       <use xlink:href="#DejaVuSans-31"/>
       <use xlink:href="#DejaVuSans-34" x="63.623047"/>
       <use xlink:href="#DejaVuSans-30" x="127.246094"/>
      </g>
     </g>
    </g>
    <g id="xtick_15">
     <g id="line2d_25">
      <g>
       <use xlink:href="#md68426fe77" x="926.856364" y="323.44" style="stroke: #000000; stroke-width: 0.8"/>
      </g>
     </g>
     <g id="text_26">
      <!-- 160 -->
      <g transform="translate(917.312614 338.038438) scale(0.1 -0.1)">
       <use xlink:href="#DejaVuSans-31"/>
       <use xlink:href="#DejaVuSans-36" x="63.623047"/>
       <use xlink:href="#DejaVuSans-30" x="127.246094"/>
      </g>
     </g>
    </g>
    <g id="xtick_16">
     <g id="line2d_26">
      <g>
       <use xlink:href="#md68426fe77" x="984.310909" y="323.44" style="stroke: #000000; stroke-width: 0.8"/>
      </g>
     </g>
     <g id="text_27">
      <!-- 180 -->
      <g transform="translate(974.767159 338.038438) scale(0.1 -0.1)">
       <use xlink:href="#DejaVuSans-31"/>
       <use xlink:href="#DejaVuSans-38" x="63.623047"/>
       <use xlink:href="#DejaVuSans-30" x="127.246094"/>
      </g>
     </g>
    </g>
    <g id="xtick_17">
     <g id="line2d_27">
      <g>
       <use xlink:href="#md68426fe77" x="1041.765455" y="323.44" style="stroke: #000000; stroke-width: 0.8"/>
      </g>
     </g>
     <g id="text_28">
      <!-- 200 -->
      <g transform="translate(1032.221705 338.038438) scale(0.1 -0.1)">
       <use xlink:href="#DejaVuSans-32"/>
       <use xlink:href="#DejaVuSans-30" x="63.623047"/>
       <use xlink:href="#DejaVuSans-30" x="127.246094"/>
      </g>
     </g>
    </g>
    <g id="text_29">
     <!-- Epochs -->
     <g transform="translate(812.704375 351.716563) scale(0.1 -0.1)">
      <use xlink:href="#DejaVuSans-45"/>
      <use xlink:href="#DejaVuSans-70" x="63.183594"/>
      <use xlink:href="#DejaVuSans-6f" x="126.660156"/>
      <use xlink:href="#DejaVuSans-63" x="187.841797"/>
      <use xlink:href="#DejaVuSans-68" x="242.822266"/>
      <use xlink:href="#DejaVuSans-73" x="306.201172"/>
     </g>
    </g>
   </g>
   <g id="matplotlib.axis_4">
    <g id="ytick_7">
     <g id="line2d_28">
      <g>
       <use xlink:href="#me20b962102" x="592.04" y="296.116053" style="stroke: #000000; stroke-width: 0.8"/>
      </g>
     </g>
     <g id="text_30">
      <!-- 0.005 -->
      <g transform="translate(556.411875 299.915272) scale(0.1 -0.1)">
       <use xlink:href="#DejaVuSans-30"/>
       <use xlink:href="#DejaVuSans-2e" x="63.623047"/>
       <use xlink:href="#DejaVuSans-30" x="95.410156"/>
       <use xlink:href="#DejaVuSans-30" x="159.033203"/>
       <use xlink:href="#DejaVuSans-35" x="222.65625"/>
      </g>
     </g>
    </g>
    <g id="ytick_8">
     <g id="line2d_29">
      <g>
       <use xlink:href="#me20b962102" x="592.04" y="246.946417" style="stroke: #000000; stroke-width: 0.8"/>
      </g>
     </g>
     <g id="text_31">
      <!-- 0.010 -->
      <g transform="translate(556.411875 250.745636) scale(0.1 -0.1)">
       <use xlink:href="#DejaVuSans-30"/>
       <use xlink:href="#DejaVuSans-2e" x="63.623047"/>
       <use xlink:href="#DejaVuSans-30" x="95.410156"/>
       <use xlink:href="#DejaVuSans-31" x="159.033203"/>
       <use xlink:href="#DejaVuSans-30" x="222.65625"/>
      </g>
     </g>
    </g>
    <g id="ytick_9">
     <g id="line2d_30">
      <g>
       <use xlink:href="#me20b962102" x="592.04" y="197.776781" style="stroke: #000000; stroke-width: 0.8"/>
      </g>
     </g>
     <g id="text_32">
      <!-- 0.015 -->
      <g transform="translate(556.411875 201.576) scale(0.1 -0.1)">
       <use xlink:href="#DejaVuSans-30"/>
       <use xlink:href="#DejaVuSans-2e" x="63.623047"/>
       <use xlink:href="#DejaVuSans-30" x="95.410156"/>
       <use xlink:href="#DejaVuSans-31" x="159.033203"/>
       <use xlink:href="#DejaVuSans-35" x="222.65625"/>
      </g>
     </g>
    </g>
    <g id="ytick_10">
     <g id="line2d_31">
      <g>
       <use xlink:href="#me20b962102" x="592.04" y="148.607145" style="stroke: #000000; stroke-width: 0.8"/>
      </g>
     </g>
     <g id="text_33">
      <!-- 0.020 -->
      <g transform="translate(556.411875 152.406363) scale(0.1 -0.1)">
       <use xlink:href="#DejaVuSans-30"/>
       <use xlink:href="#DejaVuSans-2e" x="63.623047"/>
       <use xlink:href="#DejaVuSans-30" x="95.410156"/>
       <use xlink:href="#DejaVuSans-32" x="159.033203"/>
       <use xlink:href="#DejaVuSans-30" x="222.65625"/>
      </g>
     </g>
    </g>
    <g id="ytick_11">
     <g id="line2d_32">
      <g>
       <use xlink:href="#me20b962102" x="592.04" y="99.437508" style="stroke: #000000; stroke-width: 0.8"/>
      </g>
     </g>
     <g id="text_34">
      <!-- 0.025 -->
      <g transform="translate(556.411875 103.236727) scale(0.1 -0.1)">
       <use xlink:href="#DejaVuSans-30"/>
       <use xlink:href="#DejaVuSans-2e" x="63.623047"/>
       <use xlink:href="#DejaVuSans-30" x="95.410156"/>
       <use xlink:href="#DejaVuSans-32" x="159.033203"/>
       <use xlink:href="#DejaVuSans-35" x="222.65625"/>
      </g>
     </g>
    </g>
    <g id="ytick_12">
     <g id="line2d_33">
      <g>
       <use xlink:href="#me20b962102" x="592.04" y="50.267872" style="stroke: #000000; stroke-width: 0.8"/>
      </g>
     </g>
     <g id="text_35">
      <!-- 0.030 -->
      <g transform="translate(556.411875 54.067091) scale(0.1 -0.1)">
       <defs>
        <path id="DejaVuSans-33" d="M 2597 2516 
Q 3050 2419 3304 2112 
Q 3559 1806 3559 1356 
Q 3559 666 3084 287 
Q 2609 -91 1734 -91 
Q 1441 -91 1130 -33 
Q 819 25 488 141 
L 488 750 
Q 750 597 1062 519 
Q 1375 441 1716 441 
Q 2309 441 2620 675 
Q 2931 909 2931 1356 
Q 2931 1769 2642 2001 
Q 2353 2234 1838 2234 
L 1294 2234 
L 1294 2753 
L 1863 2753 
Q 2328 2753 2575 2939 
Q 2822 3125 2822 3475 
Q 2822 3834 2567 4026 
Q 2313 4219 1838 4219 
Q 1578 4219 1281 4162 
Q 984 4106 628 3988 
L 628 4550 
Q 988 4650 1302 4700 
Q 1616 4750 1894 4750 
Q 2613 4750 3031 4423 
Q 3450 4097 3450 3541 
Q 3450 3153 3228 2886 
Q 3006 2619 2597 2516 
z
" transform="scale(0.015625)"/>
       </defs>
       <use xlink:href="#DejaVuSans-30"/>
       <use xlink:href="#DejaVuSans-2e" x="63.623047"/>
       <use xlink:href="#DejaVuSans-30" x="95.410156"/>
       <use xlink:href="#DejaVuSans-33" x="159.033203"/>
       <use xlink:href="#DejaVuSans-30" x="222.65625"/>
      </g>
     </g>
    </g>
    <g id="text_36">
     <!-- Loss -->
     <g transform="translate(550.332188 185.767188) rotate(-90) scale(0.1 -0.1)">
      <use xlink:href="#DejaVuSans-4c"/>
      <use xlink:href="#DejaVuSans-6f" x="53.962891"/>
      <use xlink:href="#DejaVuSans-73" x="115.144531"/>
      <use xlink:href="#DejaVuSans-73" x="167.244141"/>
     </g>
    </g>
   </g>
   <g id="line2d_34">
    <path d="M 613.729091 172.706577 
L 616.601818 173.918602 
L 619.474545 189.54988 
L 622.347273 185.549916 
L 625.22 183.416961 
L 628.092727 193.478425 
L 630.965455 192.687245 
L 633.838182 192.146771 
L 636.710909 201.188027 
L 639.583636 192.195998 
L 642.456364 196.637185 
L 645.329091 203.732457 
L 648.201818 207.548481 
L 651.074545 216.923538 
L 653.947273 209.400872 
L 656.82 215.117416 
L 659.692727 217.586471 
L 662.565455 216.496585 
L 665.438182 214.893013 
L 668.310909 214.946471 
L 671.183636 230.70073 
L 674.056364 221.651891 
L 676.929091 228.151665 
L 679.801818 229.200632 
L 682.674545 227.158117 
L 685.547273 234.04125 
L 688.42 230.835361 
L 691.292727 222.606488 
L 694.165455 228.92266 
L 697.038182 242.457663 
L 699.910909 237.636378 
L 702.783636 236.412969 
L 705.656364 245.11185 
L 708.529091 243.320693 
L 711.401818 246.618085 
L 714.274545 251.635647 
L 717.147273 242.173024 
L 720.02 255.70321 
L 722.892727 246.388407 
L 725.765455 247.109817 
L 728.638182 258.808667 
L 731.510909 251.922035 
L 734.383636 252.186589 
L 737.256364 259.918812 
L 740.129091 255.701067 
L 743.001818 263.033803 
L 745.874545 252.837809 
L 748.747273 263.22104 
L 751.62 252.126628 
L 754.492727 269.206799 
L 757.365455 262.715195 
L 760.238182 271.789788 
L 763.110909 262.217748 
L 765.983636 260.366565 
L 768.856364 270.677957 
L 771.729091 269.305446 
L 774.601818 262.173805 
L 777.474545 274.07319 
L 780.347273 266.29947 
L 783.22 275.693541 
L 786.092727 275.59211 
L 788.965455 269.521529 
L 791.838182 273.881273 
L 794.710909 271.13958 
L 797.583636 275.230498 
L 800.456364 268.138261 
L 803.329091 257.509901 
L 806.201818 274.407464 
L 809.074545 274.936842 
L 811.947273 278.192572 
L 814.82 276.859288 
L 817.692727 273.482253 
L 820.565455 279.714578 
L 823.438182 266.945799 
L 829.183636 284.273393 
L 832.056364 277.021559 
L 834.929091 281.768385 
L 837.801818 276.471711 
L 840.674545 274.213962 
L 843.547273 284.680729 
L 846.42 285.489924 
L 849.292727 285.774229 
L 852.165455 283.650061 
L 855.038182 279.871203 
L 857.910909 285.936065 
L 860.783636 285.742714 
L 863.656364 283.780571 
L 866.529091 291.017897 
L 869.401818 281.544362 
L 872.274545 292.251619 
L 875.147273 290.77308 
L 878.02 277.026976 
L 880.892727 289.854362 
L 883.765455 291.328491 
L 886.638182 290.889796 
L 889.510909 287.845789 
L 892.383636 296.051716 
L 895.256364 285.284507 
L 898.129091 288.245386 
L 901.001818 295.324576 
L 903.874545 280.6929 
L 906.747273 294.698887 
L 909.62 295.970085 
L 912.492727 287.639291 
L 915.365455 299.398523 
L 918.238182 292.519429 
L 921.110909 295.998275 
L 923.983636 298.350399 
L 926.856364 296.577742 
L 929.729091 293.633906 
L 932.601818 298.884687 
L 935.474545 300.141699 
L 938.347273 293.475894 
L 941.22 293.409627 
L 944.092727 303.665486 
L 946.965455 297.331354 
L 949.838182 300.869726 
L 952.710909 288.650346 
L 955.583636 297.109653 
L 958.456364 300.233426 
L 961.329091 299.970411 
L 964.201818 299.277085 
L 967.074545 304.595428 
L 969.947273 297.03861 
L 972.82 296.85929 
L 975.692727 300.117827 
L 978.565455 303.927325 
L 981.438182 300.945738 
L 984.310909 306.448749 
L 987.183636 293.12976 
L 990.056364 308.281157 
L 992.929091 304.069736 
L 995.801818 301.236527 
L 998.674545 304.44624 
L 1001.547273 302.983187 
L 1004.42 301.000039 
L 1007.292727 300.433646 
L 1013.038182 303.670148 
L 1015.910909 296.204059 
L 1018.783636 306.793766 
L 1021.656364 307.182728 
L 1024.529091 301.884041 
L 1027.401818 309.317114 
L 1030.274545 299.04372 
L 1033.147273 304.980179 
L 1036.02 301.125406 
L 1038.892727 304.689202 
L 1041.765455 306.088909 
L 1044.638182 299.993019 
L 1047.510909 304.568424 
L 1047.510909 304.568424 
" clip-path="url(#pc3e7fce286)" style="fill: none; stroke: #1f77b4; stroke-width: 1.5; stroke-linecap: square"/>
   </g>
   <g id="line2d_35">
    <path d="M 613.729091 176.605302 
L 616.601818 156.377233 
L 619.474545 190.45339 
L 622.347273 176.311037 
L 625.22 220.84048 
L 628.092727 39.672727 
L 630.965455 186.766924 
L 633.838182 140.979206 
L 636.710909 151.72736 
L 639.583636 193.836901 
L 642.456364 212.024039 
L 645.329091 193.148617 
L 648.201818 179.838877 
L 651.074545 167.623723 
L 653.947273 232.937424 
L 656.82 155.731115 
L 659.692727 176.727037 
L 662.565455 221.655857 
L 665.438182 234.99385 
L 668.310909 213.382574 
L 671.183636 162.761701 
L 674.056364 221.508825 
L 676.929091 172.576782 
L 679.801818 198.429762 
L 682.674545 212.963204 
L 685.547273 217.215275 
L 688.42 220.842275 
L 691.292727 213.362462 
L 694.165455 210.269699 
L 697.038182 220.792855 
L 699.910909 258.860559 
L 702.783636 177.987603 
L 705.656364 152.245936 
L 708.529091 165.867185 
L 714.274545 253.90871 
L 717.147273 212.738553 
L 720.02 235.758736 
L 722.892727 141.152229 
L 725.765455 213.922709 
L 728.638182 153.0202 
L 731.510909 207.739473 
L 734.383636 273.783303 
L 737.256364 230.488417 
L 740.129091 251.433591 
L 743.001818 116.032282 
L 745.874545 198.096775 
L 748.747273 250.975379 
L 751.62 258.085031 
L 754.492727 185.115764 
L 757.365455 256.606977 
L 760.238182 229.03989 
L 763.110909 233.831611 
L 765.983636 270.183253 
L 768.856364 245.611211 
L 771.729091 268.245316 
L 774.601818 257.97434 
L 777.474545 243.809512 
L 780.347273 239.255776 
L 783.22 171.888626 
L 786.092727 291.642836 
L 788.965455 227.013275 
L 791.838182 249.917904 
L 794.710909 235.089603 
L 797.583636 266.934094 
L 800.456364 255.172078 
L 803.329091 273.85131 
L 806.201818 295.97346 
L 809.074545 270.552805 
L 811.947273 264.328319 
L 814.82 197.200922 
L 817.692727 177.056526 
L 820.565455 208.646445 
L 823.438182 195.04562 
L 826.310909 281.45687 
L 829.183636 246.07534 
L 832.056364 258.270116 
L 834.929091 269.092968 
L 837.801818 257.571016 
L 840.674545 118.083341 
L 843.547273 229.958933 
L 846.42 284.207556 
L 849.292727 261.078029 
L 852.165455 199.834419 
L 855.038182 185.630896 
L 857.910909 290.816729 
L 860.783636 199.528816 
L 863.656364 275.542223 
L 866.529091 239.495492 
L 869.401818 300.640446 
L 872.274545 192.464143 
L 875.147273 253.380142 
L 878.02 299.833825 
L 880.892727 301.288117 
L 883.765455 293.732888 
L 886.638182 276.950626 
L 889.510909 302.600089 
L 892.383636 279.185232 
L 895.256364 254.067547 
L 898.129091 266.04009 
L 901.001818 303.619071 
L 903.874545 309.927273 
L 906.747273 251.416373 
L 909.62 270.930005 
L 912.492727 285.5661 
L 915.365455 284.101285 
L 918.238182 254.077346 
L 921.110909 283.408399 
L 923.983636 283.528669 
L 926.856364 286.114698 
L 929.729091 287.339976 
L 932.601818 282.102068 
L 935.474545 285.52295 
L 938.347273 289.776285 
L 941.22 293.044407 
L 944.092727 242.366499 
L 946.965455 249.581859 
L 949.838182 262.042041 
L 952.710909 271.093723 
L 955.583636 267.050362 
L 961.329091 297.648629 
L 964.201818 282.753319 
L 967.074545 308.036912 
L 969.947273 294.379404 
L 972.82 288.366531 
L 975.692727 285.965693 
L 978.565455 295.679558 
L 981.438182 298.572316 
L 984.310909 267.022831 
L 987.183636 305.644806 
L 990.056364 291.510476 
L 992.929091 294.700041 
L 995.801818 303.901731 
L 998.674545 280.697956 
L 1001.547273 251.894257 
L 1004.42 261.66567 
L 1007.292727 293.90189 
L 1010.165455 303.857752 
L 1015.910909 286.412168 
L 1018.783636 304.877168 
L 1021.656364 274.716863 
L 1024.529091 219.625588 
L 1027.401818 270.93637 
L 1030.274545 241.648862 
L 1033.147273 293.182454 
L 1036.02 252.073802 
L 1038.892727 258.860202 
L 1041.765455 243.452887 
L 1044.638182 287.996649 
L 1047.510909 299.978434 
L 1047.510909 299.978434 
" clip-path="url(#pc3e7fce286)" style="fill: none; stroke: #ff7f0e; stroke-width: 1.5; stroke-linecap: square"/>
   </g>
   <g id="patch_9">
    <path d="M 592.04 323.44 
L 592.04 26.16 
" style="fill: none; stroke: #000000; stroke-width: 0.8; stroke-linejoin: miter; stroke-linecap: square"/>
   </g>
   <g id="patch_10">
    <path d="M 1069.2 323.44 
L 1069.2 26.16 
" style="fill: none; stroke: #000000; stroke-width: 0.8; stroke-linejoin: miter; stroke-linecap: square"/>
   </g>
   <g id="patch_11">
    <path d="M 592.04 323.44 
L 1069.2 323.44 
" style="fill: none; stroke: #000000; stroke-width: 0.8; stroke-linejoin: miter; stroke-linecap: square"/>
   </g>
   <g id="patch_12">
    <path d="M 592.04 26.16 
L 1069.2 26.16 
" style="fill: none; stroke: #000000; stroke-width: 0.8; stroke-linejoin: miter; stroke-linecap: square"/>
   </g>
   <g id="text_37">
    <!-- Training and Validation Loss (Skip first 50) -->
    <g transform="translate(704.630312 20.16) scale(0.12 -0.12)">
     <defs>
      <path id="DejaVuSans-28" d="M 1984 4856 
Q 1566 4138 1362 3434 
Q 1159 2731 1159 2009 
Q 1159 1288 1364 580 
Q 1569 -128 1984 -844 
L 1484 -844 
Q 1016 -109 783 600 
Q 550 1309 550 2009 
Q 550 2706 781 3412 
Q 1013 4119 1484 4856 
L 1984 4856 
z
" transform="scale(0.015625)"/>
      <path id="DejaVuSans-53" d="M 3425 4513 
L 3425 3897 
Q 3066 4069 2747 4153 
Q 2428 4238 2131 4238 
Q 1616 4238 1336 4038 
Q 1056 3838 1056 3469 
Q 1056 3159 1242 3001 
Q 1428 2844 1947 2747 
L 2328 2669 
Q 3034 2534 3370 2195 
Q 3706 1856 3706 1288 
Q 3706 609 3251 259 
Q 2797 -91 1919 -91 
Q 1588 -91 1214 -16 
Q 841 59 441 206 
L 441 856 
Q 825 641 1194 531 
Q 1563 422 1919 422 
Q 2459 422 2753 634 
Q 3047 847 3047 1241 
Q 3047 1584 2836 1778 
Q 2625 1972 2144 2069 
L 1759 2144 
Q 1053 2284 737 2584 
Q 422 2884 422 3419 
Q 422 4038 858 4394 
Q 1294 4750 2059 4750 
Q 2388 4750 2728 4690 
Q 3069 4631 3425 4513 
z
" transform="scale(0.015625)"/>
      <path id="DejaVuSans-6b" d="M 581 4863 
L 1159 4863 
L 1159 1991 
L 2875 3500 
L 3609 3500 
L 1753 1863 
L 3688 0 
L 2938 0 
L 1159 1709 
L 1159 0 
L 581 0 
L 581 4863 
z
" transform="scale(0.015625)"/>
      <path id="DejaVuSans-66" d="M 2375 4863 
L 2375 4384 
L 1825 4384 
Q 1516 4384 1395 4259 
Q 1275 4134 1275 3809 
L 1275 3500 
L 2222 3500 
L 2222 3053 
L 1275 3053 
L 1275 0 
L 697 0 
L 697 3053 
L 147 3053 
L 147 3500 
L 697 3500 
L 697 3744 
Q 697 4328 969 4595 
Q 1241 4863 1831 4863 
L 2375 4863 
z
" transform="scale(0.015625)"/>
      <path id="DejaVuSans-29" d="M 513 4856 
L 1013 4856 
Q 1481 4119 1714 3412 
Q 1947 2706 1947 2009 
Q 1947 1309 1714 600 
Q 1481 -109 1013 -844 
L 513 -844 
Q 928 -128 1133 580 
Q 1338 1288 1338 2009 
Q 1338 2731 1133 3434 
Q 928 4138 513 4856 
z
" transform="scale(0.015625)"/>
     </defs>
     <use xlink:href="#DejaVuSans-54"/>
     <use xlink:href="#DejaVuSans-72" x="46.333984"/>
     <use xlink:href="#DejaVuSans-61" x="87.447266"/>
     <use xlink:href="#DejaVuSans-69" x="148.726562"/>
     <use xlink:href="#DejaVuSans-6e" x="176.509766"/>
     <use xlink:href="#DejaVuSans-69" x="239.888672"/>
     <use xlink:href="#DejaVuSans-6e" x="267.671875"/>
     <use xlink:href="#DejaVuSans-67" x="331.050781"/>
     <use xlink:href="#DejaVuSans-20" x="394.527344"/>
     <use xlink:href="#DejaVuSans-61" x="426.314453"/>
     <use xlink:href="#DejaVuSans-6e" x="487.59375"/>
     <use xlink:href="#DejaVuSans-64" x="550.972656"/>
     <use xlink:href="#DejaVuSans-20" x="614.449219"/>
     <use xlink:href="#DejaVuSans-56" x="646.236328"/>
     <use xlink:href="#DejaVuSans-61" x="706.894531"/>
     <use xlink:href="#DejaVuSans-6c" x="768.173828"/>
     <use xlink:href="#DejaVuSans-69" x="795.957031"/>
     <use xlink:href="#DejaVuSans-64" x="823.740234"/>
     <use xlink:href="#DejaVuSans-61" x="887.216797"/>
     <use xlink:href="#DejaVuSans-74" x="948.496094"/>
     <use xlink:href="#DejaVuSans-69" x="987.705078"/>
     <use xlink:href="#DejaVuSans-6f" x="1015.488281"/>
     <use xlink:href="#DejaVuSans-6e" x="1076.669922"/>
     <use xlink:href="#DejaVuSans-20" x="1140.048828"/>
     <use xlink:href="#DejaVuSans-4c" x="1171.835938"/>
     <use xlink:href="#DejaVuSans-6f" x="1225.798828"/>
     <use xlink:href="#DejaVuSans-73" x="1286.980469"/>
     <use xlink:href="#DejaVuSans-73" x="1339.080078"/>
     <use xlink:href="#DejaVuSans-20" x="1391.179688"/>
     <use xlink:href="#DejaVuSans-28" x="1422.966797"/>
     <use xlink:href="#DejaVuSans-53" x="1461.980469"/>
     <use xlink:href="#DejaVuSans-6b" x="1525.457031"/>
     <use xlink:href="#DejaVuSans-69" x="1583.367188"/>
     <use xlink:href="#DejaVuSans-70" x="1611.150391"/>
     <use xlink:href="#DejaVuSans-20" x="1674.626953"/>
     <use xlink:href="#DejaVuSans-66" x="1706.414062"/>
     <use xlink:href="#DejaVuSans-69" x="1741.619141"/>
     <use xlink:href="#DejaVuSans-72" x="1769.402344"/>
     <use xlink:href="#DejaVuSans-73" x="1810.515625"/>
     <use xlink:href="#DejaVuSans-74" x="1862.615234"/>
     <use xlink:href="#DejaVuSans-20" x="1901.824219"/>
     <use xlink:href="#DejaVuSans-35" x="1933.611328"/>
     <use xlink:href="#DejaVuSans-30" x="1997.234375"/>
     <use xlink:href="#DejaVuSans-29" x="2060.857422"/>
    </g>
   </g>
   <g id="legend_2">
    <g id="patch_13">
     <path d="M 958.325 63.51625 
L 1062.2 63.51625 
Q 1064.2 63.51625 1064.2 61.51625 
L 1064.2 33.16 
Q 1064.2 31.16 1062.2 31.16 
L 958.325 31.16 
Q 956.325 31.16 956.325 33.16 
L 956.325 61.51625 
Q 956.325 63.51625 958.325 63.51625 
z
" style="fill: #ffffff; opacity: 0.8; stroke: #cccccc; stroke-linejoin: miter"/>
    </g>
    <g id="line2d_36">
     <path d="M 960.325 39.258438 
L 970.325 39.258438 
L 980.325 39.258438 
" style="fill: none; stroke: #1f77b4; stroke-width: 1.5; stroke-linecap: square"/>
    </g>
    <g id="text_38">
     <!-- Training loss -->
     <g transform="translate(988.325 42.758438) scale(0.1 -0.1)">
      <use xlink:href="#DejaVuSans-54"/>
      <use xlink:href="#DejaVuSans-72" x="46.333984"/>
      <use xlink:href="#DejaVuSans-61" x="87.447266"/>
      <use xlink:href="#DejaVuSans-69" x="148.726562"/>
      <use xlink:href="#DejaVuSans-6e" x="176.509766"/>
      <use xlink:href="#DejaVuSans-69" x="239.888672"/>
      <use xlink:href="#DejaVuSans-6e" x="267.671875"/>
      <use xlink:href="#DejaVuSans-67" x="331.050781"/>
      <use xlink:href="#DejaVuSans-20" x="394.527344"/>
      <use xlink:href="#DejaVuSans-6c" x="426.314453"/>
      <use xlink:href="#DejaVuSans-6f" x="454.097656"/>
      <use xlink:href="#DejaVuSans-73" x="515.279297"/>
      <use xlink:href="#DejaVuSans-73" x="567.378906"/>
     </g>
    </g>
    <g id="line2d_37">
     <path d="M 960.325 53.936563 
L 970.325 53.936563 
L 980.325 53.936563 
" style="fill: none; stroke: #ff7f0e; stroke-width: 1.5; stroke-linecap: square"/>
    </g>
    <g id="text_39">
     <!-- Validation loss -->
     <g transform="translate(988.325 57.436563) scale(0.1 -0.1)">
      <use xlink:href="#DejaVuSans-56"/>
      <use xlink:href="#DejaVuSans-61" x="60.658203"/>
      <use xlink:href="#DejaVuSans-6c" x="121.9375"/>
      <use xlink:href="#DejaVuSans-69" x="149.720703"/>
      <use xlink:href="#DejaVuSans-64" x="177.503906"/>
      <use xlink:href="#DejaVuSans-61" x="240.980469"/>
      <use xlink:href="#DejaVuSans-74" x="302.259766"/>
      <use xlink:href="#DejaVuSans-69" x="341.46875"/>
      <use xlink:href="#DejaVuSans-6f" x="369.251953"/>
      <use xlink:href="#DejaVuSans-6e" x="430.433594"/>
      <use xlink:href="#DejaVuSans-20" x="493.8125"/>
      <use xlink:href="#DejaVuSans-6c" x="525.599609"/>
      <use xlink:href="#DejaVuSans-6f" x="553.382812"/>
      <use xlink:href="#DejaVuSans-73" x="614.564453"/>
      <use xlink:href="#DejaVuSans-73" x="666.664062"/>
     </g>
    </g>
   </g>
  </g>
  <g id="axes_3">
   <g id="patch_14">
    <path d="M 54.245 678.04 
L 531.405 678.04 
L 531.405 380.76 
L 54.245 380.76 
z
" style="fill: #ffffff"/>
   </g>
   <g id="matplotlib.axis_5">
    <g id="xtick_18">
     <g id="line2d_38">
      <g>
       <use xlink:href="#md68426fe77" x="101.788636" y="678.04" style="stroke: #000000; stroke-width: 0.8"/>
      </g>
     </g>
     <g id="text_40">
      <!-- 60 -->
      <g transform="translate(95.426136 692.638438) scale(0.1 -0.1)">
       <use xlink:href="#DejaVuSans-36"/>
       <use xlink:href="#DejaVuSans-30" x="63.623047"/>
      </g>
     </g>
    </g>
    <g id="xtick_19">
     <g id="line2d_39">
      <g>
       <use xlink:href="#md68426fe77" x="159.243182" y="678.04" style="stroke: #000000; stroke-width: 0.8"/>
      </g>
     </g>
     <g id="text_41">
      <!-- 80 -->
      <g transform="translate(152.880682 692.638438) scale(0.1 -0.1)">
       <use xlink:href="#DejaVuSans-38"/>
       <use xlink:href="#DejaVuSans-30" x="63.623047"/>
      </g>
     </g>
    </g>
    <g id="xtick_20">
     <g id="line2d_40">
      <g>
       <use xlink:href="#md68426fe77" x="216.697727" y="678.04" style="stroke: #000000; stroke-width: 0.8"/>
      </g>
     </g>
     <g id="text_42">
      <!-- 100 -->
      <g transform="translate(207.153977 692.638438) scale(0.1 -0.1)">
       <use xlink:href="#DejaVuSans-31"/>
       <use xlink:href="#DejaVuSans-30" x="63.623047"/>
       <use xlink:href="#DejaVuSans-30" x="127.246094"/>
      </g>
     </g>
    </g>
    <g id="xtick_21">
     <g id="line2d_41">
      <g>
       <use xlink:href="#md68426fe77" x="274.152273" y="678.04" style="stroke: #000000; stroke-width: 0.8"/>
      </g>
     </g>
     <g id="text_43">
      <!-- 120 -->
      <g transform="translate(264.608523 692.638438) scale(0.1 -0.1)">
       <use xlink:href="#DejaVuSans-31"/>
       <use xlink:href="#DejaVuSans-32" x="63.623047"/>
       <use xlink:href="#DejaVuSans-30" x="127.246094"/>
      </g>
     </g>
    </g>
    <g id="xtick_22">
     <g id="line2d_42">
      <g>
       <use xlink:href="#md68426fe77" x="331.606818" y="678.04" style="stroke: #000000; stroke-width: 0.8"/>
      </g>
     </g>
     <g id="text_44">
      <!-- 140 -->
      <g transform="translate(322.063068 692.638438) scale(0.1 -0.1)">
       <use xlink:href="#DejaVuSans-31"/>
       <use xlink:href="#DejaVuSans-34" x="63.623047"/>
       <use xlink:href="#DejaVuSans-30" x="127.246094"/>
      </g>
     </g>
    </g>
    <g id="xtick_23">
     <g id="line2d_43">
      <g>
       <use xlink:href="#md68426fe77" x="389.061364" y="678.04" style="stroke: #000000; stroke-width: 0.8"/>
      </g>
     </g>
     <g id="text_45">
      <!-- 160 -->
      <g transform="translate(379.517614 692.638438) scale(0.1 -0.1)">
       <use xlink:href="#DejaVuSans-31"/>
       <use xlink:href="#DejaVuSans-36" x="63.623047"/>
       <use xlink:href="#DejaVuSans-30" x="127.246094"/>
      </g>
     </g>
    </g>
    <g id="xtick_24">
     <g id="line2d_44">
      <g>
       <use xlink:href="#md68426fe77" x="446.515909" y="678.04" style="stroke: #000000; stroke-width: 0.8"/>
      </g>
     </g>
     <g id="text_46">
      <!-- 180 -->
      <g transform="translate(436.972159 692.638438) scale(0.1 -0.1)">
       <use xlink:href="#DejaVuSans-31"/>
       <use xlink:href="#DejaVuSans-38" x="63.623047"/>
       <use xlink:href="#DejaVuSans-30" x="127.246094"/>
      </g>
     </g>
    </g>
    <g id="xtick_25">
     <g id="line2d_45">
      <g>
       <use xlink:href="#md68426fe77" x="503.970455" y="678.04" style="stroke: #000000; stroke-width: 0.8"/>
      </g>
     </g>
     <g id="text_47">
      <!-- 200 -->
      <g transform="translate(494.426705 692.638438) scale(0.1 -0.1)">
       <use xlink:href="#DejaVuSans-32"/>
       <use xlink:href="#DejaVuSans-30" x="63.623047"/>
       <use xlink:href="#DejaVuSans-30" x="127.246094"/>
      </g>
     </g>
    </g>
    <g id="text_48">
     <!-- Epochs -->
     <g transform="translate(274.909375 706.316563) scale(0.1 -0.1)">
      <use xlink:href="#DejaVuSans-45"/>
      <use xlink:href="#DejaVuSans-70" x="63.183594"/>
      <use xlink:href="#DejaVuSans-6f" x="126.660156"/>
      <use xlink:href="#DejaVuSans-63" x="187.841797"/>
      <use xlink:href="#DejaVuSans-68" x="242.822266"/>
      <use xlink:href="#DejaVuSans-73" x="306.201172"/>
     </g>
    </g>
   </g>
   <g id="matplotlib.axis_6">
    <g id="ytick_13">
     <g id="line2d_46">
      <g>
       <use xlink:href="#me20b962102" x="54.245" y="619.840781" style="stroke: #000000; stroke-width: 0.8"/>
      </g>
     </g>
     <g id="text_49">
      <!-- 0.04 -->
      <g transform="translate(24.979375 623.64) scale(0.1 -0.1)">
       <use xlink:href="#DejaVuSans-30"/>
       <use xlink:href="#DejaVuSans-2e" x="63.623047"/>
       <use xlink:href="#DejaVuSans-30" x="95.410156"/>
       <use xlink:href="#DejaVuSans-34" x="159.033203"/>
      </g>
     </g>
    </g>
    <g id="ytick_14">
     <g id="line2d_47">
      <g>
       <use xlink:href="#me20b962102" x="54.245" y="553.781105" style="stroke: #000000; stroke-width: 0.8"/>
      </g>
     </g>
     <g id="text_50">
      <!-- 0.06 -->
      <g transform="translate(24.979375 557.580324) scale(0.1 -0.1)">
       <use xlink:href="#DejaVuSans-30"/>
       <use xlink:href="#DejaVuSans-2e" x="63.623047"/>
       <use xlink:href="#DejaVuSans-30" x="95.410156"/>
       <use xlink:href="#DejaVuSans-36" x="159.033203"/>
      </g>
     </g>
    </g>
    <g id="ytick_15">
     <g id="line2d_48">
      <g>
       <use xlink:href="#me20b962102" x="54.245" y="487.721429" style="stroke: #000000; stroke-width: 0.8"/>
      </g>
     </g>
     <g id="text_51">
      <!-- 0.08 -->
      <g transform="translate(24.979375 491.520648) scale(0.1 -0.1)">
       <use xlink:href="#DejaVuSans-30"/>
       <use xlink:href="#DejaVuSans-2e" x="63.623047"/>
       <use xlink:href="#DejaVuSans-30" x="95.410156"/>
       <use xlink:href="#DejaVuSans-38" x="159.033203"/>
      </g>
     </g>
    </g>
    <g id="ytick_16">
     <g id="line2d_49">
      <g>
       <use xlink:href="#me20b962102" x="54.245" y="421.661753" style="stroke: #000000; stroke-width: 0.8"/>
      </g>
     </g>
     <g id="text_52">
      <!-- 0.10 -->
      <g transform="translate(24.979375 425.460972) scale(0.1 -0.1)">
       <use xlink:href="#DejaVuSans-30"/>
       <use xlink:href="#DejaVuSans-2e" x="63.623047"/>
       <use xlink:href="#DejaVuSans-31" x="95.410156"/>
       <use xlink:href="#DejaVuSans-30" x="159.033203"/>
      </g>
     </g>
    </g>
    <g id="text_53">
     <!-- MAE -->
     <g transform="translate(18.899687 540.29375) rotate(-90) scale(0.1 -0.1)">
      <defs>
       <path id="DejaVuSans-4d" d="M 628 4666 
L 1569 4666 
L 2759 1491 
L 3956 4666 
L 4897 4666 
L 4897 0 
L 4281 0 
L 4281 4097 
L 3078 897 
L 2444 897 
L 1241 4097 
L 1241 0 
L 628 0 
L 628 4666 
z
" transform="scale(0.015625)"/>
       <path id="DejaVuSans-41" d="M 2188 4044 
L 1331 1722 
L 3047 1722 
L 2188 4044 
z
M 1831 4666 
L 2547 4666 
L 4325 0 
L 3669 0 
L 3244 1197 
L 1141 1197 
L 716 0 
L 50 0 
L 1831 4666 
z
" transform="scale(0.015625)"/>
      </defs>
      <use xlink:href="#DejaVuSans-4d"/>
      <use xlink:href="#DejaVuSans-41" x="86.279297"/>
      <use xlink:href="#DejaVuSans-45" x="154.6875"/>
     </g>
    </g>
   </g>
   <g id="line2d_50">
    <path d="M 75.934091 479.400295 
L 78.806818 473.903842 
L 81.679545 490.447784 
L 84.552273 487.587512 
L 87.425 494.015987 
L 90.297727 499.832482 
L 93.170455 494.216478 
L 96.043182 497.270891 
L 98.915909 506.412648 
L 101.788636 499.084462 
L 104.661364 508.200896 
L 107.534091 513.158975 
L 110.406818 509.56412 
L 113.279545 519.788335 
L 116.152273 513.437477 
L 119.025 518.587581 
L 121.897727 523.444614 
L 124.770455 518.439286 
L 127.643182 524.886489 
L 130.515909 517.40265 
L 133.388636 536.771353 
L 136.261364 520.633388 
L 142.006818 531.386429 
L 147.752273 540.374723 
L 150.625 541.108789 
L 153.497727 531.732114 
L 156.370455 540.049464 
L 159.243182 545.213103 
L 162.115909 539.360383 
L 164.988636 553.276154 
L 167.861364 541.41756 
L 170.734091 550.48357 
L 173.606818 549.95168 
L 176.479545 556.244842 
L 179.352273 548.38233 
L 182.225 560.322504 
L 185.097727 552.93709 
L 187.970455 554.994107 
L 190.843182 561.304729 
L 193.715909 562.121629 
L 196.588636 558.777628 
L 199.461364 568.705659 
L 202.334091 562.073198 
L 205.206818 568.90268 
L 208.079545 560.121164 
L 210.952273 574.172618 
L 213.825 558.722712 
L 216.697727 575.475057 
L 219.570455 570.919104 
L 222.443182 571.762078 
L 225.315909 565.178479 
L 228.188636 567.094498 
L 231.061364 579.225073 
L 233.934091 570.081236 
L 236.806818 572.432148 
L 239.679545 586.907088 
L 242.552273 575.214717 
L 245.425 581.05918 
L 248.297727 589.035177 
L 251.170455 578.174693 
L 254.043182 582.985633 
L 256.915909 580.195325 
L 259.788636 585.755208 
L 262.661364 588.880422 
L 265.534091 578.640458 
L 268.406818 591.317429 
L 271.279545 586.113333 
L 274.152273 584.655265 
L 277.025 587.771214 
L 279.897727 588.759296 
L 282.770455 590.615576 
L 285.643182 588.875426 
L 288.515909 594.511069 
L 291.388636 596.660222 
L 294.261364 589.292502 
L 297.134091 599.948743 
L 300.006818 597.527584 
L 302.879545 589.832661 
L 305.752273 602.015308 
L 308.625 597.070777 
L 311.497727 596.584857 
L 314.370455 596.214883 
L 317.243182 595.515147 
L 320.115909 602.936601 
L 322.988636 597.332507 
L 325.861364 607.224868 
L 328.734091 604.059073 
L 331.606818 601.505862 
L 334.479545 605.659898 
L 337.352273 610.295843 
L 340.225 603.023471 
L 343.097727 612.556919 
L 345.970455 603.923378 
L 348.843182 610.526173 
L 351.715909 604.415401 
L 354.588636 612.674428 
L 357.461364 606.356386 
L 360.334091 610.057996 
L 363.206818 610.400691 
L 366.079545 614.745485 
L 368.952273 610.589455 
L 371.825 614.755808 
L 374.697727 606.445164 
L 377.570455 617.335487 
L 380.443182 615.043329 
L 383.315909 613.566953 
L 386.188636 613.890957 
L 389.061364 614.379374 
L 391.934091 610.780102 
L 394.806818 616.794676 
L 397.679545 615.290639 
L 400.552273 614.275167 
L 403.425 622.798139 
L 406.297727 621.039274 
L 409.170455 616.089759 
L 412.043182 619.186279 
L 414.915909 618.393089 
L 417.788636 623.49053 
L 420.661364 621.821906 
L 423.534091 620.612908 
L 426.406818 621.870349 
L 429.279545 630.680338 
L 432.152273 618.266992 
L 435.025 622.147731 
L 437.897727 623.634382 
L 440.770455 623.153261 
L 443.643182 623.550404 
L 446.515909 628.343576 
L 449.388636 629.199519 
L 452.261364 632.116749 
L 455.134091 624.456242 
L 458.006818 617.586635 
L 460.879545 632.332042 
L 463.752273 628.07418 
L 466.625 629.062274 
L 469.497727 625.106231 
L 472.370455 633.327605 
L 475.243182 625.470495 
L 478.115909 623.704863 
L 480.988636 632.313462 
L 483.861364 633.252301 
L 486.734091 626.347652 
L 489.606818 634.316044 
L 492.479545 624.723743 
L 495.352273 635.20879 
L 498.225 637.714001 
L 501.097727 635.47169 
L 503.970455 629.413779 
L 506.843182 635.418349 
L 509.715909 630.44585 
L 509.715909 630.44585 
" clip-path="url(#p49f6cf3838)" style="fill: none; stroke: #1f77b4; stroke-width: 1.5; stroke-linecap: square"/>
   </g>
   <g id="line2d_51">
    <path d="M 75.934091 493.746197 
L 78.806818 489.63642 
L 81.679545 536.083675 
L 84.552273 490.594774 
L 87.425 551.576019 
L 90.297727 394.272727 
L 93.170455 498.859338 
L 96.043182 454.623018 
L 98.915909 432.999379 
L 101.788636 541.375601 
L 104.661364 549.818581 
L 107.534091 491.678413 
L 110.406818 476.693781 
L 113.279545 496.031501 
L 116.152273 561.021182 
L 119.025 496.533085 
L 121.897727 506.277692 
L 124.770455 568.035749 
L 127.643182 584.916922 
L 130.515909 543.979471 
L 133.388636 460.535021 
L 136.261364 535.458209 
L 139.134091 480.262378 
L 142.006818 507.604494 
L 144.879545 498.758687 
L 147.752273 580.614726 
L 150.625 550.129272 
L 153.497727 542.394789 
L 156.370455 537.708765 
L 159.243182 571.115202 
L 162.115909 585.469496 
L 164.988636 472.945562 
L 167.861364 511.466456 
L 170.734091 470.066661 
L 173.606818 521.603579 
L 176.479545 599.073322 
L 179.352273 516.348763 
L 182.225 585.923928 
L 185.097727 442.238957 
L 187.970455 511.745106 
L 190.843182 521.625309 
L 193.715909 560.418615 
L 196.588636 612.707773 
L 199.461364 555.914809 
L 202.334091 569.929915 
L 205.206818 426.204474 
L 208.079545 501.154338 
L 210.952273 560.202546 
L 213.825 602.152283 
L 216.697727 497.611408 
L 219.570455 580.683263 
L 222.443182 535.75817 
L 225.315909 535.002103 
L 228.188636 606.019352 
L 231.061364 563.753056 
L 233.934091 588.789676 
L 236.806818 582.205732 
L 239.679545 560.075231 
L 242.552273 544.020199 
L 245.425 482.200988 
L 248.297727 653.9852 
L 251.170455 538.39253 
L 254.043182 546.388276 
L 256.915909 538.24837 
L 259.788636 588.514004 
L 262.661364 578.188769 
L 265.534091 626.234831 
L 268.406818 645.226251 
L 271.279545 611.390089 
L 274.152273 589.052883 
L 277.025 556.881517 
L 279.897727 532.994489 
L 282.770455 523.571523 
L 285.643182 506.281408 
L 288.515909 603.121908 
L 291.388636 535.585192 
L 294.261364 611.790455 
L 297.134091 572.548328 
L 300.006818 559.495058 
L 302.879545 491.900437 
L 305.752273 526.426406 
L 308.625 599.285342 
L 311.497727 570.803096 
L 314.370455 518.182342 
L 320.115909 621.598603 
L 322.988636 565.86169 
L 325.861364 610.057885 
L 328.734091 519.741553 
L 331.606818 645.486505 
L 334.479545 516.016761 
L 337.352273 579.372174 
L 340.225 661.023607 
L 343.097727 642.955947 
L 345.970455 636.054324 
L 348.843182 596.263302 
L 351.715909 647.336178 
L 354.588636 616.667348 
L 357.461364 603.107253 
L 360.334091 585.372696 
L 363.206818 641.583851 
L 366.079545 664.527273 
L 368.952273 551.207251 
L 371.825 557.432455 
L 374.697727 593.615505 
L 377.570455 644.894335 
L 380.443182 576.415545 
L 383.315909 598.907985 
L 386.188636 603.617388 
L 389.061364 609.157892 
L 391.934091 610.459223 
L 394.806818 642.561302 
L 397.679545 621.779849 
L 400.552273 617.321324 
L 403.425 631.923469 
L 406.297727 538.021793 
L 409.170455 586.396596 
L 412.043182 526.842251 
L 414.915909 590.045087 
L 417.788636 592.710245 
L 420.661364 590.432017 
L 423.534091 633.443601 
L 426.406818 654.915118 
L 429.279545 650.864908 
L 432.152273 626.542002 
L 435.025 641.901211 
L 437.897727 605.618469 
L 440.770455 620.967661 
L 443.643182 651.476925 
L 446.515909 584.440501 
L 449.388636 635.385939 
L 452.261364 605.480338 
L 455.134091 604.366835 
L 458.006818 654.004518 
L 460.879545 621.930322 
L 463.752273 552.250482 
L 466.625 588.409625 
L 469.497727 649.324701 
L 472.370455 652.478524 
L 475.243182 627.302634 
L 478.115909 642.606374 
L 480.988636 640.113233 
L 483.861364 588.586478 
L 486.734091 606.436218 
L 489.606818 572.898233 
L 492.479545 631.090917 
L 495.352273 631.556879 
L 498.225 619.822413 
L 501.097727 588.26544 
L 503.970455 581.838429 
L 506.843182 602.872051 
L 509.715909 650.150818 
L 509.715909 650.150818 
" clip-path="url(#p49f6cf3838)" style="fill: none; stroke: #ff7f0e; stroke-width: 1.5; stroke-linecap: square"/>
   </g>
   <g id="patch_15">
    <path d="M 54.245 678.04 
L 54.245 380.76 
" style="fill: none; stroke: #000000; stroke-width: 0.8; stroke-linejoin: miter; stroke-linecap: square"/>
   </g>
   <g id="patch_16">
    <path d="M 531.405 678.04 
L 531.405 380.76 
" style="fill: none; stroke: #000000; stroke-width: 0.8; stroke-linejoin: miter; stroke-linecap: square"/>
   </g>
   <g id="patch_17">
    <path d="M 54.245 678.04 
L 531.405 678.04 
" style="fill: none; stroke: #000000; stroke-width: 0.8; stroke-linejoin: miter; stroke-linecap: square"/>
   </g>
   <g id="patch_18">
    <path d="M 54.245 380.76 
L 531.405 380.76 
" style="fill: none; stroke: #000000; stroke-width: 0.8; stroke-linejoin: miter; stroke-linecap: square"/>
   </g>
   <g id="text_54">
    <!-- Training and Validation MAE (Skip first 50) -->
    <g transform="translate(166.923437 374.76) scale(0.12 -0.12)">
     <use xlink:href="#DejaVuSans-54"/>
     <use xlink:href="#DejaVuSans-72" x="46.333984"/>
     <use xlink:href="#DejaVuSans-61" x="87.447266"/>
     <use xlink:href="#DejaVuSans-69" x="148.726562"/>
     <use xlink:href="#DejaVuSans-6e" x="176.509766"/>
     <use xlink:href="#DejaVuSans-69" x="239.888672"/>
     <use xlink:href="#DejaVuSans-6e" x="267.671875"/>
     <use xlink:href="#DejaVuSans-67" x="331.050781"/>
     <use xlink:href="#DejaVuSans-20" x="394.527344"/>
     <use xlink:href="#DejaVuSans-61" x="426.314453"/>
     <use xlink:href="#DejaVuSans-6e" x="487.59375"/>
     <use xlink:href="#DejaVuSans-64" x="550.972656"/>
     <use xlink:href="#DejaVuSans-20" x="614.449219"/>
     <use xlink:href="#DejaVuSans-56" x="646.236328"/>
     <use xlink:href="#DejaVuSans-61" x="706.894531"/>
     <use xlink:href="#DejaVuSans-6c" x="768.173828"/>
     <use xlink:href="#DejaVuSans-69" x="795.957031"/>
     <use xlink:href="#DejaVuSans-64" x="823.740234"/>
     <use xlink:href="#DejaVuSans-61" x="887.216797"/>
     <use xlink:href="#DejaVuSans-74" x="948.496094"/>
     <use xlink:href="#DejaVuSans-69" x="987.705078"/>
     <use xlink:href="#DejaVuSans-6f" x="1015.488281"/>
     <use xlink:href="#DejaVuSans-6e" x="1076.669922"/>
     <use xlink:href="#DejaVuSans-20" x="1140.048828"/>
     <use xlink:href="#DejaVuSans-4d" x="1171.835938"/>
     <use xlink:href="#DejaVuSans-41" x="1258.115234"/>
     <use xlink:href="#DejaVuSans-45" x="1326.523438"/>
     <use xlink:href="#DejaVuSans-20" x="1389.707031"/>
     <use xlink:href="#DejaVuSans-28" x="1421.494141"/>
     <use xlink:href="#DejaVuSans-53" x="1460.507812"/>
     <use xlink:href="#DejaVuSans-6b" x="1523.984375"/>
     <use xlink:href="#DejaVuSans-69" x="1581.894531"/>
     <use xlink:href="#DejaVuSans-70" x="1609.677734"/>
     <use xlink:href="#DejaVuSans-20" x="1673.154297"/>
     <use xlink:href="#DejaVuSans-66" x="1704.941406"/>
     <use xlink:href="#DejaVuSans-69" x="1740.146484"/>
     <use xlink:href="#DejaVuSans-72" x="1767.929688"/>
     <use xlink:href="#DejaVuSans-73" x="1809.042969"/>
     <use xlink:href="#DejaVuSans-74" x="1861.142578"/>
     <use xlink:href="#DejaVuSans-20" x="1900.351562"/>
     <use xlink:href="#DejaVuSans-35" x="1932.138672"/>
     <use xlink:href="#DejaVuSans-30" x="1995.761719"/>
     <use xlink:href="#DejaVuSans-29" x="2059.384766"/>
    </g>
   </g>
   <g id="legend_3">
    <g id="patch_19">
     <path d="M 418.058125 418.11625 
L 524.405 418.11625 
Q 526.405 418.11625 526.405 416.11625 
L 526.405 387.76 
Q 526.405 385.76 524.405 385.76 
L 418.058125 385.76 
Q 416.058125 385.76 416.058125 387.76 
L 416.058125 416.11625 
Q 416.058125 418.11625 418.058125 418.11625 
z
" style="fill: #ffffff; opacity: 0.8; stroke: #cccccc; stroke-linejoin: miter"/>
    </g>
    <g id="line2d_52">
     <path d="M 420.058125 393.858438 
L 430.058125 393.858438 
L 440.058125 393.858438 
" style="fill: none; stroke: #1f77b4; stroke-width: 1.5; stroke-linecap: square"/>
    </g>
    <g id="text_55">
     <!-- Training MAE -->
     <g transform="translate(448.058125 397.358438) scale(0.1 -0.1)">
      <use xlink:href="#DejaVuSans-54"/>
      <use xlink:href="#DejaVuSans-72" x="46.333984"/>
      <use xlink:href="#DejaVuSans-61" x="87.447266"/>
      <use xlink:href="#DejaVuSans-69" x="148.726562"/>
      <use xlink:href="#DejaVuSans-6e" x="176.509766"/>
      <use xlink:href="#DejaVuSans-69" x="239.888672"/>
      <use xlink:href="#DejaVuSans-6e" x="267.671875"/>
      <use xlink:href="#DejaVuSans-67" x="331.050781"/>
      <use xlink:href="#DejaVuSans-20" x="394.527344"/>
      <use xlink:href="#DejaVuSans-4d" x="426.314453"/>
      <use xlink:href="#DejaVuSans-41" x="512.59375"/>
      <use xlink:href="#DejaVuSans-45" x="581.001953"/>
     </g>
    </g>
    <g id="line2d_53">
     <path d="M 420.058125 408.536563 
L 430.058125 408.536563 
L 440.058125 408.536563 
" style="fill: none; stroke: #ff7f0e; stroke-width: 1.5; stroke-linecap: square"/>
    </g>
    <g id="text_56">
     <!-- Validation MAE -->
     <g transform="translate(448.058125 412.036563) scale(0.1 -0.1)">
      <use xlink:href="#DejaVuSans-56"/>
      <use xlink:href="#DejaVuSans-61" x="60.658203"/>
      <use xlink:href="#DejaVuSans-6c" x="121.9375"/>
      <use xlink:href="#DejaVuSans-69" x="149.720703"/>
      <use xlink:href="#DejaVuSans-64" x="177.503906"/>
      <use xlink:href="#DejaVuSans-61" x="240.980469"/>
      <use xlink:href="#DejaVuSans-74" x="302.259766"/>
      <use xlink:href="#DejaVuSans-69" x="341.46875"/>
      <use xlink:href="#DejaVuSans-6f" x="369.251953"/>
      <use xlink:href="#DejaVuSans-6e" x="430.433594"/>
      <use xlink:href="#DejaVuSans-20" x="493.8125"/>
      <use xlink:href="#DejaVuSans-4d" x="525.599609"/>
      <use xlink:href="#DejaVuSans-41" x="611.878906"/>
      <use xlink:href="#DejaVuSans-45" x="680.287109"/>
     </g>
    </g>
   </g>
  </g>
  <g id="axes_4"/>
 </g>
 <defs>
  <clipPath id="p416f103a20">
   <rect x="54.245" y="26.16" width="477.16" height="297.28"/>
  </clipPath>
  <clipPath id="pc3e7fce286">
   <rect x="592.04" y="26.16" width="477.16" height="297.28"/>
  </clipPath>
  <clipPath id="p49f6cf3838">
   <rect x="54.245" y="380.76" width="477.16" height="297.28"/>
  </clipPath>
 </defs>
</svg>
