<?xml version="1.0" encoding="utf-8" standalone="no"?>
<!DOCTYPE svg PUBLIC "-//W3C//DTD SVG 1.1//EN"
  "http://www.w3.org/Graphics/SVG/1.1/DTD/svg11.dtd">
<svg xmlns:xlink="http://www.w3.org/1999/xlink" width="1080pt" height="720pt" viewBox="0 0 1080 720" xmlns="http://www.w3.org/2000/svg" version="1.1">
 <metadata>
  <rdf:RDF xmlns:dc="http://purl.org/dc/elements/1.1/" xmlns:cc="http://creativecommons.org/ns#" xmlns:rdf="http://www.w3.org/1999/02/22-rdf-syntax-ns#">
   <cc:Work>
    <dc:type rdf:resource="http://purl.org/dc/dcmitype/StillImage"/>
    <dc:date>2024-04-13T12:54:31.781597</dc:date>
    <dc:format>image/svg+xml</dc:format>
    <dc:creator>
     <cc:Agent>
      <dc:title>Matplotlib v3.8.3, https://matplotlib.org/</dc:title>
     </cc:Agent>
    </dc:creator>
   </cc:Work>
  </rdf:RDF>
 </metadata>
 <defs>
  <style type="text/css">*{stroke-linejoin: round; stroke-linecap: butt}</style>
 </defs>
 <g id="figure_1">
  <g id="patch_1">
   <path d="M 0 720 
L 1080 720 
L 1080 0 
L 0 0 
z
" style="fill: #ffffff"/>
  </g>
  <g id="axes_1">
   <g id="patch_2">
    <path d="M 54.245 323.44 
L 534.6 323.44 
L 534.6 26.16 
L 54.245 26.16 
z
" style="fill: #ffffff"/>
   </g>
   <g id="matplotlib.axis_1">
    <g id="xtick_1">
     <g id="line2d_1">
      <defs>
       <path id="m8dfa2fbbf9" d="M 0 0 
L 0 3.5 
" style="stroke: #000000; stroke-width: 0.8"/>
      </defs>
      <g>
       <use xlink:href="#m8dfa2fbbf9" x="74.735668" y="323.44" style="stroke: #000000; stroke-width: 0.8"/>
      </g>
     </g>
     <g id="text_1">
      <!-- 0 -->
      <g transform="translate(71.554418 338.038438) scale(0.1 -0.1)">
       <defs>
        <path id="DejaVuSans-30" d="M 2034 4250 
Q 1547 4250 1301 3770 
Q 1056 3291 1056 2328 
Q 1056 1369 1301 889 
Q 1547 409 2034 409 
Q 2525 409 2770 889 
Q 3016 1369 3016 2328 
Q 3016 3291 2770 3770 
Q 2525 4250 2034 4250 
z
M 2034 4750 
Q 2819 4750 3233 4129 
Q 3647 3509 3647 2328 
Q 3647 1150 3233 529 
Q 2819 -91 2034 -91 
Q 1250 -91 836 529 
Q 422 1150 422 2328 
Q 422 3509 836 4129 
Q 1250 4750 2034 4750 
z
" transform="scale(0.015625)"/>
       </defs>
       <use xlink:href="#DejaVuSans-30"/>
      </g>
     </g>
    </g>
    <g id="xtick_2">
     <g id="line2d_2">
      <g>
       <use xlink:href="#m8dfa2fbbf9" x="141.918185" y="323.44" style="stroke: #000000; stroke-width: 0.8"/>
      </g>
     </g>
     <g id="text_2">
      <!-- 50 -->
      <g transform="translate(135.555685 338.038438) scale(0.1 -0.1)">
       <defs>
        <path id="DejaVuSans-35" d="M 691 4666 
L 3169 4666 
L 3169 4134 
L 1269 4134 
L 1269 2991 
Q 1406 3038 1543 3061 
Q 1681 3084 1819 3084 
Q 2600 3084 3056 2656 
Q 3513 2228 3513 1497 
Q 3513 744 3044 326 
Q 2575 -91 1722 -91 
Q 1428 -91 1123 -41 
Q 819 9 494 109 
L 494 744 
Q 775 591 1075 516 
Q 1375 441 1709 441 
Q 2250 441 2565 725 
Q 2881 1009 2881 1497 
Q 2881 1984 2565 2268 
Q 2250 2553 1709 2553 
Q 1456 2553 1204 2497 
Q 953 2441 691 2322 
L 691 4666 
z
" transform="scale(0.015625)"/>
       </defs>
       <use xlink:href="#DejaVuSans-35"/>
       <use xlink:href="#DejaVuSans-30" x="63.623047"/>
      </g>
     </g>
    </g>
    <g id="xtick_3">
     <g id="line2d_3">
      <g>
       <use xlink:href="#m8dfa2fbbf9" x="209.100703" y="323.44" style="stroke: #000000; stroke-width: 0.8"/>
      </g>
     </g>
     <g id="text_3">
      <!-- 100 -->
      <g transform="translate(199.556953 338.038438) scale(0.1 -0.1)">
       <defs>
        <path id="DejaVuSans-31" d="M 794 531 
L 1825 531 
L 1825 4091 
L 703 3866 
L 703 4441 
L 1819 4666 
L 2450 4666 
L 2450 531 
L 3481 531 
L 3481 0 
L 794 0 
L 794 531 
z
" transform="scale(0.015625)"/>
       </defs>
       <use xlink:href="#DejaVuSans-31"/>
       <use xlink:href="#DejaVuSans-30" x="63.623047"/>
       <use xlink:href="#DejaVuSans-30" x="127.246094"/>
      </g>
     </g>
    </g>
    <g id="xtick_4">
     <g id="line2d_4">
      <g>
       <use xlink:href="#m8dfa2fbbf9" x="276.28322" y="323.44" style="stroke: #000000; stroke-width: 0.8"/>
      </g>
     </g>
     <g id="text_4">
      <!-- 150 -->
      <g transform="translate(266.73947 338.038438) scale(0.1 -0.1)">
       <use xlink:href="#DejaVuSans-31"/>
       <use xlink:href="#DejaVuSans-35" x="63.623047"/>
       <use xlink:href="#DejaVuSans-30" x="127.246094"/>
      </g>
     </g>
    </g>
    <g id="xtick_5">
     <g id="line2d_5">
      <g>
       <use xlink:href="#m8dfa2fbbf9" x="343.465738" y="323.44" style="stroke: #000000; stroke-width: 0.8"/>
      </g>
     </g>
     <g id="text_5">
      <!-- 200 -->
      <g transform="translate(333.921988 338.038438) scale(0.1 -0.1)">
       <defs>
        <path id="DejaVuSans-32" d="M 1228 531 
L 3431 531 
L 3431 0 
L 469 0 
L 469 531 
Q 828 903 1448 1529 
Q 2069 2156 2228 2338 
Q 2531 2678 2651 2914 
Q 2772 3150 2772 3378 
Q 2772 3750 2511 3984 
Q 2250 4219 1831 4219 
Q 1534 4219 1204 4116 
Q 875 4013 500 3803 
L 500 4441 
Q 881 4594 1212 4672 
Q 1544 4750 1819 4750 
Q 2544 4750 2975 4387 
Q 3406 4025 3406 3419 
Q 3406 3131 3298 2873 
Q 3191 2616 2906 2266 
Q 2828 2175 2409 1742 
Q 1991 1309 1228 531 
z
" transform="scale(0.015625)"/>
       </defs>
       <use xlink:href="#DejaVuSans-32"/>
       <use xlink:href="#DejaVuSans-30" x="63.623047"/>
       <use xlink:href="#DejaVuSans-30" x="127.246094"/>
      </g>
     </g>
    </g>
    <g id="xtick_6">
     <g id="line2d_6">
      <g>
       <use xlink:href="#m8dfa2fbbf9" x="410.648255" y="323.44" style="stroke: #000000; stroke-width: 0.8"/>
      </g>
     </g>
     <g id="text_6">
      <!-- 250 -->
      <g transform="translate(401.104505 338.038438) scale(0.1 -0.1)">
       <use xlink:href="#DejaVuSans-32"/>
       <use xlink:href="#DejaVuSans-35" x="63.623047"/>
       <use xlink:href="#DejaVuSans-30" x="127.246094"/>
      </g>
     </g>
    </g>
    <g id="xtick_7">
     <g id="line2d_7">
      <g>
       <use xlink:href="#m8dfa2fbbf9" x="477.830773" y="323.44" style="stroke: #000000; stroke-width: 0.8"/>
      </g>
     </g>
     <g id="text_7">
      <!-- 300 -->
      <g transform="translate(468.287023 338.038438) scale(0.1 -0.1)">
       <defs>
        <path id="DejaVuSans-33" d="M 2597 2516 
Q 3050 2419 3304 2112 
Q 3559 1806 3559 1356 
Q 3559 666 3084 287 
Q 2609 -91 1734 -91 
Q 1441 -91 1130 -33 
Q 819 25 488 141 
L 488 750 
Q 750 597 1062 519 
Q 1375 441 1716 441 
Q 2309 441 2620 675 
Q 2931 909 2931 1356 
Q 2931 1769 2642 2001 
Q 2353 2234 1838 2234 
L 1294 2234 
L 1294 2753 
L 1863 2753 
Q 2328 2753 2575 2939 
Q 2822 3125 2822 3475 
Q 2822 3834 2567 4026 
Q 2313 4219 1838 4219 
Q 1578 4219 1281 4162 
Q 984 4106 628 3988 
L 628 4550 
Q 988 4650 1302 4700 
Q 1616 4750 1894 4750 
Q 2613 4750 3031 4423 
Q 3450 4097 3450 3541 
Q 3450 3153 3228 2886 
Q 3006 2619 2597 2516 
z
" transform="scale(0.015625)"/>
       </defs>
       <use xlink:href="#DejaVuSans-33"/>
       <use xlink:href="#DejaVuSans-30" x="63.623047"/>
       <use xlink:href="#DejaVuSans-30" x="127.246094"/>
      </g>
     </g>
    </g>
    <g id="text_8">
     <!-- Epochs -->
     <g transform="translate(276.506875 351.716563) scale(0.1 -0.1)">
      <defs>
       <path id="DejaVuSans-45" d="M 628 4666 
L 3578 4666 
L 3578 4134 
L 1259 4134 
L 1259 2753 
L 3481 2753 
L 3481 2222 
L 1259 2222 
L 1259 531 
L 3634 531 
L 3634 0 
L 628 0 
L 628 4666 
z
" transform="scale(0.015625)"/>
       <path id="DejaVuSans-70" d="M 1159 525 
L 1159 -1331 
L 581 -1331 
L 581 3500 
L 1159 3500 
L 1159 2969 
Q 1341 3281 1617 3432 
Q 1894 3584 2278 3584 
Q 2916 3584 3314 3078 
Q 3713 2572 3713 1747 
Q 3713 922 3314 415 
Q 2916 -91 2278 -91 
Q 1894 -91 1617 61 
Q 1341 213 1159 525 
z
M 3116 1747 
Q 3116 2381 2855 2742 
Q 2594 3103 2138 3103 
Q 1681 3103 1420 2742 
Q 1159 2381 1159 1747 
Q 1159 1113 1420 752 
Q 1681 391 2138 391 
Q 2594 391 2855 752 
Q 3116 1113 3116 1747 
z
" transform="scale(0.015625)"/>
       <path id="DejaVuSans-6f" d="M 1959 3097 
Q 1497 3097 1228 2736 
Q 959 2375 959 1747 
Q 959 1119 1226 758 
Q 1494 397 1959 397 
Q 2419 397 2687 759 
Q 2956 1122 2956 1747 
Q 2956 2369 2687 2733 
Q 2419 3097 1959 3097 
z
M 1959 3584 
Q 2709 3584 3137 3096 
Q 3566 2609 3566 1747 
Q 3566 888 3137 398 
Q 2709 -91 1959 -91 
Q 1206 -91 779 398 
Q 353 888 353 1747 
Q 353 2609 779 3096 
Q 1206 3584 1959 3584 
z
" transform="scale(0.015625)"/>
       <path id="DejaVuSans-63" d="M 3122 3366 
L 3122 2828 
Q 2878 2963 2633 3030 
Q 2388 3097 2138 3097 
Q 1578 3097 1268 2742 
Q 959 2388 959 1747 
Q 959 1106 1268 751 
Q 1578 397 2138 397 
Q 2388 397 2633 464 
Q 2878 531 3122 666 
L 3122 134 
Q 2881 22 2623 -34 
Q 2366 -91 2075 -91 
Q 1284 -91 818 406 
Q 353 903 353 1747 
Q 353 2603 823 3093 
Q 1294 3584 2113 3584 
Q 2378 3584 2631 3529 
Q 2884 3475 3122 3366 
z
" transform="scale(0.015625)"/>
       <path id="DejaVuSans-68" d="M 3513 2113 
L 3513 0 
L 2938 0 
L 2938 2094 
Q 2938 2591 2744 2837 
Q 2550 3084 2163 3084 
Q 1697 3084 1428 2787 
Q 1159 2491 1159 1978 
L 1159 0 
L 581 0 
L 581 4863 
L 1159 4863 
L 1159 2956 
Q 1366 3272 1645 3428 
Q 1925 3584 2291 3584 
Q 2894 3584 3203 3211 
Q 3513 2838 3513 2113 
z
" transform="scale(0.015625)"/>
       <path id="DejaVuSans-73" d="M 2834 3397 
L 2834 2853 
Q 2591 2978 2328 3040 
Q 2066 3103 1784 3103 
Q 1356 3103 1142 2972 
Q 928 2841 928 2578 
Q 928 2378 1081 2264 
Q 1234 2150 1697 2047 
L 1894 2003 
Q 2506 1872 2764 1633 
Q 3022 1394 3022 966 
Q 3022 478 2636 193 
Q 2250 -91 1575 -91 
Q 1294 -91 989 -36 
Q 684 19 347 128 
L 347 722 
Q 666 556 975 473 
Q 1284 391 1588 391 
Q 1994 391 2212 530 
Q 2431 669 2431 922 
Q 2431 1156 2273 1281 
Q 2116 1406 1581 1522 
L 1381 1569 
Q 847 1681 609 1914 
Q 372 2147 372 2553 
Q 372 3047 722 3315 
Q 1072 3584 1716 3584 
Q 2034 3584 2315 3537 
Q 2597 3491 2834 3397 
z
" transform="scale(0.015625)"/>
      </defs>
      <use xlink:href="#DejaVuSans-45"/>
      <use xlink:href="#DejaVuSans-70" x="63.183594"/>
      <use xlink:href="#DejaVuSans-6f" x="126.660156"/>
      <use xlink:href="#DejaVuSans-63" x="187.841797"/>
      <use xlink:href="#DejaVuSans-68" x="242.822266"/>
      <use xlink:href="#DejaVuSans-73" x="306.201172"/>
     </g>
    </g>
   </g>
   <g id="matplotlib.axis_2">
    <g id="ytick_1">
     <g id="line2d_8">
      <defs>
       <path id="m9b1a146d36" d="M 0 0 
L -3.5 0 
" style="stroke: #000000; stroke-width: 0.8"/>
      </defs>
      <g>
       <use xlink:href="#m9b1a146d36" x="54.245" y="313.048435" style="stroke: #000000; stroke-width: 0.8"/>
      </g>
     </g>
     <g id="text_9">
      <!-- 0.00 -->
      <g transform="translate(24.979375 316.847654) scale(0.1 -0.1)">
       <defs>
        <path id="DejaVuSans-2e" d="M 684 794 
L 1344 794 
L 1344 0 
L 684 0 
L 684 794 
z
" transform="scale(0.015625)"/>
       </defs>
       <use xlink:href="#DejaVuSans-30"/>
       <use xlink:href="#DejaVuSans-2e" x="63.623047"/>
       <use xlink:href="#DejaVuSans-30" x="95.410156"/>
       <use xlink:href="#DejaVuSans-30" x="159.033203"/>
      </g>
     </g>
    </g>
    <g id="ytick_2">
     <g id="line2d_9">
      <g>
       <use xlink:href="#m9b1a146d36" x="54.245" y="275.172294" style="stroke: #000000; stroke-width: 0.8"/>
      </g>
     </g>
     <g id="text_10">
      <!-- 0.05 -->
      <g transform="translate(24.979375 278.971512) scale(0.1 -0.1)">
       <use xlink:href="#DejaVuSans-30"/>
       <use xlink:href="#DejaVuSans-2e" x="63.623047"/>
       <use xlink:href="#DejaVuSans-30" x="95.410156"/>
       <use xlink:href="#DejaVuSans-35" x="159.033203"/>
      </g>
     </g>
    </g>
    <g id="ytick_3">
     <g id="line2d_10">
      <g>
       <use xlink:href="#m9b1a146d36" x="54.245" y="237.296152" style="stroke: #000000; stroke-width: 0.8"/>
      </g>
     </g>
     <g id="text_11">
      <!-- 0.10 -->
      <g transform="translate(24.979375 241.095371) scale(0.1 -0.1)">
       <use xlink:href="#DejaVuSans-30"/>
       <use xlink:href="#DejaVuSans-2e" x="63.623047"/>
       <use xlink:href="#DejaVuSans-31" x="95.410156"/>
       <use xlink:href="#DejaVuSans-30" x="159.033203"/>
      </g>
     </g>
    </g>
    <g id="ytick_4">
     <g id="line2d_11">
      <g>
       <use xlink:href="#m9b1a146d36" x="54.245" y="199.420011" style="stroke: #000000; stroke-width: 0.8"/>
      </g>
     </g>
     <g id="text_12">
      <!-- 0.15 -->
      <g transform="translate(24.979375 203.21923) scale(0.1 -0.1)">
       <use xlink:href="#DejaVuSans-30"/>
       <use xlink:href="#DejaVuSans-2e" x="63.623047"/>
       <use xlink:href="#DejaVuSans-31" x="95.410156"/>
       <use xlink:href="#DejaVuSans-35" x="159.033203"/>
      </g>
     </g>
    </g>
    <g id="ytick_5">
     <g id="line2d_12">
      <g>
       <use xlink:href="#m9b1a146d36" x="54.245" y="161.54387" style="stroke: #000000; stroke-width: 0.8"/>
      </g>
     </g>
     <g id="text_13">
      <!-- 0.20 -->
      <g transform="translate(24.979375 165.343089) scale(0.1 -0.1)">
       <use xlink:href="#DejaVuSans-30"/>
       <use xlink:href="#DejaVuSans-2e" x="63.623047"/>
       <use xlink:href="#DejaVuSans-32" x="95.410156"/>
       <use xlink:href="#DejaVuSans-30" x="159.033203"/>
      </g>
     </g>
    </g>
    <g id="ytick_6">
     <g id="line2d_13">
      <g>
       <use xlink:href="#m9b1a146d36" x="54.245" y="123.667729" style="stroke: #000000; stroke-width: 0.8"/>
      </g>
     </g>
     <g id="text_14">
      <!-- 0.25 -->
      <g transform="translate(24.979375 127.466948) scale(0.1 -0.1)">
       <use xlink:href="#DejaVuSans-30"/>
       <use xlink:href="#DejaVuSans-2e" x="63.623047"/>
       <use xlink:href="#DejaVuSans-32" x="95.410156"/>
       <use xlink:href="#DejaVuSans-35" x="159.033203"/>
      </g>
     </g>
    </g>
    <g id="ytick_7">
     <g id="line2d_14">
      <g>
       <use xlink:href="#m9b1a146d36" x="54.245" y="85.791588" style="stroke: #000000; stroke-width: 0.8"/>
      </g>
     </g>
     <g id="text_15">
      <!-- 0.30 -->
      <g transform="translate(24.979375 89.590806) scale(0.1 -0.1)">
       <use xlink:href="#DejaVuSans-30"/>
       <use xlink:href="#DejaVuSans-2e" x="63.623047"/>
       <use xlink:href="#DejaVuSans-33" x="95.410156"/>
       <use xlink:href="#DejaVuSans-30" x="159.033203"/>
      </g>
     </g>
    </g>
    <g id="ytick_8">
     <g id="line2d_15">
      <g>
       <use xlink:href="#m9b1a146d36" x="54.245" y="47.915447" style="stroke: #000000; stroke-width: 0.8"/>
      </g>
     </g>
     <g id="text_16">
      <!-- 0.35 -->
      <g transform="translate(24.979375 51.714665) scale(0.1 -0.1)">
       <use xlink:href="#DejaVuSans-30"/>
       <use xlink:href="#DejaVuSans-2e" x="63.623047"/>
       <use xlink:href="#DejaVuSans-33" x="95.410156"/>
       <use xlink:href="#DejaVuSans-35" x="159.033203"/>
      </g>
     </g>
    </g>
    <g id="text_17">
     <!-- Loss -->
     <g transform="translate(18.899687 185.767188) rotate(-90) scale(0.1 -0.1)">
      <defs>
       <path id="DejaVuSans-4c" d="M 628 4666 
L 1259 4666 
L 1259 531 
L 3531 531 
L 3531 0 
L 628 0 
L 628 4666 
z
" transform="scale(0.015625)"/>
      </defs>
      <use xlink:href="#DejaVuSans-4c"/>
      <use xlink:href="#DejaVuSans-6f" x="53.962891"/>
      <use xlink:href="#DejaVuSans-73" x="115.144531"/>
      <use xlink:href="#DejaVuSans-73" x="167.244141"/>
     </g>
    </g>
   </g>
   <g id="line2d_16">
    <path d="M 76.079318 39.672727 
L 77.422969 174.720225 
L 78.766619 200.654854 
L 80.110269 215.288149 
L 81.45392 223.95854 
L 82.79757 230.281039 
L 84.14122 236.038423 
L 85.484871 239.10099 
L 86.828521 243.693134 
L 88.172171 243.532343 
L 89.515822 248.016195 
L 90.859472 251.052044 
L 92.203122 251.06117 
L 93.546773 253.352967 
L 94.890423 255.205819 
L 96.234073 256.619366 
L 97.577724 259.697071 
L 98.921374 259.080601 
L 100.265024 259.425065 
L 101.608675 262.906918 
L 102.952325 262.462025 
L 104.295976 263.439541 
L 106.983276 266.090825 
L 108.326927 267.913121 
L 109.670577 267.356204 
L 111.014227 267.984554 
L 112.357878 270.648007 
L 113.701528 269.549468 
L 116.388829 271.646374 
L 117.732479 271.822427 
L 119.076129 272.806766 
L 120.41978 274.489235 
L 123.10708 274.541583 
L 124.450731 276.002354 
L 125.794381 274.970969 
L 127.138031 276.139156 
L 128.481682 276.87227 
L 129.825332 278.792455 
L 131.168983 278.477659 
L 132.512633 277.860371 
L 133.856283 279.257872 
L 135.199934 280.069979 
L 137.887234 280.665849 
L 139.230885 281.366575 
L 140.574535 281.920594 
L 141.918185 281.535051 
L 143.261836 283.394484 
L 144.605486 283.066766 
L 145.949136 282.390941 
L 147.292787 283.904652 
L 148.636437 285.159127 
L 149.980087 284.20441 
L 151.323738 284.479185 
L 152.667388 284.922333 
L 155.354689 284.731544 
L 156.698339 287.115258 
L 158.04199 286.619011 
L 159.38564 286.310333 
L 160.72929 286.532401 
L 162.072941 287.465146 
L 163.416591 288.670577 
L 164.760241 287.521154 
L 166.103892 288.754624 
L 168.791192 288.712946 
L 170.134843 288.561806 
L 171.478493 289.585082 
L 172.822143 289.914153 
L 175.509444 289.262891 
L 176.853094 290.930268 
L 178.196745 289.702341 
L 179.540395 290.967275 
L 182.227696 290.720372 
L 183.571346 291.36738 
L 186.258647 292.108687 
L 187.602297 292.151043 
L 188.945948 292.079232 
L 190.289598 293.150796 
L 191.633248 291.377178 
L 192.976899 294.328519 
L 194.320549 293.2076 
L 195.664199 292.606322 
L 197.00785 293.020443 
L 198.3515 294.034554 
L 199.69515 293.69713 
L 201.038801 294.33629 
L 202.382451 293.968986 
L 203.726101 294.800454 
L 205.069752 294.355622 
L 206.413402 294.780532 
L 207.757052 294.200326 
L 209.100703 295.289178 
L 210.444353 295.111315 
L 211.788003 295.96993 
L 214.475304 294.799163 
L 215.818955 296.564566 
L 217.162605 296.202431 
L 218.506255 296.748381 
L 219.849906 295.548121 
L 221.193556 296.095888 
L 222.537206 296.029391 
L 223.880857 297.234603 
L 225.224507 296.068485 
L 226.568157 297.386645 
L 227.911808 297.13255 
L 229.255458 296.301307 
L 230.599108 298.045788 
L 231.942759 296.955837 
L 233.286409 298.739414 
L 234.630059 298.02773 
L 235.97371 298.19111 
L 237.31736 297.51678 
L 238.66101 299.153342 
L 240.004661 298.089131 
L 241.348311 298.569487 
L 242.691962 298.290938 
L 244.035612 297.750517 
L 245.379262 299.132232 
L 246.722913 298.585518 
L 248.066563 298.184105 
L 249.410213 299.878051 
L 250.753864 299.414098 
L 252.097514 298.591332 
L 253.441164 299.795234 
L 254.784815 299.202631 
L 256.128465 299.598565 
L 257.472115 299.199617 
L 258.815766 300.367953 
L 260.159416 299.999453 
L 261.503066 299.788654 
L 262.846717 300.276928 
L 264.190367 299.938271 
L 265.534017 300.095034 
L 266.877668 300.370891 
L 268.221318 299.81032 
L 269.564969 301.052149 
L 270.908619 300.036655 
L 272.252269 300.950102 
L 273.59592 300.825017 
L 274.93957 300.577017 
L 276.28322 301.627731 
L 277.626871 301.354366 
L 278.970521 300.357939 
L 280.314171 302.703113 
L 281.657822 300.791067 
L 283.001472 301.559354 
L 284.345122 301.129264 
L 285.688773 301.596903 
L 287.032423 301.622889 
L 288.376073 301.315697 
L 289.719724 301.569339 
L 291.063374 301.697596 
L 292.407024 302.175535 
L 293.750675 302.510659 
L 295.094325 302.607294 
L 296.437976 302.15668 
L 299.125276 302.517573 
L 300.468927 301.886058 
L 301.812577 302.545248 
L 303.156227 302.964765 
L 304.499878 302.62471 
L 305.843528 302.953342 
L 307.187178 302.577986 
L 308.530829 303.11676 
L 309.874479 302.797125 
L 311.218129 303.052186 
L 312.56178 302.81925 
L 313.90543 303.610446 
L 315.24908 303.00672 
L 316.592731 303.02291 
L 317.936381 303.43993 
L 319.280031 303.046673 
L 321.967332 303.438514 
L 323.310983 303.273313 
L 324.654633 303.777234 
L 325.998283 303.486053 
L 328.685584 302.356644 
L 330.029234 304.327409 
L 331.372885 304.491941 
L 332.716535 303.569199 
L 335.403836 303.593912 
L 336.747486 304.482117 
L 338.091136 303.876819 
L 339.434787 304.164942 
L 340.778437 304.048707 
L 342.122087 304.467406 
L 343.465738 304.413722 
L 344.809388 304.082053 
L 346.153038 304.544304 
L 347.496689 304.665778 
L 350.18399 304.067006 
L 351.52764 304.508259 
L 352.87129 304.631964 
L 354.214941 305.115735 
L 356.902241 304.494958 
L 358.245892 304.938849 
L 359.589542 304.896799 
L 360.933192 304.722866 
L 362.276843 304.799587 
L 363.620493 305.558859 
L 364.964143 305.164609 
L 366.307794 305.057497 
L 367.651444 303.319987 
L 368.995094 305.429854 
L 370.338745 306.117613 
L 371.682395 305.86362 
L 373.026045 305.423708 
L 377.056997 305.452382 
L 378.400647 305.66315 
L 379.744297 305.346383 
L 381.087948 305.578067 
L 382.431598 305.029645 
L 383.775248 305.920864 
L 385.118899 305.355968 
L 386.462549 306.304926 
L 387.806199 305.764926 
L 390.4935 305.901727 
L 391.83715 306.073048 
L 393.180801 305.490228 
L 394.524451 305.989779 
L 395.868101 305.796001 
L 397.211752 306.306703 
L 398.555402 306.063618 
L 399.899052 306.098739 
L 401.242703 306.268981 
L 402.586353 306.060371 
L 403.930003 306.306575 
L 405.273654 306.082991 
L 406.617304 306.880621 
L 407.960955 306.152321 
L 409.304605 306.05228 
L 410.648255 306.485097 
L 411.991906 306.406731 
L 413.335556 306.118841 
L 414.679206 305.961188 
L 416.022857 305.251662 
L 417.366507 307.078856 
L 418.710157 306.43536 
L 420.053808 306.218333 
L 421.397458 306.740282 
L 422.741108 306.971042 
L 424.084759 306.820052 
L 425.428409 306.859483 
L 426.772059 306.721093 
L 428.11571 306.805556 
L 430.80301 306.661484 
L 436.177612 307.155706 
L 437.521262 306.922519 
L 438.864913 306.317867 
L 440.208563 307.225597 
L 441.552213 306.97012 
L 442.895864 307.221676 
L 444.239514 307.213661 
L 445.583164 307.016295 
L 446.926815 307.563882 
L 448.270465 307.279503 
L 449.614115 307.321771 
L 450.957766 306.86403 
L 452.301416 307.466865 
L 453.645066 307.204165 
L 454.988717 307.857536 
L 456.332367 307.273634 
L 457.676017 307.18051 
L 459.019668 307.66116 
L 460.363318 307.028924 
L 461.706969 307.507853 
L 464.394269 307.109792 
L 465.73792 307.550725 
L 467.08157 306.456571 
L 468.42522 308.120055 
L 469.768871 307.726083 
L 471.112521 307.697766 
L 472.456171 307.407925 
L 473.799822 307.611609 
L 475.143472 307.971283 
L 477.830773 307.598899 
L 479.174423 307.343226 
L 480.518073 307.968296 
L 481.861724 307.359125 
L 483.205374 307.99904 
L 484.549024 307.748346 
L 485.892675 308.160315 
L 487.236325 307.931637 
L 489.923626 307.796717 
L 491.267276 307.636265 
L 492.610927 308.166087 
L 493.954577 308.044787 
L 495.298227 308.297701 
L 496.641878 307.747831 
L 497.985528 307.919204 
L 499.329178 307.969967 
L 500.672829 308.172536 
L 502.016479 308.141193 
L 504.70378 307.89959 
L 506.04743 308.320401 
L 507.39108 308.012643 
L 508.734731 307.516607 
L 510.078381 308.524042 
L 512.765682 307.737439 
L 512.765682 307.737439 
" clip-path="url(#p4346491a6a)" style="fill: none; stroke: #1f77b4; stroke-width: 1.5; stroke-linecap: square"/>
   </g>
   <g id="line2d_17">
    <path d="M 76.079318 173.586856 
L 77.422969 174.357678 
L 78.766619 204.063968 
L 80.110269 224.030146 
L 81.45392 230.987768 
L 82.79757 232.87686 
L 84.14122 255.47931 
L 85.484871 258.873574 
L 86.828521 243.90107 
L 88.172171 212.322111 
L 89.515822 237.690401 
L 90.859472 267.459604 
L 92.203122 258.895772 
L 93.546773 258.988406 
L 94.890423 268.844031 
L 96.234073 270.672779 
L 97.577724 251.462824 
L 98.921374 269.039006 
L 100.265024 278.563668 
L 101.608675 229.418983 
L 102.952325 270.980994 
L 104.295976 246.578881 
L 105.639626 272.422578 
L 106.983276 255.674332 
L 108.326927 261.534854 
L 109.670577 273.362456 
L 111.014227 274.841826 
L 112.357878 268.340977 
L 113.701528 270.932752 
L 115.045178 276.9731 
L 116.388829 275.75107 
L 117.732479 273.076611 
L 119.076129 276.617466 
L 120.41978 259.900271 
L 121.76343 272.638674 
L 123.10708 267.80621 
L 124.450731 283.149281 
L 125.794381 275.356916 
L 127.138031 272.238239 
L 128.481682 279.676749 
L 129.825332 274.287105 
L 131.168983 269.535448 
L 132.512633 274.891604 
L 133.856283 279.287198 
L 135.199934 283.22046 
L 136.543584 290.368563 
L 137.887234 278.479688 
L 139.230885 289.772504 
L 140.574535 270.821413 
L 141.918185 276.879974 
L 143.261836 284.052144 
L 144.605486 265.712387 
L 145.949136 286.150699 
L 147.292787 287.144342 
L 149.980087 290.508106 
L 151.323738 286.276531 
L 152.667388 279.359103 
L 154.011038 290.056116 
L 155.354689 285.267878 
L 156.698339 289.233003 
L 158.04199 278.122353 
L 160.72929 291.882806 
L 162.072941 292.721636 
L 163.416591 290.945238 
L 164.760241 273.724004 
L 166.103892 275.951578 
L 167.447542 288.990413 
L 168.791192 294.611877 
L 170.134843 285.588769 
L 171.478493 291.92385 
L 172.822143 283.326192 
L 174.165794 287.37447 
L 175.509444 292.05176 
L 176.853094 286.001751 
L 178.196745 297.404399 
L 179.540395 290.819368 
L 180.884045 291.209512 
L 182.227696 279.917894 
L 183.571346 289.317304 
L 184.914997 295.949962 
L 186.258647 286.043943 
L 187.602297 292.754504 
L 188.945948 295.896823 
L 190.289598 293.743916 
L 191.633248 290.977899 
L 192.976899 286.055744 
L 194.320549 286.399203 
L 195.664199 298.471432 
L 197.00785 296.687359 
L 198.3515 290.916354 
L 199.69515 292.434989 
L 201.038801 295.183484 
L 202.382451 284.173726 
L 203.726101 294.36898 
L 205.069752 277.413359 
L 206.413402 291.935477 
L 207.757052 280.928765 
L 209.100703 293.961888 
L 210.444353 301.650689 
L 211.788003 295.924815 
L 213.131654 298.880661 
L 214.475304 299.000037 
L 215.818955 292.75536 
L 217.162605 298.362604 
L 218.506255 293.624465 
L 219.849906 294.407329 
L 221.193556 292.270752 
L 222.537206 300.828312 
L 223.880857 272.775936 
L 225.224507 297.76218 
L 226.568157 294.600711 
L 227.911808 295.812035 
L 229.255458 290.744503 
L 230.599108 296.653229 
L 231.942759 301.016802 
L 233.286409 289.079128 
L 234.630059 290.886715 
L 235.97371 300.117539 
L 237.31736 300.794999 
L 238.66101 292.280941 
L 240.004661 297.308065 
L 241.348311 303.596707 
L 242.691962 298.900273 
L 244.035612 300.787032 
L 245.379262 298.570424 
L 246.722913 295.162315 
L 248.066563 289.886589 
L 249.410213 301.383223 
L 250.753864 298.991801 
L 252.097514 300.956714 
L 253.441164 299.191069 
L 254.784815 303.181593 
L 256.128465 297.073852 
L 257.472115 300.062966 
L 258.815766 299.330042 
L 260.159416 299.213386 
L 261.503066 298.103421 
L 262.846717 299.744647 
L 264.190367 298.085163 
L 265.534017 301.402178 
L 266.877668 296.274945 
L 268.221318 287.843668 
L 269.564969 293.865845 
L 270.908619 303.069771 
L 272.252269 304.456102 
L 273.59592 300.1348 
L 276.28322 299.276886 
L 277.626871 297.976827 
L 278.970521 300.795078 
L 280.314171 297.064344 
L 281.657822 295.667861 
L 283.001472 300.315021 
L 284.345122 302.149774 
L 285.688773 306.279232 
L 287.032423 303.352158 
L 288.376073 298.703459 
L 289.719724 304.08498 
L 291.063374 294.060164 
L 292.407024 303.036517 
L 293.750675 301.061206 
L 295.094325 304.018401 
L 296.437976 294.885071 
L 297.781626 305.563922 
L 299.125276 297.649111 
L 300.468927 300.536338 
L 301.812577 305.606172 
L 303.156227 303.597376 
L 304.499878 296.395258 
L 305.843528 303.971412 
L 307.187178 306.230541 
L 308.530829 299.572271 
L 311.218129 305.961441 
L 312.56178 306.071023 
L 313.90543 304.406894 
L 315.24908 306.292279 
L 316.592731 299.93914 
L 319.280031 305.832077 
L 320.623682 305.796594 
L 321.967332 305.534045 
L 323.310983 302.018627 
L 324.654633 300.840153 
L 325.998283 306.131764 
L 327.341934 306.134623 
L 328.685584 303.515373 
L 330.029234 304.339703 
L 331.372885 306.012189 
L 332.716535 305.433074 
L 334.060185 302.506504 
L 335.403836 304.255087 
L 336.747486 303.346684 
L 338.091136 308.3874 
L 339.434787 302.966425 
L 340.778437 298.223086 
L 342.122087 303.467502 
L 343.465738 303.115497 
L 344.809388 306.197022 
L 346.153038 301.542821 
L 347.496689 301.577669 
L 348.840339 284.352175 
L 350.18399 305.334791 
L 351.52764 304.251851 
L 352.87129 305.73539 
L 354.214941 301.60016 
L 355.558591 306.184452 
L 356.902241 307.846707 
L 358.245892 304.612464 
L 359.589542 303.618852 
L 360.933192 304.86826 
L 362.276843 308.52433 
L 363.620493 306.522058 
L 364.964143 307.607567 
L 366.307794 307.169525 
L 367.651444 306.908717 
L 368.995094 303.863832 
L 370.338745 306.315796 
L 371.682395 302.722585 
L 373.026045 304.178943 
L 374.369696 304.593338 
L 375.713346 304.486417 
L 377.056997 309.586538 
L 378.400647 305.934218 
L 379.744297 303.025044 
L 381.087948 304.509295 
L 382.431598 299.394816 
L 383.775248 305.72501 
L 385.118899 304.052429 
L 386.462549 304.427811 
L 387.806199 308.169794 
L 389.14985 307.57391 
L 390.4935 306.719361 
L 391.83715 302.921232 
L 393.180801 304.243531 
L 394.524451 307.793309 
L 395.868101 297.0536 
L 397.211752 298.786178 
L 398.555402 303.721742 
L 399.899052 306.662851 
L 401.242703 304.102365 
L 402.586353 307.569944 
L 403.930003 306.065343 
L 405.273654 307.914244 
L 407.960955 303.710984 
L 409.304605 309.271267 
L 410.648255 304.35997 
L 411.991906 300.747373 
L 413.335556 305.374068 
L 414.679206 308.12663 
L 416.022857 309.614846 
L 417.366507 304.731059 
L 418.710157 308.712341 
L 420.053808 307.684021 
L 421.397458 309.599131 
L 422.741108 309.695308 
L 425.428409 307.763689 
L 426.772059 304.57477 
L 428.11571 304.799311 
L 429.45936 304.059905 
L 430.80301 292.554811 
L 432.146661 308.050335 
L 433.490311 308.410879 
L 434.833962 306.832269 
L 436.177612 306.060647 
L 437.521262 305.623506 
L 438.864913 306.620817 
L 440.208563 302.563661 
L 441.552213 308.791197 
L 442.895864 309.574764 
L 444.239514 307.183321 
L 445.583164 309.927273 
L 446.926815 307.942795 
L 448.270465 306.300016 
L 449.614115 291.011733 
L 450.957766 304.402098 
L 452.301416 303.590614 
L 453.645066 308.793377 
L 454.988717 308.691761 
L 456.332367 307.48124 
L 457.676017 308.375711 
L 459.019668 307.628656 
L 460.363318 308.528044 
L 461.706969 308.507929 
L 463.050619 307.274517 
L 464.394269 309.349275 
L 465.73792 308.421075 
L 467.08157 308.614834 
L 468.42522 308.252632 
L 469.768871 309.048004 
L 471.112521 307.834328 
L 472.456171 308.473216 
L 473.799822 308.337389 
L 475.143472 309.054968 
L 476.487122 307.520824 
L 477.830773 307.305027 
L 479.174423 303.060474 
L 480.518073 308.994264 
L 481.861724 307.096282 
L 483.205374 304.904728 
L 485.892675 309.754798 
L 487.236325 309.429567 
L 488.579976 308.185075 
L 489.923626 305.533887 
L 491.267276 309.894783 
L 492.610927 307.940167 
L 493.954577 308.221914 
L 495.298227 304.009266 
L 496.641878 308.232435 
L 497.985528 309.165937 
L 499.329178 302.982341 
L 500.672829 307.538002 
L 502.016479 307.758636 
L 503.360129 304.032012 
L 504.70378 308.006122 
L 507.39108 305.572383 
L 508.734731 308.714378 
L 510.078381 308.285104 
L 511.422031 307.585998 
L 512.765682 308.647394 
L 512.765682 308.647394 
" clip-path="url(#p4346491a6a)" style="fill: none; stroke: #ff7f0e; stroke-width: 1.5; stroke-linecap: square"/>
   </g>
   <g id="patch_3">
    <path d="M 54.245 323.44 
L 54.245 26.16 
" style="fill: none; stroke: #000000; stroke-width: 0.8; stroke-linejoin: miter; stroke-linecap: square"/>
   </g>
   <g id="patch_4">
    <path d="M 534.6 323.44 
L 534.6 26.16 
" style="fill: none; stroke: #000000; stroke-width: 0.8; stroke-linejoin: miter; stroke-linecap: square"/>
   </g>
   <g id="patch_5">
    <path d="M 54.245 323.44 
L 534.6 323.44 
" style="fill: none; stroke: #000000; stroke-width: 0.8; stroke-linejoin: miter; stroke-linecap: square"/>
   </g>
   <g id="patch_6">
    <path d="M 54.245 26.16 
L 534.6 26.16 
" style="fill: none; stroke: #000000; stroke-width: 0.8; stroke-linejoin: miter; stroke-linecap: square"/>
   </g>
   <g id="text_18">
    <!-- Training and Validation Loss -->
    <g transform="translate(210.953125 20.16) scale(0.12 -0.12)">
     <defs>
      <path id="DejaVuSans-54" d="M -19 4666 
L 3928 4666 
L 3928 4134 
L 2272 4134 
L 2272 0 
L 1638 0 
L 1638 4134 
L -19 4134 
L -19 4666 
z
" transform="scale(0.015625)"/>
      <path id="DejaVuSans-72" d="M 2631 2963 
Q 2534 3019 2420 3045 
Q 2306 3072 2169 3072 
Q 1681 3072 1420 2755 
Q 1159 2438 1159 1844 
L 1159 0 
L 581 0 
L 581 3500 
L 1159 3500 
L 1159 2956 
Q 1341 3275 1631 3429 
Q 1922 3584 2338 3584 
Q 2397 3584 2469 3576 
Q 2541 3569 2628 3553 
L 2631 2963 
z
" transform="scale(0.015625)"/>
      <path id="DejaVuSans-61" d="M 2194 1759 
Q 1497 1759 1228 1600 
Q 959 1441 959 1056 
Q 959 750 1161 570 
Q 1363 391 1709 391 
Q 2188 391 2477 730 
Q 2766 1069 2766 1631 
L 2766 1759 
L 2194 1759 
z
M 3341 1997 
L 3341 0 
L 2766 0 
L 2766 531 
Q 2569 213 2275 61 
Q 1981 -91 1556 -91 
Q 1019 -91 701 211 
Q 384 513 384 1019 
Q 384 1609 779 1909 
Q 1175 2209 1959 2209 
L 2766 2209 
L 2766 2266 
Q 2766 2663 2505 2880 
Q 2244 3097 1772 3097 
Q 1472 3097 1187 3025 
Q 903 2953 641 2809 
L 641 3341 
Q 956 3463 1253 3523 
Q 1550 3584 1831 3584 
Q 2591 3584 2966 3190 
Q 3341 2797 3341 1997 
z
" transform="scale(0.015625)"/>
      <path id="DejaVuSans-69" d="M 603 3500 
L 1178 3500 
L 1178 0 
L 603 0 
L 603 3500 
z
M 603 4863 
L 1178 4863 
L 1178 4134 
L 603 4134 
L 603 4863 
z
" transform="scale(0.015625)"/>
      <path id="DejaVuSans-6e" d="M 3513 2113 
L 3513 0 
L 2938 0 
L 2938 2094 
Q 2938 2591 2744 2837 
Q 2550 3084 2163 3084 
Q 1697 3084 1428 2787 
Q 1159 2491 1159 1978 
L 1159 0 
L 581 0 
L 581 3500 
L 1159 3500 
L 1159 2956 
Q 1366 3272 1645 3428 
Q 1925 3584 2291 3584 
Q 2894 3584 3203 3211 
Q 3513 2838 3513 2113 
z
" transform="scale(0.015625)"/>
      <path id="DejaVuSans-67" d="M 2906 1791 
Q 2906 2416 2648 2759 
Q 2391 3103 1925 3103 
Q 1463 3103 1205 2759 
Q 947 2416 947 1791 
Q 947 1169 1205 825 
Q 1463 481 1925 481 
Q 2391 481 2648 825 
Q 2906 1169 2906 1791 
z
M 3481 434 
Q 3481 -459 3084 -895 
Q 2688 -1331 1869 -1331 
Q 1566 -1331 1297 -1286 
Q 1028 -1241 775 -1147 
L 775 -588 
Q 1028 -725 1275 -790 
Q 1522 -856 1778 -856 
Q 2344 -856 2625 -561 
Q 2906 -266 2906 331 
L 2906 616 
Q 2728 306 2450 153 
Q 2172 0 1784 0 
Q 1141 0 747 490 
Q 353 981 353 1791 
Q 353 2603 747 3093 
Q 1141 3584 1784 3584 
Q 2172 3584 2450 3431 
Q 2728 3278 2906 2969 
L 2906 3500 
L 3481 3500 
L 3481 434 
z
" transform="scale(0.015625)"/>
      <path id="DejaVuSans-20" transform="scale(0.015625)"/>
      <path id="DejaVuSans-64" d="M 2906 2969 
L 2906 4863 
L 3481 4863 
L 3481 0 
L 2906 0 
L 2906 525 
Q 2725 213 2448 61 
Q 2172 -91 1784 -91 
Q 1150 -91 751 415 
Q 353 922 353 1747 
Q 353 2572 751 3078 
Q 1150 3584 1784 3584 
Q 2172 3584 2448 3432 
Q 2725 3281 2906 2969 
z
M 947 1747 
Q 947 1113 1208 752 
Q 1469 391 1925 391 
Q 2381 391 2643 752 
Q 2906 1113 2906 1747 
Q 2906 2381 2643 2742 
Q 2381 3103 1925 3103 
Q 1469 3103 1208 2742 
Q 947 2381 947 1747 
z
" transform="scale(0.015625)"/>
      <path id="DejaVuSans-56" d="M 1831 0 
L 50 4666 
L 709 4666 
L 2188 738 
L 3669 4666 
L 4325 4666 
L 2547 0 
L 1831 0 
z
" transform="scale(0.015625)"/>
      <path id="DejaVuSans-6c" d="M 603 4863 
L 1178 4863 
L 1178 0 
L 603 0 
L 603 4863 
z
" transform="scale(0.015625)"/>
      <path id="DejaVuSans-74" d="M 1172 4494 
L 1172 3500 
L 2356 3500 
L 2356 3053 
L 1172 3053 
L 1172 1153 
Q 1172 725 1289 603 
Q 1406 481 1766 481 
L 2356 481 
L 2356 0 
L 1766 0 
Q 1100 0 847 248 
Q 594 497 594 1153 
L 594 3053 
L 172 3053 
L 172 3500 
L 594 3500 
L 594 4494 
L 1172 4494 
z
" transform="scale(0.015625)"/>
     </defs>
     <use xlink:href="#DejaVuSans-54"/>
     <use xlink:href="#DejaVuSans-72" x="46.333984"/>
     <use xlink:href="#DejaVuSans-61" x="87.447266"/>
     <use xlink:href="#DejaVuSans-69" x="148.726562"/>
     <use xlink:href="#DejaVuSans-6e" x="176.509766"/>
     <use xlink:href="#DejaVuSans-69" x="239.888672"/>
     <use xlink:href="#DejaVuSans-6e" x="267.671875"/>
     <use xlink:href="#DejaVuSans-67" x="331.050781"/>
     <use xlink:href="#DejaVuSans-20" x="394.527344"/>
     <use xlink:href="#DejaVuSans-61" x="426.314453"/>
     <use xlink:href="#DejaVuSans-6e" x="487.59375"/>
     <use xlink:href="#DejaVuSans-64" x="550.972656"/>
     <use xlink:href="#DejaVuSans-20" x="614.449219"/>
     <use xlink:href="#DejaVuSans-56" x="646.236328"/>
     <use xlink:href="#DejaVuSans-61" x="706.894531"/>
     <use xlink:href="#DejaVuSans-6c" x="768.173828"/>
     <use xlink:href="#DejaVuSans-69" x="795.957031"/>
     <use xlink:href="#DejaVuSans-64" x="823.740234"/>
     <use xlink:href="#DejaVuSans-61" x="887.216797"/>
     <use xlink:href="#DejaVuSans-74" x="948.496094"/>
     <use xlink:href="#DejaVuSans-69" x="987.705078"/>
     <use xlink:href="#DejaVuSans-6f" x="1015.488281"/>
     <use xlink:href="#DejaVuSans-6e" x="1076.669922"/>
     <use xlink:href="#DejaVuSans-20" x="1140.048828"/>
     <use xlink:href="#DejaVuSans-4c" x="1171.835938"/>
     <use xlink:href="#DejaVuSans-6f" x="1225.798828"/>
     <use xlink:href="#DejaVuSans-73" x="1286.980469"/>
     <use xlink:href="#DejaVuSans-73" x="1339.080078"/>
    </g>
   </g>
   <g id="legend_1">
    <g id="patch_7">
     <path d="M 423.725 63.51625 
L 527.6 63.51625 
Q 529.6 63.51625 529.6 61.51625 
L 529.6 33.16 
Q 529.6 31.16 527.6 31.16 
L 423.725 31.16 
Q 421.725 31.16 421.725 33.16 
L 421.725 61.51625 
Q 421.725 63.51625 423.725 63.51625 
z
" style="fill: #ffffff; opacity: 0.8; stroke: #cccccc; stroke-linejoin: miter"/>
    </g>
    <g id="line2d_18">
     <path d="M 425.725 39.258438 
L 435.725 39.258438 
L 445.725 39.258438 
" style="fill: none; stroke: #1f77b4; stroke-width: 1.5; stroke-linecap: square"/>
    </g>
    <g id="text_19">
     <!-- Training loss -->
     <g transform="translate(453.725 42.758438) scale(0.1 -0.1)">
      <use xlink:href="#DejaVuSans-54"/>
      <use xlink:href="#DejaVuSans-72" x="46.333984"/>
      <use xlink:href="#DejaVuSans-61" x="87.447266"/>
      <use xlink:href="#DejaVuSans-69" x="148.726562"/>
      <use xlink:href="#DejaVuSans-6e" x="176.509766"/>
      <use xlink:href="#DejaVuSans-69" x="239.888672"/>
      <use xlink:href="#DejaVuSans-6e" x="267.671875"/>
      <use xlink:href="#DejaVuSans-67" x="331.050781"/>
      <use xlink:href="#DejaVuSans-20" x="394.527344"/>
      <use xlink:href="#DejaVuSans-6c" x="426.314453"/>
      <use xlink:href="#DejaVuSans-6f" x="454.097656"/>
      <use xlink:href="#DejaVuSans-73" x="515.279297"/>
      <use xlink:href="#DejaVuSans-73" x="567.378906"/>
     </g>
    </g>
    <g id="line2d_19">
     <path d="M 425.725 53.936563 
L 435.725 53.936563 
L 445.725 53.936563 
" style="fill: none; stroke: #ff7f0e; stroke-width: 1.5; stroke-linecap: square"/>
    </g>
    <g id="text_20">
     <!-- Validation loss -->
     <g transform="translate(453.725 57.436563) scale(0.1 -0.1)">
      <use xlink:href="#DejaVuSans-56"/>
      <use xlink:href="#DejaVuSans-61" x="60.658203"/>
      <use xlink:href="#DejaVuSans-6c" x="121.9375"/>
      <use xlink:href="#DejaVuSans-69" x="149.720703"/>
      <use xlink:href="#DejaVuSans-64" x="177.503906"/>
      <use xlink:href="#DejaVuSans-61" x="240.980469"/>
      <use xlink:href="#DejaVuSans-74" x="302.259766"/>
      <use xlink:href="#DejaVuSans-69" x="341.46875"/>
      <use xlink:href="#DejaVuSans-6f" x="369.251953"/>
      <use xlink:href="#DejaVuSans-6e" x="430.433594"/>
      <use xlink:href="#DejaVuSans-20" x="493.8125"/>
      <use xlink:href="#DejaVuSans-6c" x="525.599609"/>
      <use xlink:href="#DejaVuSans-6f" x="553.382812"/>
      <use xlink:href="#DejaVuSans-73" x="614.564453"/>
      <use xlink:href="#DejaVuSans-73" x="666.664062"/>
     </g>
    </g>
   </g>
  </g>
  <g id="axes_2">
   <g id="patch_8">
    <path d="M 588.845 323.44 
L 1069.2 323.44 
L 1069.2 26.16 
L 588.845 26.16 
z
" style="fill: #ffffff"/>
   </g>
   <g id="matplotlib.axis_3">
    <g id="xtick_8">
     <g id="line2d_20">
      <g>
       <use xlink:href="#m8dfa2fbbf9" x="609.091368" y="323.44" style="stroke: #000000; stroke-width: 0.8"/>
      </g>
     </g>
     <g id="text_21">
      <!-- 50 -->
      <g transform="translate(602.728868 338.038438) scale(0.1 -0.1)">
       <use xlink:href="#DejaVuSans-35"/>
       <use xlink:href="#DejaVuSans-30" x="63.623047"/>
      </g>
     </g>
    </g>
    <g id="xtick_9">
     <g id="line2d_21">
      <g>
       <use xlink:href="#m8dfa2fbbf9" x="688.488888" y="323.44" style="stroke: #000000; stroke-width: 0.8"/>
      </g>
     </g>
     <g id="text_22">
      <!-- 100 -->
      <g transform="translate(678.945138 338.038438) scale(0.1 -0.1)">
       <use xlink:href="#DejaVuSans-31"/>
       <use xlink:href="#DejaVuSans-30" x="63.623047"/>
       <use xlink:href="#DejaVuSans-30" x="127.246094"/>
      </g>
     </g>
    </g>
    <g id="xtick_10">
     <g id="line2d_22">
      <g>
       <use xlink:href="#m8dfa2fbbf9" x="767.886409" y="323.44" style="stroke: #000000; stroke-width: 0.8"/>
      </g>
     </g>
     <g id="text_23">
      <!-- 150 -->
      <g transform="translate(758.342659 338.038438) scale(0.1 -0.1)">
       <use xlink:href="#DejaVuSans-31"/>
       <use xlink:href="#DejaVuSans-35" x="63.623047"/>
       <use xlink:href="#DejaVuSans-30" x="127.246094"/>
      </g>
     </g>
    </g>
    <g id="xtick_11">
     <g id="line2d_23">
      <g>
       <use xlink:href="#m8dfa2fbbf9" x="847.28393" y="323.44" style="stroke: #000000; stroke-width: 0.8"/>
      </g>
     </g>
     <g id="text_24">
      <!-- 200 -->
      <g transform="translate(837.74018 338.038438) scale(0.1 -0.1)">
       <use xlink:href="#DejaVuSans-32"/>
       <use xlink:href="#DejaVuSans-30" x="63.623047"/>
       <use xlink:href="#DejaVuSans-30" x="127.246094"/>
      </g>
     </g>
    </g>
    <g id="xtick_12">
     <g id="line2d_24">
      <g>
       <use xlink:href="#m8dfa2fbbf9" x="926.68145" y="323.44" style="stroke: #000000; stroke-width: 0.8"/>
      </g>
     </g>
     <g id="text_25">
      <!-- 250 -->
      <g transform="translate(917.1377 338.038438) scale(0.1 -0.1)">
       <use xlink:href="#DejaVuSans-32"/>
       <use xlink:href="#DejaVuSans-35" x="63.623047"/>
       <use xlink:href="#DejaVuSans-30" x="127.246094"/>
      </g>
     </g>
    </g>
    <g id="xtick_13">
     <g id="line2d_25">
      <g>
       <use xlink:href="#m8dfa2fbbf9" x="1006.078971" y="323.44" style="stroke: #000000; stroke-width: 0.8"/>
      </g>
     </g>
     <g id="text_26">
      <!-- 300 -->
      <g transform="translate(996.535221 338.038438) scale(0.1 -0.1)">
       <use xlink:href="#DejaVuSans-33"/>
       <use xlink:href="#DejaVuSans-30" x="63.623047"/>
       <use xlink:href="#DejaVuSans-30" x="127.246094"/>
      </g>
     </g>
    </g>
    <g id="text_27">
     <!-- Epochs -->
     <g transform="translate(811.106875 351.716563) scale(0.1 -0.1)">
      <use xlink:href="#DejaVuSans-45"/>
      <use xlink:href="#DejaVuSans-70" x="63.183594"/>
      <use xlink:href="#DejaVuSans-6f" x="126.660156"/>
      <use xlink:href="#DejaVuSans-63" x="187.841797"/>
      <use xlink:href="#DejaVuSans-68" x="242.822266"/>
      <use xlink:href="#DejaVuSans-73" x="306.201172"/>
     </g>
    </g>
   </g>
   <g id="matplotlib.axis_4">
    <g id="ytick_9">
     <g id="line2d_26">
      <g>
       <use xlink:href="#m9b1a146d36" x="588.845" y="282.702694" style="stroke: #000000; stroke-width: 0.8"/>
      </g>
     </g>
     <g id="text_28">
      <!-- 0.01 -->
      <g transform="translate(559.579375 286.501913) scale(0.1 -0.1)">
       <use xlink:href="#DejaVuSans-30"/>
       <use xlink:href="#DejaVuSans-2e" x="63.623047"/>
       <use xlink:href="#DejaVuSans-30" x="95.410156"/>
       <use xlink:href="#DejaVuSans-31" x="159.033203"/>
      </g>
     </g>
    </g>
    <g id="ytick_10">
     <g id="line2d_27">
      <g>
       <use xlink:href="#m9b1a146d36" x="588.845" y="236.400643" style="stroke: #000000; stroke-width: 0.8"/>
      </g>
     </g>
     <g id="text_29">
      <!-- 0.02 -->
      <g transform="translate(559.579375 240.199862) scale(0.1 -0.1)">
       <use xlink:href="#DejaVuSans-30"/>
       <use xlink:href="#DejaVuSans-2e" x="63.623047"/>
       <use xlink:href="#DejaVuSans-30" x="95.410156"/>
       <use xlink:href="#DejaVuSans-32" x="159.033203"/>
      </g>
     </g>
    </g>
    <g id="ytick_11">
     <g id="line2d_28">
      <g>
       <use xlink:href="#m9b1a146d36" x="588.845" y="190.098592" style="stroke: #000000; stroke-width: 0.8"/>
      </g>
     </g>
     <g id="text_30">
      <!-- 0.03 -->
      <g transform="translate(559.579375 193.897811) scale(0.1 -0.1)">
       <use xlink:href="#DejaVuSans-30"/>
       <use xlink:href="#DejaVuSans-2e" x="63.623047"/>
       <use xlink:href="#DejaVuSans-30" x="95.410156"/>
       <use xlink:href="#DejaVuSans-33" x="159.033203"/>
      </g>
     </g>
    </g>
    <g id="ytick_12">
     <g id="line2d_29">
      <g>
       <use xlink:href="#m9b1a146d36" x="588.845" y="143.796542" style="stroke: #000000; stroke-width: 0.8"/>
      </g>
     </g>
     <g id="text_31">
      <!-- 0.04 -->
      <g transform="translate(559.579375 147.59576) scale(0.1 -0.1)">
       <defs>
        <path id="DejaVuSans-34" d="M 2419 4116 
L 825 1625 
L 2419 1625 
L 2419 4116 
z
M 2253 4666 
L 3047 4666 
L 3047 1625 
L 3713 1625 
L 3713 1100 
L 3047 1100 
L 3047 0 
L 2419 0 
L 2419 1100 
L 313 1100 
L 313 1709 
L 2253 4666 
z
" transform="scale(0.015625)"/>
       </defs>
       <use xlink:href="#DejaVuSans-30"/>
       <use xlink:href="#DejaVuSans-2e" x="63.623047"/>
       <use xlink:href="#DejaVuSans-30" x="95.410156"/>
       <use xlink:href="#DejaVuSans-34" x="159.033203"/>
      </g>
     </g>
    </g>
    <g id="ytick_13">
     <g id="line2d_30">
      <g>
       <use xlink:href="#m9b1a146d36" x="588.845" y="97.494491" style="stroke: #000000; stroke-width: 0.8"/>
      </g>
     </g>
     <g id="text_32">
      <!-- 0.05 -->
      <g transform="translate(559.579375 101.293709) scale(0.1 -0.1)">
       <use xlink:href="#DejaVuSans-30"/>
       <use xlink:href="#DejaVuSans-2e" x="63.623047"/>
       <use xlink:href="#DejaVuSans-30" x="95.410156"/>
       <use xlink:href="#DejaVuSans-35" x="159.033203"/>
      </g>
     </g>
    </g>
    <g id="ytick_14">
     <g id="line2d_31">
      <g>
       <use xlink:href="#m9b1a146d36" x="588.845" y="51.19244" style="stroke: #000000; stroke-width: 0.8"/>
      </g>
     </g>
     <g id="text_33">
      <!-- 0.06 -->
      <g transform="translate(559.579375 54.991659) scale(0.1 -0.1)">
       <defs>
        <path id="DejaVuSans-36" d="M 2113 2584 
Q 1688 2584 1439 2293 
Q 1191 2003 1191 1497 
Q 1191 994 1439 701 
Q 1688 409 2113 409 
Q 2538 409 2786 701 
Q 3034 994 3034 1497 
Q 3034 2003 2786 2293 
Q 2538 2584 2113 2584 
z
M 3366 4563 
L 3366 3988 
Q 3128 4100 2886 4159 
Q 2644 4219 2406 4219 
Q 1781 4219 1451 3797 
Q 1122 3375 1075 2522 
Q 1259 2794 1537 2939 
Q 1816 3084 2150 3084 
Q 2853 3084 3261 2657 
Q 3669 2231 3669 1497 
Q 3669 778 3244 343 
Q 2819 -91 2113 -91 
Q 1303 -91 875 529 
Q 447 1150 447 2328 
Q 447 3434 972 4092 
Q 1497 4750 2381 4750 
Q 2619 4750 2861 4703 
Q 3103 4656 3366 4563 
z
" transform="scale(0.015625)"/>
       </defs>
       <use xlink:href="#DejaVuSans-30"/>
       <use xlink:href="#DejaVuSans-2e" x="63.623047"/>
       <use xlink:href="#DejaVuSans-30" x="95.410156"/>
       <use xlink:href="#DejaVuSans-36" x="159.033203"/>
      </g>
     </g>
    </g>
    <g id="text_34">
     <!-- Loss -->
     <g transform="translate(553.499687 185.767188) rotate(-90) scale(0.1 -0.1)">
      <use xlink:href="#DejaVuSans-4c"/>
      <use xlink:href="#DejaVuSans-6f" x="53.962891"/>
      <use xlink:href="#DejaVuSans-73" x="115.144531"/>
      <use xlink:href="#DejaVuSans-73" x="167.244141"/>
     </g>
    </g>
   </g>
   <g id="line2d_32">
    <path d="M 610.679318 147.750967 
L 612.267269 145.747857 
L 613.855219 141.617014 
L 615.443169 150.869267 
L 617.03112 158.536989 
L 618.61907 152.701476 
L 620.207021 154.38098 
L 621.794971 157.089637 
L 623.382921 156.376621 
L 624.970872 155.923476 
L 626.558822 170.493448 
L 628.146773 167.460237 
L 629.734723 165.573505 
L 631.322674 166.930852 
L 632.910624 172.632065 
L 634.498574 180.000019 
L 636.086525 172.974404 
L 637.674475 180.513741 
L 639.262426 180.501512 
L 640.850376 180.258993 
L 642.438326 179.335179 
L 644.026277 185.589744 
L 645.614227 187.601125 
L 647.202178 185.926778 
L 648.790128 183.620416 
L 650.378079 193.811921 
L 651.966029 186.306468 
L 653.553979 194.038123 
L 655.14193 193.501373 
L 656.72988 192.528977 
L 658.317831 196.483683 
L 661.493731 201.014768 
L 663.081682 201.273665 
L 664.669632 200.834733 
L 666.257583 207.384452 
L 667.845533 196.543571 
L 669.433483 214.583048 
L 671.021434 207.731655 
L 672.609384 204.056466 
L 674.197335 206.587693 
L 675.785285 212.786243 
L 677.373236 210.723805 
L 678.961186 214.630542 
L 680.549136 212.385474 
L 682.137087 217.467652 
L 683.725037 214.748706 
L 685.312988 217.345883 
L 686.900938 213.799492 
L 688.488888 220.454878 
L 690.076839 219.367726 
L 691.664789 224.615837 
L 694.84069 217.45976 
L 696.42864 228.25043 
L 698.016591 226.036953 
L 699.604541 229.373961 
L 701.192492 222.037616 
L 702.780442 225.385731 
L 704.368393 224.979279 
L 705.956343 232.345896 
L 707.544293 225.218236 
L 709.132244 233.275221 
L 710.720194 231.722117 
L 712.308145 226.64131 
L 713.896095 237.304097 
L 715.484045 230.641993 
L 717.071996 241.543746 
L 718.659946 237.193722 
L 720.247897 238.192353 
L 721.835847 234.070644 
L 723.423798 244.0738 
L 725.011748 237.569022 
L 726.599698 240.505106 
L 728.187649 238.802531 
L 729.775599 235.499315 
L 731.36355 243.94477 
L 732.9515 240.603088 
L 734.53945 238.149533 
L 736.127401 248.503436 
L 737.715351 245.66762 
L 739.303302 240.638629 
L 740.891252 247.997234 
L 742.479202 244.375068 
L 744.067153 246.795135 
L 745.655103 244.356647 
L 747.243054 251.497863 
L 748.831004 249.245482 
L 750.418955 247.957018 
L 752.006905 250.941493 
L 753.594855 248.871518 
L 755.182806 249.829701 
L 756.770756 251.51582 
L 758.358707 248.089446 
L 759.946657 255.679875 
L 761.534607 249.472873 
L 763.122558 255.05613 
L 764.710508 254.291575 
L 766.298459 252.775728 
L 767.886409 259.198 
L 769.47436 257.527111 
L 771.06231 251.436656 
L 772.65026 265.771056 
L 774.238211 254.084062 
L 775.826161 258.78006 
L 777.414112 256.151226 
L 779.002062 259.009573 
L 780.590012 259.168409 
L 782.177963 257.290759 
L 783.765913 258.84109 
L 785.353864 259.625038 
L 786.941814 262.546344 
L 788.529764 264.594719 
L 790.117715 265.185384 
L 791.705665 262.431095 
L 793.293616 263.72802 
L 794.881566 264.636983 
L 796.469517 260.776973 
L 798.057467 264.806138 
L 799.645417 267.370353 
L 801.233368 265.291836 
L 802.821318 267.300534 
L 804.409269 265.006242 
L 805.997219 268.29939 
L 807.585169 266.345689 
L 809.17312 267.904693 
L 810.76107 266.48092 
L 812.349021 271.316948 
L 813.936971 267.626796 
L 815.524921 267.725749 
L 817.112872 270.274703 
L 818.700822 267.870997 
L 820.288773 269.383821 
L 821.876723 270.266048 
L 823.464674 269.256287 
L 825.052624 272.336403 
L 826.640574 270.556618 
L 828.228525 266.914358 
L 829.816475 263.653336 
L 831.404426 275.699236 
L 832.992376 276.704905 
L 834.580326 271.064834 
L 837.756227 271.215887 
L 839.344178 276.644862 
L 840.932128 272.945098 
L 842.520079 274.706193 
L 844.108029 273.99573 
L 845.695979 276.554943 
L 847.28393 276.22681 
L 848.87188 274.199551 
L 850.459831 277.024966 
L 852.047781 277.767447 
L 853.635731 276.24684 
L 855.223682 274.10758 
L 856.811632 276.804646 
L 858.399583 277.560772 
L 859.987533 280.517722 
L 861.575483 278.923841 
L 863.163434 276.723348 
L 864.751384 279.436542 
L 866.339335 279.179517 
L 867.927285 278.116387 
L 869.515236 278.585328 
L 871.103186 283.226228 
L 872.691136 280.816455 
L 874.279087 280.161753 
L 875.867037 269.541575 
L 877.454988 282.437709 
L 879.042938 286.641498 
L 880.630888 285.089018 
L 882.218839 282.400141 
L 883.806789 282.43498 
L 885.39474 282.856594 
L 886.98269 282.575407 
L 888.57064 283.863685 
L 890.158591 281.92751 
L 891.746541 283.343632 
L 893.334492 279.991511 
L 894.922442 285.438912 
L 896.510393 281.9861 
L 898.098343 287.786408 
L 899.686293 284.48577 
L 901.274244 284.806228 
L 902.862194 285.321938 
L 904.450145 286.369104 
L 906.038095 282.806731 
L 907.626045 285.860137 
L 909.213996 284.67571 
L 910.801946 287.79727 
L 912.389897 286.311462 
L 913.977847 286.526137 
L 915.565798 287.566705 
L 917.153748 286.291617 
L 918.741698 287.79649 
L 920.329649 286.42988 
L 921.917599 291.305231 
L 923.50555 286.853646 
L 925.0935 286.242165 
L 926.68145 288.88767 
L 928.269401 288.408673 
L 929.857351 286.649001 
L 931.445302 285.68538 
L 933.033252 281.348548 
L 934.621202 292.516899 
L 936.209153 288.583663 
L 937.797103 287.257131 
L 939.385054 290.447437 
L 940.973004 291.85791 
L 942.560955 290.935014 
L 944.148905 291.176028 
L 945.736855 290.330149 
L 947.324806 290.846411 
L 948.912756 290.490214 
L 950.500707 289.965801 
L 953.676607 291.510837 
L 956.852508 292.98663 
L 958.440459 291.56132 
L 960.028409 287.865511 
L 961.61636 293.413824 
L 963.20431 291.852274 
L 964.79226 293.389859 
L 966.380211 293.34087 
L 967.968161 292.134513 
L 969.556112 295.481527 
L 971.144062 293.743314 
L 972.732012 294.001667 
L 974.319963 291.203821 
L 975.907913 294.88853 
L 977.495864 293.282828 
L 979.083814 297.276423 
L 980.671764 293.707443 
L 982.259715 293.138241 
L 983.847665 296.076116 
L 985.435616 292.211702 
L 987.023566 295.139057 
L 988.611517 293.74309 
L 990.199467 292.705989 
L 991.787417 295.401106 
L 993.375368 288.71331 
L 994.963318 298.881018 
L 996.551269 296.472946 
L 998.139219 296.299866 
L 999.727169 294.528271 
L 1001.31512 295.773244 
L 1002.90307 297.971684 
L 1004.491021 297.172717 
L 1007.666921 294.132808 
L 1009.254872 297.953422 
L 1010.842822 294.229988 
L 1012.430773 298.141339 
L 1014.018723 296.609024 
L 1015.606674 299.127099 
L 1017.194624 297.72935 
L 1018.782574 297.384393 
L 1020.370525 296.904682 
L 1021.958475 295.923951 
L 1023.546426 299.162379 
L 1025.134376 298.420958 
L 1026.722326 299.966844 
L 1028.310277 296.605876 
L 1029.898227 297.65336 
L 1031.486178 297.963637 
L 1033.074128 299.201799 
L 1034.662079 299.010223 
L 1036.250029 298.000612 
L 1037.837979 297.533474 
L 1039.42593 300.105594 
L 1041.01388 298.224483 
L 1042.601831 295.192563 
L 1044.189781 301.350308 
L 1045.777731 299.269734 
L 1047.365682 296.542357 
L 1047.365682 296.542357 
" clip-path="url(#p06fa2673e3)" style="fill: none; stroke: #1f77b4; stroke-width: 1.5; stroke-linecap: square"/>
   </g>
   <g id="line2d_33">
    <path d="M 610.679318 151.770779 
L 612.267269 39.672727 
L 613.855219 164.597772 
L 615.443169 170.671215 
L 618.61907 191.231544 
L 620.207021 165.366898 
L 621.794971 123.085514 
L 623.382921 188.468846 
L 624.970872 159.201708 
L 626.558822 183.437733 
L 628.146773 115.526133 
L 631.322674 199.634118 
L 632.910624 204.761298 
L 634.498574 193.903426 
L 636.086525 88.642115 
L 637.674475 102.257708 
L 639.262426 181.954952 
L 640.850376 216.315014 
L 642.438326 161.163093 
L 644.026277 199.884994 
L 645.614227 147.333545 
L 647.202178 172.077825 
L 648.790128 200.666816 
L 650.378079 163.68736 
L 651.966029 233.383742 
L 653.553979 193.134067 
L 655.14193 195.518747 
L 656.72988 126.501012 
L 658.317831 183.953008 
L 659.905781 224.493784 
L 661.493731 163.945247 
L 663.081682 204.962195 
L 664.669632 224.168988 
L 666.257583 211.009774 
L 667.845533 194.103056 
L 669.433483 164.017382 
L 671.021434 166.116706 
L 672.609384 239.90576 
L 674.197335 229.00098 
L 675.785285 193.726875 
L 677.373236 203.009228 
L 678.961186 219.808848 
L 680.549136 152.513929 
L 682.137087 214.830353 
L 683.725037 111.192547 
L 685.312988 199.956059 
L 686.900938 132.67976 
L 688.488888 212.342085 
L 690.076839 259.338328 
L 691.664789 224.34008 
L 693.25274 242.407094 
L 694.84069 243.136756 
L 696.42864 204.96743 
L 698.016591 239.240575 
L 699.604541 210.279656 
L 701.192492 215.064756 
L 702.780442 202.005361 
L 704.368393 254.311713 
L 705.956343 82.84724 
L 707.544293 235.570604 
L 709.132244 216.24676 
L 710.720194 223.650738 
L 712.308145 192.676472 
L 713.896095 228.792364 
L 715.484045 255.463824 
L 717.071996 182.497205 
L 718.659946 193.545711 
L 720.247897 249.96726 
L 721.835847 254.108099 
L 723.423798 202.067638 
L 725.011748 232.794918 
L 726.599698 271.232972 
L 728.187649 242.526965 
L 729.775599 254.059397 
L 731.36355 240.510832 
L 732.9515 219.679456 
L 734.53945 187.432646 
L 736.127401 257.703498 
L 737.715351 243.086415 
L 739.303302 255.096544 
L 740.891252 244.3044 
L 742.479202 268.695669 
L 744.067153 231.36334 
L 745.655103 249.633693 
L 747.243054 245.153846 
L 748.831004 244.440804 
L 750.418955 237.656371 
L 752.006905 247.688031 
L 753.594855 237.544771 
L 755.182806 257.819354 
L 756.770756 226.48018 
L 758.358707 174.945706 
L 759.946657 211.755046 
L 761.534607 268.012179 
L 763.122558 276.485849 
L 764.710508 250.072763 
L 767.886409 244.828937 
L 769.47436 236.882587 
L 771.06231 254.108582 
L 772.65026 231.30522 
L 774.238211 222.769502 
L 775.826161 251.174327 
L 777.414112 262.388887 
L 779.002062 287.629361 
L 780.590012 269.738212 
L 782.177963 241.323978 
L 783.765913 274.217438 
L 785.353864 212.942776 
L 786.941814 267.808923 
L 788.529764 255.735235 
L 790.117715 273.81049 
L 791.705665 217.984859 
L 793.293616 283.257172 
L 794.881566 234.879494 
L 796.469517 252.527086 
L 798.057467 283.515418 
L 799.645417 271.23706 
L 801.233368 227.215568 
L 802.821318 273.523275 
L 804.409269 287.331745 
L 805.997219 246.634419 
L 809.17312 285.686929 
L 810.76107 286.356723 
L 812.349021 276.185076 
L 813.936971 287.709111 
L 815.524921 248.876831 
L 818.700822 284.896215 
L 820.288773 284.679332 
L 821.876723 283.074554 
L 823.464674 261.587273 
L 825.052624 254.384089 
L 826.640574 286.727992 
L 828.228525 286.745469 
L 829.816475 270.735834 
L 831.404426 275.774381 
L 832.992376 285.997115 
L 834.580326 282.457395 
L 836.168277 264.569324 
L 837.756227 275.257182 
L 839.344178 269.704753 
L 840.932128 300.51511 
L 842.520079 267.380496 
L 844.108029 238.3878 
L 845.695979 270.443229 
L 847.28393 268.291671 
L 848.87188 287.126868 
L 850.459831 258.679007 
L 852.047781 258.892009 
L 853.635731 153.60466 
L 855.223682 281.856656 
L 856.811632 275.237402 
L 858.399583 284.305235 
L 859.987533 259.029482 
L 861.575483 287.050037 
L 863.163434 297.210237 
L 864.751384 277.441578 
L 866.339335 271.368324 
L 867.927285 279.005079 
L 869.515236 301.352072 
L 871.103186 289.113587 
L 872.691136 295.748543 
L 874.279087 293.071098 
L 875.867037 291.476961 
L 877.454988 272.865719 
L 879.042938 287.85285 
L 880.630888 265.890073 
L 882.218839 274.791769 
L 883.806789 277.324674 
L 885.39474 276.67114 
L 886.98269 307.8446 
L 888.57064 285.520533 
L 890.158591 267.738797 
L 891.746541 276.810977 
L 893.334492 245.549759 
L 894.922442 284.241793 
L 896.510393 274.018477 
L 898.098343 276.312925 
L 899.686293 299.185038 
L 901.274244 295.542818 
L 902.862194 290.319562 
L 904.450145 267.104264 
L 906.038095 275.186548 
L 907.626045 296.883848 
L 909.213996 231.239554 
L 910.801946 241.829585 
L 912.389897 271.997221 
L 913.977847 289.974154 
L 915.565798 274.323704 
L 917.153748 295.518575 
L 918.741698 286.322006 
L 920.329649 297.623043 
L 923.50555 271.931464 
L 925.0935 305.917571 
L 926.68145 275.898258 
L 928.269401 253.81699 
L 929.857351 282.09673 
L 931.445302 298.92121 
L 933.033252 308.017628 
L 934.621202 278.166465 
L 936.209153 302.501251 
L 937.797103 296.215849 
L 939.385054 307.921571 
L 940.973004 308.509434 
L 944.148905 296.702804 
L 945.736855 277.21118 
L 947.324806 278.583646 
L 948.912756 274.064174 
L 950.500707 203.741614 
L 952.088657 298.454867 
L 953.676607 300.658623 
L 955.264558 291.009689 
L 956.852508 286.293304 
L 958.440459 283.621369 
L 960.028409 289.717232 
L 961.61636 264.918682 
L 963.20431 302.983243 
L 964.79226 307.772632 
L 966.380211 293.155425 
L 967.968161 309.927273 
L 969.556112 297.797557 
L 971.144062 287.756399 
L 972.732012 194.309861 
L 974.319963 276.155762 
L 975.907913 271.195727 
L 977.495864 302.996563 
L 979.083814 302.37546 
L 980.671764 294.976394 
L 982.259715 300.443663 
L 983.847665 295.877444 
L 985.435616 301.374769 
L 987.023566 301.251819 
L 988.611517 293.712837 
L 990.199467 306.394379 
L 991.787417 300.720945 
L 993.375368 301.905256 
L 994.963318 299.691371 
L 996.551269 304.552923 
L 998.139219 297.134569 
L 999.727169 301.039646 
L 1001.31512 300.209432 
L 1002.90307 304.595487 
L 1004.491021 295.218341 
L 1006.078971 293.899328 
L 1007.666921 267.955357 
L 1009.254872 304.224444 
L 1010.842822 292.623415 
L 1012.430773 279.227982 
L 1015.606674 308.873057 
L 1017.194624 306.88515 
L 1018.782574 299.278444 
L 1020.370525 283.073589 
L 1021.958475 309.728684 
L 1023.546426 297.781491 
L 1025.134376 299.503613 
L 1026.722326 273.754656 
L 1028.310277 299.567919 
L 1029.898227 305.273762 
L 1031.486178 267.477779 
L 1033.074128 295.323339 
L 1034.662079 296.67192 
L 1036.250029 273.893686 
L 1037.837979 298.184625 
L 1041.01388 283.308889 
L 1042.601831 302.513696 
L 1044.189781 299.889847 
L 1045.777731 295.616702 
L 1047.365682 302.104275 
L 1047.365682 302.104275 
" clip-path="url(#p06fa2673e3)" style="fill: none; stroke: #ff7f0e; stroke-width: 1.5; stroke-linecap: square"/>
   </g>
   <g id="patch_9">
    <path d="M 588.845 323.44 
L 588.845 26.16 
" style="fill: none; stroke: #000000; stroke-width: 0.8; stroke-linejoin: miter; stroke-linecap: square"/>
   </g>
   <g id="patch_10">
    <path d="M 1069.2 323.44 
L 1069.2 26.16 
" style="fill: none; stroke: #000000; stroke-width: 0.8; stroke-linejoin: miter; stroke-linecap: square"/>
   </g>
   <g id="patch_11">
    <path d="M 588.845 323.44 
L 1069.2 323.44 
" style="fill: none; stroke: #000000; stroke-width: 0.8; stroke-linejoin: miter; stroke-linecap: square"/>
   </g>
   <g id="patch_12">
    <path d="M 588.845 26.16 
L 1069.2 26.16 
" style="fill: none; stroke: #000000; stroke-width: 0.8; stroke-linejoin: miter; stroke-linecap: square"/>
   </g>
   <g id="text_35">
    <!-- Training and Validation Loss (Skip first 50) -->
    <g transform="translate(703.032812 20.16) scale(0.12 -0.12)">
     <defs>
      <path id="DejaVuSans-28" d="M 1984 4856 
Q 1566 4138 1362 3434 
Q 1159 2731 1159 2009 
Q 1159 1288 1364 580 
Q 1569 -128 1984 -844 
L 1484 -844 
Q 1016 -109 783 600 
Q 550 1309 550 2009 
Q 550 2706 781 3412 
Q 1013 4119 1484 4856 
L 1984 4856 
z
" transform="scale(0.015625)"/>
      <path id="DejaVuSans-53" d="M 3425 4513 
L 3425 3897 
Q 3066 4069 2747 4153 
Q 2428 4238 2131 4238 
Q 1616 4238 1336 4038 
Q 1056 3838 1056 3469 
Q 1056 3159 1242 3001 
Q 1428 2844 1947 2747 
L 2328 2669 
Q 3034 2534 3370 2195 
Q 3706 1856 3706 1288 
Q 3706 609 3251 259 
Q 2797 -91 1919 -91 
Q 1588 -91 1214 -16 
Q 841 59 441 206 
L 441 856 
Q 825 641 1194 531 
Q 1563 422 1919 422 
Q 2459 422 2753 634 
Q 3047 847 3047 1241 
Q 3047 1584 2836 1778 
Q 2625 1972 2144 2069 
L 1759 2144 
Q 1053 2284 737 2584 
Q 422 2884 422 3419 
Q 422 4038 858 4394 
Q 1294 4750 2059 4750 
Q 2388 4750 2728 4690 
Q 3069 4631 3425 4513 
z
" transform="scale(0.015625)"/>
      <path id="DejaVuSans-6b" d="M 581 4863 
L 1159 4863 
L 1159 1991 
L 2875 3500 
L 3609 3500 
L 1753 1863 
L 3688 0 
L 2938 0 
L 1159 1709 
L 1159 0 
L 581 0 
L 581 4863 
z
" transform="scale(0.015625)"/>
      <path id="DejaVuSans-66" d="M 2375 4863 
L 2375 4384 
L 1825 4384 
Q 1516 4384 1395 4259 
Q 1275 4134 1275 3809 
L 1275 3500 
L 2222 3500 
L 2222 3053 
L 1275 3053 
L 1275 0 
L 697 0 
L 697 3053 
L 147 3053 
L 147 3500 
L 697 3500 
L 697 3744 
Q 697 4328 969 4595 
Q 1241 4863 1831 4863 
L 2375 4863 
z
" transform="scale(0.015625)"/>
      <path id="DejaVuSans-29" d="M 513 4856 
L 1013 4856 
Q 1481 4119 1714 3412 
Q 1947 2706 1947 2009 
Q 1947 1309 1714 600 
Q 1481 -109 1013 -844 
L 513 -844 
Q 928 -128 1133 580 
Q 1338 1288 1338 2009 
Q 1338 2731 1133 3434 
Q 928 4138 513 4856 
z
" transform="scale(0.015625)"/>
     </defs>
     <use xlink:href="#DejaVuSans-54"/>
     <use xlink:href="#DejaVuSans-72" x="46.333984"/>
     <use xlink:href="#DejaVuSans-61" x="87.447266"/>
     <use xlink:href="#DejaVuSans-69" x="148.726562"/>
     <use xlink:href="#DejaVuSans-6e" x="176.509766"/>
     <use xlink:href="#DejaVuSans-69" x="239.888672"/>
     <use xlink:href="#DejaVuSans-6e" x="267.671875"/>
     <use xlink:href="#DejaVuSans-67" x="331.050781"/>
     <use xlink:href="#DejaVuSans-20" x="394.527344"/>
     <use xlink:href="#DejaVuSans-61" x="426.314453"/>
     <use xlink:href="#DejaVuSans-6e" x="487.59375"/>
     <use xlink:href="#DejaVuSans-64" x="550.972656"/>
     <use xlink:href="#DejaVuSans-20" x="614.449219"/>
     <use xlink:href="#DejaVuSans-56" x="646.236328"/>
     <use xlink:href="#DejaVuSans-61" x="706.894531"/>
     <use xlink:href="#DejaVuSans-6c" x="768.173828"/>
     <use xlink:href="#DejaVuSans-69" x="795.957031"/>
     <use xlink:href="#DejaVuSans-64" x="823.740234"/>
     <use xlink:href="#DejaVuSans-61" x="887.216797"/>
     <use xlink:href="#DejaVuSans-74" x="948.496094"/>
     <use xlink:href="#DejaVuSans-69" x="987.705078"/>
     <use xlink:href="#DejaVuSans-6f" x="1015.488281"/>
     <use xlink:href="#DejaVuSans-6e" x="1076.669922"/>
     <use xlink:href="#DejaVuSans-20" x="1140.048828"/>
     <use xlink:href="#DejaVuSans-4c" x="1171.835938"/>
     <use xlink:href="#DejaVuSans-6f" x="1225.798828"/>
     <use xlink:href="#DejaVuSans-73" x="1286.980469"/>
     <use xlink:href="#DejaVuSans-73" x="1339.080078"/>
     <use xlink:href="#DejaVuSans-20" x="1391.179688"/>
     <use xlink:href="#DejaVuSans-28" x="1422.966797"/>
     <use xlink:href="#DejaVuSans-53" x="1461.980469"/>
     <use xlink:href="#DejaVuSans-6b" x="1525.457031"/>
     <use xlink:href="#DejaVuSans-69" x="1583.367188"/>
     <use xlink:href="#DejaVuSans-70" x="1611.150391"/>
     <use xlink:href="#DejaVuSans-20" x="1674.626953"/>
     <use xlink:href="#DejaVuSans-66" x="1706.414062"/>
     <use xlink:href="#DejaVuSans-69" x="1741.619141"/>
     <use xlink:href="#DejaVuSans-72" x="1769.402344"/>
     <use xlink:href="#DejaVuSans-73" x="1810.515625"/>
     <use xlink:href="#DejaVuSans-74" x="1862.615234"/>
     <use xlink:href="#DejaVuSans-20" x="1901.824219"/>
     <use xlink:href="#DejaVuSans-35" x="1933.611328"/>
     <use xlink:href="#DejaVuSans-30" x="1997.234375"/>
     <use xlink:href="#DejaVuSans-29" x="2060.857422"/>
    </g>
   </g>
   <g id="legend_2">
    <g id="patch_13">
     <path d="M 958.325 63.51625 
L 1062.2 63.51625 
Q 1064.2 63.51625 1064.2 61.51625 
L 1064.2 33.16 
Q 1064.2 31.16 1062.2 31.16 
L 958.325 31.16 
Q 956.325 31.16 956.325 33.16 
L 956.325 61.51625 
Q 956.325 63.51625 958.325 63.51625 
z
" style="fill: #ffffff; opacity: 0.8; stroke: #cccccc; stroke-linejoin: miter"/>
    </g>
    <g id="line2d_34">
     <path d="M 960.325 39.258438 
L 970.325 39.258438 
L 980.325 39.258438 
" style="fill: none; stroke: #1f77b4; stroke-width: 1.5; stroke-linecap: square"/>
    </g>
    <g id="text_36">
     <!-- Training loss -->
     <g transform="translate(988.325 42.758438) scale(0.1 -0.1)">
      <use xlink:href="#DejaVuSans-54"/>
      <use xlink:href="#DejaVuSans-72" x="46.333984"/>
      <use xlink:href="#DejaVuSans-61" x="87.447266"/>
      <use xlink:href="#DejaVuSans-69" x="148.726562"/>
      <use xlink:href="#DejaVuSans-6e" x="176.509766"/>
      <use xlink:href="#DejaVuSans-69" x="239.888672"/>
      <use xlink:href="#DejaVuSans-6e" x="267.671875"/>
      <use xlink:href="#DejaVuSans-67" x="331.050781"/>
      <use xlink:href="#DejaVuSans-20" x="394.527344"/>
      <use xlink:href="#DejaVuSans-6c" x="426.314453"/>
      <use xlink:href="#DejaVuSans-6f" x="454.097656"/>
      <use xlink:href="#DejaVuSans-73" x="515.279297"/>
      <use xlink:href="#DejaVuSans-73" x="567.378906"/>
     </g>
    </g>
    <g id="line2d_35">
     <path d="M 960.325 53.936563 
L 970.325 53.936563 
L 980.325 53.936563 
" style="fill: none; stroke: #ff7f0e; stroke-width: 1.5; stroke-linecap: square"/>
    </g>
    <g id="text_37">
     <!-- Validation loss -->
     <g transform="translate(988.325 57.436563) scale(0.1 -0.1)">
      <use xlink:href="#DejaVuSans-56"/>
      <use xlink:href="#DejaVuSans-61" x="60.658203"/>
      <use xlink:href="#DejaVuSans-6c" x="121.9375"/>
      <use xlink:href="#DejaVuSans-69" x="149.720703"/>
      <use xlink:href="#DejaVuSans-64" x="177.503906"/>
      <use xlink:href="#DejaVuSans-61" x="240.980469"/>
      <use xlink:href="#DejaVuSans-74" x="302.259766"/>
      <use xlink:href="#DejaVuSans-69" x="341.46875"/>
      <use xlink:href="#DejaVuSans-6f" x="369.251953"/>
      <use xlink:href="#DejaVuSans-6e" x="430.433594"/>
      <use xlink:href="#DejaVuSans-20" x="493.8125"/>
      <use xlink:href="#DejaVuSans-6c" x="525.599609"/>
      <use xlink:href="#DejaVuSans-6f" x="553.382812"/>
      <use xlink:href="#DejaVuSans-73" x="614.564453"/>
      <use xlink:href="#DejaVuSans-73" x="666.664062"/>
     </g>
    </g>
   </g>
  </g>
  <g id="axes_3">
   <g id="patch_14">
    <path d="M 54.245 678.04 
L 534.6 678.04 
L 534.6 380.76 
L 54.245 380.76 
z
" style="fill: #ffffff"/>
   </g>
   <g id="matplotlib.axis_5">
    <g id="xtick_14">
     <g id="line2d_36">
      <g>
       <use xlink:href="#m8dfa2fbbf9" x="74.491368" y="678.04" style="stroke: #000000; stroke-width: 0.8"/>
      </g>
     </g>
     <g id="text_38">
      <!-- 50 -->
      <g transform="translate(68.128868 692.638438) scale(0.1 -0.1)">
       <use xlink:href="#DejaVuSans-35"/>
       <use xlink:href="#DejaVuSans-30" x="63.623047"/>
      </g>
     </g>
    </g>
    <g id="xtick_15">
     <g id="line2d_37">
      <g>
       <use xlink:href="#m8dfa2fbbf9" x="153.888888" y="678.04" style="stroke: #000000; stroke-width: 0.8"/>
      </g>
     </g>
     <g id="text_39">
      <!-- 100 -->
      <g transform="translate(144.345138 692.638438) scale(0.1 -0.1)">
       <use xlink:href="#DejaVuSans-31"/>
       <use xlink:href="#DejaVuSans-30" x="63.623047"/>
       <use xlink:href="#DejaVuSans-30" x="127.246094"/>
      </g>
     </g>
    </g>
    <g id="xtick_16">
     <g id="line2d_38">
      <g>
       <use xlink:href="#m8dfa2fbbf9" x="233.286409" y="678.04" style="stroke: #000000; stroke-width: 0.8"/>
      </g>
     </g>
     <g id="text_40">
      <!-- 150 -->
      <g transform="translate(223.742659 692.638438) scale(0.1 -0.1)">
       <use xlink:href="#DejaVuSans-31"/>
       <use xlink:href="#DejaVuSans-35" x="63.623047"/>
       <use xlink:href="#DejaVuSans-30" x="127.246094"/>
      </g>
     </g>
    </g>
    <g id="xtick_17">
     <g id="line2d_39">
      <g>
       <use xlink:href="#m8dfa2fbbf9" x="312.68393" y="678.04" style="stroke: #000000; stroke-width: 0.8"/>
      </g>
     </g>
     <g id="text_41">
      <!-- 200 -->
      <g transform="translate(303.14018 692.638438) scale(0.1 -0.1)">
       <use xlink:href="#DejaVuSans-32"/>
       <use xlink:href="#DejaVuSans-30" x="63.623047"/>
       <use xlink:href="#DejaVuSans-30" x="127.246094"/>
      </g>
     </g>
    </g>
    <g id="xtick_18">
     <g id="line2d_40">
      <g>
       <use xlink:href="#m8dfa2fbbf9" x="392.08145" y="678.04" style="stroke: #000000; stroke-width: 0.8"/>
      </g>
     </g>
     <g id="text_42">
      <!-- 250 -->
      <g transform="translate(382.5377 692.638438) scale(0.1 -0.1)">
       <use xlink:href="#DejaVuSans-32"/>
       <use xlink:href="#DejaVuSans-35" x="63.623047"/>
       <use xlink:href="#DejaVuSans-30" x="127.246094"/>
      </g>
     </g>
    </g>
    <g id="xtick_19">
     <g id="line2d_41">
      <g>
       <use xlink:href="#m8dfa2fbbf9" x="471.478971" y="678.04" style="stroke: #000000; stroke-width: 0.8"/>
      </g>
     </g>
     <g id="text_43">
      <!-- 300 -->
      <g transform="translate(461.935221 692.638438) scale(0.1 -0.1)">
       <use xlink:href="#DejaVuSans-33"/>
       <use xlink:href="#DejaVuSans-30" x="63.623047"/>
       <use xlink:href="#DejaVuSans-30" x="127.246094"/>
      </g>
     </g>
    </g>
    <g id="text_44">
     <!-- Epochs -->
     <g transform="translate(276.506875 706.316563) scale(0.1 -0.1)">
      <use xlink:href="#DejaVuSans-45"/>
      <use xlink:href="#DejaVuSans-70" x="63.183594"/>
      <use xlink:href="#DejaVuSans-6f" x="126.660156"/>
      <use xlink:href="#DejaVuSans-63" x="187.841797"/>
      <use xlink:href="#DejaVuSans-68" x="242.822266"/>
      <use xlink:href="#DejaVuSans-73" x="306.201172"/>
     </g>
    </g>
   </g>
   <g id="matplotlib.axis_6">
    <g id="ytick_15">
     <g id="line2d_42">
      <g>
       <use xlink:href="#m9b1a146d36" x="54.245" y="669.154348" style="stroke: #000000; stroke-width: 0.8"/>
      </g>
     </g>
     <g id="text_45">
      <!-- 0.04 -->
      <g transform="translate(24.979375 672.953567) scale(0.1 -0.1)">
       <use xlink:href="#DejaVuSans-30"/>
       <use xlink:href="#DejaVuSans-2e" x="63.623047"/>
       <use xlink:href="#DejaVuSans-30" x="95.410156"/>
       <use xlink:href="#DejaVuSans-34" x="159.033203"/>
      </g>
     </g>
    </g>
    <g id="ytick_16">
     <g id="line2d_43">
      <g>
       <use xlink:href="#m9b1a146d36" x="54.245" y="631.669676" style="stroke: #000000; stroke-width: 0.8"/>
      </g>
     </g>
     <g id="text_46">
      <!-- 0.06 -->
      <g transform="translate(24.979375 635.468894) scale(0.1 -0.1)">
       <use xlink:href="#DejaVuSans-30"/>
       <use xlink:href="#DejaVuSans-2e" x="63.623047"/>
       <use xlink:href="#DejaVuSans-30" x="95.410156"/>
       <use xlink:href="#DejaVuSans-36" x="159.033203"/>
      </g>
     </g>
    </g>
    <g id="ytick_17">
     <g id="line2d_44">
      <g>
       <use xlink:href="#m9b1a146d36" x="54.245" y="594.185004" style="stroke: #000000; stroke-width: 0.8"/>
      </g>
     </g>
     <g id="text_47">
      <!-- 0.08 -->
      <g transform="translate(24.979375 597.984222) scale(0.1 -0.1)">
       <defs>
        <path id="DejaVuSans-38" d="M 2034 2216 
Q 1584 2216 1326 1975 
Q 1069 1734 1069 1313 
Q 1069 891 1326 650 
Q 1584 409 2034 409 
Q 2484 409 2743 651 
Q 3003 894 3003 1313 
Q 3003 1734 2745 1975 
Q 2488 2216 2034 2216 
z
M 1403 2484 
Q 997 2584 770 2862 
Q 544 3141 544 3541 
Q 544 4100 942 4425 
Q 1341 4750 2034 4750 
Q 2731 4750 3128 4425 
Q 3525 4100 3525 3541 
Q 3525 3141 3298 2862 
Q 3072 2584 2669 2484 
Q 3125 2378 3379 2068 
Q 3634 1759 3634 1313 
Q 3634 634 3220 271 
Q 2806 -91 2034 -91 
Q 1263 -91 848 271 
Q 434 634 434 1313 
Q 434 1759 690 2068 
Q 947 2378 1403 2484 
z
M 1172 3481 
Q 1172 3119 1398 2916 
Q 1625 2713 2034 2713 
Q 2441 2713 2670 2916 
Q 2900 3119 2900 3481 
Q 2900 3844 2670 4047 
Q 2441 4250 2034 4250 
Q 1625 4250 1398 4047 
Q 1172 3844 1172 3481 
z
" transform="scale(0.015625)"/>
       </defs>
       <use xlink:href="#DejaVuSans-30"/>
       <use xlink:href="#DejaVuSans-2e" x="63.623047"/>
       <use xlink:href="#DejaVuSans-30" x="95.410156"/>
       <use xlink:href="#DejaVuSans-38" x="159.033203"/>
      </g>
     </g>
    </g>
    <g id="ytick_18">
     <g id="line2d_45">
      <g>
       <use xlink:href="#m9b1a146d36" x="54.245" y="556.700331" style="stroke: #000000; stroke-width: 0.8"/>
      </g>
     </g>
     <g id="text_48">
      <!-- 0.10 -->
      <g transform="translate(24.979375 560.49955) scale(0.1 -0.1)">
       <use xlink:href="#DejaVuSans-30"/>
       <use xlink:href="#DejaVuSans-2e" x="63.623047"/>
       <use xlink:href="#DejaVuSans-31" x="95.410156"/>
       <use xlink:href="#DejaVuSans-30" x="159.033203"/>
      </g>
     </g>
    </g>
    <g id="ytick_19">
     <g id="line2d_46">
      <g>
       <use xlink:href="#m9b1a146d36" x="54.245" y="519.215659" style="stroke: #000000; stroke-width: 0.8"/>
      </g>
     </g>
     <g id="text_49">
      <!-- 0.12 -->
      <g transform="translate(24.979375 523.014878) scale(0.1 -0.1)">
       <use xlink:href="#DejaVuSans-30"/>
       <use xlink:href="#DejaVuSans-2e" x="63.623047"/>
       <use xlink:href="#DejaVuSans-31" x="95.410156"/>
       <use xlink:href="#DejaVuSans-32" x="159.033203"/>
      </g>
     </g>
    </g>
    <g id="ytick_20">
     <g id="line2d_47">
      <g>
       <use xlink:href="#m9b1a146d36" x="54.245" y="481.730987" style="stroke: #000000; stroke-width: 0.8"/>
      </g>
     </g>
     <g id="text_50">
      <!-- 0.14 -->
      <g transform="translate(24.979375 485.530206) scale(0.1 -0.1)">
       <use xlink:href="#DejaVuSans-30"/>
       <use xlink:href="#DejaVuSans-2e" x="63.623047"/>
       <use xlink:href="#DejaVuSans-31" x="95.410156"/>
       <use xlink:href="#DejaVuSans-34" x="159.033203"/>
      </g>
     </g>
    </g>
    <g id="ytick_21">
     <g id="line2d_48">
      <g>
       <use xlink:href="#m9b1a146d36" x="54.245" y="444.246315" style="stroke: #000000; stroke-width: 0.8"/>
      </g>
     </g>
     <g id="text_51">
      <!-- 0.16 -->
      <g transform="translate(24.979375 448.045534) scale(0.1 -0.1)">
       <use xlink:href="#DejaVuSans-30"/>
       <use xlink:href="#DejaVuSans-2e" x="63.623047"/>
       <use xlink:href="#DejaVuSans-31" x="95.410156"/>
       <use xlink:href="#DejaVuSans-36" x="159.033203"/>
      </g>
     </g>
    </g>
    <g id="ytick_22">
     <g id="line2d_49">
      <g>
       <use xlink:href="#m9b1a146d36" x="54.245" y="406.761643" style="stroke: #000000; stroke-width: 0.8"/>
      </g>
     </g>
     <g id="text_52">
      <!-- 0.18 -->
      <g transform="translate(24.979375 410.560862) scale(0.1 -0.1)">
       <use xlink:href="#DejaVuSans-30"/>
       <use xlink:href="#DejaVuSans-2e" x="63.623047"/>
       <use xlink:href="#DejaVuSans-31" x="95.410156"/>
       <use xlink:href="#DejaVuSans-38" x="159.033203"/>
      </g>
     </g>
    </g>
    <g id="text_53">
     <!-- MAE -->
     <g transform="translate(18.899687 540.29375) rotate(-90) scale(0.1 -0.1)">
      <defs>
       <path id="DejaVuSans-4d" d="M 628 4666 
L 1569 4666 
L 2759 1491 
L 3956 4666 
L 4897 4666 
L 4897 0 
L 4281 0 
L 4281 4097 
L 3078 897 
L 2444 897 
L 1241 4097 
L 1241 0 
L 628 0 
L 628 4666 
z
" transform="scale(0.015625)"/>
       <path id="DejaVuSans-41" d="M 2188 4044 
L 1331 1722 
L 3047 1722 
L 2188 4044 
z
M 1831 4666 
L 2547 4666 
L 4325 0 
L 3669 0 
L 3244 1197 
L 1141 1197 
L 716 0 
L 50 0 
L 1831 4666 
z
" transform="scale(0.015625)"/>
      </defs>
      <use xlink:href="#DejaVuSans-4d"/>
      <use xlink:href="#DejaVuSans-41" x="86.279297"/>
      <use xlink:href="#DejaVuSans-45" x="154.6875"/>
     </g>
    </g>
   </g>
   <g id="line2d_50">
    <path d="M 76.079318 492.202463 
L 77.667269 489.61611 
L 79.255219 486.067434 
L 80.843169 487.893496 
L 82.43112 495.423931 
L 84.01907 490.877071 
L 87.194971 495.959037 
L 88.782921 497.461605 
L 90.370872 492.807752 
L 91.958822 504.68212 
L 93.546773 498.673524 
L 95.134723 503.88287 
L 96.722674 502.740269 
L 98.310624 504.594789 
L 99.898574 510.198217 
L 101.486525 504.329945 
L 103.074475 511.186221 
L 104.662426 509.177118 
L 106.250376 511.010733 
L 107.838326 509.130533 
L 109.426277 515.284287 
L 111.014227 517.54279 
L 112.602178 518.231808 
L 114.190128 514.11528 
L 115.778079 520.68099 
L 117.366029 517.698783 
L 118.953979 527.37901 
L 120.54193 521.54199 
L 122.12988 521.130859 
L 123.717831 523.812544 
L 125.305781 528.202531 
L 126.893731 527.035353 
L 128.481682 527.098289 
L 130.069632 530.738654 
L 131.657583 533.879172 
L 133.245533 525.685901 
L 134.833483 540.869824 
L 136.421434 533.41918 
L 138.009384 533.252965 
L 139.597335 534.447163 
L 141.185285 540.374559 
L 142.773236 534.905298 
L 144.361186 537.91785 
L 145.949136 536.330477 
L 147.537087 543.657456 
L 149.125037 540.721609 
L 150.712988 543.338333 
L 152.300938 539.976204 
L 153.888888 544.906491 
L 155.476839 543.041931 
L 157.064789 547.169392 
L 158.65274 544.345999 
L 160.24069 543.66811 
L 161.82864 551.618084 
L 163.416591 546.535867 
L 165.004541 556.175836 
L 166.592492 549.599262 
L 168.180442 547.961186 
L 169.768393 553.639294 
L 171.356343 554.931088 
L 172.944293 550.639338 
L 174.532244 555.872312 
L 176.120194 555.912724 
L 177.708145 551.234252 
L 179.296095 560.305462 
L 180.884045 552.82552 
L 182.471996 563.921249 
L 184.059946 560.168962 
L 185.647897 564.201565 
L 187.235847 557.19491 
L 188.823798 569.530612 
L 190.411748 564.578206 
L 191.999698 566.897284 
L 193.587649 562.588429 
L 195.175599 564.18587 
L 196.76355 565.14716 
L 198.3515 563.985037 
L 199.93945 564.859569 
L 201.527401 572.454072 
L 203.115351 569.122301 
L 204.703302 563.317887 
L 206.291252 571.098518 
L 207.879202 569.299184 
L 209.467153 570.316318 
L 211.055103 570.084695 
L 212.643054 574.961666 
L 214.231004 573.070463 
L 215.818955 571.889921 
L 217.406905 575.731285 
L 218.994855 572.23154 
L 220.582806 576.473926 
L 222.170756 574.147697 
L 223.758707 574.994342 
L 225.346657 580.425774 
L 226.934607 575.647975 
L 228.522558 573.96999 
L 230.110508 577.104602 
L 231.698459 575.258181 
L 233.286409 586.779732 
L 234.87436 583.446425 
L 236.46231 575.8237 
L 238.05026 588.875119 
L 239.638211 578.894468 
L 241.226161 581.300278 
L 242.814112 584.239001 
L 245.990012 585.924108 
L 247.577963 581.073067 
L 249.165913 592.878705 
L 250.753864 583.914321 
L 252.341814 587.607358 
L 255.517715 588.855095 
L 257.105665 587.380357 
L 258.693616 586.212048 
L 260.281566 589.365232 
L 261.869517 590.30101 
L 263.457467 589.98799 
L 265.045417 592.944168 
L 266.633368 589.438725 
L 268.221318 594.413949 
L 269.809269 591.044028 
L 271.397219 595.841153 
L 272.985169 592.920723 
L 274.57312 597.763901 
L 276.16107 592.597593 
L 277.749021 599.371075 
L 279.336971 590.80714 
L 280.924921 596.768147 
L 282.512872 597.899507 
L 284.100822 597.87715 
L 285.688773 599.081515 
L 287.276723 596.863229 
L 288.864674 600.652758 
L 290.452624 600.225358 
L 292.040574 598.713434 
L 293.628525 604.1099 
L 295.216475 595.415372 
L 296.804426 604.890201 
L 298.392376 604.508422 
L 299.980326 600.524358 
L 301.568277 602.970036 
L 303.156227 597.930074 
L 304.744178 606.844216 
L 306.332128 601.873321 
L 307.920079 603.526353 
L 309.508029 602.859915 
L 311.095979 603.783446 
L 312.68393 603.633653 
L 314.27188 605.934704 
L 315.859831 604.469727 
L 317.447781 606.370133 
L 319.035731 609.373035 
L 320.623682 609.587231 
L 322.211632 607.316776 
L 323.799583 606.360624 
L 325.387533 609.858429 
L 326.975483 608.123372 
L 328.563434 606.586857 
L 330.151384 607.913616 
L 331.739335 608.953288 
L 333.327285 611.747873 
L 334.915236 608.175877 
L 336.503186 613.791439 
L 338.091136 609.251492 
L 339.679087 612.90846 
L 341.267037 609.702854 
L 342.854988 616.463378 
L 344.442938 618.155411 
L 346.030888 614.696887 
L 347.618839 610.798675 
L 349.206789 611.003194 
L 350.79474 613.473504 
L 352.38269 616.678732 
L 353.97064 617.122317 
L 355.558591 612.723058 
L 357.146541 612.788633 
L 358.734492 616.961674 
L 360.322442 618.014331 
L 361.910393 612.061898 
L 363.498343 621.415602 
L 365.086293 620.638205 
L 366.674244 613.90036 
L 368.262194 615.090536 
L 369.850145 619.619983 
L 371.438095 616.352377 
L 373.026045 618.364691 
L 374.613996 620.715399 
L 376.201946 618.838522 
L 377.789897 619.837907 
L 379.377847 621.257682 
L 380.965798 619.657714 
L 382.553748 618.489587 
L 384.141698 620.005491 
L 385.729649 617.895176 
L 387.317599 624.362871 
L 388.90555 622.769927 
L 390.4935 622.477099 
L 392.08145 622.543876 
L 393.669401 627.102612 
L 395.257351 619.948014 
L 396.845302 623.655155 
L 398.433252 619.373376 
L 400.021202 627.419814 
L 401.609153 622.255237 
L 403.197103 621.994639 
L 404.785054 626.068198 
L 406.373004 630.711125 
L 407.960955 624.726874 
L 411.136855 628.006657 
L 412.724806 624.644975 
L 414.312756 628.405577 
L 415.900707 625.712365 
L 417.488657 628.687094 
L 419.076607 623.476205 
L 420.664558 628.822616 
L 422.252508 629.519915 
L 423.840459 629.249024 
L 425.428409 630.095523 
L 428.60431 629.644042 
L 430.19226 628.615681 
L 431.780211 629.881202 
L 433.368161 628.642981 
L 434.956112 633.956172 
L 436.544062 630.357169 
L 438.132012 631.857377 
L 439.719963 629.452349 
L 441.307913 633.460815 
L 442.895864 628.821401 
L 444.483814 634.731034 
L 446.071764 630.835713 
L 447.659715 630.867816 
L 449.247665 633.70296 
L 450.835616 629.617803 
L 452.423566 632.593356 
L 454.011517 634.043119 
L 455.599467 638.337661 
L 457.187417 632.33916 
L 458.775368 629.994639 
L 460.363318 636.940173 
L 461.951269 632.725918 
L 463.539219 638.503772 
L 465.127169 634.422231 
L 466.71512 631.57954 
L 468.30307 635.874326 
L 469.891021 635.274085 
L 471.478971 637.39192 
L 473.066921 637.784703 
L 474.654872 637.652058 
L 476.242822 634.048405 
L 477.830773 636.914095 
L 479.418723 633.669607 
L 481.006674 640.438858 
L 482.594624 639.625189 
L 484.182574 637.441939 
L 485.770525 635.583474 
L 487.358475 638.014811 
L 488.946426 643.279518 
L 490.534376 636.479259 
L 492.122326 640.322432 
L 493.710277 633.952974 
L 495.298227 642.874544 
L 496.886178 639.618647 
L 498.474128 640.191099 
L 500.062079 641.094229 
L 501.650029 637.528314 
L 503.237979 637.277861 
L 504.82593 640.666305 
L 506.41388 640.414309 
L 508.001831 639.367544 
L 509.589781 642.537911 
L 511.177731 643.349548 
L 512.765682 639.368905 
L 512.765682 639.368905 
" clip-path="url(#p416b7320f8)" style="fill: none; stroke: #1f77b4; stroke-width: 1.5; stroke-linecap: square"/>
   </g>
   <g id="line2d_51">
    <path d="M 76.079318 499.991653 
L 77.667269 394.272727 
L 79.255219 498.610545 
L 80.843169 513.217722 
L 82.43112 515.504194 
L 84.01907 522.48045 
L 85.607021 504.071665 
L 87.194971 467.702595 
L 88.782921 516.148904 
L 90.370872 488.610414 
L 91.958822 515.586946 
L 93.546773 482.86236 
L 95.134723 497.087953 
L 96.722674 535.295554 
L 98.310624 536.417013 
L 99.898574 521.819695 
L 101.486525 449.029343 
L 103.074475 463.180423 
L 104.662426 517.544982 
L 106.250376 537.140383 
L 107.838326 493.84565 
L 109.426277 540.27357 
L 111.014227 479.229173 
L 112.602178 489.688249 
L 114.190128 529.128869 
L 115.778079 479.122096 
L 117.366029 562.068726 
L 118.953979 531.70088 
L 120.54193 523.558578 
L 122.12988 476.220992 
L 123.717831 512.063657 
L 125.305781 539.812293 
L 126.893731 491.756756 
L 128.481682 527.403266 
L 130.069632 551.72181 
L 131.657583 535.521144 
L 133.245533 525.517773 
L 134.833483 499.164111 
L 136.421434 500.57756 
L 138.009384 559.025566 
L 139.597335 542.40923 
L 141.185285 506.879767 
L 142.773236 532.721714 
L 144.361186 538.727588 
L 145.949136 486.316136 
L 147.537087 536.334206 
L 149.125037 448.007225 
L 150.712988 529.996712 
L 152.300938 484.813986 
L 153.888888 534.124787 
L 155.476839 587.737643 
L 157.064789 539.40239 
L 158.65274 554.653076 
L 160.24069 567.234909 
L 161.82864 523.475938 
L 163.416591 556.889501 
L 165.004541 541.074594 
L 166.592492 537.021422 
L 168.180442 517.626616 
L 169.768393 582.357879 
L 171.356343 450.140301 
L 172.944293 560.239816 
L 174.532244 539.658841 
L 176.120194 542.206401 
L 177.708145 526.011587 
L 179.296095 541.105385 
L 180.884045 582.824909 
L 182.471996 549.217748 
L 184.059946 543.660109 
L 185.647897 569.427878 
L 187.235847 577.545323 
L 188.823798 531.618282 
L 190.411748 560.137529 
L 191.999698 600.404085 
L 193.587649 564.863786 
L 195.175599 579.149704 
L 196.76355 571.157279 
L 198.3515 545.568893 
L 199.93945 547.100521 
L 201.527401 584.340394 
L 203.115351 562.096012 
L 204.703302 571.603391 
L 206.291252 564.2925 
L 207.879202 608.201292 
L 209.467153 569.927458 
L 211.055103 575.302545 
L 212.643054 580.041188 
L 214.231004 563.962206 
L 215.818955 562.076811 
L 217.406905 573.494972 
L 218.994855 563.108593 
L 220.582806 583.626045 
L 222.170756 543.093877 
L 223.758707 517.90953 
L 225.346657 525.92089 
L 226.934607 592.514031 
L 228.522558 606.650198 
L 230.110508 563.529514 
L 231.698459 570.485409 
L 233.286409 569.187709 
L 234.87436 563.295503 
L 236.46231 589.123583 
L 238.05026 553.476863 
L 239.638211 536.010224 
L 241.226161 569.099539 
L 242.814112 583.385136 
L 244.402062 616.619511 
L 245.990012 595.79947 
L 247.577963 568.034858 
L 249.165913 599.559004 
L 250.753864 529.517142 
L 252.341814 593.142822 
L 253.929764 571.870302 
L 255.517715 602.450444 
L 257.105665 532.56741 
L 258.693616 611.017521 
L 260.281566 551.554254 
L 261.869517 578.831685 
L 263.457467 609.860551 
L 265.045417 595.075765 
L 266.633368 547.578569 
L 268.221318 602.744697 
L 269.809269 618.788838 
L 271.397219 570.772986 
L 272.985169 598.272559 
L 274.57312 614.518901 
L 276.16107 619.23044 
L 277.749021 598.805318 
L 279.336971 618.492268 
L 280.924921 575.365132 
L 282.512872 584.199384 
L 284.100822 620.632061 
L 285.688773 615.165356 
L 287.276723 610.893464 
L 288.864674 585.232967 
L 290.452624 589.27184 
L 292.040574 618.021579 
L 293.628525 614.239185 
L 295.216475 600.687208 
L 296.804426 603.445277 
L 298.392376 608.209307 
L 299.980326 607.623609 
L 301.568277 579.746726 
L 303.156227 606.099369 
L 304.744178 593.196347 
L 306.332128 642.352823 
L 307.920079 610.620675 
L 309.508029 566.896684 
L 311.095979 588.920684 
L 312.68393 582.178803 
L 314.27188 618.355824 
L 315.859831 583.600728 
L 317.447781 602.942903 
L 319.035731 551.346915 
L 320.623682 610.477738 
L 322.211632 598.618059 
L 323.799583 614.482426 
L 325.387533 587.018895 
L 326.975483 611.874765 
L 328.563434 634.624195 
L 330.151384 612.431305 
L 331.739335 597.328137 
L 333.327285 605.923072 
L 334.915236 646.708416 
L 336.503186 627.442688 
L 338.091136 637.092913 
L 339.679087 628.08383 
L 341.267037 632.506793 
L 342.854988 592.641356 
L 344.442938 614.486546 
L 346.030888 590.503225 
L 347.618839 600.607906 
L 349.206789 616.801659 
L 350.79474 597.20542 
L 352.38269 659.852704 
L 353.97064 608.484833 
L 355.558591 595.200409 
L 357.146541 599.878643 
L 358.734492 580.89663 
L 360.322442 612.81557 
L 361.910393 623.431171 
L 363.498343 597.106177 
L 365.086293 638.63567 
L 366.674244 626.148618 
L 368.262194 638.575359 
L 369.850145 584.437347 
L 371.438095 619.488888 
L 373.026045 644.077924 
L 374.613996 571.167724 
L 376.201946 579.60034 
L 377.789897 603.914751 
L 379.377847 622.197552 
L 380.965798 607.48792 
L 382.553748 629.287768 
L 384.141698 616.058194 
L 385.729649 637.533579 
L 387.317599 623.396512 
L 388.90555 593.740124 
L 390.4935 651.209641 
L 392.08145 602.011273 
L 393.669401 578.163432 
L 395.257351 608.429465 
L 396.845302 641.837037 
L 398.433252 660.028554 
L 400.021202 601.622707 
L 401.609153 642.86102 
L 403.197103 632.59918 
L 404.785054 656.354082 
L 406.373004 660.518311 
L 407.960955 640.878023 
L 409.548905 633.482536 
L 411.136855 612.546775 
L 412.724806 614.602532 
L 414.312756 603.550874 
L 415.900707 590.812726 
L 417.488657 639.863585 
L 419.076607 639.435298 
L 420.664558 619.296211 
L 422.252508 618.027751 
L 423.840459 613.701887 
L 425.428409 625.045326 
L 427.01636 592.095317 
L 428.60431 644.725566 
L 430.19226 658.742989 
L 431.780211 627.637215 
L 433.368161 661.318902 
L 434.956112 633.39709 
L 436.544062 627.309651 
L 438.132012 600.91217 
L 439.719963 614.014851 
L 441.307913 603.758115 
L 442.895864 644.614851 
L 444.483814 643.695795 
L 446.071764 629.266047 
L 447.659715 639.263253 
L 449.247665 630.846207 
L 450.835616 638.714679 
L 452.423566 639.594272 
L 454.011517 630.465223 
L 455.599467 654.750616 
L 457.187417 641.768187 
L 458.775368 664.527273 
L 460.363318 636.830283 
L 461.951269 652.567227 
L 463.539219 629.853266 
L 465.127169 634.851719 
L 466.71512 643.05082 
L 468.30307 644.941661 
L 469.891021 625.270302 
L 471.478971 629.170399 
L 473.066921 605.304517 
L 474.654872 645.251259 
L 476.242822 625.748909 
L 477.830773 608.393955 
L 479.418723 635.39343 
L 481.006674 656.536503 
L 482.594624 649.776496 
L 484.182574 641.367633 
L 485.770525 614.028508 
L 487.358475 657.184117 
L 488.946426 641.124664 
L 490.534376 641.602537 
L 492.122326 609.326507 
L 493.710277 642.941104 
L 495.298227 649.206306 
L 496.886178 595.873354 
L 498.474128 637.369745 
L 500.062079 632.383504 
L 501.650029 610.347564 
L 503.237979 637.497461 
L 504.82593 626.831771 
L 506.41388 618.418216 
L 508.001831 648.843378 
L 509.589781 641.148152 
L 511.177731 627.929715 
L 512.765682 646.226228 
L 512.765682 646.226228 
" clip-path="url(#p416b7320f8)" style="fill: none; stroke: #ff7f0e; stroke-width: 1.5; stroke-linecap: square"/>
   </g>
   <g id="patch_15">
    <path d="M 54.245 678.04 
L 54.245 380.76 
" style="fill: none; stroke: #000000; stroke-width: 0.8; stroke-linejoin: miter; stroke-linecap: square"/>
   </g>
   <g id="patch_16">
    <path d="M 534.6 678.04 
L 534.6 380.76 
" style="fill: none; stroke: #000000; stroke-width: 0.8; stroke-linejoin: miter; stroke-linecap: square"/>
   </g>
   <g id="patch_17">
    <path d="M 54.245 678.04 
L 534.6 678.04 
" style="fill: none; stroke: #000000; stroke-width: 0.8; stroke-linejoin: miter; stroke-linecap: square"/>
   </g>
   <g id="patch_18">
    <path d="M 54.245 380.76 
L 534.6 380.76 
" style="fill: none; stroke: #000000; stroke-width: 0.8; stroke-linejoin: miter; stroke-linecap: square"/>
   </g>
   <g id="text_54">
    <!-- Training and Validation MAE (Skip first 50) -->
    <g transform="translate(168.520937 374.76) scale(0.12 -0.12)">
     <use xlink:href="#DejaVuSans-54"/>
     <use xlink:href="#DejaVuSans-72" x="46.333984"/>
     <use xlink:href="#DejaVuSans-61" x="87.447266"/>
     <use xlink:href="#DejaVuSans-69" x="148.726562"/>
     <use xlink:href="#DejaVuSans-6e" x="176.509766"/>
     <use xlink:href="#DejaVuSans-69" x="239.888672"/>
     <use xlink:href="#DejaVuSans-6e" x="267.671875"/>
     <use xlink:href="#DejaVuSans-67" x="331.050781"/>
     <use xlink:href="#DejaVuSans-20" x="394.527344"/>
     <use xlink:href="#DejaVuSans-61" x="426.314453"/>
     <use xlink:href="#DejaVuSans-6e" x="487.59375"/>
     <use xlink:href="#DejaVuSans-64" x="550.972656"/>
     <use xlink:href="#DejaVuSans-20" x="614.449219"/>
     <use xlink:href="#DejaVuSans-56" x="646.236328"/>
     <use xlink:href="#DejaVuSans-61" x="706.894531"/>
     <use xlink:href="#DejaVuSans-6c" x="768.173828"/>
     <use xlink:href="#DejaVuSans-69" x="795.957031"/>
     <use xlink:href="#DejaVuSans-64" x="823.740234"/>
     <use xlink:href="#DejaVuSans-61" x="887.216797"/>
     <use xlink:href="#DejaVuSans-74" x="948.496094"/>
     <use xlink:href="#DejaVuSans-69" x="987.705078"/>
     <use xlink:href="#DejaVuSans-6f" x="1015.488281"/>
     <use xlink:href="#DejaVuSans-6e" x="1076.669922"/>
     <use xlink:href="#DejaVuSans-20" x="1140.048828"/>
     <use xlink:href="#DejaVuSans-4d" x="1171.835938"/>
     <use xlink:href="#DejaVuSans-41" x="1258.115234"/>
     <use xlink:href="#DejaVuSans-45" x="1326.523438"/>
     <use xlink:href="#DejaVuSans-20" x="1389.707031"/>
     <use xlink:href="#DejaVuSans-28" x="1421.494141"/>
     <use xlink:href="#DejaVuSans-53" x="1460.507812"/>
     <use xlink:href="#DejaVuSans-6b" x="1523.984375"/>
     <use xlink:href="#DejaVuSans-69" x="1581.894531"/>
     <use xlink:href="#DejaVuSans-70" x="1609.677734"/>
     <use xlink:href="#DejaVuSans-20" x="1673.154297"/>
     <use xlink:href="#DejaVuSans-66" x="1704.941406"/>
     <use xlink:href="#DejaVuSans-69" x="1740.146484"/>
     <use xlink:href="#DejaVuSans-72" x="1767.929688"/>
     <use xlink:href="#DejaVuSans-73" x="1809.042969"/>
     <use xlink:href="#DejaVuSans-74" x="1861.142578"/>
     <use xlink:href="#DejaVuSans-20" x="1900.351562"/>
     <use xlink:href="#DejaVuSans-35" x="1932.138672"/>
     <use xlink:href="#DejaVuSans-30" x="1995.761719"/>
     <use xlink:href="#DejaVuSans-29" x="2059.384766"/>
    </g>
   </g>
   <g id="legend_3">
    <g id="patch_19">
     <path d="M 421.253125 418.11625 
L 527.6 418.11625 
Q 529.6 418.11625 529.6 416.11625 
L 529.6 387.76 
Q 529.6 385.76 527.6 385.76 
L 421.253125 385.76 
Q 419.253125 385.76 419.253125 387.76 
L 419.253125 416.11625 
Q 419.253125 418.11625 421.253125 418.11625 
z
" style="fill: #ffffff; opacity: 0.8; stroke: #cccccc; stroke-linejoin: miter"/>
    </g>
    <g id="line2d_52">
     <path d="M 423.253125 393.858438 
L 433.253125 393.858438 
L 443.253125 393.858438 
" style="fill: none; stroke: #1f77b4; stroke-width: 1.5; stroke-linecap: square"/>
    </g>
    <g id="text_55">
     <!-- Training MAE -->
     <g transform="translate(451.253125 397.358438) scale(0.1 -0.1)">
      <use xlink:href="#DejaVuSans-54"/>
      <use xlink:href="#DejaVuSans-72" x="46.333984"/>
      <use xlink:href="#DejaVuSans-61" x="87.447266"/>
      <use xlink:href="#DejaVuSans-69" x="148.726562"/>
      <use xlink:href="#DejaVuSans-6e" x="176.509766"/>
      <use xlink:href="#DejaVuSans-69" x="239.888672"/>
      <use xlink:href="#DejaVuSans-6e" x="267.671875"/>
      <use xlink:href="#DejaVuSans-67" x="331.050781"/>
      <use xlink:href="#DejaVuSans-20" x="394.527344"/>
      <use xlink:href="#DejaVuSans-4d" x="426.314453"/>
      <use xlink:href="#DejaVuSans-41" x="512.59375"/>
      <use xlink:href="#DejaVuSans-45" x="581.001953"/>
     </g>
    </g>
    <g id="line2d_53">
     <path d="M 423.253125 408.536563 
L 433.253125 408.536563 
L 443.253125 408.536563 
" style="fill: none; stroke: #ff7f0e; stroke-width: 1.5; stroke-linecap: square"/>
    </g>
    <g id="text_56">
     <!-- Validation MAE -->
     <g transform="translate(451.253125 412.036563) scale(0.1 -0.1)">
      <use xlink:href="#DejaVuSans-56"/>
      <use xlink:href="#DejaVuSans-61" x="60.658203"/>
      <use xlink:href="#DejaVuSans-6c" x="121.9375"/>
      <use xlink:href="#DejaVuSans-69" x="149.720703"/>
      <use xlink:href="#DejaVuSans-64" x="177.503906"/>
      <use xlink:href="#DejaVuSans-61" x="240.980469"/>
      <use xlink:href="#DejaVuSans-74" x="302.259766"/>
      <use xlink:href="#DejaVuSans-69" x="341.46875"/>
      <use xlink:href="#DejaVuSans-6f" x="369.251953"/>
      <use xlink:href="#DejaVuSans-6e" x="430.433594"/>
      <use xlink:href="#DejaVuSans-20" x="493.8125"/>
      <use xlink:href="#DejaVuSans-4d" x="525.599609"/>
      <use xlink:href="#DejaVuSans-41" x="611.878906"/>
      <use xlink:href="#DejaVuSans-45" x="680.287109"/>
     </g>
    </g>
   </g>
  </g>
  <g id="axes_4"/>
 </g>
 <defs>
  <clipPath id="p4346491a6a">
   <rect x="54.245" y="26.16" width="480.355" height="297.28"/>
  </clipPath>
  <clipPath id="p06fa2673e3">
   <rect x="588.845" y="26.16" width="480.355" height="297.28"/>
  </clipPath>
  <clipPath id="p416b7320f8">
   <rect x="54.245" y="380.76" width="480.355" height="297.28"/>
  </clipPath>
 </defs>
</svg>
