<?xml version="1.0" encoding="utf-8" standalone="no"?>
<!DOCTYPE svg PUBLIC "-//W3C//DTD SVG 1.1//EN"
  "http://www.w3.org/Graphics/SVG/1.1/DTD/svg11.dtd">
<svg xmlns:xlink="http://www.w3.org/1999/xlink" width="1080pt" height="720pt" viewBox="0 0 1080 720" xmlns="http://www.w3.org/2000/svg" version="1.1">
 <metadata>
  <rdf:RDF xmlns:dc="http://purl.org/dc/elements/1.1/" xmlns:cc="http://creativecommons.org/ns#" xmlns:rdf="http://www.w3.org/1999/02/22-rdf-syntax-ns#">
   <cc:Work>
    <dc:type rdf:resource="http://purl.org/dc/dcmitype/StillImage"/>
    <dc:date>2024-04-13T12:54:49.571362</dc:date>
    <dc:format>image/svg+xml</dc:format>
    <dc:creator>
     <cc:Agent>
      <dc:title>Matplotlib v3.8.3, https://matplotlib.org/</dc:title>
     </cc:Agent>
    </dc:creator>
   </cc:Work>
  </rdf:RDF>
 </metadata>
 <defs>
  <style type="text/css">*{stroke-linejoin: round; stroke-linecap: butt}</style>
 </defs>
 <g id="figure_1">
  <g id="patch_1">
   <path d="M 0 720 
L 1080 720 
L 1080 0 
L 0 0 
z
" style="fill: #ffffff"/>
  </g>
  <g id="axes_1">
   <g id="patch_2">
    <path d="M 60.635 323.44 
L 534.6 323.44 
L 534.6 26.16 
L 60.635 26.16 
z
" style="fill: #ffffff"/>
   </g>
   <g id="matplotlib.axis_1">
    <g id="xtick_1">
     <g id="line2d_1">
      <defs>
       <path id="mf7d553bdd4" d="M 0 0 
L 0 3.5 
" style="stroke: #000000; stroke-width: 0.8"/>
      </defs>
      <g>
       <use xlink:href="#mf7d553bdd4" x="80.489149" y="323.44" style="stroke: #000000; stroke-width: 0.8"/>
      </g>
     </g>
     <g id="text_1">
      <!-- 0 -->
      <g transform="translate(77.307899 338.038438) scale(0.1 -0.1)">
       <defs>
        <path id="DejaVuSans-30" d="M 2034 4250 
Q 1547 4250 1301 3770 
Q 1056 3291 1056 2328 
Q 1056 1369 1301 889 
Q 1547 409 2034 409 
Q 2525 409 2770 889 
Q 3016 1369 3016 2328 
Q 3016 3291 2770 3770 
Q 2525 4250 2034 4250 
z
M 2034 4750 
Q 2819 4750 3233 4129 
Q 3647 3509 3647 2328 
Q 3647 1150 3233 529 
Q 2819 -91 2034 -91 
Q 1250 -91 836 529 
Q 422 1150 422 2328 
Q 422 3509 836 4129 
Q 1250 4750 2034 4750 
z
" transform="scale(0.015625)"/>
       </defs>
       <use xlink:href="#DejaVuSans-30"/>
      </g>
     </g>
    </g>
    <g id="xtick_2">
     <g id="line2d_2">
      <g>
       <use xlink:href="#mf7d553bdd4" x="164.974889" y="323.44" style="stroke: #000000; stroke-width: 0.8"/>
      </g>
     </g>
     <g id="text_2">
      <!-- 50 -->
      <g transform="translate(158.612389 338.038438) scale(0.1 -0.1)">
       <defs>
        <path id="DejaVuSans-35" d="M 691 4666 
L 3169 4666 
L 3169 4134 
L 1269 4134 
L 1269 2991 
Q 1406 3038 1543 3061 
Q 1681 3084 1819 3084 
Q 2600 3084 3056 2656 
Q 3513 2228 3513 1497 
Q 3513 744 3044 326 
Q 2575 -91 1722 -91 
Q 1428 -91 1123 -41 
Q 819 9 494 109 
L 494 744 
Q 775 591 1075 516 
Q 1375 441 1709 441 
Q 2250 441 2565 725 
Q 2881 1009 2881 1497 
Q 2881 1984 2565 2268 
Q 2250 2553 1709 2553 
Q 1456 2553 1204 2497 
Q 953 2441 691 2322 
L 691 4666 
z
" transform="scale(0.015625)"/>
       </defs>
       <use xlink:href="#DejaVuSans-35"/>
       <use xlink:href="#DejaVuSans-30" x="63.623047"/>
      </g>
     </g>
    </g>
    <g id="xtick_3">
     <g id="line2d_3">
      <g>
       <use xlink:href="#mf7d553bdd4" x="249.460628" y="323.44" style="stroke: #000000; stroke-width: 0.8"/>
      </g>
     </g>
     <g id="text_3">
      <!-- 100 -->
      <g transform="translate(239.916878 338.038438) scale(0.1 -0.1)">
       <defs>
        <path id="DejaVuSans-31" d="M 794 531 
L 1825 531 
L 1825 4091 
L 703 3866 
L 703 4441 
L 1819 4666 
L 2450 4666 
L 2450 531 
L 3481 531 
L 3481 0 
L 794 0 
L 794 531 
z
" transform="scale(0.015625)"/>
       </defs>
       <use xlink:href="#DejaVuSans-31"/>
       <use xlink:href="#DejaVuSans-30" x="63.623047"/>
       <use xlink:href="#DejaVuSans-30" x="127.246094"/>
      </g>
     </g>
    </g>
    <g id="xtick_4">
     <g id="line2d_4">
      <g>
       <use xlink:href="#mf7d553bdd4" x="333.946368" y="323.44" style="stroke: #000000; stroke-width: 0.8"/>
      </g>
     </g>
     <g id="text_4">
      <!-- 150 -->
      <g transform="translate(324.402618 338.038438) scale(0.1 -0.1)">
       <use xlink:href="#DejaVuSans-31"/>
       <use xlink:href="#DejaVuSans-35" x="63.623047"/>
       <use xlink:href="#DejaVuSans-30" x="127.246094"/>
      </g>
     </g>
    </g>
    <g id="xtick_5">
     <g id="line2d_5">
      <g>
       <use xlink:href="#mf7d553bdd4" x="418.432108" y="323.44" style="stroke: #000000; stroke-width: 0.8"/>
      </g>
     </g>
     <g id="text_5">
      <!-- 200 -->
      <g transform="translate(408.888358 338.038438) scale(0.1 -0.1)">
       <defs>
        <path id="DejaVuSans-32" d="M 1228 531 
L 3431 531 
L 3431 0 
L 469 0 
L 469 531 
Q 828 903 1448 1529 
Q 2069 2156 2228 2338 
Q 2531 2678 2651 2914 
Q 2772 3150 2772 3378 
Q 2772 3750 2511 3984 
Q 2250 4219 1831 4219 
Q 1534 4219 1204 4116 
Q 875 4013 500 3803 
L 500 4441 
Q 881 4594 1212 4672 
Q 1544 4750 1819 4750 
Q 2544 4750 2975 4387 
Q 3406 4025 3406 3419 
Q 3406 3131 3298 2873 
Q 3191 2616 2906 2266 
Q 2828 2175 2409 1742 
Q 1991 1309 1228 531 
z
" transform="scale(0.015625)"/>
       </defs>
       <use xlink:href="#DejaVuSans-32"/>
       <use xlink:href="#DejaVuSans-30" x="63.623047"/>
       <use xlink:href="#DejaVuSans-30" x="127.246094"/>
      </g>
     </g>
    </g>
    <g id="xtick_6">
     <g id="line2d_6">
      <g>
       <use xlink:href="#mf7d553bdd4" x="502.917848" y="323.44" style="stroke: #000000; stroke-width: 0.8"/>
      </g>
     </g>
     <g id="text_6">
      <!-- 250 -->
      <g transform="translate(493.374098 338.038438) scale(0.1 -0.1)">
       <use xlink:href="#DejaVuSans-32"/>
       <use xlink:href="#DejaVuSans-35" x="63.623047"/>
       <use xlink:href="#DejaVuSans-30" x="127.246094"/>
      </g>
     </g>
    </g>
    <g id="text_7">
     <!-- Epochs -->
     <g transform="translate(279.701875 351.716563) scale(0.1 -0.1)">
      <defs>
       <path id="DejaVuSans-45" d="M 628 4666 
L 3578 4666 
L 3578 4134 
L 1259 4134 
L 1259 2753 
L 3481 2753 
L 3481 2222 
L 1259 2222 
L 1259 531 
L 3634 531 
L 3634 0 
L 628 0 
L 628 4666 
z
" transform="scale(0.015625)"/>
       <path id="DejaVuSans-70" d="M 1159 525 
L 1159 -1331 
L 581 -1331 
L 581 3500 
L 1159 3500 
L 1159 2969 
Q 1341 3281 1617 3432 
Q 1894 3584 2278 3584 
Q 2916 3584 3314 3078 
Q 3713 2572 3713 1747 
Q 3713 922 3314 415 
Q 2916 -91 2278 -91 
Q 1894 -91 1617 61 
Q 1341 213 1159 525 
z
M 3116 1747 
Q 3116 2381 2855 2742 
Q 2594 3103 2138 3103 
Q 1681 3103 1420 2742 
Q 1159 2381 1159 1747 
Q 1159 1113 1420 752 
Q 1681 391 2138 391 
Q 2594 391 2855 752 
Q 3116 1113 3116 1747 
z
" transform="scale(0.015625)"/>
       <path id="DejaVuSans-6f" d="M 1959 3097 
Q 1497 3097 1228 2736 
Q 959 2375 959 1747 
Q 959 1119 1226 758 
Q 1494 397 1959 397 
Q 2419 397 2687 759 
Q 2956 1122 2956 1747 
Q 2956 2369 2687 2733 
Q 2419 3097 1959 3097 
z
M 1959 3584 
Q 2709 3584 3137 3096 
Q 3566 2609 3566 1747 
Q 3566 888 3137 398 
Q 2709 -91 1959 -91 
Q 1206 -91 779 398 
Q 353 888 353 1747 
Q 353 2609 779 3096 
Q 1206 3584 1959 3584 
z
" transform="scale(0.015625)"/>
       <path id="DejaVuSans-63" d="M 3122 3366 
L 3122 2828 
Q 2878 2963 2633 3030 
Q 2388 3097 2138 3097 
Q 1578 3097 1268 2742 
Q 959 2388 959 1747 
Q 959 1106 1268 751 
Q 1578 397 2138 397 
Q 2388 397 2633 464 
Q 2878 531 3122 666 
L 3122 134 
Q 2881 22 2623 -34 
Q 2366 -91 2075 -91 
Q 1284 -91 818 406 
Q 353 903 353 1747 
Q 353 2603 823 3093 
Q 1294 3584 2113 3584 
Q 2378 3584 2631 3529 
Q 2884 3475 3122 3366 
z
" transform="scale(0.015625)"/>
       <path id="DejaVuSans-68" d="M 3513 2113 
L 3513 0 
L 2938 0 
L 2938 2094 
Q 2938 2591 2744 2837 
Q 2550 3084 2163 3084 
Q 1697 3084 1428 2787 
Q 1159 2491 1159 1978 
L 1159 0 
L 581 0 
L 581 4863 
L 1159 4863 
L 1159 2956 
Q 1366 3272 1645 3428 
Q 1925 3584 2291 3584 
Q 2894 3584 3203 3211 
Q 3513 2838 3513 2113 
z
" transform="scale(0.015625)"/>
       <path id="DejaVuSans-73" d="M 2834 3397 
L 2834 2853 
Q 2591 2978 2328 3040 
Q 2066 3103 1784 3103 
Q 1356 3103 1142 2972 
Q 928 2841 928 2578 
Q 928 2378 1081 2264 
Q 1234 2150 1697 2047 
L 1894 2003 
Q 2506 1872 2764 1633 
Q 3022 1394 3022 966 
Q 3022 478 2636 193 
Q 2250 -91 1575 -91 
Q 1294 -91 989 -36 
Q 684 19 347 128 
L 347 722 
Q 666 556 975 473 
Q 1284 391 1588 391 
Q 1994 391 2212 530 
Q 2431 669 2431 922 
Q 2431 1156 2273 1281 
Q 2116 1406 1581 1522 
L 1381 1569 
Q 847 1681 609 1914 
Q 372 2147 372 2553 
Q 372 3047 722 3315 
Q 1072 3584 1716 3584 
Q 2034 3584 2315 3537 
Q 2597 3491 2834 3397 
z
" transform="scale(0.015625)"/>
      </defs>
      <use xlink:href="#DejaVuSans-45"/>
      <use xlink:href="#DejaVuSans-70" x="63.183594"/>
      <use xlink:href="#DejaVuSans-6f" x="126.660156"/>
      <use xlink:href="#DejaVuSans-63" x="187.841797"/>
      <use xlink:href="#DejaVuSans-68" x="242.822266"/>
      <use xlink:href="#DejaVuSans-73" x="306.201172"/>
     </g>
    </g>
   </g>
   <g id="matplotlib.axis_2">
    <g id="ytick_1">
     <g id="line2d_7">
      <defs>
       <path id="m3c00ecf531" d="M 0 0 
L -3.5 0 
" style="stroke: #000000; stroke-width: 0.8"/>
      </defs>
      <g>
       <use xlink:href="#m3c00ecf531" x="60.635" y="311.242065" style="stroke: #000000; stroke-width: 0.8"/>
      </g>
     </g>
     <g id="text_8">
      <!-- 0.000 -->
      <g transform="translate(25.006875 315.041284) scale(0.1 -0.1)">
       <defs>
        <path id="DejaVuSans-2e" d="M 684 794 
L 1344 794 
L 1344 0 
L 684 0 
L 684 794 
z
" transform="scale(0.015625)"/>
       </defs>
       <use xlink:href="#DejaVuSans-30"/>
       <use xlink:href="#DejaVuSans-2e" x="63.623047"/>
       <use xlink:href="#DejaVuSans-30" x="95.410156"/>
       <use xlink:href="#DejaVuSans-30" x="159.033203"/>
       <use xlink:href="#DejaVuSans-30" x="222.65625"/>
      </g>
     </g>
    </g>
    <g id="ytick_2">
     <g id="line2d_8">
      <g>
       <use xlink:href="#m3c00ecf531" x="60.635" y="276.931392" style="stroke: #000000; stroke-width: 0.8"/>
      </g>
     </g>
     <g id="text_9">
      <!-- 0.025 -->
      <g transform="translate(25.006875 280.73061) scale(0.1 -0.1)">
       <use xlink:href="#DejaVuSans-30"/>
       <use xlink:href="#DejaVuSans-2e" x="63.623047"/>
       <use xlink:href="#DejaVuSans-30" x="95.410156"/>
       <use xlink:href="#DejaVuSans-32" x="159.033203"/>
       <use xlink:href="#DejaVuSans-35" x="222.65625"/>
      </g>
     </g>
    </g>
    <g id="ytick_3">
     <g id="line2d_9">
      <g>
       <use xlink:href="#m3c00ecf531" x="60.635" y="242.620718" style="stroke: #000000; stroke-width: 0.8"/>
      </g>
     </g>
     <g id="text_10">
      <!-- 0.050 -->
      <g transform="translate(25.006875 246.419937) scale(0.1 -0.1)">
       <use xlink:href="#DejaVuSans-30"/>
       <use xlink:href="#DejaVuSans-2e" x="63.623047"/>
       <use xlink:href="#DejaVuSans-30" x="95.410156"/>
       <use xlink:href="#DejaVuSans-35" x="159.033203"/>
       <use xlink:href="#DejaVuSans-30" x="222.65625"/>
      </g>
     </g>
    </g>
    <g id="ytick_4">
     <g id="line2d_10">
      <g>
       <use xlink:href="#m3c00ecf531" x="60.635" y="208.310045" style="stroke: #000000; stroke-width: 0.8"/>
      </g>
     </g>
     <g id="text_11">
      <!-- 0.075 -->
      <g transform="translate(25.006875 212.109264) scale(0.1 -0.1)">
       <defs>
        <path id="DejaVuSans-37" d="M 525 4666 
L 3525 4666 
L 3525 4397 
L 1831 0 
L 1172 0 
L 2766 4134 
L 525 4134 
L 525 4666 
z
" transform="scale(0.015625)"/>
       </defs>
       <use xlink:href="#DejaVuSans-30"/>
       <use xlink:href="#DejaVuSans-2e" x="63.623047"/>
       <use xlink:href="#DejaVuSans-30" x="95.410156"/>
       <use xlink:href="#DejaVuSans-37" x="159.033203"/>
       <use xlink:href="#DejaVuSans-35" x="222.65625"/>
      </g>
     </g>
    </g>
    <g id="ytick_5">
     <g id="line2d_11">
      <g>
       <use xlink:href="#m3c00ecf531" x="60.635" y="173.999372" style="stroke: #000000; stroke-width: 0.8"/>
      </g>
     </g>
     <g id="text_12">
      <!-- 0.100 -->
      <g transform="translate(25.006875 177.798591) scale(0.1 -0.1)">
       <use xlink:href="#DejaVuSans-30"/>
       <use xlink:href="#DejaVuSans-2e" x="63.623047"/>
       <use xlink:href="#DejaVuSans-31" x="95.410156"/>
       <use xlink:href="#DejaVuSans-30" x="159.033203"/>
       <use xlink:href="#DejaVuSans-30" x="222.65625"/>
      </g>
     </g>
    </g>
    <g id="ytick_6">
     <g id="line2d_12">
      <g>
       <use xlink:href="#m3c00ecf531" x="60.635" y="139.688698" style="stroke: #000000; stroke-width: 0.8"/>
      </g>
     </g>
     <g id="text_13">
      <!-- 0.125 -->
      <g transform="translate(25.006875 143.487917) scale(0.1 -0.1)">
       <use xlink:href="#DejaVuSans-30"/>
       <use xlink:href="#DejaVuSans-2e" x="63.623047"/>
       <use xlink:href="#DejaVuSans-31" x="95.410156"/>
       <use xlink:href="#DejaVuSans-32" x="159.033203"/>
       <use xlink:href="#DejaVuSans-35" x="222.65625"/>
      </g>
     </g>
    </g>
    <g id="ytick_7">
     <g id="line2d_13">
      <g>
       <use xlink:href="#m3c00ecf531" x="60.635" y="105.378025" style="stroke: #000000; stroke-width: 0.8"/>
      </g>
     </g>
     <g id="text_14">
      <!-- 0.150 -->
      <g transform="translate(25.006875 109.177244) scale(0.1 -0.1)">
       <use xlink:href="#DejaVuSans-30"/>
       <use xlink:href="#DejaVuSans-2e" x="63.623047"/>
       <use xlink:href="#DejaVuSans-31" x="95.410156"/>
       <use xlink:href="#DejaVuSans-35" x="159.033203"/>
       <use xlink:href="#DejaVuSans-30" x="222.65625"/>
      </g>
     </g>
    </g>
    <g id="ytick_8">
     <g id="line2d_14">
      <g>
       <use xlink:href="#m3c00ecf531" x="60.635" y="71.067352" style="stroke: #000000; stroke-width: 0.8"/>
      </g>
     </g>
     <g id="text_15">
      <!-- 0.175 -->
      <g transform="translate(25.006875 74.866571) scale(0.1 -0.1)">
       <use xlink:href="#DejaVuSans-30"/>
       <use xlink:href="#DejaVuSans-2e" x="63.623047"/>
       <use xlink:href="#DejaVuSans-31" x="95.410156"/>
       <use xlink:href="#DejaVuSans-37" x="159.033203"/>
       <use xlink:href="#DejaVuSans-35" x="222.65625"/>
      </g>
     </g>
    </g>
    <g id="ytick_9">
     <g id="line2d_15">
      <g>
       <use xlink:href="#m3c00ecf531" x="60.635" y="36.756679" style="stroke: #000000; stroke-width: 0.8"/>
      </g>
     </g>
     <g id="text_16">
      <!-- 0.200 -->
      <g transform="translate(25.006875 40.555897) scale(0.1 -0.1)">
       <use xlink:href="#DejaVuSans-30"/>
       <use xlink:href="#DejaVuSans-2e" x="63.623047"/>
       <use xlink:href="#DejaVuSans-32" x="95.410156"/>
       <use xlink:href="#DejaVuSans-30" x="159.033203"/>
       <use xlink:href="#DejaVuSans-30" x="222.65625"/>
      </g>
     </g>
    </g>
    <g id="text_17">
     <!-- Loss -->
     <g transform="translate(18.927187 185.767188) rotate(-90) scale(0.1 -0.1)">
      <defs>
       <path id="DejaVuSans-4c" d="M 628 4666 
L 1259 4666 
L 1259 531 
L 3531 531 
L 3531 0 
L 628 0 
L 628 4666 
z
" transform="scale(0.015625)"/>
      </defs>
      <use xlink:href="#DejaVuSans-4c"/>
      <use xlink:href="#DejaVuSans-6f" x="53.962891"/>
      <use xlink:href="#DejaVuSans-73" x="115.144531"/>
      <use xlink:href="#DejaVuSans-73" x="167.244141"/>
     </g>
    </g>
   </g>
   <g id="line2d_16">
    <path d="M 82.178864 39.672727 
L 83.868578 140.147071 
L 85.558293 169.187675 
L 87.248008 180.13296 
L 88.937723 187.648838 
L 90.627438 194.145725 
L 92.317152 195.654776 
L 94.006867 201.507936 
L 97.386297 206.183827 
L 99.076012 207.818804 
L 102.455441 215.398181 
L 105.834871 220.564859 
L 109.2143 227.140467 
L 110.904015 229.740857 
L 112.59373 232.549533 
L 114.283445 235.825744 
L 115.97316 237.847925 
L 117.662874 241.183924 
L 119.352589 244.80292 
L 121.042304 245.215386 
L 122.732019 249.964282 
L 126.111448 252.290371 
L 127.801163 256.56215 
L 129.490878 258.566851 
L 131.180593 258.000033 
L 132.870307 262.171092 
L 134.560022 263.599925 
L 136.249737 265.991226 
L 137.939452 267.10794 
L 139.629167 269.143278 
L 141.318881 269.948834 
L 144.698311 273.158822 
L 146.388026 272.554492 
L 148.077741 274.758831 
L 149.767455 276.380742 
L 151.45717 276.719135 
L 153.146885 279.306634 
L 154.8366 279.016499 
L 156.526315 279.795409 
L 158.216029 281.484869 
L 159.905744 282.206415 
L 163.285174 283.318688 
L 166.664603 285.669523 
L 168.354318 286.283841 
L 170.044033 285.931661 
L 173.423463 286.857569 
L 175.113177 288.23764 
L 176.802892 288.613849 
L 178.492607 289.364548 
L 180.182322 290.345547 
L 181.872037 290.401926 
L 183.561751 290.216394 
L 185.251466 291.82564 
L 186.941181 291.083869 
L 188.630896 292.651197 
L 190.320611 291.567771 
L 192.010325 292.415946 
L 193.70004 292.107982 
L 195.389755 294.090036 
L 197.07947 294.736597 
L 198.769184 293.44303 
L 200.458899 295.40308 
L 202.148614 293.495292 
L 203.838329 295.995986 
L 205.528044 296.336317 
L 207.217758 295.372886 
L 208.907473 298.014494 
L 210.597188 297.649261 
L 212.286903 296.21906 
L 213.976618 296.130484 
L 215.666332 296.722722 
L 217.356047 299.158472 
L 219.045762 297.467931 
L 220.735477 298.544252 
L 222.425192 298.355056 
L 224.114906 298.514883 
L 225.804621 298.361963 
L 227.494336 300.326592 
L 229.184051 299.347361 
L 230.873766 299.715791 
L 232.56348 299.54615 
L 234.253195 299.502462 
L 235.94291 300.07224 
L 237.632625 301.315056 
L 239.32234 299.180519 
L 241.012054 300.49708 
L 244.391484 300.330258 
L 246.081199 300.707223 
L 247.770914 301.311559 
L 251.150343 301.546594 
L 252.840058 301.135217 
L 254.529773 301.789589 
L 256.219488 300.867359 
L 257.909202 301.386199 
L 259.598917 303.512608 
L 261.288632 300.428429 
L 262.978347 301.628334 
L 264.668061 301.629598 
L 266.357776 303.54077 
L 268.047491 303.928635 
L 269.737206 302.891044 
L 273.116635 303.748885 
L 274.80635 302.564679 
L 276.496065 303.517248 
L 278.18578 304.319946 
L 279.875495 303.972222 
L 281.565209 303.791825 
L 283.254924 303.814552 
L 284.944639 304.25543 
L 286.634354 304.000148 
L 288.324069 302.827182 
L 290.013783 304.475496 
L 291.703498 304.397503 
L 295.082928 303.161306 
L 298.462357 304.938575 
L 300.152072 304.758672 
L 301.841787 305.174541 
L 303.531502 304.648901 
L 305.221217 304.366947 
L 306.910931 304.782395 
L 308.600646 304.481913 
L 310.290361 305.491272 
L 311.980076 303.638102 
L 313.669791 305.342935 
L 315.359505 306.171185 
L 317.04922 305.123519 
L 320.42865 305.202164 
L 322.118365 303.836223 
L 323.808079 305.994775 
L 325.497794 305.771083 
L 327.187509 304.452644 
L 328.877224 306.553718 
L 330.566939 303.342147 
L 332.256653 305.668603 
L 333.946368 306.237491 
L 335.636083 305.516581 
L 337.325798 306.430619 
L 339.015512 305.404082 
L 340.705227 306.7423 
L 342.394942 306.214812 
L 344.084657 304.43506 
L 345.774372 306.296495 
L 347.464086 306.16749 
L 349.153801 307.510109 
L 350.843516 306.239268 
L 352.533231 306.289706 
L 354.222946 307.137785 
L 355.91266 306.913285 
L 357.602375 306.294363 
L 359.29209 305.362776 
L 360.981805 306.060757 
L 362.67152 307.079455 
L 364.361234 306.539467 
L 366.050949 306.633977 
L 367.740664 307.089861 
L 369.430379 307.097727 
L 371.120094 307.343573 
L 372.809808 306.090249 
L 374.499523 306.257631 
L 376.189238 306.156641 
L 377.878953 306.412168 
L 379.568668 307.508108 
L 381.258382 307.162085 
L 382.948097 306.952615 
L 384.637812 305.143413 
L 386.327527 307.180052 
L 388.017242 308.357597 
L 389.706956 306.991241 
L 391.396671 303.722357 
L 393.086386 306.627078 
L 394.776101 305.995288 
L 396.465816 307.508026 
L 398.15553 307.628875 
L 399.845245 308.061368 
L 401.53496 307.848517 
L 403.224675 307.368594 
L 406.604104 307.736467 
L 408.293819 308.006001 
L 409.983534 307.51563 
L 411.673249 307.702269 
L 413.362963 307.462702 
L 415.052678 306.874973 
L 416.742393 307.532788 
L 418.432108 304.943324 
L 420.121823 307.269562 
L 421.811537 307.831341 
L 423.501252 307.603027 
L 425.190967 308.270804 
L 426.880682 308.543744 
L 428.570397 307.380842 
L 430.260111 307.118895 
L 431.949826 307.970149 
L 433.639541 307.582594 
L 435.329256 307.389993 
L 437.018971 308.515 
L 438.708685 308.578386 
L 440.3984 307.877749 
L 442.088115 308.677203 
L 443.77783 307.36663 
L 445.467545 308.208208 
L 447.157259 307.434122 
L 448.846974 307.444068 
L 452.226404 308.563455 
L 453.916119 306.094191 
L 455.605833 308.302164 
L 458.985263 307.640715 
L 460.674978 308.503255 
L 462.364693 308.655543 
L 464.054407 308.430558 
L 465.744122 306.436173 
L 467.433837 305.579655 
L 469.123552 308.978185 
L 470.813266 307.510883 
L 472.502981 308.308876 
L 474.192696 308.721549 
L 475.882411 308.67597 
L 477.572126 307.620141 
L 479.26184 308.098922 
L 480.951555 308.275291 
L 482.64127 305.844311 
L 484.330985 307.803196 
L 486.0207 308.407449 
L 487.710414 308.033587 
L 489.400129 307.16795 
L 491.089844 308.007844 
L 492.779559 308.547302 
L 494.469274 307.518694 
L 499.538418 308.168049 
L 501.228133 307.738257 
L 502.917848 308.826246 
L 504.607562 309.219705 
L 506.297277 308.49922 
L 507.986992 309.124639 
L 511.366422 307.704756 
L 513.056136 308.977609 
L 513.056136 308.977609 
" clip-path="url(#p820b8fc54f)" style="fill: none; stroke: #1f77b4; stroke-width: 1.5; stroke-linecap: square"/>
   </g>
   <g id="line2d_17">
    <path d="M 82.178864 126.677908 
L 83.868578 167.215476 
L 85.558293 182.703814 
L 87.248008 202.032068 
L 88.937723 201.004244 
L 90.627438 180.119299 
L 92.317152 205.925145 
L 94.006867 208.788507 
L 95.696582 198.850739 
L 97.386297 186.579018 
L 99.076012 224.676023 
L 100.765726 215.893467 
L 102.455441 224.327992 
L 104.145156 224.867596 
L 105.834871 226.144122 
L 107.524586 216.371023 
L 109.2143 235.777005 
L 110.904015 233.965252 
L 112.59373 224.975494 
L 114.283445 243.99716 
L 117.662874 235.176673 
L 119.352589 239.478034 
L 121.042304 255.213423 
L 122.732019 252.338952 
L 124.421734 256.379714 
L 126.111448 247.247256 
L 127.801163 256.657962 
L 129.490878 261.626913 
L 131.180593 259.233372 
L 132.870307 255.417854 
L 134.560022 258.036522 
L 136.249737 259.563754 
L 137.939452 272.270802 
L 139.629167 247.950138 
L 141.318881 272.058955 
L 143.008596 276.180859 
L 144.698311 269.857022 
L 146.388026 274.868526 
L 148.077741 271.278958 
L 149.767455 275.224978 
L 151.45717 282.195533 
L 153.146885 271.239478 
L 154.8366 280.650369 
L 156.526315 284.146382 
L 158.216029 285.399195 
L 159.905744 271.31375 
L 161.595459 277.560398 
L 163.285174 282.91599 
L 164.974889 286.074267 
L 166.664603 284.986041 
L 168.354318 273.424294 
L 170.044033 288.451892 
L 171.733748 283.927487 
L 173.423463 289.317212 
L 175.113177 290.71726 
L 176.802892 289.184272 
L 178.492607 290.279003 
L 180.182322 293.369727 
L 181.872037 291.65543 
L 183.561751 291.645694 
L 185.251466 293.607861 
L 186.941181 294.633576 
L 188.630896 287.954729 
L 190.320611 296.193779 
L 192.010325 296.207542 
L 193.70004 298.248523 
L 195.389755 292.495087 
L 197.07947 298.813165 
L 198.769184 295.460662 
L 200.458899 299.82771 
L 202.148614 300.065088 
L 203.838329 300.126043 
L 205.528044 296.110729 
L 207.217758 295.017796 
L 208.907473 286.705584 
L 210.597188 285.606972 
L 212.286903 297.088771 
L 213.976618 301.892616 
L 215.666332 302.392627 
L 217.356047 298.429598 
L 219.045762 301.635246 
L 220.735477 299.239338 
L 222.425192 296.136043 
L 224.114906 301.806683 
L 225.804621 294.378613 
L 227.494336 298.076466 
L 229.184051 300.983136 
L 230.873766 303.104406 
L 232.56348 302.153269 
L 234.253195 302.31174 
L 235.94291 301.819619 
L 237.632625 286.451494 
L 239.32234 296.32624 
L 241.012054 304.454041 
L 242.701769 300.776024 
L 244.391484 303.076227 
L 246.081199 300.764004 
L 247.770914 303.209984 
L 249.460628 304.822183 
L 252.840058 302.698292 
L 254.529773 293.56899 
L 256.219488 300.723378 
L 257.909202 301.250748 
L 259.598917 303.271135 
L 261.288632 303.169953 
L 262.978347 305.926467 
L 264.668061 306.022265 
L 266.357776 304.021386 
L 268.047491 299.34322 
L 269.737206 305.568181 
L 271.426921 306.41117 
L 273.116635 304.520112 
L 274.80635 305.61031 
L 276.496065 305.560917 
L 278.18578 303.963246 
L 279.875495 305.782023 
L 281.565209 304.62203 
L 283.254924 305.842313 
L 284.944639 302.036307 
L 286.634354 301.667084 
L 288.324069 306.667649 
L 290.013783 303.671657 
L 291.703498 301.982158 
L 293.393213 305.205654 
L 295.082928 305.953954 
L 298.462357 306.291923 
L 300.152072 307.223562 
L 301.841787 307.361685 
L 303.531502 306.646362 
L 305.221217 300.152923 
L 306.910931 300.471296 
L 308.600646 305.09078 
L 310.290361 301.969229 
L 311.980076 304.474073 
L 313.669791 305.47179 
L 317.04922 306.909374 
L 318.738935 303.012603 
L 320.42865 298.469504 
L 322.118365 307.980312 
L 323.808079 307.647447 
L 325.497794 306.512863 
L 327.187509 305.63673 
L 328.877224 307.897969 
L 330.566939 300.36823 
L 332.256653 304.644984 
L 333.946368 308.260041 
L 335.636083 307.625056 
L 337.325798 307.306082 
L 339.015512 304.572569 
L 340.705227 305.127426 
L 342.394942 307.114785 
L 344.084657 307.576796 
L 345.774372 308.273314 
L 347.464086 306.203999 
L 349.153801 302.877061 
L 350.843516 301.733484 
L 352.533231 305.642568 
L 354.222946 307.040026 
L 355.91266 307.525412 
L 357.602375 304.972966 
L 359.29209 302.63051 
L 360.981805 307.165944 
L 362.67152 307.152275 
L 364.361234 304.37076 
L 366.050949 307.763421 
L 369.430379 308.396842 
L 371.120094 307.913651 
L 372.809808 308.517525 
L 374.499523 306.577088 
L 376.189238 303.928833 
L 377.878953 309.288693 
L 379.568668 305.162211 
L 381.258382 293.752625 
L 382.948097 307.790601 
L 384.637812 304.450295 
L 386.327527 306.624623 
L 388.017242 307.584336 
L 389.706956 304.461551 
L 391.396671 308.101823 
L 393.086386 308.549609 
L 394.776101 309.26215 
L 396.465816 305.804597 
L 398.15553 307.885957 
L 399.845245 308.781147 
L 401.53496 308.932069 
L 403.224675 307.873126 
L 404.914389 309.027011 
L 406.604104 308.72284 
L 408.293819 308.650072 
L 409.983534 306.152298 
L 411.673249 307.430046 
L 413.362963 303.994004 
L 415.052678 309.064931 
L 416.742393 303.547877 
L 418.432108 304.759938 
L 421.811537 309.137273 
L 423.501252 309.105803 
L 425.190967 308.829035 
L 426.880682 307.39113 
L 428.570397 309.927273 
L 430.260111 305.516632 
L 431.949826 308.96679 
L 433.639541 308.475997 
L 435.329256 306.112327 
L 437.018971 309.54505 
L 438.708685 302.231825 
L 440.3984 306.385161 
L 442.088115 309.173763 
L 443.77783 309.319681 
L 445.467545 309.00322 
L 447.157259 308.46498 
L 448.846974 307.130348 
L 450.536689 307.083747 
L 452.226404 307.42998 
L 453.916119 308.661515 
L 455.605833 309.200113 
L 457.295548 308.634869 
L 458.985263 308.230354 
L 460.674978 307.530507 
L 462.364693 309.051899 
L 464.054407 309.57817 
L 465.744122 304.193976 
L 467.433837 306.179842 
L 469.123552 308.757812 
L 470.813266 309.198874 
L 472.502981 309.880856 
L 474.192696 309.141227 
L 475.882411 307.707527 
L 477.572126 309.315389 
L 479.26184 309.353999 
L 480.951555 304.153133 
L 482.64127 305.92489 
L 484.330985 309.435333 
L 486.0207 308.970414 
L 487.710414 309.346849 
L 489.400129 309.363514 
L 491.089844 307.578972 
L 492.779559 307.571787 
L 494.469274 304.970192 
L 496.158988 309.658569 
L 497.848703 306.182725 
L 499.538418 308.389183 
L 501.228133 308.887962 
L 502.917848 307.851954 
L 504.607562 309.692131 
L 506.297277 309.439634 
L 507.986992 309.437474 
L 509.676707 308.384662 
L 511.366422 304.816362 
L 513.056136 309.500354 
L 513.056136 309.500354 
" clip-path="url(#p820b8fc54f)" style="fill: none; stroke: #ff7f0e; stroke-width: 1.5; stroke-linecap: square"/>
   </g>
   <g id="patch_3">
    <path d="M 60.635 323.44 
L 60.635 26.16 
" style="fill: none; stroke: #000000; stroke-width: 0.8; stroke-linejoin: miter; stroke-linecap: square"/>
   </g>
   <g id="patch_4">
    <path d="M 534.6 323.44 
L 534.6 26.16 
" style="fill: none; stroke: #000000; stroke-width: 0.8; stroke-linejoin: miter; stroke-linecap: square"/>
   </g>
   <g id="patch_5">
    <path d="M 60.635 323.44 
L 534.6 323.44 
" style="fill: none; stroke: #000000; stroke-width: 0.8; stroke-linejoin: miter; stroke-linecap: square"/>
   </g>
   <g id="patch_6">
    <path d="M 60.635 26.16 
L 534.6 26.16 
" style="fill: none; stroke: #000000; stroke-width: 0.8; stroke-linejoin: miter; stroke-linecap: square"/>
   </g>
   <g id="text_18">
    <!-- Training and Validation Loss -->
    <g transform="translate(214.148125 20.16) scale(0.12 -0.12)">
     <defs>
      <path id="DejaVuSans-54" d="M -19 4666 
L 3928 4666 
L 3928 4134 
L 2272 4134 
L 2272 0 
L 1638 0 
L 1638 4134 
L -19 4134 
L -19 4666 
z
" transform="scale(0.015625)"/>
      <path id="DejaVuSans-72" d="M 2631 2963 
Q 2534 3019 2420 3045 
Q 2306 3072 2169 3072 
Q 1681 3072 1420 2755 
Q 1159 2438 1159 1844 
L 1159 0 
L 581 0 
L 581 3500 
L 1159 3500 
L 1159 2956 
Q 1341 3275 1631 3429 
Q 1922 3584 2338 3584 
Q 2397 3584 2469 3576 
Q 2541 3569 2628 3553 
L 2631 2963 
z
" transform="scale(0.015625)"/>
      <path id="DejaVuSans-61" d="M 2194 1759 
Q 1497 1759 1228 1600 
Q 959 1441 959 1056 
Q 959 750 1161 570 
Q 1363 391 1709 391 
Q 2188 391 2477 730 
Q 2766 1069 2766 1631 
L 2766 1759 
L 2194 1759 
z
M 3341 1997 
L 3341 0 
L 2766 0 
L 2766 531 
Q 2569 213 2275 61 
Q 1981 -91 1556 -91 
Q 1019 -91 701 211 
Q 384 513 384 1019 
Q 384 1609 779 1909 
Q 1175 2209 1959 2209 
L 2766 2209 
L 2766 2266 
Q 2766 2663 2505 2880 
Q 2244 3097 1772 3097 
Q 1472 3097 1187 3025 
Q 903 2953 641 2809 
L 641 3341 
Q 956 3463 1253 3523 
Q 1550 3584 1831 3584 
Q 2591 3584 2966 3190 
Q 3341 2797 3341 1997 
z
" transform="scale(0.015625)"/>
      <path id="DejaVuSans-69" d="M 603 3500 
L 1178 3500 
L 1178 0 
L 603 0 
L 603 3500 
z
M 603 4863 
L 1178 4863 
L 1178 4134 
L 603 4134 
L 603 4863 
z
" transform="scale(0.015625)"/>
      <path id="DejaVuSans-6e" d="M 3513 2113 
L 3513 0 
L 2938 0 
L 2938 2094 
Q 2938 2591 2744 2837 
Q 2550 3084 2163 3084 
Q 1697 3084 1428 2787 
Q 1159 2491 1159 1978 
L 1159 0 
L 581 0 
L 581 3500 
L 1159 3500 
L 1159 2956 
Q 1366 3272 1645 3428 
Q 1925 3584 2291 3584 
Q 2894 3584 3203 3211 
Q 3513 2838 3513 2113 
z
" transform="scale(0.015625)"/>
      <path id="DejaVuSans-67" d="M 2906 1791 
Q 2906 2416 2648 2759 
Q 2391 3103 1925 3103 
Q 1463 3103 1205 2759 
Q 947 2416 947 1791 
Q 947 1169 1205 825 
Q 1463 481 1925 481 
Q 2391 481 2648 825 
Q 2906 1169 2906 1791 
z
M 3481 434 
Q 3481 -459 3084 -895 
Q 2688 -1331 1869 -1331 
Q 1566 -1331 1297 -1286 
Q 1028 -1241 775 -1147 
L 775 -588 
Q 1028 -725 1275 -790 
Q 1522 -856 1778 -856 
Q 2344 -856 2625 -561 
Q 2906 -266 2906 331 
L 2906 616 
Q 2728 306 2450 153 
Q 2172 0 1784 0 
Q 1141 0 747 490 
Q 353 981 353 1791 
Q 353 2603 747 3093 
Q 1141 3584 1784 3584 
Q 2172 3584 2450 3431 
Q 2728 3278 2906 2969 
L 2906 3500 
L 3481 3500 
L 3481 434 
z
" transform="scale(0.015625)"/>
      <path id="DejaVuSans-20" transform="scale(0.015625)"/>
      <path id="DejaVuSans-64" d="M 2906 2969 
L 2906 4863 
L 3481 4863 
L 3481 0 
L 2906 0 
L 2906 525 
Q 2725 213 2448 61 
Q 2172 -91 1784 -91 
Q 1150 -91 751 415 
Q 353 922 353 1747 
Q 353 2572 751 3078 
Q 1150 3584 1784 3584 
Q 2172 3584 2448 3432 
Q 2725 3281 2906 2969 
z
M 947 1747 
Q 947 1113 1208 752 
Q 1469 391 1925 391 
Q 2381 391 2643 752 
Q 2906 1113 2906 1747 
Q 2906 2381 2643 2742 
Q 2381 3103 1925 3103 
Q 1469 3103 1208 2742 
Q 947 2381 947 1747 
z
" transform="scale(0.015625)"/>
      <path id="DejaVuSans-56" d="M 1831 0 
L 50 4666 
L 709 4666 
L 2188 738 
L 3669 4666 
L 4325 4666 
L 2547 0 
L 1831 0 
z
" transform="scale(0.015625)"/>
      <path id="DejaVuSans-6c" d="M 603 4863 
L 1178 4863 
L 1178 0 
L 603 0 
L 603 4863 
z
" transform="scale(0.015625)"/>
      <path id="DejaVuSans-74" d="M 1172 4494 
L 1172 3500 
L 2356 3500 
L 2356 3053 
L 1172 3053 
L 1172 1153 
Q 1172 725 1289 603 
Q 1406 481 1766 481 
L 2356 481 
L 2356 0 
L 1766 0 
Q 1100 0 847 248 
Q 594 497 594 1153 
L 594 3053 
L 172 3053 
L 172 3500 
L 594 3500 
L 594 4494 
L 1172 4494 
z
" transform="scale(0.015625)"/>
     </defs>
     <use xlink:href="#DejaVuSans-54"/>
     <use xlink:href="#DejaVuSans-72" x="46.333984"/>
     <use xlink:href="#DejaVuSans-61" x="87.447266"/>
     <use xlink:href="#DejaVuSans-69" x="148.726562"/>
     <use xlink:href="#DejaVuSans-6e" x="176.509766"/>
     <use xlink:href="#DejaVuSans-69" x="239.888672"/>
     <use xlink:href="#DejaVuSans-6e" x="267.671875"/>
     <use xlink:href="#DejaVuSans-67" x="331.050781"/>
     <use xlink:href="#DejaVuSans-20" x="394.527344"/>
     <use xlink:href="#DejaVuSans-61" x="426.314453"/>
     <use xlink:href="#DejaVuSans-6e" x="487.59375"/>
     <use xlink:href="#DejaVuSans-64" x="550.972656"/>
     <use xlink:href="#DejaVuSans-20" x="614.449219"/>
     <use xlink:href="#DejaVuSans-56" x="646.236328"/>
     <use xlink:href="#DejaVuSans-61" x="706.894531"/>
     <use xlink:href="#DejaVuSans-6c" x="768.173828"/>
     <use xlink:href="#DejaVuSans-69" x="795.957031"/>
     <use xlink:href="#DejaVuSans-64" x="823.740234"/>
     <use xlink:href="#DejaVuSans-61" x="887.216797"/>
     <use xlink:href="#DejaVuSans-74" x="948.496094"/>
     <use xlink:href="#DejaVuSans-69" x="987.705078"/>
     <use xlink:href="#DejaVuSans-6f" x="1015.488281"/>
     <use xlink:href="#DejaVuSans-6e" x="1076.669922"/>
     <use xlink:href="#DejaVuSans-20" x="1140.048828"/>
     <use xlink:href="#DejaVuSans-4c" x="1171.835938"/>
     <use xlink:href="#DejaVuSans-6f" x="1225.798828"/>
     <use xlink:href="#DejaVuSans-73" x="1286.980469"/>
     <use xlink:href="#DejaVuSans-73" x="1339.080078"/>
    </g>
   </g>
   <g id="legend_1">
    <g id="patch_7">
     <path d="M 423.725 63.51625 
L 527.6 63.51625 
Q 529.6 63.51625 529.6 61.51625 
L 529.6 33.16 
Q 529.6 31.16 527.6 31.16 
L 423.725 31.16 
Q 421.725 31.16 421.725 33.16 
L 421.725 61.51625 
Q 421.725 63.51625 423.725 63.51625 
z
" style="fill: #ffffff; opacity: 0.8; stroke: #cccccc; stroke-linejoin: miter"/>
    </g>
    <g id="line2d_18">
     <path d="M 425.725 39.258438 
L 435.725 39.258438 
L 445.725 39.258438 
" style="fill: none; stroke: #1f77b4; stroke-width: 1.5; stroke-linecap: square"/>
    </g>
    <g id="text_19">
     <!-- Training loss -->
     <g transform="translate(453.725 42.758438) scale(0.1 -0.1)">
      <use xlink:href="#DejaVuSans-54"/>
      <use xlink:href="#DejaVuSans-72" x="46.333984"/>
      <use xlink:href="#DejaVuSans-61" x="87.447266"/>
      <use xlink:href="#DejaVuSans-69" x="148.726562"/>
      <use xlink:href="#DejaVuSans-6e" x="176.509766"/>
      <use xlink:href="#DejaVuSans-69" x="239.888672"/>
      <use xlink:href="#DejaVuSans-6e" x="267.671875"/>
      <use xlink:href="#DejaVuSans-67" x="331.050781"/>
      <use xlink:href="#DejaVuSans-20" x="394.527344"/>
      <use xlink:href="#DejaVuSans-6c" x="426.314453"/>
      <use xlink:href="#DejaVuSans-6f" x="454.097656"/>
      <use xlink:href="#DejaVuSans-73" x="515.279297"/>
      <use xlink:href="#DejaVuSans-73" x="567.378906"/>
     </g>
    </g>
    <g id="line2d_19">
     <path d="M 425.725 53.936563 
L 435.725 53.936563 
L 445.725 53.936563 
" style="fill: none; stroke: #ff7f0e; stroke-width: 1.5; stroke-linecap: square"/>
    </g>
    <g id="text_20">
     <!-- Validation loss -->
     <g transform="translate(453.725 57.436563) scale(0.1 -0.1)">
      <use xlink:href="#DejaVuSans-56"/>
      <use xlink:href="#DejaVuSans-61" x="60.658203"/>
      <use xlink:href="#DejaVuSans-6c" x="121.9375"/>
      <use xlink:href="#DejaVuSans-69" x="149.720703"/>
      <use xlink:href="#DejaVuSans-64" x="177.503906"/>
      <use xlink:href="#DejaVuSans-61" x="240.980469"/>
      <use xlink:href="#DejaVuSans-74" x="302.259766"/>
      <use xlink:href="#DejaVuSans-69" x="341.46875"/>
      <use xlink:href="#DejaVuSans-6f" x="369.251953"/>
      <use xlink:href="#DejaVuSans-6e" x="430.433594"/>
      <use xlink:href="#DejaVuSans-20" x="493.8125"/>
      <use xlink:href="#DejaVuSans-6c" x="525.599609"/>
      <use xlink:href="#DejaVuSans-6f" x="553.382812"/>
      <use xlink:href="#DejaVuSans-73" x="614.564453"/>
      <use xlink:href="#DejaVuSans-73" x="666.664062"/>
     </g>
    </g>
   </g>
  </g>
  <g id="axes_2">
   <g id="patch_8">
    <path d="M 595.235 323.44 
L 1069.2 323.44 
L 1069.2 26.16 
L 595.235 26.16 
z
" style="fill: #ffffff"/>
   </g>
   <g id="matplotlib.axis_3">
    <g id="xtick_7">
     <g id="line2d_20">
      <g>
       <use xlink:href="#mf7d553bdd4" x="614.677023" y="323.44" style="stroke: #000000; stroke-width: 0.8"/>
      </g>
     </g>
     <g id="text_21">
      <!-- 50 -->
      <g transform="translate(608.314523 338.038438) scale(0.1 -0.1)">
       <use xlink:href="#DejaVuSans-35"/>
       <use xlink:href="#DejaVuSans-30" x="63.623047"/>
      </g>
     </g>
    </g>
    <g id="xtick_8">
     <g id="line2d_21">
      <g>
       <use xlink:href="#mf7d553bdd4" x="719.769041" y="323.44" style="stroke: #000000; stroke-width: 0.8"/>
      </g>
     </g>
     <g id="text_22">
      <!-- 100 -->
      <g transform="translate(710.225291 338.038438) scale(0.1 -0.1)">
       <use xlink:href="#DejaVuSans-31"/>
       <use xlink:href="#DejaVuSans-30" x="63.623047"/>
       <use xlink:href="#DejaVuSans-30" x="127.246094"/>
      </g>
     </g>
    </g>
    <g id="xtick_9">
     <g id="line2d_22">
      <g>
       <use xlink:href="#mf7d553bdd4" x="824.861059" y="323.44" style="stroke: #000000; stroke-width: 0.8"/>
      </g>
     </g>
     <g id="text_23">
      <!-- 150 -->
      <g transform="translate(815.317309 338.038438) scale(0.1 -0.1)">
       <use xlink:href="#DejaVuSans-31"/>
       <use xlink:href="#DejaVuSans-35" x="63.623047"/>
       <use xlink:href="#DejaVuSans-30" x="127.246094"/>
      </g>
     </g>
    </g>
    <g id="xtick_10">
     <g id="line2d_23">
      <g>
       <use xlink:href="#mf7d553bdd4" x="929.953076" y="323.44" style="stroke: #000000; stroke-width: 0.8"/>
      </g>
     </g>
     <g id="text_24">
      <!-- 200 -->
      <g transform="translate(920.409326 338.038438) scale(0.1 -0.1)">
       <use xlink:href="#DejaVuSans-32"/>
       <use xlink:href="#DejaVuSans-30" x="63.623047"/>
       <use xlink:href="#DejaVuSans-30" x="127.246094"/>
      </g>
     </g>
    </g>
    <g id="xtick_11">
     <g id="line2d_24">
      <g>
       <use xlink:href="#mf7d553bdd4" x="1035.045094" y="323.44" style="stroke: #000000; stroke-width: 0.8"/>
      </g>
     </g>
     <g id="text_25">
      <!-- 250 -->
      <g transform="translate(1025.501344 338.038438) scale(0.1 -0.1)">
       <use xlink:href="#DejaVuSans-32"/>
       <use xlink:href="#DejaVuSans-35" x="63.623047"/>
       <use xlink:href="#DejaVuSans-30" x="127.246094"/>
      </g>
     </g>
    </g>
    <g id="text_26">
     <!-- Epochs -->
     <g transform="translate(814.301875 351.716563) scale(0.1 -0.1)">
      <use xlink:href="#DejaVuSans-45"/>
      <use xlink:href="#DejaVuSans-70" x="63.183594"/>
      <use xlink:href="#DejaVuSans-6f" x="126.660156"/>
      <use xlink:href="#DejaVuSans-63" x="187.841797"/>
      <use xlink:href="#DejaVuSans-68" x="242.822266"/>
      <use xlink:href="#DejaVuSans-73" x="306.201172"/>
     </g>
    </g>
   </g>
   <g id="matplotlib.axis_4">
    <g id="ytick_10">
     <g id="line2d_25">
      <g>
       <use xlink:href="#m3c00ecf531" x="595.235" y="319.661507" style="stroke: #000000; stroke-width: 0.8"/>
      </g>
     </g>
     <g id="text_27">
      <!-- 0.000 -->
      <g transform="translate(559.606875 323.460726) scale(0.1 -0.1)">
       <use xlink:href="#DejaVuSans-30"/>
       <use xlink:href="#DejaVuSans-2e" x="63.623047"/>
       <use xlink:href="#DejaVuSans-30" x="95.410156"/>
       <use xlink:href="#DejaVuSans-30" x="159.033203"/>
       <use xlink:href="#DejaVuSans-30" x="222.65625"/>
      </g>
     </g>
    </g>
    <g id="ytick_11">
     <g id="line2d_26">
      <g>
       <use xlink:href="#m3c00ecf531" x="595.235" y="268.856802" style="stroke: #000000; stroke-width: 0.8"/>
      </g>
     </g>
     <g id="text_28">
      <!-- 0.005 -->
      <g transform="translate(559.606875 272.656021) scale(0.1 -0.1)">
       <use xlink:href="#DejaVuSans-30"/>
       <use xlink:href="#DejaVuSans-2e" x="63.623047"/>
       <use xlink:href="#DejaVuSans-30" x="95.410156"/>
       <use xlink:href="#DejaVuSans-30" x="159.033203"/>
       <use xlink:href="#DejaVuSans-35" x="222.65625"/>
      </g>
     </g>
    </g>
    <g id="ytick_12">
     <g id="line2d_27">
      <g>
       <use xlink:href="#m3c00ecf531" x="595.235" y="218.052097" style="stroke: #000000; stroke-width: 0.8"/>
      </g>
     </g>
     <g id="text_29">
      <!-- 0.010 -->
      <g transform="translate(559.606875 221.851316) scale(0.1 -0.1)">
       <use xlink:href="#DejaVuSans-30"/>
       <use xlink:href="#DejaVuSans-2e" x="63.623047"/>
       <use xlink:href="#DejaVuSans-30" x="95.410156"/>
       <use xlink:href="#DejaVuSans-31" x="159.033203"/>
       <use xlink:href="#DejaVuSans-30" x="222.65625"/>
      </g>
     </g>
    </g>
    <g id="ytick_13">
     <g id="line2d_28">
      <g>
       <use xlink:href="#m3c00ecf531" x="595.235" y="167.247392" style="stroke: #000000; stroke-width: 0.8"/>
      </g>
     </g>
     <g id="text_30">
      <!-- 0.015 -->
      <g transform="translate(559.606875 171.046611) scale(0.1 -0.1)">
       <use xlink:href="#DejaVuSans-30"/>
       <use xlink:href="#DejaVuSans-2e" x="63.623047"/>
       <use xlink:href="#DejaVuSans-30" x="95.410156"/>
       <use xlink:href="#DejaVuSans-31" x="159.033203"/>
       <use xlink:href="#DejaVuSans-35" x="222.65625"/>
      </g>
     </g>
    </g>
    <g id="ytick_14">
     <g id="line2d_29">
      <g>
       <use xlink:href="#m3c00ecf531" x="595.235" y="116.442687" style="stroke: #000000; stroke-width: 0.8"/>
      </g>
     </g>
     <g id="text_31">
      <!-- 0.020 -->
      <g transform="translate(559.606875 120.241906) scale(0.1 -0.1)">
       <use xlink:href="#DejaVuSans-30"/>
       <use xlink:href="#DejaVuSans-2e" x="63.623047"/>
       <use xlink:href="#DejaVuSans-30" x="95.410156"/>
       <use xlink:href="#DejaVuSans-32" x="159.033203"/>
       <use xlink:href="#DejaVuSans-30" x="222.65625"/>
      </g>
     </g>
    </g>
    <g id="ytick_15">
     <g id="line2d_30">
      <g>
       <use xlink:href="#m3c00ecf531" x="595.235" y="65.637982" style="stroke: #000000; stroke-width: 0.8"/>
      </g>
     </g>
     <g id="text_32">
      <!-- 0.025 -->
      <g transform="translate(559.606875 69.437201) scale(0.1 -0.1)">
       <use xlink:href="#DejaVuSans-30"/>
       <use xlink:href="#DejaVuSans-2e" x="63.623047"/>
       <use xlink:href="#DejaVuSans-30" x="95.410156"/>
       <use xlink:href="#DejaVuSans-32" x="159.033203"/>
       <use xlink:href="#DejaVuSans-35" x="222.65625"/>
      </g>
     </g>
    </g>
    <g id="text_33">
     <!-- Loss -->
     <g transform="translate(553.527188 185.767188) rotate(-90) scale(0.1 -0.1)">
      <use xlink:href="#DejaVuSans-4c"/>
      <use xlink:href="#DejaVuSans-6f" x="53.962891"/>
      <use xlink:href="#DejaVuSans-73" x="115.144531"/>
      <use xlink:href="#DejaVuSans-73" x="167.244141"/>
     </g>
    </g>
   </g>
   <g id="line2d_31">
    <path d="M 616.778864 130.331874 
L 618.880704 134.880055 
L 620.982544 132.272645 
L 623.084385 135.315528 
L 625.186225 139.127725 
L 627.288065 149.345257 
L 629.389906 152.130573 
L 631.491746 157.688468 
L 633.593586 164.951426 
L 635.695427 165.368835 
L 637.797267 163.995226 
L 639.899108 175.909485 
L 642.000948 170.41769 
L 644.102788 182.021606 
L 646.204629 174.000321 
L 648.306469 180.279892 
L 650.408309 177.99984 
L 652.51015 192.674233 
L 654.61199 197.46113 
L 656.71383 187.884043 
L 658.815671 202.395529 
L 660.917511 188.270971 
L 663.019351 206.785184 
L 665.121192 209.30487 
L 667.223032 202.171982 
L 669.324873 221.729465 
L 671.426713 219.025418 
L 673.528553 208.436743 
L 675.630394 207.780959 
L 677.732234 212.165664 
L 679.834074 230.199056 
L 681.935915 217.682915 
L 684.037755 225.651604 
L 686.139595 224.250865 
L 688.241436 225.434161 
L 690.343276 224.302003 
L 692.445116 238.847386 
L 694.546957 231.597525 
L 696.648797 234.325239 
L 698.750637 233.069285 
L 700.852478 232.745836 
L 702.954318 236.964255 
L 705.056159 246.165605 
L 707.157999 230.362285 
L 709.259839 240.109614 
L 711.36168 239.102739 
L 713.46352 238.874527 
L 715.56536 241.665435 
L 717.667201 246.139714 
L 719.769041 246.672487 
L 721.870881 247.879829 
L 723.972722 244.83415 
L 726.074562 249.678876 
L 728.176402 242.851026 
L 730.278243 246.692327 
L 732.380083 262.43547 
L 734.481924 239.601351 
L 736.583764 248.485005 
L 738.685604 248.494359 
L 740.787445 262.643971 
L 742.889285 265.515581 
L 744.991125 257.833638 
L 747.092966 261.380163 
L 749.194806 264.184779 
L 751.296646 255.417351 
L 753.398487 262.469821 
L 755.500327 268.412704 
L 757.602167 265.838278 
L 759.704008 264.502687 
L 761.805848 264.670951 
L 763.907688 267.935049 
L 766.009529 266.045033 
L 768.111369 257.360828 
L 770.21321 269.564337 
L 772.31505 268.986907 
L 774.41689 264.060041 
L 776.518731 259.834562 
L 778.620571 266.727276 
L 780.722411 272.992804 
L 782.824252 271.660866 
L 784.926092 274.739803 
L 787.027932 270.848164 
L 789.129773 268.760682 
L 791.231613 271.836506 
L 793.333453 269.611846 
L 795.435294 277.084768 
L 797.537134 263.364578 
L 799.638975 275.986531 
L 801.740815 282.118591 
L 803.842655 274.362055 
L 805.944496 274.817382 
L 808.046336 274.94432 
L 810.148176 264.831393 
L 812.250017 280.812513 
L 814.351857 279.156385 
L 816.453697 269.39515 
L 818.555538 284.950721 
L 820.657378 261.173436 
L 822.759218 278.397656 
L 824.861059 282.609497 
L 826.962899 277.272142 
L 829.064739 284.03934 
L 831.16658 276.439241 
L 833.26842 286.346916 
L 835.370261 282.441588 
L 837.472101 269.264966 
L 839.573941 283.046338 
L 841.675782 282.09123 
L 843.777622 292.031486 
L 845.879462 282.622648 
L 847.981303 282.996072 
L 850.083143 289.274938 
L 852.184983 287.612825 
L 854.286824 283.030551 
L 856.388664 276.133427 
L 858.490504 281.30102 
L 860.592345 288.843086 
L 862.694185 284.845212 
L 864.796025 285.544933 
L 866.897866 288.920123 
L 868.999706 288.978366 
L 871.101547 290.798513 
L 873.203387 281.519367 
L 875.305227 282.758605 
L 877.407068 282.010907 
L 879.508908 283.902738 
L 881.610748 292.016669 
L 883.712589 289.454848 
L 885.814429 287.904009 
L 887.916269 274.509343 
L 890.01811 289.587864 
L 892.11995 298.305978 
L 894.22179 288.18998 
L 896.323631 263.988377 
L 898.425471 285.493851 
L 900.527312 280.816312 
L 902.629152 292.016066 
L 904.730992 292.910784 
L 906.832833 296.112806 
L 908.934673 294.536938 
L 911.036513 290.983766 
L 913.138354 292.27337 
L 915.240194 293.707359 
L 917.342034 295.702886 
L 919.443875 292.07236 
L 921.545715 293.454168 
L 923.647555 291.680502 
L 925.749396 287.329175 
L 927.851236 292.199395 
L 929.953076 273.027959 
L 932.054917 290.250564 
L 934.156757 294.40977 
L 936.258598 292.719419 
L 938.360438 297.663394 
L 940.462278 299.684141 
L 942.564119 291.074439 
L 944.665959 289.135082 
L 946.767799 295.43745 
L 948.86964 292.568137 
L 950.97148 291.142192 
L 953.07332 299.471332 
L 955.175161 299.940613 
L 957.277001 294.753357 
L 959.378841 300.672217 
L 961.480682 290.969218 
L 963.582522 297.199957 
L 965.684363 291.468904 
L 967.786203 291.542546 
L 969.888043 295.515951 
L 971.989884 299.830071 
L 974.091724 281.548554 
L 976.193564 297.895567 
L 978.295405 295.826266 
L 980.397245 292.998448 
L 982.499085 299.384373 
L 984.600926 300.51186 
L 986.702766 298.846149 
L 988.804606 284.080462 
L 990.906447 277.739123 
L 993.008287 302.90058 
L 995.110127 292.037221 
L 997.211968 297.94526 
L 999.313808 301.00054 
L 1001.415649 300.663088 
L 1003.517489 292.846125 
L 1005.619329 296.390837 
L 1007.72117 297.69661 
L 1009.82301 279.698532 
L 1011.92485 294.201397 
L 1014.026691 298.67506 
L 1016.128531 295.907121 
L 1018.230371 289.49827 
L 1020.332212 295.716536 
L 1022.434052 299.710481 
L 1024.535892 292.095045 
L 1028.739573 295.461254 
L 1030.841414 296.902629 
L 1032.943254 293.720614 
L 1035.045094 301.77568 
L 1037.146935 304.688706 
L 1039.248775 299.3545 
L 1041.350615 303.984867 
L 1043.452456 298.477844 
L 1045.554296 293.472583 
L 1047.656136 302.896318 
L 1047.656136 302.896318 
" clip-path="url(#p7f46ceb437)" style="fill: none; stroke: #1f77b4; stroke-width: 1.5; stroke-linecap: square"/>
   </g>
   <g id="line2d_32">
    <path d="M 616.778864 125.271625 
L 618.880704 39.672727 
L 620.982544 150.931502 
L 623.084385 117.434483 
L 625.186225 157.338011 
L 627.288065 167.703451 
L 629.389906 156.353771 
L 631.491746 164.458758 
L 633.593586 187.341333 
L 635.695427 174.649311 
L 637.797267 174.57723 
L 639.899108 189.104387 
L 642.000948 196.698403 
L 644.102788 147.250691 
L 646.204629 208.249572 
L 648.306469 208.351461 
L 650.408309 223.462133 
L 652.51015 180.865819 
L 654.61199 227.64253 
L 656.71383 202.821842 
L 658.815671 235.153848 
L 660.917511 236.911309 
L 663.019351 237.362595 
L 665.121192 207.634697 
L 667.223032 199.543025 
L 669.324873 138.002485 
L 671.426713 129.868768 
L 673.528553 214.875758 
L 675.630394 250.44165 
L 677.732234 254.143544 
L 679.834074 224.802744 
L 681.935915 248.536176 
L 684.037755 230.797759 
L 686.139595 207.822114 
L 688.241436 249.805431 
L 690.343276 194.810749 
L 692.445116 222.188284 
L 694.546957 243.708195 
L 696.648797 259.413292 
L 698.750637 252.37143 
L 700.852478 253.544686 
L 702.954318 249.901202 
L 705.056159 136.121293 
L 707.157999 209.230263 
L 709.259839 269.405493 
L 711.36168 242.174816 
L 713.46352 259.204664 
L 715.56536 242.08582 
L 717.667201 260.194955 
L 719.769041 272.131078 
L 721.870881 263.841102 
L 723.972722 256.406577 
L 726.074562 188.816604 
L 728.176402 241.78504 
L 730.278243 245.689492 
L 732.380083 260.647689 
L 734.481924 259.89858 
L 736.583764 280.306785 
L 738.685604 281.016041 
L 740.787445 266.202272 
L 742.889285 231.566864 
L 744.991125 277.654168 
L 747.092966 283.895347 
L 749.194806 269.894656 
L 751.296646 277.966077 
L 753.398487 277.600394 
L 755.500327 265.771828 
L 757.602167 279.23738 
L 759.704008 270.649216 
L 761.805848 279.683746 
L 763.907688 251.505484 
L 766.009529 248.771893 
L 768.111369 285.794225 
L 770.21321 263.613013 
L 772.31505 251.104584 
L 774.41689 274.970154 
L 776.518731 280.510289 
L 778.620571 281.382396 
L 780.722411 283.012486 
L 782.824252 289.909998 
L 784.926092 290.932608 
L 787.027932 285.636624 
L 789.129773 237.561605 
L 791.231613 239.918724 
L 793.333453 274.119671 
L 795.435294 251.008864 
L 797.537134 269.553804 
L 799.638975 276.940526 
L 801.740815 282.536936 
L 803.842655 287.583865 
L 805.944496 258.733618 
L 808.046336 225.098192 
L 810.148176 295.512696 
L 812.250017 293.048283 
L 814.351857 284.648246 
L 816.453697 278.161684 
L 818.555538 294.903056 
L 820.657378 239.155657 
L 822.759218 270.81916 
L 824.861059 297.583703 
L 826.962899 292.882513 
L 829.064739 290.520948 
L 831.16658 270.283027 
L 833.26842 274.390984 
L 835.370261 289.104654 
L 837.472101 292.525215 
L 839.573941 297.681975 
L 841.675782 282.361532 
L 843.777622 257.730117 
L 845.879462 249.263497 
L 847.981303 278.204902 
L 850.083143 288.551168 
L 852.184983 292.144783 
L 854.286824 273.247423 
L 856.388664 255.904744 
L 858.490504 289.483417 
L 860.592345 289.382216 
L 862.694185 268.78891 
L 864.796025 293.906919 
L 866.897866 296.085068 
L 868.999706 298.596528 
L 871.101547 295.019164 
L 873.203387 299.490024 
L 875.305227 285.123742 
L 877.407068 265.517043 
L 879.508908 305.199462 
L 881.610748 274.648517 
L 883.712589 190.17617 
L 885.814429 294.108147 
L 887.916269 269.377757 
L 890.01811 285.47568 
L 892.11995 292.581035 
L 894.22179 269.461094 
L 896.323631 296.412319 
L 898.425471 299.727557 
L 900.527312 305.002953 
L 902.629152 279.404508 
L 904.730992 294.814129 
L 906.832833 301.441781 
L 908.934673 302.559156 
L 911.036513 294.719131 
L 913.138354 303.262071 
L 915.240194 301.0101 
L 917.342034 300.471353 
L 919.443875 281.978756 
L 921.545715 291.438731 
L 923.647555 265.999548 
L 925.749396 303.542812 
L 927.851236 262.696586 
L 929.953076 271.670239 
L 934.156757 304.078406 
L 936.258598 303.845417 
L 938.360438 301.796325 
L 940.462278 291.150607 
L 942.564119 309.927273 
L 944.665959 277.272521 
L 946.767799 302.816211 
L 948.86964 299.182562 
L 950.97148 281.682824 
L 953.07332 307.097435 
L 955.175161 252.953028 
L 957.277001 283.702787 
L 959.378841 304.348567 
L 961.480682 305.428891 
L 963.582522 303.085925 
L 965.684363 299.101 
L 967.786203 289.219877 
L 969.888043 288.874859 
L 971.989884 291.438239 
L 974.091724 300.556071 
L 976.193564 304.543653 
L 978.295405 300.358797 
L 980.397245 297.363915 
L 982.499085 292.182508 
L 984.600926 303.446332 
L 986.702766 307.342642 
L 988.804606 267.480067 
L 990.906447 282.182679 
L 993.008287 301.269017 
L 995.110127 304.534477 
L 997.211968 309.583623 
L 999.313808 304.107678 
L 1001.415649 293.493095 
L 1003.517489 305.39711 
L 1005.619329 305.682963 
L 1007.72117 267.177682 
L 1009.82301 280.295115 
L 1011.92485 306.28513 
L 1014.026691 302.843049 
L 1016.128531 305.63003 
L 1018.230371 305.753414 
L 1020.332212 292.541323 
L 1022.434052 292.488126 
L 1024.535892 273.226883 
L 1026.637733 307.93789 
L 1028.739573 282.204028 
L 1030.841414 298.539828 
L 1032.943254 302.2326 
L 1035.045094 294.562379 
L 1037.146935 308.186372 
L 1039.248775 306.316974 
L 1041.350615 306.300983 
L 1043.452456 298.506357 
L 1045.554296 272.087983 
L 1047.656136 306.766528 
L 1047.656136 306.766528 
" clip-path="url(#p7f46ceb437)" style="fill: none; stroke: #ff7f0e; stroke-width: 1.5; stroke-linecap: square"/>
   </g>
   <g id="patch_9">
    <path d="M 595.235 323.44 
L 595.235 26.16 
" style="fill: none; stroke: #000000; stroke-width: 0.8; stroke-linejoin: miter; stroke-linecap: square"/>
   </g>
   <g id="patch_10">
    <path d="M 1069.2 323.44 
L 1069.2 26.16 
" style="fill: none; stroke: #000000; stroke-width: 0.8; stroke-linejoin: miter; stroke-linecap: square"/>
   </g>
   <g id="patch_11">
    <path d="M 595.235 323.44 
L 1069.2 323.44 
" style="fill: none; stroke: #000000; stroke-width: 0.8; stroke-linejoin: miter; stroke-linecap: square"/>
   </g>
   <g id="patch_12">
    <path d="M 595.235 26.16 
L 1069.2 26.16 
" style="fill: none; stroke: #000000; stroke-width: 0.8; stroke-linejoin: miter; stroke-linecap: square"/>
   </g>
   <g id="text_34">
    <!-- Training and Validation Loss (Skip first 50) -->
    <g transform="translate(706.227813 20.16) scale(0.12 -0.12)">
     <defs>
      <path id="DejaVuSans-28" d="M 1984 4856 
Q 1566 4138 1362 3434 
Q 1159 2731 1159 2009 
Q 1159 1288 1364 580 
Q 1569 -128 1984 -844 
L 1484 -844 
Q 1016 -109 783 600 
Q 550 1309 550 2009 
Q 550 2706 781 3412 
Q 1013 4119 1484 4856 
L 1984 4856 
z
" transform="scale(0.015625)"/>
      <path id="DejaVuSans-53" d="M 3425 4513 
L 3425 3897 
Q 3066 4069 2747 4153 
Q 2428 4238 2131 4238 
Q 1616 4238 1336 4038 
Q 1056 3838 1056 3469 
Q 1056 3159 1242 3001 
Q 1428 2844 1947 2747 
L 2328 2669 
Q 3034 2534 3370 2195 
Q 3706 1856 3706 1288 
Q 3706 609 3251 259 
Q 2797 -91 1919 -91 
Q 1588 -91 1214 -16 
Q 841 59 441 206 
L 441 856 
Q 825 641 1194 531 
Q 1563 422 1919 422 
Q 2459 422 2753 634 
Q 3047 847 3047 1241 
Q 3047 1584 2836 1778 
Q 2625 1972 2144 2069 
L 1759 2144 
Q 1053 2284 737 2584 
Q 422 2884 422 3419 
Q 422 4038 858 4394 
Q 1294 4750 2059 4750 
Q 2388 4750 2728 4690 
Q 3069 4631 3425 4513 
z
" transform="scale(0.015625)"/>
      <path id="DejaVuSans-6b" d="M 581 4863 
L 1159 4863 
L 1159 1991 
L 2875 3500 
L 3609 3500 
L 1753 1863 
L 3688 0 
L 2938 0 
L 1159 1709 
L 1159 0 
L 581 0 
L 581 4863 
z
" transform="scale(0.015625)"/>
      <path id="DejaVuSans-66" d="M 2375 4863 
L 2375 4384 
L 1825 4384 
Q 1516 4384 1395 4259 
Q 1275 4134 1275 3809 
L 1275 3500 
L 2222 3500 
L 2222 3053 
L 1275 3053 
L 1275 0 
L 697 0 
L 697 3053 
L 147 3053 
L 147 3500 
L 697 3500 
L 697 3744 
Q 697 4328 969 4595 
Q 1241 4863 1831 4863 
L 2375 4863 
z
" transform="scale(0.015625)"/>
      <path id="DejaVuSans-29" d="M 513 4856 
L 1013 4856 
Q 1481 4119 1714 3412 
Q 1947 2706 1947 2009 
Q 1947 1309 1714 600 
Q 1481 -109 1013 -844 
L 513 -844 
Q 928 -128 1133 580 
Q 1338 1288 1338 2009 
Q 1338 2731 1133 3434 
Q 928 4138 513 4856 
z
" transform="scale(0.015625)"/>
     </defs>
     <use xlink:href="#DejaVuSans-54"/>
     <use xlink:href="#DejaVuSans-72" x="46.333984"/>
     <use xlink:href="#DejaVuSans-61" x="87.447266"/>
     <use xlink:href="#DejaVuSans-69" x="148.726562"/>
     <use xlink:href="#DejaVuSans-6e" x="176.509766"/>
     <use xlink:href="#DejaVuSans-69" x="239.888672"/>
     <use xlink:href="#DejaVuSans-6e" x="267.671875"/>
     <use xlink:href="#DejaVuSans-67" x="331.050781"/>
     <use xlink:href="#DejaVuSans-20" x="394.527344"/>
     <use xlink:href="#DejaVuSans-61" x="426.314453"/>
     <use xlink:href="#DejaVuSans-6e" x="487.59375"/>
     <use xlink:href="#DejaVuSans-64" x="550.972656"/>
     <use xlink:href="#DejaVuSans-20" x="614.449219"/>
     <use xlink:href="#DejaVuSans-56" x="646.236328"/>
     <use xlink:href="#DejaVuSans-61" x="706.894531"/>
     <use xlink:href="#DejaVuSans-6c" x="768.173828"/>
     <use xlink:href="#DejaVuSans-69" x="795.957031"/>
     <use xlink:href="#DejaVuSans-64" x="823.740234"/>
     <use xlink:href="#DejaVuSans-61" x="887.216797"/>
     <use xlink:href="#DejaVuSans-74" x="948.496094"/>
     <use xlink:href="#DejaVuSans-69" x="987.705078"/>
     <use xlink:href="#DejaVuSans-6f" x="1015.488281"/>
     <use xlink:href="#DejaVuSans-6e" x="1076.669922"/>
     <use xlink:href="#DejaVuSans-20" x="1140.048828"/>
     <use xlink:href="#DejaVuSans-4c" x="1171.835938"/>
     <use xlink:href="#DejaVuSans-6f" x="1225.798828"/>
     <use xlink:href="#DejaVuSans-73" x="1286.980469"/>
     <use xlink:href="#DejaVuSans-73" x="1339.080078"/>
     <use xlink:href="#DejaVuSans-20" x="1391.179688"/>
     <use xlink:href="#DejaVuSans-28" x="1422.966797"/>
     <use xlink:href="#DejaVuSans-53" x="1461.980469"/>
     <use xlink:href="#DejaVuSans-6b" x="1525.457031"/>
     <use xlink:href="#DejaVuSans-69" x="1583.367188"/>
     <use xlink:href="#DejaVuSans-70" x="1611.150391"/>
     <use xlink:href="#DejaVuSans-20" x="1674.626953"/>
     <use xlink:href="#DejaVuSans-66" x="1706.414062"/>
     <use xlink:href="#DejaVuSans-69" x="1741.619141"/>
     <use xlink:href="#DejaVuSans-72" x="1769.402344"/>
     <use xlink:href="#DejaVuSans-73" x="1810.515625"/>
     <use xlink:href="#DejaVuSans-74" x="1862.615234"/>
     <use xlink:href="#DejaVuSans-20" x="1901.824219"/>
     <use xlink:href="#DejaVuSans-35" x="1933.611328"/>
     <use xlink:href="#DejaVuSans-30" x="1997.234375"/>
     <use xlink:href="#DejaVuSans-29" x="2060.857422"/>
    </g>
   </g>
   <g id="legend_2">
    <g id="patch_13">
     <path d="M 958.325 63.51625 
L 1062.2 63.51625 
Q 1064.2 63.51625 1064.2 61.51625 
L 1064.2 33.16 
Q 1064.2 31.16 1062.2 31.16 
L 958.325 31.16 
Q 956.325 31.16 956.325 33.16 
L 956.325 61.51625 
Q 956.325 63.51625 958.325 63.51625 
z
" style="fill: #ffffff; opacity: 0.8; stroke: #cccccc; stroke-linejoin: miter"/>
    </g>
    <g id="line2d_33">
     <path d="M 960.325 39.258438 
L 970.325 39.258438 
L 980.325 39.258438 
" style="fill: none; stroke: #1f77b4; stroke-width: 1.5; stroke-linecap: square"/>
    </g>
    <g id="text_35">
     <!-- Training loss -->
     <g transform="translate(988.325 42.758438) scale(0.1 -0.1)">
      <use xlink:href="#DejaVuSans-54"/>
      <use xlink:href="#DejaVuSans-72" x="46.333984"/>
      <use xlink:href="#DejaVuSans-61" x="87.447266"/>
      <use xlink:href="#DejaVuSans-69" x="148.726562"/>
      <use xlink:href="#DejaVuSans-6e" x="176.509766"/>
      <use xlink:href="#DejaVuSans-69" x="239.888672"/>
      <use xlink:href="#DejaVuSans-6e" x="267.671875"/>
      <use xlink:href="#DejaVuSans-67" x="331.050781"/>
      <use xlink:href="#DejaVuSans-20" x="394.527344"/>
      <use xlink:href="#DejaVuSans-6c" x="426.314453"/>
      <use xlink:href="#DejaVuSans-6f" x="454.097656"/>
      <use xlink:href="#DejaVuSans-73" x="515.279297"/>
      <use xlink:href="#DejaVuSans-73" x="567.378906"/>
     </g>
    </g>
    <g id="line2d_34">
     <path d="M 960.325 53.936563 
L 970.325 53.936563 
L 980.325 53.936563 
" style="fill: none; stroke: #ff7f0e; stroke-width: 1.5; stroke-linecap: square"/>
    </g>
    <g id="text_36">
     <!-- Validation loss -->
     <g transform="translate(988.325 57.436563) scale(0.1 -0.1)">
      <use xlink:href="#DejaVuSans-56"/>
      <use xlink:href="#DejaVuSans-61" x="60.658203"/>
      <use xlink:href="#DejaVuSans-6c" x="121.9375"/>
      <use xlink:href="#DejaVuSans-69" x="149.720703"/>
      <use xlink:href="#DejaVuSans-64" x="177.503906"/>
      <use xlink:href="#DejaVuSans-61" x="240.980469"/>
      <use xlink:href="#DejaVuSans-74" x="302.259766"/>
      <use xlink:href="#DejaVuSans-69" x="341.46875"/>
      <use xlink:href="#DejaVuSans-6f" x="369.251953"/>
      <use xlink:href="#DejaVuSans-6e" x="430.433594"/>
      <use xlink:href="#DejaVuSans-20" x="493.8125"/>
      <use xlink:href="#DejaVuSans-6c" x="525.599609"/>
      <use xlink:href="#DejaVuSans-6f" x="553.382812"/>
      <use xlink:href="#DejaVuSans-73" x="614.564453"/>
      <use xlink:href="#DejaVuSans-73" x="666.664062"/>
     </g>
    </g>
   </g>
  </g>
  <g id="axes_3">
   <g id="patch_14">
    <path d="M 60.635 678.04 
L 534.6 678.04 
L 534.6 380.76 
L 60.635 380.76 
z
" style="fill: #ffffff"/>
   </g>
   <g id="matplotlib.axis_5">
    <g id="xtick_12">
     <g id="line2d_35">
      <g>
       <use xlink:href="#mf7d553bdd4" x="80.077023" y="678.04" style="stroke: #000000; stroke-width: 0.8"/>
      </g>
     </g>
     <g id="text_37">
      <!-- 50 -->
      <g transform="translate(73.714523 692.638438) scale(0.1 -0.1)">
       <use xlink:href="#DejaVuSans-35"/>
       <use xlink:href="#DejaVuSans-30" x="63.623047"/>
      </g>
     </g>
    </g>
    <g id="xtick_13">
     <g id="line2d_36">
      <g>
       <use xlink:href="#mf7d553bdd4" x="185.169041" y="678.04" style="stroke: #000000; stroke-width: 0.8"/>
      </g>
     </g>
     <g id="text_38">
      <!-- 100 -->
      <g transform="translate(175.625291 692.638438) scale(0.1 -0.1)">
       <use xlink:href="#DejaVuSans-31"/>
       <use xlink:href="#DejaVuSans-30" x="63.623047"/>
       <use xlink:href="#DejaVuSans-30" x="127.246094"/>
      </g>
     </g>
    </g>
    <g id="xtick_14">
     <g id="line2d_37">
      <g>
       <use xlink:href="#mf7d553bdd4" x="290.261059" y="678.04" style="stroke: #000000; stroke-width: 0.8"/>
      </g>
     </g>
     <g id="text_39">
      <!-- 150 -->
      <g transform="translate(280.717309 692.638438) scale(0.1 -0.1)">
       <use xlink:href="#DejaVuSans-31"/>
       <use xlink:href="#DejaVuSans-35" x="63.623047"/>
       <use xlink:href="#DejaVuSans-30" x="127.246094"/>
      </g>
     </g>
    </g>
    <g id="xtick_15">
     <g id="line2d_38">
      <g>
       <use xlink:href="#mf7d553bdd4" x="395.353076" y="678.04" style="stroke: #000000; stroke-width: 0.8"/>
      </g>
     </g>
     <g id="text_40">
      <!-- 200 -->
      <g transform="translate(385.809326 692.638438) scale(0.1 -0.1)">
       <use xlink:href="#DejaVuSans-32"/>
       <use xlink:href="#DejaVuSans-30" x="63.623047"/>
       <use xlink:href="#DejaVuSans-30" x="127.246094"/>
      </g>
     </g>
    </g>
    <g id="xtick_16">
     <g id="line2d_39">
      <g>
       <use xlink:href="#mf7d553bdd4" x="500.445094" y="678.04" style="stroke: #000000; stroke-width: 0.8"/>
      </g>
     </g>
     <g id="text_41">
      <!-- 250 -->
      <g transform="translate(490.901344 692.638438) scale(0.1 -0.1)">
       <use xlink:href="#DejaVuSans-32"/>
       <use xlink:href="#DejaVuSans-35" x="63.623047"/>
       <use xlink:href="#DejaVuSans-30" x="127.246094"/>
      </g>
     </g>
    </g>
    <g id="text_42">
     <!-- Epochs -->
     <g transform="translate(279.701875 706.316563) scale(0.1 -0.1)">
      <use xlink:href="#DejaVuSans-45"/>
      <use xlink:href="#DejaVuSans-70" x="63.183594"/>
      <use xlink:href="#DejaVuSans-6f" x="126.660156"/>
      <use xlink:href="#DejaVuSans-63" x="187.841797"/>
      <use xlink:href="#DejaVuSans-68" x="242.822266"/>
      <use xlink:href="#DejaVuSans-73" x="306.201172"/>
     </g>
    </g>
   </g>
   <g id="matplotlib.axis_6">
    <g id="ytick_16">
     <g id="line2d_40">
      <g>
       <use xlink:href="#m3c00ecf531" x="60.635" y="647.43744" style="stroke: #000000; stroke-width: 0.8"/>
      </g>
     </g>
     <g id="text_43">
      <!-- 0.02 -->
      <g transform="translate(31.369375 651.236659) scale(0.1 -0.1)">
       <use xlink:href="#DejaVuSans-30"/>
       <use xlink:href="#DejaVuSans-2e" x="63.623047"/>
       <use xlink:href="#DejaVuSans-30" x="95.410156"/>
       <use xlink:href="#DejaVuSans-32" x="159.033203"/>
      </g>
     </g>
    </g>
    <g id="ytick_17">
     <g id="line2d_41">
      <g>
       <use xlink:href="#m3c00ecf531" x="60.635" y="586.789716" style="stroke: #000000; stroke-width: 0.8"/>
      </g>
     </g>
     <g id="text_44">
      <!-- 0.04 -->
      <g transform="translate(31.369375 590.588935) scale(0.1 -0.1)">
       <defs>
        <path id="DejaVuSans-34" d="M 2419 4116 
L 825 1625 
L 2419 1625 
L 2419 4116 
z
M 2253 4666 
L 3047 4666 
L 3047 1625 
L 3713 1625 
L 3713 1100 
L 3047 1100 
L 3047 0 
L 2419 0 
L 2419 1100 
L 313 1100 
L 313 1709 
L 2253 4666 
z
" transform="scale(0.015625)"/>
       </defs>
       <use xlink:href="#DejaVuSans-30"/>
       <use xlink:href="#DejaVuSans-2e" x="63.623047"/>
       <use xlink:href="#DejaVuSans-30" x="95.410156"/>
       <use xlink:href="#DejaVuSans-34" x="159.033203"/>
      </g>
     </g>
    </g>
    <g id="ytick_18">
     <g id="line2d_42">
      <g>
       <use xlink:href="#m3c00ecf531" x="60.635" y="526.141992" style="stroke: #000000; stroke-width: 0.8"/>
      </g>
     </g>
     <g id="text_45">
      <!-- 0.06 -->
      <g transform="translate(31.369375 529.941211) scale(0.1 -0.1)">
       <defs>
        <path id="DejaVuSans-36" d="M 2113 2584 
Q 1688 2584 1439 2293 
Q 1191 2003 1191 1497 
Q 1191 994 1439 701 
Q 1688 409 2113 409 
Q 2538 409 2786 701 
Q 3034 994 3034 1497 
Q 3034 2003 2786 2293 
Q 2538 2584 2113 2584 
z
M 3366 4563 
L 3366 3988 
Q 3128 4100 2886 4159 
Q 2644 4219 2406 4219 
Q 1781 4219 1451 3797 
Q 1122 3375 1075 2522 
Q 1259 2794 1537 2939 
Q 1816 3084 2150 3084 
Q 2853 3084 3261 2657 
Q 3669 2231 3669 1497 
Q 3669 778 3244 343 
Q 2819 -91 2113 -91 
Q 1303 -91 875 529 
Q 447 1150 447 2328 
Q 447 3434 972 4092 
Q 1497 4750 2381 4750 
Q 2619 4750 2861 4703 
Q 3103 4656 3366 4563 
z
" transform="scale(0.015625)"/>
       </defs>
       <use xlink:href="#DejaVuSans-30"/>
       <use xlink:href="#DejaVuSans-2e" x="63.623047"/>
       <use xlink:href="#DejaVuSans-30" x="95.410156"/>
       <use xlink:href="#DejaVuSans-36" x="159.033203"/>
      </g>
     </g>
    </g>
    <g id="ytick_19">
     <g id="line2d_43">
      <g>
       <use xlink:href="#m3c00ecf531" x="60.635" y="465.494268" style="stroke: #000000; stroke-width: 0.8"/>
      </g>
     </g>
     <g id="text_46">
      <!-- 0.08 -->
      <g transform="translate(31.369375 469.293487) scale(0.1 -0.1)">
       <defs>
        <path id="DejaVuSans-38" d="M 2034 2216 
Q 1584 2216 1326 1975 
Q 1069 1734 1069 1313 
Q 1069 891 1326 650 
Q 1584 409 2034 409 
Q 2484 409 2743 651 
Q 3003 894 3003 1313 
Q 3003 1734 2745 1975 
Q 2488 2216 2034 2216 
z
M 1403 2484 
Q 997 2584 770 2862 
Q 544 3141 544 3541 
Q 544 4100 942 4425 
Q 1341 4750 2034 4750 
Q 2731 4750 3128 4425 
Q 3525 4100 3525 3541 
Q 3525 3141 3298 2862 
Q 3072 2584 2669 2484 
Q 3125 2378 3379 2068 
Q 3634 1759 3634 1313 
Q 3634 634 3220 271 
Q 2806 -91 2034 -91 
Q 1263 -91 848 271 
Q 434 634 434 1313 
Q 434 1759 690 2068 
Q 947 2378 1403 2484 
z
M 1172 3481 
Q 1172 3119 1398 2916 
Q 1625 2713 2034 2713 
Q 2441 2713 2670 2916 
Q 2900 3119 2900 3481 
Q 2900 3844 2670 4047 
Q 2441 4250 2034 4250 
Q 1625 4250 1398 4047 
Q 1172 3844 1172 3481 
z
" transform="scale(0.015625)"/>
       </defs>
       <use xlink:href="#DejaVuSans-30"/>
       <use xlink:href="#DejaVuSans-2e" x="63.623047"/>
       <use xlink:href="#DejaVuSans-30" x="95.410156"/>
       <use xlink:href="#DejaVuSans-38" x="159.033203"/>
      </g>
     </g>
    </g>
    <g id="ytick_20">
     <g id="line2d_44">
      <g>
       <use xlink:href="#m3c00ecf531" x="60.635" y="404.846545" style="stroke: #000000; stroke-width: 0.8"/>
      </g>
     </g>
     <g id="text_47">
      <!-- 0.10 -->
      <g transform="translate(31.369375 408.645763) scale(0.1 -0.1)">
       <use xlink:href="#DejaVuSans-30"/>
       <use xlink:href="#DejaVuSans-2e" x="63.623047"/>
       <use xlink:href="#DejaVuSans-31" x="95.410156"/>
       <use xlink:href="#DejaVuSans-30" x="159.033203"/>
      </g>
     </g>
    </g>
    <g id="text_48">
     <!-- MAE -->
     <g transform="translate(25.289687 540.29375) rotate(-90) scale(0.1 -0.1)">
      <defs>
       <path id="DejaVuSans-4d" d="M 628 4666 
L 1569 4666 
L 2759 1491 
L 3956 4666 
L 4897 4666 
L 4897 0 
L 4281 0 
L 4281 4097 
L 3078 897 
L 2444 897 
L 1241 4097 
L 1241 0 
L 628 0 
L 628 4666 
z
" transform="scale(0.015625)"/>
       <path id="DejaVuSans-41" d="M 2188 4044 
L 1331 1722 
L 3047 1722 
L 2188 4044 
z
M 1831 4666 
L 2547 4666 
L 4325 0 
L 3669 0 
L 3244 1197 
L 1141 1197 
L 716 0 
L 50 0 
L 1831 4666 
z
" transform="scale(0.015625)"/>
      </defs>
      <use xlink:href="#DejaVuSans-4d"/>
      <use xlink:href="#DejaVuSans-41" x="86.279297"/>
      <use xlink:href="#DejaVuSans-45" x="154.6875"/>
     </g>
    </g>
   </g>
   <g id="line2d_45">
    <path d="M 82.178864 455.391458 
L 84.280704 463.383406 
L 86.382544 459.235076 
L 88.484385 463.197646 
L 90.586225 470.71914 
L 92.688065 476.121903 
L 94.789906 478.331502 
L 96.891746 483.107286 
L 98.993586 485.100738 
L 101.095427 485.720352 
L 103.197267 487.469234 
L 105.299108 489.515847 
L 107.400948 495.432399 
L 109.502788 498.266153 
L 111.604629 495.392635 
L 113.706469 503.586904 
L 115.808309 502.0107 
L 117.91015 506.465437 
L 120.01199 508.926587 
L 122.11383 507.751546 
L 124.215671 515.548494 
L 126.317511 517.488897 
L 128.419351 522.189344 
L 130.521192 519.980209 
L 132.623032 521.070786 
L 134.724873 528.978146 
L 136.826713 529.01948 
L 138.928553 523.09702 
L 141.030394 531.799293 
L 143.132234 532.958485 
L 145.234074 540.186258 
L 147.335915 532.583057 
L 149.437755 539.875525 
L 151.539595 536.451132 
L 153.641436 544.193517 
L 155.743276 541.252435 
L 157.845116 548.838725 
L 159.946957 547.076457 
L 162.048797 547.126319 
L 164.150637 545.266574 
L 166.252478 548.911813 
L 168.354318 555.361742 
L 170.456159 552.686658 
L 172.557999 553.363681 
L 174.659839 557.945041 
L 176.76168 556.700933 
L 178.86352 563.338146 
L 180.96536 556.731569 
L 183.067201 564.506002 
L 185.169041 560.276428 
L 187.270881 566.125991 
L 189.372722 564.751544 
L 191.474562 568.440365 
L 193.576402 564.353093 
L 195.678243 561.752804 
L 197.780083 579.379417 
L 199.881924 560.245317 
L 201.983764 572.928472 
L 204.085604 565.583013 
L 206.187445 574.334053 
L 208.289285 577.178336 
L 210.391125 575.335659 
L 212.492966 572.260972 
L 214.594806 579.213155 
L 216.696646 574.737813 
L 220.900327 583.65803 
L 223.002167 579.431302 
L 225.104008 579.589442 
L 227.205848 587.58548 
L 229.307688 586.091786 
L 231.409529 584.154829 
L 233.511369 583.302642 
L 235.61321 585.964407 
L 237.71505 586.42091 
L 239.81689 580.961438 
L 241.918731 589.818768 
L 244.020571 590.017767 
L 246.122411 590.923533 
L 248.224252 593.240709 
L 250.326092 595.842489 
L 252.427932 587.953181 
L 254.529773 593.090601 
L 256.631613 590.573013 
L 258.733453 592.870612 
L 260.835294 595.707123 
L 262.937134 593.11386 
L 265.038975 598.673363 
L 267.140815 601.692618 
L 269.242655 597.627791 
L 271.344496 596.796989 
L 273.446336 597.896761 
L 275.548176 601.724282 
L 277.650017 601.725682 
L 279.751857 601.069648 
L 281.853697 600.92285 
L 283.955538 606.640572 
L 286.057378 597.57838 
L 288.159218 613.210797 
L 290.261059 602.928479 
L 292.362899 603.877105 
L 294.464739 606.543422 
L 296.56658 605.148788 
L 298.66842 605.210997 
L 300.770261 605.979308 
L 302.872101 605.276913 
L 304.973941 612.889546 
L 307.075782 607.797652 
L 309.177622 612.625072 
L 311.279462 608.228298 
L 313.381303 609.100445 
L 315.483143 615.745594 
L 317.584983 610.207583 
L 319.686824 611.897418 
L 321.788664 614.545108 
L 323.890504 608.47664 
L 325.992345 617.494866 
L 328.094185 613.462754 
L 330.196025 617.681705 
L 332.297866 614.901326 
L 334.399706 614.872097 
L 336.501547 616.056537 
L 338.603387 617.420885 
L 340.705227 616.248809 
L 342.807068 616.098238 
L 344.908908 622.74925 
L 347.010748 621.468902 
L 349.112589 621.411708 
L 351.214429 619.359588 
L 353.316269 614.765028 
L 355.41811 628.425513 
L 357.51995 624.549486 
L 359.62179 621.544182 
L 361.723631 618.805889 
L 363.825471 617.227483 
L 365.927312 615.860915 
L 368.029152 624.653058 
L 370.130992 624.74295 
L 372.232833 622.537378 
L 374.334673 623.763654 
L 376.436513 623.617574 
L 378.538354 620.824238 
L 380.640194 628.529436 
L 382.742034 628.724148 
L 384.843875 623.761898 
L 386.945715 623.413073 
L 389.047555 628.526109 
L 391.149396 623.243885 
L 393.251236 627.514042 
L 395.353076 628.241583 
L 397.454917 628.32189 
L 399.556757 630.336116 
L 401.658598 622.649914 
L 403.760438 635.32493 
L 405.862278 629.952543 
L 407.964119 628.226186 
L 410.065959 630.404872 
L 412.167799 630.831146 
L 414.26964 628.474992 
L 416.37148 628.162389 
L 418.47332 635.035281 
L 422.677001 630.107842 
L 424.778841 635.717038 
L 426.880682 627.638236 
L 428.982522 633.294211 
L 431.084363 631.657651 
L 433.186203 629.360583 
L 435.288043 633.095952 
L 437.389884 635.98703 
L 439.491724 633.54962 
L 441.593564 635.503206 
L 443.695405 635.943956 
L 445.797245 632.166045 
L 447.899085 636.729663 
L 450.000926 638.05074 
L 452.102766 637.894278 
L 454.204606 631.755202 
L 456.306447 634.350012 
L 458.408287 638.876414 
L 460.510127 635.562405 
L 462.611968 635.038665 
L 464.713808 638.176883 
L 466.815649 637.018284 
L 468.917489 634.391075 
L 471.019329 640.458158 
L 473.12117 634.053512 
L 475.22301 637.442762 
L 477.32485 640.114541 
L 479.426691 638.691688 
L 481.528531 639.698863 
L 483.630371 639.025924 
L 485.732212 639.724461 
L 489.935892 634.690026 
L 492.037733 645.855799 
L 494.139573 640.033528 
L 496.241414 644.562935 
L 498.343254 632.041551 
L 500.445094 642.884233 
L 502.546935 646.21504 
L 504.648775 641.90047 
L 506.750615 646.109027 
L 508.852456 644.127296 
L 510.954296 638.14453 
L 513.056136 647.07523 
L 513.056136 647.07523 
" clip-path="url(#p8559a5b964)" style="fill: none; stroke: #1f77b4; stroke-width: 1.5; stroke-linecap: square"/>
   </g>
   <g id="line2d_46">
    <path d="M 82.178864 449.861744 
L 84.280704 394.272727 
L 86.382544 479.465582 
L 88.484385 445.406081 
L 90.586225 481.259447 
L 92.688065 485.039714 
L 94.789906 492.151889 
L 96.891746 477.794624 
L 98.993586 503.700434 
L 101.095427 489.808449 
L 103.197267 481.290309 
L 105.299108 510.66406 
L 107.400948 510.413503 
L 109.502788 454.669904 
L 111.604629 508.745843 
L 113.706469 528.431778 
L 115.808309 534.225853 
L 117.91015 487.854965 
L 120.01199 547.518038 
L 122.11383 521.76429 
L 124.215671 551.463686 
L 126.317511 545.329405 
L 128.419351 546.438542 
L 130.521192 519.581735 
L 132.623032 503.979435 
L 134.724873 457.205498 
L 136.826713 475.648263 
L 138.928553 533.903947 
L 141.030394 561.609462 
L 143.132234 567.213213 
L 145.234074 546.157202 
L 147.335915 562.678565 
L 149.437755 534.514536 
L 151.539595 509.832275 
L 153.641436 549.526412 
L 155.743276 507.802177 
L 157.845116 529.813952 
L 159.946957 556.519759 
L 162.048797 561.95901 
L 164.150637 562.960887 
L 166.252478 557.162678 
L 168.354318 567.369919 
L 170.456159 495.506549 
L 172.557999 514.423767 
L 174.659839 586.552176 
L 176.76168 556.447009 
L 178.86352 545.832552 
L 180.96536 550.046583 
L 183.067201 559.522057 
L 185.169041 577.070092 
L 187.270881 567.150122 
L 189.372722 575.227879 
L 191.474562 517.392108 
L 193.576402 545.468612 
L 195.678243 559.174339 
L 197.780083 557.918743 
L 199.881924 600.296323 
L 201.983764 590.478507 
L 204.085604 598.193792 
L 206.187445 582.026881 
L 208.289285 551.714841 
L 210.391125 602.738359 
L 212.492966 603.183995 
L 214.594806 577.036 
L 216.696646 584.531251 
L 218.798487 587.273763 
L 220.900327 557.361576 
L 223.002167 599.577514 
L 225.104008 596.284669 
L 227.205848 612.569482 
L 229.307688 562.773128 
L 231.409529 563.772452 
L 233.511369 607.644087 
L 235.61321 568.756657 
L 237.71505 553.378773 
L 239.81689 597.292386 
L 241.918731 610.12304 
L 244.020571 596.491271 
L 246.122411 591.053048 
L 248.224252 610.056052 
L 250.326092 615.838779 
L 252.427932 606.571426 
L 254.529773 570.742833 
L 256.631613 559.085921 
L 258.733453 592.286221 
L 260.835294 578.846899 
L 262.937134 604.13453 
L 265.038975 593.495197 
L 267.140815 590.570619 
L 269.242655 597.42947 
L 271.344496 572.646692 
L 273.446336 571.063248 
L 275.548176 625.701053 
L 277.650017 629.291086 
L 279.751857 596.329403 
L 281.853697 586.891647 
L 283.955538 621.795445 
L 286.057378 576.154702 
L 288.159218 582.509287 
L 290.261059 632.501551 
L 292.362899 619.756299 
L 294.464739 609.924267 
L 296.56658 583.445057 
L 298.66842 601.698921 
L 300.770261 607.304649 
L 302.872101 612.051119 
L 304.973941 625.443831 
L 307.075782 617.169289 
L 309.177622 573.236879 
L 311.279462 572.626844 
L 313.381303 603.002856 
L 315.483143 614.554303 
L 317.584983 612.706916 
L 319.686824 580.188542 
L 321.788664 569.503537 
L 323.890504 615.356378 
L 325.992345 603.030103 
L 328.094185 609.466893 
L 330.196025 608.380145 
L 332.297866 626.124486 
L 334.399706 622.38971 
L 336.501547 613.784411 
L 338.603387 622.529691 
L 340.705227 624.808831 
L 342.807068 624.458481 
L 344.908908 645.642436 
L 347.010748 603.230175 
L 349.112589 532.125616 
L 351.214429 620.548965 
L 353.316269 580.332617 
L 355.41811 604.832587 
L 357.51995 606.277931 
L 359.62179 612.532226 
L 361.723631 619.763275 
L 363.825471 629.518073 
L 365.927312 651.348646 
L 368.029152 609.630783 
L 370.130992 613.244031 
L 372.232833 630.339256 
L 374.334673 635.054994 
L 376.436513 616.916416 
L 378.538354 636.498983 
L 380.640194 635.749029 
L 382.742034 629.731611 
L 384.843875 627.365403 
L 386.945715 617.343408 
L 389.047555 581.375275 
L 391.149396 643.025145 
L 393.251236 623.398336 
L 395.353076 601.389532 
L 397.454917 604.877841 
L 399.556757 640.870803 
L 401.658598 655.906707 
L 403.760438 639.18952 
L 405.862278 604.190278 
L 407.964119 663.470562 
L 410.065959 592.436431 
L 412.167799 636.672825 
L 414.26964 627.011319 
L 416.37148 610.222969 
L 418.47332 647.571797 
L 420.575161 593.904504 
L 422.677001 595.553976 
L 424.778841 636.165605 
L 426.880682 649.226573 
L 428.982522 630.623946 
L 431.084363 624.704259 
L 433.186203 619.813708 
L 435.288043 624.622416 
L 437.389884 621.509948 
L 439.491724 640.046406 
L 441.593564 646.096912 
L 443.695405 632.673507 
L 445.797245 623.355387 
L 447.899085 610.104785 
L 450.000926 633.389509 
L 452.102766 646.847628 
L 454.204606 631.651669 
L 456.306447 614.026208 
L 458.408287 629.703229 
L 460.510127 638.308414 
L 462.611968 660.131086 
L 464.713808 635.810652 
L 466.815649 614.910448 
L 468.917489 648.364552 
L 471.019329 645.84082 
L 473.12117 638.914348 
L 475.22301 653.997545 
L 477.32485 651.924526 
L 479.426691 634.656622 
L 481.528531 647.320472 
L 483.630371 641.562382 
L 485.732212 632.705691 
L 487.834052 610.490234 
L 489.935892 640.012257 
L 492.037733 652.619759 
L 494.139573 664.527273 
L 496.241414 618.68614 
L 498.343254 644.257161 
L 500.445094 644.428196 
L 502.546935 652.948781 
L 504.648775 649.516944 
L 506.750615 647.503057 
L 508.852456 632.109065 
L 510.954296 609.376182 
L 513.056136 643.978899 
L 513.056136 643.978899 
" clip-path="url(#p8559a5b964)" style="fill: none; stroke: #ff7f0e; stroke-width: 1.5; stroke-linecap: square"/>
   </g>
   <g id="patch_15">
    <path d="M 60.635 678.04 
L 60.635 380.76 
" style="fill: none; stroke: #000000; stroke-width: 0.8; stroke-linejoin: miter; stroke-linecap: square"/>
   </g>
   <g id="patch_16">
    <path d="M 534.6 678.04 
L 534.6 380.76 
" style="fill: none; stroke: #000000; stroke-width: 0.8; stroke-linejoin: miter; stroke-linecap: square"/>
   </g>
   <g id="patch_17">
    <path d="M 60.635 678.04 
L 534.6 678.04 
" style="fill: none; stroke: #000000; stroke-width: 0.8; stroke-linejoin: miter; stroke-linecap: square"/>
   </g>
   <g id="patch_18">
    <path d="M 60.635 380.76 
L 534.6 380.76 
" style="fill: none; stroke: #000000; stroke-width: 0.8; stroke-linejoin: miter; stroke-linecap: square"/>
   </g>
   <g id="text_49">
    <!-- Training and Validation MAE (Skip first 50) -->
    <g transform="translate(171.715937 374.76) scale(0.12 -0.12)">
     <use xlink:href="#DejaVuSans-54"/>
     <use xlink:href="#DejaVuSans-72" x="46.333984"/>
     <use xlink:href="#DejaVuSans-61" x="87.447266"/>
     <use xlink:href="#DejaVuSans-69" x="148.726562"/>
     <use xlink:href="#DejaVuSans-6e" x="176.509766"/>
     <use xlink:href="#DejaVuSans-69" x="239.888672"/>
     <use xlink:href="#DejaVuSans-6e" x="267.671875"/>
     <use xlink:href="#DejaVuSans-67" x="331.050781"/>
     <use xlink:href="#DejaVuSans-20" x="394.527344"/>
     <use xlink:href="#DejaVuSans-61" x="426.314453"/>
     <use xlink:href="#DejaVuSans-6e" x="487.59375"/>
     <use xlink:href="#DejaVuSans-64" x="550.972656"/>
     <use xlink:href="#DejaVuSans-20" x="614.449219"/>
     <use xlink:href="#DejaVuSans-56" x="646.236328"/>
     <use xlink:href="#DejaVuSans-61" x="706.894531"/>
     <use xlink:href="#DejaVuSans-6c" x="768.173828"/>
     <use xlink:href="#DejaVuSans-69" x="795.957031"/>
     <use xlink:href="#DejaVuSans-64" x="823.740234"/>
     <use xlink:href="#DejaVuSans-61" x="887.216797"/>
     <use xlink:href="#DejaVuSans-74" x="948.496094"/>
     <use xlink:href="#DejaVuSans-69" x="987.705078"/>
     <use xlink:href="#DejaVuSans-6f" x="1015.488281"/>
     <use xlink:href="#DejaVuSans-6e" x="1076.669922"/>
     <use xlink:href="#DejaVuSans-20" x="1140.048828"/>
     <use xlink:href="#DejaVuSans-4d" x="1171.835938"/>
     <use xlink:href="#DejaVuSans-41" x="1258.115234"/>
     <use xlink:href="#DejaVuSans-45" x="1326.523438"/>
     <use xlink:href="#DejaVuSans-20" x="1389.707031"/>
     <use xlink:href="#DejaVuSans-28" x="1421.494141"/>
     <use xlink:href="#DejaVuSans-53" x="1460.507812"/>
     <use xlink:href="#DejaVuSans-6b" x="1523.984375"/>
     <use xlink:href="#DejaVuSans-69" x="1581.894531"/>
     <use xlink:href="#DejaVuSans-70" x="1609.677734"/>
     <use xlink:href="#DejaVuSans-20" x="1673.154297"/>
     <use xlink:href="#DejaVuSans-66" x="1704.941406"/>
     <use xlink:href="#DejaVuSans-69" x="1740.146484"/>
     <use xlink:href="#DejaVuSans-72" x="1767.929688"/>
     <use xlink:href="#DejaVuSans-73" x="1809.042969"/>
     <use xlink:href="#DejaVuSans-74" x="1861.142578"/>
     <use xlink:href="#DejaVuSans-20" x="1900.351562"/>
     <use xlink:href="#DejaVuSans-35" x="1932.138672"/>
     <use xlink:href="#DejaVuSans-30" x="1995.761719"/>
     <use xlink:href="#DejaVuSans-29" x="2059.384766"/>
    </g>
   </g>
   <g id="legend_3">
    <g id="patch_19">
     <path d="M 421.253125 418.11625 
L 527.6 418.11625 
Q 529.6 418.11625 529.6 416.11625 
L 529.6 387.76 
Q 529.6 385.76 527.6 385.76 
L 421.253125 385.76 
Q 419.253125 385.76 419.253125 387.76 
L 419.253125 416.11625 
Q 419.253125 418.11625 421.253125 418.11625 
z
" style="fill: #ffffff; opacity: 0.8; stroke: #cccccc; stroke-linejoin: miter"/>
    </g>
    <g id="line2d_47">
     <path d="M 423.253125 393.858438 
L 433.253125 393.858438 
L 443.253125 393.858438 
" style="fill: none; stroke: #1f77b4; stroke-width: 1.5; stroke-linecap: square"/>
    </g>
    <g id="text_50">
     <!-- Training MAE -->
     <g transform="translate(451.253125 397.358438) scale(0.1 -0.1)">
      <use xlink:href="#DejaVuSans-54"/>
      <use xlink:href="#DejaVuSans-72" x="46.333984"/>
      <use xlink:href="#DejaVuSans-61" x="87.447266"/>
      <use xlink:href="#DejaVuSans-69" x="148.726562"/>
      <use xlink:href="#DejaVuSans-6e" x="176.509766"/>
      <use xlink:href="#DejaVuSans-69" x="239.888672"/>
      <use xlink:href="#DejaVuSans-6e" x="267.671875"/>
      <use xlink:href="#DejaVuSans-67" x="331.050781"/>
      <use xlink:href="#DejaVuSans-20" x="394.527344"/>
      <use xlink:href="#DejaVuSans-4d" x="426.314453"/>
      <use xlink:href="#DejaVuSans-41" x="512.59375"/>
      <use xlink:href="#DejaVuSans-45" x="581.001953"/>
     </g>
    </g>
    <g id="line2d_48">
     <path d="M 423.253125 408.536563 
L 433.253125 408.536563 
L 443.253125 408.536563 
" style="fill: none; stroke: #ff7f0e; stroke-width: 1.5; stroke-linecap: square"/>
    </g>
    <g id="text_51">
     <!-- Validation MAE -->
     <g transform="translate(451.253125 412.036563) scale(0.1 -0.1)">
      <use xlink:href="#DejaVuSans-56"/>
      <use xlink:href="#DejaVuSans-61" x="60.658203"/>
      <use xlink:href="#DejaVuSans-6c" x="121.9375"/>
      <use xlink:href="#DejaVuSans-69" x="149.720703"/>
      <use xlink:href="#DejaVuSans-64" x="177.503906"/>
      <use xlink:href="#DejaVuSans-61" x="240.980469"/>
      <use xlink:href="#DejaVuSans-74" x="302.259766"/>
      <use xlink:href="#DejaVuSans-69" x="341.46875"/>
      <use xlink:href="#DejaVuSans-6f" x="369.251953"/>
      <use xlink:href="#DejaVuSans-6e" x="430.433594"/>
      <use xlink:href="#DejaVuSans-20" x="493.8125"/>
      <use xlink:href="#DejaVuSans-4d" x="525.599609"/>
      <use xlink:href="#DejaVuSans-41" x="611.878906"/>
      <use xlink:href="#DejaVuSans-45" x="680.287109"/>
     </g>
    </g>
   </g>
  </g>
  <g id="axes_4"/>
 </g>
 <defs>
  <clipPath id="p820b8fc54f">
   <rect x="60.635" y="26.16" width="473.965" height="297.28"/>
  </clipPath>
  <clipPath id="p7f46ceb437">
   <rect x="595.235" y="26.16" width="473.965" height="297.28"/>
  </clipPath>
  <clipPath id="p8559a5b964">
   <rect x="60.635" y="380.76" width="473.965" height="297.28"/>
  </clipPath>
 </defs>
</svg>
