<?xml version="1.0" encoding="utf-8" standalone="no"?>
<!DOCTYPE svg PUBLIC "-//W3C//DTD SVG 1.1//EN"
  "http://www.w3.org/Graphics/SVG/1.1/DTD/svg11.dtd">
<svg xmlns:xlink="http://www.w3.org/1999/xlink" width="1080pt" height="720pt" viewBox="0 0 1080 720" xmlns="http://www.w3.org/2000/svg" version="1.1">
 <metadata>
  <rdf:RDF xmlns:dc="http://purl.org/dc/elements/1.1/" xmlns:cc="http://creativecommons.org/ns#" xmlns:rdf="http://www.w3.org/1999/02/22-rdf-syntax-ns#">
   <cc:Work>
    <dc:type rdf:resource="http://purl.org/dc/dcmitype/StillImage"/>
    <dc:date>2024-04-13T15:26:01.051170</dc:date>
    <dc:format>image/svg+xml</dc:format>
    <dc:creator>
     <cc:Agent>
      <dc:title>Matplotlib v3.8.3, https://matplotlib.org/</dc:title>
     </cc:Agent>
    </dc:creator>
   </cc:Work>
  </rdf:RDF>
 </metadata>
 <defs>
  <style type="text/css">*{stroke-linejoin: round; stroke-linecap: butt}</style>
 </defs>
 <g id="figure_1">
  <g id="patch_1">
   <path d="M 0 720 
L 1080 720 
L 1080 0 
L 0 0 
z
" style="fill: #ffffff"/>
  </g>
  <g id="axes_1">
   <g id="patch_2">
    <path d="M 67.025 323.44 
L 531.4275 323.44 
L 531.4275 26.16 
L 67.025 26.16 
z
" style="fill: #ffffff"/>
   </g>
   <g id="matplotlib.axis_1">
    <g id="xtick_1">
     <g id="line2d_1">
      <defs>
       <path id="md8b1cd6b57" d="M 0 0 
L 0 3.5 
" style="stroke: #000000; stroke-width: 0.8"/>
      </defs>
      <g>
       <use xlink:href="#md8b1cd6b57" x="86.547046" y="323.44" style="stroke: #000000; stroke-width: 0.8"/>
      </g>
     </g>
     <g id="text_1">
      <!-- 0 -->
      <g transform="translate(83.365796 338.038438) scale(0.1 -0.1)">
       <defs>
        <path id="DejaVuSans-30" d="M 2034 4250 
Q 1547 4250 1301 3770 
Q 1056 3291 1056 2328 
Q 1056 1369 1301 889 
Q 1547 409 2034 409 
Q 2525 409 2770 889 
Q 3016 1369 3016 2328 
Q 3016 3291 2770 3770 
Q 2525 4250 2034 4250 
z
M 2034 4750 
Q 2819 4750 3233 4129 
Q 3647 3509 3647 2328 
Q 3647 1150 3233 529 
Q 2819 -91 2034 -91 
Q 1250 -91 836 529 
Q 422 1150 422 2328 
Q 422 3509 836 4129 
Q 1250 4750 2034 4750 
z
" transform="scale(0.015625)"/>
       </defs>
       <use xlink:href="#DejaVuSans-30"/>
      </g>
     </g>
    </g>
    <g id="xtick_2">
     <g id="line2d_2">
      <g>
       <use xlink:href="#md8b1cd6b57" x="165.904958" y="323.44" style="stroke: #000000; stroke-width: 0.8"/>
      </g>
     </g>
     <g id="text_2">
      <!-- 50 -->
      <g transform="translate(159.542458 338.038438) scale(0.1 -0.1)">
       <defs>
        <path id="DejaVuSans-35" d="M 691 4666 
L 3169 4666 
L 3169 4134 
L 1269 4134 
L 1269 2991 
Q 1406 3038 1543 3061 
Q 1681 3084 1819 3084 
Q 2600 3084 3056 2656 
Q 3513 2228 3513 1497 
Q 3513 744 3044 326 
Q 2575 -91 1722 -91 
Q 1428 -91 1123 -41 
Q 819 9 494 109 
L 494 744 
Q 775 591 1075 516 
Q 1375 441 1709 441 
Q 2250 441 2565 725 
Q 2881 1009 2881 1497 
Q 2881 1984 2565 2268 
Q 2250 2553 1709 2553 
Q 1456 2553 1204 2497 
Q 953 2441 691 2322 
L 691 4666 
z
" transform="scale(0.015625)"/>
       </defs>
       <use xlink:href="#DejaVuSans-35"/>
       <use xlink:href="#DejaVuSans-30" x="63.623047"/>
      </g>
     </g>
    </g>
    <g id="xtick_3">
     <g id="line2d_3">
      <g>
       <use xlink:href="#md8b1cd6b57" x="245.26287" y="323.44" style="stroke: #000000; stroke-width: 0.8"/>
      </g>
     </g>
     <g id="text_3">
      <!-- 100 -->
      <g transform="translate(235.71912 338.038438) scale(0.1 -0.1)">
       <defs>
        <path id="DejaVuSans-31" d="M 794 531 
L 1825 531 
L 1825 4091 
L 703 3866 
L 703 4441 
L 1819 4666 
L 2450 4666 
L 2450 531 
L 3481 531 
L 3481 0 
L 794 0 
L 794 531 
z
" transform="scale(0.015625)"/>
       </defs>
       <use xlink:href="#DejaVuSans-31"/>
       <use xlink:href="#DejaVuSans-30" x="63.623047"/>
       <use xlink:href="#DejaVuSans-30" x="127.246094"/>
      </g>
     </g>
    </g>
    <g id="xtick_4">
     <g id="line2d_4">
      <g>
       <use xlink:href="#md8b1cd6b57" x="324.620782" y="323.44" style="stroke: #000000; stroke-width: 0.8"/>
      </g>
     </g>
     <g id="text_4">
      <!-- 150 -->
      <g transform="translate(315.077032 338.038438) scale(0.1 -0.1)">
       <use xlink:href="#DejaVuSans-31"/>
       <use xlink:href="#DejaVuSans-35" x="63.623047"/>
       <use xlink:href="#DejaVuSans-30" x="127.246094"/>
      </g>
     </g>
    </g>
    <g id="xtick_5">
     <g id="line2d_5">
      <g>
       <use xlink:href="#md8b1cd6b57" x="403.978694" y="323.44" style="stroke: #000000; stroke-width: 0.8"/>
      </g>
     </g>
     <g id="text_5">
      <!-- 200 -->
      <g transform="translate(394.434944 338.038438) scale(0.1 -0.1)">
       <defs>
        <path id="DejaVuSans-32" d="M 1228 531 
L 3431 531 
L 3431 0 
L 469 0 
L 469 531 
Q 828 903 1448 1529 
Q 2069 2156 2228 2338 
Q 2531 2678 2651 2914 
Q 2772 3150 2772 3378 
Q 2772 3750 2511 3984 
Q 2250 4219 1831 4219 
Q 1534 4219 1204 4116 
Q 875 4013 500 3803 
L 500 4441 
Q 881 4594 1212 4672 
Q 1544 4750 1819 4750 
Q 2544 4750 2975 4387 
Q 3406 4025 3406 3419 
Q 3406 3131 3298 2873 
Q 3191 2616 2906 2266 
Q 2828 2175 2409 1742 
Q 1991 1309 1228 531 
z
" transform="scale(0.015625)"/>
       </defs>
       <use xlink:href="#DejaVuSans-32"/>
       <use xlink:href="#DejaVuSans-30" x="63.623047"/>
       <use xlink:href="#DejaVuSans-30" x="127.246094"/>
      </g>
     </g>
    </g>
    <g id="xtick_6">
     <g id="line2d_6">
      <g>
       <use xlink:href="#md8b1cd6b57" x="483.336605" y="323.44" style="stroke: #000000; stroke-width: 0.8"/>
      </g>
     </g>
     <g id="text_6">
      <!-- 250 -->
      <g transform="translate(473.792855 338.038438) scale(0.1 -0.1)">
       <use xlink:href="#DejaVuSans-32"/>
       <use xlink:href="#DejaVuSans-35" x="63.623047"/>
       <use xlink:href="#DejaVuSans-30" x="127.246094"/>
      </g>
     </g>
    </g>
    <g id="text_7">
     <!-- Epochs -->
     <g transform="translate(281.310625 351.716563) scale(0.1 -0.1)">
      <defs>
       <path id="DejaVuSans-45" d="M 628 4666 
L 3578 4666 
L 3578 4134 
L 1259 4134 
L 1259 2753 
L 3481 2753 
L 3481 2222 
L 1259 2222 
L 1259 531 
L 3634 531 
L 3634 0 
L 628 0 
L 628 4666 
z
" transform="scale(0.015625)"/>
       <path id="DejaVuSans-70" d="M 1159 525 
L 1159 -1331 
L 581 -1331 
L 581 3500 
L 1159 3500 
L 1159 2969 
Q 1341 3281 1617 3432 
Q 1894 3584 2278 3584 
Q 2916 3584 3314 3078 
Q 3713 2572 3713 1747 
Q 3713 922 3314 415 
Q 2916 -91 2278 -91 
Q 1894 -91 1617 61 
Q 1341 213 1159 525 
z
M 3116 1747 
Q 3116 2381 2855 2742 
Q 2594 3103 2138 3103 
Q 1681 3103 1420 2742 
Q 1159 2381 1159 1747 
Q 1159 1113 1420 752 
Q 1681 391 2138 391 
Q 2594 391 2855 752 
Q 3116 1113 3116 1747 
z
" transform="scale(0.015625)"/>
       <path id="DejaVuSans-6f" d="M 1959 3097 
Q 1497 3097 1228 2736 
Q 959 2375 959 1747 
Q 959 1119 1226 758 
Q 1494 397 1959 397 
Q 2419 397 2687 759 
Q 2956 1122 2956 1747 
Q 2956 2369 2687 2733 
Q 2419 3097 1959 3097 
z
M 1959 3584 
Q 2709 3584 3137 3096 
Q 3566 2609 3566 1747 
Q 3566 888 3137 398 
Q 2709 -91 1959 -91 
Q 1206 -91 779 398 
Q 353 888 353 1747 
Q 353 2609 779 3096 
Q 1206 3584 1959 3584 
z
" transform="scale(0.015625)"/>
       <path id="DejaVuSans-63" d="M 3122 3366 
L 3122 2828 
Q 2878 2963 2633 3030 
Q 2388 3097 2138 3097 
Q 1578 3097 1268 2742 
Q 959 2388 959 1747 
Q 959 1106 1268 751 
Q 1578 397 2138 397 
Q 2388 397 2633 464 
Q 2878 531 3122 666 
L 3122 134 
Q 2881 22 2623 -34 
Q 2366 -91 2075 -91 
Q 1284 -91 818 406 
Q 353 903 353 1747 
Q 353 2603 823 3093 
Q 1294 3584 2113 3584 
Q 2378 3584 2631 3529 
Q 2884 3475 3122 3366 
z
" transform="scale(0.015625)"/>
       <path id="DejaVuSans-68" d="M 3513 2113 
L 3513 0 
L 2938 0 
L 2938 2094 
Q 2938 2591 2744 2837 
Q 2550 3084 2163 3084 
Q 1697 3084 1428 2787 
Q 1159 2491 1159 1978 
L 1159 0 
L 581 0 
L 581 4863 
L 1159 4863 
L 1159 2956 
Q 1366 3272 1645 3428 
Q 1925 3584 2291 3584 
Q 2894 3584 3203 3211 
Q 3513 2838 3513 2113 
z
" transform="scale(0.015625)"/>
       <path id="DejaVuSans-73" d="M 2834 3397 
L 2834 2853 
Q 2591 2978 2328 3040 
Q 2066 3103 1784 3103 
Q 1356 3103 1142 2972 
Q 928 2841 928 2578 
Q 928 2378 1081 2264 
Q 1234 2150 1697 2047 
L 1894 2003 
Q 2506 1872 2764 1633 
Q 3022 1394 3022 966 
Q 3022 478 2636 193 
Q 2250 -91 1575 -91 
Q 1294 -91 989 -36 
Q 684 19 347 128 
L 347 722 
Q 666 556 975 473 
Q 1284 391 1588 391 
Q 1994 391 2212 530 
Q 2431 669 2431 922 
Q 2431 1156 2273 1281 
Q 2116 1406 1581 1522 
L 1381 1569 
Q 847 1681 609 1914 
Q 372 2147 372 2553 
Q 372 3047 722 3315 
Q 1072 3584 1716 3584 
Q 2034 3584 2315 3537 
Q 2597 3491 2834 3397 
z
" transform="scale(0.015625)"/>
      </defs>
      <use xlink:href="#DejaVuSans-45"/>
      <use xlink:href="#DejaVuSans-70" x="63.183594"/>
      <use xlink:href="#DejaVuSans-6f" x="126.660156"/>
      <use xlink:href="#DejaVuSans-63" x="187.841797"/>
      <use xlink:href="#DejaVuSans-68" x="242.822266"/>
      <use xlink:href="#DejaVuSans-73" x="306.201172"/>
     </g>
    </g>
   </g>
   <g id="matplotlib.axis_2">
    <g id="ytick_1">
     <g id="line2d_7">
      <defs>
       <path id="meea890c5c8" d="M 0 0 
L -3.5 0 
" style="stroke: #000000; stroke-width: 0.8"/>
      </defs>
      <g>
       <use xlink:href="#meea890c5c8" x="67.025" y="289.432561" style="stroke: #000000; stroke-width: 0.8"/>
      </g>
     </g>
     <g id="text_8">
      <!-- 0.9960 -->
      <g transform="translate(25.034375 293.23178) scale(0.1 -0.1)">
       <defs>
        <path id="DejaVuSans-2e" d="M 684 794 
L 1344 794 
L 1344 0 
L 684 0 
L 684 794 
z
" transform="scale(0.015625)"/>
        <path id="DejaVuSans-39" d="M 703 97 
L 703 672 
Q 941 559 1184 500 
Q 1428 441 1663 441 
Q 2288 441 2617 861 
Q 2947 1281 2994 2138 
Q 2813 1869 2534 1725 
Q 2256 1581 1919 1581 
Q 1219 1581 811 2004 
Q 403 2428 403 3163 
Q 403 3881 828 4315 
Q 1253 4750 1959 4750 
Q 2769 4750 3195 4129 
Q 3622 3509 3622 2328 
Q 3622 1225 3098 567 
Q 2575 -91 1691 -91 
Q 1453 -91 1209 -44 
Q 966 3 703 97 
z
M 1959 2075 
Q 2384 2075 2632 2365 
Q 2881 2656 2881 3163 
Q 2881 3666 2632 3958 
Q 2384 4250 1959 4250 
Q 1534 4250 1286 3958 
Q 1038 3666 1038 3163 
Q 1038 2656 1286 2365 
Q 1534 2075 1959 2075 
z
" transform="scale(0.015625)"/>
        <path id="DejaVuSans-36" d="M 2113 2584 
Q 1688 2584 1439 2293 
Q 1191 2003 1191 1497 
Q 1191 994 1439 701 
Q 1688 409 2113 409 
Q 2538 409 2786 701 
Q 3034 994 3034 1497 
Q 3034 2003 2786 2293 
Q 2538 2584 2113 2584 
z
M 3366 4563 
L 3366 3988 
Q 3128 4100 2886 4159 
Q 2644 4219 2406 4219 
Q 1781 4219 1451 3797 
Q 1122 3375 1075 2522 
Q 1259 2794 1537 2939 
Q 1816 3084 2150 3084 
Q 2853 3084 3261 2657 
Q 3669 2231 3669 1497 
Q 3669 778 3244 343 
Q 2819 -91 2113 -91 
Q 1303 -91 875 529 
Q 447 1150 447 2328 
Q 447 3434 972 4092 
Q 1497 4750 2381 4750 
Q 2619 4750 2861 4703 
Q 3103 4656 3366 4563 
z
" transform="scale(0.015625)"/>
       </defs>
       <use xlink:href="#DejaVuSans-30"/>
       <use xlink:href="#DejaVuSans-2e" x="63.623047"/>
       <use xlink:href="#DejaVuSans-39" x="95.410156"/>
       <use xlink:href="#DejaVuSans-39" x="159.033203"/>
       <use xlink:href="#DejaVuSans-36" x="222.65625"/>
       <use xlink:href="#DejaVuSans-30" x="286.279297"/>
      </g>
     </g>
    </g>
    <g id="ytick_2">
     <g id="line2d_8">
      <g>
       <use xlink:href="#meea890c5c8" x="67.025" y="254.917924" style="stroke: #000000; stroke-width: 0.8"/>
      </g>
     </g>
     <g id="text_9">
      <!-- 0.9965 -->
      <g transform="translate(25.034375 258.717142) scale(0.1 -0.1)">
       <use xlink:href="#DejaVuSans-30"/>
       <use xlink:href="#DejaVuSans-2e" x="63.623047"/>
       <use xlink:href="#DejaVuSans-39" x="95.410156"/>
       <use xlink:href="#DejaVuSans-39" x="159.033203"/>
       <use xlink:href="#DejaVuSans-36" x="222.65625"/>
       <use xlink:href="#DejaVuSans-35" x="286.279297"/>
      </g>
     </g>
    </g>
    <g id="ytick_3">
     <g id="line2d_9">
      <g>
       <use xlink:href="#meea890c5c8" x="67.025" y="220.403286" style="stroke: #000000; stroke-width: 0.8"/>
      </g>
     </g>
     <g id="text_10">
      <!-- 0.9970 -->
      <g transform="translate(25.034375 224.202505) scale(0.1 -0.1)">
       <defs>
        <path id="DejaVuSans-37" d="M 525 4666 
L 3525 4666 
L 3525 4397 
L 1831 0 
L 1172 0 
L 2766 4134 
L 525 4134 
L 525 4666 
z
" transform="scale(0.015625)"/>
       </defs>
       <use xlink:href="#DejaVuSans-30"/>
       <use xlink:href="#DejaVuSans-2e" x="63.623047"/>
       <use xlink:href="#DejaVuSans-39" x="95.410156"/>
       <use xlink:href="#DejaVuSans-39" x="159.033203"/>
       <use xlink:href="#DejaVuSans-37" x="222.65625"/>
       <use xlink:href="#DejaVuSans-30" x="286.279297"/>
      </g>
     </g>
    </g>
    <g id="ytick_4">
     <g id="line2d_10">
      <g>
       <use xlink:href="#meea890c5c8" x="67.025" y="185.888649" style="stroke: #000000; stroke-width: 0.8"/>
      </g>
     </g>
     <g id="text_11">
      <!-- 0.9975 -->
      <g transform="translate(25.034375 189.687868) scale(0.1 -0.1)">
       <use xlink:href="#DejaVuSans-30"/>
       <use xlink:href="#DejaVuSans-2e" x="63.623047"/>
       <use xlink:href="#DejaVuSans-39" x="95.410156"/>
       <use xlink:href="#DejaVuSans-39" x="159.033203"/>
       <use xlink:href="#DejaVuSans-37" x="222.65625"/>
       <use xlink:href="#DejaVuSans-35" x="286.279297"/>
      </g>
     </g>
    </g>
    <g id="ytick_5">
     <g id="line2d_11">
      <g>
       <use xlink:href="#meea890c5c8" x="67.025" y="151.374011" style="stroke: #000000; stroke-width: 0.8"/>
      </g>
     </g>
     <g id="text_12">
      <!-- 0.9980 -->
      <g transform="translate(25.034375 155.17323) scale(0.1 -0.1)">
       <defs>
        <path id="DejaVuSans-38" d="M 2034 2216 
Q 1584 2216 1326 1975 
Q 1069 1734 1069 1313 
Q 1069 891 1326 650 
Q 1584 409 2034 409 
Q 2484 409 2743 651 
Q 3003 894 3003 1313 
Q 3003 1734 2745 1975 
Q 2488 2216 2034 2216 
z
M 1403 2484 
Q 997 2584 770 2862 
Q 544 3141 544 3541 
Q 544 4100 942 4425 
Q 1341 4750 2034 4750 
Q 2731 4750 3128 4425 
Q 3525 4100 3525 3541 
Q 3525 3141 3298 2862 
Q 3072 2584 2669 2484 
Q 3125 2378 3379 2068 
Q 3634 1759 3634 1313 
Q 3634 634 3220 271 
Q 2806 -91 2034 -91 
Q 1263 -91 848 271 
Q 434 634 434 1313 
Q 434 1759 690 2068 
Q 947 2378 1403 2484 
z
M 1172 3481 
Q 1172 3119 1398 2916 
Q 1625 2713 2034 2713 
Q 2441 2713 2670 2916 
Q 2900 3119 2900 3481 
Q 2900 3844 2670 4047 
Q 2441 4250 2034 4250 
Q 1625 4250 1398 4047 
Q 1172 3844 1172 3481 
z
" transform="scale(0.015625)"/>
       </defs>
       <use xlink:href="#DejaVuSans-30"/>
       <use xlink:href="#DejaVuSans-2e" x="63.623047"/>
       <use xlink:href="#DejaVuSans-39" x="95.410156"/>
       <use xlink:href="#DejaVuSans-39" x="159.033203"/>
       <use xlink:href="#DejaVuSans-38" x="222.65625"/>
       <use xlink:href="#DejaVuSans-30" x="286.279297"/>
      </g>
     </g>
    </g>
    <g id="ytick_6">
     <g id="line2d_12">
      <g>
       <use xlink:href="#meea890c5c8" x="67.025" y="116.859374" style="stroke: #000000; stroke-width: 0.8"/>
      </g>
     </g>
     <g id="text_13">
      <!-- 0.9985 -->
      <g transform="translate(25.034375 120.658593) scale(0.1 -0.1)">
       <use xlink:href="#DejaVuSans-30"/>
       <use xlink:href="#DejaVuSans-2e" x="63.623047"/>
       <use xlink:href="#DejaVuSans-39" x="95.410156"/>
       <use xlink:href="#DejaVuSans-39" x="159.033203"/>
       <use xlink:href="#DejaVuSans-38" x="222.65625"/>
       <use xlink:href="#DejaVuSans-35" x="286.279297"/>
      </g>
     </g>
    </g>
    <g id="ytick_7">
     <g id="line2d_13">
      <g>
       <use xlink:href="#meea890c5c8" x="67.025" y="82.344737" style="stroke: #000000; stroke-width: 0.8"/>
      </g>
     </g>
     <g id="text_14">
      <!-- 0.9990 -->
      <g transform="translate(25.034375 86.143955) scale(0.1 -0.1)">
       <use xlink:href="#DejaVuSans-30"/>
       <use xlink:href="#DejaVuSans-2e" x="63.623047"/>
       <use xlink:href="#DejaVuSans-39" x="95.410156"/>
       <use xlink:href="#DejaVuSans-39" x="159.033203"/>
       <use xlink:href="#DejaVuSans-39" x="222.65625"/>
       <use xlink:href="#DejaVuSans-30" x="286.279297"/>
      </g>
     </g>
    </g>
    <g id="ytick_8">
     <g id="line2d_14">
      <g>
       <use xlink:href="#meea890c5c8" x="67.025" y="47.830099" style="stroke: #000000; stroke-width: 0.8"/>
      </g>
     </g>
     <g id="text_15">
      <!-- 0.9995 -->
      <g transform="translate(25.034375 51.629318) scale(0.1 -0.1)">
       <use xlink:href="#DejaVuSans-30"/>
       <use xlink:href="#DejaVuSans-2e" x="63.623047"/>
       <use xlink:href="#DejaVuSans-39" x="95.410156"/>
       <use xlink:href="#DejaVuSans-39" x="159.033203"/>
       <use xlink:href="#DejaVuSans-39" x="222.65625"/>
       <use xlink:href="#DejaVuSans-35" x="286.279297"/>
      </g>
     </g>
    </g>
    <g id="text_16">
     <!-- Loss -->
     <g transform="translate(18.954688 185.767188) rotate(-90) scale(0.1 -0.1)">
      <defs>
       <path id="DejaVuSans-4c" d="M 628 4666 
L 1259 4666 
L 1259 531 
L 3531 531 
L 3531 0 
L 628 0 
L 628 4666 
z
" transform="scale(0.015625)"/>
      </defs>
      <use xlink:href="#DejaVuSans-4c"/>
      <use xlink:href="#DejaVuSans-6f" x="53.962891"/>
      <use xlink:href="#DejaVuSans-73" x="115.144531"/>
      <use xlink:href="#DejaVuSans-73" x="167.244141"/>
     </g>
    </g>
   </g>
   <g id="line2d_15">
    <path d="M 88.134205 39.672727 
L 89.721363 147.611613 
L 91.308521 173.475142 
L 92.895679 182.045574 
L 94.482837 179.988341 
L 96.069996 178.716971 
L 97.657154 179.762045 
L 99.244312 177.482631 
L 100.83147 181.210337 
L 102.418629 181.979742 
L 104.005787 179.083158 
L 105.592945 180.33807 
L 107.180103 181.296741 
L 108.767262 178.083343 
L 111.941578 183.053618 
L 113.528736 177.532005 
L 115.115895 180.506764 
L 116.703053 181.18565 
L 118.290211 183.547353 
L 119.877369 180.305155 
L 121.464528 182.025001 
L 123.051686 182.580454 
L 124.638844 180.021257 
L 126.226002 182.07026 
L 127.81316 180.198179 
L 129.400319 182.506394 
L 130.987477 181.296741 
L 132.574635 181.761675 
L 134.161793 182.860238 
L 135.748952 179.301225 
L 137.33611 180.247552 
L 138.923268 178.659369 
L 140.510426 183.699589 
L 142.097585 178.893893 
L 143.684743 180.99227 
L 145.271901 182.897268 
L 146.859059 181.774019 
L 148.446218 182.572225 
L 150.033376 178.844519 
L 151.620534 178.758116 
L 153.207692 181.342 
L 154.79485 179.626268 
L 156.382009 181.140391 
L 157.969167 182.333586 
L 159.556325 182.794406 
L 161.143483 181.539494 
L 162.730642 180.745403 
L 164.3178 180.984041 
L 165.904958 186.065406 
L 167.492116 183.588498 
L 169.079275 181.860423 
L 170.666433 181.860423 
L 172.253591 179.897823 
L 173.840749 176.322352 
L 175.427908 179.922509 
L 177.015066 179.140761 
L 178.602224 180.120004 
L 180.189382 182.41999 
L 181.77654 181.14862 
L 183.363699 179.57278 
L 186.538015 182.164893 
L 188.125173 182.259526 
L 189.712332 181.095132 
L 191.29949 183.810679 
L 192.886648 182.596912 
L 194.473806 181.732874 
L 196.060965 180.469733 
L 197.648123 180.667228 
L 199.235281 182.078489 
L 200.822439 181.630013 
L 202.409598 179.76616 
L 203.996756 182.214267 
L 205.583914 181.687615 
L 207.171072 180.909981 
L 208.758231 182.234839 
L 210.345389 181.029301 
L 213.519705 183.596727 
L 215.106863 181.909796 
L 218.28118 181.358458 
L 219.868338 182.987786 
L 221.455496 181.642356 
L 223.042655 179.523406 
L 224.629813 180.177606 
L 226.216971 182.675087 
L 227.804129 185.402977 
L 229.391288 178.671712 
L 230.978446 181.403717 
L 232.565604 181.975628 
L 234.152762 182.913726 
L 235.739921 184.213897 
L 237.327079 181.214452 
L 238.914237 181.189765 
L 240.501395 179.556322 
L 242.088553 179.021442 
L 243.675712 181.494235 
L 245.26287 182.835551 
L 246.850028 180.712487 
L 248.437186 181.103361 
L 250.024345 179.581009 
L 251.611503 180.827692 
L 253.198661 180.786547 
L 254.785819 181.300855 
L 256.372978 180.856493 
L 257.960136 181.156849 
L 259.547294 181.165078 
L 261.134452 180.399787 
L 262.721611 183.596727 
L 264.308769 182.720346 
L 265.895927 180.770089 
L 267.483085 181.029301 
L 269.070244 182.34593 
L 270.657402 181.091018 
L 272.24456 182.123748 
L 273.831718 181.905682 
L 275.418876 182.889039 
L 277.006035 182.856123 
L 278.593193 178.79926 
L 280.180351 178.321982 
L 281.767509 179.87725 
L 283.354668 182.543424 
L 284.941826 181.448976 
L 286.528984 180.580824 
L 288.116142 181.588868 
L 289.703301 179.26008 
L 291.290459 180.120004 
L 292.877617 183.785992 
L 294.464775 180.115889 
L 296.051934 183.119449 
L 297.639092 181.782248 
L 299.22625 181.403717 
L 300.813408 180.395673 
L 302.400566 181.708187 
L 303.987725 181.387259 
L 305.574883 180.498535 
L 307.162041 180.025371 
L 308.749199 177.532005 
L 310.336358 183.670787 
L 311.923516 180.774204 
L 313.510674 180.366872 
L 315.097832 180.76186 
L 316.684991 179.26008 
L 318.272149 185.707448 
L 319.859307 180.942897 
L 321.446465 179.963654 
L 323.033624 180.61374 
L 324.620782 181.774019 
L 326.20794 179.823762 
L 327.795098 178.856863 
L 329.382256 181.115704 
L 332.556573 180.872951 
L 334.143731 183.033045 
L 335.730889 182.670972 
L 337.318048 180.56848 
L 338.905206 179.309454 
L 340.492364 182.629828 
L 342.079522 184.386704 
L 343.666681 181.366687 
L 345.253839 185.394748 
L 346.840997 182.313014 
L 348.428155 180.654884 
L 350.015314 180.589053 
L 351.602472 181.782248 
L 353.18963 181.843965 
L 356.363947 183.090648 
L 357.951105 182.757376 
L 359.538263 181.107475 
L 361.125421 183.732504 
L 362.712579 178.14506 
L 364.299738 183.526781 
L 367.474054 182.963099 
L 369.061212 181.597097 
L 370.648371 180.490306 
L 372.235529 180.996385 
L 373.822687 180.720716 
L 375.409845 181.214452 
L 376.997004 179.601581 
L 378.584162 180.621969 
L 380.17132 182.72446 
L 381.758478 179.103731 
L 383.345637 181.432518 
L 384.932795 180.642541 
L 386.519953 180.152919 
L 388.107111 181.905682 
L 389.694269 181.53538 
L 391.281428 180.794776 
L 392.868586 182.436448 
L 396.042902 180.815348 
L 397.630061 183.201738 
L 399.217219 181.671157 
L 400.804377 180.938782 
L 402.391535 181.852194 
L 403.978694 180.136462 
L 405.565852 179.856678 
L 407.15301 181.029301 
L 408.740168 180.416245 
L 410.327327 182.522852 
L 411.914485 178.996755 
L 413.501643 182.49405 
L 415.088801 179.60981 
L 416.67596 182.852009 
L 418.263118 179.91428 
L 419.850276 179.255966 
L 421.437434 183.189395 
L 423.024592 182.173122 
L 424.611751 180.087088 
L 426.198909 181.601211 
L 427.786067 184.362018 
L 429.373225 179.412316 
L 430.960384 181.300855 
L 432.547542 181.156849 
L 434.1347 181.938597 
L 435.721858 179.864907 
L 437.309017 183.033045 
L 438.896175 181.712302 
L 440.483333 180.222865 
L 442.070491 179.823762 
L 443.65765 180.947011 
L 445.244808 180.930553 
L 446.831966 181.564181 
L 448.419124 181.008728 
L 450.006282 180.91821 
L 451.593441 180.350414 
L 453.180599 181.156849 
L 456.354915 180.206408 
L 457.942074 180.835921 
L 459.529232 180.325727 
L 461.11639 180.22698 
L 462.703548 182.370616 
L 464.290707 183.637872 
L 465.877865 179.943082 
L 467.465023 182.646286 
L 469.052181 183.888854 
L 470.63934 180.161148 
L 472.226498 179.963654 
L 473.813656 181.815164 
L 475.400814 181.720531 
L 476.987972 182.041459 
L 478.575131 181.399603 
L 480.162289 182.926069 
L 481.749447 180.243438 
L 483.336605 182.699774 
L 484.923764 183.641986 
L 486.510922 181.14862 
L 488.09808 181.099247 
L 489.685238 182.062031 
L 491.272397 181.83985 
L 492.859555 183.481522 
L 494.446713 182.148435 
L 499.208188 181.605326 
L 500.795346 183.189395 
L 502.382504 181.115704 
L 503.969663 180.667228 
L 505.556821 182.448791 
L 507.143979 181.712302 
L 508.731137 181.523036 
L 510.318295 180.432703 
L 510.318295 180.432703 
" clip-path="url(#pd057540cb2)" style="fill: none; stroke: #1f77b4; stroke-width: 1.5; stroke-linecap: square"/>
   </g>
   <g id="line2d_16">
    <path d="M 88.134205 236.043818 
L 89.721363 282.459102 
L 91.308521 294.403395 
L 92.895679 289.132765 
L 94.482837 293.432381 
L 96.069996 296.662236 
L 97.657154 297.748455 
L 99.244312 298.550776 
L 100.83147 297.069568 
L 102.418629 300.01964 
L 104.005787 301.311582 
L 105.592945 304.693673 
L 107.180103 303.340014 
L 108.767262 299.562934 
L 110.35442 298.842903 
L 111.941578 296.798014 
L 113.528736 302.953254 
L 115.115895 303.142519 
L 116.703053 296.818586 
L 118.290211 288.684288 
L 119.877369 298.460258 
L 121.464528 301.78886 
L 123.051686 300.863105 
L 124.638844 302.253795 
L 126.226002 295.481385 
L 127.81316 289.823995 
L 129.400319 296.736297 
L 130.987477 302.426602 
L 132.574635 303.278297 
L 134.161793 298.896391 
L 135.748952 296.477085 
L 137.33611 294.580317 
L 138.923268 293.317176 
L 140.510426 297.003737 
L 142.097585 293.111453 
L 143.684743 297.756684 
L 145.271901 300.036098 
L 146.859059 293.675134 
L 148.446218 293.395351 
L 150.033376 295.650078 
L 151.620534 299.501217 
L 153.207692 301.858806 
L 154.79485 301.912294 
L 156.382009 300.459888 
L 157.969167 298.316251 
L 159.556325 298.567234 
L 161.143483 288.803607 
L 162.730642 296.357766 
L 164.3178 292.564229 
L 165.904958 301.027684 
L 167.492116 299.044512 
L 169.079275 291.654932 
L 170.666433 287.548695 
L 172.253591 291.47801 
L 173.840749 292.148668 
L 175.427908 297.70731 
L 177.015066 298.94165 
L 178.602224 302.274367 
L 180.189382 293.362435 
L 181.77654 296.143814 
L 183.363699 294.090695 
L 184.950857 296.798014 
L 188.125173 301.760059 
L 189.712332 295.604819 
L 191.29949 288.338673 
L 192.886648 285.211679 
L 194.473806 294.349907 
L 196.060965 294.835414 
L 197.648123 299.690483 
L 200.822439 298.098185 
L 202.409598 294.230587 
L 203.996756 295.650078 
L 205.583914 294.913588 
L 207.171072 298.550776 
L 208.758231 303.841978 
L 210.345389 302.130361 
L 211.932547 301.0606 
L 213.519705 308.36789 
L 215.106863 302.739302 
L 216.694022 299.571163 
L 218.28118 299.167946 
L 219.868338 298.402655 
L 221.455496 298.719469 
L 223.042655 296.053295 
L 224.629813 295.580132 
L 226.216971 290.223098 
L 227.804129 286.952098 
L 229.391288 293.82737 
L 230.978446 298.36151 
L 232.565604 294.835414 
L 234.152762 301.393871 
L 235.739921 291.807167 
L 237.327079 297.003737 
L 238.914237 299.66991 
L 240.501395 301.583137 
L 242.088553 296.090326 
L 243.675712 297.275292 
L 245.26287 294.843643 
L 246.850028 294.736666 
L 248.437186 290.947244 
L 250.024345 289.441349 
L 251.611503 294.337563 
L 253.198661 296.403025 
L 254.785819 298.986909 
L 256.372978 298.999253 
L 257.960136 303.405845 
L 259.547294 298.155787 
L 261.134452 291.844197 
L 262.721611 300.521605 
L 264.308769 295.695337 
L 265.895927 299.599965 
L 267.483085 298.645409 
L 269.070244 295.28389 
L 270.657402 303.78849 
L 272.24456 309.927273 
L 273.831718 297.077797 
L 275.418876 292.444909 
L 277.006035 295.345607 
L 278.593193 300.513376 
L 280.180351 299.904435 
L 281.767509 302.344313 
L 283.354668 301.879378 
L 284.941826 297.662051 
L 286.528984 297.238261 
L 288.116142 299.706941 
L 289.703301 296.090326 
L 291.290459 297.361695 
L 292.877617 300.603894 
L 294.464775 298.493173 
L 296.051934 302.998513 
L 297.639092 294.411624 
L 299.22625 295.658307 
L 300.813408 303.697972 
L 302.400566 299.069199 
L 303.987725 299.941465 
L 305.574883 292.481939 
L 307.162041 292.255644 
L 308.749199 296.349537 
L 310.336358 301.805318 
L 311.923516 297.534503 
L 313.510674 300.826075 
L 315.097832 296.608748 
L 316.684991 300.282966 
L 318.272149 287.034387 
L 319.859307 284.919552 
L 323.033624 295.678879 
L 326.20794 295.983349 
L 327.795098 296.798014 
L 329.382256 297.312322 
L 330.969415 302.10156 
L 332.556573 299.579392 
L 334.143731 302.352542 
L 335.730889 303.150748 
L 337.318048 300.05667 
L 338.905206 295.876373 
L 340.492364 293.909659 
L 342.079522 300.846648 
L 343.666681 302.702271 
L 345.253839 291.807167 
L 346.840997 290.042061 
L 348.428155 287.840822 
L 350.015314 291.654932 
L 351.602472 300.809617 
L 353.18963 301.233407 
L 354.776788 295.802313 
L 356.363947 300.990654 
L 357.951105 309.692748 
L 359.538263 302.44306 
L 361.125421 305.277927 
L 362.712579 301.850577 
L 364.299738 303.163092 
L 365.886896 294.732552 
L 367.474054 307.664317 
L 369.061212 303.241266 
L 370.648371 293.325405 
L 372.235529 290.70449 
L 373.822687 296.25079 
L 375.409845 293.156712 
L 376.997004 296.654007 
L 378.584162 293.531128 
L 380.17132 297.608563 
L 381.758478 298.999253 
L 383.345637 299.797459 
L 384.932795 297.032538 
L 386.519953 295.93809 
L 388.107111 298.665981 
L 389.694269 298.612493 
L 392.868586 297.131285 
L 394.455744 302.702271 
L 396.042902 300.505147 
L 397.630061 294.386937 
L 399.217219 295.757054 
L 400.804377 300.891907 
L 402.391535 296.563489 
L 403.978694 295.740596 
L 405.565852 294.386937 
L 407.15301 297.262948 
L 408.740168 294.851871 
L 410.327327 298.164016 
L 411.914485 303.809063 
L 413.501643 299.311952 
L 415.088801 302.327855 
L 416.67596 297.193002 
L 418.263118 297.867775 
L 419.850276 297.114827 
L 421.437434 297.312322 
L 423.024592 302.731073 
L 424.611751 300.961853 
L 426.198909 300.727328 
L 427.786067 298.826445 
L 429.373225 299.36544 
L 430.960384 297.954178 
L 432.547542 302.570609 
L 434.1347 300.422858 
L 435.721858 300.352912 
L 437.309017 299.653453 
L 438.896175 302.973826 
L 440.483333 303.55808 
L 442.070491 300.332339 
L 443.65765 298.172245 
L 445.244808 301.426787 
L 446.831966 299.678139 
L 448.419124 300.13896 
L 450.006282 296.423597 
L 451.593441 299.250235 
L 453.180599 296.872074 
L 454.767757 295.534873 
L 456.354915 301.895836 
L 457.942074 297.24649 
L 459.529232 293.218429 
L 461.11639 293.074422 
L 462.703548 297.443985 
L 464.290707 299.311952 
L 465.877865 292.769952 
L 467.465023 284.944239 
L 469.052181 279.253933 
L 470.63934 280.652851 
L 472.226498 293.82737 
L 473.813656 291.424522 
L 475.400814 290.391791 
L 476.987972 291.844197 
L 478.575131 288.614342 
L 480.162289 289.844567 
L 481.749447 292.004661 
L 483.336605 294.382822 
L 484.923764 297.974751 
L 486.510922 303.710316 
L 488.09808 306.33123 
L 489.685238 299.624651 
L 491.272397 298.71124 
L 492.859555 301.607824 
L 494.446713 299.196747 
L 496.033871 292.049921 
L 497.62103 299.077427 
L 499.208188 301.529649 
L 500.795346 300.245936 
L 502.382504 303.010856 
L 503.969663 303.574538 
L 505.556821 300.468117 
L 507.143979 293.740966 
L 508.731137 303.710316 
L 510.318295 299.686368 
L 510.318295 299.686368 
" clip-path="url(#pd057540cb2)" style="fill: none; stroke: #ff7f0e; stroke-width: 1.5; stroke-linecap: square"/>
   </g>
   <g id="patch_3">
    <path d="M 67.025 323.44 
L 67.025 26.16 
" style="fill: none; stroke: #000000; stroke-width: 0.8; stroke-linejoin: miter; stroke-linecap: square"/>
   </g>
   <g id="patch_4">
    <path d="M 531.4275 323.44 
L 531.4275 26.16 
" style="fill: none; stroke: #000000; stroke-width: 0.8; stroke-linejoin: miter; stroke-linecap: square"/>
   </g>
   <g id="patch_5">
    <path d="M 67.025 323.44 
L 531.4275 323.44 
" style="fill: none; stroke: #000000; stroke-width: 0.8; stroke-linejoin: miter; stroke-linecap: square"/>
   </g>
   <g id="patch_6">
    <path d="M 67.025 26.16 
L 531.4275 26.16 
" style="fill: none; stroke: #000000; stroke-width: 0.8; stroke-linejoin: miter; stroke-linecap: square"/>
   </g>
   <g id="text_17">
    <!-- Training and Validation Loss -->
    <g transform="translate(215.756875 20.16) scale(0.12 -0.12)">
     <defs>
      <path id="DejaVuSans-54" d="M -19 4666 
L 3928 4666 
L 3928 4134 
L 2272 4134 
L 2272 0 
L 1638 0 
L 1638 4134 
L -19 4134 
L -19 4666 
z
" transform="scale(0.015625)"/>
      <path id="DejaVuSans-72" d="M 2631 2963 
Q 2534 3019 2420 3045 
Q 2306 3072 2169 3072 
Q 1681 3072 1420 2755 
Q 1159 2438 1159 1844 
L 1159 0 
L 581 0 
L 581 3500 
L 1159 3500 
L 1159 2956 
Q 1341 3275 1631 3429 
Q 1922 3584 2338 3584 
Q 2397 3584 2469 3576 
Q 2541 3569 2628 3553 
L 2631 2963 
z
" transform="scale(0.015625)"/>
      <path id="DejaVuSans-61" d="M 2194 1759 
Q 1497 1759 1228 1600 
Q 959 1441 959 1056 
Q 959 750 1161 570 
Q 1363 391 1709 391 
Q 2188 391 2477 730 
Q 2766 1069 2766 1631 
L 2766 1759 
L 2194 1759 
z
M 3341 1997 
L 3341 0 
L 2766 0 
L 2766 531 
Q 2569 213 2275 61 
Q 1981 -91 1556 -91 
Q 1019 -91 701 211 
Q 384 513 384 1019 
Q 384 1609 779 1909 
Q 1175 2209 1959 2209 
L 2766 2209 
L 2766 2266 
Q 2766 2663 2505 2880 
Q 2244 3097 1772 3097 
Q 1472 3097 1187 3025 
Q 903 2953 641 2809 
L 641 3341 
Q 956 3463 1253 3523 
Q 1550 3584 1831 3584 
Q 2591 3584 2966 3190 
Q 3341 2797 3341 1997 
z
" transform="scale(0.015625)"/>
      <path id="DejaVuSans-69" d="M 603 3500 
L 1178 3500 
L 1178 0 
L 603 0 
L 603 3500 
z
M 603 4863 
L 1178 4863 
L 1178 4134 
L 603 4134 
L 603 4863 
z
" transform="scale(0.015625)"/>
      <path id="DejaVuSans-6e" d="M 3513 2113 
L 3513 0 
L 2938 0 
L 2938 2094 
Q 2938 2591 2744 2837 
Q 2550 3084 2163 3084 
Q 1697 3084 1428 2787 
Q 1159 2491 1159 1978 
L 1159 0 
L 581 0 
L 581 3500 
L 1159 3500 
L 1159 2956 
Q 1366 3272 1645 3428 
Q 1925 3584 2291 3584 
Q 2894 3584 3203 3211 
Q 3513 2838 3513 2113 
z
" transform="scale(0.015625)"/>
      <path id="DejaVuSans-67" d="M 2906 1791 
Q 2906 2416 2648 2759 
Q 2391 3103 1925 3103 
Q 1463 3103 1205 2759 
Q 947 2416 947 1791 
Q 947 1169 1205 825 
Q 1463 481 1925 481 
Q 2391 481 2648 825 
Q 2906 1169 2906 1791 
z
M 3481 434 
Q 3481 -459 3084 -895 
Q 2688 -1331 1869 -1331 
Q 1566 -1331 1297 -1286 
Q 1028 -1241 775 -1147 
L 775 -588 
Q 1028 -725 1275 -790 
Q 1522 -856 1778 -856 
Q 2344 -856 2625 -561 
Q 2906 -266 2906 331 
L 2906 616 
Q 2728 306 2450 153 
Q 2172 0 1784 0 
Q 1141 0 747 490 
Q 353 981 353 1791 
Q 353 2603 747 3093 
Q 1141 3584 1784 3584 
Q 2172 3584 2450 3431 
Q 2728 3278 2906 2969 
L 2906 3500 
L 3481 3500 
L 3481 434 
z
" transform="scale(0.015625)"/>
      <path id="DejaVuSans-20" transform="scale(0.015625)"/>
      <path id="DejaVuSans-64" d="M 2906 2969 
L 2906 4863 
L 3481 4863 
L 3481 0 
L 2906 0 
L 2906 525 
Q 2725 213 2448 61 
Q 2172 -91 1784 -91 
Q 1150 -91 751 415 
Q 353 922 353 1747 
Q 353 2572 751 3078 
Q 1150 3584 1784 3584 
Q 2172 3584 2448 3432 
Q 2725 3281 2906 2969 
z
M 947 1747 
Q 947 1113 1208 752 
Q 1469 391 1925 391 
Q 2381 391 2643 752 
Q 2906 1113 2906 1747 
Q 2906 2381 2643 2742 
Q 2381 3103 1925 3103 
Q 1469 3103 1208 2742 
Q 947 2381 947 1747 
z
" transform="scale(0.015625)"/>
      <path id="DejaVuSans-56" d="M 1831 0 
L 50 4666 
L 709 4666 
L 2188 738 
L 3669 4666 
L 4325 4666 
L 2547 0 
L 1831 0 
z
" transform="scale(0.015625)"/>
      <path id="DejaVuSans-6c" d="M 603 4863 
L 1178 4863 
L 1178 0 
L 603 0 
L 603 4863 
z
" transform="scale(0.015625)"/>
      <path id="DejaVuSans-74" d="M 1172 4494 
L 1172 3500 
L 2356 3500 
L 2356 3053 
L 1172 3053 
L 1172 1153 
Q 1172 725 1289 603 
Q 1406 481 1766 481 
L 2356 481 
L 2356 0 
L 1766 0 
Q 1100 0 847 248 
Q 594 497 594 1153 
L 594 3053 
L 172 3053 
L 172 3500 
L 594 3500 
L 594 4494 
L 1172 4494 
z
" transform="scale(0.015625)"/>
     </defs>
     <use xlink:href="#DejaVuSans-54"/>
     <use xlink:href="#DejaVuSans-72" x="46.333984"/>
     <use xlink:href="#DejaVuSans-61" x="87.447266"/>
     <use xlink:href="#DejaVuSans-69" x="148.726562"/>
     <use xlink:href="#DejaVuSans-6e" x="176.509766"/>
     <use xlink:href="#DejaVuSans-69" x="239.888672"/>
     <use xlink:href="#DejaVuSans-6e" x="267.671875"/>
     <use xlink:href="#DejaVuSans-67" x="331.050781"/>
     <use xlink:href="#DejaVuSans-20" x="394.527344"/>
     <use xlink:href="#DejaVuSans-61" x="426.314453"/>
     <use xlink:href="#DejaVuSans-6e" x="487.59375"/>
     <use xlink:href="#DejaVuSans-64" x="550.972656"/>
     <use xlink:href="#DejaVuSans-20" x="614.449219"/>
     <use xlink:href="#DejaVuSans-56" x="646.236328"/>
     <use xlink:href="#DejaVuSans-61" x="706.894531"/>
     <use xlink:href="#DejaVuSans-6c" x="768.173828"/>
     <use xlink:href="#DejaVuSans-69" x="795.957031"/>
     <use xlink:href="#DejaVuSans-64" x="823.740234"/>
     <use xlink:href="#DejaVuSans-61" x="887.216797"/>
     <use xlink:href="#DejaVuSans-74" x="948.496094"/>
     <use xlink:href="#DejaVuSans-69" x="987.705078"/>
     <use xlink:href="#DejaVuSans-6f" x="1015.488281"/>
     <use xlink:href="#DejaVuSans-6e" x="1076.669922"/>
     <use xlink:href="#DejaVuSans-20" x="1140.048828"/>
     <use xlink:href="#DejaVuSans-4c" x="1171.835938"/>
     <use xlink:href="#DejaVuSans-6f" x="1225.798828"/>
     <use xlink:href="#DejaVuSans-73" x="1286.980469"/>
     <use xlink:href="#DejaVuSans-73" x="1339.080078"/>
    </g>
   </g>
   <g id="legend_1">
    <g id="patch_7">
     <path d="M 420.5525 63.51625 
L 524.4275 63.51625 
Q 526.4275 63.51625 526.4275 61.51625 
L 526.4275 33.16 
Q 526.4275 31.16 524.4275 31.16 
L 420.5525 31.16 
Q 418.5525 31.16 418.5525 33.16 
L 418.5525 61.51625 
Q 418.5525 63.51625 420.5525 63.51625 
z
" style="fill: #ffffff; opacity: 0.8; stroke: #cccccc; stroke-linejoin: miter"/>
    </g>
    <g id="line2d_17">
     <path d="M 422.5525 39.258438 
L 432.5525 39.258438 
L 442.5525 39.258438 
" style="fill: none; stroke: #1f77b4; stroke-width: 1.5; stroke-linecap: square"/>
    </g>
    <g id="text_18">
     <!-- Training loss -->
     <g transform="translate(450.5525 42.758438) scale(0.1 -0.1)">
      <use xlink:href="#DejaVuSans-54"/>
      <use xlink:href="#DejaVuSans-72" x="46.333984"/>
      <use xlink:href="#DejaVuSans-61" x="87.447266"/>
      <use xlink:href="#DejaVuSans-69" x="148.726562"/>
      <use xlink:href="#DejaVuSans-6e" x="176.509766"/>
      <use xlink:href="#DejaVuSans-69" x="239.888672"/>
      <use xlink:href="#DejaVuSans-6e" x="267.671875"/>
      <use xlink:href="#DejaVuSans-67" x="331.050781"/>
      <use xlink:href="#DejaVuSans-20" x="394.527344"/>
      <use xlink:href="#DejaVuSans-6c" x="426.314453"/>
      <use xlink:href="#DejaVuSans-6f" x="454.097656"/>
      <use xlink:href="#DejaVuSans-73" x="515.279297"/>
      <use xlink:href="#DejaVuSans-73" x="567.378906"/>
     </g>
    </g>
    <g id="line2d_18">
     <path d="M 422.5525 53.936563 
L 432.5525 53.936563 
L 442.5525 53.936563 
" style="fill: none; stroke: #ff7f0e; stroke-width: 1.5; stroke-linecap: square"/>
    </g>
    <g id="text_19">
     <!-- Validation loss -->
     <g transform="translate(450.5525 57.436563) scale(0.1 -0.1)">
      <use xlink:href="#DejaVuSans-56"/>
      <use xlink:href="#DejaVuSans-61" x="60.658203"/>
      <use xlink:href="#DejaVuSans-6c" x="121.9375"/>
      <use xlink:href="#DejaVuSans-69" x="149.720703"/>
      <use xlink:href="#DejaVuSans-64" x="177.503906"/>
      <use xlink:href="#DejaVuSans-61" x="240.980469"/>
      <use xlink:href="#DejaVuSans-74" x="302.259766"/>
      <use xlink:href="#DejaVuSans-69" x="341.46875"/>
      <use xlink:href="#DejaVuSans-6f" x="369.251953"/>
      <use xlink:href="#DejaVuSans-6e" x="430.433594"/>
      <use xlink:href="#DejaVuSans-20" x="493.8125"/>
      <use xlink:href="#DejaVuSans-6c" x="525.599609"/>
      <use xlink:href="#DejaVuSans-6f" x="553.382812"/>
      <use xlink:href="#DejaVuSans-73" x="614.564453"/>
      <use xlink:href="#DejaVuSans-73" x="666.664062"/>
     </g>
    </g>
   </g>
  </g>
  <g id="axes_2">
   <g id="patch_8">
    <path d="M 604.7975 323.44 
L 1069.2 323.44 
L 1069.2 26.16 
L 604.7975 26.16 
z
" style="fill: #ffffff"/>
   </g>
   <g id="matplotlib.axis_3">
    <g id="xtick_7">
     <g id="line2d_19">
      <g>
       <use xlink:href="#md8b1cd6b57" x="623.952149" y="323.44" style="stroke: #000000; stroke-width: 0.8"/>
      </g>
     </g>
     <g id="text_20">
      <!-- 50 -->
      <g transform="translate(617.589649 338.038438) scale(0.1 -0.1)">
       <use xlink:href="#DejaVuSans-35"/>
       <use xlink:href="#DejaVuSans-30" x="63.623047"/>
      </g>
     </g>
    </g>
    <g id="xtick_8">
     <g id="line2d_20">
      <g>
       <use xlink:href="#md8b1cd6b57" x="721.679947" y="323.44" style="stroke: #000000; stroke-width: 0.8"/>
      </g>
     </g>
     <g id="text_21">
      <!-- 100 -->
      <g transform="translate(712.136197 338.038438) scale(0.1 -0.1)">
       <use xlink:href="#DejaVuSans-31"/>
       <use xlink:href="#DejaVuSans-30" x="63.623047"/>
       <use xlink:href="#DejaVuSans-30" x="127.246094"/>
      </g>
     </g>
    </g>
    <g id="xtick_9">
     <g id="line2d_21">
      <g>
       <use xlink:href="#md8b1cd6b57" x="819.407746" y="323.44" style="stroke: #000000; stroke-width: 0.8"/>
      </g>
     </g>
     <g id="text_22">
      <!-- 150 -->
      <g transform="translate(809.863996 338.038438) scale(0.1 -0.1)">
       <use xlink:href="#DejaVuSans-31"/>
       <use xlink:href="#DejaVuSans-35" x="63.623047"/>
       <use xlink:href="#DejaVuSans-30" x="127.246094"/>
      </g>
     </g>
    </g>
    <g id="xtick_10">
     <g id="line2d_22">
      <g>
       <use xlink:href="#md8b1cd6b57" x="917.135545" y="323.44" style="stroke: #000000; stroke-width: 0.8"/>
      </g>
     </g>
     <g id="text_23">
      <!-- 200 -->
      <g transform="translate(907.591795 338.038438) scale(0.1 -0.1)">
       <use xlink:href="#DejaVuSans-32"/>
       <use xlink:href="#DejaVuSans-30" x="63.623047"/>
       <use xlink:href="#DejaVuSans-30" x="127.246094"/>
      </g>
     </g>
    </g>
    <g id="xtick_11">
     <g id="line2d_23">
      <g>
       <use xlink:href="#md8b1cd6b57" x="1014.863344" y="323.44" style="stroke: #000000; stroke-width: 0.8"/>
      </g>
     </g>
     <g id="text_24">
      <!-- 250 -->
      <g transform="translate(1005.319594 338.038438) scale(0.1 -0.1)">
       <use xlink:href="#DejaVuSans-32"/>
       <use xlink:href="#DejaVuSans-35" x="63.623047"/>
       <use xlink:href="#DejaVuSans-30" x="127.246094"/>
      </g>
     </g>
    </g>
    <g id="text_25">
     <!-- Epochs -->
     <g transform="translate(819.083125 351.716563) scale(0.1 -0.1)">
      <use xlink:href="#DejaVuSans-45"/>
      <use xlink:href="#DejaVuSans-70" x="63.183594"/>
      <use xlink:href="#DejaVuSans-6f" x="126.660156"/>
      <use xlink:href="#DejaVuSans-63" x="187.841797"/>
      <use xlink:href="#DejaVuSans-68" x="242.822266"/>
      <use xlink:href="#DejaVuSans-73" x="306.201172"/>
     </g>
    </g>
   </g>
   <g id="matplotlib.axis_4">
    <g id="ytick_9">
     <g id="line2d_24">
      <g>
       <use xlink:href="#meea890c5c8" x="604.7975" y="303.37871" style="stroke: #000000; stroke-width: 0.8"/>
      </g>
     </g>
     <g id="text_26">
      <!-- 0.99575 -->
      <g transform="translate(556.444375 307.177929) scale(0.1 -0.1)">
       <use xlink:href="#DejaVuSans-30"/>
       <use xlink:href="#DejaVuSans-2e" x="63.623047"/>
       <use xlink:href="#DejaVuSans-39" x="95.410156"/>
       <use xlink:href="#DejaVuSans-39" x="159.033203"/>
       <use xlink:href="#DejaVuSans-35" x="222.65625"/>
       <use xlink:href="#DejaVuSans-37" x="286.279297"/>
       <use xlink:href="#DejaVuSans-35" x="349.902344"/>
      </g>
     </g>
    </g>
    <g id="ytick_10">
     <g id="line2d_25">
      <g>
       <use xlink:href="#meea890c5c8" x="604.7975" y="268.470798" style="stroke: #000000; stroke-width: 0.8"/>
      </g>
     </g>
     <g id="text_27">
      <!-- 0.99600 -->
      <g transform="translate(556.444375 272.270017) scale(0.1 -0.1)">
       <use xlink:href="#DejaVuSans-30"/>
       <use xlink:href="#DejaVuSans-2e" x="63.623047"/>
       <use xlink:href="#DejaVuSans-39" x="95.410156"/>
       <use xlink:href="#DejaVuSans-39" x="159.033203"/>
       <use xlink:href="#DejaVuSans-36" x="222.65625"/>
       <use xlink:href="#DejaVuSans-30" x="286.279297"/>
       <use xlink:href="#DejaVuSans-30" x="349.902344"/>
      </g>
     </g>
    </g>
    <g id="ytick_11">
     <g id="line2d_26">
      <g>
       <use xlink:href="#meea890c5c8" x="604.7975" y="233.562886" style="stroke: #000000; stroke-width: 0.8"/>
      </g>
     </g>
     <g id="text_28">
      <!-- 0.99625 -->
      <g transform="translate(556.444375 237.362105) scale(0.1 -0.1)">
       <use xlink:href="#DejaVuSans-30"/>
       <use xlink:href="#DejaVuSans-2e" x="63.623047"/>
       <use xlink:href="#DejaVuSans-39" x="95.410156"/>
       <use xlink:href="#DejaVuSans-39" x="159.033203"/>
       <use xlink:href="#DejaVuSans-36" x="222.65625"/>
       <use xlink:href="#DejaVuSans-32" x="286.279297"/>
       <use xlink:href="#DejaVuSans-35" x="349.902344"/>
      </g>
     </g>
    </g>
    <g id="ytick_12">
     <g id="line2d_27">
      <g>
       <use xlink:href="#meea890c5c8" x="604.7975" y="198.654974" style="stroke: #000000; stroke-width: 0.8"/>
      </g>
     </g>
     <g id="text_29">
      <!-- 0.99650 -->
      <g transform="translate(556.444375 202.454193) scale(0.1 -0.1)">
       <use xlink:href="#DejaVuSans-30"/>
       <use xlink:href="#DejaVuSans-2e" x="63.623047"/>
       <use xlink:href="#DejaVuSans-39" x="95.410156"/>
       <use xlink:href="#DejaVuSans-39" x="159.033203"/>
       <use xlink:href="#DejaVuSans-36" x="222.65625"/>
       <use xlink:href="#DejaVuSans-35" x="286.279297"/>
       <use xlink:href="#DejaVuSans-30" x="349.902344"/>
      </g>
     </g>
    </g>
    <g id="ytick_13">
     <g id="line2d_28">
      <g>
       <use xlink:href="#meea890c5c8" x="604.7975" y="163.747062" style="stroke: #000000; stroke-width: 0.8"/>
      </g>
     </g>
     <g id="text_30">
      <!-- 0.99675 -->
      <g transform="translate(556.444375 167.546281) scale(0.1 -0.1)">
       <use xlink:href="#DejaVuSans-30"/>
       <use xlink:href="#DejaVuSans-2e" x="63.623047"/>
       <use xlink:href="#DejaVuSans-39" x="95.410156"/>
       <use xlink:href="#DejaVuSans-39" x="159.033203"/>
       <use xlink:href="#DejaVuSans-36" x="222.65625"/>
       <use xlink:href="#DejaVuSans-37" x="286.279297"/>
       <use xlink:href="#DejaVuSans-35" x="349.902344"/>
      </g>
     </g>
    </g>
    <g id="ytick_14">
     <g id="line2d_29">
      <g>
       <use xlink:href="#meea890c5c8" x="604.7975" y="128.83915" style="stroke: #000000; stroke-width: 0.8"/>
      </g>
     </g>
     <g id="text_31">
      <!-- 0.99700 -->
      <g transform="translate(556.444375 132.638368) scale(0.1 -0.1)">
       <use xlink:href="#DejaVuSans-30"/>
       <use xlink:href="#DejaVuSans-2e" x="63.623047"/>
       <use xlink:href="#DejaVuSans-39" x="95.410156"/>
       <use xlink:href="#DejaVuSans-39" x="159.033203"/>
       <use xlink:href="#DejaVuSans-37" x="222.65625"/>
       <use xlink:href="#DejaVuSans-30" x="286.279297"/>
       <use xlink:href="#DejaVuSans-30" x="349.902344"/>
      </g>
     </g>
    </g>
    <g id="ytick_15">
     <g id="line2d_30">
      <g>
       <use xlink:href="#meea890c5c8" x="604.7975" y="93.931238" style="stroke: #000000; stroke-width: 0.8"/>
      </g>
     </g>
     <g id="text_32">
      <!-- 0.99725 -->
      <g transform="translate(556.444375 97.730456) scale(0.1 -0.1)">
       <use xlink:href="#DejaVuSans-30"/>
       <use xlink:href="#DejaVuSans-2e" x="63.623047"/>
       <use xlink:href="#DejaVuSans-39" x="95.410156"/>
       <use xlink:href="#DejaVuSans-39" x="159.033203"/>
       <use xlink:href="#DejaVuSans-37" x="222.65625"/>
       <use xlink:href="#DejaVuSans-32" x="286.279297"/>
       <use xlink:href="#DejaVuSans-35" x="349.902344"/>
      </g>
     </g>
    </g>
    <g id="ytick_16">
     <g id="line2d_31">
      <g>
       <use xlink:href="#meea890c5c8" x="604.7975" y="59.023326" style="stroke: #000000; stroke-width: 0.8"/>
      </g>
     </g>
     <g id="text_33">
      <!-- 0.99750 -->
      <g transform="translate(556.444375 62.822544) scale(0.1 -0.1)">
       <use xlink:href="#DejaVuSans-30"/>
       <use xlink:href="#DejaVuSans-2e" x="63.623047"/>
       <use xlink:href="#DejaVuSans-39" x="95.410156"/>
       <use xlink:href="#DejaVuSans-39" x="159.033203"/>
       <use xlink:href="#DejaVuSans-37" x="222.65625"/>
       <use xlink:href="#DejaVuSans-35" x="286.279297"/>
       <use xlink:href="#DejaVuSans-30" x="349.902344"/>
      </g>
     </g>
    </g>
    <g id="text_34">
     <!-- Loss -->
     <g transform="translate(550.364688 185.767188) rotate(-90) scale(0.1 -0.1)">
      <use xlink:href="#DejaVuSans-4c"/>
      <use xlink:href="#DejaVuSans-6f" x="53.962891"/>
      <use xlink:href="#DejaVuSans-73" x="115.144531"/>
      <use xlink:href="#DejaVuSans-73" x="167.244141"/>
     </g>
    </g>
   </g>
   <g id="line2d_32">
    <path d="M 625.906705 54.370606 
L 627.861261 50.875074 
L 629.815816 50.875074 
L 631.770372 46.905149 
L 633.724928 39.672727 
L 635.679484 46.955085 
L 637.63404 45.373773 
L 639.588596 47.354575 
L 641.543152 52.006961 
L 643.497708 49.435248 
L 645.452264 46.247656 
L 649.361376 51.490954 
L 651.315932 51.682376 
L 653.270488 49.327053 
L 655.225044 54.820032 
L 657.1796 52.364837 
L 659.134156 50.617071 
L 661.088712 48.062004 
L 663.043268 48.461493 
L 664.997824 51.316177 
L 666.95238 50.409004 
L 668.906936 46.638823 
L 670.861492 51.590826 
L 672.816048 50.525521 
L 674.770604 48.952532 
L 676.72516 51.63244 
L 678.679716 49.19389 
L 680.634272 51.890443 
L 682.588828 54.387252 
L 684.543384 50.974947 
L 686.49794 50.475585 
L 688.452496 49.859706 
L 690.407052 53.155493 
L 692.361608 50.433972 
L 694.316164 46.147784 
L 696.27072 47.471092 
L 698.225276 52.522968 
L 700.179832 58.040915 
L 702.134388 44.424986 
L 704.088944 49.951255 
L 706.0435 51.10811 
L 707.998056 53.005684 
L 709.952612 55.635656 
L 711.907168 49.568411 
L 713.861723 49.518475 
L 715.816279 46.214365 
L 717.770835 45.132415 
L 719.725391 50.134355 
L 721.679947 52.847553 
L 723.634503 48.553043 
L 725.589059 49.343699 
L 727.543615 46.264302 
L 729.498171 48.786078 
L 731.452727 48.702851 
L 733.407283 49.743188 
L 735.361839 48.844337 
L 737.316395 49.451894 
L 739.270951 49.468539 
L 741.225507 47.920518 
L 743.180063 54.387252 
L 745.134619 52.614518 
L 747.089175 48.66956 
L 749.043731 49.19389 
L 750.998287 51.857152 
L 752.952843 49.318731 
L 754.907399 51.407727 
L 756.861955 50.966624 
L 758.816511 52.955748 
L 760.771067 52.889167 
L 762.725623 44.68299 
L 764.680179 43.717557 
L 766.634735 46.863536 
L 768.589291 52.256642 
L 770.543847 50.042805 
L 772.498403 48.286716 
L 774.452959 50.325777 
L 776.407515 45.615131 
L 778.362071 47.354575 
L 780.316627 54.770096 
L 782.271183 47.346252 
L 784.225739 53.421819 
L 786.180295 50.716943 
L 788.134851 49.951255 
L 790.089407 47.912195 
L 792.043963 50.567135 
L 793.998519 49.917965 
L 795.953074 48.120262 
L 797.90763 47.163153 
L 799.862186 42.1196 
L 801.816742 54.53706 
L 803.771298 48.677883 
L 805.725854 47.853936 
L 807.68041 48.652915 
L 809.634966 45.615131 
L 811.589522 58.656794 
L 813.544078 49.019114 
L 815.498634 47.038312 
L 817.45319 48.353298 
L 819.407746 50.700298 
L 821.362302 46.755341 
L 823.316858 44.799507 
L 825.271414 49.368667 
L 827.22597 49.052404 
L 829.180526 48.877628 
L 831.135082 53.247042 
L 833.089638 52.514645 
L 835.044194 48.261748 
L 836.99875 45.715004 
L 838.953306 52.431418 
L 840.907862 55.985209 
L 842.862418 49.876351 
L 844.816974 58.024269 
L 846.77153 51.790571 
L 848.726086 48.436525 
L 850.680642 48.303362 
L 852.635198 50.716943 
L 854.589754 50.841784 
L 858.498866 53.36356 
L 860.453422 52.689422 
L 862.407978 49.352021 
L 864.362534 54.661901 
L 866.31709 43.359681 
L 868.271646 54.245766 
L 870.226202 53.738081 
L 872.180758 53.105557 
L 874.135314 50.342422 
L 876.08987 48.103617 
L 878.044426 49.127309 
L 879.998981 48.569688 
L 881.953537 49.568411 
L 883.908093 46.305915 
L 885.862649 48.369943 
L 887.817205 52.62284 
L 889.771761 45.298869 
L 891.726317 50.009514 
L 893.680873 48.411557 
L 895.635429 47.421156 
L 897.589985 50.966624 
L 899.544541 50.217582 
L 901.499097 48.719497 
L 903.453653 52.040252 
L 907.362765 48.76111 
L 909.317321 53.588273 
L 911.271877 50.492231 
L 913.226433 49.010791 
L 915.180989 50.858429 
L 917.135545 47.387865 
L 919.090101 46.821922 
L 921.044657 49.19389 
L 922.999213 47.953809 
L 924.953769 52.215028 
L 926.908325 45.082479 
L 928.862881 52.156769 
L 930.817437 46.32256 
L 932.771993 52.880844 
L 934.726549 46.93844 
L 936.681105 45.606809 
L 938.635661 53.563305 
L 940.590217 51.507599 
L 942.544773 47.287993 
L 944.499329 50.350745 
L 946.453885 55.935273 
L 948.408441 45.923071 
L 950.362997 49.743188 
L 952.317553 49.451894 
L 954.272109 51.033206 
L 956.226665 46.838567 
L 958.181221 53.247042 
L 960.135777 50.575457 
L 962.090332 47.562642 
L 964.044888 46.755341 
L 965.999444 49.027436 
L 967.954 48.994145 
L 969.908556 50.27584 
L 971.863112 49.152277 
L 973.817668 48.969177 
L 975.772224 47.820645 
L 977.72678 49.451894 
L 981.635892 47.529351 
L 983.590448 48.802723 
L 985.545004 47.770709 
L 987.49956 47.570965 
L 989.454116 51.907089 
L 991.408672 54.470479 
L 993.363228 46.996699 
L 995.317784 52.464709 
L 997.27234 54.978163 
L 999.226896 47.437802 
L 1001.181452 47.038312 
L 1003.136008 50.783525 
L 1005.090564 50.592103 
L 1007.04512 51.241273 
L 1008.999676 49.942933 
L 1010.954232 53.030652 
L 1012.908788 47.604255 
L 1014.863344 52.572904 
L 1016.8179 54.478801 
L 1018.772456 49.435248 
L 1020.727012 49.335376 
L 1022.681568 51.282887 
L 1024.636124 50.833461 
L 1026.59068 54.154216 
L 1028.545236 51.457663 
L 1032.454348 50.883397 
L 1034.408904 50.359067 
L 1036.36346 53.563305 
L 1038.318016 49.368667 
L 1040.272572 48.461493 
L 1042.227128 52.06522 
L 1044.181684 50.575457 
L 1046.136239 50.192613 
L 1048.090795 47.987099 
L 1048.090795 47.987099 
" clip-path="url(#p398373675a)" style="fill: none; stroke: #1f77b4; stroke-width: 1.5; stroke-linecap: square"/>
   </g>
   <g id="line2d_33">
    <path d="M 625.906705 287.913745 
L 627.861261 272.966185 
L 629.815816 264.660136 
L 631.770372 272.608309 
L 633.724928 273.964909 
L 635.679484 285.208869 
L 637.63404 287.705678 
L 639.588596 294.44706 
L 641.543152 276.420103 
L 643.497708 282.046245 
L 645.452264 277.89322 
L 647.40682 283.369554 
L 651.315932 293.406724 
L 653.270488 280.955972 
L 655.225044 266.258093 
L 657.1796 259.932845 
L 659.134156 278.41755 
L 661.088712 279.399628 
L 663.043268 289.220408 
L 666.95238 285.999525 
L 668.906936 278.176192 
L 670.861492 281.047522 
L 672.816048 279.557759 
L 674.770604 286.915022 
L 676.72516 297.618007 
L 678.679716 294.155766 
L 680.634272 291.991865 
L 682.588828 306.772971 
L 684.543384 295.387525 
L 686.49794 288.97905 
L 688.452496 288.163426 
L 690.407052 286.615405 
L 692.361608 287.256252 
L 694.316164 281.863146 
L 696.27072 280.906036 
L 698.225276 270.069887 
L 700.179832 263.453345 
L 702.134388 277.360568 
L 704.088944 286.532178 
L 706.0435 279.399628 
L 707.998056 292.666004 
L 709.952612 273.274125 
L 711.907168 283.785688 
L 713.861723 289.178795 
L 715.816279 293.048848 
L 717.770835 281.93805 
L 719.725391 284.334986 
L 721.679947 279.416274 
L 723.634503 279.199884 
L 725.589059 271.534682 
L 727.543615 268.488575 
L 729.498171 278.392582 
L 731.452727 282.570575 
L 733.407283 287.797227 
L 735.361839 287.822195 
L 737.316395 296.735801 
L 739.270951 286.116043 
L 741.225507 273.349029 
L 743.180063 290.901592 
L 745.134619 281.139071 
L 747.089175 289.037309 
L 749.043731 287.106444 
L 750.998287 280.306802 
L 752.952843 297.509812 
L 754.907399 309.927273 
L 756.861955 283.935497 
L 758.816511 274.564143 
L 760.771067 280.431642 
L 762.725623 290.884947 
L 764.680179 289.653188 
L 766.634735 294.588546 
L 768.589291 293.648082 
L 770.543847 285.11732 
L 772.498403 284.260082 
L 774.452959 289.253699 
L 776.407515 281.93805 
L 778.362071 284.509763 
L 780.316627 291.068046 
L 782.271183 286.798504 
L 784.225739 295.911855 
L 786.180295 278.542391 
L 788.134851 281.064167 
L 790.089407 297.326713 
L 792.043963 287.963681 
L 793.998519 289.728092 
L 795.953074 274.639047 
L 797.90763 274.181299 
L 799.862186 282.46238 
L 801.816742 293.498273 
L 803.771298 284.859316 
L 805.725854 291.517472 
L 807.68041 282.98671 
L 809.634966 290.418876 
L 811.589522 263.619799 
L 813.544078 259.341934 
L 817.45319 281.105781 
L 819.407746 281.322171 
L 821.362302 281.72166 
L 823.316858 283.369554 
L 825.271414 284.40989 
L 827.22597 294.097507 
L 829.180526 288.995695 
L 831.135082 294.605192 
L 833.089638 296.219794 
L 835.044194 289.961128 
L 836.99875 281.50527 
L 838.953306 277.527022 
L 840.907862 291.559085 
L 842.862418 295.312621 
L 844.816974 273.274125 
L 846.77153 269.703689 
L 848.726086 265.251047 
L 850.680642 272.966185 
L 852.635198 291.484181 
L 854.589754 292.341419 
L 856.54431 281.355461 
L 858.498866 291.85038 
L 860.453422 309.452879 
L 862.407978 294.788291 
L 864.362534 300.522628 
L 866.31709 293.589823 
L 868.271646 296.244762 
L 870.226202 279.191561 
L 872.180758 305.349791 
L 874.135314 296.402894 
L 876.08987 276.345199 
L 878.044426 271.043643 
L 879.998981 282.262635 
L 881.953537 276.003969 
L 883.908093 283.078259 
L 885.862649 276.761334 
L 887.817205 285.009125 
L 889.771761 287.822195 
L 891.726317 289.436798 
L 893.680873 283.843947 
L 895.635429 281.63011 
L 897.589985 287.148057 
L 899.544541 287.039862 
L 903.453653 284.043692 
L 905.408209 295.312621 
L 907.362765 290.868302 
L 909.317321 278.492454 
L 911.271877 281.263912 
L 913.226433 291.650635 
L 915.180989 282.89516 
L 917.135545 281.230621 
L 919.090101 278.492454 
L 921.044657 284.310018 
L 922.999213 279.432919 
L 924.953769 286.132688 
L 926.908325 297.551426 
L 928.862881 288.45472 
L 930.817437 294.555255 
L 932.771993 284.168532 
L 934.726549 285.533454 
L 936.681105 284.010401 
L 938.635661 284.40989 
L 940.590217 295.37088 
L 942.544773 291.792121 
L 944.499329 291.317727 
L 946.453885 287.472642 
L 948.408441 288.562915 
L 950.362997 285.708231 
L 952.317553 295.046294 
L 954.272109 290.701848 
L 956.226665 290.560362 
L 958.181221 289.145504 
L 960.135777 295.861919 
L 962.090332 297.043741 
L 964.044888 290.518748 
L 965.999444 286.149334 
L 967.954 292.732585 
L 969.908556 289.19544 
L 971.863112 290.127582 
L 973.817668 282.612188 
L 975.772224 288.32988 
L 977.72678 283.519362 
L 979.681336 280.814486 
L 981.635892 293.681372 
L 983.590448 284.276727 
L 985.545004 276.128809 
L 987.49956 275.837515 
L 989.454116 284.676217 
L 991.408672 288.45472 
L 993.363228 275.221635 
L 995.317784 259.39187 
L 997.27234 247.881583 
L 999.226896 250.711299 
L 1001.181452 277.360568 
L 1003.136008 272.500114 
L 1005.090564 270.411118 
L 1007.04512 273.349029 
L 1008.999676 266.815714 
L 1010.954232 269.304199 
L 1012.908788 273.673614 
L 1014.863344 278.484132 
L 1016.8179 285.749844 
L 1018.772456 297.351681 
L 1020.727012 302.653237 
L 1022.681568 289.087245 
L 1024.636124 287.239607 
L 1026.59068 293.098784 
L 1028.545236 288.221685 
L 1030.499792 273.765164 
L 1032.454348 287.980327 
L 1034.408904 292.940653 
L 1036.36346 290.343972 
L 1038.318016 295.936823 
L 1040.272572 297.077032 
L 1042.227128 290.793397 
L 1044.181684 277.185791 
L 1046.136239 297.351681 
L 1048.090795 289.212085 
L 1048.090795 289.212085 
" clip-path="url(#p398373675a)" style="fill: none; stroke: #ff7f0e; stroke-width: 1.5; stroke-linecap: square"/>
   </g>
   <g id="patch_9">
    <path d="M 604.7975 323.44 
L 604.7975 26.16 
" style="fill: none; stroke: #000000; stroke-width: 0.8; stroke-linejoin: miter; stroke-linecap: square"/>
   </g>
   <g id="patch_10">
    <path d="M 1069.2 323.44 
L 1069.2 26.16 
" style="fill: none; stroke: #000000; stroke-width: 0.8; stroke-linejoin: miter; stroke-linecap: square"/>
   </g>
   <g id="patch_11">
    <path d="M 604.7975 323.44 
L 1069.2 323.44 
" style="fill: none; stroke: #000000; stroke-width: 0.8; stroke-linejoin: miter; stroke-linecap: square"/>
   </g>
   <g id="patch_12">
    <path d="M 604.7975 26.16 
L 1069.2 26.16 
" style="fill: none; stroke: #000000; stroke-width: 0.8; stroke-linejoin: miter; stroke-linecap: square"/>
   </g>
   <g id="text_35">
    <!-- Training and Validation Loss (Skip first 50) -->
    <g transform="translate(711.009063 20.16) scale(0.12 -0.12)">
     <defs>
      <path id="DejaVuSans-28" d="M 1984 4856 
Q 1566 4138 1362 3434 
Q 1159 2731 1159 2009 
Q 1159 1288 1364 580 
Q 1569 -128 1984 -844 
L 1484 -844 
Q 1016 -109 783 600 
Q 550 1309 550 2009 
Q 550 2706 781 3412 
Q 1013 4119 1484 4856 
L 1984 4856 
z
" transform="scale(0.015625)"/>
      <path id="DejaVuSans-53" d="M 3425 4513 
L 3425 3897 
Q 3066 4069 2747 4153 
Q 2428 4238 2131 4238 
Q 1616 4238 1336 4038 
Q 1056 3838 1056 3469 
Q 1056 3159 1242 3001 
Q 1428 2844 1947 2747 
L 2328 2669 
Q 3034 2534 3370 2195 
Q 3706 1856 3706 1288 
Q 3706 609 3251 259 
Q 2797 -91 1919 -91 
Q 1588 -91 1214 -16 
Q 841 59 441 206 
L 441 856 
Q 825 641 1194 531 
Q 1563 422 1919 422 
Q 2459 422 2753 634 
Q 3047 847 3047 1241 
Q 3047 1584 2836 1778 
Q 2625 1972 2144 2069 
L 1759 2144 
Q 1053 2284 737 2584 
Q 422 2884 422 3419 
Q 422 4038 858 4394 
Q 1294 4750 2059 4750 
Q 2388 4750 2728 4690 
Q 3069 4631 3425 4513 
z
" transform="scale(0.015625)"/>
      <path id="DejaVuSans-6b" d="M 581 4863 
L 1159 4863 
L 1159 1991 
L 2875 3500 
L 3609 3500 
L 1753 1863 
L 3688 0 
L 2938 0 
L 1159 1709 
L 1159 0 
L 581 0 
L 581 4863 
z
" transform="scale(0.015625)"/>
      <path id="DejaVuSans-66" d="M 2375 4863 
L 2375 4384 
L 1825 4384 
Q 1516 4384 1395 4259 
Q 1275 4134 1275 3809 
L 1275 3500 
L 2222 3500 
L 2222 3053 
L 1275 3053 
L 1275 0 
L 697 0 
L 697 3053 
L 147 3053 
L 147 3500 
L 697 3500 
L 697 3744 
Q 697 4328 969 4595 
Q 1241 4863 1831 4863 
L 2375 4863 
z
" transform="scale(0.015625)"/>
      <path id="DejaVuSans-29" d="M 513 4856 
L 1013 4856 
Q 1481 4119 1714 3412 
Q 1947 2706 1947 2009 
Q 1947 1309 1714 600 
Q 1481 -109 1013 -844 
L 513 -844 
Q 928 -128 1133 580 
Q 1338 1288 1338 2009 
Q 1338 2731 1133 3434 
Q 928 4138 513 4856 
z
" transform="scale(0.015625)"/>
     </defs>
     <use xlink:href="#DejaVuSans-54"/>
     <use xlink:href="#DejaVuSans-72" x="46.333984"/>
     <use xlink:href="#DejaVuSans-61" x="87.447266"/>
     <use xlink:href="#DejaVuSans-69" x="148.726562"/>
     <use xlink:href="#DejaVuSans-6e" x="176.509766"/>
     <use xlink:href="#DejaVuSans-69" x="239.888672"/>
     <use xlink:href="#DejaVuSans-6e" x="267.671875"/>
     <use xlink:href="#DejaVuSans-67" x="331.050781"/>
     <use xlink:href="#DejaVuSans-20" x="394.527344"/>
     <use xlink:href="#DejaVuSans-61" x="426.314453"/>
     <use xlink:href="#DejaVuSans-6e" x="487.59375"/>
     <use xlink:href="#DejaVuSans-64" x="550.972656"/>
     <use xlink:href="#DejaVuSans-20" x="614.449219"/>
     <use xlink:href="#DejaVuSans-56" x="646.236328"/>
     <use xlink:href="#DejaVuSans-61" x="706.894531"/>
     <use xlink:href="#DejaVuSans-6c" x="768.173828"/>
     <use xlink:href="#DejaVuSans-69" x="795.957031"/>
     <use xlink:href="#DejaVuSans-64" x="823.740234"/>
     <use xlink:href="#DejaVuSans-61" x="887.216797"/>
     <use xlink:href="#DejaVuSans-74" x="948.496094"/>
     <use xlink:href="#DejaVuSans-69" x="987.705078"/>
     <use xlink:href="#DejaVuSans-6f" x="1015.488281"/>
     <use xlink:href="#DejaVuSans-6e" x="1076.669922"/>
     <use xlink:href="#DejaVuSans-20" x="1140.048828"/>
     <use xlink:href="#DejaVuSans-4c" x="1171.835938"/>
     <use xlink:href="#DejaVuSans-6f" x="1225.798828"/>
     <use xlink:href="#DejaVuSans-73" x="1286.980469"/>
     <use xlink:href="#DejaVuSans-73" x="1339.080078"/>
     <use xlink:href="#DejaVuSans-20" x="1391.179688"/>
     <use xlink:href="#DejaVuSans-28" x="1422.966797"/>
     <use xlink:href="#DejaVuSans-53" x="1461.980469"/>
     <use xlink:href="#DejaVuSans-6b" x="1525.457031"/>
     <use xlink:href="#DejaVuSans-69" x="1583.367188"/>
     <use xlink:href="#DejaVuSans-70" x="1611.150391"/>
     <use xlink:href="#DejaVuSans-20" x="1674.626953"/>
     <use xlink:href="#DejaVuSans-66" x="1706.414062"/>
     <use xlink:href="#DejaVuSans-69" x="1741.619141"/>
     <use xlink:href="#DejaVuSans-72" x="1769.402344"/>
     <use xlink:href="#DejaVuSans-73" x="1810.515625"/>
     <use xlink:href="#DejaVuSans-74" x="1862.615234"/>
     <use xlink:href="#DejaVuSans-20" x="1901.824219"/>
     <use xlink:href="#DejaVuSans-35" x="1933.611328"/>
     <use xlink:href="#DejaVuSans-30" x="1997.234375"/>
     <use xlink:href="#DejaVuSans-29" x="2060.857422"/>
    </g>
   </g>
   <g id="legend_2">
    <g id="patch_13">
     <path d="M 958.325 190.978125 
L 1062.2 190.978125 
Q 1064.2 190.978125 1064.2 188.978125 
L 1064.2 160.621875 
Q 1064.2 158.621875 1062.2 158.621875 
L 958.325 158.621875 
Q 956.325 158.621875 956.325 160.621875 
L 956.325 188.978125 
Q 956.325 190.978125 958.325 190.978125 
z
" style="fill: #ffffff; opacity: 0.8; stroke: #cccccc; stroke-linejoin: miter"/>
    </g>
    <g id="line2d_34">
     <path d="M 960.325 166.720313 
L 970.325 166.720313 
L 980.325 166.720313 
" style="fill: none; stroke: #1f77b4; stroke-width: 1.5; stroke-linecap: square"/>
    </g>
    <g id="text_36">
     <!-- Training loss -->
     <g transform="translate(988.325 170.220313) scale(0.1 -0.1)">
      <use xlink:href="#DejaVuSans-54"/>
      <use xlink:href="#DejaVuSans-72" x="46.333984"/>
      <use xlink:href="#DejaVuSans-61" x="87.447266"/>
      <use xlink:href="#DejaVuSans-69" x="148.726562"/>
      <use xlink:href="#DejaVuSans-6e" x="176.509766"/>
      <use xlink:href="#DejaVuSans-69" x="239.888672"/>
      <use xlink:href="#DejaVuSans-6e" x="267.671875"/>
      <use xlink:href="#DejaVuSans-67" x="331.050781"/>
      <use xlink:href="#DejaVuSans-20" x="394.527344"/>
      <use xlink:href="#DejaVuSans-6c" x="426.314453"/>
      <use xlink:href="#DejaVuSans-6f" x="454.097656"/>
      <use xlink:href="#DejaVuSans-73" x="515.279297"/>
      <use xlink:href="#DejaVuSans-73" x="567.378906"/>
     </g>
    </g>
    <g id="line2d_35">
     <path d="M 960.325 181.398438 
L 970.325 181.398438 
L 980.325 181.398438 
" style="fill: none; stroke: #ff7f0e; stroke-width: 1.5; stroke-linecap: square"/>
    </g>
    <g id="text_37">
     <!-- Validation loss -->
     <g transform="translate(988.325 184.898438) scale(0.1 -0.1)">
      <use xlink:href="#DejaVuSans-56"/>
      <use xlink:href="#DejaVuSans-61" x="60.658203"/>
      <use xlink:href="#DejaVuSans-6c" x="121.9375"/>
      <use xlink:href="#DejaVuSans-69" x="149.720703"/>
      <use xlink:href="#DejaVuSans-64" x="177.503906"/>
      <use xlink:href="#DejaVuSans-61" x="240.980469"/>
      <use xlink:href="#DejaVuSans-74" x="302.259766"/>
      <use xlink:href="#DejaVuSans-69" x="341.46875"/>
      <use xlink:href="#DejaVuSans-6f" x="369.251953"/>
      <use xlink:href="#DejaVuSans-6e" x="430.433594"/>
      <use xlink:href="#DejaVuSans-20" x="493.8125"/>
      <use xlink:href="#DejaVuSans-6c" x="525.599609"/>
      <use xlink:href="#DejaVuSans-6f" x="553.382812"/>
      <use xlink:href="#DejaVuSans-73" x="614.564453"/>
      <use xlink:href="#DejaVuSans-73" x="666.664062"/>
     </g>
    </g>
   </g>
  </g>
  <g id="axes_3">
   <g id="patch_14">
    <path d="M 67.025 678.04 
L 531.4275 678.04 
L 531.4275 380.76 
L 67.025 380.76 
z
" style="fill: #ffffff"/>
   </g>
   <g id="matplotlib.axis_5">
    <g id="xtick_12">
     <g id="line2d_36">
      <g>
       <use xlink:href="#md8b1cd6b57" x="86.179649" y="678.04" style="stroke: #000000; stroke-width: 0.8"/>
      </g>
     </g>
     <g id="text_38">
      <!-- 50 -->
      <g transform="translate(79.817149 692.638438) scale(0.1 -0.1)">
       <use xlink:href="#DejaVuSans-35"/>
       <use xlink:href="#DejaVuSans-30" x="63.623047"/>
      </g>
     </g>
    </g>
    <g id="xtick_13">
     <g id="line2d_37">
      <g>
       <use xlink:href="#md8b1cd6b57" x="183.907447" y="678.04" style="stroke: #000000; stroke-width: 0.8"/>
      </g>
     </g>
     <g id="text_39">
      <!-- 100 -->
      <g transform="translate(174.363697 692.638438) scale(0.1 -0.1)">
       <use xlink:href="#DejaVuSans-31"/>
       <use xlink:href="#DejaVuSans-30" x="63.623047"/>
       <use xlink:href="#DejaVuSans-30" x="127.246094"/>
      </g>
     </g>
    </g>
    <g id="xtick_14">
     <g id="line2d_38">
      <g>
       <use xlink:href="#md8b1cd6b57" x="281.635246" y="678.04" style="stroke: #000000; stroke-width: 0.8"/>
      </g>
     </g>
     <g id="text_40">
      <!-- 150 -->
      <g transform="translate(272.091496 692.638438) scale(0.1 -0.1)">
       <use xlink:href="#DejaVuSans-31"/>
       <use xlink:href="#DejaVuSans-35" x="63.623047"/>
       <use xlink:href="#DejaVuSans-30" x="127.246094"/>
      </g>
     </g>
    </g>
    <g id="xtick_15">
     <g id="line2d_39">
      <g>
       <use xlink:href="#md8b1cd6b57" x="379.363045" y="678.04" style="stroke: #000000; stroke-width: 0.8"/>
      </g>
     </g>
     <g id="text_41">
      <!-- 200 -->
      <g transform="translate(369.819295 692.638438) scale(0.1 -0.1)">
       <use xlink:href="#DejaVuSans-32"/>
       <use xlink:href="#DejaVuSans-30" x="63.623047"/>
       <use xlink:href="#DejaVuSans-30" x="127.246094"/>
      </g>
     </g>
    </g>
    <g id="xtick_16">
     <g id="line2d_40">
      <g>
       <use xlink:href="#md8b1cd6b57" x="477.090844" y="678.04" style="stroke: #000000; stroke-width: 0.8"/>
      </g>
     </g>
     <g id="text_42">
      <!-- 250 -->
      <g transform="translate(467.547094 692.638438) scale(0.1 -0.1)">
       <use xlink:href="#DejaVuSans-32"/>
       <use xlink:href="#DejaVuSans-35" x="63.623047"/>
       <use xlink:href="#DejaVuSans-30" x="127.246094"/>
      </g>
     </g>
    </g>
    <g id="text_43">
     <!-- Epochs -->
     <g transform="translate(281.310625 706.316563) scale(0.1 -0.1)">
      <use xlink:href="#DejaVuSans-45"/>
      <use xlink:href="#DejaVuSans-70" x="63.183594"/>
      <use xlink:href="#DejaVuSans-6f" x="126.660156"/>
      <use xlink:href="#DejaVuSans-63" x="187.841797"/>
      <use xlink:href="#DejaVuSans-68" x="242.822266"/>
      <use xlink:href="#DejaVuSans-73" x="306.201172"/>
     </g>
    </g>
   </g>
   <g id="matplotlib.axis_6">
    <g id="ytick_17">
     <g id="line2d_41">
      <g>
       <use xlink:href="#meea890c5c8" x="67.025" y="620.947253" style="stroke: #000000; stroke-width: 0.8"/>
      </g>
     </g>
     <g id="text_44">
      <!-- 0.8260 -->
      <g transform="translate(25.034375 624.746472) scale(0.1 -0.1)">
       <use xlink:href="#DejaVuSans-30"/>
       <use xlink:href="#DejaVuSans-2e" x="63.623047"/>
       <use xlink:href="#DejaVuSans-38" x="95.410156"/>
       <use xlink:href="#DejaVuSans-32" x="159.033203"/>
       <use xlink:href="#DejaVuSans-36" x="222.65625"/>
       <use xlink:href="#DejaVuSans-30" x="286.279297"/>
      </g>
     </g>
    </g>
    <g id="ytick_18">
     <g id="line2d_42">
      <g>
       <use xlink:href="#meea890c5c8" x="67.025" y="554.904213" style="stroke: #000000; stroke-width: 0.8"/>
      </g>
     </g>
     <g id="text_45">
      <!-- 0.8265 -->
      <g transform="translate(25.034375 558.703432) scale(0.1 -0.1)">
       <use xlink:href="#DejaVuSans-30"/>
       <use xlink:href="#DejaVuSans-2e" x="63.623047"/>
       <use xlink:href="#DejaVuSans-38" x="95.410156"/>
       <use xlink:href="#DejaVuSans-32" x="159.033203"/>
       <use xlink:href="#DejaVuSans-36" x="222.65625"/>
       <use xlink:href="#DejaVuSans-35" x="286.279297"/>
      </g>
     </g>
    </g>
    <g id="ytick_19">
     <g id="line2d_43">
      <g>
       <use xlink:href="#meea890c5c8" x="67.025" y="488.861173" style="stroke: #000000; stroke-width: 0.8"/>
      </g>
     </g>
     <g id="text_46">
      <!-- 0.8270 -->
      <g transform="translate(25.034375 492.660391) scale(0.1 -0.1)">
       <use xlink:href="#DejaVuSans-30"/>
       <use xlink:href="#DejaVuSans-2e" x="63.623047"/>
       <use xlink:href="#DejaVuSans-38" x="95.410156"/>
       <use xlink:href="#DejaVuSans-32" x="159.033203"/>
       <use xlink:href="#DejaVuSans-37" x="222.65625"/>
       <use xlink:href="#DejaVuSans-30" x="286.279297"/>
      </g>
     </g>
    </g>
    <g id="ytick_20">
     <g id="line2d_44">
      <g>
       <use xlink:href="#meea890c5c8" x="67.025" y="422.818132" style="stroke: #000000; stroke-width: 0.8"/>
      </g>
     </g>
     <g id="text_47">
      <!-- 0.8275 -->
      <g transform="translate(25.034375 426.617351) scale(0.1 -0.1)">
       <use xlink:href="#DejaVuSans-30"/>
       <use xlink:href="#DejaVuSans-2e" x="63.623047"/>
       <use xlink:href="#DejaVuSans-38" x="95.410156"/>
       <use xlink:href="#DejaVuSans-32" x="159.033203"/>
       <use xlink:href="#DejaVuSans-37" x="222.65625"/>
       <use xlink:href="#DejaVuSans-35" x="286.279297"/>
      </g>
     </g>
    </g>
    <g id="text_48">
     <!-- MAE -->
     <g transform="translate(18.954688 540.29375) rotate(-90) scale(0.1 -0.1)">
      <defs>
       <path id="DejaVuSans-4d" d="M 628 4666 
L 1569 4666 
L 2759 1491 
L 3956 4666 
L 4897 4666 
L 4897 0 
L 4281 0 
L 4281 4097 
L 3078 897 
L 2444 897 
L 1241 4097 
L 1241 0 
L 628 0 
L 628 4666 
z
" transform="scale(0.015625)"/>
       <path id="DejaVuSans-41" d="M 2188 4044 
L 1331 1722 
L 3047 1722 
L 2188 4044 
z
M 1831 4666 
L 2547 4666 
L 4325 0 
L 3669 0 
L 3244 1197 
L 1141 1197 
L 716 0 
L 50 0 
L 1831 4666 
z
" transform="scale(0.015625)"/>
      </defs>
      <use xlink:href="#DejaVuSans-4d"/>
      <use xlink:href="#DejaVuSans-41" x="86.279297"/>
      <use xlink:href="#DejaVuSans-45" x="154.6875"/>
     </g>
    </g>
   </g>
   <g id="line2d_45">
    <path d="M 88.134205 543.449268 
L 90.088761 478.064469 
L 92.043316 518.484163 
L 93.997872 580.420613 
L 95.952428 536.465967 
L 97.906984 597.213602 
L 99.86154 527.325479 
L 101.816096 554.857164 
L 103.770652 432.826534 
L 105.725208 573.791594 
L 107.679764 461.121894 
L 109.63432 506.351957 
L 111.588876 575.460658 
L 113.543432 521.294804 
L 115.497988 484.103017 
L 117.452544 520.365797 
L 119.4071 478.032977 
L 121.361656 638.530812 
L 123.316212 527.829348 
L 125.270768 584.364958 
L 127.225324 511.115088 
L 129.17988 499.022246 
L 131.134436 461.964299 
L 133.088992 524.766773 
L 135.043548 499.589098 
L 136.998104 586.309575 
L 138.95266 587.49839 
L 140.907216 483.677878 
L 142.861772 485.032025 
L 144.816328 642.459411 
L 146.770884 461.365955 
L 148.72544 527.726999 
L 150.679996 497.006772 
L 152.634552 556.801781 
L 154.589108 526.120919 
L 156.543664 501.927362 
L 158.49822 551.204118 
L 160.452776 439.581519 
L 162.407332 457.468848 
L 164.361888 600.512366 
L 166.316444 604.322871 
L 168.271 494.849586 
L 170.225556 564.438537 
L 172.180112 394.272727 
L 174.134668 622.233818 
L 176.089223 575.059138 
L 178.043779 553.707714 
L 179.998335 466.782541 
L 181.952891 506.273227 
L 183.907447 486.874293 
L 185.862003 532.576733 
L 187.816559 554.707578 
L 189.771115 474.379932 
L 191.725671 602.063336 
L 193.680227 516.775734 
L 195.634783 534.135576 
L 197.589339 506.029166 
L 199.543895 577.861906 
L 201.498451 482.489064 
L 203.453007 483.252739 
L 205.407563 649.151413 
L 207.362119 499.329291 
L 209.316675 555.392524 
L 211.271231 490.275405 
L 213.225787 475.702586 
L 215.180343 608.65299 
L 217.134899 585.860817 
L 219.089455 398.177707 
L 221.044011 516.090788 
L 222.998567 601.504357 
L 224.953123 520.578366 
L 226.907679 498.60498 
L 228.862235 532.198832 
L 230.816791 581.884981 
L 232.771347 435.495462 
L 234.725903 487.661588 
L 236.680459 546.763778 
L 238.635015 483.433817 
L 240.589571 544.614464 
L 242.544127 621.068622 
L 244.498683 509.013012 
L 246.453239 530.797448 
L 248.407795 441.329313 
L 250.362351 543.024129 
L 252.316907 606.125775 
L 254.271463 477.820408 
L 256.226019 556.368769 
L 258.180574 490.228168 
L 260.13513 496.84144 
L 262.089686 553.794317 
L 264.044242 589.860273 
L 265.998798 445.09258 
L 267.953354 569.311889 
L 269.90791 501.132195 
L 271.862466 554.597357 
L 273.817022 426.512433 
L 275.771578 496.006908 
L 277.726134 592.174918 
L 279.68069 560.683143 
L 281.635246 524.097572 
L 283.589802 518.28734 
L 285.544358 546.873999 
L 287.498914 556.368769 
L 289.45347 541.339319 
L 291.408026 479.434362 
L 293.362582 597.733217 
L 295.317138 533.820658 
L 297.271694 496.691855 
L 299.22625 462.113885 
L 303.135362 582.491197 
L 305.089918 501.36051 
L 307.044474 509.902654 
L 308.99903 469.664038 
L 310.953586 503.383857 
L 312.908142 583.813852 
L 314.862698 630.964913 
L 316.817254 531.600488 
L 318.77181 468.931854 
L 320.726366 550.62152 
L 322.680922 605.991935 
L 324.635478 505.26549 
L 326.590034 524.554203 
L 328.54459 477.891264 
L 330.499146 519.405298 
L 332.453702 454.673953 
L 334.408258 664.527273 
L 336.362814 479.67055 
L 338.31737 435.503335 
L 340.271926 488.937005 
L 342.226481 609.385174 
L 344.181037 475.253828 
L 346.135593 564.194476 
L 348.090149 501.234543 
L 350.044705 544.89789 
L 351.999261 555.085479 
L 353.953817 559.281759 
L 355.908373 471.640147 
L 357.862929 557.691424 
L 359.817485 539.630891 
L 361.772041 496.376937 
L 363.726597 532.372036 
L 365.681153 524.467601 
L 367.635709 587.876291 
L 369.590265 495.353454 
L 371.544821 508.509143 
L 373.499377 529.608633 
L 375.453933 542.54388 
L 377.408489 487.905649 
L 379.363045 487.779682 
L 381.317601 547.991957 
L 383.272157 545.000238 
L 385.226713 496.636744 
L 389.135825 586.498526 
L 391.090381 501.801395 
L 393.044937 555.904266 
L 394.999493 496.085638 
L 396.954049 505.682756 
L 398.908605 487.48051 
L 400.863161 475.49789 
L 402.817717 648.899479 
L 404.772273 512.044095 
L 406.726829 521.704197 
L 408.681385 529.348826 
L 410.635941 555.565729 
L 412.590497 517.523664 
L 414.545053 559.486455 
L 416.499609 493.676517 
L 418.454165 521.208202 
L 420.408721 496.967408 
L 422.363277 587.797561 
L 424.317832 493.542677 
L 426.272388 534.096211 
L 428.226944 507.713976 
L 430.1815 558.533829 
L 432.136056 521.279058 
L 434.090612 546.622065 
L 436.045168 425.134667 
L 437.999724 580.554453 
L 439.95428 514.350868 
L 441.908836 500.28979 
L 443.863392 571.925707 
L 445.817948 502.006092 
L 447.772504 503.572808 
L 449.72706 535.332263 
L 451.681616 519.924912 
L 453.636172 626.367114 
L 455.590728 455.193567 
L 457.545284 448.784991 
L 459.49984 493.440329 
L 461.454396 526.404345 
L 463.408952 625.957721 
L 465.363508 473.647748 
L 467.318064 528.010425 
L 469.27262 521.373534 
L 471.227176 516.563165 
L 473.181732 574.964663 
L 475.136288 555.975122 
L 477.090844 546.283528 
L 479.0454 481.331741 
L 480.999956 611.802167 
L 482.954512 557.581203 
L 484.909068 454.240941 
L 486.863624 516.358468 
L 488.81818 514.122552 
L 490.772736 497.313817 
L 492.727292 460.854214 
L 494.681848 647.631935 
L 496.636404 559.840738 
L 498.59096 527.632524 
L 500.545516 508.926409 
L 502.500072 545.307283 
L 504.454628 517.240238 
L 506.409184 486.94515 
L 508.363739 610.20396 
L 510.318295 520.302813 
L 510.318295 520.302813 
" clip-path="url(#p96904a911e)" style="fill: none; stroke: #1f77b4; stroke-width: 1.5; stroke-linecap: square"/>
   </g>
   <g id="line2d_46">
    <path d="M 88.134205 559.754135 
L 90.088761 590.285412 
L 92.043316 593.166909 
L 93.997872 553.778571 
L 95.952428 539.190006 
L 97.906984 488.787419 
L 99.86154 485.961032 
L 101.816096 471.892081 
L 103.770652 530.521895 
L 105.725208 498.148349 
L 107.679764 546.094578 
L 109.63432 564.107873 
L 111.588876 530.80532 
L 113.543432 537.985445 
L 115.497988 565.91865 
L 117.452544 570.595179 
L 119.4071 607.842077 
L 121.361656 531.466648 
L 123.316212 534.639444 
L 125.270768 497.542132 
L 127.225324 505.289109 
L 129.17988 527.711254 
L 131.134436 565.46202 
L 133.088992 565.603733 
L 135.043548 581.593682 
L 136.998104 539.489178 
L 138.95266 502.305264 
L 142.861772 561.620023 
L 144.816328 480.245275 
L 146.770884 525.247022 
L 148.72544 515.098797 
L 150.679996 539.048293 
L 152.634552 517.893692 
L 154.589108 517.114271 
L 156.543664 529.94717 
L 158.49822 512.051968 
L 160.452776 578.184697 
L 162.407332 624.658685 
L 164.361888 576.751821 
L 166.316444 525.868985 
L 168.271 545.598582 
L 170.225556 524.81401 
L 172.180112 616.124414 
L 174.134668 548.456461 
L 176.089223 514.067442 
L 178.043779 487.29156 
L 179.998335 527.837221 
L 181.952891 544.472751 
L 183.907447 574.326954 
L 185.862003 566.642961 
L 187.816559 544.582972 
L 189.771115 579.239671 
L 191.725671 528.435564 
L 193.680227 537.812241 
L 195.634783 534.694555 
L 197.589339 550.038922 
L 199.543895 515.45308 
L 203.453007 569.343381 
L 205.407563 485.110754 
L 207.362119 500.431503 
L 209.316675 480.764889 
L 211.271231 508.595746 
L 213.225787 541.481032 
L 215.180343 485.39418 
L 217.134899 446.58844 
L 219.089455 533.198695 
L 221.044011 535.466103 
L 222.998567 485.709098 
L 224.953123 489.433 
L 226.907679 506.887317 
L 228.862235 506.383448 
L 230.816791 469.270391 
L 232.771347 532.316926 
L 234.725903 557.455236 
L 236.680459 545.464742 
L 238.635015 578.9405 
L 240.589571 560.454827 
L 242.544127 499.384401 
L 244.498683 508.320193 
L 246.453239 515.602666 
L 248.407795 569.965343 
L 250.362351 557.43949 
L 252.316907 508.036767 
L 254.271463 541.969155 
L 256.226019 525.018707 
L 258.180574 550.007431 
L 260.13513 571.05181 
L 262.089686 550.818344 
L 264.044242 503.336619 
L 265.998798 562.249858 
L 267.953354 537.859478 
L 269.90791 555.644459 
L 271.862466 535.348009 
L 273.817022 602.79552 
L 275.771578 620.63561 
L 277.726134 580.963846 
L 279.68069 558.549575 
L 281.635246 564.414918 
L 283.589802 571.618662 
L 285.544358 554.857164 
L 287.498914 532.198832 
L 289.45347 524.601441 
L 291.408026 555.116971 
L 293.362582 497.258707 
L 295.317138 491.708281 
L 297.271694 510.249064 
L 299.22625 554.290312 
L 301.180806 552.38506 
L 303.135362 521.625468 
L 305.089918 541.669983 
L 307.044474 545.842643 
L 308.99903 589.175327 
L 310.953586 604.023699 
L 312.908142 562.690743 
L 314.862698 492.637288 
L 316.817254 486.905785 
L 318.77181 524.932104 
L 320.726366 515.500318 
L 322.680922 460.673136 
L 324.635478 472.065286 
L 326.590034 477.174827 
L 328.54459 503.620045 
L 330.499146 507.706103 
L 332.453702 552.904674 
L 334.408258 463.70422 
L 336.362814 497.211469 
L 338.31737 561.557039 
L 340.271926 589.474498 
L 342.226481 535.623562 
L 344.181037 572.531923 
L 346.135593 545.496234 
L 348.090149 560.281622 
L 350.044705 551.361577 
L 351.999261 530.340817 
L 353.953817 506.572399 
L 355.908373 546.999966 
L 357.862929 523.617323 
L 359.817485 522.672569 
L 361.772041 543.646092 
L 363.726597 535.529087 
L 365.681153 533.080601 
L 367.635709 492.645161 
L 369.590265 512.933738 
L 371.544821 520.680715 
L 373.499377 525.152547 
L 375.453933 513.09907 
L 379.363045 563.304833 
L 381.317601 545.693057 
L 383.272157 534.670936 
L 385.226713 553.896665 
L 387.181269 548.960329 
L 389.135825 504.234135 
L 391.090381 518.137754 
L 393.044937 498.321554 
L 394.999493 516.224628 
L 396.954049 529.270096 
L 398.908605 554.849291 
L 400.863161 593.300749 
L 402.817717 506.926682 
L 406.726829 523.042598 
L 408.681385 514.799626 
L 410.635941 492.527067 
L 412.590497 498.534123 
L 414.545053 479.576074 
L 416.499609 505.139523 
L 418.454165 505.604027 
L 420.408721 528.104901 
L 422.363277 483.654259 
L 424.317832 506.863698 
L 426.272388 498.20346 
L 428.226944 508.839807 
L 430.1815 494.385082 
L 432.136056 498.250697 
L 434.090612 487.606477 
L 436.045168 558.077198 
L 437.999724 518.34245 
L 439.95428 524.01097 
L 441.908836 542.953273 
L 443.863392 512.453488 
L 445.817948 523.562212 
L 447.772504 537.505196 
L 449.72706 535.096075 
L 451.681616 539.520669 
L 453.636172 472.167634 
L 457.545284 575.751957 
L 459.49984 595.426444 
L 461.454396 597.544266 
L 463.408952 537.827986 
L 465.363508 578.468123 
L 467.318064 577.106104 
L 469.27262 580.648928 
L 471.227176 581.908599 
L 473.181732 549.109915 
L 475.136288 533.474248 
L 477.090844 522.538729 
L 479.0454 565.38329 
L 480.999956 509.51688 
L 482.954512 486.33106 
L 484.909068 531.443029 
L 486.863624 537.450085 
L 488.81818 548.905219 
L 490.772736 567.690063 
L 492.727292 609.581997 
L 494.681848 529.112638 
L 496.636404 508.335939 
L 498.59096 506.131514 
L 500.545516 521.727816 
L 502.500072 510.083732 
L 504.454628 517.578775 
L 506.409184 543.653965 
L 508.363739 491.19654 
L 510.318295 492.660907 
L 510.318295 492.660907 
" clip-path="url(#p96904a911e)" style="fill: none; stroke: #ff7f0e; stroke-width: 1.5; stroke-linecap: square"/>
   </g>
   <g id="patch_15">
    <path d="M 67.025 678.04 
L 67.025 380.76 
" style="fill: none; stroke: #000000; stroke-width: 0.8; stroke-linejoin: miter; stroke-linecap: square"/>
   </g>
   <g id="patch_16">
    <path d="M 531.4275 678.04 
L 531.4275 380.76 
" style="fill: none; stroke: #000000; stroke-width: 0.8; stroke-linejoin: miter; stroke-linecap: square"/>
   </g>
   <g id="patch_17">
    <path d="M 67.025 678.04 
L 531.4275 678.04 
" style="fill: none; stroke: #000000; stroke-width: 0.8; stroke-linejoin: miter; stroke-linecap: square"/>
   </g>
   <g id="patch_18">
    <path d="M 67.025 380.76 
L 531.4275 380.76 
" style="fill: none; stroke: #000000; stroke-width: 0.8; stroke-linejoin: miter; stroke-linecap: square"/>
   </g>
   <g id="text_49">
    <!-- Training and Validation MAE (Skip first 50) -->
    <g transform="translate(173.324687 374.76) scale(0.12 -0.12)">
     <use xlink:href="#DejaVuSans-54"/>
     <use xlink:href="#DejaVuSans-72" x="46.333984"/>
     <use xlink:href="#DejaVuSans-61" x="87.447266"/>
     <use xlink:href="#DejaVuSans-69" x="148.726562"/>
     <use xlink:href="#DejaVuSans-6e" x="176.509766"/>
     <use xlink:href="#DejaVuSans-69" x="239.888672"/>
     <use xlink:href="#DejaVuSans-6e" x="267.671875"/>
     <use xlink:href="#DejaVuSans-67" x="331.050781"/>
     <use xlink:href="#DejaVuSans-20" x="394.527344"/>
     <use xlink:href="#DejaVuSans-61" x="426.314453"/>
     <use xlink:href="#DejaVuSans-6e" x="487.59375"/>
     <use xlink:href="#DejaVuSans-64" x="550.972656"/>
     <use xlink:href="#DejaVuSans-20" x="614.449219"/>
     <use xlink:href="#DejaVuSans-56" x="646.236328"/>
     <use xlink:href="#DejaVuSans-61" x="706.894531"/>
     <use xlink:href="#DejaVuSans-6c" x="768.173828"/>
     <use xlink:href="#DejaVuSans-69" x="795.957031"/>
     <use xlink:href="#DejaVuSans-64" x="823.740234"/>
     <use xlink:href="#DejaVuSans-61" x="887.216797"/>
     <use xlink:href="#DejaVuSans-74" x="948.496094"/>
     <use xlink:href="#DejaVuSans-69" x="987.705078"/>
     <use xlink:href="#DejaVuSans-6f" x="1015.488281"/>
     <use xlink:href="#DejaVuSans-6e" x="1076.669922"/>
     <use xlink:href="#DejaVuSans-20" x="1140.048828"/>
     <use xlink:href="#DejaVuSans-4d" x="1171.835938"/>
     <use xlink:href="#DejaVuSans-41" x="1258.115234"/>
     <use xlink:href="#DejaVuSans-45" x="1326.523438"/>
     <use xlink:href="#DejaVuSans-20" x="1389.707031"/>
     <use xlink:href="#DejaVuSans-28" x="1421.494141"/>
     <use xlink:href="#DejaVuSans-53" x="1460.507812"/>
     <use xlink:href="#DejaVuSans-6b" x="1523.984375"/>
     <use xlink:href="#DejaVuSans-69" x="1581.894531"/>
     <use xlink:href="#DejaVuSans-70" x="1609.677734"/>
     <use xlink:href="#DejaVuSans-20" x="1673.154297"/>
     <use xlink:href="#DejaVuSans-66" x="1704.941406"/>
     <use xlink:href="#DejaVuSans-69" x="1740.146484"/>
     <use xlink:href="#DejaVuSans-72" x="1767.929688"/>
     <use xlink:href="#DejaVuSans-73" x="1809.042969"/>
     <use xlink:href="#DejaVuSans-74" x="1861.142578"/>
     <use xlink:href="#DejaVuSans-20" x="1900.351562"/>
     <use xlink:href="#DejaVuSans-35" x="1932.138672"/>
     <use xlink:href="#DejaVuSans-30" x="1995.761719"/>
     <use xlink:href="#DejaVuSans-29" x="2059.384766"/>
    </g>
   </g>
   <g id="legend_3">
    <g id="patch_19">
     <path d="M 418.080625 418.11625 
L 524.4275 418.11625 
Q 526.4275 418.11625 526.4275 416.11625 
L 526.4275 387.76 
Q 526.4275 385.76 524.4275 385.76 
L 418.080625 385.76 
Q 416.080625 385.76 416.080625 387.76 
L 416.080625 416.11625 
Q 416.080625 418.11625 418.080625 418.11625 
z
" style="fill: #ffffff; opacity: 0.8; stroke: #cccccc; stroke-linejoin: miter"/>
    </g>
    <g id="line2d_47">
     <path d="M 420.080625 393.858438 
L 430.080625 393.858438 
L 440.080625 393.858438 
" style="fill: none; stroke: #1f77b4; stroke-width: 1.5; stroke-linecap: square"/>
    </g>
    <g id="text_50">
     <!-- Training MAE -->
     <g transform="translate(448.080625 397.358438) scale(0.1 -0.1)">
      <use xlink:href="#DejaVuSans-54"/>
      <use xlink:href="#DejaVuSans-72" x="46.333984"/>
      <use xlink:href="#DejaVuSans-61" x="87.447266"/>
      <use xlink:href="#DejaVuSans-69" x="148.726562"/>
      <use xlink:href="#DejaVuSans-6e" x="176.509766"/>
      <use xlink:href="#DejaVuSans-69" x="239.888672"/>
      <use xlink:href="#DejaVuSans-6e" x="267.671875"/>
      <use xlink:href="#DejaVuSans-67" x="331.050781"/>
      <use xlink:href="#DejaVuSans-20" x="394.527344"/>
      <use xlink:href="#DejaVuSans-4d" x="426.314453"/>
      <use xlink:href="#DejaVuSans-41" x="512.59375"/>
      <use xlink:href="#DejaVuSans-45" x="581.001953"/>
     </g>
    </g>
    <g id="line2d_48">
     <path d="M 420.080625 408.536563 
L 430.080625 408.536563 
L 440.080625 408.536563 
" style="fill: none; stroke: #ff7f0e; stroke-width: 1.5; stroke-linecap: square"/>
    </g>
    <g id="text_51">
     <!-- Validation MAE -->
     <g transform="translate(448.080625 412.036563) scale(0.1 -0.1)">
      <use xlink:href="#DejaVuSans-56"/>
      <use xlink:href="#DejaVuSans-61" x="60.658203"/>
      <use xlink:href="#DejaVuSans-6c" x="121.9375"/>
      <use xlink:href="#DejaVuSans-69" x="149.720703"/>
      <use xlink:href="#DejaVuSans-64" x="177.503906"/>
      <use xlink:href="#DejaVuSans-61" x="240.980469"/>
      <use xlink:href="#DejaVuSans-74" x="302.259766"/>
      <use xlink:href="#DejaVuSans-69" x="341.46875"/>
      <use xlink:href="#DejaVuSans-6f" x="369.251953"/>
      <use xlink:href="#DejaVuSans-6e" x="430.433594"/>
      <use xlink:href="#DejaVuSans-20" x="493.8125"/>
      <use xlink:href="#DejaVuSans-4d" x="525.599609"/>
      <use xlink:href="#DejaVuSans-41" x="611.878906"/>
      <use xlink:href="#DejaVuSans-45" x="680.287109"/>
     </g>
    </g>
   </g>
  </g>
  <g id="axes_4"/>
 </g>
 <defs>
  <clipPath id="pd057540cb2">
   <rect x="67.025" y="26.16" width="464.4025" height="297.28"/>
  </clipPath>
  <clipPath id="p398373675a">
   <rect x="604.7975" y="26.16" width="464.4025" height="297.28"/>
  </clipPath>
  <clipPath id="p96904a911e">
   <rect x="67.025" y="380.76" width="464.4025" height="297.28"/>
  </clipPath>
 </defs>
</svg>
